<?xml version="1.0" encoding="UTF-8"?>
<svg version="1.1" xmlns="http://www.w3.org/2000/svg" width="813" height="542">
<path d="M0 0 C1.14275391 -0.00386719 1.14275391 -0.00386719 2.30859375 -0.0078125 C4.5625 0.125 4.5625 0.125 6.38647461 0.60205078 C8.81406736 1.18545745 11.14455508 1.42064815 13.6328125 1.625 C14.6125 1.7075 15.5921875 1.79 16.6015625 1.875 C17.61992187 1.9575 18.63828125 2.04 19.6875 2.125 C31.53924445 3.10752804 31.53924445 3.10752804 37.01953125 3.62890625 C37.7875708 3.70181885 38.55561035 3.77473145 39.34692383 3.84985352 C43.15127424 4.32230563 46.83994584 5.2287084 50.5625 6.125 C52.10374465 6.46027919 53.64541213 6.79362071 55.1875 7.125 C59.02722425 7.97679325 62.7853545 9.02619404 66.5625 10.125 C69.22458743 10.81168686 71.89254921 11.46922261 74.5625 12.125 C74.5625 12.785 74.5625 13.445 74.5625 14.125 C75.614375 14.186875 76.66625 14.24875 77.75 14.3125 C87.09954463 15.47290447 96.07991997 20.20153275 104.5625 24.125 C104.5625 24.785 104.5625 25.445 104.5625 26.125 C105.51125 26.269375 106.46 26.41375 107.4375 26.5625 C110.5625 27.125 110.5625 27.125 112.5625 28.125 C112.5625 28.785 112.5625 29.445 112.5625 30.125 C113.325625 30.269375 114.08875 30.41375 114.875 30.5625 C117.5625 31.125 117.5625 31.125 120.5625 32.125 C120.5625 32.785 120.5625 33.445 120.5625 34.125 C121.42875 34.3725 122.295 34.62 123.1875 34.875 C126.77310064 36.20300024 129.52577987 37.81130848 132.5625 40.125 C132.5625 40.785 132.5625 41.445 132.5625 42.125 C133.13484375 42.23972656 133.7071875 42.35445312 134.296875 42.47265625 C136.77721656 43.18682356 138.62618697 44.19807872 140.8125 45.5625 C141.87210938 46.21025391 141.87210938 46.21025391 142.953125 46.87109375 C143.48421875 47.28488281 144.0153125 47.69867188 144.5625 48.125 C144.5625 48.785 144.5625 49.445 144.5625 50.125 C145.2225 50.310625 145.8825 50.49625 146.5625 50.6875 C150.89343165 52.76273808 154.03319161 55.91104806 157.5625 59.125 C158.8086329 60.19203283 160.05839248 61.25485139 161.3125 62.3125 C163.84331323 64.48425048 166.33731964 66.632798 168.5625 69.125 C168.5625 69.785 168.5625 70.445 168.5625 71.125 C169.3978125 71.434375 169.3978125 71.434375 170.25 71.75 C172.85315948 73.29782456 174.41403773 75.19790128 176.28125 77.5546875 C177.68685912 79.33130219 177.68685912 79.33130219 180 81.5625 C182.00259457 83.56509457 183.92942004 85.5752146 185.8125 87.6875 C186.31265625 88.24566406 186.8128125 88.80382812 187.328125 89.37890625 C188.5625 91.125 188.5625 91.125 189.046875 93.27734375 C189.30210937 94.19193359 189.30210937 94.19193359 189.5625 95.125 C190.5525 95.455 191.5425 95.785 192.5625 96.125 C193.25 98.1875 193.25 98.1875 193.5625 100.125 C194.2225 100.125 194.8825 100.125 195.5625 100.125 C196.2225 101.775 196.8825 103.425 197.5625 105.125 C198.2225 105.125 198.8825 105.125 199.5625 105.125 C200.2225 107.105 200.8825 109.085 201.5625 111.125 C202.2225 111.125 202.8825 111.125 203.5625 111.125 C203.954375 111.929375 204.34625 112.73375 204.75 113.5625 C207.45867874 118.88645477 210.24737418 124.15231126 213.5625 129.125 C213.5625 130.115 213.5625 131.105 213.5625 132.125 C214.2225 132.125 214.8825 132.125 215.5625 132.125 C218.07602229 137.63541426 220.43279613 143.19234956 222.6875 148.8125 C222.94096191 149.44164307 223.19442383 150.07078613 223.45556641 150.71899414 C224.95687933 154.48416804 226.30751445 158.2715174 227.5625 162.125 C227.88089844 163.03378906 228.19929688 163.94257813 228.52734375 164.87890625 C230.72580376 171.22706989 232.45177539 177.54642213 233.8515625 184.1171875 C234.50623186 187.13270943 234.50623186 187.13270943 235.58203125 189.98828125 C236.77200618 193.79525285 237.21121637 197.4831677 237.625 201.4375 C237.73436735 206.16393777 237.73436735 206.16393777 239.5625 210.125 C242.14409128 227.9097669 242.08194343 245.88604898 240.6875 263.75 C240.60918945 264.77029297 240.53087891 265.79058594 240.45019531 266.84179688 C239.98766979 272.19008052 239.14271536 276.97374678 237.5625 282.125 C237.00183465 285.68366756 236.56314143 289.24476551 236.125 292.8203125 C235.60339477 295.88474323 234.75858993 298.27783692 233.5625 301.125 C233.21099907 302.72107457 232.89832302 304.32619572 232.625 305.9375 C231.88082451 309.86767681 230.83443571 313.41391071 229.3515625 317.12109375 C227.92928161 320.73312393 226.77136686 324.43727693 225.5625 328.125 C224.89583333 330.125 224.22916667 332.125 223.5625 334.125 C222.9025 334.125 222.2425 334.125 221.5625 334.125 C221.418125 335.28 221.27375 336.435 221.125 337.625 C219.87026147 343.4373917 216.92307577 348.21256636 213.92602539 353.27539062 C211.44963502 357.46374509 209.38578697 361.61075252 207.5625 366.125 C206.9025 366.125 206.2425 366.125 205.5625 366.125 C205.294375 367.053125 205.02625 367.98125 204.75 368.9375 C203.56939802 372.10648427 202.88496203 372.89186344 200.5625 375.125 C199.87484769 376.32151502 199.2101343 377.53135989 198.5625 378.75 C196.5625 382.125 196.5625 382.125 193.5625 383.125 C192.98978819 384.99794959 192.98978819 384.99794959 192.5625 387.125 C191.44140625 389.046875 191.44140625 389.046875 190.125 390.875 C189.47724609 391.79539062 189.47724609 391.79539062 188.81640625 392.734375 C188.40261719 393.19328125 187.98882813 393.6521875 187.5625 394.125 C186.9025 394.125 186.2425 394.125 185.5625 394.125 C185.2221875 395.2078125 185.2221875 395.2078125 184.875 396.3125 C183.28764618 399.71397247 181.2755647 401.53525643 178.5625 404.125 C177.61500482 405.24159488 176.67801556 406.36716357 175.75 407.5 C172.38190014 411.48126675 168.54845585 414.77895582 164.5625 418.125 C163.31118583 419.18595198 162.06111359 420.24837108 160.8125 421.3125 C160.24660156 421.79332031 159.68070313 422.27414062 159.09765625 422.76953125 C157.75854767 423.95189938 156.49621878 425.22009963 155.25 426.5 C153.5625 428.125 153.5625 428.125 151.5625 428.125 C151.5625 428.785 151.5625 429.445 151.5625 430.125 C149.86758386 431.52768922 148.104665 432.84890346 146.3125 434.125 C145.33796875 434.82625 144.3634375 435.5275 143.359375 436.25 C141.12182897 437.75003086 138.96933085 438.9460332 136.5625 440.125 C135.8509375 440.8984375 135.8509375 440.8984375 135.125 441.6875 C133.07050956 443.57763121 131.28255723 443.7574247 128.5625 444.125 C128.2325 445.115 127.9025 446.105 127.5625 447.125 C125.43470447 448.53958451 123.3625726 449.78553377 121.125 451 C120.49480957 451.34933594 119.86461914 451.69867188 119.21533203 452.05859375 C117.33731326 453.09276817 115.45151779 454.11108305 113.5625 455.125 C112.56863281 455.66382813 111.57476563 456.20265625 110.55078125 456.7578125 C104.11464286 460.125 104.11464286 460.125 99.5625 460.125 C99.5625 460.785 99.5625 461.445 99.5625 462.125 C96.19152617 463.62321059 94.35807881 464.125 90.5625 464.125 C90.5625 464.785 90.5625 465.445 90.5625 466.125 C87.2625 466.785 83.9625 467.445 80.5625 468.125 C80.5625 468.785 80.5625 469.445 80.5625 470.125 C76.29633684 471.26264351 72.99763689 472.125 68.5625 472.125 C68.5625 472.785 68.5625 473.445 68.5625 474.125 C66.91701172 474.41503906 66.91701172 474.41503906 65.23828125 474.7109375 C63.78380418 474.97368175 62.32937983 475.23671801 60.875 475.5 C59.7931543 475.68949219 59.7931543 475.68949219 58.68945312 475.8828125 C55.68982927 476.430689 52.95907795 476.96114062 50.1328125 478.12890625 C46.24126901 479.63702721 42.24339555 480.10103553 38.125 480.6875 C37.22612061 480.81680908 36.32724121 480.94611816 35.40112305 481.0793457 C11.4504067 484.4280325 -13.14247959 484.13843328 -37.0625 480.6875 C-37.91690674 480.56528076 -38.77131348 480.44306152 -39.65161133 480.31713867 C-43.88479222 479.66792438 -47.46852496 478.76228184 -51.4375 477.125 C-54.1901079 476.47911868 -56.9655754 475.98770976 -59.75 475.5 C-60.49056641 475.3659375 -61.23113281 475.231875 -61.99414062 475.09375 C-63.80775044 474.76613016 -65.62251524 474.44491506 -67.4375 474.125 C-67.4375 473.465 -67.4375 472.805 -67.4375 472.125 C-68.675 471.980625 -69.9125 471.83625 -71.1875 471.6875 C-74.00254499 471.33811498 -76.7076497 470.92120634 -79.4375 470.125 C-79.4375 469.465 -79.4375 468.805 -79.4375 468.125 C-81.355625 467.7846875 -81.355625 467.7846875 -83.3125 467.4375 C-87.97723599 466.4122833 -91.82340148 464.57373909 -96.02734375 462.3515625 C-98.78132385 460.95002319 -101.57002418 459.91493019 -104.4765625 458.8828125 C-107.92449848 457.55034322 -111.15740546 455.82362038 -114.4375 454.125 C-114.4375 453.465 -114.4375 452.805 -114.4375 452.125 C-115.22125 451.980625 -116.005 451.83625 -116.8125 451.6875 C-119.4375 451.125 -119.4375 451.125 -121.4375 450.125 C-121.4375 449.465 -121.4375 448.805 -121.4375 448.125 C-123.0875 447.795 -124.7375 447.465 -126.4375 447.125 C-126.9325 445.64 -126.9325 445.64 -127.4375 444.125 C-128.200625 444.021875 -128.96375 443.91875 -129.75 443.8125 C-132.73653817 443.04850186 -133.40442248 442.32750065 -135.4375 440.125 C-137.09704362 439.11322297 -138.76496765 438.11515824 -140.4375 437.125 C-142.22070255 435.95615629 -143.99173892 434.76853686 -145.75 433.5625 C-146.63300781 432.96308594 -147.51601563 432.36367188 -148.42578125 431.74609375 C-149.08964844 431.21113281 -149.75351562 430.67617188 -150.4375 430.125 C-150.4375 429.465 -150.4375 428.805 -150.4375 428.125 C-151.5203125 427.7846875 -151.5203125 427.7846875 -152.625 427.4375 C-156.01450303 425.85573192 -157.86214097 423.8259863 -160.4375 421.125 C-161.38625 420.361875 -162.335 419.59875 -163.3125 418.8125 C-167.15623448 415.66673265 -170.23700863 411.90422946 -173.4375 408.125 C-174.6425937 406.72636877 -175.85087375 405.33047594 -177.0625 403.9375 C-177.59101563 403.32519531 -178.11953125 402.71289062 -178.6640625 402.08203125 C-180.00644394 400.60068081 -181.41008906 399.17455118 -182.83984375 397.77734375 C-185.58926072 394.97004432 -188.00626212 392.0005276 -190.375 388.875 C-191.02577515 388.02228516 -191.02577515 388.02228516 -191.68969727 387.15234375 C-195.13545555 382.6016572 -198.38536986 377.94998461 -201.4375 373.125 C-202.365625 371.6709375 -202.365625 371.6709375 -203.3125 370.1875 C-204.4375 368.125 -204.4375 368.125 -204.4375 366.125 C-205.0975 366.125 -205.7575 366.125 -206.4375 366.125 C-207.34270867 364.31458266 -208.24712149 362.5037647 -209.1484375 360.69140625 C-210.09984444 358.79724152 -211.06555679 356.91024626 -212.0390625 355.02734375 C-212.58304688 353.96644531 -213.12703125 352.90554688 -213.6875 351.8125 C-214.20828125 350.80574219 -214.7290625 349.79898437 -215.265625 348.76171875 C-216.4375 346.125 -216.4375 346.125 -216.4375 343.125 C-217.0975 343.125 -217.7575 343.125 -218.4375 343.125 C-219.0975 340.155 -219.7575 337.185 -220.4375 334.125 C-221.0975 334.125 -221.7575 334.125 -222.4375 334.125 C-223.86008812 330.30179443 -224.67792276 327.21218695 -224.4375 323.125 C-225.0975 323.125 -225.7575 323.125 -226.4375 323.125 C-226.63085938 322.47273438 -226.82421875 321.82046875 -227.0234375 321.1484375 C-228.6797222 315.57934071 -228.6797222 315.57934071 -230.5 310.0625 C-231.52180543 306.86084299 -232.21755795 303.66417403 -232.875 300.37109375 C-233.38201859 298.07862203 -233.38201859 298.07862203 -234.43359375 295.86328125 C-235.75224396 292.26649604 -236.10862871 288.65939026 -236.5 284.875 C-236.60515653 280.11473537 -236.60515653 280.11473537 -238.4375 276.125 C-241.6561397 254.29537629 -241.6561397 230.95462371 -238.4375 209.125 C-238.1075 208.795 -237.7775 208.465 -237.4375 208.125 C-237.18831807 206.74431154 -236.99401924 205.35361839 -236.82421875 203.9609375 C-236.71271484 203.09299561 -236.60121094 202.22505371 -236.48632812 201.33081055 C-236.36708984 200.39664307 -236.24785156 199.46247559 -236.125 198.5 C-234.51471214 186.5856905 -231.87739071 175.33043846 -227.4375 164.125 C-227.0870378 162.79606617 -226.74952068 161.46348122 -226.4375 160.125 C-225.7775 160.125 -225.1175 160.125 -224.4375 160.125 C-224.293125 158.866875 -224.14875 157.60875 -224 156.3125 C-223.70001314 153.69832877 -223.27936703 151.65060108 -222.4375 149.125 C-221.7775 149.125 -221.1175 149.125 -220.4375 149.125 C-220.2725 147.97 -220.1075 146.815 -219.9375 145.625 C-218.28295439 137.93259764 -214.07976697 131.02836646 -210.4375 124.125 C-209.7775 124.125 -209.1175 124.125 -208.4375 124.125 C-208.334375 123.361875 -208.23125 122.59875 -208.125 121.8125 C-207.36299915 118.83376939 -206.58662979 118.1881646 -204.4375 116.125 C-203.24722016 113.52584462 -203.24722016 113.52584462 -202.4375 111.125 C-201.7775 111.125 -201.1175 111.125 -200.4375 111.125 C-200.36144531 110.58617187 -200.28539062 110.04734375 -200.20703125 109.4921875 C-199.13806733 106.20390256 -197.24243054 103.97389591 -195.125 101.25 C-192.75759416 98.18998121 -190.4613027 95.16112358 -188.33203125 91.9296875 C-186.79512868 89.65443792 -185.41199095 87.98177062 -183.4375 86.125 C-181.88619392 84.28159049 -180.36042557 82.41958791 -178.83984375 80.55078125 C-178.37707031 80.08027344 -177.91429687 79.60976562 -177.4375 79.125 C-176.7775 79.125 -176.1175 79.125 -175.4375 79.125 C-175.06625 78.25875 -175.06625 78.25875 -174.6875 77.375 C-173.25450012 74.79560021 -171.65325324 73.06378408 -169.4375 71.125 C-168.7775 71.125 -168.1175 71.125 -167.4375 71.125 C-166.4475 69.145 -166.4475 69.145 -165.4375 67.125 C-164.7775 67.125 -164.1175 67.125 -163.4375 67.125 C-163.21191406 66.55394531 -162.98632812 65.98289062 -162.75390625 65.39453125 C-161.06268364 62.47880325 -159.01495702 60.9029301 -156.375 58.8125 C-155.39402344 58.03003906 -154.41304688 57.24757812 -153.40234375 56.44140625 C-150.05090664 53.82295802 -146.69695943 51.20848567 -143.3125 48.6328125 C-141.55977786 47.22333178 -140.02324553 45.71525049 -138.4375 44.125 C-135.76106113 42.53586442 -134.6194944 42.125 -131.4375 42.125 C-131.1075 41.135 -130.7775 40.145 -130.4375 39.125 C-128.44140625 37.73828125 -128.44140625 37.73828125 -126 36.4375 C-125.19691406 36.00050781 -124.39382813 35.56351563 -123.56640625 35.11328125 C-121.4375 34.125 -121.4375 34.125 -119.4375 34.125 C-119.4375 33.465 -119.4375 32.805 -119.4375 32.125 C-116.53149739 30.86835022 -114.64145416 30.125 -111.4375 30.125 C-111.4375 29.465 -111.4375 28.805 -111.4375 28.125 C-108.34940305 26.36037317 -107.20437864 26.125 -103.4375 26.125 C-103.4375 25.465 -103.4375 24.805 -103.4375 24.125 C-86.05934995 16.84253758 -86.05934995 16.84253758 -79.265625 14.7421875 C-77.1357416 14.06481151 -77.1357416 14.06481151 -74.0625 12.5 C-69.23140771 10.66751672 -64.56605919 10.39394795 -59.4375 10.125 C-59.4375 9.465 -59.4375 8.805 -59.4375 8.125 C-58.30570313 7.92003906 -57.17390625 7.71507812 -56.0078125 7.50390625 C-54.52601239 7.23193028 -53.04424315 6.95978613 -51.5625 6.6875 C-50.44294922 6.48543945 -50.44294922 6.48543945 -49.30078125 6.27929688 C-45.25216622 5.57963389 -45.25216622 5.57963389 -41.4375 4.125 C-38.72791048 3.74553889 -36.03188919 3.41508694 -33.3125 3.125 C-32.51513428 3.03742432 -31.71776855 2.94984863 -30.89624023 2.85961914 C-24.13842118 2.14303254 -17.38413819 1.70396424 -10.59765625 1.37109375 C-6.89768919 1.08296282 -3.74421853 -0.01262806 0 0 Z " fill="#284549" transform="translate(406.4375,30.875)"/>
<path d="M0 0 C1.20084229 -0.00942627 2.40168457 -0.01885254 3.63891602 -0.02856445 C10.28663747 -0.00405459 16.20196927 0.51701955 22.625 2.25 C22.625 2.91 22.625 3.57 22.625 4.25 C25.37695666 4.83374838 28.00224334 5.27958771 30.8125 5.5 C35.94616868 6.50990204 40.04369011 8.80002593 44.625 11.25 C46.62231186 12.25535832 48.62247477 13.25506648 50.625 14.25 C54.625 16.25 58.625 18.25 62.625 20.25 C62.625 20.91 62.625 21.57 62.625 22.25 C63.50478516 22.65412109 63.50478516 22.65412109 64.40234375 23.06640625 C71.97805859 27.10057426 84.75047132 38.13854263 87.625 46.25 C87.625 47.57 87.625 48.89 87.625 50.25 C88.615 50.25 89.605 50.25 90.625 50.25 C90.955 51.24 91.285 52.23 91.625 53.25 C92.615 53.91 93.605 54.57 94.625 55.25 C95.87109375 57.53515625 95.87109375 57.53515625 97.0625 60.3125 C97.49304688 61.30378906 97.92359375 62.29507813 98.3671875 63.31640625 C98.78226563 64.28449219 99.19734375 65.25257813 99.625 66.25 C100.31137847 67.75051353 100.99878648 69.25055679 101.6875 70.75 C108.43538136 86.09110169 108.43538136 86.09110169 107.625 92.25 C106.625 93.25 106.625 93.25 104.34080505 93.37025452 C103.33042679 93.36803391 102.32004852 93.36581329 101.27905273 93.36352539 C100.1379454 93.36344986 98.99683807 93.36337433 97.82115173 93.36329651 C96.5795076 93.35813522 95.33786346 93.35297394 94.05859375 93.34765625 C92.16295433 93.34553383 92.16295433 93.34553383 90.22901917 93.34336853 C86.86375111 93.33870582 83.4985501 93.3297148 80.13330078 93.31866455 C76.7015033 93.30844846 73.26969891 93.30387049 69.83789062 93.29882812 C63.10024176 93.2877738 56.36262475 93.2710171 49.625 93.25 C49.17447266 92.1053125 49.17447266 92.1053125 48.71484375 90.9375 C43.03150403 76.92266943 33.64631878 68.15353867 20.375 61.1953125 C18.625 60.25 18.625 60.25 17.625 59.25 C15.65269832 58.87819644 13.67169048 58.55199332 11.6875 58.25 C5.8411235 57.35806175 5.8411235 57.35806175 3.625 56.25 C-7.75962607 55.16869223 -17.74627679 57.20446522 -28.375 61.25 C-29.365 62.24 -29.365 62.24 -30.375 63.25 C-31.365 63.25 -32.355 63.25 -33.375 63.25 C-33.44847656 63.848125 -33.52195312 64.44625 -33.59765625 65.0625 C-34.65320726 68.0328948 -36.12838047 68.66959042 -38.8125 70.25 C-42.27964867 72.29801077 -43.68993017 73.6318414 -45.375 77.25 C-46.365 77.91 -47.355 78.57 -48.375 79.25 C-49.56008781 80.9880998 -49.56008781 80.9880998 -50.5 83 C-50.83257812 83.65484375 -51.16515625 84.3096875 -51.5078125 84.984375 C-52.67092912 87.79798951 -52.67092912 87.79798951 -53.375 93.25 C-72.515 93.25 -91.655 93.25 -111.375 93.25 C-113.28372863 83.70635684 -108.62569405 73.79660826 -104.375 65.25 C-103.715 65.25 -103.055 65.25 -102.375 65.25 C-102.045 63.6 -101.715 61.95 -101.375 60.25 C-100.715 60.25 -100.055 60.25 -99.375 60.25 C-99.25640625 59.528125 -99.1378125 58.80625 -99.015625 58.0625 C-97.39339642 50.94052086 -93.7535196 45.11627964 -88.375 40.25 C-87.19491781 38.92852548 -86.02923519 37.59410938 -84.875 36.25 C-82.14759219 33.1125897 -79.44483613 30.05670732 -76.375 27.25 C-75.715 27.25 -75.055 27.25 -74.375 27.25 C-73.88 25.765 -73.88 25.765 -73.375 24.25 C-64.32994181 17.07633316 -53.33944134 10.77582035 -42.375 7.25 C-40.39503167 6.41857319 -38.41589897 5.58515426 -36.4375 4.75 C-24.46659493 0.21069707 -12.65265378 0.07612711 0 0 Z " fill="#29464A" transform="translate(409.375,159.75)"/>
<path d="M0 0 C18.81 0 37.62 0 57 0 C57 13.95883524 50.19340833 25.70507368 44 38 C43.34 38 42.68 38 42 38 C41.62875 39.051875 41.62875 39.051875 41.25 40.125 C35.98429561 52.23612009 21.4806542 68.75664824 9 74 C8.01 74 7.02 74 6 74 C6 74.66 6 75.32 6 76 C3.33333333 77.33333333 0.66666667 78.66666667 -2 80 C-2.68578125 80.37382812 -3.3715625 80.74765625 -4.078125 81.1328125 C-6 82 -6 82 -9 82 C-9 82.66 -9 83.32 -9 84 C-12.465 84.495 -12.465 84.495 -16 85 C-16 85.66 -16 86.32 -16 87 C-27.70745061 91.66963842 -38.91839239 92.48861921 -51.375 92.4375 C-52.10507263 92.43717773 -52.83514526 92.43685547 -53.58734131 92.43652344 C-65.50077718 92.39912805 -76.82668354 91.34159024 -88.1875 87.5625 C-89.16686523 87.25602539 -89.16686523 87.25602539 -90.16601562 86.94335938 C-92.04296875 86.31640625 -92.04296875 86.31640625 -95 85 C-95.33 84.01 -95.66 83.02 -96 82 C-97.051875 81.896875 -98.10375 81.79375 -99.1875 81.6875 C-102.88628113 81.02050668 -105.02986811 80.25009992 -108 78 C-108 77.34 -108 76.68 -108 76 C-109.2065625 75.814375 -109.2065625 75.814375 -110.4375 75.625 C-111.283125 75.41875 -112.12875 75.2125 -113 75 C-113.33 74.34 -113.66 73.68 -114 73 C-115.42655995 72.1133731 -116.89137542 71.28742534 -118.375 70.5 C-121.02330166 69.08527208 -123.49604549 67.669303 -126 66 C-126 65.34 -126 64.68 -126 64 C-126.598125 63.731875 -127.19625 63.46375 -127.8125 63.1875 C-130.01819033 61.99012525 -131.43583187 60.95521016 -133 59 C-133 58.01 -133 57.02 -133 56 C-134.485 55.505 -134.485 55.505 -136 55 C-142.39268653 49.4951866 -148.05707442 42.52355099 -149 34 C-149.99 33.67 -150.98 33.34 -152 33 C-153.14488448 30.4955652 -154.10282934 28.09192315 -155 25.5 C-155.26055176 24.77111572 -155.52110352 24.04223145 -155.78955078 23.29125977 C-156.30399163 21.84590297 -156.81339887 20.39874321 -157.31738281 18.94970703 C-157.87615187 17.35373789 -158.46167451 15.76715807 -159.0546875 14.18359375 C-159.32539063 13.44238281 -159.59609375 12.70117188 -159.875 11.9375 C-160.09929687 11.32777344 -160.32359375 10.71804688 -160.5546875 10.08984375 C-161.19981802 7.06225752 -161.02549238 4.08614312 -161 1 C-153.68988527 0.7443839 -146.38074253 0.54932363 -139.06705379 0.43006611 C-135.67012464 0.37280286 -132.27626515 0.29526386 -128.88110352 0.17016602 C-124.97190026 0.02704049 -121.06390982 -0.02571821 -117.15234375 -0.07421875 C-115.94166733 -0.13099289 -114.73099091 -0.18776703 -113.48362732 -0.2462616 C-109.9941782 -0.24880328 -107.3040696 -0.13431214 -104 1 C-100.86202063 4.32086284 -99.01201799 7.93370653 -97 12 C-95.48982451 14.00243744 -93.8715117 15.68701208 -92.125 17.5 C-88.09878683 21.70363951 -88.09878683 21.70363951 -87 25 C-86.31679688 25.0825 -85.63359375 25.165 -84.9296875 25.25 C-80.60180857 26.35793701 -77.09276067 28.76312187 -73.34765625 31.1171875 C-63.72670678 36.91090213 -49.8769164 36.42034272 -39.1015625 34.0234375 C-37.50093949 33.6153503 -35.90432056 33.19117627 -34.3125 32.75 C-33.57088623 32.54552246 -32.82927246 32.34104492 -32.06518555 32.13037109 C-25.07258678 30.0189462 -20.48614359 26.78857238 -16 21 C-15.21625 20.4225 -14.4325 19.845 -13.625 19.25 C-10.41238131 16.49632684 -8.52633432 13.41775007 -6.33203125 9.828125 C-5.89246094 9.22484375 -5.45289063 8.6215625 -5 8 C-4.34 8 -3.68 8 -3 8 C-1.92474806 5.34771188 -0.90543849 2.71631546 0 0 Z " fill="#29454A" transform="translate(459,291)"/>
<path d="M0 0 C24.75 0 49.5 0 75 0 C76.32 2.97 77.64 5.94 79 9 C80.15859088 10.96764907 81.36096148 12.91087377 82.625 14.8125 C85.88199842 19.74066574 85.88199842 19.74066574 87.02734375 22.2578125 C88.56342885 25.00919385 91.0903468 25.10928984 94 26 C95 27 96 28 97 29 C100.10007201 30.20049407 100.10007201 30.20049407 103 31 C103 31.66 103 32.32 103 33 C107.19920237 33.04953687 111.39824869 33.08578411 115.59765625 33.10986328 C117.02542078 33.11990427 118.45316483 33.13353981 119.88085938 33.15087891 C121.93624941 33.17521152 123.99136692 33.18650202 126.046875 33.1953125 C127.90070801 33.21102295 127.90070801 33.21102295 129.79199219 33.22705078 C132.88389946 33.00821716 134.37741254 32.51448258 137 31 C138.5778125 30.7525 138.5778125 30.7525 140.1875 30.5 C141.115625 30.335 142.04375 30.17 143 30 C143.33 29.34 143.66 28.68 144 28 C144.99 27.67 145.98 27.34 147 27 C148.81346266 25.1355719 148.81346266 25.1355719 150.5625 22.9375 C151.66501188 21.58840481 152.80310688 20.26611103 154 19 C154.66 19 155.32 19 156 19 C157.59023021 15.86391809 159.09263145 12.69422181 160.5625 9.5 C161.21412109 8.09234375 161.21412109 8.09234375 161.87890625 6.65625 C163.15066351 3.83307137 163.15066351 3.83307137 164 0 C189.08 0 214.16 0 240 0 C240 18.85050366 240 18.85050366 236.24609375 25.51953125 C234.1568738 29.67832332 232.67701675 34.07745492 231.10668945 38.45361328 C229.96632942 41.59120342 228.86203329 44.20695007 227 47 C226.34 47 225.68 47 225 47 C225.85063212 53.22104084 227.22950542 58.92673131 229.4375 64.8125 C232.52860115 73.11926444 234.61531878 81.60770091 235.5 90.4375 C235.84708549 94.0694907 235.84708549 94.0694907 237.5 97.4375 C239.27749141 101.6590421 239.7019864 105.46813802 240 110 C232.25 110.125 232.25 110.125 230 109 C230 108.34 230 107.68 230 107 C229.37996094 106.97421875 228.75992188 106.9484375 228.12109375 106.921875 C220.97390263 106.46412186 214.36654175 104.90878404 207.5078125 102.9765625 C204.75951894 102.21144737 202.03885487 101.52725784 199.25 100.9375 C195.89765289 100.22774031 192.61307051 99.35900157 189.3125 98.4375 C185.55681731 97.39308262 181.87045921 96.52303503 178 96 C178 96.66 178 97.32 178 98 C177.01 98.32613281 176.02 98.65226562 175 98.98828125 C168.28419154 101.20874855 161.60333956 103.46025401 155 106 C154.01 106.33 153.02 106.66 152 107 C151.67 108.65 151.34 110.3 151 112 C150.34 112 149.68 112 149 112 C148.62875 113.1446875 148.62875 113.1446875 148.25 114.3125 C147 117 147 117 145.0546875 118.359375 C142.55408468 120.35605406 141.94489472 121.94808828 140.875 124.9375 C137.85059506 133.22336973 137.85059506 133.22336973 135.5625 135.3125 C133.23337462 137.82795541 132.31269742 140.86094096 131 144 C130.34 144.66 129.68 145.32 129 146 C128.29289322 147.64991582 127.62056011 149.31562256 127 151 C126.34 151 125.68 151 125 151 C124.896875 151.721875 124.79375 152.44375 124.6875 153.1875 C123.93206053 156.27793421 122.84468685 158.41743841 121 161 C120.34 161 119.68 161 119 161 C118.49339844 159.93458984 118.49339844 159.93458984 117.9765625 158.84765625 C117.53054688 157.92855469 117.08453125 157.00945312 116.625 156.0625 C116.18414062 155.14597656 115.74328125 154.22945312 115.2890625 153.28515625 C114.20800838 150.87096198 114.20800838 150.87096198 112 150 C110.73708581 147.53642796 109.54343069 145.07023412 108.375 142.5625 C105.41200159 136.3577542 102.08141463 131.35076526 97.56640625 126.12890625 C95.29648895 123.04385655 95 120.77718599 95 117 C94.34 117 93.68 117 93 117 C92.71125 116.360625 92.4225 115.72125 92.125 115.0625 C91.17176549 112.84793921 91.17176549 112.84793921 89 112 C88.73316406 111.19691406 88.46632813 110.39382813 88.19140625 109.56640625 C87.23392235 106.83068396 87.23392235 106.83068396 84.71484375 105.77734375 C83.34005859 105.36162109 83.34005859 105.36162109 81.9375 104.9375 C77.50032565 103.50108838 73.30503142 101.87798023 69.0703125 99.9296875 C68.04550781 99.46949219 68.04550781 99.46949219 67 99 C65.90751953 98.43539062 65.90751953 98.43539062 64.79296875 97.859375 C60.83411377 96.64126578 57.27685333 97.03222101 53.1875 97.375 C52.39923828 97.43171875 51.61097656 97.4884375 50.79882812 97.546875 C48.86510039 97.68750974 46.93241405 97.84233888 45 98 C45 98.66 45 99.32 45 100 C38.565 100.99 38.565 100.99 32 102 C32 102.66 32 103.32 32 104 C28.58511508 104.84075218 25.16782787 105.67129993 21.75 106.5 C20.29787109 106.85771484 20.29787109 106.85771484 18.81640625 107.22265625 C17.88183594 107.44824219 16.94726562 107.67382812 15.984375 107.90625 C14.69611816 108.22045898 14.69611816 108.22045898 13.38183594 108.54101562 C11 109 11 109 7 109 C7 109.66 7 110.32 7 111 C4.03 111 1.06 111 -2 111 C-1.49494833 107.86867967 -0.67379957 104.9816658 0.375 102 C2.02420928 97.17246023 3.14346339 92.27905002 4.2578125 87.3046875 C5.74847739 80.66730594 7.35808527 74.07258545 9.3359375 67.5625 C9.56877441 66.77834717 9.80161133 65.99419434 10.04150391 65.1862793 C10.50093604 63.64697583 10.97379383 62.11159121 11.46240234 60.58129883 C13.49563419 53.70897518 12.79979277 47.85713336 11 41 C10.34 41 9.68 41 9 41 C8.74605469 40.16597656 8.49210937 39.33195312 8.23046875 38.47265625 C5.87711638 30.77505576 5.87711638 30.77505576 3.375 23.125 C3.13910156 22.41214844 2.90320313 21.69929688 2.66015625 20.96484375 C2.06655357 19.19808547 1.44146476 17.44198064 0.8125 15.6875 C0 12 0 12 0 0 Z M172 9 C168.8509288 14.18010841 168.8509288 14.18010841 169 17 C168.01 17.33 167.02 17.66 166 18 C164.56952458 19.89125309 164.56952458 19.89125309 163.25 22.1875 C160.75740272 26.10710922 158.18366122 28.88555825 154.515625 31.7109375 C152.72619331 33.11340714 152.72619331 33.11340714 151 36 C138.76228222 44.81568929 120.577412 45.71504003 106.1875 43.4375 C101.26426963 42.13231612 97.05768146 39.26950368 92.796875 36.55859375 C90.12228913 34.86441192 90.12228913 34.86441192 87.265625 34.53515625 C86.51796875 34.35855469 85.7703125 34.18195313 85 34 C83.91796875 32.19140625 83.91796875 32.19140625 83 30 C81.18837335 27.89684722 79.28307578 25.90677852 77.36328125 23.90234375 C75 21 75 21 73.7003479 18.3480835 C70.68822332 12.36345997 70.68822332 12.36345997 65.17088318 9.02809143 C61.68209993 8.72604416 58.34574564 8.76173988 54.84765625 8.92578125 C52.96475136 8.94912788 52.96475136 8.94912788 51.04380798 8.97294617 C47.72435618 9.02396179 44.41340971 9.12246849 41.09631348 9.24468994 C37.70492651 9.35776331 34.3126553 9.40756848 30.91992188 9.46289062 C24.2776181 9.58395925 17.63929939 9.7678406 11 10 C10.94143205 14.47308641 11.01704926 17.896277 12.6875 22.0625 C14.90758877 27.7229391 16.84489462 33.45571422 18.75390625 39.2265625 C19.37072266 40.59941406 19.37072266 40.59941406 20 42 C20.99 42.33 21.98 42.66 23 43 C23.49375102 44.97500409 23.98145365 46.95211472 24.4140625 48.94140625 C25.58767792 53.06470842 28.60845173 55.60845173 31.5625 58.5625 C34 61 34 61 35.6875 63.3125 C36.120625 63.869375 36.55375 64.42625 37 65 C37.66 65 38.32 65 39 65 C39.12375 65.86625 39.12375 65.86625 39.25 66.75 C40.21797787 69.6539336 41.68694284 71.03740604 44 73 C44.66 73 45.32 73 46 73 C46 73.66 46 74.32 46 75 C47.91307652 76.55890382 47.91307652 76.55890382 50.3125 78.0625 C51.11300781 78.58972656 51.91351563 79.11695313 52.73828125 79.66015625 C55.03780293 81.13007549 55.03780293 81.13007549 58 82 C58.99 83.485 58.99 83.485 60 85 C61.32 85 62.64 85 64 85 C64.33 85.99 64.66 86.98 65 88 C66.76002966 89.02102524 66.76002966 89.02102524 68.875 89.6875 C69.57367188 89.93886719 70.27234375 90.19023437 70.9921875 90.44921875 C73.13518866 91.13227296 73.13518866 91.13227296 76 91 C76.33 91.99 76.66 92.98 77 94 C79.28819098 95.01865305 81.43532868 95.8186073 83.8125 96.5625 C85.67841797 97.18318359 85.67841797 97.18318359 87.58203125 97.81640625 C98.46873376 100.92237792 109.38126828 101.43253684 120.625 101.4375 C121.37102478 101.44056152 122.11704956 101.44362305 122.88568115 101.44677734 C134.55861822 101.45930969 145.05644513 100.36495066 156 96 C156 95.34 156 94.68 156 94 C159.465 93.505 159.465 93.505 163 93 C163 92.34 163 91.68 163 91 C163.94875 90.87625 164.8975 90.7525 165.875 90.625 C169.08667191 90.28312823 169.08667191 90.28312823 171 88 C173.31648799 86.96157435 175.64903024 85.9578025 178 85 C178 84.34 178 83.68 178 83 C178.556875 82.896875 179.11375 82.79375 179.6875 82.6875 C185.15001221 81.06350988 189.10638903 77.31990034 193.1875 73.5 C193.75267334 72.97317627 194.31784668 72.44635254 194.90014648 71.90356445 C205.93320581 61.59801797 205.93320581 61.59801797 214 49 C214 48.34 214 47.68 214 47 C214.66 47 215.32 47 216 47 C220.10280218 38.94572851 223.94580383 30.85450498 227.25 22.4375 C227.58515625 21.59058594 227.9203125 20.74367188 228.265625 19.87109375 C229.33040597 16.20217424 229.33040597 16.20217424 229 9 C210.19 9 191.38 9 172 9 Z " fill="#F2F6F6" transform="translate(287,282)"/>
<path d="M0 0 C0.99 0.33 1.98 0.66 3 1 C4.09765625 3.25 4.09765625 3.25 5.0625 6 C6.1378989 9.75961169 6.1378989 9.75961169 9 12 C10.1030275 13.7545567 11.13560781 15.55394481 12.125 17.375 C12.66382813 18.35210937 13.20265625 19.32921875 13.7578125 20.3359375 C15 23 15 23 15 26 C15.66 26 16.32 26 17 26 C17.33 28.31 17.66 30.62 18 33 C18.99 33 19.98 33 21 33 C22.39453125 34.80078125 22.39453125 34.80078125 23.8125 37.3125 C24.58400391 38.66794922 24.58400391 38.66794922 25.37109375 40.05078125 C25.90863281 41.02402344 26.44617188 41.99726563 27 43 C27.85271484 44.50626953 27.85271484 44.50626953 28.72265625 46.04296875 C33 53.69769504 33 53.69769504 33 56 C33.83144531 56.13277344 34.66289062 56.26554687 35.51953125 56.40234375 C36.60621094 56.57894531 37.69289063 56.75554687 38.8125 56.9375 C39.89144531 57.11152344 40.97039062 57.28554687 42.08203125 57.46484375 C45 58 45 58 48 59 C48 59.66 48 60.32 48 61 C48.721875 61.28875 49.44375 61.5775 50.1875 61.875 C51.93750428 62.57500171 53.67162382 63.3181376 55.375 64.125 C61.63866671 66.2128889 67.36564185 64.58529228 73.4375 62.75 C75.02809889 62.28717865 76.61925815 61.82627931 78.2109375 61.3671875 C79.00854492 61.13612305 79.80615234 60.90505859 80.62792969 60.66699219 C84.25157241 59.64807577 87.90411652 58.75935317 91.5625 57.875 C95.73866608 56.86294861 99.83116552 55.77847853 103.875 54.3125 C108.48999674 52.67002534 113.13438152 52.29457815 118 52 C118 51.34 118 50.68 118 50 C119.65 50 121.3 50 123 50 C122.08344267 54.56122062 121.06281747 58.98800478 119.5 63.375 C118.00279971 67.66346313 117.21557966 71.93850963 116.52734375 76.421875 C115.97375878 79.12829039 115.05963207 81.45439953 114 84 C113.51234483 85.91811035 113.02677337 87.83687668 112.56640625 89.76171875 C111.94942403 92.19986228 111.2351853 94.59494659 110.5 97 C109.99976586 98.66659641 109.49975612 100.33326019 109 102 C108.77828125 102.71542969 108.5565625 103.43085938 108.328125 104.16796875 C107.00809337 108.77916032 106.81305021 112.34350466 108 117 C108.46019531 117.4228125 108.92039062 117.845625 109.39453125 118.28125 C111.72347316 120.77452114 112.41499603 123.47074144 113.5 126.6875 C113.93302755 127.95462072 114.36661777 129.22154929 114.80078125 130.48828125 C115.19652344 131.64714844 115.59226562 132.80601562 116 134 C116.5547712 135.46129096 117.11551594 136.92036032 117.6875 138.375 C120.78817843 146.93877852 121 152.38386609 121 162 C96.25 162 71.5 162 46 162 C44.28242545 157.99232606 42.73113318 154.24963501 41.3125 150.1875 C36.70399086 138.98083018 29.6396669 133.28895084 18.84375 128.49609375 C14.53508412 126.73317305 10.6633831 125.87173406 6 126 C5.31292969 125.97679687 4.62585938 125.95359375 3.91796875 125.9296875 C-2.73989727 125.76174133 -9.37316705 126.42642559 -16 127 C-16 127.66 -16 128.32 -16 129 C-16.96099609 129.32871094 -16.96099609 129.32871094 -17.94140625 129.6640625 C-25.76753512 132.5332543 -31.03720126 136.00356722 -35.8125 142.875 C-36.534375 143.90625 -37.25625 144.9375 -38 146 C-38.66 146 -39.32 146 -40 146 C-40.18175781 147.35544922 -40.18175781 147.35544922 -40.3671875 148.73828125 C-40.53476562 149.91777344 -40.70234375 151.09726563 -40.875 152.3125 C-41.03742188 153.48425781 -41.19984375 154.65601563 -41.3671875 155.86328125 C-42 159 -42 159 -44 162 C-46.45465849 162.28679046 -48.6564484 162.37873005 -51.11181641 162.34057617 C-51.84362625 162.34101425 -52.5754361 162.34145233 -53.329422 162.34190369 C-55.75373815 162.33980989 -58.17736684 162.3164519 -60.6015625 162.29296875 C-62.28021873 162.28737488 -63.95887985 162.28310379 -65.63754272 162.28010559 C-70.05999222 162.26864033 -74.48214706 162.23915891 -78.90447998 162.20599365 C-83.4154461 162.17532884 -87.92645974 162.16160795 -92.4375 162.14648438 C-101.29179627 162.11429065 -110.14587365 162.06307417 -119 162 C-119.0209459 160.10576085 -119.03577901 158.21145358 -119.0480957 156.31713867 C-119.05702347 155.26225754 -119.06595123 154.2073764 -119.07514954 153.12052917 C-118.96884894 148.70647513 -118.19546366 144.59726186 -117.1875 140.3125 C-117.02185547 139.51650391 -116.85621094 138.72050781 -116.68554688 137.90039062 C-116.16796875 135.61328125 -116.16796875 135.61328125 -115 132 C-114.01 131.67 -113.02 131.34 -112 131 C-111.87625 129.7934375 -111.87625 129.7934375 -111.75 128.5625 C-110.65167078 123.34543623 -108.37461825 118.7492365 -106 114 C-105.097852 105.95006401 -107.25724535 98.83406022 -110.5625 91.5625 C-112.08576295 87.78745704 -112.6843848 84.363775 -113.33203125 80.3671875 C-114.32893995 75.34183487 -115.77768546 70.45463307 -117.23583984 65.5456543 C-118.6466974 60.68906907 -119.49255415 56.034547 -120 51 C-107.06423831 52.37352779 -95.16689725 55.81069432 -82.9375 60.125 C-78.22117281 61.72320216 -73.50370361 62.85357663 -68.625 63.8125 C-67.62521118 64.01673584 -67.62521118 64.01673584 -66.60522461 64.22509766 C-60.34818441 65.37561869 -55.65145 64.46268715 -49.875 62 C-47.48870111 60.9889824 -45.28865942 60.06437004 -42.7578125 59.5 C-41.88769531 59.2525 -41.88769531 59.2525 -41 59 C-40.505 58.01 -40.505 58.01 -40 57 C-38.29296875 56.359375 -38.29296875 56.359375 -36.1875 55.75 C-31.79235246 54.2352438 -30.38782046 51.97970077 -28 48 C-27.01 48 -26.02 48 -25 48 C-24.88140625 47.43925781 -24.7628125 46.87851563 -24.640625 46.30078125 C-23.07014904 40.66047429 -20.08091529 35.23712823 -16.5 30.625 C-13.58816285 26.76681578 -12.03398634 22.4641507 -10.25390625 18 C-7.56618367 11.56956092 -3.95808002 5.71722669 0 0 Z M-39 67 C-40.00804687 67.39316406 -41.01609375 67.78632813 -42.0546875 68.19140625 C-52.18309426 72.17700008 -63.02026483 77.41925159 -71 85 C-71 85.66 -71 86.32 -71 87 C-71.5671875 87.24234375 -72.134375 87.4846875 -72.71875 87.734375 C-79.22979579 91.34666753 -84.0994154 97.78795786 -88 104 C-88.99 104.928125 -88.99 104.928125 -90 105.875 C-93.87765656 109.99501009 -96 114.347815 -96 120 C-96.66 120 -97.32 120 -98 120 C-98.495 122.475 -98.495 122.475 -99 125 C-100.485 125.495 -100.485 125.495 -102 126 C-106.40876609 133.73154935 -109.74173554 144.29132231 -108 153 C-88.86 153 -69.72 153 -50 153 C-49.34 150.36 -48.68 147.72 -48 145 C-46.32758579 141.11349896 -44.58735741 138.39157161 -41 136 C-40.608125 135.236875 -40.21625 134.47375 -39.8125 133.6875 C-37.57175392 130.36501444 -35.12687536 129.08073668 -31.64453125 127.2109375 C-30.83048828 126.61152344 -30.83048828 126.61152344 -30 126 C-30 125.01 -30 124.02 -30 123 C-29.2265625 122.8453125 -29.2265625 122.8453125 -28.4375 122.6875 C-25.8465764 122.02100559 -25.8465764 122.02100559 -22.9375 120.625 C-10.87199616 115.44678165 1.32897067 114.11987619 14 118 C15.7325 118.1546875 15.7325 118.1546875 17.5 118.3125 C21.37613475 119.07388361 23.20568821 120.30131892 26.25 122.6796875 C27.9443211 123.95799225 29.62848589 124.94325813 31.5 125.9375 C37.3646404 129.20588386 42.0256939 133.60629887 46 139 C46.804375 139.99 46.804375 139.99 47.625 141 C49.17599153 143.25598767 50.06046317 145.43193266 51 148 C51.66370979 149.66784638 52.32997931 151.33467886 53 153 C60.41459942 153.02312883 67.82919111 153.04091785 75.24381924 153.05181217 C78.68640348 153.05703982 82.12896312 153.06413531 85.5715332 153.07543945 C89.52555043 153.08834235 93.47955756 153.09322918 97.43359375 153.09765625 C98.67523788 153.10281754 99.91688202 153.10797882 101.19615173 153.11329651 C102.90781273 153.11340981 102.90781273 153.11340981 104.65405273 153.11352539 C105.664431 153.115746 106.67480927 153.11796661 107.71580505 153.12025452 C109.96580854 153.25717605 109.96580854 153.25717605 111 152 C110.88944423 145.69832122 109.25022201 140.40754384 107.0625 134.5625 C106.79751709 133.852146 106.53253418 133.14179199 106.25952148 132.40991211 C105.11926345 129.46675152 104.25576212 127.25576212 102 125 C100.9426781 122.46585196 100.02539114 119.89663605 99.09765625 117.3125 C98.09729707 114.69377903 98.09729707 114.69377903 95 113 C94.67 112.01 94.34 111.02 94 110 C93.01 110 92.02 110 91 110 C90.896875 109.278125 90.79375 108.55625 90.6875 107.8125 C89.05987301 101.15402596 84.29555147 97.02183097 79.5625 92.375 C78.89412109 91.70726562 78.22574219 91.03953125 77.53710938 90.3515625 C72.53156976 84.64066724 72.53156976 84.64066724 66 82 C66 81.34 66 80.68 66 80 C65.20335937 79.60167969 64.40671875 79.20335937 63.5859375 78.79296875 C60.390625 77.1953125 57.1953125 75.59765625 54 74 C52.47052734 73.24009766 52.47052734 73.24009766 50.91015625 72.46484375 C49.08690356 71.54709911 47.27263754 70.61102409 45.47265625 69.6484375 C40.58456685 67.06575169 36.59195717 65.43858488 31 65 C29.33065717 64.68033861 27.6626783 64.35268934 26 64 C26 63.34 26 62.68 26 62 C18.38416177 59.9451914 11.24091129 59.68825484 3.375 59.75 C2.12968506 59.75749268 0.88437012 59.76498535 -0.39868164 59.77270508 C-14.3640937 59.93597389 -26.06749409 61.40887902 -39 67 Z " fill="#F4F7F7" transform="translate(406,100)"/>
<path d="M0 0 C8.40069464 5.9738273 14.73169177 12.32369468 17.28515625 22.625 C17.92758842 29.21479669 17.71510701 36.38769324 15.28515625 42.625 C13.7890625 44.23046875 13.7890625 44.23046875 12.28515625 45.625 C11.87265625 46.388125 11.46015625 47.15125 11.03515625 47.9375 C8.39673903 51.98935501 5.03549245 55.80256937 0.2734375 57.2265625 C-1.65234375 57.5 -1.65234375 57.5 -4.71484375 57.625 C-4.71484375 58.285 -4.71484375 58.945 -4.71484375 59.625 C-7.42200617 60.52738747 -8.95261143 60.74351302 -11.7265625 60.72265625 C-12.86254883 60.71782227 -12.86254883 60.71782227 -14.02148438 60.71289062 C-15.20000977 60.70032227 -15.20000977 60.70032227 -16.40234375 60.6875 C-17.19962891 60.68298828 -17.99691406 60.67847656 -18.81835938 60.67382812 C-20.78388632 60.6620585 -22.7493746 60.64412348 -24.71484375 60.625 C-24.71484375 59.965 -24.71484375 59.305 -24.71484375 58.625 C-26.07609375 58.439375 -26.07609375 58.439375 -27.46484375 58.25 C-34.21127609 56.95260917 -37.62850974 53.26359889 -41.83984375 47.9375 C-43.68045448 45.43346331 -43.68045448 45.43346331 -46.71484375 43.625 C-49.37192254 35.48284043 -49.37323349 22.17803919 -46.02734375 14.3125 C-44.9140625 12.33984375 -44.9140625 12.33984375 -43.71484375 10.625 C-43.13669922 9.79162109 -43.13669922 9.79162109 -42.546875 8.94140625 C-32.71363353 -3.81953171 -14.36124102 -8.43932694 0 0 Z " fill="#F8F9F9" transform="translate(422.71484375,242.375)"/>
<path d="M0 0 C3.23121777 4.84682666 4.40630313 9.17632178 4 15 C3 16 3 16 0.71580505 16.12025452 C-0.29457321 16.11803391 -1.30495148 16.11581329 -2.34594727 16.11352539 C-3.4870546 16.11344986 -4.62816193 16.11337433 -5.80384827 16.11329651 C-7.0454924 16.10813522 -8.28713654 16.10297394 -9.56640625 16.09765625 C-11.46204567 16.09553383 -11.46204567 16.09553383 -13.39598083 16.09336853 C-16.76124889 16.08870582 -20.1264499 16.0797148 -23.49169922 16.06866455 C-26.9234967 16.05844846 -30.35530109 16.05387049 -33.78710938 16.04882812 C-40.52475824 16.0377738 -47.26237525 16.0210171 -54 16 C-54 15.34 -54 14.68 -54 14 C-35.52 14 -17.04 14 2 14 C1.34 10.7 0.68 7.4 0 4 C0 2.68 0 1.36 0 0 Z " fill="#7D8D8E" transform="translate(513,237)"/>
<path d="M0 0 C25.08 0 50.16 0 76 0 C76 11.70588235 76 11.70588235 75.6875 15.4375 C75.62949219 16.24058594 75.57148437 17.04367187 75.51171875 17.87109375 C74.9054293 20.39344297 73.96587889 21.36088919 72 23 C71.957279 21.33388095 71.95936168 19.66617115 72 18 C72.495 17.505 72.495 17.505 73 17 C73.33 12.05 73.66 7.1 74 2 C49.91 1.67 25.82 1.34 1 1 C0.67 1.99 0.34 2.98 0 4 C0 2.68 0 1.36 0 0 Z " fill="#B2C3C4" transform="translate(451,282)"/>
<path d="M0 0 C4.89070398 4.89070398 3 13.91704581 3 20 C-21.75 20 -46.5 20 -72 20 C-75 13 -75 13 -74 9 C-72.68 11.97 -71.36 14.94 -70 18 C-46.24 18.33 -22.48 18.66 2 19 C1.34 12.73 0.68 6.46 0 0 Z " fill="#A6B6B7" transform="translate(524,242)"/>
<path d="M0 0 C1.2375 -0.01224609 2.475 -0.02449219 3.75 -0.03710938 C10.58228587 -0.04801196 16.65381573 0.38140193 23.25 2.1875 C23.25 2.5175 23.25 2.8475 23.25 3.1875 C22.21294922 3.17702637 21.17589844 3.16655273 20.10742188 3.15576172 C16.17858474 3.1189583 12.24976203 3.09638534 8.32080078 3.07763672 C6.63555318 3.06771408 4.95032214 3.05417166 3.26513672 3.03662109 C-10.02997275 2.90184658 -22.62745737 3.95606534 -35.75 6.1875 C-32.41921763 3.20689769 -29.70136979 2.62062217 -25.3125 2.0625 C-20.8551876 1.49855707 -20.8551876 1.49855707 -16.4440918 0.67114258 C-11.03105792 -0.30060369 -5.48398228 0.00282098 0 0 Z " fill="#798B8C" transform="translate(408.75,159.8125)"/>
<path d="M0 0 C11.55 0 23.1 0 35 0 C34.67 0.99 34.34 1.98 34 3 C30.02084915 3.02934144 26.04172663 3.04691265 22.0625 3.0625 C20.94552734 3.07087891 19.82855469 3.07925781 18.67773438 3.08789062 C12.36007333 3.10641749 6.26236773 2.84339417 0 2 C0 1.34 0 0.68 0 0 Z " fill="#2E3C3E" transform="translate(386,511)"/>
<path d="M0 0 C0 3.54823932 -0.67734388 4.41927097 -3 7 C-3.99 7.33 -4.98 7.66 -6 8 C-7.70855022 11.00007271 -7.70855022 11.00007271 -9 14 C-9.66 14 -10.32 14 -11 14 C-11.2475 14.7425 -11.495 15.485 -11.75 16.25 C-13.09730521 19.21407146 -14.56017696 20.87499284 -17 23 C-17.33 23 -17.66 23 -18 23 C-18.34946135 19.73836075 -18.19311846 18.29998984 -16.390625 15.5 C-15.68421875 14.675 -14.9778125 13.85 -14.25 13 C-13.55390625 12.175 -12.8578125 11.35 -12.140625 10.5 C-11.43421875 9.675 -10.7278125 8.85 -10 8 C-8.94039062 6.6696875 -8.94039062 6.6696875 -7.859375 5.3125 C-6 3 -6 3 -4 1 C-4 1.66 -4 2.32 -4 3 C-2.68 2.01 -1.36 1.02 0 0 Z " fill="#2A393D" transform="translate(229,114)"/>
<path d="M0 0 C0.556875 0.226875 1.11375 0.45375 1.6875 0.6875 C-0.98728244 2.3502026 -3.3120144 3.68733813 -6.3125 4.6875 C-7.00622452 6.00695766 -7.66905778 7.34280512 -8.3125 8.6875 C-9.49555972 10.0289596 -10.73299346 11.32354118 -12.0078125 12.578125 C-13.08095703 13.64160156 -13.08095703 13.64160156 -14.17578125 14.7265625 C-15.29533203 15.82097656 -15.29533203 15.82097656 -16.4375 16.9375 C-17.19160156 17.68257812 -17.94570313 18.42765625 -18.72265625 19.1953125 C-20.58150772 21.0306342 -22.44487005 22.8611191 -24.3125 24.6875 C-24.3125 21.07972485 -23.3220568 19.62454456 -21.3125 16.6875 C-20.6525 16.3575 -19.9925 16.0275 -19.3125 15.6875 C-18.94125 14.945 -18.57 14.2025 -18.1875 13.4375 C-15.91951031 10.11111513 -13.53881258 8.80002958 -10.0546875 6.8984375 C-7.99154945 5.72216253 -7.99154945 5.72216253 -7.3125 2.6875 C-3.19128788 -0.43125512 -3.19128788 -0.43125512 0 0 Z " fill="#B8C4C5" transform="translate(383.3125,220.3125)"/>
<path d="M0 0 C0.33 0 0.66 0 1 0 C7 18.85106383 7 18.85106383 7 26 C4.8535247 25.88655624 2.70779408 25.75893655 0.5625 25.625 C-0.63246094 25.55539062 -1.82742188 25.48578125 -3.05859375 25.4140625 C-4.02925781 25.27742188 -4.99992188 25.14078125 -6 25 C-6.33 24.34 -6.66 23.68 -7 23 C-9.57951874 22.30906104 -9.57951874 22.30906104 -12.5625 21.875 C-13.57441406 21.70742188 -14.58632813 21.53984375 -15.62890625 21.3671875 C-16.41136719 21.24601562 -17.19382812 21.12484375 -18 21 C-18 20.34 -18 19.68 -18 19 C-13.71 19.66 -9.42 20.32 -5 21 C-5 21.66 -5 22.32 -5 23 C-1.7 23.33 1.6 23.66 5 24 C4.35828555 21.51969902 3.71184679 19.04080278 3.0625 16.5625 C2.88009766 15.85544922 2.69769531 15.14839844 2.50976562 14.41992188 C1.81850626 10.92425139 1.81850626 10.92425139 0 8 C-0.14115161 5.32941149 -0.04247107 2.67567762 0 0 Z " fill="#869699" transform="translate(522,368)"/>
<path d="M0 0 C-0.56263958 3.50509251 -1.65185182 4.95268008 -4.375 7.1875 C-5.28378906 7.95126953 -5.28378906 7.95126953 -6.2109375 8.73046875 C-8 10 -8 10 -11 11 C-12.03789581 12.64333504 -13.03567924 14.31243867 -14 16 C-15.6875 17.8125 -15.6875 17.8125 -17 19 C-17.99 18.67 -18.98 18.34 -20 18 C-11.7904032 8.4655115 -11.7904032 8.4655115 -8 5 C-7.34 5 -6.68 5 -6 5 C-5.67 4.01 -5.34 3.02 -5 2 C-2 0 -2 0 0 0 Z " fill="#6C7D7F" transform="translate(341,182)"/>
<path d="M0 0 C0.66 0.33 1.32 0.66 2 1 C-5.61520819 9.49671139 -14.287329 13.51215363 -25 17 C-25 17.66 -25 18.32 -25 19 C-26.24420647 19.5345256 -27.49570936 20.05208611 -28.75 20.5625 C-29.44609375 20.85253906 -30.1421875 21.14257812 -30.859375 21.44140625 C-33.30012784 22.07831803 -34.6403655 21.80248831 -37 21 C-36.01 21 -35.02 21 -34 21 C-34 20.34 -34 19.68 -34 19 C-30.535 18.505 -30.535 18.505 -27 18 C-27 17.34 -27 16.68 -27 16 C-25.96875 15.566875 -24.9375 15.13375 -23.875 14.6875 C-21.41715468 13.64054763 -19.07393602 12.52823156 -16.6875 11.3125 C-14 10 -14 10 -12 10 C-12 9.34 -12 8.68 -12 8 C-11.20335937 7.63648438 -11.20335937 7.63648438 -10.390625 7.265625 C-6.26007376 5.30587441 -3.02889453 3.53371028 0 0 Z " fill="#9BA9AB" transform="translate(477,357)"/>
<path d="M0 0 C0.33 0 0.66 0 1 0 C1.18077406 6.50786624 -0.29390832 12.89300585 -4.6875 17.9375 C-5.120625 18.288125 -5.55375 18.63875 -6 19 C-7 18 -7 18 -7.3125 15.9375 C-6.87070054 11.78458504 -5.00876882 8.61399034 -3 5 C-2.34 5 -1.68 5 -1 5 C-0.67 3.35 -0.34 1.7 0 0 Z " fill="#3A4749" transform="translate(199,150)"/>
<path d="M0 0 C4.75 0.875 4.75 0.875 7 2 C7 2.66 7 3.32 7 4 C9.475 4.99 9.475 4.99 12 6 C12 6.99 12 7.98 12 9 C6.84535266 8.51675181 3.18449681 5.81389239 -1 3 C-0.67 2.01 -0.34 1.02 0 0 Z " fill="#2E3B3E" transform="translate(544,77)"/>
<path d="M0 0 C1.3758682 3.71484415 0.43701879 5.42812955 -1 9 C-1.37753325 10.82474405 -1.71044303 12.659245 -2 14.5 C-2.59486766 18.28165872 -3.53310739 21.46922359 -5 25 C-5.40417219 26.429572 -5.78200684 27.86702882 -6.125 29.3125 C-6.41375 30.529375 -6.7025 31.74625 -7 33 C-8.0143635 29.83461036 -7.95408471 27.72075879 -7.1875 24.5 C-7.01605469 23.7471875 -6.84460938 22.994375 -6.66796875 22.21875 C-6 20 -6 20 -4.99609375 18.171875 C-3.5874226 15.10041948 -3.30815854 12.09150871 -2.875 8.75 C-2.70742188 7.48671875 -2.53984375 6.2234375 -2.3671875 4.921875 C-2.24601563 3.95765625 -2.12484375 2.9934375 -2 2 C-1.34 2 -0.68 2 0 2 C0 1.34 0 0.68 0 0 Z " fill="#AEBABC" transform="translate(525,159)"/>
<path d="M0 0 C1.31534494 3.65857532 0.65468309 6.08026481 -0.4375 9.75 C-0.72496094 10.73484375 -1.01242187 11.7196875 -1.30859375 12.734375 C-1.65083984 13.85585938 -1.65083984 13.85585938 -2 15 C-2.66 15 -3.32 15 -4 15 C-4 16.65 -4 18.3 -4 20 C-4.66 20 -5.32 20 -6 20 C-6 20.99 -6 21.98 -6 23 C-6.66 23 -7.32 23 -8 23 C-7.54154562 18.41545618 -6.17054633 15.16030092 -4.0546875 11.16796875 C-2.31016872 7.58201348 -1.16325153 3.807005 0 0 Z " fill="#C5D0D1" transform="translate(515,299)"/>
<path d="M0 0 C2.64 0 5.28 0 8 0 C8 0.66 8 1.32 8 2 C9.08087891 1.92845703 9.08087891 1.92845703 10.18359375 1.85546875 C13.38948946 2.01998767 15.23261129 2.82976078 18.0625 4.3125 C18.89910156 4.74175781 19.73570312 5.17101562 20.59765625 5.61328125 C22.88113036 6.93138419 24.93066469 8.37033871 27 10 C23.2498516 9.41278815 20.44270118 8.3231457 17.125 6.5 C13.01937594 4.37093195 9.63456357 3.45436898 5 3 C2.0625 1.9375 2.0625 1.9375 0 1 C0 0.67 0 0.34 0 0 Z " fill="#A5B3B5" transform="translate(432,163)"/>
<path d="M0 0 C-0.38295049 2.22111286 -0.86920188 3.80380283 -2.125 5.6875 C-4.90436873 7.63305811 -7.67889163 7.68668789 -11 8 C-10.67 7.01 -10.34 6.02 -10 5 C-9.01 4.67 -8.02 4.34 -7 4 C-6.34 3.319375 -5.68 2.63875 -5 1.9375 C-3 0 -3 0 0 0 Z " fill="#2E3B40" transform="translate(550,463)"/>
<path d="M0 0 C1.10844919 3.32534757 0.84454356 5.62182575 0 9 C0.99 8.67 1.98 8.34 3 8 C5.33299825 7.96045766 7.66708189 7.95598268 10 8 C8.68 8.33 7.36 8.66 6 9 C6 9.66 6 10.32 6 11 C3.03 11 0.06 11 -3 11 C-2.32829194 7.1936543 -1.27253436 3.64793184 0 0 Z " fill="#AFBEC0" transform="translate(288,382)"/>
<path d="M0 0 C3.96 0 7.92 0 12 0 C12.08083562 3.10468645 12.14041718 6.20727569 12.1875 9.3125 C12.21263672 10.19357422 12.23777344 11.07464844 12.26367188 11.98242188 C12.27817383 13.25375977 12.27817383 13.25375977 12.29296875 14.55078125 C12.31653442 15.72120972 12.31653442 15.72120972 12.34057617 16.9152832 C11.91847304 19.49903853 10.98510058 20.36292167 9 22 C8.957279 20.33388095 8.95936168 18.66617115 9 17 C9.33 16.67 9.66 16.34 10 16 C10.23653523 13.47403741 10.42173692 10.96892793 10.5625 8.4375 C10.60568359 7.72658203 10.64886719 7.01566406 10.69335938 6.28320312 C10.79971777 4.52238088 10.90038846 2.7612168 11 1 C7.37 1 3.74 1 0 1 C0 0.67 0 0.34 0 0 Z " fill="#DFEBEB" transform="translate(514,283)"/>
<path d="M0 0 C2.64751415 2.64751415 2.71520084 4.29761096 3 8 C2.1875 11.3125 2.1875 11.3125 1 14 C0.01 14.495 0.01 14.495 -1 15 C-1.02693575 12.87506859 -1.04636628 10.75004088 -1.0625 8.625 C-1.07410156 7.44164062 -1.08570313 6.25828125 -1.09765625 5.0390625 C-1 2 -1 2 0 0 Z " fill="#35494B" transform="translate(168,247)"/>
<path d="M0 0 C0.66 0.33 1.32 0.66 2 1 C0.7934375 1.6496875 0.7934375 1.6496875 -0.4375 2.3125 C-3.27846354 3.80474002 -3.27846354 3.80474002 -4 7 C-6.06640625 8.82421875 -6.06640625 8.82421875 -8.5625 10.6875 C-9.38878906 11.31011719 -10.21507812 11.93273437 -11.06640625 12.57421875 C-11.70449219 13.04472656 -12.34257812 13.51523438 -13 14 C-13 9.97698923 -11.67577112 8.95743123 -9 6 C-6.18496932 3.36871806 -3.71545405 1.23848468 0 0 Z " fill="#B1BFC1" transform="translate(393,241)"/>
<path d="M0 0 C0.99 0.33 1.98 0.66 3 1 C-0.96 4.96 -4.92 8.92 -9 13 C-9 8.83669981 -7.46061888 6.5005265 -4.5703125 3.53125 C-3 2.125 -3 2.125 0 0 Z " fill="#D3DEDE" transform="translate(368,232)"/>
<path d="M0 0 C0.99 0.33 1.98 0.66 3 1 C2.67 1.66 2.34 2.32 2 3 C1.34 2.67 0.68 2.34 0 2 C-0.1546875 2.8353125 -0.1546875 2.8353125 -0.3125 3.6875 C-1 6 -1 6 -2.5 8.4375 C-4.01771781 11.03026793 -4.57847139 13.04929976 -5 16 C-6.32 16.33 -7.64 16.66 -9 17 C-7.46933687 11.18348012 -4.32262613 4.32262613 0 0 Z " fill="#99A9AB" transform="translate(406,100)"/>
<path d="M0 0 C0.33 0 0.66 0 1 0 C3.1786335 6.2116991 5.10177734 12.36071836 4 19 C3.34 19.66 2.68 20.32 2 21 C1.90912109 19.71802734 1.90912109 19.71802734 1.81640625 18.41015625 C1.73261719 17.30542969 1.64882813 16.20070312 1.5625 15.0625 C1.48128906 13.96035156 1.40007812 12.85820312 1.31640625 11.72265625 C1.29581916 9.08890097 1.29581916 9.08890097 0 8 C-0.14115161 5.32941149 -0.04247107 2.67567762 0 0 Z " fill="#68797B" transform="translate(297,195)"/>
<path d="M0 0 C1.1161656 3.71429898 1.3124195 7.39161508 1.5625 11.25 C1.64628906 12.51328125 1.73007812 13.7765625 1.81640625 15.078125 C1.87699219 16.04234375 1.93757812 17.0065625 2 18 C0 17 0 17 -1.125 13.9375 C-2.19682285 9.90141709 -2.1459001 6.15815272 -2 2 C-1.34 2 -0.68 2 0 2 C0 1.34 0 0.68 0 0 Z " fill="#869597" transform="translate(514,327)"/>
<path d="M0 0 C3.13138355 3.13138355 4.89746937 6.4278637 5.1875 10.875 C5.125625 11.57625 5.06375 12.2775 5 13 C3 11.75 3 11.75 1 10 C1 8.68 1 7.36 1 6 C0.34 6 -0.32 6 -1 6 C-1.33 4.68 -1.66 3.36 -2 2 C-1.34 2 -0.68 2 0 2 C0 1.34 0 0.68 0 0 Z " fill="#273A3C" transform="translate(181,348)"/>
<path d="M0 0 C0.66 0.33 1.32 0.66 2 1 C-0.1496063 9.33627809 -0.1496063 9.33627809 -3.5625 12 C-4.7690625 12.495 -4.7690625 12.495 -6 13 C-6.99 13.495 -6.99 13.495 -8 14 C-6.46162154 10.80375738 -4.71133468 7.78394426 -2.875 4.75 C-2.33617187 3.85796875 -1.79734375 2.9659375 -1.2421875 2.046875 C-0.62730469 1.03367187 -0.62730469 1.03367187 0 0 Z " fill="#A9B9B9" transform="translate(501,329)"/>
<path d="M0 0 C2.67151851 2.67151851 2.29873672 4.09182532 2.3125 7.8125 C2.32925781 8.85019531 2.34601563 9.88789063 2.36328125 10.95703125 C1.95916463 14.34205108 0.93870922 16.23260768 -1 19 C-2.05276462 16.262812 -2.04640949 15.13304055 -1.0625 12.3125 C0.28344226 8.11632707 0.17460528 4.36513192 0 0 Z " fill="#BDC9C9" transform="translate(300,327)"/>
<path d="M0 0 C0.66 0 1.32 0 2 0 C2.49382716 7.40740741 2.49382716 7.40740741 0.125 10.25 C-0.57625 10.8275 -1.2775 11.405 -2 12 C-3.23512079 14.13309192 -3.23512079 14.13309192 -4 16 C-4.33 15.34 -4.66 14.68 -5 14 C-4.2578125 12.01171875 -4.2578125 12.01171875 -3.125 9.6875 C-1.61311133 6.4551863 -0.46081108 3.57128584 0 0 Z " fill="#CCD8D9" transform="translate(301,209)"/>
<path d="M0 0 C0.66 0.33 1.32 0.66 2 1 C2 1.99 2 2.98 2 4 C-0.63259597 6.41914224 -2.59428799 7.86476266 -6 9 C-6.33 8.01 -6.66 7.02 -7 6 C-5.1875 4 -5.1875 4 -3 2 C-2.01 2 -1.02 2 0 2 C0 1.34 0 0.68 0 0 Z " fill="#2A3739" transform="translate(532,473)"/>
<path d="M0 0 C1.65 0.33 3.3 0.66 5 1 C5 1.66 5 2.32 5 3 C2.35261084 4.4606285 1.10551666 5 -2 5 C-2 5.66 -2 6.32 -2 7 C-2.99 6.67 -3.98 6.34 -5 6 C-3.35 4.02 -1.7 2.04 0 0 Z " fill="#364346" transform="translate(537,470)"/>
<path d="M0 0 C-0.55550695 3.59905908 -1.74887248 4.99909799 -4.5625 7.25 C-5.20316406 7.77078125 -5.84382813 8.2915625 -6.50390625 8.828125 C-6.99761719 9.21484375 -7.49132812 9.6015625 -8 10 C-8.66 9.67 -9.32 9.34 -10 9 C-9.319375 8.38125 -9.319375 8.38125 -8.625 7.75 C-6.91369749 6.07820003 -6.91369749 6.07820003 -6 3.9375 C-4.61694882 1.25783834 -3.07875018 0 0 0 Z " fill="#55686B" transform="translate(341,182)"/>
<path d="M0 0 C0.66 0.33 1.32 0.66 2 1 C0.26884328 2.91338375 -1.24340605 4.13995848 -3.5 5.4375 C-6.09213092 6.84627964 -6.09213092 6.84627964 -7.625 9.1875 C-8.305625 10.0846875 -8.305625 10.0846875 -9 11 C-9.99 11 -10.98 11 -12 11 C-10.92769285 7.78307855 -10.20542304 7.04565398 -7.6875 4.9375 C-7.09324219 4.43089844 -6.49898438 3.92429688 -5.88671875 3.40234375 C-3.97389166 1.98059443 -2.21561416 0.88167739 0 0 Z " fill="#728385" transform="translate(384,230)"/>
<path d="M0 0 C0 3.38023517 -0.87455622 5.83468937 -2 9 C-2.99 9 -3.98 9 -5 9 C-5.33 10.65 -5.66 12.3 -6 14 C-7.0326802 11.21176345 -7.04509293 10.1322726 -6.0625 7.25 C-5.711875 6.5075 -5.36125 5.765 -5 5 C-4.34 5 -3.68 5 -3 5 C-2.690625 4.360625 -2.38125 3.72125 -2.0625 3.0625 C-1 1 -1 1 0 0 Z " fill="#829293" transform="translate(371,241)"/>
<path d="M0 0 C0.99 0 1.98 0 3 0 C3 1.98 3 3.96 3 6 C2.34 6 1.68 6 1 6 C0.67 6.99 0.34 7.98 0 9 C-0.66 9 -1.32 9 -2 9 C-1.51421457 5.87709365 -1.0013988 3.00419641 0 0 Z " fill="#39494B" transform="translate(174,213)"/>
<path d="M0 0 C1 2 1 2 0.875 4.375 C-0.26735106 7.80205319 -2.08114387 8.97925345 -5 11 C-5.66 10.67 -6.32 10.34 -7 10 C-3.535 5.05 -3.535 5.05 0 0 Z " fill="#6C7D81" transform="translate(454,299)"/>
<path d="M0 0 C3 3.75 3 3.75 3 6 C3.66 6.33 4.32 6.66 5 7 C3.02 7.99 3.02 7.99 1 9 C-1 6 -1 6 -0.625 2.8125 C-0.41875 1.884375 -0.2125 0.95625 0 0 Z " fill="#2A3538" transform="translate(605,136)"/>
<path d="M0 0 C-2 2 -2 2 -5.125 2.125 C-6.07375 2.08375 -7.0225 2.0425 -8 2 C-8 2.66 -8 3.32 -8 4 C-9.32 4 -10.64 4 -12 4 C-12 3.34 -12 2.68 -12 2 C-11.01 2 -10.02 2 -9 2 C-9 1.34 -9 0.68 -9 0 C-3.375 -1.125 -3.375 -1.125 0 0 Z " fill="#2A393A" transform="translate(439,509)"/>
<path d="M0 0 C0 0.66 0 1.32 0 2 C-0.99 2.33 -1.98 2.66 -3 3 C-3.33 3.66 -3.66 4.32 -4 5 C-6.64 4.67 -9.28 4.34 -12 4 C-7.82050327 1.21366885 -5.06624674 0 0 0 Z " fill="#516566" transform="translate(432,322)"/>
<path d="M0 0 C0.33 0 0.66 0 1 0 C1.625 3.375 1.625 3.375 2 7 C1.34 7.66 0.68 8.32 0 9 C-0.70710678 10.64991582 -1.37943989 12.31562256 -2 14 C-3.29567138 11.40865723 -2.79191642 10.34436368 -2.125 7.5625 C-1.85042969 6.38880859 -1.85042969 6.38880859 -1.5703125 5.19140625 C-1.11497424 3.44178458 -0.57170875 1.71512624 0 0 Z " fill="#B7C4C6" transform="translate(296,351)"/>
<path d="M0 0 C0.99 0.33 1.98 0.66 3 1 C3.6875 3.0625 3.6875 3.0625 4 5 C3.4225 5.12375 2.845 5.2475 2.25 5.375 C-0.02335767 6.00648824 -1.9253529 6.88858191 -4 8 C-2.66666667 5.33333333 -1.33333333 2.66666667 0 0 Z " fill="#E2EDEF" transform="translate(406,102)"/>
<path d="M0 0 C0.33 0 0.66 0 1 0 C1.33 2.97 1.66 5.94 2 9 C-4.0546875 9.1953125 -4.0546875 9.1953125 -6 9 C-6.66 8.34 -7.32 7.68 -8 7 C-5.69 7 -3.38 7 -1 7 C-0.67 4.69 -0.34 2.38 0 0 Z " fill="#D6E1E3" transform="translate(525,383)"/>
<path d="M0 0 C5.71658336 -0.45732667 8.48649253 0.47726246 13 4 C10.44855176 4.93045933 9.25993522 5.08564091 6.640625 4.22265625 C5.85171875 3.83980469 5.0628125 3.45695312 4.25 3.0625 C3.45078125 2.68222656 2.6515625 2.30195313 1.828125 1.91015625 C1.22484375 1.60980469 0.6215625 1.30945313 0 1 C0 0.67 0 0.34 0 0 Z " fill="#748488" transform="translate(363,374)"/>
<path d="M0 0 C0.66 0.66 1.32 1.32 2 2 C1.34 4.31 0.68 6.62 0 9 C-1.32 8.34 -2.64 7.68 -4 7 C-3.34 5.35 -2.68 3.7 -2 2 C-1.34 2 -0.68 2 0 2 C0 1.34 0 0.68 0 0 Z " fill="#233536" transform="translate(178,205)"/>
<path d="M0 0 C4.71403788 0.47939368 8.66579301 0.96834048 13 3 C10.11799341 3.96066886 8.85494009 4.07718954 5.9375 3.75 C5.24527344 3.68296875 4.55304688 3.6159375 3.83984375 3.546875 C2 3 2 3 0 0 Z " fill="#BCC9C9" transform="translate(306,156)"/>
<path d="M0 0 C0.33 0.66 0.66 1.32 1 2 C2.32 1.67 3.64 1.34 5 1 C3.62845496 3.95409701 2.01136276 6.44008376 0 9 C-0.66 8.67 -1.32 8.34 -2 8 C-1.67 7.67 -1.34 7.34 -1 7 C-0.63239269 4.67182036 -0.29758419 2.3381615 0 0 Z " fill="#27393B" transform="translate(200,148)"/>
<path d="M0 0 C1.53445094 3.06890187 0.54984289 5.70094266 0 9 C-0.66 9 -1.32 9 -2 9 C-2 9.99 -2 10.98 -2 12 C-2.66 12 -3.32 12 -4 12 C-3.45660208 7.43545749 -2.20536179 4.0271824 0 0 Z " fill="#B1BEC1" transform="translate(511,310)"/>
<path d="M0 0 C1.65 0 3.3 0 5 0 C4.34 2.97 3.68 5.94 3 9 C2 5 2 5 3 2 C1.02 2.33 -0.96 2.66 -3 3 C-2.01 2.67 -1.02 2.34 0 2 C0 1.34 0 0.68 0 0 Z " fill="#A6B5B8" transform="translate(524,150)"/>
<path d="M0 0 C6.625 -0.125 6.625 -0.125 10 1 C10 1.66 10 2.32 10 3 C7.69 3.33 5.38 3.66 3 4 C3 3.01 3 2.02 3 1 C2.01 0.67 1.02 0.34 0 0 Z " fill="#26373A" transform="translate(362,507)"/>
<path d="M0 0 C0.66 0 1.32 0 2 0 C0.80100302 3.0831351 -0.47700477 6.06279492 -2 9 C-2.66 9 -3.32 9 -4 9 C-4.33 7.68 -4.66 6.36 -5 5 C-4.01 5 -3.02 5 -2 5 C-2 4.01 -2 3.02 -2 2 C-1.34 2 -0.68 2 0 2 C0 1.34 0 0.68 0 0 Z " fill="#D7E6E7" transform="translate(410,434)"/>
<path d="M0 0 C1.36722938 3.69151932 0.5123038 5.47129113 -1 9 C-1.37593066 10.9924325 -1.71979545 12.9918674 -2 15 C-2.33 15 -2.66 15 -3 15 C-2.67 10.71 -2.34 6.42 -2 2 C-1.34 2 -0.68 2 0 2 C0 1.34 0 0.68 0 0 Z " fill="#CCDADB" transform="translate(525,159)"/>
<path d="M0 0 C-0.33 0.66 -0.66 1.32 -1 2 C-3.28515625 2.4140625 -3.28515625 2.4140625 -6.0625 2.625 C-6.98160156 2.69976562 -7.90070313 2.77453125 -8.84765625 2.8515625 C-9.55792969 2.90054687 -10.26820313 2.94953125 -11 3 C-10 1 -10 1 -8.3125 0.375 C-5.51555886 -0.07855802 -2.82858003 -0.06428591 0 0 Z " fill="#485757" transform="translate(459,507)"/>
<path d="M0 0 C0.66 0.33 1.32 0.66 2 1 C0.8125 3.4375 0.8125 3.4375 -1 6 C-3.6875 6.8125 -3.6875 6.8125 -6 7 C-4.02 4.69 -2.04 2.38 0 0 Z " fill="#B8C3C5" transform="translate(441,301)"/>
<path d="M0 0 C3.35914922 2.23943282 3.81681636 3.26842083 5 7 C5 7.99 5 8.98 5 10 C4.01 9.67 3.02 9.34 2 9 C1.26953125 6.93359375 1.26953125 6.93359375 0.8125 4.4375 C0.65394531 3.61121094 0.49539063 2.78492188 0.33203125 1.93359375 C0.16767578 0.97646484 0.16767578 0.97646484 0 0 Z " fill="#C1D1D2" transform="translate(453,241)"/>
<path d="M0 0 C1.485 0.99 1.485 0.99 3 2 C3 2.66 3 3.32 3 4 C3.99 4.33 4.98 4.66 6 5 C6.6875 7.0625 6.6875 7.0625 7 9 C3.93738507 7.97912836 2.94220597 7.47189851 1 5 C0.3125 2.3125 0.3125 2.3125 0 0 Z " fill="#C5D3D4" transform="translate(446,232)"/>
<path d="M0 0 C0.66 0 1.32 0 2 0 C1.1875 3.4375 1.1875 3.4375 0 7 C-0.99 7.33 -1.98 7.66 -3 8 C-1.125 2.25 -1.125 2.25 0 0 Z " fill="#68797D" transform="translate(316,205)"/>
<path d="M0 0 C1 2 1 2 0.0625 5.125 C-0.288125 6.07375 -0.63875 7.0225 -1 8 C-2.32 7.67 -3.64 7.34 -5 7 C-3.35 4.69 -1.7 2.38 0 0 Z " fill="#A5B2B2" transform="translate(378,148)"/>
<path d="M0 0 C1.32 0.66 2.64 1.32 4 2 C2.35 3.32 0.7 4.64 -1 6 C-1.66 5.34 -2.32 4.68 -3 4 C-2.01 2.68 -1.02 1.36 0 0 Z " fill="#283437" transform="translate(568,446)"/>
<path d="M0 0 C0.33 1.32 0.66 2.64 1 4 C0.34 4 -0.32 4 -1 4 C-1.66 5.65 -2.32 7.3 -3 9 C-3.33 9 -3.66 9 -4 9 C-4 7.02 -4 5.04 -4 3 C-3.01 2.67 -2.02 2.34 -1 2 C-0.67 1.34 -0.34 0.68 0 0 Z " fill="#A7B6B7" transform="translate(437,390)"/>
<path d="M0 0 C0.66 0 1.32 0 2 0 C2.33 0.99 2.66 1.98 3 3 C2.01 4.485 2.01 4.485 1 6 C0.01 6 -0.98 6 -2 6 C-1.125 1.125 -1.125 1.125 0 0 Z " fill="#25383B" transform="translate(634,340)"/>
<path d="M0 0 C2.31 0.33 4.62 0.66 7 1 C6.360625 1.226875 5.72125 1.45375 5.0625 1.6875 C2.72806339 2.85250896 2.72806339 2.85250896 2.25 5.625 C2.1675 6.40875 2.085 7.1925 2 8 C0.23537317 4.91190305 0 3.76687864 0 0 Z " fill="#C5D6D8" transform="translate(286,151)"/>
<path d="M0 0 C0.66 0 1.32 0 2 0 C1.67 1.65 1.34 3.3 1 5 C0.01 5.33 -0.98 5.66 -2 6 C-1.125 1.125 -1.125 1.125 0 0 Z " fill="#485152" transform="translate(598,413)"/>
<path d="M0 0 C2.31 1.98 4.62 3.96 7 6 C6.01 6.495 6.01 6.495 5 7 C2.375 6.0625 2.375 6.0625 0 5 C0 3.35 0 1.7 0 0 Z " fill="#607577" transform="translate(363,306)"/>
<path d="M0 0 C0.66 0.33 1.32 0.66 2 1 C0.68 2.65 -0.64 4.3 -2 6 C-2.66 5.67 -3.32 5.34 -4 5 C-2.68 3.35 -1.36 1.7 0 0 Z " fill="#E9F3F3" transform="translate(382,252)"/>
<path d="M0 0 C2.9719385 1.12451727 5.33440687 2.22293791 8 4 C8 4.66 8 5.32 8 6 C2.33846154 4.52307692 2.33846154 4.52307692 0.625 1.875 C0.41875 1.25625 0.2125 0.6375 0 0 Z " fill="#859597" transform="translate(430,231)"/>
<path d="M0 0 C0.66 0 1.32 0 2 0 C0.52307692 4.67692308 0.52307692 4.67692308 -2.125 6.3125 C-3.053125 6.6528125 -3.053125 6.6528125 -4 7 C-2.79618552 4.50638429 -1.54571278 2.31856917 0 0 Z " fill="#394E52" transform="translate(229,110)"/>
<path d="M0 0 C2.875 -0.125 2.875 -0.125 6 0 C6.66 0.66 7.32 1.32 8 2 C7.67 2.66 7.34 3.32 7 4 C6.34 4 5.68 4 5 4 C5 3.34 5 2.68 5 2 C4.01 2.33 3.02 2.66 2 3 C1.34 2.67 0.68 2.34 0 2 C0 1.34 0 0.68 0 0 Z " fill="#283A3C" transform="translate(511,58)"/>
<path d="M0 0 C1.32 0.33 2.64 0.66 4 1 C4.33 2.98 4.66 4.96 5 7 C3.29115995 5.37660195 1.62553283 3.70680947 0 2 C0 1.34 0 0.68 0 0 Z " fill="#6D7E80" transform="translate(311,329)"/>
<path d="M0 0 C0.33 0 0.66 0 1 0 C1.33 2.31 1.66 4.62 2 7 C1.34 7 0.68 7 0 7 C-0.33 8.32 -0.66 9.64 -1 11 C-2.0257259 6.58937864 -2.03684712 4.07369424 0 0 Z " fill="#273839" transform="translate(640,316)"/>
<path d="M0 0 C0.33 0 0.66 0 1 0 C1.36923077 7.50769231 1.36923077 7.50769231 -0.5 10 C-0.995 10.33 -1.49 10.66 -2 11 C-2.24042276 6.91281305 -1.42258812 3.82320557 0 0 Z " fill="#8B999D" transform="translate(525,294)"/>
<path d="M0 0 C0.33 0 0.66 0 1 0 C1 3.96 1 7.92 1 12 C0.01 11.67 -0.98 11.34 -2 11 C-1.34 7.37 -0.68 3.74 0 0 Z " fill="#233235" transform="translate(169,287)"/>
<path d="M0 0 C-0.33 1.32 -0.66 2.64 -1 4 C-1.99 4 -2.98 4 -4 4 C-4.66 3.34 -5.32 2.68 -6 2 C-2.25 0 -2.25 0 0 0 Z " fill="#2B3C3D" transform="translate(209,141)"/>
</svg>
