<?xml version="1.0" encoding="UTF-8"?>
<!DOCTYPE svg PUBLIC "-//W3C//DTD SVG 1.1//EN" "http://www.w3.org/Graphics/SVG/1.1/DTD/svg11.dtd">
<svg xmlns="http://www.w3.org/2000/svg" version="1.1" width="542px" height="542px" style="shape-rendering:geometricPrecision; text-rendering:geometricPrecision; image-rendering:optimizeQuality; fill-rule:evenodd; clip-rule:evenodd" xmlns:xlink="http://www.w3.org/1999/xlink">
<g><path style="opacity:1" fill="#92827e" d="M 191.5,10.5 C 191.819,15.3633 191.486,20.03 190.5,24.5C 189.837,22.3587 189.503,20.0254 189.5,17.5C 189.529,14.7305 190.195,12.3972 191.5,10.5 Z"/></g>
<g><path style="opacity:1" fill="#f0e4dc" d="M 203.5,30.5 C 203.586,31.4959 203.252,32.3292 202.5,33C 200.866,33.4935 199.199,33.6602 197.5,33.5C 197.5,31.5 197.5,29.5 197.5,27.5C 195.5,27.5 193.5,27.5 191.5,27.5C 191.062,26.4937 190.396,26.4937 189.5,27.5C 189.557,26.391 189.89,25.391 190.5,24.5C 191.486,20.03 191.819,15.3633 191.5,10.5C 193.357,9.24635 195.357,9.24635 197.5,10.5C 198.321,13.4465 198.821,16.4465 199,19.5C 203.673,21.8524 205.173,25.519 203.5,30.5 Z"/></g>
<g><path style="opacity:1" fill="#eb9d89" d="M 191.5,27.5 C 193.5,27.5 195.5,27.5 197.5,27.5C 197.5,29.5 197.5,31.5 197.5,33.5C 199.199,33.6602 200.866,33.4935 202.5,33C 203.252,32.3292 203.586,31.4959 203.5,30.5C 204.789,32.248 206.289,32.5814 208,31.5C 210.039,32.9783 210.872,34.9783 210.5,37.5C 212.451,37.2267 213.951,37.8934 215,39.5C 215.422,42.2356 215.422,44.9023 215,47.5C 217,48.1667 219,48.8333 221,49.5C 221.499,53.1516 221.665,56.8183 221.5,60.5C 222.93,60.4208 224.264,60.7542 225.5,61.5C 226.324,64.6631 228.324,66.3298 231.5,66.5C 231.213,71.4949 232.88,72.4949 236.5,69.5C 236.167,68.8333 235.833,68.1667 235.5,67.5C 238.866,66.7597 242.2,66.093 245.5,65.5C 244.913,66.7666 244.913,67.7666 245.5,68.5C 247.759,66.8795 249.592,64.8795 251,62.5C 253.77,61.6521 256.603,61.3187 259.5,61.5C 259.5,63.5 259.5,65.5 259.5,67.5C 260.209,68.404 261.209,68.7373 262.5,68.5C 262.063,71.8066 262.73,74.8066 264.5,77.5C 267.61,78.6104 270.61,79.9438 273.5,81.5C 274.487,84.7683 274.82,88.1016 274.5,91.5C 277.249,91.7261 279.916,91.3928 282.5,90.5C 283.321,87.5535 283.821,84.5535 284,81.5C 284.605,79.5188 285.605,79.1854 287,80.5C 286.598,82.8739 286.764,85.2072 287.5,87.5C 284.854,90.3715 284.021,93.7048 285,97.5C 285.333,97.1667 285.667,96.8333 286,96.5C 286.471,98.2464 287.138,99.913 288,101.5C 290,102.167 291.333,103.5 292,105.5C 292.174,110.351 292.674,115.018 293.5,119.5C 293.33,120.822 293.663,121.989 294.5,123C 296.313,122.954 297.979,123.12 299.5,123.5C 300.794,129.859 300.794,136.192 299.5,142.5C 301.245,144.459 303.411,145.792 306,146.5C 306.302,151.449 306.135,156.449 305.5,161.5C 307.262,161.357 308.929,161.691 310.5,162.5C 310.964,164.975 311.964,166.975 313.5,168.5C 339.147,170.326 365.147,171.16 391.5,171C 392.71,172.039 393.71,173.206 394.5,174.5C 366.833,174.5 339.167,174.5 311.5,174.5C 310.539,172.735 310.205,170.735 310.5,168.5C 308.5,168.5 306.5,168.5 304.5,168.5C 304.5,166.833 304.5,165.167 304.5,163.5C 302.5,163.5 300.5,163.5 298.5,163.5C 298.5,157.833 298.5,152.167 298.5,146.5C 296.833,146.5 295.167,146.5 293.5,146.5C 293.5,138.833 293.5,131.167 293.5,123.5C 291.5,123.5 289.5,123.5 287.5,123.5C 287.5,121.833 287.5,120.167 287.5,118.5C 283.833,118.5 280.167,118.5 276.5,118.5C 276.5,120.167 276.5,121.833 276.5,123.5C 268.833,123.5 261.167,123.5 253.5,123.5C 253.795,125.735 253.461,127.735 252.5,129.5C 247.167,129.5 241.833,129.5 236.5,129.5C 236.5,140.167 236.5,150.833 236.5,161.5C 235.669,146.005 235.169,130.339 235,114.5C 233.883,114.335 232.716,114.002 231.5,113.5C 230.756,112.009 230.09,110.509 229.5,109C 220.5,108.667 211.5,108.333 202.5,108C 201.751,106.266 201.251,104.433 201,102.5C 199.644,101.62 198.144,101.286 196.5,101.5C 196.336,96.5154 196.336,91.682 196.5,87C 194.781,85.9431 192.947,85.1097 191,84.5C 189.801,81.2744 189.301,77.941 189.5,74.5C 190.117,74.6107 190.617,74.944 191,75.5C 191.5,59.5035 191.667,43.5035 191.5,27.5 Z"/></g>
<g><path style="opacity:1" fill="#a9837d" d="M 191.5,27.5 C 191.667,43.5035 191.5,59.5035 191,75.5C 190.617,74.944 190.117,74.6107 189.5,74.5C 189.5,58.8333 189.5,43.1667 189.5,27.5C 190.396,26.4937 191.062,26.4937 191.5,27.5 Z"/></g>
<g><path style="opacity:1" fill="#dc9e8e" d="M 293.5,119.5 C 292.674,115.018 292.174,110.351 292,105.5C 291.333,103.5 290,102.167 288,101.5C 287.138,99.913 286.471,98.2464 286,96.5C 285.667,96.8333 285.333,97.1667 285,97.5C 284.021,93.7048 284.854,90.3715 287.5,87.5C 286.764,85.2072 286.598,82.8739 287,80.5C 285.605,79.1854 284.605,79.5188 284,81.5C 283.821,84.5535 283.321,87.5535 282.5,90.5C 279.916,91.3928 277.249,91.7261 274.5,91.5C 274.82,88.1016 274.487,84.7683 273.5,81.5C 270.61,79.9438 267.61,78.6104 264.5,77.5C 262.73,74.8066 262.063,71.8066 262.5,68.5C 261.209,68.7373 260.209,68.404 259.5,67.5C 261.167,67.5 262.833,67.5 264.5,67.5C 264.5,69.1667 264.5,70.8333 264.5,72.5C 266.5,72.5 268.5,72.5 270.5,72.5C 270.5,74.5 270.5,76.5 270.5,78.5C 272.5,78.5 274.5,78.5 276.5,78.5C 276.5,72.8333 276.5,67.1667 276.5,61.5C 270.833,61.5 265.167,61.5 259.5,61.5C 256.603,61.3187 253.77,61.6521 251,62.5C 249.592,64.8795 247.759,66.8795 245.5,68.5C 244.913,67.7666 244.913,66.7666 245.5,65.5C 246.234,64.1225 246.901,62.6225 247.5,61C 250.5,60.6667 253.5,60.3333 256.5,60C 256.996,58.0036 257.996,56.3369 259.5,55C 264.979,54.5672 270.645,54.5672 276.5,55C 277.333,58.5 279.5,60.6667 283,61.5C 283.499,66.4889 283.666,71.4889 283.5,76.5C 285.722,76.178 287.556,76.8446 289,78.5C 288.907,85.3564 289.241,92.3564 290,99.5C 291.011,100.337 292.178,100.67 293.5,100.5C 293.936,106.82 293.936,113.154 293.5,119.5 Z"/></g>
<g><path style="opacity:1" fill="#f9e0d7" d="M 276.5,78.5 C 278.167,78.5 279.833,78.5 281.5,78.5C 281.5,82.1667 281.5,85.8333 281.5,89.5C 279.833,89.5 278.167,89.5 276.5,89.5C 276.5,85.8333 276.5,82.1667 276.5,78.5 Z"/></g>
<g><path style="opacity:1" fill="#f6d9ce" d="M 259.5,61.5 C 265.167,61.5 270.833,61.5 276.5,61.5C 276.5,67.1667 276.5,72.8333 276.5,78.5C 274.5,78.5 272.5,78.5 270.5,78.5C 270.5,76.5 270.5,74.5 270.5,72.5C 268.5,72.5 266.5,72.5 264.5,72.5C 264.5,70.8333 264.5,69.1667 264.5,67.5C 262.833,67.5 261.167,67.5 259.5,67.5C 259.5,65.5 259.5,63.5 259.5,61.5 Z"/></g>
<g><path style="opacity:1" fill="#e65d44" d="M 311.5,174.5 C 315.647,175.325 319.981,175.825 324.5,176C 350.522,176.11 376.522,176.776 402.5,178C 403.252,178.671 403.586,179.504 403.5,180.5C 402.833,180.5 402.167,180.5 401.5,180.5C 399.974,181.105 398.974,182.271 398.5,184C 394.464,184.205 392.297,186.372 392,190.5C 390.667,191.167 389.333,191.833 388,192.5C 387.667,200.5 387.333,208.5 387,216.5C 386.5,217 386,217.5 385.5,218C 386.716,219.74 388.382,220.74 390.5,221C 389.167,222.333 389.167,223.667 390.5,225C 393.235,226.915 396.235,228.082 399.5,228.5C 399.5,229.5 399.5,230.5 399.5,231.5C 403.04,231.377 405.04,233.043 405.5,236.5C 414.986,237.702 424.319,237.702 433.5,236.5C 433.735,232.197 436.069,230.53 440.5,231.5C 440.5,229.5 440.5,227.5 440.5,225.5C 442.167,225.5 443.833,225.5 445.5,225.5C 445.02,220.983 447.02,218.65 451.5,218.5C 451.5,211.5 451.5,204.5 451.5,197.5C 453.467,197.261 455.301,197.594 457,198.5C 457.498,201.817 457.665,205.15 457.5,208.5C 459.95,208.298 462.283,208.631 464.5,209.5C 464.5,215.833 464.5,222.167 464.5,228.5C 462.711,233.407 461.878,238.74 462,244.5C 461.833,279.505 461.333,314.505 460.5,349.5C 459.264,348.754 457.93,348.421 456.5,348.5C 456.666,353.179 456.499,357.845 456,362.5C 455.292,363.381 454.458,364.047 453.5,364.5C 451.876,364.64 450.71,363.973 450,362.5C 449.19,369.082 449.357,375.582 450.5,382C 449.833,382.167 449.167,382.333 448.5,382.5C 447.784,380.845 446.117,379.512 443.5,378.5C 441.653,379.186 439.986,380.186 438.5,381.5C 437.062,381.281 435.729,380.781 434.5,380C 400.912,379.405 371.079,378.905 345,378.5C 344.5,379 344,379.5 343.5,380C 344.766,380.309 345.933,380.809 347,381.5C 374.677,380.511 403.177,380.511 432.5,381.5C 433.711,382.72 433.711,383.887 432.5,385C 402.84,385.59 373.674,386.09 345,386.5C 343.662,385.494 342.329,384.494 341,383.5C 339.601,384.227 338.101,384.727 336.5,385C 326.833,385.667 317.167,385.667 307.5,385C 306.892,384.13 306.059,383.63 305,383.5C 301.988,384.84 298.988,386.173 296,387.5C 288.707,387.42 282.04,387.42 276,387.5C 271.488,386.055 266.822,385.388 262,385.5C 244.508,386.538 227.008,386.704 209.5,386C 204.225,382.54 199.225,382.707 194.5,386.5C 163.411,386.8 132.411,386.467 101.5,385.5C 99.777,384.2 97.6103,383.533 95,383.5C 92.8333,383.667 90.6667,383.833 88.5,384C 87.944,384.383 87.6107,384.883 87.5,385.5C 85.3551,385.262 83.6885,384.262 82.5,382.5C 83.4627,378.203 83.4627,373.87 82.5,369.5C 85.0033,368.744 87.3366,367.744 89.5,366.5C 90.33,357.009 90.83,347.342 91,337.5C 93.6897,336.071 96.5231,335.071 99.5,334.5C 100.608,330.61 100.275,326.777 98.5,323C 99.7092,310.147 99.7092,297.147 98.5,284C 100.202,281.765 101.202,279.265 101.5,276.5C 103.288,276.785 104.955,276.452 106.5,275.5C 107.167,272.5 107.833,269.5 108.5,266.5C 109.689,265.571 111.022,265.238 112.5,265.5C 112.5,263.5 112.5,261.5 112.5,259.5C 114.5,259.5 116.5,259.5 118.5,259.5C 118.5,257.5 118.5,255.5 118.5,253.5C 121.85,253.665 125.183,253.498 128.5,253C 129.38,251.644 129.714,250.144 129.5,248.5C 133.697,248.806 135.697,246.806 135.5,242.5C 137.167,242.5 138.833,242.5 140.5,242.5C 140.5,240.5 140.5,238.5 140.5,236.5C 144.167,236.5 147.833,236.5 151.5,236.5C 151.5,234.833 151.5,233.167 151.5,231.5C 155.167,231.5 158.833,231.5 162.5,231.5C 162.172,242.346 162.506,253.013 163.5,263.5C 164.552,265.256 166.219,265.923 168.5,265.5C 168.179,271.026 168.512,276.36 169.5,281.5C 171.167,281.5 172.833,281.5 174.5,281.5C 174.5,281.833 174.5,282.167 174.5,282.5C 174.5,284.167 174.5,285.833 174.5,287.5C 175.287,289.104 176.62,289.771 178.5,289.5C 177.68,293.158 179.013,295.491 182.5,296.5C 181.339,298.224 181.505,299.89 183,301.5C 184.956,301.784 187.123,301.784 189.5,301.5C 189.167,304.5 190.5,305.833 193.5,305.5C 193.335,309.182 193.501,312.848 194,316.5C 194.791,318.604 196.291,319.937 198.5,320.5C 199.84,321.688 200.507,323.188 200.5,325C 199.153,325.089 198.153,326.589 197.5,329.5C 197.732,333.75 199.232,334.417 202,331.5C 204.445,334.64 207.612,336.64 211.5,337.5C 212.791,338.825 214.124,340.158 215.5,341.5C 216.429,342.689 216.762,344.022 216.5,345.5C 218.199,345.34 219.866,345.506 221.5,346C 222.155,348.159 223.488,349.659 225.5,350.5C 225.833,350.5 226.167,350.5 226.5,350.5C 229.287,351.477 232.287,351.81 235.5,351.5C 235.201,353.604 235.534,355.604 236.5,357.5C 237.971,358.381 238.804,359.714 239,361.5C 239.333,361.167 239.667,360.833 240,360.5C 241.562,361.931 243.062,363.431 244.5,365C 246.433,365.251 248.266,365.751 250,366.5C 262.255,365.991 274.255,365.991 286,366.5C 290.091,366.097 293.924,364.93 297.5,363C 295.137,362.411 294.137,360.911 294.5,358.5C 295.552,358.351 296.552,358.517 297.5,359C 297.381,360.281 297.881,361.448 299,362.5C 300.952,360.106 303.452,358.606 306.5,358C 307.337,356.989 307.67,355.822 307.5,354.5C 313.142,354.233 318.809,353.9 324.5,353.5C 321.587,351.099 321.921,349.766 325.5,349.5C 325.649,348.448 325.483,347.448 325,346.5C 323.025,347.478 321.358,348.811 320,350.5C 318.323,351.608 316.823,351.608 315.5,350.5C 315.5,350.167 315.5,349.833 315.5,349.5C 316.451,348.081 316.784,346.415 316.5,344.5C 318.167,344.5 319.833,344.5 321.5,344.5C 321.5,342.5 321.5,340.5 321.5,338.5C 323.5,338.5 325.5,338.5 327.5,338.5C 327.5,336.5 327.5,334.5 327.5,332.5C 329.167,332.5 330.833,332.5 332.5,332.5C 332.5,330.833 332.5,329.167 332.5,327.5C 334.735,327.795 336.735,327.461 338.5,326.5C 338.5,323.167 338.5,319.833 338.5,316.5C 340.415,316.784 342.081,316.451 343.5,315.5C 344.482,312.038 344.815,308.371 344.5,304.5C 346.167,304.5 347.833,304.5 349.5,304.5C 350.249,303.469 350.915,302.302 351.5,301C 353.473,300.505 355.473,300.338 357.5,300.5C 357.517,298.435 357.85,296.435 358.5,294.5C 360.017,294.511 361.184,295.177 362,296.5C 365.359,293.471 368.692,290.471 372,287.5C 374.209,283.889 375.709,279.889 376.5,275.5C 375.533,273.238 374.866,270.905 374.5,268.5C 376.792,268.244 378.959,268.577 381,269.5C 381.207,258.504 381.04,247.504 380.5,236.5C 380.495,230.789 379.828,225.456 378.5,220.5C 376.735,219.539 374.735,219.205 372.5,219.5C 372.815,215.629 372.482,211.962 371.5,208.5C 370.791,207.596 369.791,207.263 368.5,207.5C 368.371,205.784 368.038,204.117 367.5,202.5C 364.984,200.477 362.984,197.977 361.5,195C 355.482,194.668 349.482,195.001 343.5,196C 342.433,200.116 339.933,201.616 336,200.5C 335.667,202.167 335.333,203.833 335,205.5C 333.028,206.305 331.528,207.639 330.5,209.5C 328.172,210.724 325.839,210.724 323.5,209.5C 322.167,210.5 322.167,211.5 323.5,212.5C 324.863,211.121 325.863,211.287 326.5,213C 325.713,215.099 325.38,217.266 325.5,219.5C 323.5,218.833 321.5,218.167 319.5,217.5C 319.703,215.61 319.037,214.11 317.5,213C 313.848,212.501 310.182,212.335 306.5,212.5C 306.5,210.5 306.5,208.5 306.5,206.5C 302.5,206.5 298.5,206.5 294.5,206.5C 294.5,204.833 294.5,203.167 294.5,201.5C 278.464,200.849 262.798,201.516 247.5,203.5C 247.5,205.167 247.5,206.833 247.5,208.5C 243.833,208.5 240.167,208.5 236.5,208.5C 236.739,210.467 236.406,212.301 235.5,214C 232.183,214.498 228.85,214.665 225.5,214.5C 225.5,216.167 225.5,217.833 225.5,219.5C 223.5,219.5 221.5,219.5 219.5,219.5C 217.415,222.427 216.082,222.094 215.5,218.5C 216.681,216.137 216.681,213.803 215.5,211.5C 213.082,210.585 211.082,209.085 209.5,207C 208.552,206.517 207.552,206.351 206.5,206.5C 205.68,202.9 203.347,200.9 199.5,200.5C 199.97,197.654 199.137,195.321 197,193.5C 194.974,194.019 192.974,194.353 191,194.5C 187.397,192.872 183.563,192.038 179.5,192C 180.458,190.853 180.125,189.853 178.5,189C 179.672,188.581 180.672,187.915 181.5,187C 187.157,186.501 192.824,186.334 198.5,186.5C 198.719,185.325 198.386,184.325 197.5,183.5C 192.954,185.077 188.621,184.744 184.5,182.5C 186.657,181.21 188.99,180.376 191.5,180C 191.167,179.667 190.833,179.333 190.5,179C 204.355,178.79 218.188,178.29 232,177.5C 234.241,177.68 234.741,178.513 233.5,180C 236.322,180.699 237.988,179.532 238.5,176.5C 237.948,174.997 237.948,173.331 238.5,171.5C 240.144,171.714 241.644,171.38 243,170.5C 243.606,167.57 244.44,164.737 245.5,162C 244.151,161.228 243.318,160.061 243,158.5C 241.623,162.265 240.623,161.932 240,157.5C 239.333,161.5 238.667,161.5 238,157.5C 237.168,149.147 237.335,140.813 238.5,132.5C 240.722,131.889 243.055,131.889 245.5,132.5C 248.259,132.243 250.593,131.243 252.5,129.5C 253.461,127.735 253.795,125.735 253.5,123.5C 261.167,123.5 268.833,123.5 276.5,123.5C 276.5,121.833 276.5,120.167 276.5,118.5C 280.167,118.5 283.833,118.5 287.5,118.5C 287.5,120.167 287.5,121.833 287.5,123.5C 289.5,123.5 291.5,123.5 293.5,123.5C 293.5,131.167 293.5,138.833 293.5,146.5C 295.167,146.5 296.833,146.5 298.5,146.5C 298.5,152.167 298.5,157.833 298.5,163.5C 300.5,163.5 302.5,163.5 304.5,163.5C 304.5,165.167 304.5,166.833 304.5,168.5C 306.5,168.5 308.5,168.5 310.5,168.5C 310.205,170.735 310.539,172.735 311.5,174.5 Z"/></g>
<g><path style="opacity:1" fill="#dd9f92" d="M 401.5,167.5 C 399.369,168.314 397.036,168.814 394.5,169C 395.38,170.356 395.714,171.856 395.5,173.5C 399.119,174.244 402.785,174.577 406.5,174.5C 406.5,174.833 406.5,175.167 406.5,175.5C 402.298,175.817 398.298,175.483 394.5,174.5C 393.71,173.206 392.71,172.039 391.5,171C 365.147,171.16 339.147,170.326 313.5,168.5C 342.551,167.561 371.884,167.228 401.5,167.5 Z"/></g>
<g><path style="opacity:1" fill="#e1a897" d="M 209.5,167.5 C 208.281,169.301 206.448,170.301 204,170.5C 178.558,170.756 152.891,170.423 127,169.5C 119.913,170.315 112.747,170.815 105.5,171C 104.034,171.635 102.7,172.469 101.5,173.5C 100.818,172.757 100.151,172.091 99.5,171.5C 100.723,169.228 102.723,168.061 105.5,168C 140.165,167.5 174.832,167.333 209.5,167.5 Z"/></g>
<g><path style="opacity:1" fill="#ec9c88" d="M 209.5,167.5 C 218.894,167.773 228.227,167.773 237.5,167.5C 236.781,169.764 236.448,172.097 236.5,174.5C 219.5,174.5 202.5,174.5 185.5,174.5C 182.035,174.351 180.035,176.018 179.5,179.5C 177.955,180.452 176.288,180.785 174.5,180.5C 171.647,184.228 169.813,188.562 169,193.5C 167.539,195.468 165.705,196.802 163.5,197.5C 162.511,202.975 162.178,208.642 162.5,214.5C 160.833,214.5 159.167,214.5 157.5,214.5C 157.67,215.822 157.337,216.989 156.5,218C 151.975,218.382 150.309,220.882 151.5,225.5C 147.833,225.5 144.167,225.5 140.5,225.5C 140.5,227.167 140.5,228.833 140.5,230.5C 136.865,231.114 133.198,231.448 129.5,231.5C 129.643,233.262 129.309,234.929 128.5,236.5C 126.014,237.82 124.014,239.653 122.5,242C 121.207,242.49 119.873,242.657 118.5,242.5C 118.324,246.265 116.324,248.265 112.5,248.5C 112.5,250.167 112.5,251.833 112.5,253.5C 110.5,253.5 108.5,253.5 106.5,253.5C 106.5,257.167 106.5,260.833 106.5,264.5C 105.081,265.451 103.415,265.784 101.5,265.5C 102.334,271.834 100.834,277.501 97,282.5C 96.8315,299.338 96.3315,316.005 95.5,332.5C 95.5,313.833 95.5,295.167 95.5,276.5C 99.3201,259.956 100.32,242.956 98.5,225.5C 98.0694,220.187 99.0694,215.187 101.5,210.5C 100.691,208.929 100.357,207.262 100.5,205.5C 101.5,205.5 102.5,205.5 103.5,205.5C 104.038,201.476 104.705,197.476 105.5,193.5C 106.833,193.5 108.167,193.5 109.5,193.5C 109.666,189.154 109.499,184.821 109,180.5C 106.068,177.315 102.568,176.648 98.5,178.5C 97.3527,178.182 96.5194,177.516 96,176.5C 95.6827,178.301 95.016,178.634 94,177.5C 92.788,178.776 91.9547,180.276 91.5,182C 92.4781,185.297 92.8114,188.463 92.5,191.5C 92.1131,192.72 91.2798,193.387 90,193.5C 86.3572,189.64 84.5238,184.973 84.5,179.5C 87.3213,179.684 88.9879,178.351 89.5,175.5C 92.1114,174.62 94.778,173.954 97.5,173.5C 98.7133,173.253 99.38,172.586 99.5,171.5C 100.151,172.091 100.818,172.757 101.5,173.5C 102.7,172.469 104.034,171.635 105.5,171C 112.747,170.815 119.913,170.315 127,169.5C 152.891,170.423 178.558,170.756 204,170.5C 206.448,170.301 208.281,169.301 209.5,167.5 Z"/></g>
<g><path style="opacity:1" fill="#f8ece1" d="M 401.5,167.5 C 403.167,167.5 404.833,167.5 406.5,167.5C 411.64,168.488 416.974,168.821 422.5,168.5C 422.5,170.5 422.5,172.5 422.5,174.5C 417.167,174.5 411.833,174.5 406.5,174.5C 402.785,174.577 399.119,174.244 395.5,173.5C 395.714,171.856 395.38,170.356 394.5,169C 397.036,168.814 399.369,168.314 401.5,167.5 Z"/></g>
<g><path style="opacity:1" fill="#d8674e" d="M 311.5,174.5 C 339.167,174.5 366.833,174.5 394.5,174.5C 398.298,175.483 402.298,175.817 406.5,175.5C 406.5,177.167 406.5,178.833 406.5,180.5C 405.5,180.5 404.5,180.5 403.5,180.5C 403.586,179.504 403.252,178.671 402.5,178C 376.522,176.776 350.522,176.11 324.5,176C 319.981,175.825 315.647,175.325 311.5,174.5 Z"/></g>
<g><path style="opacity:1" fill="#e99d8b" d="M 406.5,167.5 C 418.101,168.375 429.434,168.708 440.5,168.5C 440.357,170.262 440.691,171.929 441.5,173.5C 454.952,174.026 460.452,181.026 458,194.5C 459.401,196.192 461.234,196.859 463.5,196.5C 463.377,200.778 463.71,205.111 464.5,209.5C 462.283,208.631 459.95,208.298 457.5,208.5C 457.665,205.15 457.498,201.817 457,198.5C 455.301,197.594 453.467,197.261 451.5,197.5C 451.5,194.833 451.5,192.167 451.5,189.5C 451.5,186.5 451.5,183.5 451.5,180.5C 447.833,180.5 444.167,180.5 440.5,180.5C 440.5,178.5 440.5,176.5 440.5,174.5C 438.5,174.5 436.5,174.5 434.5,174.5C 430.5,174.5 426.5,174.5 422.5,174.5C 422.5,172.5 422.5,170.5 422.5,168.5C 416.974,168.821 411.64,168.488 406.5,167.5 Z"/></g>
<g><path style="opacity:1" fill="#9a4138" d="M 406.5,174.5 C 411.833,174.5 417.167,174.5 422.5,174.5C 426.5,174.5 430.5,174.5 434.5,174.5C 434.5,176.5 434.5,178.5 434.5,180.5C 436.167,180.5 437.833,180.5 439.5,180.5C 439.5,182.167 439.5,183.833 439.5,185.5C 436.167,185.5 432.833,185.5 429.5,185.5C 429.5,187.5 429.5,189.5 429.5,191.5C 429.167,191.5 428.833,191.5 428.5,191.5C 428.5,189.833 428.5,188.167 428.5,186.5C 423.167,186.5 417.833,186.5 412.5,186.5C 412.5,188.167 412.5,189.833 412.5,191.5C 412.167,191.5 411.833,191.5 411.5,191.5C 411.5,189.5 411.5,187.5 411.5,185.5C 408.167,185.5 404.833,185.5 401.5,185.5C 401.5,183.833 401.5,182.167 401.5,180.5C 402.167,180.5 402.833,180.5 403.5,180.5C 404.5,180.5 405.5,180.5 406.5,180.5C 406.5,178.833 406.5,177.167 406.5,175.5C 406.5,175.167 406.5,174.833 406.5,174.5 Z"/></g>
<g><path style="opacity:1" fill="#d9644e" d="M 412.5,180.5 C 417.833,180.5 423.167,180.5 428.5,180.5C 428.5,182.167 428.5,183.833 428.5,185.5C 423.167,185.5 417.833,185.5 412.5,185.5C 412.5,183.833 412.5,182.167 412.5,180.5 Z"/></g>
<g><path style="opacity:1" fill="#cf5d48" d="M 434.5,174.5 C 436.5,174.5 438.5,174.5 440.5,174.5C 440.5,176.5 440.5,178.5 440.5,180.5C 444.167,180.5 447.833,180.5 451.5,180.5C 451.5,183.5 451.5,186.5 451.5,189.5C 449.703,190.73 447.703,191.396 445.5,191.5C 445.5,189.833 445.5,188.167 445.5,186.5C 443.833,186.5 442.167,186.5 440.5,186.5C 440.756,190.269 440.423,193.936 439.5,197.5C 437.833,197.5 436.167,197.5 434.5,197.5C 434.5,197.167 434.5,196.833 434.5,196.5C 434.5,194.833 434.5,193.167 434.5,191.5C 432.833,191.5 431.167,191.5 429.5,191.5C 429.5,189.5 429.5,187.5 429.5,185.5C 432.833,185.5 436.167,185.5 439.5,185.5C 439.5,183.833 439.5,182.167 439.5,180.5C 437.833,180.5 436.167,180.5 434.5,180.5C 434.5,178.5 434.5,176.5 434.5,174.5 Z"/></g>
<g><path style="opacity:1" fill="#eb846c" d="M 185.5,174.5 C 186.575,178.938 184.908,180.938 180.5,180.5C 180.5,182.167 180.5,183.833 180.5,185.5C 178.5,185.5 176.5,185.5 174.5,185.5C 174.5,189.5 174.5,193.5 174.5,197.5C 170.833,197.5 167.167,197.5 163.5,197.5C 165.705,196.802 167.539,195.468 169,193.5C 169.813,188.562 171.647,184.228 174.5,180.5C 176.288,180.785 177.955,180.452 179.5,179.5C 180.035,176.018 182.035,174.351 185.5,174.5 Z"/></g>
<g><path style="opacity:1" fill="#dc6449" d="M 252.5,129.5 C 250.593,131.243 248.259,132.243 245.5,132.5C 243.055,131.889 240.722,131.889 238.5,132.5C 237.335,140.813 237.168,149.147 238,157.5C 238.667,161.5 239.333,161.5 240,157.5C 240.623,161.932 241.623,162.265 243,158.5C 243.318,160.061 244.151,161.228 245.5,162C 244.44,164.737 243.606,167.57 243,170.5C 241.644,171.38 240.144,171.714 238.5,171.5C 237.948,173.331 237.948,174.997 238.5,176.5C 237.988,179.532 236.322,180.699 233.5,180C 234.741,178.513 234.241,177.68 232,177.5C 218.188,178.29 204.355,178.79 190.5,179C 190.833,179.333 191.167,179.667 191.5,180C 188.99,180.376 186.657,181.21 184.5,182.5C 188.621,184.744 192.954,185.077 197.5,183.5C 198.386,184.325 198.719,185.325 198.5,186.5C 192.824,186.334 187.157,186.501 181.5,187C 180.672,187.915 179.672,188.581 178.5,189C 180.125,189.853 180.458,190.853 179.5,192C 183.563,192.038 187.397,192.872 191,194.5C 192.974,194.353 194.974,194.019 197,193.5C 199.137,195.321 199.97,197.654 199.5,200.5C 203.347,200.9 205.68,202.9 206.5,206.5C 207.552,206.351 208.552,206.517 209.5,207C 211.082,209.085 213.082,210.585 215.5,211.5C 216.681,213.803 216.681,216.137 215.5,218.5C 216.082,222.094 217.415,222.427 219.5,219.5C 219.5,221.5 219.5,223.5 219.5,225.5C 217.833,225.5 216.167,225.5 214.5,225.5C 214.5,221.5 214.5,217.5 214.5,213.5C 210.5,214.167 208.833,212.5 209.5,208.5C 207.167,208.5 204.833,208.5 202.5,208.5C 202.5,206.833 202.5,205.167 202.5,203.5C 200.833,203.5 199.167,203.5 197.5,203.5C 197.5,203.167 197.5,202.833 197.5,202.5C 197.5,200.833 197.5,199.167 197.5,197.5C 191.833,197.5 186.167,197.5 180.5,197.5C 180.5,199.167 180.5,200.833 180.5,202.5C 178.5,202.5 176.5,202.5 174.5,202.5C 174.5,204.5 174.5,206.5 174.5,208.5C 172.833,208.5 171.167,208.5 169.5,208.5C 169.5,212.167 169.5,215.833 169.5,219.5C 169.167,219.5 168.833,219.5 168.5,219.5C 166.833,219.5 165.167,219.5 163.5,219.5C 163.439,212.475 163.439,205.141 163.5,197.5C 167.167,197.5 170.833,197.5 174.5,197.5C 174.5,193.5 174.5,189.5 174.5,185.5C 176.5,185.5 178.5,185.5 180.5,185.5C 180.5,183.833 180.5,182.167 180.5,180.5C 184.908,180.938 186.575,178.938 185.5,174.5C 202.5,174.5 219.5,174.5 236.5,174.5C 236.448,172.097 236.781,169.764 237.5,167.5C 238.675,167.719 239.675,167.386 240.5,166.5C 238.389,165.395 237.055,163.729 236.5,161.5C 236.5,150.833 236.5,140.167 236.5,129.5C 241.833,129.5 247.167,129.5 252.5,129.5 Z"/></g>
<g><path style="opacity:1" fill="#e4a392" d="M 95.5,276.5 C 95.5,259.5 95.5,242.5 95.5,225.5C 95.1746,217.648 95.508,209.982 96.5,202.5C 98.1667,202.5 99.8333,202.5 101.5,202.5C 101.5,198.833 101.5,195.167 101.5,191.5C 103.167,191.5 104.833,191.5 106.5,191.5C 106.5,187.833 106.5,184.167 106.5,180.5C 102.833,180.5 99.1667,180.5 95.5,180.5C 95.6655,184.514 95.4988,188.514 95,192.5C 94.2572,194.932 92.7572,196.599 90.5,197.5C 89.5064,206.652 89.1731,215.985 89.5,225.5C 89.5,260.833 89.5,296.167 89.5,331.5C 87.3866,330.452 85.7199,328.952 84.5,327C 86.0704,323.411 86.737,319.578 86.5,315.5C 85.7506,286.978 86.4172,258.478 88.5,230C 87.7782,219.513 87.2782,209.013 87,198.5C 86.6268,195.258 85.1268,193.924 82.5,194.5C 83.7295,190.633 83.7295,186.8 82.5,183C 83.0848,181.698 83.7515,180.531 84.5,179.5C 84.5238,184.973 86.3572,189.64 90,193.5C 91.2798,193.387 92.1131,192.72 92.5,191.5C 92.8114,188.463 92.4781,185.297 91.5,182C 91.9547,180.276 92.788,178.776 94,177.5C 95.016,178.634 95.6827,178.301 96,176.5C 96.5194,177.516 97.3527,178.182 98.5,178.5C 102.568,176.648 106.068,177.315 109,180.5C 109.499,184.821 109.666,189.154 109.5,193.5C 108.167,193.5 106.833,193.5 105.5,193.5C 104.705,197.476 104.038,201.476 103.5,205.5C 102.5,205.5 101.5,205.5 100.5,205.5C 100.357,207.262 100.691,208.929 101.5,210.5C 99.0694,215.187 98.0694,220.187 98.5,225.5C 100.32,242.956 99.3201,259.956 95.5,276.5 Z"/></g>
<g><path style="opacity:1" fill="#f7d2c9" d="M 96.5,202.5 C 97.4132,200.914 97.4132,199.414 96.5,198C 94.5273,197.505 92.5273,197.338 90.5,197.5C 92.7572,196.599 94.2572,194.932 95,192.5C 95.4988,188.514 95.6655,184.514 95.5,180.5C 99.1667,180.5 102.833,180.5 106.5,180.5C 106.5,184.167 106.5,187.833 106.5,191.5C 104.833,191.5 103.167,191.5 101.5,191.5C 101.5,195.167 101.5,198.833 101.5,202.5C 99.8333,202.5 98.1667,202.5 96.5,202.5 Z"/></g>
<g><path style="opacity:1" fill="#d05c4a" d="M 401.5,180.5 C 401.5,182.167 401.5,183.833 401.5,185.5C 404.833,185.5 408.167,185.5 411.5,185.5C 411.5,187.5 411.5,189.5 411.5,191.5C 409.833,191.5 408.167,191.5 406.5,191.5C 405.566,192.568 405.232,193.901 405.5,195.5C 403.833,195.5 402.167,195.5 400.5,195.5C 400.5,192.5 400.5,189.5 400.5,186.5C 398.5,186.5 396.5,186.5 394.5,186.5C 394.785,188.288 394.452,189.955 393.5,191.5C 392.147,192.685 390.98,194.019 390,195.5C 388.851,203.707 389.518,211.707 392,219.5C 393.011,220.337 394.178,220.67 395.5,220.5C 395.5,222.167 395.5,223.833 395.5,225.5C 397.167,225.5 398.833,225.5 400.5,225.5C 400.534,229.309 402.534,231.143 406.5,231C 407.728,233.14 409.395,234.807 411.5,236C 418.826,236.5 426.159,236.666 433.5,236.5C 424.319,237.702 414.986,237.702 405.5,236.5C 405.04,233.043 403.04,231.377 399.5,231.5C 399.5,230.5 399.5,229.5 399.5,228.5C 396.235,228.082 393.235,226.915 390.5,225C 389.167,223.667 389.167,222.333 390.5,221C 388.382,220.74 386.716,219.74 385.5,218C 386,217.5 386.5,217 387,216.5C 387.333,208.5 387.667,200.5 388,192.5C 389.333,191.833 390.667,191.167 392,190.5C 392.297,186.372 394.464,184.205 398.5,184C 398.974,182.271 399.974,181.105 401.5,180.5 Z"/></g>
<g><path style="opacity:1" fill="#2e160e" d="M 197.5,202.5 C 191.833,202.5 186.167,202.5 180.5,202.5C 180.5,200.833 180.5,199.167 180.5,197.5C 186.167,197.5 191.833,197.5 197.5,197.5C 197.5,199.167 197.5,200.833 197.5,202.5 Z"/></g>
<g><path style="opacity:1" fill="#f8efe3" d="M 90.5,197.5 C 92.5273,197.338 94.5273,197.505 96.5,198C 97.4132,199.414 97.4132,200.914 96.5,202.5C 95.508,209.982 95.1746,217.648 95.5,225.5C 94.5416,225.953 93.7083,226.619 93,227.5C 92.1841,226.177 91.0174,225.511 89.5,225.5C 89.1731,215.985 89.5064,206.652 90.5,197.5 Z"/></g>
<g><path style="opacity:1" fill="#753124" d="M 248.5,203.5 C 263.324,202.504 278.324,202.171 293.5,202.5C 293.5,204.5 293.5,206.5 293.5,208.5C 293.167,208.5 292.833,208.5 292.5,208.5C 292.5,206.833 292.5,205.167 292.5,203.5C 277.833,203.5 263.167,203.5 248.5,203.5 Z"/></g>
<g><path style="opacity:1" fill="#988f8c" d="M 343.5,202.5 C 343.833,202.5 344.167,202.5 344.5,202.5C 349.833,202.5 355.167,202.5 360.5,202.5C 360.833,202.5 361.167,202.5 361.5,202.5C 361.5,202.833 361.5,203.167 361.5,203.5C 361.5,205.167 361.5,206.833 361.5,208.5C 360.549,207.081 360.216,205.415 360.5,203.5C 355.167,203.5 349.833,203.5 344.5,203.5C 344.784,205.415 344.451,207.081 343.5,208.5C 343.5,206.5 343.5,204.5 343.5,202.5 Z"/></g>
<g><path style="opacity:1" fill="#2d150c" d="M 361.5,203.5 C 363.167,203.5 364.833,203.5 366.5,203.5C 366.5,205.167 366.5,206.833 366.5,208.5C 364.833,208.5 363.167,208.5 361.5,208.5C 361.5,206.833 361.5,205.167 361.5,203.5 Z"/></g>
<g><path style="opacity:1" fill="#38221b" d="M 180.5,202.5 C 180.5,204.5 180.5,206.5 180.5,208.5C 178.5,208.5 176.5,208.5 174.5,208.5C 174.5,206.5 174.5,204.5 174.5,202.5C 176.5,202.5 178.5,202.5 180.5,202.5 Z"/></g>
<g><path style="opacity:1" fill="#251710" d="M 197.5,203.5 C 199.167,203.5 200.833,203.5 202.5,203.5C 202.5,205.167 202.5,206.833 202.5,208.5C 200.833,208.5 199.167,208.5 197.5,208.5C 197.5,206.833 197.5,205.167 197.5,203.5 Z"/></g>
<g><path style="opacity:1" fill="#2d1913" d="M 343.5,202.5 C 343.5,204.5 343.5,206.5 343.5,208.5C 341.833,208.5 340.167,208.5 338.5,208.5C 338.5,206.5 338.5,204.5 338.5,202.5C 340.167,202.5 341.833,202.5 343.5,202.5 Z"/></g>
<g><path style="opacity:1" fill="#8f5c50" d="M 361.5,203.5 C 361.5,203.167 361.5,202.833 361.5,202.5C 363.5,202.5 365.5,202.5 367.5,202.5C 368.038,204.117 368.371,205.784 368.5,207.5C 369.791,207.263 370.791,207.596 371.5,208.5C 370.167,208.5 368.833,208.5 367.5,208.5C 367.5,212.167 367.5,215.833 367.5,219.5C 366.518,216.038 366.185,212.371 366.5,208.5C 366.5,206.833 366.5,205.167 366.5,203.5C 364.833,203.5 363.167,203.5 361.5,203.5 Z"/></g>
<g><path style="opacity:1" fill="#dfa18c" d="M 292.5,208.5 C 292.833,208.5 293.167,208.5 293.5,208.5C 293.5,210.167 293.5,211.833 293.5,213.5C 292.078,213.291 290.745,212.791 289.5,212C 282.833,211.833 276.167,211.667 269.5,211.5C 262.264,211.537 255.264,212.204 248.5,213.5C 248.5,211.833 248.5,210.167 248.5,208.5C 263.167,208.5 277.833,208.5 292.5,208.5 Z"/></g>
<g><path style="opacity:1" fill="#3d1814" d="M 293.5,208.5 C 297.167,208.5 300.833,208.5 304.5,208.5C 304.5,210.5 304.5,212.5 304.5,214.5C 300.833,214.5 297.167,214.5 293.5,214.5C 293.5,214.167 293.5,213.833 293.5,213.5C 293.5,211.833 293.5,210.167 293.5,208.5 Z"/></g>
<g><path style="opacity:1" fill="#372220" d="M 338.5,208.5 C 338.5,210.5 338.5,212.5 338.5,214.5C 336.833,214.5 335.167,214.5 333.5,214.5C 332.887,210.488 334.554,208.488 338.5,208.5 Z"/></g>
<g><path style="opacity:1" fill="#f09782" d="M 293.5,213.5 C 293.5,213.833 293.5,214.167 293.5,214.5C 278.5,214.5 263.5,214.5 248.5,214.5C 248.5,214.167 248.5,213.833 248.5,213.5C 255.264,212.204 262.264,211.537 269.5,211.5C 276.167,211.667 282.833,211.833 289.5,212C 290.745,212.791 292.078,213.291 293.5,213.5 Z"/></g>
<g><path style="opacity:1" fill="#703d32" d="M 202.5,208.5 C 204.833,208.5 207.167,208.5 209.5,208.5C 208.833,212.5 210.5,214.167 214.5,213.5C 214.5,217.5 214.5,221.5 214.5,225.5C 214.167,225.5 213.833,225.5 213.5,225.5C 213.5,221.833 213.5,218.167 213.5,214.5C 211.833,214.5 210.167,214.5 208.5,214.5C 206.5,214.5 204.5,214.5 202.5,214.5C 202.5,212.5 202.5,210.5 202.5,208.5 Z"/></g>
<g><path style="opacity:1" fill="#f6f5ee" d="M 361.5,208.5 C 363.167,208.5 364.833,208.5 366.5,208.5C 366.185,212.371 366.518,216.038 367.5,219.5C 369.167,219.5 370.833,219.5 372.5,219.5C 372.5,219.833 372.5,220.167 372.5,220.5C 372.5,220.833 372.5,221.167 372.5,221.5C 372.5,232.167 372.5,242.833 372.5,253.5C 368.833,253.5 365.167,253.5 361.5,253.5C 361.5,242.167 361.5,230.833 361.5,219.5C 359.5,219.5 357.5,219.5 355.5,219.5C 355.5,217.833 355.5,216.167 355.5,214.5C 353.5,214.5 351.5,214.5 349.5,214.5C 349.5,216.167 349.5,217.833 349.5,219.5C 347.833,219.5 346.167,219.5 344.5,219.5C 344.5,221.5 344.5,223.5 344.5,225.5C 342.5,225.5 340.5,225.5 338.5,225.5C 338.5,231.167 338.5,236.833 338.5,242.5C 334.833,242.5 331.167,242.5 327.5,242.5C 327.5,238.833 327.5,235.167 327.5,231.5C 329.5,231.5 331.5,231.5 333.5,231.5C 333.5,225.833 333.5,220.167 333.5,214.5C 335.167,214.5 336.833,214.5 338.5,214.5C 338.5,212.5 338.5,210.5 338.5,208.5C 340.167,208.5 341.833,208.5 343.5,208.5C 344.451,207.081 344.784,205.415 344.5,203.5C 349.833,203.5 355.167,203.5 360.5,203.5C 360.216,205.415 360.549,207.081 361.5,208.5 Z"/></g>
<g><path style="opacity:1" fill="#a1483f" d="M 406.5,191.5 C 406.5,193.5 406.5,195.5 406.5,197.5C 406.167,197.5 405.833,197.5 405.5,197.5C 403.833,197.5 402.167,197.5 400.5,197.5C 400.5,203.167 400.5,208.833 400.5,214.5C 402.167,214.5 403.833,214.5 405.5,214.5C 405.833,214.5 406.167,214.5 406.5,214.5C 406.5,216.167 406.5,217.833 406.5,219.5C 409.034,219.259 410.7,220.259 411.5,222.5C 411.5,223.5 411.5,224.5 411.5,225.5C 417.167,225.5 422.833,225.5 428.5,225.5C 428.5,223.833 428.5,222.167 428.5,220.5C 428.5,220.167 428.5,219.833 428.5,219.5C 430.5,219.5 432.5,219.5 434.5,219.5C 434.5,217.833 434.5,216.167 434.5,214.5C 436.117,213.962 437.784,213.629 439.5,213.5C 439.5,208.167 439.5,202.833 439.5,197.5C 440.423,193.936 440.756,190.269 440.5,186.5C 442.167,186.5 443.833,186.5 445.5,186.5C 445.5,188.167 445.5,189.833 445.5,191.5C 447.703,191.396 449.703,190.73 451.5,189.5C 451.5,192.167 451.5,194.833 451.5,197.5C 451.5,204.5 451.5,211.5 451.5,218.5C 447.02,218.65 445.02,220.983 445.5,225.5C 443.833,225.5 442.167,225.5 440.5,225.5C 440.5,227.5 440.5,229.5 440.5,231.5C 436.069,230.53 433.735,232.197 433.5,236.5C 426.159,236.666 418.826,236.5 411.5,236C 409.395,234.807 407.728,233.14 406.5,231C 402.534,231.143 400.534,229.309 400.5,225.5C 398.833,225.5 397.167,225.5 395.5,225.5C 395.5,223.833 395.5,222.167 395.5,220.5C 394.178,220.67 393.011,220.337 392,219.5C 389.518,211.707 388.851,203.707 390,195.5C 390.98,194.019 392.147,192.685 393.5,191.5C 394.452,189.955 394.785,188.288 394.5,186.5C 396.5,186.5 398.5,186.5 400.5,186.5C 400.5,189.5 400.5,192.5 400.5,195.5C 402.167,195.5 403.833,195.5 405.5,195.5C 405.232,193.901 405.566,192.568 406.5,191.5 Z"/></g>
<g><path style="opacity:1" fill="#491911" d="M 405.5,197.5 C 402.643,201.625 401.81,206.291 403,211.5C 403.698,212.691 404.531,213.691 405.5,214.5C 403.833,214.5 402.167,214.5 400.5,214.5C 400.5,208.833 400.5,203.167 400.5,197.5C 402.167,197.5 403.833,197.5 405.5,197.5 Z"/></g>
<g><path style="opacity:1" fill="#2f72be" d="M 428.5,202.5 C 429.936,203.429 431.269,204.595 432.5,206C 429.091,207.696 427.758,210.529 428.5,214.5C 424.5,214.5 420.5,214.5 416.5,214.5C 417.341,212.621 417.675,210.621 417.5,208.5C 419.5,208.5 421.5,208.5 423.5,208.5C 423.5,206.5 423.5,204.5 423.5,202.5C 425.167,202.5 426.833,202.5 428.5,202.5 Z"/></g>
<g><path style="opacity:1" fill="#d76451" d="M 440.5,197.5 C 442.167,197.5 443.833,197.5 445.5,197.5C 445.5,201.167 445.5,204.833 445.5,208.5C 443.856,208.714 442.356,208.38 441,207.5C 440.502,204.183 440.335,200.85 440.5,197.5 Z"/></g>
<g><path style="opacity:1" fill="#1b1c1f" d="M 434.5,197.5 C 436.167,197.5 437.833,197.5 439.5,197.5C 439.5,202.833 439.5,208.167 439.5,213.5C 437.784,213.629 436.117,213.962 434.5,214.5C 434.5,208.833 434.5,203.167 434.5,197.5 Z"/></g>
<g><path style="opacity:1" fill="#252023" d="M 405.5,197.5 C 405.833,197.5 406.167,197.5 406.5,197.5C 406.5,203.167 406.5,208.833 406.5,214.5C 406.167,214.5 405.833,214.5 405.5,214.5C 404.531,213.691 403.698,212.691 403,211.5C 401.81,206.291 402.643,201.625 405.5,197.5 Z"/></g>
<g><path style="opacity:1" fill="#88add2" d="M 411.5,191.5 C 411.833,191.5 412.167,191.5 412.5,191.5C 417.833,191.5 423.167,191.5 428.5,191.5C 428.5,195.167 428.5,198.833 428.5,202.5C 426.833,202.5 425.167,202.5 423.5,202.5C 423.5,204.5 423.5,206.5 423.5,208.5C 421.5,208.5 419.5,208.5 417.5,208.5C 417.675,210.621 417.341,212.621 416.5,214.5C 414.833,214.5 413.167,214.5 411.5,214.5C 409.833,214.5 408.167,214.5 406.5,214.5C 406.5,208.833 406.5,203.167 406.5,197.5C 408.167,197.5 409.833,197.5 411.5,197.5C 411.5,195.5 411.5,193.5 411.5,191.5 Z"/></g>
<g><path style="opacity:1" fill="#2a1e25" d="M 406.5,191.5 C 408.167,191.5 409.833,191.5 411.5,191.5C 411.5,193.5 411.5,195.5 411.5,197.5C 409.833,197.5 408.167,197.5 406.5,197.5C 406.5,195.5 406.5,193.5 406.5,191.5 Z"/></g>
<g><path style="opacity:1" fill="#3d0f09" d="M 429.5,191.5 C 431.167,191.5 432.833,191.5 434.5,191.5C 434.5,193.167 434.5,194.833 434.5,196.5C 432.833,194.833 431.167,193.167 429.5,191.5 Z"/></g>
<g><path style="opacity:1" fill="#241614" d="M 428.5,191.5 C 423.167,191.5 417.833,191.5 412.5,191.5C 412.5,189.833 412.5,188.167 412.5,186.5C 417.833,186.5 423.167,186.5 428.5,186.5C 428.5,188.167 428.5,189.833 428.5,191.5 Z"/></g>
<g><path style="opacity:1" fill="#db6b53" d="M 247.5,214.5 C 247.833,214.5 248.167,214.5 248.5,214.5C 263.5,214.5 278.5,214.5 293.5,214.5C 293.5,216.167 293.5,217.833 293.5,219.5C 297.167,219.5 300.833,219.5 304.5,219.5C 304.5,219.833 304.5,220.167 304.5,220.5C 304.5,221.833 304.5,223.167 304.5,224.5C 301.332,223.136 297.999,222.303 294.5,222C 292.497,220.181 291.164,218.015 290.5,215.5C 277.163,215.333 263.829,215.5 250.5,216C 251.603,217.68 251.27,219.18 249.5,220.5C 247.999,221.752 246.332,222.752 244.5,223.5C 240.158,222.137 237.491,223.804 236.5,228.5C 232.906,227.574 229.24,227.241 225.5,227.5C 225.5,228.833 225.5,230.167 225.5,231.5C 224.167,231.5 222.833,231.5 221.5,231.5C 221.829,246.01 221.496,260.343 220.5,274.5C 220.5,258.167 220.5,241.833 220.5,225.5C 222.167,225.5 223.833,225.5 225.5,225.5C 229.167,225.5 232.833,225.5 236.5,225.5C 236.5,223.833 236.5,222.167 236.5,220.5C 237.167,220.5 237.5,220.167 237.5,219.5C 242.431,220.688 245.764,219.022 247.5,214.5 Z"/></g>
<g><path style="opacity:1" fill="#ce644e" d="M 367.5,202.5 C 365.5,202.5 363.5,202.5 361.5,202.5C 361.5,200.833 361.5,199.167 361.5,197.5C 355.5,197.5 349.5,197.5 343.5,197.5C 343.5,199.167 343.5,200.833 343.5,202.5C 341.833,202.5 340.167,202.5 338.5,202.5C 338.5,204.5 338.5,206.5 338.5,208.5C 334.554,208.488 332.887,210.488 333.5,214.5C 333.167,214.5 332.833,214.5 332.5,214.5C 330.833,214.5 329.167,214.5 327.5,214.5C 327.5,218.167 327.5,221.833 327.5,225.5C 325.5,225.5 323.5,225.5 321.5,225.5C 321.5,223.5 321.5,221.5 321.5,219.5C 319.833,219.5 318.167,219.5 316.5,219.5C 316.784,217.585 316.451,215.919 315.5,214.5C 311.833,214.5 308.167,214.5 304.5,214.5C 304.5,212.5 304.5,210.5 304.5,208.5C 300.833,208.5 297.167,208.5 293.5,208.5C 293.5,206.5 293.5,204.5 293.5,202.5C 278.324,202.171 263.324,202.504 248.5,203.5C 248.167,203.5 247.833,203.5 247.5,203.5C 262.798,201.516 278.464,200.849 294.5,201.5C 294.5,203.167 294.5,204.833 294.5,206.5C 298.5,206.5 302.5,206.5 306.5,206.5C 306.5,208.5 306.5,210.5 306.5,212.5C 310.182,212.335 313.848,212.501 317.5,213C 319.037,214.11 319.703,215.61 319.5,217.5C 321.5,218.167 323.5,218.833 325.5,219.5C 325.38,217.266 325.713,215.099 326.5,213C 325.863,211.287 324.863,211.121 323.5,212.5C 322.167,211.5 322.167,210.5 323.5,209.5C 325.839,210.724 328.172,210.724 330.5,209.5C 331.528,207.639 333.028,206.305 335,205.5C 335.333,203.833 335.667,202.167 336,200.5C 339.933,201.616 342.433,200.116 343.5,196C 349.482,195.001 355.482,194.668 361.5,195C 362.984,197.977 364.984,200.477 367.5,202.5 Z"/></g>
<g><path style="opacity:1" fill="#531b12" d="M 361.5,202.5 C 361.167,202.5 360.833,202.5 360.5,202.5C 360.5,201.167 360.5,199.833 360.5,198.5C 355.821,198.334 351.155,198.501 346.5,199C 345.027,199.71 344.36,200.876 344.5,202.5C 344.167,202.5 343.833,202.5 343.5,202.5C 343.5,200.833 343.5,199.167 343.5,197.5C 349.5,197.5 355.5,197.5 361.5,197.5C 361.5,199.167 361.5,200.833 361.5,202.5 Z"/></g>
<g><path style="opacity:1" fill="#26170f" d="M 360.5,202.5 C 355.167,202.5 349.833,202.5 344.5,202.5C 344.36,200.876 345.027,199.71 346.5,199C 351.155,198.501 355.821,198.334 360.5,198.5C 360.5,199.833 360.5,201.167 360.5,202.5 Z"/></g>
<g><path style="opacity:1" fill="#221811" d="M 174.5,208.5 C 174.5,212.167 174.5,215.833 174.5,219.5C 172.833,219.5 171.167,219.5 169.5,219.5C 169.5,215.833 169.5,212.167 169.5,208.5C 171.167,208.5 172.833,208.5 174.5,208.5 Z"/></g>
<g><path style="opacity:1" fill="#f2f1eb" d="M 180.5,202.5 C 186.167,202.5 191.833,202.5 197.5,202.5C 197.5,202.833 197.5,203.167 197.5,203.5C 197.5,205.167 197.5,206.833 197.5,208.5C 199.167,208.5 200.833,208.5 202.5,208.5C 202.5,210.5 202.5,212.5 202.5,214.5C 204.5,214.5 206.5,214.5 208.5,214.5C 208.5,220.167 208.5,225.833 208.5,231.5C 210.5,231.5 212.5,231.5 214.5,231.5C 214.5,235.167 214.5,238.833 214.5,242.5C 210.5,242.5 206.5,242.5 202.5,242.5C 202.5,236.833 202.5,231.167 202.5,225.5C 200.833,225.5 199.167,225.5 197.5,225.5C 197.5,223.5 197.5,221.5 197.5,219.5C 195.5,219.5 193.5,219.5 191.5,219.5C 191.5,217.5 191.5,215.5 191.5,213.5C 189.5,213.5 187.5,213.5 185.5,213.5C 185.5,215.5 185.5,217.5 185.5,219.5C 183.585,219.216 181.919,219.549 180.5,220.5C 180.5,231.5 180.5,242.5 180.5,253.5C 176.833,253.5 173.167,253.5 169.5,253.5C 169.5,242.5 169.5,231.5 169.5,220.5C 171.415,220.784 173.081,220.451 174.5,219.5C 174.5,215.833 174.5,212.167 174.5,208.5C 176.5,208.5 178.5,208.5 180.5,208.5C 180.5,206.5 180.5,204.5 180.5,202.5 Z"/></g>
<g><path style="opacity:1" fill="#e65e44" d="M 304.5,224.5 C 307.962,225.482 311.629,225.815 315.5,225.5C 315.833,225.5 316.167,225.5 316.5,225.5C 316.461,226.756 316.961,227.756 318,228.5C 318.167,235.5 318.333,242.5 318.5,249.5C 318.481,256.904 317.814,264.07 316.5,271C 317.611,275.333 319.944,278.833 323.5,281.5C 325.056,286.278 326.89,290.945 329,295.5C 331.574,294.703 333.741,295.537 335.5,298C 334.5,300.091 335.167,301.757 337.5,303C 337.358,306.621 337.358,310.455 337.5,314.5C 335.167,314.5 332.833,314.5 330.5,314.5C 330.5,318.167 330.5,321.833 330.5,325.5C 327.05,324.756 325.384,326.09 325.5,329.5C 322.769,330.027 320.102,330.86 317.5,332C 318.731,333.183 318.731,334.349 317.5,335.5C 316.28,336.711 315.113,336.711 314,335.5C 313.505,337.473 313.338,339.473 313.5,341.5C 310.482,341.335 307.482,341.502 304.5,342C 303.076,344.218 301.076,345.718 298.5,346.5C 298.709,347.086 299.043,347.586 299.5,348C 297.292,348.191 295.292,348.691 293.5,349.5C 292.766,350.878 292.099,352.378 291.5,354C 277.171,354.5 262.837,354.667 248.5,354.5C 248.784,352.585 248.451,350.919 247.5,349.5C 243.889,347.647 240.556,345.314 237.5,342.5C 234.572,341.516 231.572,341.183 228.5,341.5C 228.54,338.575 227.707,335.909 226,333.5C 224.028,332.695 222.528,331.361 221.5,329.5C 221.709,328.914 222.043,328.414 222.5,328C 220.406,326.648 218.073,326.148 215.5,326.5C 215.665,323.15 215.498,319.817 215,316.5C 212.959,315.577 210.792,315.244 208.5,315.5C 208.5,311.833 208.5,308.167 208.5,304.5C 206.833,304.5 205.167,304.5 203.5,304.5C 203.167,304.5 202.833,304.5 202.5,304.5C 202.5,302.5 202.5,300.5 202.5,298.5C 202.5,296.833 202.5,295.167 202.5,293.5C 202.833,293.5 203.167,293.5 203.5,293.5C 205.167,293.5 206.833,293.5 208.5,293.5C 208.5,291.5 208.5,289.5 208.5,287.5C 210.5,287.5 212.5,287.5 214.5,287.5C 214.5,283.833 214.5,280.167 214.5,276.5C 216.167,276.5 217.833,276.5 219.5,276.5C 220.338,276.158 220.672,275.492 220.5,274.5C 221.496,260.343 221.829,246.01 221.5,231.5C 222.833,231.5 224.167,231.5 225.5,231.5C 225.5,230.167 225.5,228.833 225.5,227.5C 229.24,227.241 232.906,227.574 236.5,228.5C 237.491,223.804 240.158,222.137 244.5,223.5C 246.332,222.752 247.999,221.752 249.5,220.5C 251.27,219.18 251.603,217.68 250.5,216C 263.829,215.5 277.163,215.333 290.5,215.5C 291.164,218.015 292.497,220.181 294.5,222C 297.999,222.303 301.332,223.136 304.5,224.5 Z"/></g>
<g><path style="opacity:1" fill="#ee9d8a" d="M 293.5,214.5 C 297.167,214.5 300.833,214.5 304.5,214.5C 304.5,216.167 304.5,217.833 304.5,219.5C 300.833,219.5 297.167,219.5 293.5,219.5C 293.5,217.833 293.5,216.167 293.5,214.5 Z"/></g>
<g><path style="opacity:1" fill="#32140c" d="M 304.5,214.5 C 308.167,214.5 311.833,214.5 315.5,214.5C 315.5,216.167 315.5,217.833 315.5,219.5C 311.833,219.5 308.167,219.5 304.5,219.5C 304.5,217.833 304.5,216.167 304.5,214.5 Z"/></g>
<g><path style="opacity:1" fill="#9c9b97" d="M 332.5,214.5 C 332.833,214.5 333.167,214.5 333.5,214.5C 333.5,220.167 333.5,225.833 333.5,231.5C 331.5,231.5 329.5,231.5 327.5,231.5C 328.919,230.549 330.585,230.216 332.5,230.5C 332.5,225.5 332.5,220.5 332.5,215.5C 332.5,215.167 332.5,214.833 332.5,214.5 Z"/></g>
<g><path style="opacity:1" fill="#25171d" d="M 434.5,214.5 C 434.5,216.167 434.5,217.833 434.5,219.5C 432.5,219.5 430.5,219.5 428.5,219.5C 428.488,215.554 430.488,213.887 434.5,214.5 Z"/></g>
<g><path style="opacity:1" fill="#3b1712" d="M 247.5,203.5 C 247.833,203.5 248.167,203.5 248.5,203.5C 263.167,203.5 277.833,203.5 292.5,203.5C 292.5,205.167 292.5,206.833 292.5,208.5C 277.833,208.5 263.167,208.5 248.5,208.5C 248.5,210.167 248.5,211.833 248.5,213.5C 248.5,213.833 248.5,214.167 248.5,214.5C 248.167,214.5 247.833,214.5 247.5,214.5C 244.167,214.5 240.833,214.5 237.5,214.5C 236.549,215.919 236.216,217.585 236.5,219.5C 232.833,219.5 229.167,219.5 225.5,219.5C 225.5,217.833 225.5,216.167 225.5,214.5C 228.85,214.665 232.183,214.498 235.5,214C 236.406,212.301 236.739,210.467 236.5,208.5C 240.167,208.5 243.833,208.5 247.5,208.5C 247.5,206.833 247.5,205.167 247.5,203.5 Z"/></g>
<g><path style="opacity:1" fill="#251211" d="M 249.5,204.5 C 262.837,204.333 276.171,204.5 289.5,205C 290.308,205.308 290.975,205.808 291.5,206.5C 277.516,207.499 263.516,207.833 249.5,207.5C 249.5,206.5 249.5,205.5 249.5,204.5 Z"/></g>
<g><path style="opacity:1" fill="#ed9e8a" d="M 237.5,214.5 C 240.833,214.5 244.167,214.5 247.5,214.5C 245.764,219.022 242.431,220.688 237.5,219.5C 237.5,217.833 237.5,216.167 237.5,214.5 Z"/></g>
<g><path style="opacity:1" fill="#175880" d="M 428.5,191.5 C 428.833,191.5 429.167,191.5 429.5,191.5C 431.167,193.167 432.833,194.833 434.5,196.5C 434.5,196.833 434.5,197.167 434.5,197.5C 434.5,203.167 434.5,208.833 434.5,214.5C 430.488,213.887 428.488,215.554 428.5,219.5C 422.833,219.5 417.167,219.5 411.5,219.5C 411.5,217.833 411.5,216.167 411.5,214.5C 413.167,214.5 414.833,214.5 416.5,214.5C 420.5,214.5 424.5,214.5 428.5,214.5C 427.758,210.529 429.091,207.696 432.5,206C 431.269,204.595 429.936,203.429 428.5,202.5C 428.5,198.833 428.5,195.167 428.5,191.5 Z"/></g>
<g><path style="opacity:1" fill="#2c180e" d="M 371.5,208.5 C 372.482,211.962 372.815,215.629 372.5,219.5C 370.833,219.5 369.167,219.5 367.5,219.5C 367.5,215.833 367.5,212.167 367.5,208.5C 368.833,208.5 370.167,208.5 371.5,208.5 Z"/></g>
<g><path style="opacity:1" fill="#2a363f" d="M 355.5,219.5 C 351.194,219.303 349.194,221.303 349.5,225.5C 347.833,225.5 346.167,225.5 344.5,225.5C 344.5,223.5 344.5,221.5 344.5,219.5C 346.167,219.5 347.833,219.5 349.5,219.5C 349.5,217.833 349.5,216.167 349.5,214.5C 351.5,214.5 353.5,214.5 355.5,214.5C 355.5,216.167 355.5,217.833 355.5,219.5 Z"/></g>
<g><path style="opacity:1" fill="#1c2735" d="M 406.5,214.5 C 408.167,214.5 409.833,214.5 411.5,214.5C 411.5,216.167 411.5,217.833 411.5,219.5C 417.167,219.5 422.833,219.5 428.5,219.5C 428.5,219.833 428.5,220.167 428.5,220.5C 422.597,221.303 416.93,221.969 411.5,222.5C 410.7,220.259 409.034,219.259 406.5,219.5C 406.5,217.833 406.5,216.167 406.5,214.5 Z"/></g>
<g><path style="opacity:1" fill="#261816" d="M 428.5,220.5 C 428.5,222.167 428.5,223.833 428.5,225.5C 422.833,225.5 417.167,225.5 411.5,225.5C 411.5,224.5 411.5,223.5 411.5,222.5C 416.93,221.969 422.597,221.303 428.5,220.5 Z"/></g>
<g><path style="opacity:1" fill="#ea9e86" d="M 236.5,220.5 C 236.5,222.167 236.5,223.833 236.5,225.5C 232.833,225.5 229.167,225.5 225.5,225.5C 225.5,223.833 225.5,222.167 225.5,220.5C 229.167,220.5 232.833,220.5 236.5,220.5 Z"/></g>
<g><path style="opacity:1" fill="#e89f89" d="M 304.5,220.5 C 308.167,220.5 311.833,220.5 315.5,220.5C 315.5,222.167 315.5,223.833 315.5,225.5C 311.629,225.815 307.962,225.482 304.5,224.5C 304.5,223.167 304.5,221.833 304.5,220.5 Z"/></g>
<g><path style="opacity:1" fill="#6e3a2e" d="M 315.5,214.5 C 316.451,215.919 316.784,217.585 316.5,219.5C 318.167,219.5 319.833,219.5 321.5,219.5C 321.5,221.5 321.5,223.5 321.5,225.5C 319.833,225.5 318.167,225.5 316.5,225.5C 316.167,225.5 315.833,225.5 315.5,225.5C 315.5,223.833 315.5,222.167 315.5,220.5C 311.833,220.5 308.167,220.5 304.5,220.5C 304.5,220.167 304.5,219.833 304.5,219.5C 308.167,219.5 311.833,219.5 315.5,219.5C 315.5,217.833 315.5,216.167 315.5,214.5 Z"/></g>
<g><path style="opacity:1" fill="#0f5d88" d="M 197.5,225.5 C 197.5,233.167 197.5,240.833 197.5,248.5C 195.5,248.5 193.5,248.5 191.5,248.5C 191.5,250.167 191.5,251.833 191.5,253.5C 189.833,253.5 188.167,253.5 186.5,253.5C 186.5,242.5 186.5,231.5 186.5,220.5C 188.167,220.5 189.833,220.5 191.5,220.5C 191.5,222.167 191.5,223.833 191.5,225.5C 193.5,225.5 195.5,225.5 197.5,225.5 Z"/></g>
<g><path style="opacity:1" fill="#f8d7cb" d="M 89.5,225.5 C 91.0174,225.511 92.1841,226.177 93,227.5C 93.7083,226.619 94.5416,225.953 95.5,225.5C 95.5,242.5 95.5,259.5 95.5,276.5C 95.5,295.167 95.5,313.833 95.5,332.5C 93.2646,332.795 91.2646,332.461 89.5,331.5C 89.5,296.167 89.5,260.833 89.5,225.5 Z"/></g>
<g><path style="opacity:1" fill="#431108" d="M 163.5,219.5 C 165.167,219.5 166.833,219.5 168.5,219.5C 168.5,220.167 168.5,220.833 168.5,221.5C 167.178,221.33 166.011,221.663 165,222.5C 164.333,235.5 164.333,248.5 165,261.5C 165.816,262.823 166.983,263.489 168.5,263.5C 168.5,264.167 168.5,264.833 168.5,265.5C 166.219,265.923 164.552,265.256 163.5,263.5C 163.5,248.833 163.5,234.167 163.5,219.5 Z"/></g>
<g><path style="opacity:1" fill="#814437" d="M 237.5,214.5 C 237.5,216.167 237.5,217.833 237.5,219.5C 237.5,220.167 237.167,220.5 236.5,220.5C 232.833,220.5 229.167,220.5 225.5,220.5C 225.5,222.167 225.5,223.833 225.5,225.5C 223.833,225.5 222.167,225.5 220.5,225.5C 220.5,241.833 220.5,258.167 220.5,274.5C 220.672,275.492 220.338,276.158 219.5,276.5C 219.5,259.5 219.5,242.5 219.5,225.5C 219.5,223.5 219.5,221.5 219.5,219.5C 221.5,219.5 223.5,219.5 225.5,219.5C 229.167,219.5 232.833,219.5 236.5,219.5C 236.216,217.585 236.549,215.919 237.5,214.5 Z"/></g>
<g><path style="opacity:1" fill="#390d04" d="M 372.5,221.5 C 372.5,221.167 372.5,220.833 372.5,220.5C 374.167,220.5 375.833,220.5 377.5,220.5C 377.5,235.167 377.5,249.833 377.5,264.5C 375.833,264.5 374.167,264.5 372.5,264.5C 372.5,263.833 372.5,263.167 372.5,262.5C 373.822,262.67 374.989,262.337 376,261.5C 376.5,248.504 376.667,235.504 376.5,222.5C 375.041,222.567 373.708,222.234 372.5,221.5 Z"/></g>
<g><path style="opacity:1" fill="#eb9f8a" d="M 89.5,331.5 C 91.2646,332.461 93.2646,332.795 95.5,332.5C 93.7354,333.461 91.7354,333.795 89.5,333.5C 89.5,344.5 89.5,355.5 89.5,366.5C 87.7988,366.034 86.2988,366.034 85,366.5C 84.5045,364.527 84.3379,362.527 84.5,360.5C 82.5,360.5 80.5,360.5 78.5,360.5C 78.8016,357.941 78.4682,355.607 77.5,353.5C 77.5326,301.148 77.866,248.814 78.5,196.5C 80.3797,196.771 81.713,196.104 82.5,194.5C 85.1268,193.924 86.6268,195.258 87,198.5C 87.2782,209.013 87.7782,219.513 88.5,230C 86.4172,258.478 85.7506,286.978 86.5,315.5C 86.737,319.578 86.0704,323.411 84.5,327C 85.7199,328.952 87.3866,330.452 89.5,331.5 Z"/></g>
<g><path style="opacity:1" fill="#e5836b" d="M 163.5,197.5 C 163.439,205.141 163.439,212.475 163.5,219.5C 163.5,234.167 163.5,248.833 163.5,263.5C 162.506,253.013 162.172,242.346 162.5,231.5C 158.833,231.5 155.167,231.5 151.5,231.5C 151.5,233.167 151.5,234.833 151.5,236.5C 147.833,236.5 144.167,236.5 140.5,236.5C 140.5,238.5 140.5,240.5 140.5,242.5C 138.833,242.5 137.167,242.5 135.5,242.5C 132.008,242.831 128.674,242.831 125.5,242.5C 123.734,243.091 122.067,243.924 120.5,245C 117.242,252.438 112.575,258.938 106.5,264.5C 106.5,260.833 106.5,257.167 106.5,253.5C 108.5,253.5 110.5,253.5 112.5,253.5C 112.5,251.833 112.5,250.167 112.5,248.5C 116.324,248.265 118.324,246.265 118.5,242.5C 119.873,242.657 121.207,242.49 122.5,242C 124.014,239.653 126.014,237.82 128.5,236.5C 129.309,234.929 129.643,233.262 129.5,231.5C 133.198,231.448 136.865,231.114 140.5,230.5C 140.5,228.833 140.5,227.167 140.5,225.5C 144.167,225.5 147.833,225.5 151.5,225.5C 150.309,220.882 151.975,218.382 156.5,218C 157.337,216.989 157.67,215.822 157.5,214.5C 159.167,214.5 160.833,214.5 162.5,214.5C 162.178,208.642 162.511,202.975 163.5,197.5 Z"/></g>
<g><path style="opacity:1" fill="#501707" d="M 321.5,225.5 C 323.5,225.5 325.5,225.5 327.5,225.5C 326.081,226.451 324.415,226.784 322.5,226.5C 322.333,241.837 322.5,257.17 323,272.5C 323.417,273.756 324.25,274.423 325.5,274.5C 326.167,274.5 326.5,274.833 326.5,275.5C 325.081,276.451 323.415,276.784 321.5,276.5C 321.5,259.5 321.5,242.5 321.5,225.5 Z"/></g>
<g><path style="opacity:1" fill="#2c130f" d="M 332.5,214.5 C 332.5,214.833 332.5,215.167 332.5,215.5C 331.167,215.5 329.833,215.5 328.5,215.5C 328.666,219.846 328.499,224.179 328,228.5C 327.311,229.357 326.478,230.023 325.5,230.5C 324.185,245.23 324.185,259.897 325.5,274.5C 324.25,274.423 323.417,273.756 323,272.5C 322.5,257.17 322.333,241.837 322.5,226.5C 324.415,226.784 326.081,226.451 327.5,225.5C 327.5,221.833 327.5,218.167 327.5,214.5C 329.167,214.5 330.833,214.5 332.5,214.5 Z"/></g>
<g><path style="opacity:1" fill="#0d5f8d" d="M 355.5,219.5 C 355.5,219.833 355.5,220.167 355.5,220.5C 355.5,231.5 355.5,242.5 355.5,253.5C 353.5,253.5 351.5,253.5 349.5,253.5C 349.5,251.833 349.5,250.167 349.5,248.5C 347.833,248.5 346.167,248.5 344.5,248.5C 344.5,240.833 344.5,233.167 344.5,225.5C 346.167,225.5 347.833,225.5 349.5,225.5C 349.194,221.303 351.194,219.303 355.5,219.5 Z"/></g>
<g><path style="opacity:1" fill="#8b8884" d="M 168.5,219.5 C 168.833,219.5 169.167,219.5 169.5,219.5C 171.167,219.5 172.833,219.5 174.5,219.5C 173.081,220.451 171.415,220.784 169.5,220.5C 169.5,231.5 169.5,242.5 169.5,253.5C 168.506,243.013 168.172,232.346 168.5,221.5C 168.5,220.833 168.5,220.167 168.5,219.5 Z"/></g>
<g><path style="opacity:1" fill="#7c3727" d="M 372.5,220.5 C 372.5,220.167 372.5,219.833 372.5,219.5C 374.735,219.205 376.735,219.539 378.5,220.5C 378.829,235.343 378.496,250.01 377.5,264.5C 377.5,249.833 377.5,235.167 377.5,220.5C 375.833,220.5 374.167,220.5 372.5,220.5 Z"/></g>
<g><path style="opacity:1" fill="#2f4151" d="M 197.5,225.5 C 195.5,225.5 193.5,225.5 191.5,225.5C 191.5,223.833 191.5,222.167 191.5,220.5C 189.833,220.5 188.167,220.5 186.5,220.5C 186.5,231.5 186.5,242.5 186.5,253.5C 186.5,259.167 186.5,264.833 186.5,270.5C 188.167,270.5 189.833,270.5 191.5,270.5C 191.5,272.5 191.5,274.5 191.5,276.5C 189.5,276.5 187.5,276.5 185.5,276.5C 185.5,274.5 185.5,272.5 185.5,270.5C 185.5,253.833 185.5,237.167 185.5,220.5C 183.833,220.5 182.167,220.5 180.5,220.5C 181.919,219.549 183.585,219.216 185.5,219.5C 185.5,217.5 185.5,215.5 185.5,213.5C 187.5,213.5 189.5,213.5 191.5,213.5C 191.5,215.5 191.5,217.5 191.5,219.5C 193.5,219.5 195.5,219.5 197.5,219.5C 197.5,221.5 197.5,223.5 197.5,225.5 Z"/></g>
<g><path style="opacity:1" fill="#777571" d="M 355.5,220.5 C 355.5,220.167 355.5,219.833 355.5,219.5C 357.5,219.5 359.5,219.5 361.5,219.5C 361.5,230.833 361.5,242.167 361.5,253.5C 360.505,242.679 360.172,231.679 360.5,220.5C 358.833,220.5 357.167,220.5 355.5,220.5 Z"/></g>
<g><path style="opacity:1" fill="#e87a5f" d="M 135.5,242.5 C 135.697,246.806 133.697,248.806 129.5,248.5C 129.714,250.144 129.38,251.644 128.5,253C 125.183,253.498 121.85,253.665 118.5,253.5C 118.5,255.5 118.5,257.5 118.5,259.5C 116.5,259.5 114.5,259.5 112.5,259.5C 112.5,261.5 112.5,263.5 112.5,265.5C 111.022,265.238 109.689,265.571 108.5,266.5C 107.833,269.5 107.167,272.5 106.5,275.5C 104.955,276.452 103.288,276.785 101.5,276.5C 101.202,279.265 100.202,281.765 98.5,284C 99.7092,297.147 99.7092,310.147 98.5,323C 100.275,326.777 100.608,330.61 99.5,334.5C 96.5231,335.071 93.6897,336.071 91,337.5C 90.83,347.342 90.33,357.009 89.5,366.5C 89.5,355.5 89.5,344.5 89.5,333.5C 91.7354,333.795 93.7354,333.461 95.5,332.5C 96.3315,316.005 96.8315,299.338 97,282.5C 100.834,277.501 102.334,271.834 101.5,265.5C 103.415,265.784 105.081,265.451 106.5,264.5C 112.575,258.938 117.242,252.438 120.5,245C 122.067,243.924 123.734,243.091 125.5,242.5C 128.674,242.831 132.008,242.831 135.5,242.5 Z"/></g>
<g><path style="opacity:1" fill="#1d1a19" d="M 208.5,214.5 C 210.167,214.5 211.833,214.5 213.5,214.5C 213.5,218.167 213.5,221.833 213.5,225.5C 213.5,226.5 213.5,227.5 213.5,228.5C 215.124,228.36 216.29,229.027 217,230.5C 217.833,244.845 217.666,259.178 216.5,273.5C 215.817,273.863 215.15,274.196 214.5,274.5C 214.5,265.5 214.5,256.5 214.5,247.5C 210.5,247.5 206.5,247.5 202.5,247.5C 202.5,257.167 202.5,266.833 202.5,276.5C 200.833,276.5 199.167,276.5 197.5,276.5C 197.5,267.167 197.5,257.833 197.5,248.5C 197.5,240.833 197.5,233.167 197.5,225.5C 199.167,225.5 200.833,225.5 202.5,225.5C 202.5,231.167 202.5,236.833 202.5,242.5C 206.5,242.5 210.5,242.5 214.5,242.5C 214.5,238.833 214.5,235.167 214.5,231.5C 212.5,231.5 210.5,231.5 208.5,231.5C 208.5,225.833 208.5,220.167 208.5,214.5 Z"/></g>
<g><path style="opacity:1" fill="#311009" d="M 213.5,225.5 C 213.833,225.5 214.167,225.5 214.5,225.5C 216.167,225.5 217.833,225.5 219.5,225.5C 219.5,242.5 219.5,259.5 219.5,276.5C 217.833,276.5 216.167,276.5 214.5,276.5C 214.5,275.833 214.5,275.167 214.5,274.5C 215.15,274.196 215.817,273.863 216.5,273.5C 217.666,259.178 217.833,244.845 217,230.5C 216.29,229.027 215.124,228.36 213.5,228.5C 213.5,227.5 213.5,226.5 213.5,225.5 Z"/></g>
<g><path style="opacity:1" fill="#202223" d="M 332.5,215.5 C 332.5,220.5 332.5,225.5 332.5,230.5C 330.585,230.216 328.919,230.549 327.5,231.5C 327.5,235.167 327.5,238.833 327.5,242.5C 331.167,242.5 334.833,242.5 338.5,242.5C 338.5,236.833 338.5,231.167 338.5,225.5C 340.5,225.5 342.5,225.5 344.5,225.5C 344.5,233.167 344.5,240.833 344.5,248.5C 344.5,257.833 344.5,267.167 344.5,276.5C 342.5,276.5 340.5,276.5 338.5,276.5C 338.5,267.167 338.5,257.833 338.5,248.5C 334.833,248.5 331.167,248.5 327.5,248.5C 327.5,257.5 327.5,266.5 327.5,275.5C 327.167,275.5 326.833,275.5 326.5,275.5C 326.5,274.833 326.167,274.5 325.5,274.5C 324.185,259.897 324.185,245.23 325.5,230.5C 326.478,230.023 327.311,229.357 328,228.5C 328.499,224.179 328.666,219.846 328.5,215.5C 329.833,215.5 331.167,215.5 332.5,215.5 Z"/></g>
<g><path style="opacity:1" fill="#aaa6a2" d="M 214.5,274.5 C 214.5,275.167 214.5,275.833 214.5,276.5C 212.5,276.5 210.5,276.5 208.5,276.5C 209.919,275.549 211.585,275.216 213.5,275.5C 213.5,266.5 213.5,257.5 213.5,248.5C 210.167,248.5 206.833,248.5 203.5,248.5C 203.827,258.015 203.494,267.348 202.5,276.5C 202.5,266.833 202.5,257.167 202.5,247.5C 206.5,247.5 210.5,247.5 214.5,247.5C 214.5,256.5 214.5,265.5 214.5,274.5 Z"/></g>
<g><path style="opacity:1" fill="#1c1a1c" d="M 180.5,220.5 C 182.167,220.5 183.833,220.5 185.5,220.5C 185.5,237.167 185.5,253.833 185.5,270.5C 183.833,270.5 182.167,270.5 180.5,270.5C 180.5,266.833 180.5,263.167 180.5,259.5C 176.833,259.5 173.167,259.5 169.5,259.5C 168.566,260.568 168.232,261.901 168.5,263.5C 166.983,263.489 165.816,262.823 165,261.5C 164.333,248.5 164.333,235.5 165,222.5C 166.011,221.663 167.178,221.33 168.5,221.5C 168.172,232.346 168.506,243.013 169.5,253.5C 173.167,253.5 176.833,253.5 180.5,253.5C 180.5,242.5 180.5,231.5 180.5,220.5 Z"/></g>
<g><path style="opacity:1" fill="#1c1b1c" d="M 355.5,220.5 C 357.167,220.5 358.833,220.5 360.5,220.5C 360.172,231.679 360.505,242.679 361.5,253.5C 365.167,253.5 368.833,253.5 372.5,253.5C 372.5,242.833 372.5,232.167 372.5,221.5C 373.708,222.234 375.041,222.567 376.5,222.5C 376.667,235.504 376.5,248.504 376,261.5C 374.989,262.337 373.822,262.67 372.5,262.5C 372.5,261.5 372.5,260.5 372.5,259.5C 368.833,259.5 365.167,259.5 361.5,259.5C 361.5,263.167 361.5,266.833 361.5,270.5C 359.5,270.5 357.5,270.5 355.5,270.5C 355.5,264.833 355.5,259.167 355.5,253.5C 355.5,242.5 355.5,231.5 355.5,220.5 Z"/></g>
<g><path style="opacity:1" fill="#89b5d1" d="M 344.5,248.5 C 346.167,248.5 347.833,248.5 349.5,248.5C 349.5,250.167 349.5,251.833 349.5,253.5C 351.5,253.5 353.5,253.5 355.5,253.5C 355.5,259.167 355.5,264.833 355.5,270.5C 353.5,270.5 351.5,270.5 349.5,270.5C 349.5,272.5 349.5,274.5 349.5,276.5C 347.833,276.5 346.167,276.5 344.5,276.5C 344.5,267.167 344.5,257.833 344.5,248.5 Z"/></g>
<g><path style="opacity:1" fill="#251514" d="M 174.5,265.5 C 174.5,270.833 174.5,276.167 174.5,281.5C 172.833,281.5 171.167,281.5 169.5,281.5C 169.5,276.167 169.5,270.833 169.5,265.5C 171.167,265.5 172.833,265.5 174.5,265.5 Z"/></g>
<g><path style="opacity:1" fill="#89adc4" d="M 197.5,248.5 C 197.5,257.833 197.5,267.167 197.5,276.5C 197.5,278.5 197.5,280.5 197.5,282.5C 195.265,282.795 193.265,282.461 191.5,281.5C 193.167,281.5 194.833,281.5 196.5,281.5C 196.5,279.833 196.5,278.167 196.5,276.5C 194.833,276.5 193.167,276.5 191.5,276.5C 191.5,274.5 191.5,272.5 191.5,270.5C 189.833,270.5 188.167,270.5 186.5,270.5C 186.5,264.833 186.5,259.167 186.5,253.5C 188.167,253.5 189.833,253.5 191.5,253.5C 191.5,251.833 191.5,250.167 191.5,248.5C 193.5,248.5 195.5,248.5 197.5,248.5 Z"/></g>
<g><path style="opacity:1" fill="#d1644d" d="M 316.5,225.5 C 318.167,225.5 319.833,225.5 321.5,225.5C 321.5,242.5 321.5,259.5 321.5,276.5C 323.415,276.784 325.081,276.451 326.5,275.5C 326.833,275.5 327.167,275.5 327.5,275.5C 327.5,275.833 327.5,276.167 327.5,276.5C 327.5,280.167 327.5,283.833 327.5,287.5C 329.167,287.5 330.833,287.5 332.5,287.5C 333.301,289.042 333.634,290.708 333.5,292.5C 335.167,292.5 336.833,292.5 338.5,292.5C 338.5,292.833 338.5,293.167 338.5,293.5C 338.5,295.5 338.5,297.5 338.5,299.5C 340.167,299.5 341.833,299.5 343.5,299.5C 343.5,301.167 343.5,302.833 343.5,304.5C 341.585,304.216 339.919,304.549 338.5,305.5C 338.5,308.833 338.5,312.167 338.5,315.5C 336.5,315.5 334.5,315.5 332.5,315.5C 332.5,319.5 332.5,323.5 332.5,327.5C 330.5,327.5 328.5,327.5 326.5,327.5C 326.167,330.5 324.5,332.167 321.5,332.5C 321.5,334.5 321.5,336.5 321.5,338.5C 319.5,338.5 317.5,338.5 315.5,338.5C 315.5,340.167 315.5,341.833 315.5,343.5C 311.833,343.5 308.167,343.5 304.5,343.5C 304.5,345.5 304.5,347.5 304.5,349.5C 300.833,349.5 297.167,349.5 293.5,349.5C 295.292,348.691 297.292,348.191 299.5,348C 299.043,347.586 298.709,347.086 298.5,346.5C 301.076,345.718 303.076,344.218 304.5,342C 307.482,341.502 310.482,341.335 313.5,341.5C 313.338,339.473 313.505,337.473 314,335.5C 315.113,336.711 316.28,336.711 317.5,335.5C 318.731,334.349 318.731,333.183 317.5,332C 320.102,330.86 322.769,330.027 325.5,329.5C 325.384,326.09 327.05,324.756 330.5,325.5C 330.5,321.833 330.5,318.167 330.5,314.5C 332.833,314.5 335.167,314.5 337.5,314.5C 337.358,310.455 337.358,306.621 337.5,303C 335.167,301.757 334.5,300.091 335.5,298C 333.741,295.537 331.574,294.703 329,295.5C 326.89,290.945 325.056,286.278 323.5,281.5C 319.944,278.833 317.611,275.333 316.5,271C 317.814,264.07 318.481,256.904 318.5,249.5C 318.333,242.5 318.167,235.5 318,228.5C 316.961,227.756 316.461,226.756 316.5,225.5 Z"/></g>
<g><path style="opacity:1" fill="#d56952" d="M 464.5,228.5 C 464.5,268.833 464.5,309.167 464.5,349.5C 462.236,350.219 459.903,350.552 457.5,350.5C 457.827,355.544 457.494,360.544 456.5,365.5C 455.482,366.193 454.482,366.859 453.5,367.5C 453.5,366.5 453.5,365.5 453.5,364.5C 454.458,364.047 455.292,363.381 456,362.5C 456.499,357.845 456.666,353.179 456.5,348.5C 457.93,348.421 459.264,348.754 460.5,349.5C 461.333,314.505 461.833,279.505 462,244.5C 461.878,238.74 462.711,233.407 464.5,228.5 Z"/></g>
<g><path style="opacity:1" fill="#865246" d="M 169.5,259.5 C 169.5,261.167 169.5,262.833 169.5,264.5C 171.415,264.216 173.081,264.549 174.5,265.5C 172.833,265.5 171.167,265.5 169.5,265.5C 169.5,270.833 169.5,276.167 169.5,281.5C 168.512,276.36 168.179,271.026 168.5,265.5C 168.5,264.833 168.5,264.167 168.5,263.5C 168.232,261.901 168.566,260.568 169.5,259.5 Z"/></g>
<g><path style="opacity:1" fill="#33231f" d="M 372.5,264.5 C 372.5,270.167 372.5,275.833 372.5,281.5C 370.5,281.5 368.5,281.5 366.5,281.5C 366.5,275.833 366.5,270.167 366.5,264.5C 368.5,264.5 370.5,264.5 372.5,264.5 Z"/></g>
<g><path style="opacity:1" fill="#261515" d="M 327.5,276.5 C 329.167,276.5 330.833,276.5 332.5,276.5C 332.5,280.167 332.5,283.833 332.5,287.5C 330.833,287.5 329.167,287.5 327.5,287.5C 327.5,283.833 327.5,280.167 327.5,276.5 Z"/></g>
<g><path style="opacity:1" fill="#301816" d="M 208.5,276.5 C 210.5,276.5 212.5,276.5 214.5,276.5C 214.5,280.167 214.5,283.833 214.5,287.5C 212.5,287.5 210.5,287.5 208.5,287.5C 208.5,283.833 208.5,280.167 208.5,276.5 Z"/></g>
<g><path style="opacity:1" fill="#391b15" d="M 174.5,282.5 C 176.5,282.5 178.5,282.5 180.5,282.5C 180.5,283.833 180.5,285.167 180.5,286.5C 178.621,287.341 176.621,287.675 174.5,287.5C 174.5,285.833 174.5,284.167 174.5,282.5 Z"/></g>
<g><path style="opacity:1" fill="#d9725c" d="M 304.5,293.5 C 300.062,294.575 298.062,292.908 298.5,288.5C 296.833,288.5 295.167,288.5 293.5,288.5C 293.5,290.167 293.5,291.833 293.5,293.5C 291.5,293.5 289.5,293.5 287.5,293.5C 285.833,293.5 284.167,293.5 282.5,293.5C 285.625,292.521 288.958,292.187 292.5,292.5C 291.496,283.978 294.662,281.645 302,285.5C 302.127,286.777 301.627,287.943 300.5,289C 301.8,290.58 303.134,292.08 304.5,293.5 Z"/></g>
<g><path style="opacity:1" fill="#f7f6f0" d="M 208.5,276.5 C 208.5,280.167 208.5,283.833 208.5,287.5C 206.833,287.5 205.167,287.5 203.5,287.5C 202.549,288.919 202.216,290.585 202.5,292.5C 197.167,292.5 191.833,292.5 186.5,292.5C 186.784,290.585 186.451,288.919 185.5,287.5C 183.833,287.5 182.167,287.5 180.5,287.5C 180.5,287.167 180.5,286.833 180.5,286.5C 180.5,285.167 180.5,283.833 180.5,282.5C 178.5,282.5 176.5,282.5 174.5,282.5C 174.5,282.167 174.5,281.833 174.5,281.5C 174.5,276.167 174.5,270.833 174.5,265.5C 173.081,264.549 171.415,264.216 169.5,264.5C 169.5,262.833 169.5,261.167 169.5,259.5C 173.167,259.5 176.833,259.5 180.5,259.5C 180.5,263.167 180.5,266.833 180.5,270.5C 182.167,270.5 183.833,270.5 185.5,270.5C 185.5,272.5 185.5,274.5 185.5,276.5C 187.5,276.5 189.5,276.5 191.5,276.5C 191.5,278.167 191.5,279.833 191.5,281.5C 193.265,282.461 195.265,282.795 197.5,282.5C 197.5,280.5 197.5,278.5 197.5,276.5C 199.167,276.5 200.833,276.5 202.5,276.5C 203.494,267.348 203.827,258.015 203.5,248.5C 206.833,248.5 210.167,248.5 213.5,248.5C 213.5,257.5 213.5,266.5 213.5,275.5C 211.585,275.216 209.919,275.549 208.5,276.5 Z"/></g>
<g><path style="opacity:1" fill="#1c2122" d="M 191.5,276.5 C 193.167,276.5 194.833,276.5 196.5,276.5C 196.5,278.167 196.5,279.833 196.5,281.5C 194.833,281.5 193.167,281.5 191.5,281.5C 191.5,279.833 191.5,278.167 191.5,276.5 Z"/></g>
<g><path style="opacity:1" fill="#f5f4ee" d="M 344.5,276.5 C 344.5,278.167 344.5,279.833 344.5,281.5C 346.167,281.5 347.833,281.5 349.5,281.5C 349.5,279.833 349.5,278.167 349.5,276.5C 351.5,276.5 353.5,276.5 355.5,276.5C 355.5,274.5 355.5,272.5 355.5,270.5C 357.5,270.5 359.5,270.5 361.5,270.5C 361.5,266.833 361.5,263.167 361.5,259.5C 365.167,259.5 368.833,259.5 372.5,259.5C 372.5,260.5 372.5,261.5 372.5,262.5C 372.5,263.167 372.5,263.833 372.5,264.5C 370.5,264.5 368.5,264.5 366.5,264.5C 366.5,270.167 366.5,275.833 366.5,281.5C 366.5,281.833 366.5,282.167 366.5,282.5C 364.833,282.5 363.167,282.5 361.5,282.5C 361.5,284.167 361.5,285.833 361.5,287.5C 361.167,287.5 360.833,287.5 360.5,287.5C 358.833,287.5 357.167,287.5 355.5,287.5C 355.5,289.167 355.5,290.833 355.5,292.5C 355.5,292.833 355.5,293.167 355.5,293.5C 350.167,293.5 344.833,293.5 339.5,293.5C 339.167,293.5 338.833,293.5 338.5,293.5C 338.5,293.167 338.5,292.833 338.5,292.5C 338.5,290.833 338.5,289.167 338.5,287.5C 336.5,287.5 334.5,287.5 332.5,287.5C 332.5,283.833 332.5,280.167 332.5,276.5C 330.833,276.5 329.167,276.5 327.5,276.5C 327.5,276.167 327.5,275.833 327.5,275.5C 327.5,266.5 327.5,257.5 327.5,248.5C 331.167,248.5 334.833,248.5 338.5,248.5C 338.5,257.833 338.5,267.167 338.5,276.5C 340.5,276.5 342.5,276.5 344.5,276.5 Z"/></g>
<g><path style="opacity:1" fill="#181b1c" d="M 344.5,276.5 C 346.167,276.5 347.833,276.5 349.5,276.5C 349.5,278.167 349.5,279.833 349.5,281.5C 347.833,281.5 346.167,281.5 344.5,281.5C 344.5,279.833 344.5,278.167 344.5,276.5 Z"/></g>
<g><path style="opacity:1" fill="#34353a" d="M 355.5,270.5 C 355.5,272.5 355.5,274.5 355.5,276.5C 353.5,276.5 351.5,276.5 349.5,276.5C 349.5,274.5 349.5,272.5 349.5,270.5C 351.5,270.5 353.5,270.5 355.5,270.5 Z"/></g>
<g><path style="opacity:1" fill="#371006" d="M 366.5,282.5 C 366.5,284.167 366.5,285.833 366.5,287.5C 364.833,287.5 363.167,287.5 361.5,287.5C 361.5,285.833 361.5,284.167 361.5,282.5C 363.167,282.5 364.833,282.5 366.5,282.5 Z"/></g>
<g><path style="opacity:1" fill="#2d1d1a" d="M 360.5,287.5 C 360.5,289.167 360.5,290.833 360.5,292.5C 358.833,292.5 357.167,292.5 355.5,292.5C 355.5,290.833 355.5,289.167 355.5,287.5C 357.167,287.5 358.833,287.5 360.5,287.5 Z"/></g>
<g><path style="opacity:1" fill="#312520" d="M 332.5,287.5 C 334.5,287.5 336.5,287.5 338.5,287.5C 338.5,289.167 338.5,290.833 338.5,292.5C 336.833,292.5 335.167,292.5 333.5,292.5C 333.634,290.708 333.301,289.042 332.5,287.5 Z"/></g>
<g><path style="opacity:1" fill="#d9654c" d="M 378.5,220.5 C 379.828,225.456 380.495,230.789 380.5,236.5C 381.04,247.504 381.207,258.504 381,269.5C 378.959,268.577 376.792,268.244 374.5,268.5C 374.866,270.905 375.533,273.238 376.5,275.5C 375.709,279.889 374.209,283.889 372,287.5C 368.692,290.471 365.359,293.471 362,296.5C 361.184,295.177 360.017,294.511 358.5,294.5C 359.209,293.596 360.209,293.263 361.5,293.5C 361.5,291.833 361.5,290.167 361.5,288.5C 363.5,288.5 365.5,288.5 367.5,288.5C 367.5,286.5 367.5,284.5 367.5,282.5C 369.415,282.784 371.081,282.451 372.5,281.5C 372.5,275.833 372.5,270.167 372.5,264.5C 374.167,264.5 375.833,264.5 377.5,264.5C 378.496,250.01 378.829,235.343 378.5,220.5 Z"/></g>
<g><path style="opacity:1" fill="#351816" d="M 180.5,287.5 C 182.167,287.5 183.833,287.5 185.5,287.5C 185.5,289.5 185.5,291.5 185.5,293.5C 183.833,293.5 182.167,293.5 180.5,293.5C 180.5,291.5 180.5,289.5 180.5,287.5 Z"/></g>
<g><path style="opacity:1" fill="#3b1a14" d="M 203.5,287.5 C 205.167,287.5 206.833,287.5 208.5,287.5C 208.5,289.5 208.5,291.5 208.5,293.5C 206.833,293.5 205.167,293.5 203.5,293.5C 203.5,291.5 203.5,289.5 203.5,287.5 Z"/></g>
<g><path style="opacity:1" fill="#b4aeab" d="M 185.5,287.5 C 186.451,288.919 186.784,290.585 186.5,292.5C 191.833,292.5 197.167,292.5 202.5,292.5C 202.216,290.585 202.549,288.919 203.5,287.5C 203.5,289.5 203.5,291.5 203.5,293.5C 203.167,293.5 202.833,293.5 202.5,293.5C 197.167,293.5 191.833,293.5 186.5,293.5C 186.167,293.5 185.833,293.5 185.5,293.5C 185.5,291.5 185.5,289.5 185.5,287.5 Z"/></g>
<g><path style="opacity:1" fill="#f8ebe1" d="M 304.5,293.5 C 304.5,300.833 304.5,308.167 304.5,315.5C 299.5,314.5 297.5,316.5 298.5,321.5C 296.833,321.5 295.167,321.5 293.5,321.5C 293.5,323.5 293.5,325.5 293.5,327.5C 289.833,327.5 286.167,327.5 282.5,327.5C 282.5,325.5 282.5,323.5 282.5,321.5C 281.92,317.858 281.42,314.191 281,310.5C 280,311.833 279,311.833 278,310.5C 277.333,308.5 277.333,306.5 278,304.5C 281.194,300.721 284.361,297.055 287.5,293.5C 289.5,293.5 291.5,293.5 293.5,293.5C 293.5,291.833 293.5,290.167 293.5,288.5C 295.167,288.5 296.833,288.5 298.5,288.5C 298.062,292.908 300.062,294.575 304.5,293.5 Z"/></g>
<g><path style="opacity:1" fill="#281813" d="M 186.5,293.5 C 191.833,293.5 197.167,293.5 202.5,293.5C 202.5,295.167 202.5,296.833 202.5,298.5C 200.833,298.5 199.167,298.5 197.5,298.5C 197.5,300.5 197.5,302.5 197.5,304.5C 195.5,304.5 193.5,304.5 191.5,304.5C 191.5,302.5 191.5,300.5 191.5,298.5C 189.833,298.5 188.167,298.5 186.5,298.5C 186.5,296.833 186.5,295.167 186.5,293.5 Z"/></g>
<g><path style="opacity:1" fill="#2b1412" d="M 339.5,293.5 C 344.833,293.5 350.167,293.5 355.5,293.5C 355.5,295.167 355.5,296.833 355.5,298.5C 353.5,298.5 351.5,298.5 349.5,298.5C 349.5,300.5 349.5,302.5 349.5,304.5C 347.833,304.5 346.167,304.5 344.5,304.5C 344.5,302.5 344.5,300.5 344.5,298.5C 341.167,298.5 339.5,296.833 339.5,293.5 Z"/></g>
<g><path style="opacity:1" fill="#b35846" d="M 366.5,281.5 C 368.5,281.5 370.5,281.5 372.5,281.5C 371.081,282.451 369.415,282.784 367.5,282.5C 367.5,284.5 367.5,286.5 367.5,288.5C 365.5,288.5 363.5,288.5 361.5,288.5C 361.5,290.167 361.5,291.833 361.5,293.5C 360.209,293.263 359.209,293.596 358.5,294.5C 357.85,296.435 357.517,298.435 357.5,300.5C 355.473,300.338 353.473,300.505 351.5,301C 350.915,302.302 350.249,303.469 349.5,304.5C 349.5,302.5 349.5,300.5 349.5,298.5C 351.5,298.5 353.5,298.5 355.5,298.5C 355.5,296.833 355.5,295.167 355.5,293.5C 355.5,293.167 355.5,292.833 355.5,292.5C 357.167,292.5 358.833,292.5 360.5,292.5C 360.5,290.833 360.5,289.167 360.5,287.5C 360.833,287.5 361.167,287.5 361.5,287.5C 363.167,287.5 364.833,287.5 366.5,287.5C 366.5,285.833 366.5,284.167 366.5,282.5C 366.5,282.167 366.5,281.833 366.5,281.5 Z"/></g>
<g><path style="opacity:1" fill="#dd9c90" d="M 202.5,298.5 C 202.5,300.5 202.5,302.5 202.5,304.5C 200.833,304.5 199.167,304.5 197.5,304.5C 197.5,302.5 197.5,300.5 197.5,298.5C 199.167,298.5 200.833,298.5 202.5,298.5 Z"/></g>
<g><path style="opacity:1" fill="#ed9c87" d="M 203.5,304.5 C 205.167,304.5 206.833,304.5 208.5,304.5C 208.5,308.167 208.5,311.833 208.5,315.5C 206.833,315.5 205.167,315.5 203.5,315.5C 203.5,311.833 203.5,308.167 203.5,304.5 Z"/></g>
<g><path style="opacity:1" fill="#32120b" d="M 338.5,305.5 C 340.167,305.5 341.833,305.5 343.5,305.5C 343.5,308.833 343.5,312.167 343.5,315.5C 341.833,315.5 340.167,315.5 338.5,315.5C 338.5,312.167 338.5,308.833 338.5,305.5 Z"/></g>
<g><path style="opacity:1" fill="#702d21" d="M 338.5,293.5 C 338.833,293.5 339.167,293.5 339.5,293.5C 339.5,296.833 341.167,298.5 344.5,298.5C 344.5,300.5 344.5,302.5 344.5,304.5C 344.815,308.371 344.482,312.038 343.5,315.5C 343.5,312.167 343.5,308.833 343.5,305.5C 341.833,305.5 340.167,305.5 338.5,305.5C 339.919,304.549 341.585,304.216 343.5,304.5C 343.5,302.833 343.5,301.167 343.5,299.5C 341.833,299.5 340.167,299.5 338.5,299.5C 338.5,297.5 338.5,295.5 338.5,293.5 Z"/></g>
<g><path style="opacity:1" fill="#301211" d="M 197.5,304.5 C 199.167,304.5 200.833,304.5 202.5,304.5C 202.5,308.167 202.5,311.833 202.5,315.5C 200.833,315.5 199.167,315.5 197.5,315.5C 197.5,311.833 197.5,308.167 197.5,304.5 Z"/></g>
<g><path style="opacity:1" fill="#7b3e31" d="M 202.5,304.5 C 202.833,304.5 203.167,304.5 203.5,304.5C 203.5,308.167 203.5,311.833 203.5,315.5C 205.167,315.5 206.833,315.5 208.5,315.5C 208.5,315.833 208.5,316.167 208.5,316.5C 206.833,316.5 205.167,316.5 203.5,316.5C 203.5,319.833 203.5,323.167 203.5,326.5C 205.167,326.5 206.833,326.5 208.5,326.5C 208.5,326.833 208.5,327.167 208.5,327.5C 206.5,327.5 204.5,327.5 202.5,327.5C 202.5,323.833 202.5,320.167 202.5,316.5C 200.585,316.784 198.919,316.451 197.5,315.5C 199.167,315.5 200.833,315.5 202.5,315.5C 202.5,311.833 202.5,308.167 202.5,304.5 Z"/></g>
<g><path style="opacity:1" fill="#33120b" d="M 338.5,316.5 C 338.5,319.833 338.5,323.167 338.5,326.5C 336.833,326.5 335.167,326.5 333.5,326.5C 333.5,323.167 333.5,319.833 333.5,316.5C 335.167,316.5 336.833,316.5 338.5,316.5 Z"/></g>
<g><path style="opacity:1" fill="#e59987" d="M 208.5,316.5 C 210.167,316.5 211.833,316.5 213.5,316.5C 213.244,320.269 213.577,323.936 214.5,327.5C 212.5,327.5 210.5,327.5 208.5,327.5C 208.5,327.167 208.5,326.833 208.5,326.5C 208.5,323.167 208.5,319.833 208.5,316.5 Z"/></g>
<g><path style="opacity:1" fill="#733123" d="M 338.5,315.5 C 340.167,315.5 341.833,315.5 343.5,315.5C 342.081,316.451 340.415,316.784 338.5,316.5C 336.833,316.5 335.167,316.5 333.5,316.5C 333.5,319.833 333.5,323.167 333.5,326.5C 335.167,326.5 336.833,326.5 338.5,326.5C 336.735,327.461 334.735,327.795 332.5,327.5C 332.5,323.5 332.5,319.5 332.5,315.5C 334.5,315.5 336.5,315.5 338.5,315.5 Z"/></g>
<g><path style="opacity:1" fill="#2d130d" d="M 208.5,316.5 C 208.5,319.833 208.5,323.167 208.5,326.5C 206.833,326.5 205.167,326.5 203.5,326.5C 203.5,323.167 203.5,319.833 203.5,316.5C 205.167,316.5 206.833,316.5 208.5,316.5 Z"/></g>
<g><path style="opacity:1" fill="#d96954" d="M 281.5,293.5 C 281.5,295.167 281.5,296.833 281.5,298.5C 279.833,298.5 278.167,298.5 276.5,298.5C 276.5,306.167 276.5,313.833 276.5,321.5C 278.5,321.5 280.5,321.5 282.5,321.5C 282.5,323.5 282.5,325.5 282.5,327.5C 286.167,327.5 289.833,327.5 293.5,327.5C 293.5,325.5 293.5,323.5 293.5,321.5C 295.167,321.5 296.833,321.5 298.5,321.5C 297.5,316.5 299.5,314.5 304.5,315.5C 304.5,308.167 304.5,300.833 304.5,293.5C 305.748,294.334 306.415,295.667 306.5,297.5C 307.806,305.592 307.306,313.592 305,321.5C 300.085,320.704 296.918,322.871 295.5,328C 293.453,329.515 291.119,330.349 288.5,330.5C 286.127,330.025 283.961,330.025 282,330.5C 274.332,323.884 271.499,315.55 273.5,305.5C 270.739,302.953 271.072,300.286 274.5,297.5C 276.864,296.162 279.198,294.829 281.5,293.5 Z"/></g>
<g><path style="opacity:1" fill="#f7d0c4" d="M 281.5,293.5 C 281.833,293.5 282.167,293.5 282.5,293.5C 284.167,293.5 285.833,293.5 287.5,293.5C 284.361,297.055 281.194,300.721 278,304.5C 277.333,306.5 277.333,308.5 278,310.5C 279,311.833 280,311.833 281,310.5C 281.42,314.191 281.92,317.858 282.5,321.5C 280.5,321.5 278.5,321.5 276.5,321.5C 276.5,313.833 276.5,306.167 276.5,298.5C 278.167,298.5 279.833,298.5 281.5,298.5C 281.5,296.833 281.5,295.167 281.5,293.5 Z"/></g>
<g><path style="opacity:1" fill="#d7634b" d="M 180.5,286.5 C 180.5,286.833 180.5,287.167 180.5,287.5C 180.5,289.5 180.5,291.5 180.5,293.5C 182.167,293.5 183.833,293.5 185.5,293.5C 185.833,293.5 186.167,293.5 186.5,293.5C 186.5,295.167 186.5,296.833 186.5,298.5C 188.167,298.5 189.833,298.5 191.5,298.5C 191.5,300.5 191.5,302.5 191.5,304.5C 193.5,304.5 195.5,304.5 197.5,304.5C 197.5,308.167 197.5,311.833 197.5,315.5C 198.919,316.451 200.585,316.784 202.5,316.5C 202.5,320.167 202.5,323.833 202.5,327.5C 204.5,327.5 206.5,327.5 208.5,327.5C 208.5,329.5 208.5,331.5 208.5,333.5C 210.167,333.5 211.833,333.5 213.5,333.5C 213.5,335.167 213.5,336.833 213.5,338.5C 215.5,338.5 217.5,338.5 219.5,338.5C 219.5,340.5 219.5,342.5 219.5,344.5C 221.5,344.5 223.5,344.5 225.5,344.5C 225.5,346.167 225.5,347.833 225.5,349.5C 225.5,349.833 225.5,350.167 225.5,350.5C 223.488,349.659 222.155,348.159 221.5,346C 219.866,345.506 218.199,345.34 216.5,345.5C 216.762,344.022 216.429,342.689 215.5,341.5C 214.124,340.158 212.791,338.825 211.5,337.5C 207.612,336.64 204.445,334.64 202,331.5C 199.232,334.417 197.732,333.75 197.5,329.5C 198.153,326.589 199.153,325.089 200.5,325C 200.507,323.188 199.84,321.688 198.5,320.5C 196.291,319.937 194.791,318.604 194,316.5C 193.501,312.848 193.335,309.182 193.5,305.5C 190.5,305.833 189.167,304.5 189.5,301.5C 187.123,301.784 184.956,301.784 183,301.5C 181.505,299.89 181.339,298.224 182.5,296.5C 179.013,295.491 177.68,293.158 178.5,289.5C 176.62,289.771 175.287,289.104 174.5,287.5C 176.621,287.675 178.621,287.341 180.5,286.5 Z"/></g>
<g><path style="opacity:1" fill="#5e2922" d="M 208.5,327.5 C 210.5,327.5 212.5,327.5 214.5,327.5C 214.5,329.167 214.5,330.833 214.5,332.5C 216.167,332.5 217.833,332.5 219.5,332.5C 219.5,334.5 219.5,336.5 219.5,338.5C 217.5,338.5 215.5,338.5 213.5,338.5C 213.5,336.833 213.5,335.167 213.5,333.5C 211.833,333.5 210.167,333.5 208.5,333.5C 208.5,331.5 208.5,329.5 208.5,327.5 Z"/></g>
<g><path style="opacity:1" fill="#5d2019" d="M 332.5,327.5 C 332.5,329.167 332.5,330.833 332.5,332.5C 330.833,332.5 329.167,332.5 327.5,332.5C 327.5,334.5 327.5,336.5 327.5,338.5C 325.5,338.5 323.5,338.5 321.5,338.5C 321.5,336.5 321.5,334.5 321.5,332.5C 324.5,332.167 326.167,330.5 326.5,327.5C 328.5,327.5 330.5,327.5 332.5,327.5 Z"/></g>
<g><path style="opacity:1" fill="#cd9882" d="M 219.5,332.5 C 222.971,333.2 224.971,335.2 225.5,338.5C 223.5,338.5 221.5,338.5 219.5,338.5C 219.5,336.5 219.5,334.5 219.5,332.5 Z"/></g>
<g><path style="opacity:1" fill="#63261d" d="M 321.5,338.5 C 321.5,340.5 321.5,342.5 321.5,344.5C 319.833,344.5 318.167,344.5 316.5,344.5C 316.784,346.415 316.451,348.081 315.5,349.5C 314.833,349.5 314.167,349.5 313.5,349.5C 314.234,348.292 314.567,346.959 314.5,345.5C 311.5,345.5 308.5,345.5 305.5,345.5C 305.5,346.833 305.5,348.167 305.5,349.5C 305.167,349.5 304.833,349.5 304.5,349.5C 304.5,347.5 304.5,345.5 304.5,343.5C 308.167,343.5 311.833,343.5 315.5,343.5C 315.5,341.833 315.5,340.167 315.5,338.5C 317.5,338.5 319.5,338.5 321.5,338.5 Z"/></g>
<g><path style="opacity:1" fill="#481910" d="M 219.5,338.5 C 221.5,338.5 223.5,338.5 225.5,338.5C 225.5,340.167 225.5,341.833 225.5,343.5C 229.371,343.185 233.038,343.518 236.5,344.5C 236.5,346.167 236.5,347.833 236.5,349.5C 232.833,349.5 229.167,349.5 225.5,349.5C 225.5,347.833 225.5,346.167 225.5,344.5C 223.5,344.5 221.5,344.5 219.5,344.5C 219.5,342.5 219.5,340.5 219.5,338.5 Z"/></g>
<g><path style="opacity:1" fill="#dc6e56" d="M 208.5,316.5 C 208.5,316.167 208.5,315.833 208.5,315.5C 210.792,315.244 212.959,315.577 215,316.5C 215.498,319.817 215.665,323.15 215.5,326.5C 218.073,326.148 220.406,326.648 222.5,328C 222.043,328.414 221.709,328.914 221.5,329.5C 222.528,331.361 224.028,332.695 226,333.5C 227.707,335.909 228.54,338.575 228.5,341.5C 231.572,341.183 234.572,341.516 237.5,342.5C 240.556,345.314 243.889,347.647 247.5,349.5C 244.167,349.5 240.833,349.5 237.5,349.5C 237.784,347.585 237.451,345.919 236.5,344.5C 233.038,343.518 229.371,343.185 225.5,343.5C 225.5,341.833 225.5,340.167 225.5,338.5C 224.971,335.2 222.971,333.2 219.5,332.5C 217.833,332.5 216.167,332.5 214.5,332.5C 214.5,330.833 214.5,329.167 214.5,327.5C 213.577,323.936 213.244,320.269 213.5,316.5C 211.833,316.5 210.167,316.5 208.5,316.5 Z"/></g>
<g><path style="opacity:1" fill="#2b1306" d="M 313.5,349.5 C 310.833,349.5 308.167,349.5 305.5,349.5C 305.5,348.167 305.5,346.833 305.5,345.5C 308.5,345.5 311.5,345.5 314.5,345.5C 314.567,346.959 314.234,348.292 313.5,349.5 Z"/></g>
<g><path style="opacity:1" fill="#94493a" d="M 236.5,344.5 C 237.451,345.919 237.784,347.585 237.5,349.5C 240.833,349.5 244.167,349.5 247.5,349.5C 248.451,350.919 248.784,352.585 248.5,354.5C 262.837,354.667 277.171,354.5 291.5,354C 292.099,352.378 292.766,350.878 293.5,349.5C 297.167,349.5 300.833,349.5 304.5,349.5C 304.833,349.5 305.167,349.5 305.5,349.5C 308.167,349.5 310.833,349.5 313.5,349.5C 314.167,349.5 314.833,349.5 315.5,349.5C 315.5,349.833 315.5,350.167 315.5,350.5C 312.167,350.5 308.833,350.5 305.5,350.5C 305.737,351.791 305.404,352.791 304.5,353.5C 304.5,352.5 304.5,351.5 304.5,350.5C 300.833,350.5 297.167,350.5 293.5,350.5C 293.5,352.167 293.5,353.833 293.5,355.5C 293.5,357.5 293.5,359.5 293.5,361.5C 278.324,361.829 263.324,361.496 248.5,360.5C 247.549,359.081 247.216,357.415 247.5,355.5C 247.5,353.833 247.5,352.167 247.5,350.5C 244.167,350.5 240.833,350.5 237.5,350.5C 237.5,352.167 237.5,353.833 237.5,355.5C 236.549,354.081 236.216,352.415 236.5,350.5C 233.167,350.5 229.833,350.5 226.5,350.5C 226.167,350.5 225.833,350.5 225.5,350.5C 225.5,350.167 225.5,349.833 225.5,349.5C 229.167,349.5 232.833,349.5 236.5,349.5C 236.5,347.833 236.5,346.167 236.5,344.5 Z"/></g>
<g><path style="opacity:1" fill="#de6447" d="M 226.5,350.5 C 229.833,350.5 233.167,350.5 236.5,350.5C 236.216,352.415 236.549,354.081 237.5,355.5C 240.833,355.5 244.167,355.5 247.5,355.5C 247.216,357.415 247.549,359.081 248.5,360.5C 263.324,361.496 278.324,361.829 293.5,361.5C 293.5,359.5 293.5,357.5 293.5,355.5C 297.649,356.08 301.316,355.414 304.5,353.5C 305.404,352.791 305.737,351.791 305.5,350.5C 308.833,350.5 312.167,350.5 315.5,350.5C 316.823,351.608 318.323,351.608 320,350.5C 321.358,348.811 323.025,347.478 325,346.5C 325.483,347.448 325.649,348.448 325.5,349.5C 321.921,349.766 321.587,351.099 324.5,353.5C 318.809,353.9 313.142,354.233 307.5,354.5C 307.67,355.822 307.337,356.989 306.5,358C 303.452,358.606 300.952,360.106 299,362.5C 297.881,361.448 297.381,360.281 297.5,359C 296.552,358.517 295.552,358.351 294.5,358.5C 294.137,360.911 295.137,362.411 297.5,363C 293.924,364.93 290.091,366.097 286,366.5C 274.255,365.991 262.255,365.991 250,366.5C 248.266,365.751 246.433,365.251 244.5,365C 243.062,363.431 241.562,361.931 240,360.5C 239.667,360.833 239.333,361.167 239,361.5C 238.804,359.714 237.971,358.381 236.5,357.5C 235.534,355.604 235.201,353.604 235.5,351.5C 232.287,351.81 229.287,351.477 226.5,350.5 Z"/></g>
<g><path style="opacity:1" fill="#32110b" d="M 248.5,360.5 C 248.5,358.833 248.5,357.167 248.5,355.5C 263.167,355.5 277.833,355.5 292.5,355.5C 292.5,357.167 292.5,358.833 292.5,360.5C 277.833,360.5 263.167,360.5 248.5,360.5 Z"/></g>
<g><path style="opacity:1" fill="#3a100b" d="M 304.5,353.5 C 301.316,355.414 297.649,356.08 293.5,355.5C 293.5,353.833 293.5,352.167 293.5,350.5C 297.167,350.5 300.833,350.5 304.5,350.5C 304.5,351.5 304.5,352.5 304.5,353.5 Z"/></g>
<g><path style="opacity:1" fill="#36100e" d="M 247.5,355.5 C 244.167,355.5 240.833,355.5 237.5,355.5C 237.5,353.833 237.5,352.167 237.5,350.5C 240.833,350.5 244.167,350.5 247.5,350.5C 247.5,352.167 247.5,353.833 247.5,355.5 Z"/></g>
<g><path style="opacity:1" fill="#ce6954" d="M 77.5,353.5 C 78.4682,355.607 78.8016,357.941 78.5,360.5C 80.5,360.5 82.5,360.5 84.5,360.5C 84.3379,362.527 84.5045,364.527 85,366.5C 86.2988,366.034 87.7988,366.034 89.5,366.5C 87.3366,367.744 85.0033,368.744 82.5,369.5C 81.5169,368.15 80.1836,367.15 78.5,366.5C 77.8333,365.167 77.1667,363.833 76.5,362.5C 77.4066,359.579 77.7399,356.579 77.5,353.5 Z"/></g>
<g><path style="opacity:1" fill="#e16344" d="M 453.5,364.5 C 453.5,365.5 453.5,366.5 453.5,367.5C 452.883,367.389 452.383,367.056 452,366.5C 451.501,372.157 451.334,377.824 451.5,383.5C 447.774,383.177 444.107,383.511 440.5,384.5C 439.586,386.664 438.419,388.664 437,390.5C 435.644,389.62 434.144,389.286 432.5,389.5C 324.855,387.467 217.188,387.467 109.5,389.5C 105.74,390.226 103.073,388.893 101.5,385.5C 132.411,386.467 163.411,386.8 194.5,386.5C 199.225,382.707 204.225,382.54 209.5,386C 227.008,386.704 244.508,386.538 262,385.5C 266.822,385.388 271.488,386.055 276,387.5C 282.04,387.42 288.707,387.42 296,387.5C 298.988,386.173 301.988,384.84 305,383.5C 306.059,383.63 306.892,384.13 307.5,385C 317.167,385.667 326.833,385.667 336.5,385C 338.101,384.727 339.601,384.227 341,383.5C 342.329,384.494 343.662,385.494 345,386.5C 373.674,386.09 402.84,385.59 432.5,385C 433.711,383.887 433.711,382.72 432.5,381.5C 403.177,380.511 374.677,380.511 347,381.5C 345.933,380.809 344.766,380.309 343.5,380C 344,379.5 344.5,379 345,378.5C 371.079,378.905 400.912,379.405 434.5,380C 435.729,380.781 437.062,381.281 438.5,381.5C 439.986,380.186 441.653,379.186 443.5,378.5C 446.117,379.512 447.784,380.845 448.5,382.5C 449.167,382.333 449.833,382.167 450.5,382C 449.357,375.582 449.19,369.082 450,362.5C 450.71,363.973 451.876,364.64 453.5,364.5 Z"/></g>
<g><path style="opacity:1" fill="#a25349" d="M 464.5,349.5 C 464.751,355.427 464.417,361.427 463.5,367.5C 460.45,366.923 458.45,368.09 457.5,371C 458.809,375.136 458.809,379.302 457.5,383.5C 454.485,384.675 452.485,386.842 451.5,390C 448.407,391.376 445.407,391.876 442.5,391.5C 441.498,389.989 440.831,388.322 440.5,386.5C 443.549,385.643 446.549,385.643 449.5,386.5C 450.919,385.995 451.585,384.995 451.5,383.5C 451.334,377.824 451.501,372.157 452,366.5C 452.383,367.056 452.883,367.389 453.5,367.5C 454.482,366.859 455.482,366.193 456.5,365.5C 457.494,360.544 457.827,355.544 457.5,350.5C 459.903,350.552 462.236,350.219 464.5,349.5 Z"/></g>
<g><path style="opacity:1" fill="#a5534b" d="M 92.5,390.5 C 97.185,388.842 101.185,390.008 104.5,394C 109.312,394.773 113.645,393.773 117.5,391C 121.766,390.903 125.932,390.737 130,390.5C 132.405,391.274 134.905,391.774 137.5,392C 133.833,392.333 130.167,392.667 126.5,393C 127.5,393.333 128.5,393.667 129.5,394C 153.348,394.799 177.182,394.632 201,393.5C 204.062,393.741 206.895,394.408 209.5,395.5C 176.313,395.184 143.146,395.517 110,396.5C 106.849,395.907 103.682,395.407 100.5,395C 99.6634,393.989 99.33,392.822 99.5,391.5C 97.0504,391.702 94.717,391.369 92.5,390.5 Z"/></g>
<g><path style="opacity:1" fill="#b45447" d="M 101.5,385.5 C 103.073,388.893 105.74,390.226 109.5,389.5C 217.167,389.5 324.833,389.5 432.5,389.5C 434.144,389.286 435.644,389.62 437,390.5C 438.419,388.664 439.586,386.664 440.5,384.5C 444.107,383.511 447.774,383.177 451.5,383.5C 451.585,384.995 450.919,385.995 449.5,386.5C 446.549,385.643 443.549,385.643 440.5,386.5C 440.831,388.322 441.498,389.989 442.5,391.5C 441.781,393.091 440.781,394.591 439.5,396C 391.832,395.385 344.165,395.552 296.5,396.5C 295.356,394.033 293.69,393.366 291.5,394.5C 290.062,394.281 288.729,393.781 287.5,393C 278.256,392.819 269.089,392.319 260,391.5C 258.333,392.167 256.667,392.833 255,393.5C 238.907,392.342 222.741,392.176 206.5,393C 209.5,393.333 212.5,393.667 215.5,394C 213.618,394.198 211.952,394.698 210.5,395.5C 210.167,395.5 209.833,395.5 209.5,395.5C 206.895,394.408 204.062,393.741 201,393.5C 177.182,394.632 153.348,394.799 129.5,394C 128.5,393.667 127.5,393.333 126.5,393C 130.167,392.667 133.833,392.333 137.5,392C 134.905,391.774 132.405,391.274 130,390.5C 125.932,390.737 121.766,390.903 117.5,391C 113.645,393.773 109.312,394.773 104.5,394C 101.185,390.008 97.185,388.842 92.5,390.5C 89.8001,389.8 88.1334,388.134 87.5,385.5C 87.6107,384.883 87.944,384.383 88.5,384C 90.6667,383.833 92.8333,383.667 95,383.5C 97.6103,383.533 99.777,384.2 101.5,385.5 Z"/></g>
<g><path style="opacity:1" fill="#d3634b" d="M 432.5,389.5 C 324.833,389.5 217.167,389.5 109.5,389.5C 217.188,387.467 324.855,387.467 432.5,389.5 Z"/></g>
<g><path style="opacity:1" fill="#ac564b" d="M 296.5,396.5 C 294.763,399.008 293.93,402.008 294,405.5C 292.89,407.037 291.39,407.703 289.5,407.5C 289.5,410.833 289.5,414.167 289.5,417.5C 288.262,415.786 287.595,413.786 287.5,411.5C 279.957,410.25 272.457,410.25 265,411.5C 264.333,418.833 264.333,426.167 265,433.5C 268.756,436.147 270.256,439.813 269.5,444.5C 271.527,444.662 273.527,444.495 275.5,444C 276.123,441.393 276.79,438.893 277.5,436.5C 279.371,446.621 275.371,449.954 265.5,446.5C 263.367,443.872 263.034,441.039 264.5,438C 263.284,436.26 261.618,435.26 259.5,435C 257.223,429.992 256.889,424.825 258.5,419.5C 256.712,419.785 255.045,419.452 253.5,418.5C 252.574,414.906 252.241,411.24 252.5,407.5C 246.836,406.841 245.503,404.174 248.5,399.5C 249.931,399.023 251.264,398.357 252.5,397.5C 238.437,396.817 224.437,396.15 210.5,395.5C 211.952,394.698 213.618,394.198 215.5,394C 212.5,393.667 209.5,393.333 206.5,393C 222.741,392.176 238.907,392.342 255,393.5C 256.667,392.833 258.333,392.167 260,391.5C 269.089,392.319 278.256,392.819 287.5,393C 288.729,393.781 290.062,394.281 291.5,394.5C 293.69,393.366 295.356,394.033 296.5,396.5 Z"/></g>
<g><path style="opacity:1" fill="#d7604a" d="M 289.5,417.5 C 288.486,418.674 287.153,419.34 285.5,419.5C 283.691,418.519 282.357,417.019 281.5,415C 278.571,414.223 275.737,414.39 273,415.5C 271.806,413.475 270.306,413.141 268.5,414.5C 267.808,419.048 267.141,423.548 266.5,428C 267.5,429.667 268.5,431.333 269.5,433C 271.112,433.72 272.612,433.554 274,432.5C 274.333,433.167 274.667,433.833 275,434.5C 276.441,433.74 277.941,433.074 279.5,432.5C 279.973,428.213 280.973,424.213 282.5,420.5C 282.385,424.766 282.552,429.099 283,433.5C 281.538,435.148 279.705,436.148 277.5,436.5C 276.79,438.893 276.123,441.393 275.5,444C 273.527,444.495 271.527,444.662 269.5,444.5C 270.256,439.813 268.756,436.147 265,433.5C 264.333,426.167 264.333,418.833 265,411.5C 272.457,410.25 279.957,410.25 287.5,411.5C 287.595,413.786 288.262,415.786 289.5,417.5 Z"/></g>
<g><path style="opacity:1" fill="#e55f43" d="M 285.5,419.5 C 284.209,419.263 283.209,419.596 282.5,420.5C 280.973,424.213 279.973,428.213 279.5,432.5C 277.941,433.074 276.441,433.74 275,434.5C 274.667,433.833 274.333,433.167 274,432.5C 272.612,433.554 271.112,433.72 269.5,433C 268.5,431.333 267.5,429.667 266.5,428C 267.141,423.548 267.808,419.048 268.5,414.5C 270.306,413.141 271.806,413.475 273,415.5C 275.737,414.39 278.571,414.223 281.5,415C 282.357,417.019 283.691,418.519 285.5,419.5 Z"/></g>
</svg>
