<?xml version="1.0" encoding="UTF-8"?>
<!DOCTYPE svg PUBLIC "-//W3C//DTD SVG 1.1//EN" "http://www.w3.org/Graphics/SVG/1.1/DTD/svg11.dtd">
<svg xmlns="http://www.w3.org/2000/svg" version="1.1" width="366px" height="586px" style="shape-rendering:geometricPrecision; text-rendering:geometricPrecision; image-rendering:optimizeQuality; fill-rule:evenodd; clip-rule:evenodd" xmlns:xlink="http://www.w3.org/1999/xlink">
<g><path style="opacity:1" fill="#88763d" d="M 263.5,0.5 C 263.5,5.16667 263.5,9.83333 263.5,14.5C 254.167,14.5 244.833,14.5 235.5,14.5C 235.5,9.83333 235.5,5.16667 235.5,0.5C 244.833,0.5 254.167,0.5 263.5,0.5 Z"/></g>
<g><path style="opacity:1" fill="#e9b81f" d="M 263.5,0.5 C 268.167,0.5 272.833,0.5 277.5,0.5C 277.5,5.16667 277.5,9.83333 277.5,14.5C 272.833,14.5 268.167,14.5 263.5,14.5C 263.5,9.83333 263.5,5.16667 263.5,0.5 Z"/></g>
<g><path style="opacity:1" fill="#ecd382" d="M 277.5,0.5 C 282.167,0.5 286.833,0.5 291.5,0.5C 291.5,14.5 291.5,28.5 291.5,42.5C 286.833,42.5 282.167,42.5 277.5,42.5C 277.5,47.1667 277.5,51.8333 277.5,56.5C 277.5,65.8333 277.5,75.1667 277.5,84.5C 268.167,84.5 258.833,84.5 249.5,84.5C 249.5,89.1667 249.5,93.8333 249.5,98.5C 240.167,98.5 230.833,98.5 221.5,98.5C 216.833,98.5 212.167,98.5 207.5,98.5C 202.833,98.5 198.167,98.5 193.5,98.5C 193.5,93.8333 193.5,89.1667 193.5,84.5C 198.167,84.5 202.833,84.5 207.5,84.5C 207.5,75.1667 207.5,65.8333 207.5,56.5C 212.167,56.5 216.833,56.5 221.5,56.5C 221.5,51.8333 221.5,47.1667 221.5,42.5C 226.167,42.5 230.833,42.5 235.5,42.5C 235.5,37.8333 235.5,33.1667 235.5,28.5C 235.5,23.8333 235.5,19.1667 235.5,14.5C 244.833,14.5 254.167,14.5 263.5,14.5C 268.167,14.5 272.833,14.5 277.5,14.5C 277.5,9.83333 277.5,5.16667 277.5,0.5 Z"/></g>
<g><path style="opacity:1" fill="#000000" d="M 306.5,0.5 C 306.5,19.5 306.5,38.5 306.5,57.5C 301.833,57.5 297.167,57.5 292.5,57.5C 292.5,38.5 292.5,19.5 292.5,0.5C 297.167,0.5 301.833,0.5 306.5,0.5 Z"/></g>
<g><path style="opacity:1" fill="#88763d" d="M 235.5,14.5 C 235.5,19.1667 235.5,23.8333 235.5,28.5C 230.833,28.5 226.167,28.5 221.5,28.5C 221.5,23.8333 221.5,19.1667 221.5,14.5C 226.167,14.5 230.833,14.5 235.5,14.5 Z"/></g>
<g><path style="opacity:1" fill="#88763d" d="M 221.5,28.5 C 221.5,33.1667 221.5,37.8333 221.5,42.5C 221.5,47.1667 221.5,51.8333 221.5,56.5C 216.833,56.5 212.167,56.5 207.5,56.5C 207.5,47.1667 207.5,37.8333 207.5,28.5C 212.167,28.5 216.833,28.5 221.5,28.5 Z"/></g>
<g><path style="opacity:1" fill="#e9b81f" d="M 221.5,28.5 C 226.167,28.5 230.833,28.5 235.5,28.5C 235.5,33.1667 235.5,37.8333 235.5,42.5C 230.833,42.5 226.167,42.5 221.5,42.5C 221.5,37.8333 221.5,33.1667 221.5,28.5 Z"/></g>
<g><path style="opacity:1" fill="#88763d" d="M 151.5,42.5 C 151.5,47.1667 151.5,51.8333 151.5,56.5C 146.833,56.5 142.167,56.5 137.5,56.5C 137.5,51.8333 137.5,47.1667 137.5,42.5C 142.167,42.5 146.833,42.5 151.5,42.5 Z"/></g>
<g><path style="opacity:1" fill="#edbb22" d="M 291.5,42.5 C 291.5,47.1667 291.5,51.8333 291.5,56.5C 286.833,56.5 282.167,56.5 277.5,56.5C 277.5,51.8333 277.5,47.1667 277.5,42.5C 282.167,42.5 286.833,42.5 291.5,42.5 Z"/></g>
<g><path style="opacity:1" fill="#89763e" d="M 137.5,56.5 C 137.5,75.1667 137.5,93.8333 137.5,112.5C 142.167,112.5 146.833,112.5 151.5,112.5C 151.5,117.167 151.5,121.833 151.5,126.5C 151.5,131.167 151.5,135.833 151.5,140.5C 146.833,140.5 142.167,140.5 137.5,140.5C 137.5,131.5 137.5,122.5 137.5,113.5C 132.833,113.5 128.167,113.5 123.5,113.5C 123.5,94.5 123.5,75.5 123.5,56.5C 128.167,56.5 132.833,56.5 137.5,56.5 Z"/></g>
<g><path style="opacity:1" fill="#89763d" d="M 207.5,56.5 C 207.5,65.8333 207.5,75.1667 207.5,84.5C 202.833,84.5 198.167,84.5 193.5,84.5C 193.5,79.8333 193.5,75.1667 193.5,70.5C 193.5,65.8333 193.5,61.1667 193.5,56.5C 198.167,56.5 202.833,56.5 207.5,56.5 Z"/></g>
<g><path style="opacity:1" fill="#ecd381" d="M 137.5,56.5 C 142.167,56.5 146.833,56.5 151.5,56.5C 156.167,56.5 160.833,56.5 165.5,56.5C 165.5,61.1667 165.5,65.8333 165.5,70.5C 170.167,70.5 174.833,70.5 179.5,70.5C 179.5,79.8333 179.5,89.1667 179.5,98.5C 184.167,98.5 188.833,98.5 193.5,98.5C 193.5,103.167 193.5,107.833 193.5,112.5C 184.167,112.5 174.833,112.5 165.5,112.5C 165.5,117.167 165.5,121.833 165.5,126.5C 160.833,126.5 156.167,126.5 151.5,126.5C 151.5,121.833 151.5,117.167 151.5,112.5C 146.833,112.5 142.167,112.5 137.5,112.5C 137.5,93.8333 137.5,75.1667 137.5,56.5 Z"/></g>
<g><path style="opacity:1" fill="#4b4020" d="M 263.5,0.5 C 263.5,0.166667 263.5,-0.166667 263.5,-0.5C 277.833,-0.5 292.167,-0.5 306.5,-0.5C 306.5,-0.166667 306.5,0.166667 306.5,0.5C 301.833,0.5 297.167,0.5 292.5,0.5C 292.5,19.5 292.5,38.5 292.5,57.5C 287.833,57.5 283.167,57.5 278.5,57.5C 278.5,71.1667 278.5,84.8333 278.5,98.5C 282.833,98.5 287.167,98.5 291.5,98.5C 287.366,99.4849 283.032,99.8182 278.5,99.5C 278.5,103.833 278.5,108.167 278.5,112.5C 278.167,112.5 277.833,112.5 277.5,112.5C 277.5,108.167 277.5,103.833 277.5,99.5C 273.167,99.5 268.833,99.5 264.5,99.5C 264.5,103.833 264.5,108.167 264.5,112.5C 264.167,112.5 263.833,112.5 263.5,112.5C 263.5,107.833 263.5,103.167 263.5,98.5C 268.167,98.5 272.833,98.5 277.5,98.5C 277.5,93.8333 277.5,89.1667 277.5,84.5C 277.5,75.1667 277.5,65.8333 277.5,56.5C 282.167,56.5 286.833,56.5 291.5,56.5C 291.5,51.8333 291.5,47.1667 291.5,42.5C 291.5,28.5 291.5,14.5 291.5,0.5C 286.833,0.5 282.167,0.5 277.5,0.5C 272.833,0.5 268.167,0.5 263.5,0.5 Z"/></g>
<g><path style="opacity:1" fill="#000000" d="M 292.5,57.5 C 292.5,71.1667 292.5,84.8333 292.5,98.5C 292.167,98.5 291.833,98.5 291.5,98.5C 287.167,98.5 282.833,98.5 278.5,98.5C 278.5,84.8333 278.5,71.1667 278.5,57.5C 283.167,57.5 287.833,57.5 292.5,57.5 Z"/></g>
<g><path style="opacity:1" fill="#ecbb20" d="M 151.5,42.5 C 156.5,42.5 161.5,42.5 166.5,42.5C 166.5,47.1667 166.5,51.8333 166.5,56.5C 171.167,56.5 175.833,56.5 180.5,56.5C 180.5,61.1667 180.5,65.8333 180.5,70.5C 184.833,70.5 189.167,70.5 193.5,70.5C 193.5,75.1667 193.5,79.8333 193.5,84.5C 193.5,89.1667 193.5,93.8333 193.5,98.5C 188.833,98.5 184.167,98.5 179.5,98.5C 179.5,89.1667 179.5,79.8333 179.5,70.5C 174.833,70.5 170.167,70.5 165.5,70.5C 165.5,65.8333 165.5,61.1667 165.5,56.5C 160.833,56.5 156.167,56.5 151.5,56.5C 151.5,51.8333 151.5,47.1667 151.5,42.5 Z"/></g>
<g><path style="opacity:1" fill="#88763d" d="M 347.5,84.5 C 347.5,89.1667 347.5,93.8333 347.5,98.5C 333.5,98.5 319.5,98.5 305.5,98.5C 305.5,93.8333 305.5,89.1667 305.5,84.5C 319.5,84.5 333.5,84.5 347.5,84.5 Z"/></g>
<g><path style="opacity:1" fill="#020100" d="M 347.5,84.5 C 352.5,84.5 357.5,84.5 362.5,84.5C 362.667,98.504 362.5,112.504 362,126.5C 357.599,127.467 353.099,127.8 348.5,127.5C 348.666,131.846 348.499,136.179 348,140.5C 343.599,141.467 339.099,141.8 334.5,141.5C 334.666,145.846 334.499,150.179 334,154.5C 329.599,155.467 325.099,155.8 320.5,155.5C 320.5,150.833 320.5,146.167 320.5,141.5C 325.032,141.818 329.366,141.485 333.5,140.5C 333.5,135.833 333.5,131.167 333.5,126.5C 338.167,126.5 342.833,126.5 347.5,126.5C 347.5,117.167 347.5,107.833 347.5,98.5C 347.5,93.8333 347.5,89.1667 347.5,84.5 Z"/></g>
<g><path style="opacity:1" fill="#ecba20" d="M 277.5,84.5 C 277.5,89.1667 277.5,93.8333 277.5,98.5C 272.833,98.5 268.167,98.5 263.5,98.5C 263.5,103.167 263.5,107.833 263.5,112.5C 258.833,112.5 254.167,112.5 249.5,112.5C 249.5,117.167 249.5,121.833 249.5,126.5C 244.833,126.5 240.167,126.5 235.5,126.5C 235.5,121.833 235.5,117.167 235.5,112.5C 230.833,112.5 226.167,112.5 221.5,112.5C 221.5,108.167 221.5,103.833 221.5,99.5C 221.5,99.1667 221.5,98.8333 221.5,98.5C 230.833,98.5 240.167,98.5 249.5,98.5C 249.5,93.8333 249.5,89.1667 249.5,84.5C 258.833,84.5 268.167,84.5 277.5,84.5 Z"/></g>
<g><path style="opacity:1" fill="#88753d" d="M 291.5,98.5 C 291.833,98.5 292.167,98.5 292.5,98.5C 296.833,98.5 301.167,98.5 305.5,98.5C 305.5,103.167 305.5,107.833 305.5,112.5C 296.5,112.5 287.5,112.5 278.5,112.5C 278.5,108.167 278.5,103.833 278.5,99.5C 283.032,99.8182 287.366,99.4849 291.5,98.5 Z"/></g>
<g><path style="opacity:1" fill="#edbb22" d="M 193.5,98.5 C 198.167,98.5 202.833,98.5 207.5,98.5C 207.5,103.167 207.5,107.833 207.5,112.5C 202.833,112.5 198.167,112.5 193.5,112.5C 193.5,107.833 193.5,103.167 193.5,98.5 Z"/></g>
<g><path style="opacity:1" fill="#882b05" d="M 221.5,99.5 C 221.5,103.833 221.5,108.167 221.5,112.5C 217.167,112.5 212.833,112.5 208.5,112.5C 208.5,108.167 208.5,103.833 208.5,99.5C 212.833,99.5 217.167,99.5 221.5,99.5 Z"/></g>
<g><path style="opacity:1" fill="#000000" d="M 277.5,112.5 C 273.167,112.5 268.833,112.5 264.5,112.5C 264.5,108.167 264.5,103.833 264.5,99.5C 268.833,99.5 273.167,99.5 277.5,99.5C 277.5,103.833 277.5,108.167 277.5,112.5 Z"/></g>
<g><path style="opacity:1" fill="#ebba1f" d="M 305.5,98.5 C 319.5,98.5 333.5,98.5 347.5,98.5C 347.5,107.833 347.5,117.167 347.5,126.5C 342.833,126.5 338.167,126.5 333.5,126.5C 333.5,131.167 333.5,135.833 333.5,140.5C 328.833,140.5 324.167,140.5 319.5,140.5C 319.5,145.167 319.5,149.833 319.5,154.5C 310.167,154.5 300.833,154.5 291.5,154.5C 291.5,159.167 291.5,163.833 291.5,168.5C 282.167,168.5 272.833,168.5 263.5,168.5C 263.5,159.167 263.5,149.833 263.5,140.5C 258.833,140.5 254.167,140.5 249.5,140.5C 249.5,135.833 249.5,131.167 249.5,126.5C 258.833,126.5 268.167,126.5 277.5,126.5C 277.5,121.833 277.5,117.167 277.5,112.5C 277.833,112.5 278.167,112.5 278.5,112.5C 287.5,112.5 296.5,112.5 305.5,112.5C 305.5,107.833 305.5,103.167 305.5,98.5 Z"/></g>
<g><path style="opacity:1" fill="#ecbb21" d="M 193.5,112.5 C 193.5,117.167 193.5,121.833 193.5,126.5C 188.833,126.5 184.167,126.5 179.5,126.5C 179.5,131.167 179.5,135.833 179.5,140.5C 170.167,140.5 160.833,140.5 151.5,140.5C 151.5,135.833 151.5,131.167 151.5,126.5C 156.167,126.5 160.833,126.5 165.5,126.5C 165.5,121.833 165.5,117.167 165.5,112.5C 174.833,112.5 184.167,112.5 193.5,112.5 Z"/></g>
<g><path style="opacity:1" fill="#8a2c06" d="M 207.5,140.5 C 202.833,140.5 198.167,140.5 193.5,140.5C 188.833,140.5 184.167,140.5 179.5,140.5C 179.5,135.833 179.5,131.167 179.5,126.5C 184.167,126.5 188.833,126.5 193.5,126.5C 194.485,122.366 194.818,118.032 194.5,113.5C 198.833,113.5 203.167,113.5 207.5,113.5C 207.5,122.5 207.5,131.5 207.5,140.5 Z"/></g>
<g><path style="opacity:1" fill="#ba621f" d="M 207.5,98.5 C 212.167,98.5 216.833,98.5 221.5,98.5C 221.5,98.8333 221.5,99.1667 221.5,99.5C 217.167,99.5 212.833,99.5 208.5,99.5C 208.5,103.833 208.5,108.167 208.5,112.5C 212.833,112.5 217.167,112.5 221.5,112.5C 221.5,112.833 221.5,113.167 221.5,113.5C 217.167,113.5 212.833,113.5 208.5,113.5C 208.827,122.682 208.493,131.682 207.5,140.5C 207.5,131.5 207.5,122.5 207.5,113.5C 203.167,113.5 198.833,113.5 194.5,113.5C 194.818,118.032 194.485,122.366 193.5,126.5C 193.5,121.833 193.5,117.167 193.5,112.5C 198.167,112.5 202.833,112.5 207.5,112.5C 207.5,107.833 207.5,103.167 207.5,98.5 Z"/></g>
<g><path style="opacity:1" fill="#e68237" d="M 221.5,113.5 C 221.5,127.167 221.5,140.833 221.5,154.5C 212.167,154.5 202.833,154.5 193.5,154.5C 193.5,149.833 193.5,145.167 193.5,140.5C 198.167,140.5 202.833,140.5 207.5,140.5C 208.493,131.682 208.827,122.682 208.5,113.5C 212.833,113.5 217.167,113.5 221.5,113.5 Z"/></g>
<g><path style="opacity:1" fill="#8b2d06" d="M 221.5,112.5 C 226.167,112.5 230.833,112.5 235.5,112.5C 235.5,117.167 235.5,121.833 235.5,126.5C 240.167,126.5 244.833,126.5 249.5,126.5C 249.5,131.167 249.5,135.833 249.5,140.5C 244.833,140.5 240.167,140.5 235.5,140.5C 235.5,145.167 235.5,149.833 235.5,154.5C 231.167,154.5 226.833,154.5 222.5,154.5C 222.167,154.5 221.833,154.5 221.5,154.5C 221.5,140.833 221.5,127.167 221.5,113.5C 221.5,113.167 221.5,112.833 221.5,112.5 Z"/></g>
<g><path style="opacity:1" fill="#89753c" d="M 263.5,112.5 C 263.833,112.5 264.167,112.5 264.5,112.5C 268.833,112.5 273.167,112.5 277.5,112.5C 277.5,117.167 277.5,121.833 277.5,126.5C 268.167,126.5 258.833,126.5 249.5,126.5C 249.5,121.833 249.5,117.167 249.5,112.5C 254.167,112.5 258.833,112.5 263.5,112.5 Z"/></g>
<g><path style="opacity:1" fill="#d35d24" d="M 137.5,140.5 C 142.167,140.5 146.833,140.5 151.5,140.5C 160.833,140.5 170.167,140.5 179.5,140.5C 184.167,140.5 188.833,140.5 193.5,140.5C 193.5,145.167 193.5,149.833 193.5,154.5C 174.833,154.5 156.167,154.5 137.5,154.5C 137.5,149.833 137.5,145.167 137.5,140.5 Z"/></g>
<g><path style="opacity:1" fill="#e68237" d="M 249.5,140.5 C 249.5,149.833 249.5,159.167 249.5,168.5C 244.833,168.5 240.167,168.5 235.5,168.5C 235.5,173.167 235.5,177.833 235.5,182.5C 240.167,182.5 244.833,182.5 249.5,182.5C 254.167,182.5 258.833,182.5 263.5,182.5C 263.5,187.167 263.5,191.833 263.5,196.5C 268.167,196.5 272.833,196.5 277.5,196.5C 277.5,205.833 277.5,215.167 277.5,224.5C 282.167,224.5 286.833,224.5 291.5,224.5C 291.5,229.167 291.5,233.833 291.5,238.5C 286.833,238.5 282.167,238.5 277.5,238.5C 277.5,252.5 277.5,266.5 277.5,280.5C 272.833,280.5 268.167,280.5 263.5,280.5C 263.5,289.833 263.5,299.167 263.5,308.5C 258.833,308.5 254.167,308.5 249.5,308.5C 249.5,313.167 249.5,317.833 249.5,322.5C 240.5,322.5 231.5,322.5 222.5,322.5C 222.83,303.992 222.497,285.659 221.5,267.5C 221.5,267.167 221.5,266.833 221.5,266.5C 221.5,261.833 221.5,257.167 221.5,252.5C 216.833,252.5 212.167,252.5 207.5,252.5C 198.167,252.5 188.833,252.5 179.5,252.5C 174.833,252.5 170.167,252.5 165.5,252.5C 165.5,257.167 165.5,261.833 165.5,266.5C 165.5,275.833 165.5,285.167 165.5,294.5C 165.5,299.167 165.5,303.833 165.5,308.5C 165.5,313.167 165.5,317.833 165.5,322.5C 170.167,322.5 174.833,322.5 179.5,322.5C 193.323,323.496 207.323,323.829 221.5,323.5C 221.5,327.833 221.5,332.167 221.5,336.5C 216.833,336.5 212.167,336.5 207.5,336.5C 207.5,341.167 207.5,345.833 207.5,350.5C 198.167,350.5 188.833,350.5 179.5,350.5C 179.5,355.167 179.5,359.833 179.5,364.5C 170.167,364.5 160.833,364.5 151.5,364.5C 151.5,369.167 151.5,373.833 151.5,378.5C 146.833,378.5 142.167,378.5 137.5,378.5C 137.5,373.833 137.5,369.167 137.5,364.5C 132.833,364.5 128.167,364.5 123.5,364.5C 123.5,369.167 123.5,373.833 123.5,378.5C 119.167,378.5 114.833,378.5 110.5,378.5C 110.5,373.833 110.5,369.167 110.5,364.5C 100.833,364.5 91.1667,364.5 81.5,364.5C 81.5,360.167 81.5,355.833 81.5,351.5C 72.6822,350.507 63.6822,350.173 54.5,350.5C 54.5,345.833 54.5,341.167 54.5,336.5C 49.8333,336.5 45.1667,336.5 40.5,336.5C 40.5,327.5 40.5,318.5 40.5,309.5C 44.8333,309.5 49.1667,309.5 53.5,309.5C 53.5,313.833 53.5,318.167 53.5,322.5C 58.1667,322.5 62.8333,322.5 67.5,322.5C 67.5,327.167 67.5,331.833 67.5,336.5C 90.9941,337.498 114.661,337.831 138.5,337.5C 138.5,332.833 138.5,328.167 138.5,323.5C 143.167,323.5 147.833,323.5 152.5,323.5C 152.821,318.305 152.487,313.305 151.5,308.5C 146.833,308.5 142.167,308.5 137.5,308.5C 137.5,303.833 137.5,299.167 137.5,294.5C 132.833,294.5 128.167,294.5 123.5,294.5C 123.5,289.833 123.5,285.167 123.5,280.5C 118.833,280.5 114.167,280.5 109.5,280.5C 104.833,280.5 100.167,280.5 95.5,280.5C 90.8333,280.5 86.1667,280.5 81.5,280.5C 81.5,285.167 81.5,289.833 81.5,294.5C 76.8333,294.5 72.1667,294.5 67.5,294.5C 67.5,299.167 67.5,303.833 67.5,308.5C 62.8333,308.5 58.1667,308.5 53.5,308.5C 53.5,304.167 53.5,299.833 53.5,295.5C 53.5,295.167 53.5,294.833 53.5,294.5C 53.5,285.5 53.5,276.5 53.5,267.5C 53.5,267.167 53.5,266.833 53.5,266.5C 53.5,261.833 53.5,257.167 53.5,252.5C 48.8333,252.5 44.1667,252.5 39.5,252.5C 34.8333,252.5 30.1667,252.5 25.5,252.5C 25.5,247.833 25.5,243.167 25.5,238.5C 30.1667,238.5 34.8333,238.5 39.5,238.5C 39.5,229.167 39.5,219.833 39.5,210.5C 44.1667,210.5 48.8333,210.5 53.5,210.5C 53.5,215.167 53.5,219.833 53.5,224.5C 58.1667,224.5 62.8333,224.5 67.5,224.5C 67.5,229.167 67.5,233.833 67.5,238.5C 86.1667,238.5 104.833,238.5 123.5,238.5C 123.5,233.833 123.5,229.167 123.5,224.5C 128.167,224.5 132.833,224.5 137.5,224.5C 137.5,215.167 137.5,205.833 137.5,196.5C 132.833,196.5 128.167,196.5 123.5,196.5C 123.5,191.833 123.5,187.167 123.5,182.5C 114.167,182.5 104.833,182.5 95.5,182.5C 95.5,177.833 95.5,173.167 95.5,168.5C 109.5,168.5 123.5,168.5 137.5,168.5C 137.5,163.833 137.5,159.167 137.5,154.5C 156.167,154.5 174.833,154.5 193.5,154.5C 193.5,159.167 193.5,163.833 193.5,168.5C 202.833,168.5 212.167,168.5 221.5,168.5C 221.226,163.737 221.559,159.07 222.5,154.5C 226.833,154.5 231.167,154.5 235.5,154.5C 235.5,149.833 235.5,145.167 235.5,140.5C 240.167,140.5 244.833,140.5 249.5,140.5 Z"/></g>
<g><path style="opacity:1" fill="#8b2d06" d="M 249.5,140.5 C 254.167,140.5 258.833,140.5 263.5,140.5C 263.5,149.833 263.5,159.167 263.5,168.5C 263.5,168.833 263.5,169.167 263.5,169.5C 263.5,173.833 263.5,178.167 263.5,182.5C 258.833,182.5 254.167,182.5 249.5,182.5C 249.5,177.833 249.5,173.167 249.5,168.5C 249.5,159.167 249.5,149.833 249.5,140.5 Z"/></g>
<g><path style="opacity:1" fill="#d45c24" d="M 137.5,154.5 C 137.5,159.167 137.5,163.833 137.5,168.5C 123.5,168.5 109.5,168.5 95.5,168.5C 95.5,163.833 95.5,159.167 95.5,154.5C 109.5,154.5 123.5,154.5 137.5,154.5 Z"/></g>
<g><path style="opacity:1" fill="#d45d25" d="M 193.5,154.5 C 202.833,154.5 212.167,154.5 221.5,154.5C 221.833,154.5 222.167,154.5 222.5,154.5C 221.559,159.07 221.226,163.737 221.5,168.5C 212.167,168.5 202.833,168.5 193.5,168.5C 193.5,163.833 193.5,159.167 193.5,154.5 Z"/></g>
<g><path style="opacity:1" fill="#000000" d="M 320.5,155.5 C 320.5,160.167 320.5,164.833 320.5,169.5C 311.167,169.5 301.833,169.5 292.5,169.5C 292.5,164.833 292.5,160.167 292.5,155.5C 301.833,155.5 311.167,155.5 320.5,155.5 Z"/></g>
<g><path style="opacity:1" fill="#382b06" d="M 333.5,140.5 C 329.366,141.485 325.032,141.818 320.5,141.5C 320.5,146.167 320.5,150.833 320.5,155.5C 311.167,155.5 301.833,155.5 292.5,155.5C 292.5,160.167 292.5,164.833 292.5,169.5C 282.833,169.5 273.167,169.5 263.5,169.5C 263.5,169.167 263.5,168.833 263.5,168.5C 272.833,168.5 282.167,168.5 291.5,168.5C 291.5,163.833 291.5,159.167 291.5,154.5C 300.833,154.5 310.167,154.5 319.5,154.5C 319.5,149.833 319.5,145.167 319.5,140.5C 324.167,140.5 328.833,140.5 333.5,140.5 Z"/></g>
<g><path style="opacity:1" fill="#d45c24" d="M 95.5,168.5 C 95.5,173.167 95.5,177.833 95.5,182.5C 86.1667,182.5 76.8333,182.5 67.5,182.5C 67.5,177.833 67.5,173.167 67.5,168.5C 76.8333,168.5 86.1667,168.5 95.5,168.5 Z"/></g>
<g><path style="opacity:1" fill="#d45d25" d="M 249.5,168.5 C 249.5,173.167 249.5,177.833 249.5,182.5C 244.833,182.5 240.167,182.5 235.5,182.5C 235.5,177.833 235.5,173.167 235.5,168.5C 240.167,168.5 244.833,168.5 249.5,168.5 Z"/></g>
<g><path style="opacity:1" fill="#010000" d="M 263.5,169.5 C 273.167,169.5 282.833,169.5 292.5,169.5C 292.5,174.167 292.5,178.833 292.5,183.5C 287.833,183.5 283.167,183.5 278.5,183.5C 273.695,182.513 268.695,182.179 263.5,182.5C 263.5,178.167 263.5,173.833 263.5,169.5 Z"/></g>
<g><path style="opacity:1" fill="#d45c24" d="M 67.5,182.5 C 67.5,187.167 67.5,191.833 67.5,196.5C 62.8333,196.5 58.1667,196.5 53.5,196.5C 53.5,191.833 53.5,187.167 53.5,182.5C 58.1667,182.5 62.8333,182.5 67.5,182.5 Z"/></g>
<g><path style="opacity:1" fill="#eca163" d="M 67.5,182.5 C 76.8333,182.5 86.1667,182.5 95.5,182.5C 104.833,182.5 114.167,182.5 123.5,182.5C 123.5,187.167 123.5,191.833 123.5,196.5C 128.167,196.5 132.833,196.5 137.5,196.5C 137.5,205.833 137.5,215.167 137.5,224.5C 132.833,224.5 128.167,224.5 123.5,224.5C 123.5,229.167 123.5,233.833 123.5,238.5C 104.833,238.5 86.1667,238.5 67.5,238.5C 67.5,233.833 67.5,229.167 67.5,224.5C 62.8333,224.5 58.1667,224.5 53.5,224.5C 53.5,219.833 53.5,215.167 53.5,210.5C 53.5,205.833 53.5,201.167 53.5,196.5C 58.1667,196.5 62.8333,196.5 67.5,196.5C 67.5,191.833 67.5,187.167 67.5,182.5 Z"/></g>
<g><path style="opacity:1" fill="#892c06" d="M 263.5,182.5 C 268.695,182.179 273.695,182.513 278.5,183.5C 278.5,187.833 278.5,192.167 278.5,196.5C 283.167,196.5 287.833,196.5 292.5,196.5C 292.5,205.833 292.5,215.167 292.5,224.5C 297.167,224.5 301.833,224.5 306.5,224.5C 306.5,233.833 306.5,243.167 306.5,252.5C 301.5,252.5 296.5,252.5 291.5,252.5C 291.5,247.833 291.5,243.167 291.5,238.5C 291.5,233.833 291.5,229.167 291.5,224.5C 286.833,224.5 282.167,224.5 277.5,224.5C 277.5,215.167 277.5,205.833 277.5,196.5C 272.833,196.5 268.167,196.5 263.5,196.5C 263.5,191.833 263.5,187.167 263.5,182.5 Z"/></g>
<g><path style="opacity:1" fill="#d45c24" d="M 53.5,196.5 C 53.5,201.167 53.5,205.833 53.5,210.5C 48.8333,210.5 44.1667,210.5 39.5,210.5C 39.5,205.833 39.5,201.167 39.5,196.5C 44.1667,196.5 48.8333,196.5 53.5,196.5 Z"/></g>
<g><path style="opacity:1" fill="#d45c24" d="M 39.5,210.5 C 39.5,219.833 39.5,229.167 39.5,238.5C 34.8333,238.5 30.1667,238.5 25.5,238.5C 25.5,229.167 25.5,219.833 25.5,210.5C 30.1667,210.5 34.8333,210.5 39.5,210.5 Z"/></g>
<g><path style="opacity:1" fill="#d45c25" d="M 25.5,238.5 C 25.5,243.167 25.5,247.833 25.5,252.5C 20.8333,252.5 16.1667,252.5 11.5,252.5C 11.5,247.833 11.5,243.167 11.5,238.5C 16.1667,238.5 20.8333,238.5 25.5,238.5 Z"/></g>
<g><path style="opacity:1" fill="#d45d25" d="M 291.5,238.5 C 291.5,243.167 291.5,247.833 291.5,252.5C 291.5,271.167 291.5,289.833 291.5,308.5C 286.833,308.5 282.167,308.5 277.5,308.5C 277.5,317.833 277.5,327.167 277.5,336.5C 272.833,336.5 268.167,336.5 263.5,336.5C 263.5,341.167 263.5,345.833 263.5,350.5C 254.167,350.5 244.833,350.5 235.5,350.5C 235.5,355.167 235.5,359.833 235.5,364.5C 226.167,364.5 216.833,364.5 207.5,364.5C 202.833,364.5 198.167,364.5 193.5,364.5C 193.5,369.167 193.5,373.833 193.5,378.5C 188.833,378.5 184.167,378.5 179.5,378.5C 174.833,378.5 170.167,378.5 165.5,378.5C 160.833,378.5 156.167,378.5 151.5,378.5C 151.5,373.833 151.5,369.167 151.5,364.5C 160.833,364.5 170.167,364.5 179.5,364.5C 179.5,359.833 179.5,355.167 179.5,350.5C 188.833,350.5 198.167,350.5 207.5,350.5C 207.5,345.833 207.5,341.167 207.5,336.5C 212.167,336.5 216.833,336.5 221.5,336.5C 221.5,332.167 221.5,327.833 221.5,323.5C 231.015,323.827 240.348,323.494 249.5,322.5C 249.5,317.833 249.5,313.167 249.5,308.5C 254.167,308.5 258.833,308.5 263.5,308.5C 263.5,299.167 263.5,289.833 263.5,280.5C 268.167,280.5 272.833,280.5 277.5,280.5C 277.5,266.5 277.5,252.5 277.5,238.5C 282.167,238.5 286.833,238.5 291.5,238.5 Z"/></g>
<g><path style="opacity:1" fill="#894c0f" d="M 179.5,252.5 C 188.833,252.5 198.167,252.5 207.5,252.5C 207.5,252.833 207.5,253.167 207.5,253.5C 198.5,253.5 189.5,253.5 180.5,253.5C 180.5,257.833 180.5,262.167 180.5,266.5C 180.167,266.5 179.833,266.5 179.5,266.5C 179.5,261.833 179.5,257.167 179.5,252.5 Z"/></g>
<g><path style="opacity:1" fill="#8a2c06" d="M 11.5,252.5 C 16.1667,252.5 20.8333,252.5 25.5,252.5C 25.5,257.167 25.5,261.833 25.5,266.5C 20.8333,266.5 16.1667,266.5 11.5,266.5C 11.5,261.833 11.5,257.167 11.5,252.5 Z"/></g>
<g><path style="opacity:1" fill="#5a3300" d="M 25.5,252.5 C 30.1667,252.5 34.8333,252.5 39.5,252.5C 39.5,257.167 39.5,261.833 39.5,266.5C 34.8333,266.5 30.1667,266.5 25.5,266.5C 25.5,261.833 25.5,257.167 25.5,252.5 Z"/></g>
<g><path style="opacity:1" fill="#d25d24" d="M 39.5,252.5 C 44.1667,252.5 48.8333,252.5 53.5,252.5C 53.5,257.167 53.5,261.833 53.5,266.5C 48.8333,266.5 44.1667,266.5 39.5,266.5C 39.5,261.833 39.5,257.167 39.5,252.5 Z"/></g>
<g><path style="opacity:1" fill="#d45e25" d="M 179.5,252.5 C 179.5,257.167 179.5,261.833 179.5,266.5C 174.833,266.5 170.167,266.5 165.5,266.5C 165.5,261.833 165.5,257.167 165.5,252.5C 170.167,252.5 174.833,252.5 179.5,252.5 Z"/></g>
<g><path style="opacity:1" fill="#563200" d="M 207.5,253.5 C 207.5,257.833 207.5,262.167 207.5,266.5C 198.5,266.5 189.5,266.5 180.5,266.5C 180.5,262.167 180.5,257.833 180.5,253.5C 189.5,253.5 198.5,253.5 207.5,253.5 Z"/></g>
<g><path style="opacity:1" fill="#d25d24" d="M 207.5,252.5 C 212.167,252.5 216.833,252.5 221.5,252.5C 221.5,257.167 221.5,261.833 221.5,266.5C 216.833,266.5 212.167,266.5 207.5,266.5C 207.5,262.167 207.5,257.833 207.5,253.5C 207.5,253.167 207.5,252.833 207.5,252.5 Z"/></g>
<g><path style="opacity:1" fill="#3a1508" d="M 291.5,252.5 C 296.5,252.5 301.5,252.5 306.5,252.5C 306.5,252.833 306.5,253.167 306.5,253.5C 301.833,253.5 297.167,253.5 292.5,253.5C 292.5,272.167 292.5,290.833 292.5,309.5C 287.833,309.5 283.167,309.5 278.5,309.5C 278.5,318.833 278.5,328.167 278.5,337.5C 273.833,337.5 269.167,337.5 264.5,337.5C 264.5,342.167 264.5,346.833 264.5,351.5C 255.167,351.5 245.833,351.5 236.5,351.5C 236.5,356.167 236.5,360.833 236.5,365.5C 226.833,365.5 217.167,365.5 207.5,365.5C 207.5,365.167 207.5,364.833 207.5,364.5C 216.833,364.5 226.167,364.5 235.5,364.5C 235.5,359.833 235.5,355.167 235.5,350.5C 244.833,350.5 254.167,350.5 263.5,350.5C 263.5,345.833 263.5,341.167 263.5,336.5C 268.167,336.5 272.833,336.5 277.5,336.5C 277.5,327.167 277.5,317.833 277.5,308.5C 282.167,308.5 286.833,308.5 291.5,308.5C 291.5,289.833 291.5,271.167 291.5,252.5 Z"/></g>
<g><path style="opacity:1" fill="#000000" d="M 306.5,253.5 C 306.5,272.167 306.5,290.833 306.5,309.5C 301.833,309.5 297.167,309.5 292.5,309.5C 292.5,290.833 292.5,272.167 292.5,253.5C 297.167,253.5 301.833,253.5 306.5,253.5 Z"/></g>
<g><path style="opacity:1" fill="#030000" d="M 11.5,266.5 C 16.1667,266.5 20.8333,266.5 25.5,266.5C 25.5,275.833 25.5,285.167 25.5,294.5C 20.8333,294.5 16.1667,294.5 11.5,294.5C 11.5,285.167 11.5,275.833 11.5,266.5 Z"/></g>
<g><path style="opacity:1" fill="#bab7b2" d="M 25.5,266.5 C 30.1667,266.5 34.8333,266.5 39.5,266.5C 39.5,266.833 39.5,267.167 39.5,267.5C 35.1667,267.5 30.8333,267.5 26.5,267.5C 26.5,276.5 26.5,285.5 26.5,294.5C 26.1667,294.5 25.8333,294.5 25.5,294.5C 25.5,285.167 25.5,275.833 25.5,266.5 Z"/></g>
<g><path style="opacity:1" fill="#f9faf9" d="M 39.5,267.5 C 39.5,276.5 39.5,285.5 39.5,294.5C 35.1667,294.5 30.8333,294.5 26.5,294.5C 26.5,285.5 26.5,276.5 26.5,267.5C 30.8333,267.5 35.1667,267.5 39.5,267.5 Z"/></g>
<g><path style="opacity:1" fill="#000000" d="M 53.5,267.5 C 53.5,276.5 53.5,285.5 53.5,294.5C 49.1667,294.5 44.8333,294.5 40.5,294.5C 40.5,285.5 40.5,276.5 40.5,267.5C 44.8333,267.5 49.1667,267.5 53.5,267.5 Z"/></g>
<g><path style="opacity:1" fill="#3d1f0c" d="M 165.5,266.5 C 170.167,266.5 174.833,266.5 179.5,266.5C 179.5,266.833 179.5,267.167 179.5,267.5C 175.167,267.5 170.833,267.5 166.5,267.5C 166.5,276.5 166.5,285.5 166.5,294.5C 166.167,294.5 165.833,294.5 165.5,294.5C 165.5,285.167 165.5,275.833 165.5,266.5 Z"/></g>
<g><path style="opacity:1" fill="#000000" d="M 179.5,267.5 C 179.5,276.5 179.5,285.5 179.5,294.5C 175.167,294.5 170.833,294.5 166.5,294.5C 166.5,285.5 166.5,276.5 166.5,267.5C 170.833,267.5 175.167,267.5 179.5,267.5 Z"/></g>
<g><path style="opacity:1" fill="#a29e9a" d="M 179.5,266.5 C 179.833,266.5 180.167,266.5 180.5,266.5C 189.5,266.5 198.5,266.5 207.5,266.5C 207.5,266.833 207.5,267.167 207.5,267.5C 198.5,267.5 189.5,267.5 180.5,267.5C 180.5,276.5 180.5,285.5 180.5,294.5C 189.5,294.5 198.5,294.5 207.5,294.5C 207.5,294.833 207.5,295.167 207.5,295.5C 198.167,295.5 188.833,295.5 179.5,295.5C 179.5,295.167 179.5,294.833 179.5,294.5C 179.5,285.5 179.5,276.5 179.5,267.5C 179.5,267.167 179.5,266.833 179.5,266.5 Z"/></g>
<g><path style="opacity:1" fill="#f9faf9" d="M 207.5,267.5 C 207.5,276.5 207.5,285.5 207.5,294.5C 198.5,294.5 189.5,294.5 180.5,294.5C 180.5,285.5 180.5,276.5 180.5,267.5C 189.5,267.5 198.5,267.5 207.5,267.5 Z"/></g>
<g><path style="opacity:1" fill="#443631" d="M 207.5,266.5 C 212.167,266.5 216.833,266.5 221.5,266.5C 221.5,266.833 221.5,267.167 221.5,267.5C 217.167,267.5 212.833,267.5 208.5,267.5C 208.5,276.5 208.5,285.5 208.5,294.5C 208.167,294.5 207.833,294.5 207.5,294.5C 207.5,285.5 207.5,276.5 207.5,267.5C 207.5,267.167 207.5,266.833 207.5,266.5 Z"/></g>
<g><path style="opacity:1" fill="#000000" d="M 221.5,267.5 C 221.5,276.5 221.5,285.5 221.5,294.5C 217.167,294.5 212.833,294.5 208.5,294.5C 208.5,285.5 208.5,276.5 208.5,267.5C 212.833,267.5 217.167,267.5 221.5,267.5 Z"/></g>
<g><path style="opacity:1" fill="#d45e25" d="M 95.5,280.5 C 95.5,285.167 95.5,289.833 95.5,294.5C 90.8333,294.5 86.1667,294.5 81.5,294.5C 81.5,289.833 81.5,285.167 81.5,280.5C 86.1667,280.5 90.8333,280.5 95.5,280.5 Z"/></g>
<g><path style="opacity:1" fill="#8c753d" d="M 95.5,280.5 C 100.167,280.5 104.833,280.5 109.5,280.5C 109.5,285.167 109.5,289.833 109.5,294.5C 104.833,294.5 100.167,294.5 95.5,294.5C 95.5,289.833 95.5,285.167 95.5,280.5 Z"/></g>
<g><path style="opacity:1" fill="#d35e25" d="M 109.5,280.5 C 114.167,280.5 118.833,280.5 123.5,280.5C 123.5,285.167 123.5,289.833 123.5,294.5C 118.833,294.5 114.167,294.5 109.5,294.5C 109.5,289.833 109.5,285.167 109.5,280.5 Z"/></g>
<g><path style="opacity:1" fill="#543000" d="M 11.5,294.5 C 16.1667,294.5 20.8333,294.5 25.5,294.5C 25.5,294.833 25.5,295.167 25.5,295.5C 25.5,299.833 25.5,304.167 25.5,308.5C 20.8333,308.5 16.1667,308.5 11.5,308.5C 11.5,303.833 11.5,299.167 11.5,294.5 Z"/></g>
<g><path style="opacity:1" fill="#010000" d="M 25.5,295.5 C 30.1667,295.5 34.8333,295.5 39.5,295.5C 39.5,299.833 39.5,304.167 39.5,308.5C 34.8333,308.5 30.1667,308.5 25.5,308.5C 25.5,304.167 25.5,299.833 25.5,295.5 Z"/></g>
<g><path style="opacity:1" fill="#443322" d="M 39.5,266.5 C 44.1667,266.5 48.8333,266.5 53.5,266.5C 53.5,266.833 53.5,267.167 53.5,267.5C 49.1667,267.5 44.8333,267.5 40.5,267.5C 40.5,276.5 40.5,285.5 40.5,294.5C 44.8333,294.5 49.1667,294.5 53.5,294.5C 53.5,294.833 53.5,295.167 53.5,295.5C 49.1667,295.5 44.8333,295.5 40.5,295.5C 40.5,299.833 40.5,304.167 40.5,308.5C 40.1667,308.5 39.8333,308.5 39.5,308.5C 39.5,304.167 39.5,299.833 39.5,295.5C 34.8333,295.5 30.1667,295.5 25.5,295.5C 25.5,295.167 25.5,294.833 25.5,294.5C 25.8333,294.5 26.1667,294.5 26.5,294.5C 30.8333,294.5 35.1667,294.5 39.5,294.5C 39.5,285.5 39.5,276.5 39.5,267.5C 39.5,267.167 39.5,266.833 39.5,266.5 Z"/></g>
<g><path style="opacity:1" fill="#563200" d="M 53.5,295.5 C 53.5,299.833 53.5,304.167 53.5,308.5C 49.1667,308.5 44.8333,308.5 40.5,308.5C 40.5,304.167 40.5,299.833 40.5,295.5C 44.8333,295.5 49.1667,295.5 53.5,295.5 Z"/></g>
<g><path style="opacity:1" fill="#d45e25" d="M 81.5,294.5 C 81.5,299.167 81.5,303.833 81.5,308.5C 76.8333,308.5 72.1667,308.5 67.5,308.5C 67.5,303.833 67.5,299.167 67.5,294.5C 72.1667,294.5 76.8333,294.5 81.5,294.5 Z"/></g>
<g><path style="opacity:1" fill="#dfb066" d="M 81.5,294.5 C 86.1667,294.5 90.8333,294.5 95.5,294.5C 100.167,294.5 104.833,294.5 109.5,294.5C 109.5,294.833 109.5,295.167 109.5,295.5C 100.5,295.5 91.5,295.5 82.5,295.5C 82.5,300.167 82.5,304.833 82.5,309.5C 77.8333,309.5 73.1667,309.5 68.5,309.5C 68.5,313.833 68.5,318.167 68.5,322.5C 68.1667,322.5 67.8333,322.5 67.5,322.5C 67.5,317.833 67.5,313.167 67.5,308.5C 72.1667,308.5 76.8333,308.5 81.5,308.5C 81.5,303.833 81.5,299.167 81.5,294.5 Z"/></g>
<g><path style="opacity:1" fill="#ecd382" d="M 109.5,295.5 C 109.5,299.833 109.5,304.167 109.5,308.5C 114.167,308.5 118.833,308.5 123.5,308.5C 123.5,313.167 123.5,317.833 123.5,322.5C 105.167,322.5 86.8333,322.5 68.5,322.5C 68.5,318.167 68.5,313.833 68.5,309.5C 73.1667,309.5 77.8333,309.5 82.5,309.5C 82.5,304.833 82.5,300.167 82.5,295.5C 91.5,295.5 100.5,295.5 109.5,295.5 Z"/></g>
<g><path style="opacity:1" fill="#8c763e" d="M 109.5,294.5 C 114.167,294.5 118.833,294.5 123.5,294.5C 128.167,294.5 132.833,294.5 137.5,294.5C 137.5,299.167 137.5,303.833 137.5,308.5C 132.833,308.5 128.167,308.5 123.5,308.5C 118.833,308.5 114.167,308.5 109.5,308.5C 109.5,304.167 109.5,299.833 109.5,295.5C 109.5,295.167 109.5,294.833 109.5,294.5 Z"/></g>
<g><path style="opacity:1" fill="#563101" d="M 165.5,294.5 C 165.833,294.5 166.167,294.5 166.5,294.5C 170.833,294.5 175.167,294.5 179.5,294.5C 179.5,294.833 179.5,295.167 179.5,295.5C 179.5,299.833 179.5,304.167 179.5,308.5C 174.833,308.5 170.167,308.5 165.5,308.5C 165.5,303.833 165.5,299.167 165.5,294.5 Z"/></g>
<g><path style="opacity:1" fill="#000000" d="M 179.5,295.5 C 188.833,295.5 198.167,295.5 207.5,295.5C 207.5,299.833 207.5,304.167 207.5,308.5C 198.167,308.5 188.833,308.5 179.5,308.5C 179.5,304.167 179.5,299.833 179.5,295.5 Z"/></g>
<g><path style="opacity:1" fill="#533000" d="M 207.5,294.5 C 207.833,294.5 208.167,294.5 208.5,294.5C 212.833,294.5 217.167,294.5 221.5,294.5C 221.5,299.167 221.5,303.833 221.5,308.5C 216.833,308.5 212.167,308.5 207.5,308.5C 207.5,304.167 207.5,299.833 207.5,295.5C 207.5,295.167 207.5,294.833 207.5,294.5 Z"/></g>
<g><path style="opacity:1" fill="#553000" d="M 25.5,308.5 C 30.1667,308.5 34.8333,308.5 39.5,308.5C 39.5,313.167 39.5,317.833 39.5,322.5C 34.8333,322.5 30.1667,322.5 25.5,322.5C 25.5,317.833 25.5,313.167 25.5,308.5 Z"/></g>
<g><path style="opacity:1" fill="#bd6322" d="M 39.5,308.5 C 39.8333,308.5 40.1667,308.5 40.5,308.5C 44.8333,308.5 49.1667,308.5 53.5,308.5C 53.5,308.833 53.5,309.167 53.5,309.5C 49.1667,309.5 44.8333,309.5 40.5,309.5C 40.5,318.5 40.5,327.5 40.5,336.5C 45.1667,336.5 49.8333,336.5 54.5,336.5C 54.5,341.167 54.5,345.833 54.5,350.5C 63.6822,350.173 72.6822,350.507 81.5,351.5C 72.1667,351.5 62.8333,351.5 53.5,351.5C 53.5,346.833 53.5,342.167 53.5,337.5C 48.8333,337.5 44.1667,337.5 39.5,337.5C 39.5,332.5 39.5,327.5 39.5,322.5C 39.5,317.833 39.5,313.167 39.5,308.5 Z"/></g>
<g><path style="opacity:1" fill="#d45e25" d="M 53.5,308.5 C 58.1667,308.5 62.8333,308.5 67.5,308.5C 67.5,313.167 67.5,317.833 67.5,322.5C 62.8333,322.5 58.1667,322.5 53.5,322.5C 53.5,318.167 53.5,313.833 53.5,309.5C 53.5,309.167 53.5,308.833 53.5,308.5 Z"/></g>
<g><path style="opacity:1" fill="#ebba22" d="M 123.5,308.5 C 128.167,308.5 132.833,308.5 137.5,308.5C 137.5,313.167 137.5,317.833 137.5,322.5C 132.833,322.5 128.167,322.5 123.5,322.5C 123.5,317.833 123.5,313.167 123.5,308.5 Z"/></g>
<g><path style="opacity:1" fill="#8c773d" d="M 137.5,308.5 C 142.167,308.5 146.833,308.5 151.5,308.5C 151.5,313.167 151.5,317.833 151.5,322.5C 146.833,322.5 142.167,322.5 137.5,322.5C 137.5,317.833 137.5,313.167 137.5,308.5 Z"/></g>
<g><path style="opacity:1" fill="#d15c24" d="M 165.5,308.5 C 170.167,308.5 174.833,308.5 179.5,308.5C 179.5,313.167 179.5,317.833 179.5,322.5C 174.833,322.5 170.167,322.5 165.5,322.5C 165.5,317.833 165.5,313.167 165.5,308.5 Z"/></g>
<g><path style="opacity:1" fill="#553100" d="M 179.5,308.5 C 188.833,308.5 198.167,308.5 207.5,308.5C 207.5,313.167 207.5,317.833 207.5,322.5C 198.167,322.5 188.833,322.5 179.5,322.5C 179.5,317.833 179.5,313.167 179.5,308.5 Z"/></g>
<g><path style="opacity:1" fill="#cf5b23" d="M 207.5,308.5 C 212.167,308.5 216.833,308.5 221.5,308.5C 221.5,313.167 221.5,317.833 221.5,322.5C 216.833,322.5 212.167,322.5 207.5,322.5C 207.5,317.833 207.5,313.167 207.5,308.5 Z"/></g>
<g><path style="opacity:1" fill="#000000" d="M 292.5,309.5 C 292.5,318.833 292.5,328.167 292.5,337.5C 287.833,337.5 283.167,337.5 278.5,337.5C 278.5,328.167 278.5,318.833 278.5,309.5C 283.167,309.5 287.833,309.5 292.5,309.5 Z"/></g>
<g><path style="opacity:1" fill="#ce6c29" d="M 221.5,267.5 C 222.497,285.659 222.83,303.992 222.5,322.5C 231.5,322.5 240.5,322.5 249.5,322.5C 240.348,323.494 231.015,323.827 221.5,323.5C 207.323,323.829 193.323,323.496 179.5,322.5C 188.833,322.5 198.167,322.5 207.5,322.5C 212.167,322.5 216.833,322.5 221.5,322.5C 221.5,317.833 221.5,313.167 221.5,308.5C 221.5,303.833 221.5,299.167 221.5,294.5C 221.5,285.5 221.5,276.5 221.5,267.5 Z"/></g>
<g><path style="opacity:1" fill="#882b05" d="M 11.5,308.5 C 16.1667,308.5 20.8333,308.5 25.5,308.5C 25.5,313.167 25.5,317.833 25.5,322.5C 30.1667,322.5 34.8333,322.5 39.5,322.5C 39.5,327.5 39.5,332.5 39.5,337.5C 34.8333,337.5 30.1667,337.5 25.5,337.5C 25.5,332.833 25.5,328.167 25.5,323.5C 20.8333,323.5 16.1667,323.5 11.5,323.5C 11.5,318.5 11.5,313.5 11.5,308.5 Z"/></g>
<g><path style="opacity:1" fill="#8b783f" d="M 67.5,322.5 C 67.8333,322.5 68.1667,322.5 68.5,322.5C 86.8333,322.5 105.167,322.5 123.5,322.5C 128.167,322.5 132.833,322.5 137.5,322.5C 137.5,327.167 137.5,331.833 137.5,336.5C 114.167,336.5 90.8333,336.5 67.5,336.5C 67.5,331.833 67.5,327.167 67.5,322.5 Z"/></g>
<g><path style="opacity:1" fill="#c97d38" d="M 151.5,308.5 C 152.487,313.305 152.821,318.305 152.5,323.5C 147.833,323.5 143.167,323.5 138.5,323.5C 138.5,328.167 138.5,332.833 138.5,337.5C 114.661,337.831 90.9941,337.498 67.5,336.5C 90.8333,336.5 114.167,336.5 137.5,336.5C 137.5,331.833 137.5,327.167 137.5,322.5C 142.167,322.5 146.833,322.5 151.5,322.5C 151.5,317.833 151.5,313.167 151.5,308.5 Z"/></g>
<g><path style="opacity:1" fill="#882b05" d="M 39.5,337.5 C 44.1667,337.5 48.8333,337.5 53.5,337.5C 53.5,342.167 53.5,346.833 53.5,351.5C 48.8333,351.5 44.1667,351.5 39.5,351.5C 39.5,346.833 39.5,342.167 39.5,337.5 Z"/></g>
<g><path style="opacity:1" fill="#000000" d="M 278.5,337.5 C 278.5,342.167 278.5,346.833 278.5,351.5C 273.833,351.5 269.167,351.5 264.5,351.5C 264.5,346.833 264.5,342.167 264.5,337.5C 269.167,337.5 273.833,337.5 278.5,337.5 Z"/></g>
<g><path style="opacity:1" fill="#882b05" d="M 53.5,351.5 C 62.8333,351.5 72.1667,351.5 81.5,351.5C 81.5,355.833 81.5,360.167 81.5,364.5C 76.6367,364.181 71.97,364.514 67.5,365.5C 62.8333,365.5 58.1667,365.5 53.5,365.5C 53.5,360.833 53.5,356.167 53.5,351.5 Z"/></g>
<g><path style="opacity:1" fill="#000000" d="M 264.5,351.5 C 264.5,356.167 264.5,360.833 264.5,365.5C 255.167,365.5 245.833,365.5 236.5,365.5C 236.5,360.833 236.5,356.167 236.5,351.5C 245.833,351.5 255.167,351.5 264.5,351.5 Z"/></g>
<g><path style="opacity:1" fill="#89743d" d="M 81.5,364.5 C 81.5,364.833 81.5,365.167 81.5,365.5C 81.5,369.833 81.5,374.167 81.5,378.5C 81.5,383.167 81.5,387.833 81.5,392.5C 76.8333,392.5 72.1667,392.5 67.5,392.5C 67.5,383.5 67.5,374.5 67.5,365.5C 71.97,364.514 76.6367,364.181 81.5,364.5 Z"/></g>
<g><path style="opacity:1" fill="#892b06" d="M 81.5,365.5 C 90.8333,365.5 100.167,365.5 109.5,365.5C 109.5,369.833 109.5,374.167 109.5,378.5C 104.833,378.5 100.167,378.5 95.5,378.5C 90.8333,378.5 86.1667,378.5 81.5,378.5C 81.5,374.167 81.5,369.833 81.5,365.5 Z"/></g>
<g><path style="opacity:1" fill="#d45e25" d="M 137.5,378.5 C 132.833,378.5 128.167,378.5 123.5,378.5C 123.5,373.833 123.5,369.167 123.5,364.5C 128.167,364.5 132.833,364.5 137.5,364.5C 137.5,369.167 137.5,373.833 137.5,378.5 Z"/></g>
<g><path style="opacity:1" fill="#8b2c06" d="M 207.5,364.5 C 207.5,364.833 207.5,365.167 207.5,365.5C 207.5,369.833 207.5,374.167 207.5,378.5C 202.833,378.5 198.167,378.5 193.5,378.5C 193.5,373.833 193.5,369.167 193.5,364.5C 198.167,364.5 202.833,364.5 207.5,364.5 Z"/></g>
<g><path style="opacity:1" fill="#010000" d="M 207.5,365.5 C 217.167,365.5 226.833,365.5 236.5,365.5C 236.5,369.833 236.5,374.167 236.5,378.5C 226.833,378.5 217.167,378.5 207.5,378.5C 207.5,374.167 207.5,369.833 207.5,365.5 Z"/></g>
<g><path style="opacity:1" fill="#8b763b" d="M 179.5,379.5 C 179.5,379.167 179.5,378.833 179.5,378.5C 184.167,378.5 188.833,378.5 193.5,378.5C 198.167,378.5 202.833,378.5 207.5,378.5C 217.167,378.5 226.833,378.5 236.5,378.5C 245.833,378.5 255.167,378.5 264.5,378.5C 264.5,383.167 264.5,387.833 264.5,392.5C 269.167,392.5 273.833,392.5 278.5,392.5C 278.5,397.5 278.5,402.5 278.5,407.5C 273.833,407.5 269.167,407.5 264.5,407.5C 259.5,407.5 254.5,407.5 249.5,407.5C 249.5,411.833 249.5,416.167 249.5,420.5C 249.5,425.167 249.5,429.833 249.5,434.5C 244.833,434.5 240.167,434.5 235.5,434.5C 235.5,429.833 235.5,425.167 235.5,420.5C 235.5,415.833 235.5,411.167 235.5,406.5C 244.833,406.5 254.167,406.5 263.5,406.5C 263.5,401.833 263.5,397.167 263.5,392.5C 254.167,392.5 244.833,392.5 235.5,392.5C 235.5,388.167 235.5,383.833 235.5,379.5C 216.833,379.5 198.167,379.5 179.5,379.5 Z"/></g>
<g><path style="opacity:1" fill="#ebb920" d="M 81.5,378.5 C 86.1667,378.5 90.8333,378.5 95.5,378.5C 95.5,378.833 95.5,379.167 95.5,379.5C 95.5,383.833 95.5,388.167 95.5,392.5C 95.5,397.167 95.5,401.833 95.5,406.5C 90.8333,406.5 86.1667,406.5 81.5,406.5C 81.5,402.167 81.5,397.833 81.5,393.5C 81.5,393.167 81.5,392.833 81.5,392.5C 81.5,387.833 81.5,383.167 81.5,378.5 Z"/></g>
<g><path style="opacity:1" fill="#e78337" d="M 95.5,379.5 C 100.167,379.5 104.833,379.5 109.5,379.5C 109.5,383.833 109.5,388.167 109.5,392.5C 104.833,392.5 100.167,392.5 95.5,392.5C 95.5,388.167 95.5,383.833 95.5,379.5 Z"/></g>
<g><path style="opacity:1" fill="#d15e24" d="M 81.5,365.5 C 81.5,365.167 81.5,364.833 81.5,364.5C 91.1667,364.5 100.833,364.5 110.5,364.5C 110.5,369.167 110.5,373.833 110.5,378.5C 114.833,378.5 119.167,378.5 123.5,378.5C 123.5,383.167 123.5,387.833 123.5,392.5C 118.833,392.5 114.167,392.5 109.5,392.5C 109.5,388.167 109.5,383.833 109.5,379.5C 104.833,379.5 100.167,379.5 95.5,379.5C 95.5,379.167 95.5,378.833 95.5,378.5C 100.167,378.5 104.833,378.5 109.5,378.5C 109.5,374.167 109.5,369.833 109.5,365.5C 100.167,365.5 90.8333,365.5 81.5,365.5 Z"/></g>
<g><path style="opacity:1" fill="#e58237" d="M 123.5,378.5 C 128.167,378.5 132.833,378.5 137.5,378.5C 137.5,383.167 137.5,387.833 137.5,392.5C 137.5,401.833 137.5,411.167 137.5,420.5C 142.167,420.5 146.833,420.5 151.5,420.5C 151.5,425.167 151.5,429.833 151.5,434.5C 156.167,434.5 160.833,434.5 165.5,434.5C 165.5,434.833 165.5,435.167 165.5,435.5C 160.833,435.5 156.167,435.5 151.5,435.5C 151.5,439.833 151.5,444.167 151.5,448.5C 146.833,448.5 142.167,448.5 137.5,448.5C 137.5,453.167 137.5,457.833 137.5,462.5C 128.167,462.5 118.833,462.5 109.5,462.5C 109.5,457.833 109.5,453.167 109.5,448.5C 104.833,448.5 100.167,448.5 95.5,448.5C 95.5,443.833 95.5,439.167 95.5,434.5C 100.167,434.5 104.833,434.5 109.5,434.5C 109.5,420.5 109.5,406.5 109.5,392.5C 114.167,392.5 118.833,392.5 123.5,392.5C 123.5,387.833 123.5,383.167 123.5,378.5 Z"/></g>
<g><path style="opacity:1" fill="#d45e25" d="M 137.5,378.5 C 142.167,378.5 146.833,378.5 151.5,378.5C 151.5,383.167 151.5,387.833 151.5,392.5C 146.833,392.5 142.167,392.5 137.5,392.5C 137.5,387.833 137.5,383.167 137.5,378.5 Z"/></g>
<g><path style="opacity:1" fill="#ecb71f" d="M 151.5,378.5 C 156.167,378.5 160.833,378.5 165.5,378.5C 165.5,383.167 165.5,387.833 165.5,392.5C 160.833,392.5 156.167,392.5 151.5,392.5C 151.5,387.833 151.5,383.167 151.5,378.5 Z"/></g>
<g><path style="opacity:1" fill="#ecd281" d="M 165.5,378.5 C 170.167,378.5 174.833,378.5 179.5,378.5C 179.5,378.833 179.5,379.167 179.5,379.5C 179.5,383.833 179.5,388.167 179.5,392.5C 184.167,392.5 188.833,392.5 193.5,392.5C 193.5,401.833 193.5,411.167 193.5,420.5C 188.833,420.5 184.167,420.5 179.5,420.5C 179.5,425.167 179.5,429.833 179.5,434.5C 174.833,434.5 170.167,434.5 165.5,434.5C 160.833,434.5 156.167,434.5 151.5,434.5C 151.5,429.833 151.5,425.167 151.5,420.5C 151.5,411.167 151.5,401.833 151.5,392.5C 156.167,392.5 160.833,392.5 165.5,392.5C 165.5,387.833 165.5,383.167 165.5,378.5 Z"/></g>
<g><path style="opacity:1" fill="#ecba20" d="M 179.5,379.5 C 198.167,379.5 216.833,379.5 235.5,379.5C 235.5,383.833 235.5,388.167 235.5,392.5C 244.833,392.5 254.167,392.5 263.5,392.5C 263.5,397.167 263.5,401.833 263.5,406.5C 254.167,406.5 244.833,406.5 235.5,406.5C 235.5,411.167 235.5,415.833 235.5,420.5C 230.833,420.5 226.167,420.5 221.5,420.5C 221.5,415.833 221.5,411.167 221.5,406.5C 216.833,406.5 212.167,406.5 207.5,406.5C 207.5,411.167 207.5,415.833 207.5,420.5C 202.833,420.5 198.167,420.5 193.5,420.5C 193.5,411.167 193.5,401.833 193.5,392.5C 188.833,392.5 184.167,392.5 179.5,392.5C 179.5,388.167 179.5,383.833 179.5,379.5 Z"/></g>
<g><path style="opacity:1" fill="#88763d" d="M 67.5,392.5 C 67.5,397.167 67.5,401.833 67.5,406.5C 62.8333,406.5 58.1667,406.5 53.5,406.5C 53.5,401.833 53.5,397.167 53.5,392.5C 58.1667,392.5 62.8333,392.5 67.5,392.5 Z"/></g>
<g><path style="opacity:1" fill="#cbb26a" d="M 67.5,392.5 C 72.1667,392.5 76.8333,392.5 81.5,392.5C 81.5,392.833 81.5,393.167 81.5,393.5C 77.1667,393.5 72.8333,393.5 68.5,393.5C 68.5,398.167 68.5,402.833 68.5,407.5C 63.8333,407.5 59.1667,407.5 54.5,407.5C 54.5,411.833 54.5,416.167 54.5,420.5C 59.1667,420.5 63.8333,420.5 68.5,420.5C 68.5,425.167 68.5,429.833 68.5,434.5C 68.1667,434.5 67.8333,434.5 67.5,434.5C 67.5,430.167 67.5,425.833 67.5,421.5C 62.8333,421.5 58.1667,421.5 53.5,421.5C 53.5,416.5 53.5,411.5 53.5,406.5C 58.1667,406.5 62.8333,406.5 67.5,406.5C 67.5,401.833 67.5,397.167 67.5,392.5 Z"/></g>
<g><path style="opacity:1" fill="#edd382" d="M 81.5,393.5 C 81.5,397.833 81.5,402.167 81.5,406.5C 86.1667,406.5 90.8333,406.5 95.5,406.5C 95.5,411.167 95.5,415.833 95.5,420.5C 90.8333,420.5 86.1667,420.5 81.5,420.5C 81.5,425.167 81.5,429.833 81.5,434.5C 77.1667,434.5 72.8333,434.5 68.5,434.5C 68.5,429.833 68.5,425.167 68.5,420.5C 63.8333,420.5 59.1667,420.5 54.5,420.5C 54.5,416.167 54.5,411.833 54.5,407.5C 59.1667,407.5 63.8333,407.5 68.5,407.5C 68.5,402.833 68.5,398.167 68.5,393.5C 72.8333,393.5 77.1667,393.5 81.5,393.5 Z"/></g>
<g><path style="opacity:1" fill="#8b773e" d="M 95.5,392.5 C 100.167,392.5 104.833,392.5 109.5,392.5C 109.5,406.5 109.5,420.5 109.5,434.5C 104.833,434.5 100.167,434.5 95.5,434.5C 95.5,429.833 95.5,425.167 95.5,420.5C 95.5,415.833 95.5,411.167 95.5,406.5C 95.5,401.833 95.5,397.167 95.5,392.5 Z"/></g>
<g><path style="opacity:1" fill="#8b753d" d="M 137.5,392.5 C 142.167,392.5 146.833,392.5 151.5,392.5C 151.5,401.833 151.5,411.167 151.5,420.5C 146.833,420.5 142.167,420.5 137.5,420.5C 137.5,411.167 137.5,401.833 137.5,392.5 Z"/></g>
<g><path style="opacity:1" fill="#88763d" d="M 53.5,406.5 C 53.5,411.5 53.5,416.5 53.5,421.5C 48.8333,421.5 44.1667,421.5 39.5,421.5C 39.5,416.5 39.5,411.5 39.5,406.5C 44.1667,406.5 48.8333,406.5 53.5,406.5 Z"/></g>
<g><path style="opacity:1" fill="#ecd280" d="M 235.5,420.5 C 235.5,425.167 235.5,429.833 235.5,434.5C 235.5,439.167 235.5,443.833 235.5,448.5C 230.833,448.5 226.167,448.5 221.5,448.5C 221.5,443.833 221.5,439.167 221.5,434.5C 216.833,434.5 212.167,434.5 207.5,434.5C 207.5,429.833 207.5,425.167 207.5,420.5C 207.5,415.833 207.5,411.167 207.5,406.5C 212.167,406.5 216.833,406.5 221.5,406.5C 221.5,411.167 221.5,415.833 221.5,420.5C 226.167,420.5 230.833,420.5 235.5,420.5 Z"/></g>
<g><path style="opacity:1" fill="#000000" d="M 264.5,407.5 C 264.5,411.833 264.5,416.167 264.5,420.5C 269.167,420.5 273.833,420.5 278.5,420.5C 278.5,430.167 278.5,439.833 278.5,449.5C 273.833,449.5 269.167,449.5 264.5,449.5C 264.827,439.985 264.494,430.652 263.5,421.5C 259.03,420.514 254.363,420.181 249.5,420.5C 249.5,416.167 249.5,411.833 249.5,407.5C 254.5,407.5 259.5,407.5 264.5,407.5 Z"/></g>
<g><path style="opacity:1" fill="#88763d" d="M 53.5,421.5 C 58.1667,421.5 62.8333,421.5 67.5,421.5C 67.5,425.833 67.5,430.167 67.5,434.5C 62.8333,434.5 58.1667,434.5 53.5,434.5C 53.5,430.167 53.5,425.833 53.5,421.5 Z"/></g>
<g><path style="opacity:1" fill="#edbb23" d="M 95.5,420.5 C 95.5,425.167 95.5,429.833 95.5,434.5C 90.8333,434.5 86.1667,434.5 81.5,434.5C 81.5,429.833 81.5,425.167 81.5,420.5C 86.1667,420.5 90.8333,420.5 95.5,420.5 Z"/></g>
<g><path style="opacity:1" fill="#8d783f" d="M 151.5,420.5 C 156.167,420.5 160.833,420.5 165.5,420.5C 165.5,425.167 165.5,429.833 165.5,434.5C 165.5,429.833 165.5,425.167 165.5,420.5C 160.833,420.5 156.167,420.5 151.5,420.5 Z"/></g>
<g><path style="opacity:1" fill="#edbb23" d="M 193.5,420.5 C 193.5,425.167 193.5,429.833 193.5,434.5C 188.833,434.5 184.167,434.5 179.5,434.5C 179.5,429.833 179.5,425.167 179.5,420.5C 184.167,420.5 188.833,420.5 193.5,420.5 Z"/></g>
<g><path style="opacity:1" fill="#8c783d" d="M 193.5,420.5 C 198.167,420.5 202.833,420.5 207.5,420.5C 207.5,425.167 207.5,429.833 207.5,434.5C 202.833,434.5 198.167,434.5 193.5,434.5C 193.5,429.833 193.5,425.167 193.5,420.5 Z"/></g>
<g><path style="opacity:1" fill="#892b06" d="M 249.5,420.5 C 254.363,420.181 259.03,420.514 263.5,421.5C 263.5,430.5 263.5,439.5 263.5,448.5C 258.833,448.5 254.167,448.5 249.5,448.5C 249.5,453.167 249.5,457.833 249.5,462.5C 244.833,462.5 240.167,462.5 235.5,462.5C 235.5,467.167 235.5,471.833 235.5,476.5C 225.985,476.173 216.652,476.506 207.5,477.5C 207.5,481.833 207.5,486.167 207.5,490.5C 207.5,495.167 207.5,499.833 207.5,504.5C 202.833,504.5 198.167,504.5 193.5,504.5C 193.5,499.833 193.5,495.167 193.5,490.5C 184.167,490.5 174.833,490.5 165.5,490.5C 165.5,485.833 165.5,481.167 165.5,476.5C 170.167,476.5 174.833,476.5 179.5,476.5C 179.5,471.833 179.5,467.167 179.5,462.5C 184.167,462.5 188.833,462.5 193.5,462.5C 193.5,458.167 193.5,453.833 193.5,449.5C 188.637,449.819 183.97,449.486 179.5,448.5C 184.167,448.5 188.833,448.5 193.5,448.5C 193.5,443.833 193.5,439.167 193.5,434.5C 198.167,434.5 202.833,434.5 207.5,434.5C 207.5,439.167 207.5,443.833 207.5,448.5C 216.986,449.494 226.652,449.827 236.5,449.5C 236.5,444.833 236.5,440.167 236.5,435.5C 241.032,435.818 245.366,435.485 249.5,434.5C 249.5,429.833 249.5,425.167 249.5,420.5 Z"/></g>
<g><path style="opacity:1" fill="#270a00" d="M 263.5,421.5 C 264.494,430.652 264.827,439.985 264.5,449.5C 259.833,449.5 255.167,449.5 250.5,449.5C 250.5,454.167 250.5,458.833 250.5,463.5C 245.833,463.5 241.167,463.5 236.5,463.5C 236.5,468.167 236.5,472.833 236.5,477.5C 226.833,477.5 217.167,477.5 207.5,477.5C 216.652,476.506 225.985,476.173 235.5,476.5C 235.5,471.833 235.5,467.167 235.5,462.5C 240.167,462.5 244.833,462.5 249.5,462.5C 249.5,457.833 249.5,453.167 249.5,448.5C 254.167,448.5 258.833,448.5 263.5,448.5C 263.5,439.5 263.5,430.5 263.5,421.5 Z"/></g>
<g><path style="opacity:1" fill="#892d06" d="M 53.5,434.5 C 58.1667,434.5 62.8333,434.5 67.5,434.5C 67.5,439.167 67.5,443.833 67.5,448.5C 67.5,448.833 67.5,449.167 67.5,449.5C 62.8333,449.5 58.1667,449.5 53.5,449.5C 53.5,444.5 53.5,439.5 53.5,434.5 Z"/></g>
<g><path style="opacity:1" fill="#ebb821" d="M 67.5,434.5 C 67.8333,434.5 68.1667,434.5 68.5,434.5C 72.8333,434.5 77.1667,434.5 81.5,434.5C 81.5,439.167 81.5,443.833 81.5,448.5C 76.8333,448.5 72.1667,448.5 67.5,448.5C 67.5,443.833 67.5,439.167 67.5,434.5 Z"/></g>
<g><path style="opacity:1" fill="#8c783d" d="M 81.5,434.5 C 86.1667,434.5 90.8333,434.5 95.5,434.5C 95.5,439.167 95.5,443.833 95.5,448.5C 90.8333,448.5 86.1667,448.5 81.5,448.5C 81.5,443.833 81.5,439.167 81.5,434.5 Z"/></g>
<g><path style="opacity:1" fill="#d35d24" d="M 165.5,435.5 C 165.5,439.833 165.5,444.167 165.5,448.5C 170.167,448.5 174.833,448.5 179.5,448.5C 183.97,449.486 188.637,449.819 193.5,449.5C 193.5,453.833 193.5,458.167 193.5,462.5C 188.833,462.5 184.167,462.5 179.5,462.5C 179.5,467.167 179.5,471.833 179.5,476.5C 174.833,476.5 170.167,476.5 165.5,476.5C 165.5,481.167 165.5,485.833 165.5,490.5C 146.833,490.5 128.167,490.5 109.5,490.5C 109.5,485.833 109.5,481.167 109.5,476.5C 100.167,476.5 90.8333,476.5 81.5,476.5C 81.5,467.5 81.5,458.5 81.5,449.5C 76.8333,449.5 72.1667,449.5 67.5,449.5C 67.5,449.167 67.5,448.833 67.5,448.5C 72.1667,448.5 76.8333,448.5 81.5,448.5C 86.1667,448.5 90.8333,448.5 95.5,448.5C 100.167,448.5 104.833,448.5 109.5,448.5C 109.5,453.167 109.5,457.833 109.5,462.5C 118.833,462.5 128.167,462.5 137.5,462.5C 137.5,457.833 137.5,453.167 137.5,448.5C 142.167,448.5 146.833,448.5 151.5,448.5C 151.5,444.167 151.5,439.833 151.5,435.5C 156.167,435.5 160.833,435.5 165.5,435.5 Z"/></g>
<g><path style="opacity:1" fill="#ecb922" d="M 165.5,434.5 C 170.167,434.5 174.833,434.5 179.5,434.5C 179.5,439.167 179.5,443.833 179.5,448.5C 174.833,448.5 170.167,448.5 165.5,448.5C 165.5,444.167 165.5,439.833 165.5,435.5C 165.5,435.167 165.5,434.833 165.5,434.5 Z"/></g>
<g><path style="opacity:1" fill="#8c783d" d="M 179.5,434.5 C 184.167,434.5 188.833,434.5 193.5,434.5C 193.5,439.167 193.5,443.833 193.5,448.5C 188.833,448.5 184.167,448.5 179.5,448.5C 179.5,443.833 179.5,439.167 179.5,434.5 Z"/></g>
<g><path style="opacity:1" fill="#8b763e" d="M 207.5,434.5 C 212.167,434.5 216.833,434.5 221.5,434.5C 221.5,439.167 221.5,443.833 221.5,448.5C 216.833,448.5 212.167,448.5 207.5,448.5C 207.5,443.833 207.5,439.167 207.5,434.5 Z"/></g>
<g><path style="opacity:1" fill="#9e5b26" d="M 235.5,434.5 C 240.167,434.5 244.833,434.5 249.5,434.5C 245.366,435.485 241.032,435.818 236.5,435.5C 236.5,440.167 236.5,444.833 236.5,449.5C 226.652,449.827 216.986,449.494 207.5,448.5C 212.167,448.5 216.833,448.5 221.5,448.5C 226.167,448.5 230.833,448.5 235.5,448.5C 235.5,443.833 235.5,439.167 235.5,434.5 Z"/></g>
<g><path style="opacity:1" fill="#000000" d="M 264.5,449.5 C 264.5,454.167 264.5,458.833 264.5,463.5C 259.833,463.5 255.167,463.5 250.5,463.5C 250.5,458.833 250.5,454.167 250.5,449.5C 255.167,449.5 259.833,449.5 264.5,449.5 Z"/></g>
<g><path style="opacity:1" fill="#000000" d="M 250.5,463.5 C 250.5,468.167 250.5,472.833 250.5,477.5C 245.833,477.5 241.167,477.5 236.5,477.5C 236.5,472.833 236.5,468.167 236.5,463.5C 241.167,463.5 245.833,463.5 250.5,463.5 Z"/></g>
<g><path style="opacity:1" fill="#892b05" d="M 67.5,449.5 C 72.1667,449.5 76.8333,449.5 81.5,449.5C 81.5,458.5 81.5,467.5 81.5,476.5C 90.8333,476.5 100.167,476.5 109.5,476.5C 109.5,481.167 109.5,485.833 109.5,490.5C 109.5,490.833 109.5,491.167 109.5,491.5C 100.167,491.5 90.8333,491.5 81.5,491.5C 81.5,486.833 81.5,482.167 81.5,477.5C 76.8333,477.5 72.1667,477.5 67.5,477.5C 67.5,468.167 67.5,458.833 67.5,449.5 Z"/></g>
<g><path style="opacity:1" fill="#020000" d="M 207.5,477.5 C 217.167,477.5 226.833,477.5 236.5,477.5C 236.5,486.833 236.5,496.167 236.5,505.5C 231.833,505.5 227.167,505.5 222.5,505.5C 222.167,505.5 221.833,505.5 221.5,505.5C 221.5,500.5 221.5,495.5 221.5,490.5C 216.833,490.5 212.167,490.5 207.5,490.5C 207.5,486.167 207.5,481.833 207.5,477.5 Z"/></g>
<g><path style="opacity:1" fill="#070200" d="M 109.5,490.5 C 128.167,490.5 146.833,490.5 165.5,490.5C 174.833,490.5 184.167,490.5 193.5,490.5C 193.5,495.167 193.5,499.833 193.5,504.5C 188.637,504.181 183.97,504.514 179.5,505.5C 175.167,505.5 170.833,505.5 166.5,505.5C 161.595,504.555 156.595,504.221 151.5,504.5C 151.5,509.167 151.5,513.833 151.5,518.5C 146.833,518.5 142.167,518.5 137.5,518.5C 137.5,513.833 137.5,509.167 137.5,504.5C 132.637,504.181 127.97,504.514 123.5,505.5C 118.833,505.5 114.167,505.5 109.5,505.5C 109.5,500.833 109.5,496.167 109.5,491.5C 109.5,491.167 109.5,490.833 109.5,490.5 Z"/></g>
<g><path style="opacity:1" fill="#852905" d="M 137.5,518.5 C 132.833,518.5 128.167,518.5 123.5,518.5C 123.5,514.167 123.5,509.833 123.5,505.5C 127.97,504.514 132.637,504.181 137.5,504.5C 137.5,509.167 137.5,513.833 137.5,518.5 Z"/></g>
<g><path style="opacity:1" fill="#83713c" d="M 166.5,505.5 C 166.5,509.833 166.5,514.167 166.5,518.5C 166.167,518.5 165.833,518.5 165.5,518.5C 160.833,518.5 156.167,518.5 151.5,518.5C 151.5,513.833 151.5,509.167 151.5,504.5C 156.595,504.221 161.595,504.555 166.5,505.5 Z"/></g>
<g><path style="opacity:1" fill="#543000" d="M 193.5,504.5 C 193.5,509.167 193.5,513.833 193.5,518.5C 188.833,518.5 184.167,518.5 179.5,518.5C 179.5,514.167 179.5,509.833 179.5,505.5C 183.97,504.514 188.637,504.181 193.5,504.5 Z"/></g>
<g><path style="opacity:1" fill="#88733c" d="M 207.5,490.5 C 212.167,490.5 216.833,490.5 221.5,490.5C 221.5,495.5 221.5,500.5 221.5,505.5C 216.833,505.5 212.167,505.5 207.5,505.5C 207.5,509.833 207.5,514.167 207.5,518.5C 207.5,523.167 207.5,527.833 207.5,532.5C 202.833,532.5 198.167,532.5 193.5,532.5C 188.833,532.5 184.167,532.5 179.5,532.5C 179.5,527.833 179.5,523.167 179.5,518.5C 184.167,518.5 188.833,518.5 193.5,518.5C 193.5,513.833 193.5,509.167 193.5,504.5C 198.167,504.5 202.833,504.5 207.5,504.5C 207.5,499.833 207.5,495.167 207.5,490.5 Z"/></g>
<g><path style="opacity:1" fill="#882c06" d="M 221.5,505.5 C 221.833,505.5 222.167,505.5 222.5,505.5C 222.5,509.833 222.5,514.167 222.5,518.5C 222.167,518.5 221.833,518.5 221.5,518.5C 216.833,518.5 212.167,518.5 207.5,518.5C 207.5,514.167 207.5,509.833 207.5,505.5C 212.167,505.5 216.833,505.5 221.5,505.5 Z"/></g>
<g><path style="opacity:1" fill="#000000" d="M 123.5,518.5 C 123.5,518.833 123.5,519.167 123.5,519.5C 123.5,523.833 123.5,528.167 123.5,532.5C 109.5,532.5 95.5,532.5 81.5,532.5C 81.5,527.833 81.5,523.167 81.5,518.5C 95.5,518.5 109.5,518.5 123.5,518.5 Z"/></g>
<g><path style="opacity:1" fill="#573200" d="M 165.5,518.5 C 165.833,518.5 166.167,518.5 166.5,518.5C 170.833,518.5 175.167,518.5 179.5,518.5C 179.5,523.167 179.5,527.833 179.5,532.5C 174.833,532.5 170.167,532.5 165.5,532.5C 165.5,527.833 165.5,523.167 165.5,518.5 Z"/></g>
<g><path style="opacity:1" fill="#553100" d="M 221.5,518.5 C 221.833,518.5 222.167,518.5 222.5,518.5C 226.833,518.5 231.167,518.5 235.5,518.5C 235.5,523.167 235.5,527.833 235.5,532.5C 230.833,532.5 226.167,532.5 221.5,532.5C 221.5,527.833 221.5,523.167 221.5,518.5 Z"/></g>
<g><path style="opacity:1" fill="#87743d" d="M 235.5,518.5 C 240.5,518.5 245.5,518.5 250.5,518.5C 250.5,523.167 250.5,527.833 250.5,532.5C 245.5,532.5 240.5,532.5 235.5,532.5C 235.5,527.833 235.5,523.167 235.5,518.5 Z"/></g>
<g><path style="opacity:1" fill="#89733c" d="M 123.5,519.5 C 123.5,519.167 123.5,518.833 123.5,518.5C 128.167,518.5 132.833,518.5 137.5,518.5C 137.5,523.167 137.5,527.833 137.5,532.5C 133.167,532.5 128.833,532.5 124.5,532.5C 124.818,527.968 124.485,523.634 123.5,519.5 Z"/></g>
<g><path style="opacity:1" fill="#553101" d="M 137.5,518.5 C 142.167,518.5 146.833,518.5 151.5,518.5C 151.5,523.167 151.5,527.833 151.5,532.5C 146.833,532.5 142.167,532.5 137.5,532.5C 137.5,527.833 137.5,523.167 137.5,518.5 Z"/></g>
<g><path style="opacity:1" fill="#882d06" d="M 151.5,518.5 C 156.167,518.5 160.833,518.5 165.5,518.5C 165.5,523.167 165.5,527.833 165.5,532.5C 160.833,532.5 156.167,532.5 151.5,532.5C 151.5,527.833 151.5,523.167 151.5,518.5 Z"/></g>
<g><path style="opacity:1" fill="#070301" d="M 207.5,518.5 C 212.167,518.5 216.833,518.5 221.5,518.5C 221.5,523.167 221.5,527.833 221.5,532.5C 216.833,532.5 212.167,532.5 207.5,532.5C 207.5,527.833 207.5,523.167 207.5,518.5 Z"/></g>
<g><path style="opacity:1" fill="#000000" d="M 81.5,532.5 C 81.5,537.5 81.5,542.5 81.5,547.5C 86.1667,547.5 90.8333,547.5 95.5,547.5C 95.5,552.167 95.5,556.833 95.5,561.5C 100.167,561.5 104.833,561.5 109.5,561.5C 109.833,561.5 110.167,561.5 110.5,561.5C 110.5,566.167 110.5,570.833 110.5,575.5C 100.833,575.5 91.1667,575.5 81.5,575.5C 81.5,570.833 81.5,566.167 81.5,561.5C 76.8333,561.5 72.1667,561.5 67.5,561.5C 67.5,551.833 67.5,542.167 67.5,532.5C 72.1667,532.5 76.8333,532.5 81.5,532.5 Z"/></g>
<g><path style="opacity:1" fill="#4d4524" d="M 81.5,532.5 C 95.5,532.5 109.5,532.5 123.5,532.5C 123.5,532.833 123.5,533.167 123.5,533.5C 109.833,533.5 96.1667,533.5 82.5,533.5C 82.5,537.833 82.5,542.167 82.5,546.5C 87.1667,546.5 91.8333,546.5 96.5,546.5C 96.5,551.167 96.5,555.833 96.5,560.5C 100.833,560.5 105.167,560.5 109.5,560.5C 109.5,560.833 109.5,561.167 109.5,561.5C 104.833,561.5 100.167,561.5 95.5,561.5C 95.5,556.833 95.5,552.167 95.5,547.5C 90.8333,547.5 86.1667,547.5 81.5,547.5C 81.5,542.5 81.5,537.5 81.5,532.5 Z"/></g>
<g><path style="opacity:1" fill="#88763d" d="M 123.5,533.5 C 123.5,537.833 123.5,542.167 123.5,546.5C 118.833,546.5 114.167,546.5 109.5,546.5C 109.5,551.167 109.5,555.833 109.5,560.5C 105.167,560.5 100.833,560.5 96.5,560.5C 96.5,555.833 96.5,551.167 96.5,546.5C 91.8333,546.5 87.1667,546.5 82.5,546.5C 82.5,542.167 82.5,537.833 82.5,533.5C 96.1667,533.5 109.833,533.5 123.5,533.5 Z"/></g>
<g><path style="opacity:1" fill="#593504" d="M 123.5,519.5 C 124.485,523.634 124.818,527.968 124.5,532.5C 128.833,532.5 133.167,532.5 137.5,532.5C 137.5,537.167 137.5,541.833 137.5,546.5C 132.833,546.5 128.167,546.5 123.5,546.5C 123.5,542.167 123.5,537.833 123.5,533.5C 123.5,533.167 123.5,532.833 123.5,532.5C 123.5,528.167 123.5,523.833 123.5,519.5 Z"/></g>
<g><path style="opacity:1" fill="#c19c52" d="M 137.5,532.5 C 142.167,532.5 146.833,532.5 151.5,532.5C 156.167,532.5 160.833,532.5 165.5,532.5C 170.167,532.5 174.833,532.5 179.5,532.5C 184.167,532.5 188.833,532.5 193.5,532.5C 193.5,532.833 193.5,533.167 193.5,533.5C 188.833,533.5 184.167,533.5 179.5,533.5C 174.833,533.5 170.167,533.5 165.5,533.5C 156.5,533.5 147.5,533.5 138.5,533.5C 138.818,538.032 138.485,542.366 137.5,546.5C 137.5,541.833 137.5,537.167 137.5,532.5 Z"/></g>
<g><path style="opacity:1" fill="#ecd382" d="M 165.5,533.5 C 165.5,537.833 165.5,542.167 165.5,546.5C 160.833,546.5 156.167,546.5 151.5,546.5C 151.5,551.167 151.5,555.833 151.5,560.5C 146.833,560.5 142.167,560.5 137.5,560.5C 137.5,555.833 137.5,551.167 137.5,546.5C 138.485,542.366 138.818,538.032 138.5,533.5C 147.5,533.5 156.5,533.5 165.5,533.5 Z"/></g>
<g><path style="opacity:1" fill="#edbb21" d="M 165.5,533.5 C 170.167,533.5 174.833,533.5 179.5,533.5C 179.5,537.833 179.5,542.167 179.5,546.5C 174.833,546.5 170.167,546.5 165.5,546.5C 165.5,542.167 165.5,537.833 165.5,533.5 Z"/></g>
<g><path style="opacity:1" fill="#edd381" d="M 179.5,533.5 C 184.167,533.5 188.833,533.5 193.5,533.5C 193.5,537.833 193.5,542.167 193.5,546.5C 188.833,546.5 184.167,546.5 179.5,546.5C 179.5,542.167 179.5,537.833 179.5,533.5 Z"/></g>
<g><path style="opacity:1" fill="#ebba25" d="M 193.5,532.5 C 198.167,532.5 202.833,532.5 207.5,532.5C 207.5,537.167 207.5,541.833 207.5,546.5C 207.5,546.833 207.5,547.167 207.5,547.5C 202.833,547.5 198.167,547.5 193.5,547.5C 193.5,547.167 193.5,546.833 193.5,546.5C 193.5,542.167 193.5,537.833 193.5,533.5C 193.5,533.167 193.5,532.833 193.5,532.5 Z"/></g>
<g><path style="opacity:1" fill="#86733b" d="M 207.5,532.5 C 212.167,532.5 216.833,532.5 221.5,532.5C 221.5,537.167 221.5,541.833 221.5,546.5C 216.833,546.5 212.167,546.5 207.5,546.5C 207.5,541.833 207.5,537.167 207.5,532.5 Z"/></g>
<g><path style="opacity:1" fill="#882d06" d="M 221.5,532.5 C 226.167,532.5 230.833,532.5 235.5,532.5C 235.5,537.167 235.5,541.833 235.5,546.5C 230.833,546.5 226.167,546.5 221.5,546.5C 221.5,541.833 221.5,537.167 221.5,532.5 Z"/></g>
<g><path style="opacity:1" fill="#882e07" d="M 123.5,546.5 C 123.5,551.5 123.5,556.5 123.5,561.5C 119.167,561.5 114.833,561.5 110.5,561.5C 110.167,561.5 109.833,561.5 109.5,561.5C 109.5,561.167 109.5,560.833 109.5,560.5C 109.5,555.833 109.5,551.167 109.5,546.5C 114.167,546.5 118.833,546.5 123.5,546.5 Z"/></g>
<g><path style="opacity:1" fill="#85713b" d="M 123.5,546.5 C 128.167,546.5 132.833,546.5 137.5,546.5C 137.5,551.167 137.5,555.833 137.5,560.5C 142.167,560.5 146.833,560.5 151.5,560.5C 147.03,561.486 142.363,561.819 137.5,561.5C 132.833,561.5 128.167,561.5 123.5,561.5C 123.5,556.5 123.5,551.5 123.5,546.5 Z"/></g>
<g><path style="opacity:1" fill="#5c3704" d="M 165.5,546.5 C 165.5,551.167 165.5,555.833 165.5,560.5C 160.833,560.5 156.167,560.5 151.5,560.5C 151.5,555.833 151.5,551.167 151.5,546.5C 156.167,546.5 160.833,546.5 165.5,546.5 Z"/></g>
<g><path style="opacity:1" fill="#e9d07f" d="M 165.5,546.5 C 170.167,546.5 174.833,546.5 179.5,546.5C 179.5,555.833 179.5,565.167 179.5,574.5C 174.833,574.5 170.167,574.5 165.5,574.5C 165.5,569.833 165.5,565.167 165.5,560.5C 165.5,555.833 165.5,551.167 165.5,546.5 Z"/></g>
<g><path style="opacity:1" fill="#5a380a" d="M 179.5,546.5 C 184.167,546.5 188.833,546.5 193.5,546.5C 193.5,546.833 193.5,547.167 193.5,547.5C 193.5,551.833 193.5,556.167 193.5,560.5C 189.167,560.5 184.833,560.5 180.5,560.5C 180.5,565.5 180.5,570.5 180.5,575.5C 175.5,575.5 170.5,575.5 165.5,575.5C 165.5,575.167 165.5,574.833 165.5,574.5C 170.167,574.5 174.833,574.5 179.5,574.5C 179.5,565.167 179.5,555.833 179.5,546.5 Z"/></g>
<g><path style="opacity:1" fill="#e9d080" d="M 193.5,547.5 C 198.167,547.5 202.833,547.5 207.5,547.5C 207.5,556.5 207.5,565.5 207.5,574.5C 202.833,574.5 198.167,574.5 193.5,574.5C 193.5,569.833 193.5,565.167 193.5,560.5C 193.5,556.167 193.5,551.833 193.5,547.5 Z"/></g>
<g><path style="opacity:1" fill="#3d3521" d="M 207.5,546.5 C 212.167,546.5 216.833,546.5 221.5,546.5C 217.366,547.485 213.032,547.818 208.5,547.5C 208.5,556.833 208.5,566.167 208.5,575.5C 203.5,575.5 198.5,575.5 193.5,575.5C 193.5,575.167 193.5,574.833 193.5,574.5C 198.167,574.5 202.833,574.5 207.5,574.5C 207.5,565.5 207.5,556.5 207.5,547.5C 207.5,547.167 207.5,546.833 207.5,546.5 Z"/></g>
<g><path style="opacity:1" fill="#020000" d="M 235.5,532.5 C 240.5,532.5 245.5,532.5 250.5,532.5C 250.5,537.5 250.5,542.5 250.5,547.5C 245.833,547.5 241.167,547.5 236.5,547.5C 236.5,552.167 236.5,556.833 236.5,561.5C 231.833,561.5 227.167,561.5 222.5,561.5C 222.5,566.167 222.5,570.833 222.5,575.5C 217.833,575.5 213.167,575.5 208.5,575.5C 208.5,566.167 208.5,556.833 208.5,547.5C 213.032,547.818 217.366,547.485 221.5,546.5C 226.167,546.5 230.833,546.5 235.5,546.5C 235.5,541.833 235.5,537.167 235.5,532.5 Z"/></g>
<g><path style="opacity:1" fill="#010000" d="M 151.5,560.5 C 156.167,560.5 160.833,560.5 165.5,560.5C 165.5,565.167 165.5,569.833 165.5,574.5C 165.5,574.833 165.5,575.167 165.5,575.5C 156.167,575.5 146.833,575.5 137.5,575.5C 137.5,570.833 137.5,566.167 137.5,561.5C 142.363,561.819 147.03,561.486 151.5,560.5 Z"/></g>
<g><path style="opacity:1" fill="#020100" d="M 193.5,560.5 C 193.5,565.167 193.5,569.833 193.5,574.5C 193.5,574.833 193.5,575.167 193.5,575.5C 189.167,575.5 184.833,575.5 180.5,575.5C 180.5,570.5 180.5,565.5 180.5,560.5C 184.833,560.5 189.167,560.5 193.5,560.5 Z"/></g>
<g><path style="opacity:1" fill="#000000" d="M 165.5,575.5 C 170.5,575.5 175.5,575.5 180.5,575.5C 180.5,578.833 180.5,582.167 180.5,585.5C 175.5,585.5 170.5,585.5 165.5,585.5C 165.5,582.167 165.5,578.833 165.5,575.5 Z"/></g>
<g><path style="opacity:1" fill="#000000" d="M 193.5,575.5 C 198.5,575.5 203.5,575.5 208.5,575.5C 208.5,578.833 208.5,582.167 208.5,585.5C 203.5,585.5 198.5,585.5 193.5,585.5C 193.5,582.167 193.5,578.833 193.5,575.5 Z"/></g>
</svg>
