<?xml version="1.0" encoding="UTF-8"?>
<!DOCTYPE svg PUBLIC "-//W3C//DTD SVG 1.1//EN" "http://www.w3.org/Graphics/SVG/1.1/DTD/svg11.dtd">
<svg xmlns="http://www.w3.org/2000/svg" version="1.1" width="476px" height="592px" style="shape-rendering:geometricPrecision; text-rendering:geometricPrecision; image-rendering:optimizeQuality; fill-rule:evenodd; clip-rule:evenodd" xmlns:xlink="http://www.w3.org/1999/xlink">
<g><path style="opacity:1" fill="#125d8e" d="M 209.5,16.5 C 204.5,16.5 199.5,16.5 194.5,16.5C 189.833,16.5 185.167,16.5 180.5,16.5C 179.513,21.3054 179.179,26.3054 179.5,31.5C 174.833,31.5 170.167,31.5 165.5,31.5C 165.5,26.5 165.5,21.5 165.5,16.5C 160.167,16.5 154.833,16.5 149.5,16.5C 149.5,11.5 149.5,6.5 149.5,1.5C 169.5,1.5 189.5,1.5 209.5,1.5C 209.5,6.5 209.5,11.5 209.5,16.5 Z"/></g>
<g><path style="opacity:1" fill="#3d95c0" d="M 135.5,16.5 C 140.167,16.5 144.833,16.5 149.5,16.5C 154.833,16.5 160.167,16.5 165.5,16.5C 165.5,21.5 165.5,26.5 165.5,31.5C 170.167,31.5 174.833,31.5 179.5,31.5C 179.179,26.3054 179.513,21.3054 180.5,16.5C 180.5,21.5 180.5,26.5 180.5,31.5C 180.5,46.1667 180.5,60.8333 180.5,75.5C 185.167,75.5 189.833,75.5 194.5,75.5C 194.5,60.8333 194.5,46.1667 194.5,31.5C 194.5,26.5 194.5,21.5 194.5,16.5C 199.5,16.5 204.5,16.5 209.5,16.5C 209.5,21.5 209.5,26.5 209.5,31.5C 214.167,31.5 218.833,31.5 223.5,31.5C 223.5,41.5 223.5,51.5 223.5,61.5C 228.5,61.5 233.5,61.5 238.5,61.5C 238.5,66.1667 238.5,70.8333 238.5,75.5C 238.168,110.004 238.502,144.337 239.5,178.5C 244.167,178.5 248.833,178.5 253.5,178.5C 253.5,188.167 253.5,197.833 253.5,207.5C 258.5,207.5 263.5,207.5 268.5,207.5C 273.167,207.5 277.833,207.5 282.5,207.5C 287.5,207.5 292.5,207.5 297.5,207.5C 297.5,212.5 297.5,217.5 297.5,222.5C 302.5,222.5 307.5,222.5 312.5,222.5C 317.167,222.5 321.833,222.5 326.5,222.5C 326.5,227.5 326.5,232.5 326.5,237.5C 331.5,237.5 336.5,237.5 341.5,237.5C 341.5,242.5 341.5,247.5 341.5,252.5C 346.5,252.5 351.5,252.5 356.5,252.5C 356.5,257.167 356.5,261.833 356.5,266.5C 356.5,271.5 356.5,276.5 356.5,281.5C 351.5,281.5 346.5,281.5 341.5,281.5C 336.833,281.5 332.167,281.5 327.5,281.5C 326.514,285.97 326.181,290.637 326.5,295.5C 321.637,295.181 316.97,295.514 312.5,296.5C 312.5,301.167 312.5,305.833 312.5,310.5C 312.5,315.5 312.5,320.5 312.5,325.5C 307.5,325.5 302.5,325.5 297.5,325.5C 297.5,335.167 297.5,344.833 297.5,354.5C 292.5,354.5 287.5,354.5 282.5,354.5C 282.5,364.5 282.5,374.5 282.5,384.5C 277.833,384.5 273.167,384.5 268.5,384.5C 268.5,389.167 268.5,393.833 268.5,398.5C 273.167,398.5 277.833,398.5 282.5,398.5C 282.5,398.833 282.5,399.167 282.5,399.5C 282.5,404.167 282.5,408.833 282.5,413.5C 277.5,413.5 272.5,413.5 267.5,413.5C 267.5,408.833 267.5,404.167 267.5,399.5C 258.167,399.5 248.833,399.5 239.5,399.5C 239.5,404.167 239.5,408.833 239.5,413.5C 238.513,418.305 238.179,423.305 238.5,428.5C 233.833,428.5 229.167,428.5 224.5,428.5C 224.5,423.5 224.5,418.5 224.5,413.5C 199.833,413.5 175.167,413.5 150.5,413.5C 145.5,413.5 140.5,413.5 135.5,413.5C 130.833,413.5 126.167,413.5 121.5,413.5C 121.5,403.833 121.5,394.167 121.5,384.5C 126.167,384.5 130.833,384.5 135.5,384.5C 140.5,384.5 145.5,384.5 150.5,384.5C 150.5,379.5 150.5,374.5 150.5,369.5C 155.5,369.5 160.5,369.5 165.5,369.5C 165.5,359.833 165.5,350.167 165.5,340.5C 160.5,340.5 155.5,340.5 150.5,340.5C 150.5,335.5 150.5,330.5 150.5,325.5C 155.5,325.5 160.5,325.5 165.5,325.5C 165.5,330.167 165.5,334.833 165.5,339.5C 170.167,339.5 174.833,339.5 179.5,339.5C 179.5,334.833 179.5,330.167 179.5,325.5C 184.5,325.5 189.5,325.5 194.5,325.5C 194.5,315.833 194.5,306.167 194.5,296.5C 199.5,296.5 204.5,296.5 209.5,296.5C 209.5,286.5 209.5,276.5 209.5,266.5C 189.833,266.5 170.167,266.5 150.5,266.5C 150.5,261.5 150.5,256.5 150.5,251.5C 155.167,251.5 159.833,251.5 164.5,251.5C 164.5,246.833 164.5,242.167 164.5,237.5C 159.833,237.5 155.167,237.5 150.5,237.5C 150.167,237.5 149.833,237.5 149.5,237.5C 150.445,232.595 150.779,227.595 150.5,222.5C 150.5,217.5 150.5,212.5 150.5,207.5C 150.5,202.833 150.5,198.167 150.5,193.5C 145.833,193.5 141.167,193.5 136.5,193.5C 136.5,198.167 136.5,202.833 136.5,207.5C 135.514,203.03 135.181,198.363 135.5,193.5C 135.5,188.5 135.5,183.5 135.5,178.5C 135.5,168.833 135.5,159.167 135.5,149.5C 130.833,149.5 126.167,149.5 121.5,149.5C 121.5,159.167 121.5,168.833 121.5,178.5C 121.167,178.5 120.833,178.5 120.5,178.5C 120.5,173.5 120.5,168.5 120.5,163.5C 120.5,153.833 120.5,144.167 120.5,134.5C 115.833,134.5 111.167,134.5 106.5,134.5C 106.5,134.167 106.5,133.833 106.5,133.5C 111.167,133.5 115.833,133.5 120.5,133.5C 120.5,109.5 120.5,85.5 120.5,61.5C 115.833,61.5 111.167,61.5 106.5,61.5C 106.5,80.8333 106.5,100.167 106.5,119.5C 106.167,119.5 105.833,119.5 105.5,119.5C 105.5,99.8333 105.5,80.1667 105.5,60.5C 110.5,60.5 115.5,60.5 120.5,60.5C 120.173,50.6522 120.506,40.9856 121.5,31.5C 121.5,41.1667 121.5,50.8333 121.5,60.5C 126.167,60.5 130.833,60.5 135.5,60.5C 135.5,70.5 135.5,80.5 135.5,90.5C 140.5,90.5 145.5,90.5 150.5,90.5C 150.5,70.8333 150.5,51.1667 150.5,31.5C 145.5,31.5 140.5,31.5 135.5,31.5C 135.5,26.5 135.5,21.5 135.5,16.5 Z"/></g>
<g><path style="opacity:1" fill="#63adcd" d="M 180.5,16.5 C 185.167,16.5 189.833,16.5 194.5,16.5C 194.5,21.5 194.5,26.5 194.5,31.5C 189.833,31.5 185.167,31.5 180.5,31.5C 180.5,26.5 180.5,21.5 180.5,16.5 Z"/></g>
<g><path style="opacity:1" fill="#64afce" d="M 150.5,31.5 C 150.5,26.8333 150.5,22.1667 150.5,17.5C 155.167,17.5 159.833,17.5 164.5,17.5C 164.5,22.1667 164.5,26.8333 164.5,31.5C 159.833,31.5 155.167,31.5 150.5,31.5 Z"/></g>
<g><path style="opacity:1" fill="#125d8e" d="M 135.5,16.5 C 135.5,21.5 135.5,26.5 135.5,31.5C 130.833,31.5 126.167,31.5 121.5,31.5C 120.506,40.9856 120.173,50.6522 120.5,60.5C 115.5,60.5 110.5,60.5 105.5,60.5C 105.5,50.5 105.5,40.5 105.5,30.5C 110.5,30.5 115.5,30.5 120.5,30.5C 120.5,25.8333 120.5,21.1667 120.5,16.5C 125.5,16.5 130.5,16.5 135.5,16.5 Z"/></g>
<g><path style="opacity:1" fill="#64afce" d="M 121.5,31.5 C 126.167,31.5 130.833,31.5 135.5,31.5C 135.5,41.1667 135.5,50.8333 135.5,60.5C 130.833,60.5 126.167,60.5 121.5,60.5C 121.5,50.8333 121.5,41.1667 121.5,31.5 Z"/></g>
<g><path style="opacity:1" fill="#135e90" d="M 135.5,31.5 C 140.5,31.5 145.5,31.5 150.5,31.5C 150.5,51.1667 150.5,70.8333 150.5,90.5C 145.5,90.5 140.5,90.5 135.5,90.5C 135.5,80.5 135.5,70.5 135.5,60.5C 135.5,50.8333 135.5,41.1667 135.5,31.5 Z"/></g>
<g><path style="opacity:1" fill="#125d8f" d="M 180.5,31.5 C 185.167,31.5 189.833,31.5 194.5,31.5C 194.5,46.1667 194.5,60.8333 194.5,75.5C 189.833,75.5 185.167,75.5 180.5,75.5C 180.5,60.8333 180.5,46.1667 180.5,31.5 Z"/></g>
<g><path style="opacity:1" fill="#0c3245" d="M 209.5,16.5 C 214.5,16.5 219.5,16.5 224.5,16.5C 224.5,21.1667 224.5,25.8333 224.5,30.5C 229.43,30.1975 234.263,30.5308 239,31.5C 239.499,36.4889 239.666,41.4889 239.5,46.5C 234.5,46.5 229.5,46.5 224.5,46.5C 224.821,41.3054 224.487,36.3054 223.5,31.5C 218.833,31.5 214.167,31.5 209.5,31.5C 209.5,26.5 209.5,21.5 209.5,16.5 Z"/></g>
<g><path style="opacity:1" fill="#125d8f" d="M 105.5,60.5 C 105.5,80.1667 105.5,99.8333 105.5,119.5C 100.833,119.5 96.1667,119.5 91.5,119.5C 91.5,99.8333 91.5,80.1667 91.5,60.5C 96.1667,60.5 100.833,60.5 105.5,60.5 Z"/></g>
<g><path style="opacity:1" fill="#135e8f" d="M 223.5,31.5 C 224.487,36.3054 224.821,41.3054 224.5,46.5C 229.5,46.5 234.5,46.5 239.5,46.5C 239.5,51.1667 239.5,55.8333 239.5,60.5C 244.167,60.5 248.833,60.5 253.5,60.5C 253.5,65.5 253.5,70.5 253.5,75.5C 248.5,75.5 243.5,75.5 238.5,75.5C 238.5,70.8333 238.5,66.1667 238.5,61.5C 233.5,61.5 228.5,61.5 223.5,61.5C 223.5,51.5 223.5,41.5 223.5,31.5 Z"/></g>
<g><path style="opacity:1" fill="#64afce" d="M 106.5,133.5 C 106.5,128.833 106.5,124.167 106.5,119.5C 106.5,100.167 106.5,80.8333 106.5,61.5C 111.167,61.5 115.833,61.5 120.5,61.5C 120.5,85.5 120.5,109.5 120.5,133.5C 115.833,133.5 111.167,133.5 106.5,133.5 Z"/></g>
<g><path style="opacity:1" fill="#125d8f" d="M 194.5,75.5 C 199.5,75.5 204.5,75.5 209.5,75.5C 209.5,95.1667 209.5,114.833 209.5,134.5C 214.167,134.5 218.833,134.5 223.5,134.5C 223.5,158.833 223.5,183.167 223.5,207.5C 218.833,207.5 214.167,207.5 209.5,207.5C 209.5,187.833 209.5,168.167 209.5,148.5C 204.5,148.5 199.5,148.5 194.5,148.5C 194.5,124.167 194.5,99.8333 194.5,75.5 Z"/></g>
<g><path style="opacity:1" fill="#0c3142" d="M 238.5,75.5 C 243.5,75.5 248.5,75.5 253.5,75.5C 253.5,85.1667 253.5,94.8333 253.5,104.5C 248.833,104.5 244.167,104.5 239.5,104.5C 239.5,129.167 239.5,153.833 239.5,178.5C 238.502,144.337 238.168,110.004 238.5,75.5 Z"/></g>
<g><path style="opacity:1" fill="#125d8f" d="M 150.5,90.5 C 155.167,90.5 159.833,90.5 164.5,90.5C 164.5,105.167 164.5,119.833 164.5,134.5C 159.833,134.5 155.167,134.5 150.5,134.5C 150.5,119.833 150.5,105.167 150.5,90.5 Z"/></g>
<g><path style="opacity:1" fill="#000000" d="M 253.5,104.5 C 253.5,129.167 253.5,153.833 253.5,178.5C 248.833,178.5 244.167,178.5 239.5,178.5C 239.5,153.833 239.5,129.167 239.5,104.5C 244.167,104.5 248.833,104.5 253.5,104.5 Z"/></g>
<g><path style="opacity:1" fill="#0d3346" d="M 91.5,119.5 C 96.1667,119.5 100.833,119.5 105.5,119.5C 105.833,119.5 106.167,119.5 106.5,119.5C 106.5,124.167 106.5,128.833 106.5,133.5C 106.5,133.833 106.5,134.167 106.5,134.5C 106.167,134.5 105.833,134.5 105.5,134.5C 100.833,134.5 96.1667,134.5 91.5,134.5C 91.5,129.5 91.5,124.5 91.5,119.5 Z"/></g>
<g><path style="opacity:1" fill="#125d8e" d="M 105.5,134.5 C 105.833,134.5 106.167,134.5 106.5,134.5C 111.167,134.5 115.833,134.5 120.5,134.5C 120.5,144.167 120.5,153.833 120.5,163.5C 115.5,163.5 110.5,163.5 105.5,163.5C 105.5,153.833 105.5,144.167 105.5,134.5 Z"/></g>
<g><path style="opacity:1" fill="#125d8f" d="M 165.5,134.5 C 170.167,134.5 174.833,134.5 179.5,134.5C 179.5,149.167 179.5,163.833 179.5,178.5C 174.833,178.5 170.167,178.5 165.5,178.5C 165.5,163.833 165.5,149.167 165.5,134.5 Z"/></g>
<g><path style="opacity:1" fill="#64afce" d="M 135.5,178.5 C 130.833,178.5 126.167,178.5 121.5,178.5C 121.5,168.833 121.5,159.167 121.5,149.5C 126.167,149.5 130.833,149.5 135.5,149.5C 135.5,159.167 135.5,168.833 135.5,178.5 Z"/></g>
<g><path style="opacity:1" fill="#0c3144" d="M 105.5,163.5 C 110.5,163.5 115.5,163.5 120.5,163.5C 120.5,168.5 120.5,173.5 120.5,178.5C 115.5,178.5 110.5,178.5 105.5,178.5C 105.5,173.5 105.5,168.5 105.5,163.5 Z"/></g>
<g><path style="opacity:1" fill="#125b8c" d="M 120.5,178.5 C 120.833,178.5 121.167,178.5 121.5,178.5C 126.167,178.5 130.833,178.5 135.5,178.5C 135.5,183.5 135.5,188.5 135.5,193.5C 130.5,193.5 125.5,193.5 120.5,193.5C 120.5,188.5 120.5,183.5 120.5,178.5 Z"/></g>
<g><path style="opacity:1" fill="#125d8f" d="M 180.5,178.5 C 185.167,178.5 189.833,178.5 194.5,178.5C 194.5,193.167 194.5,207.833 194.5,222.5C 189.833,222.5 185.167,222.5 180.5,222.5C 180.5,207.833 180.5,193.167 180.5,178.5 Z"/></g>
<g><path style="opacity:1" fill="#000001" d="M 253.5,178.5 C 258.5,178.5 263.5,178.5 268.5,178.5C 268.5,183.167 268.5,187.833 268.5,192.5C 268.5,197.5 268.5,202.5 268.5,207.5C 263.5,207.5 258.5,207.5 253.5,207.5C 253.5,197.833 253.5,188.167 253.5,178.5 Z"/></g>
<g><path style="opacity:1" fill="#8eaec7" d="M 444.5,207.5 C 444.5,212.5 444.5,217.5 444.5,222.5C 439.833,222.5 435.167,222.5 430.5,222.5C 429.513,227.305 429.179,232.305 429.5,237.5C 424.833,237.5 420.167,237.5 415.5,237.5C 415.5,242.167 415.5,246.833 415.5,251.5C 415.5,251.833 415.5,252.167 415.5,252.5C 415.5,257.167 415.5,261.833 415.5,266.5C 410.5,266.5 405.5,266.5 400.5,266.5C 400.5,276.167 400.5,285.833 400.5,295.5C 395.833,295.5 391.167,295.5 386.5,295.5C 386.819,290.637 386.486,285.97 385.5,281.5C 380.833,281.5 376.167,281.5 371.5,281.5C 371.5,276.5 371.5,271.5 371.5,266.5C 371.5,261.5 371.5,256.5 371.5,251.5C 366.5,251.5 361.5,251.5 356.5,251.5C 356.5,246.833 356.5,242.167 356.5,237.5C 356.5,237.167 356.5,236.833 356.5,236.5C 356.5,231.833 356.5,227.167 356.5,222.5C 361.5,222.5 366.5,222.5 371.5,222.5C 371.5,212.833 371.5,203.167 371.5,193.5C 376.5,193.5 381.5,193.5 386.5,193.5C 386.5,188.5 386.5,183.5 386.5,178.5C 400.833,178.5 415.167,178.5 429.5,178.5C 429.5,183.5 429.5,188.5 429.5,193.5C 434.5,193.5 439.5,193.5 444.5,193.5C 444.5,198.167 444.5,202.833 444.5,207.5 Z"/></g>
<g><path style="opacity:1" fill="#63afcd" d="M 150.5,207.5 C 145.833,207.5 141.167,207.5 136.5,207.5C 136.5,202.833 136.5,198.167 136.5,193.5C 141.167,193.5 145.833,193.5 150.5,193.5C 150.5,198.167 150.5,202.833 150.5,207.5 Z"/></g>
<g><path style="opacity:1" fill="#0c3144" d="M 268.5,192.5 C 273.167,192.5 277.833,192.5 282.5,192.5C 282.5,197.5 282.5,202.5 282.5,207.5C 277.833,207.5 273.167,207.5 268.5,207.5C 268.5,202.5 268.5,197.5 268.5,192.5 Z"/></g>
<g><path style="opacity:1" fill="#125c8d" d="M 282.5,192.5 C 287.833,192.5 293.167,192.5 298.5,192.5C 298.5,197.5 298.5,202.5 298.5,207.5C 298.167,207.5 297.833,207.5 297.5,207.5C 292.5,207.5 287.5,207.5 282.5,207.5C 282.5,202.5 282.5,197.5 282.5,192.5 Z"/></g>
<g><path style="opacity:1" fill="#6489a2" d="M 459.5,207.5 C 454.5,207.5 449.5,207.5 444.5,207.5C 444.5,202.833 444.5,198.167 444.5,193.5C 439.5,193.5 434.5,193.5 429.5,193.5C 429.5,188.5 429.5,183.5 429.5,178.5C 415.167,178.5 400.833,178.5 386.5,178.5C 386.5,183.5 386.5,188.5 386.5,193.5C 381.5,193.5 376.5,193.5 371.5,193.5C 371.5,203.167 371.5,212.833 371.5,222.5C 366.5,222.5 361.5,222.5 356.5,222.5C 356.5,212.5 356.5,202.5 356.5,192.5C 361.167,192.5 365.833,192.5 370.5,192.5C 370.5,187.833 370.5,183.167 370.5,178.5C 375.5,178.5 380.5,178.5 385.5,178.5C 385.5,173.5 385.5,168.5 385.5,163.5C 400.5,163.5 415.5,163.5 430.5,163.5C 430.5,168.5 430.5,173.5 430.5,178.5C 435.5,178.5 440.5,178.5 445.5,178.5C 445.5,183.167 445.5,187.833 445.5,192.5C 450.167,192.5 454.833,192.5 459.5,192.5C 459.5,197.5 459.5,202.5 459.5,207.5 Z"/></g>
<g><path style="opacity:1" fill="#0c3245" d="M 297.5,207.5 C 297.833,207.5 298.167,207.5 298.5,207.5C 303.167,207.5 307.833,207.5 312.5,207.5C 312.5,212.5 312.5,217.5 312.5,222.5C 307.5,222.5 302.5,222.5 297.5,222.5C 297.5,217.5 297.5,212.5 297.5,207.5 Z"/></g>
<g><path style="opacity:1" fill="#125d8e" d="M 312.5,207.5 C 317.5,207.5 322.5,207.5 327.5,207.5C 327.5,212.5 327.5,217.5 327.5,222.5C 327.167,222.5 326.833,222.5 326.5,222.5C 321.833,222.5 317.167,222.5 312.5,222.5C 312.5,217.5 312.5,212.5 312.5,207.5 Z"/></g>
<g><path style="opacity:1" fill="#0d3446" d="M 120.5,193.5 C 125.5,193.5 130.5,193.5 135.5,193.5C 135.181,198.363 135.514,203.03 136.5,207.5C 141.167,207.5 145.833,207.5 150.5,207.5C 150.5,212.5 150.5,217.5 150.5,222.5C 145.5,222.5 140.5,222.5 135.5,222.5C 135.5,217.833 135.5,213.167 135.5,208.5C 130.5,208.5 125.5,208.5 120.5,208.5C 120.5,203.5 120.5,198.5 120.5,193.5 Z"/></g>
<g><path style="opacity:1" fill="#000000" d="M 459.5,208.5 C 459.5,217.833 459.5,227.167 459.5,236.5C 454.833,236.5 450.167,236.5 445.5,236.5C 445.5,227.167 445.5,217.833 445.5,208.5C 450.167,208.5 454.833,208.5 459.5,208.5 Z"/></g>
<g><path style="opacity:1" fill="#0c3144" d="M 135.5,222.5 C 135.5,227.167 135.5,231.833 135.5,236.5C 130.5,236.5 125.5,236.5 120.5,236.5C 120.5,231.833 120.5,227.167 120.5,222.5C 125.5,222.5 130.5,222.5 135.5,222.5 Z"/></g>
<g><path style="opacity:1" fill="#145d8e" d="M 135.5,222.5 C 140.5,222.5 145.5,222.5 150.5,222.5C 150.779,227.595 150.445,232.595 149.5,237.5C 144.833,237.5 140.167,237.5 135.5,237.5C 135.5,237.167 135.5,236.833 135.5,236.5C 135.5,231.833 135.5,227.167 135.5,222.5 Z"/></g>
<g><path style="opacity:1" fill="#6389a1" d="M 342.5,222.5 C 347.167,222.5 351.833,222.5 356.5,222.5C 356.5,227.167 356.5,231.833 356.5,236.5C 351.833,236.5 347.167,236.5 342.5,236.5C 342.5,231.833 342.5,227.167 342.5,222.5 Z"/></g>
<g><path style="opacity:1" fill="#033453" d="M 430.5,222.5 C 435.167,222.5 439.833,222.5 444.5,222.5C 444.5,227.5 444.5,232.5 444.5,237.5C 439.833,237.5 435.167,237.5 430.5,237.5C 430.5,232.5 430.5,227.5 430.5,222.5 Z"/></g>
<g><path style="opacity:1" fill="#2a5a6f" d="M 120.5,236.5 C 125.5,236.5 130.5,236.5 135.5,236.5C 135.5,236.833 135.5,237.167 135.5,237.5C 130.833,237.5 126.167,237.5 121.5,237.5C 121.819,242.363 121.486,247.03 120.5,251.5C 120.5,246.5 120.5,241.5 120.5,236.5 Z"/></g>
<g><path style="opacity:1" fill="#1b252d" d="M 444.5,207.5 C 449.5,207.5 454.5,207.5 459.5,207.5C 459.5,207.833 459.5,208.167 459.5,208.5C 454.833,208.5 450.167,208.5 445.5,208.5C 445.5,217.833 445.5,227.167 445.5,236.5C 450.167,236.5 454.833,236.5 459.5,236.5C 459.5,236.833 459.5,237.167 459.5,237.5C 454.5,237.5 449.5,237.5 444.5,237.5C 444.5,232.5 444.5,227.5 444.5,222.5C 444.5,217.5 444.5,212.5 444.5,207.5 Z"/></g>
<g><path style="opacity:1" fill="#0c3143" d="M 120.5,236.5 C 120.5,241.5 120.5,246.5 120.5,251.5C 115.5,251.5 110.5,251.5 105.5,251.5C 105.5,246.5 105.5,241.5 105.5,236.5C 110.5,236.5 115.5,236.5 120.5,236.5 Z"/></g>
<g><path style="opacity:1" fill="#63aecd" d="M 135.5,237.5 C 140.167,237.5 144.833,237.5 149.5,237.5C 149.833,237.5 150.167,237.5 150.5,237.5C 150.5,242.167 150.5,246.833 150.5,251.5C 150.5,256.5 150.5,261.5 150.5,266.5C 170.167,266.5 189.833,266.5 209.5,266.5C 209.5,276.5 209.5,286.5 209.5,296.5C 204.5,296.5 199.5,296.5 194.5,296.5C 194.5,306.167 194.5,315.833 194.5,325.5C 189.5,325.5 184.5,325.5 179.5,325.5C 179.5,330.167 179.5,334.833 179.5,339.5C 174.833,339.5 170.167,339.5 165.5,339.5C 165.5,334.833 165.5,330.167 165.5,325.5C 160.5,325.5 155.5,325.5 150.5,325.5C 145.5,325.5 140.5,325.5 135.5,325.5C 130.5,325.5 125.5,325.5 120.5,325.5C 120.5,335.167 120.5,344.833 120.5,354.5C 115.833,354.5 111.167,354.5 106.5,354.5C 106.819,349.637 106.486,344.97 105.5,340.5C 100.833,340.5 96.1667,340.5 91.5,340.5C 91.5,340.167 91.5,339.833 91.5,339.5C 96.5,339.5 101.5,339.5 106.5,339.5C 106.5,334.833 106.5,330.167 106.5,325.5C 101.5,325.5 96.5,325.5 91.5,325.5C 91.5,320.5 91.5,315.5 91.5,310.5C 91.5,305.833 91.5,301.167 91.5,296.5C 91.5,291.5 91.5,286.5 91.5,281.5C 96.5,281.5 101.5,281.5 106.5,281.5C 106.5,271.833 106.5,262.167 106.5,252.5C 111.363,252.819 116.03,252.486 120.5,251.5C 121.486,247.03 121.819,242.363 121.5,237.5C 126.167,237.5 130.833,237.5 135.5,237.5 Z"/></g>
<g><path style="opacity:1" fill="#125d8f" d="M 150.5,237.5 C 155.167,237.5 159.833,237.5 164.5,237.5C 164.5,242.167 164.5,246.833 164.5,251.5C 159.833,251.5 155.167,251.5 150.5,251.5C 150.5,246.833 150.5,242.167 150.5,237.5 Z"/></g>
<g><path style="opacity:1" fill="#125d8f" d="M 356.5,237.5 C 356.5,242.167 356.5,246.833 356.5,251.5C 351.833,251.5 347.167,251.5 342.5,251.5C 342.5,246.833 342.5,242.167 342.5,237.5C 347.167,237.5 351.833,237.5 356.5,237.5 Z"/></g>
<g><path style="opacity:1" fill="#6495ae" d="M 430.5,222.5 C 430.5,227.5 430.5,232.5 430.5,237.5C 430.5,242.167 430.5,246.833 430.5,251.5C 425.5,251.5 420.5,251.5 415.5,251.5C 415.5,246.833 415.5,242.167 415.5,237.5C 420.167,237.5 424.833,237.5 429.5,237.5C 429.179,232.305 429.513,227.305 430.5,222.5 Z"/></g>
<g><path style="opacity:1" fill="#8eaec7" d="M 430.5,237.5 C 435.167,237.5 439.833,237.5 444.5,237.5C 444.5,242.5 444.5,247.5 444.5,252.5C 449.5,252.5 454.5,252.5 459.5,252.5C 459.5,257.167 459.5,261.833 459.5,266.5C 454.5,266.5 449.5,266.5 444.5,266.5C 444.5,276.5 444.5,286.5 444.5,296.5C 439.833,296.5 435.167,296.5 430.5,296.5C 430.5,301.167 430.5,305.833 430.5,310.5C 425.5,310.5 420.5,310.5 415.5,310.5C 415.5,305.833 415.5,301.167 415.5,296.5C 415.5,296.167 415.5,295.833 415.5,295.5C 415.5,285.833 415.5,276.167 415.5,266.5C 420.167,266.5 424.833,266.5 429.5,266.5C 430.487,261.695 430.821,256.695 430.5,251.5C 430.5,246.833 430.5,242.167 430.5,237.5 Z"/></g>
<g><path style="opacity:1" fill="#3f799a" d="M 326.5,222.5 C 326.833,222.5 327.167,222.5 327.5,222.5C 327.5,227.167 327.5,231.833 327.5,236.5C 332.167,236.5 336.833,236.5 341.5,236.5C 341.5,231.833 341.5,227.167 341.5,222.5C 341.833,222.5 342.167,222.5 342.5,222.5C 342.5,227.167 342.5,231.833 342.5,236.5C 347.167,236.5 351.833,236.5 356.5,236.5C 356.5,236.833 356.5,237.167 356.5,237.5C 351.833,237.5 347.167,237.5 342.5,237.5C 342.5,242.167 342.5,246.833 342.5,251.5C 347.167,251.5 351.833,251.5 356.5,251.5C 361.5,251.5 366.5,251.5 371.5,251.5C 371.5,256.5 371.5,261.5 371.5,266.5C 371.167,266.5 370.833,266.5 370.5,266.5C 370.5,261.833 370.5,257.167 370.5,252.5C 365.833,252.5 361.167,252.5 356.5,252.5C 351.5,252.5 346.5,252.5 341.5,252.5C 341.5,247.5 341.5,242.5 341.5,237.5C 336.5,237.5 331.5,237.5 326.5,237.5C 326.5,232.5 326.5,227.5 326.5,222.5 Z"/></g>
<g><path style="opacity:1" fill="#0c3144" d="M 327.5,222.5 C 332.167,222.5 336.833,222.5 341.5,222.5C 341.5,227.167 341.5,231.833 341.5,236.5C 336.833,236.5 332.167,236.5 327.5,236.5C 327.5,231.833 327.5,227.167 327.5,222.5 Z"/></g>
<g><path style="opacity:1" fill="#356582" d="M 415.5,252.5 C 415.5,252.167 415.5,251.833 415.5,251.5C 420.5,251.5 425.5,251.5 430.5,251.5C 430.821,256.695 430.487,261.695 429.5,266.5C 429.5,261.833 429.5,257.167 429.5,252.5C 424.833,252.5 420.167,252.5 415.5,252.5 Z"/></g>
<g><path style="opacity:1" fill="#135d8e" d="M 105.5,251.5 C 110.5,251.5 115.5,251.5 120.5,251.5C 116.03,252.486 111.363,252.819 106.5,252.5C 106.5,262.167 106.5,271.833 106.5,281.5C 101.5,281.5 96.5,281.5 91.5,281.5C 91.5,286.5 91.5,291.5 91.5,296.5C 86.5,296.5 81.5,296.5 76.5,296.5C 76.5,291.167 76.5,285.833 76.5,280.5C 81.5,280.5 86.5,280.5 91.5,280.5C 91.5,270.833 91.5,261.167 91.5,251.5C 96.1667,251.5 100.833,251.5 105.5,251.5 Z"/></g>
<g><path style="opacity:1" fill="#125d8f" d="M 356.5,252.5 C 361.167,252.5 365.833,252.5 370.5,252.5C 370.5,257.167 370.5,261.833 370.5,266.5C 365.833,266.5 361.167,266.5 356.5,266.5C 356.5,261.833 356.5,257.167 356.5,252.5 Z"/></g>
<g><path style="opacity:1" fill="#003151" d="M 415.5,252.5 C 420.167,252.5 424.833,252.5 429.5,252.5C 429.5,257.167 429.5,261.833 429.5,266.5C 424.833,266.5 420.167,266.5 415.5,266.5C 415.5,261.833 415.5,257.167 415.5,252.5 Z"/></g>
<g><path style="opacity:1" fill="#6489a2" d="M 444.5,237.5 C 449.5,237.5 454.5,237.5 459.5,237.5C 459.5,242.167 459.5,246.833 459.5,251.5C 464.5,251.5 469.5,251.5 474.5,251.5C 474.5,256.5 474.5,261.5 474.5,266.5C 469.5,266.5 464.5,266.5 459.5,266.5C 459.5,261.833 459.5,257.167 459.5,252.5C 454.5,252.5 449.5,252.5 444.5,252.5C 444.5,247.5 444.5,242.5 444.5,237.5 Z"/></g>
<g><path style="opacity:1" fill="#050707" d="M 356.5,266.5 C 361.167,266.5 365.833,266.5 370.5,266.5C 370.833,266.5 371.167,266.5 371.5,266.5C 371.5,271.5 371.5,276.5 371.5,281.5C 366.5,281.5 361.5,281.5 356.5,281.5C 356.5,276.5 356.5,271.5 356.5,266.5 Z"/></g>
<g><path style="opacity:1" fill="#023452" d="M 415.5,266.5 C 415.5,276.167 415.5,285.833 415.5,295.5C 410.5,295.5 405.5,295.5 400.5,295.5C 400.5,285.833 400.5,276.167 400.5,266.5C 405.5,266.5 410.5,266.5 415.5,266.5 Z"/></g>
<g><path style="opacity:1" fill="#6495ae" d="M 459.5,266.5 C 459.5,271.5 459.5,276.5 459.5,281.5C 459.5,305.833 459.5,330.167 459.5,354.5C 454.5,354.5 449.5,354.5 444.5,354.5C 444.5,359.5 444.5,364.5 444.5,369.5C 439.833,369.5 435.167,369.5 430.5,369.5C 430.5,364.5 430.5,359.5 430.5,354.5C 425.5,354.5 420.5,354.5 415.5,354.5C 415.5,349.833 415.5,345.167 415.5,340.5C 420.5,340.5 425.5,340.5 430.5,340.5C 430.5,335.5 430.5,330.5 430.5,325.5C 430.5,320.5 430.5,315.5 430.5,310.5C 430.5,305.833 430.5,301.167 430.5,296.5C 435.167,296.5 439.833,296.5 444.5,296.5C 444.5,286.5 444.5,276.5 444.5,266.5C 449.5,266.5 454.5,266.5 459.5,266.5 Z"/></g>
<g><path style="opacity:1" fill="#013351" d="M 459.5,266.5 C 464.5,266.5 469.5,266.5 474.5,266.5C 474.5,271.5 474.5,276.5 474.5,281.5C 469.5,281.5 464.5,281.5 459.5,281.5C 459.5,276.5 459.5,271.5 459.5,266.5 Z"/></g>
<g><path style="opacity:1" fill="#7b8474" d="M 327.5,281.5 C 327.5,286.5 327.5,291.5 327.5,296.5C 327.167,296.5 326.833,296.5 326.5,296.5C 321.833,296.5 317.167,296.5 312.5,296.5C 316.97,295.514 321.637,295.181 326.5,295.5C 326.181,290.637 326.514,285.97 327.5,281.5 Z"/></g>
<g><path style="opacity:1" fill="#c17019" d="M 327.5,281.5 C 332.167,281.5 336.833,281.5 341.5,281.5C 341.5,286.5 341.5,291.5 341.5,296.5C 336.833,296.5 332.167,296.5 327.5,296.5C 327.5,291.5 327.5,286.5 327.5,281.5 Z"/></g>
<g><path style="opacity:1" fill="#eb8e32" d="M 341.5,281.5 C 346.5,281.5 351.5,281.5 356.5,281.5C 361.5,281.5 366.5,281.5 371.5,281.5C 371.5,286.167 371.5,290.833 371.5,295.5C 371.5,295.833 371.5,296.167 371.5,296.5C 361.833,296.5 352.167,296.5 342.5,296.5C 342.5,301.167 342.5,305.833 342.5,310.5C 337.167,310.5 331.833,310.5 326.5,310.5C 326.5,305.833 326.5,301.167 326.5,296.5C 326.833,296.5 327.167,296.5 327.5,296.5C 332.167,296.5 336.833,296.5 341.5,296.5C 341.5,291.5 341.5,286.5 341.5,281.5 Z"/></g>
<g><path style="opacity:1" fill="#000000" d="M 371.5,281.5 C 376.167,281.5 380.833,281.5 385.5,281.5C 385.5,286.167 385.5,290.833 385.5,295.5C 380.833,295.5 376.167,295.5 371.5,295.5C 371.5,290.833 371.5,286.167 371.5,281.5 Z"/></g>
<g><path style="opacity:1" fill="#000000" d="M 459.5,281.5 C 464.5,281.5 469.5,281.5 474.5,281.5C 474.5,315.833 474.5,350.167 474.5,384.5C 469.5,384.5 464.5,384.5 459.5,384.5C 459.5,379.5 459.5,374.5 459.5,369.5C 459.5,364.833 459.5,360.167 459.5,355.5C 459.5,355.167 459.5,354.833 459.5,354.5C 459.5,330.167 459.5,305.833 459.5,281.5 Z"/></g>
<g><path style="opacity:1" fill="#6e6457" d="M 385.5,281.5 C 386.486,285.97 386.819,290.637 386.5,295.5C 391.167,295.5 395.833,295.5 400.5,295.5C 405.5,295.5 410.5,295.5 415.5,295.5C 415.5,295.833 415.5,296.167 415.5,296.5C 415.167,296.5 414.833,296.5 414.5,296.5C 405.167,296.5 395.833,296.5 386.5,296.5C 381.5,296.5 376.5,296.5 371.5,296.5C 371.5,296.167 371.5,295.833 371.5,295.5C 376.167,295.5 380.833,295.5 385.5,295.5C 385.5,290.833 385.5,286.167 385.5,281.5 Z"/></g>
<g><path style="opacity:1" fill="#0c3144" d="M 76.5,296.5 C 81.5,296.5 86.5,296.5 91.5,296.5C 91.5,301.167 91.5,305.833 91.5,310.5C 86.5,310.5 81.5,310.5 76.5,310.5C 76.5,305.833 76.5,301.167 76.5,296.5 Z"/></g>
<g><path style="opacity:1" fill="#c07018" d="M 312.5,296.5 C 317.167,296.5 321.833,296.5 326.5,296.5C 326.5,301.167 326.5,305.833 326.5,310.5C 321.833,310.5 317.167,310.5 312.5,310.5C 312.5,305.833 312.5,301.167 312.5,296.5 Z"/></g>
<g><path style="opacity:1" fill="#e6a163" d="M 371.5,296.5 C 371.5,301.167 371.5,305.833 371.5,310.5C 366.305,310.179 361.305,310.513 356.5,311.5C 356.5,316.167 356.5,320.833 356.5,325.5C 361.167,325.5 365.833,325.5 370.5,325.5C 371.486,321.03 371.819,316.363 371.5,311.5C 386.167,311.5 400.833,311.5 415.5,311.5C 415.5,316.167 415.5,320.833 415.5,325.5C 415.5,330.5 415.5,335.5 415.5,340.5C 410.5,340.5 405.5,340.5 400.5,340.5C 400.5,345.167 400.5,349.833 400.5,354.5C 400.5,354.833 400.5,355.167 400.5,355.5C 395.833,355.5 391.167,355.5 386.5,355.5C 386.5,360.167 386.5,364.833 386.5,369.5C 391.167,369.5 395.833,369.5 400.5,369.5C 405.5,369.5 410.5,369.5 415.5,369.5C 420.167,369.5 424.833,369.5 429.5,369.5C 429.833,369.5 430.167,369.5 430.5,369.5C 430.5,374.5 430.5,379.5 430.5,384.5C 420.5,384.5 410.5,384.5 400.5,384.5C 400.5,389.167 400.5,393.833 400.5,398.5C 395.637,398.181 390.97,398.514 386.5,399.5C 386.167,399.5 385.833,399.5 385.5,399.5C 380.833,399.5 376.167,399.5 371.5,399.5C 371.5,404.167 371.5,408.833 371.5,413.5C 371.5,418.5 371.5,423.5 371.5,428.5C 366.5,428.5 361.5,428.5 356.5,428.5C 351.5,428.5 346.5,428.5 341.5,428.5C 341.5,423.5 341.5,418.5 341.5,413.5C 336.833,413.5 332.167,413.5 327.5,413.5C 327.167,413.5 326.833,413.5 326.5,413.5C 326.5,403.833 326.5,394.167 326.5,384.5C 321.833,384.5 317.167,384.5 312.5,384.5C 312.5,369.833 312.5,355.167 312.5,340.5C 312.5,335.5 312.5,330.5 312.5,325.5C 312.5,320.5 312.5,315.5 312.5,310.5C 317.167,310.5 321.833,310.5 326.5,310.5C 331.833,310.5 337.167,310.5 342.5,310.5C 342.5,305.833 342.5,301.167 342.5,296.5C 352.167,296.5 361.833,296.5 371.5,296.5 Z"/></g>
<g><path style="opacity:1" fill="#eb8e31" d="M 371.5,296.5 C 376.5,296.5 381.5,296.5 386.5,296.5C 386.5,301.167 386.5,305.833 386.5,310.5C 381.5,310.5 376.5,310.5 371.5,310.5C 371.5,305.833 371.5,301.167 371.5,296.5 Z"/></g>
<g><path style="opacity:1" fill="#c07018" d="M 386.5,296.5 C 395.833,296.5 405.167,296.5 414.5,296.5C 414.5,301.167 414.5,305.833 414.5,310.5C 405.167,310.5 395.833,310.5 386.5,310.5C 386.5,305.833 386.5,301.167 386.5,296.5 Z"/></g>
<g><path style="opacity:1" fill="#14323c" d="M 253.5,310.5 C 253.5,310.833 253.5,311.167 253.5,311.5C 248.833,311.5 244.167,311.5 239.5,311.5C 239.5,316.167 239.5,320.833 239.5,325.5C 239.167,325.5 238.833,325.5 238.5,325.5C 238.5,320.5 238.5,315.5 238.5,310.5C 243.5,310.5 248.5,310.5 253.5,310.5 Z"/></g>
<g><path style="opacity:1" fill="#d1893e" d="M 414.5,296.5 C 414.833,296.5 415.167,296.5 415.5,296.5C 415.5,301.167 415.5,305.833 415.5,310.5C 415.5,310.833 415.5,311.167 415.5,311.5C 400.833,311.5 386.167,311.5 371.5,311.5C 371.819,316.363 371.486,321.03 370.5,325.5C 365.833,325.5 361.167,325.5 356.5,325.5C 356.5,320.833 356.5,316.167 356.5,311.5C 361.305,310.513 366.305,310.179 371.5,310.5C 376.5,310.5 381.5,310.5 386.5,310.5C 395.833,310.5 405.167,310.5 414.5,310.5C 414.5,305.833 414.5,301.167 414.5,296.5 Z"/></g>
<g><path style="opacity:1" fill="#be6e1a" d="M 76.5,310.5 C 81.5,310.5 86.5,310.5 91.5,310.5C 91.5,315.5 91.5,320.5 91.5,325.5C 91.5,330.167 91.5,334.833 91.5,339.5C 91.5,339.833 91.5,340.167 91.5,340.5C 86.5,340.5 81.5,340.5 76.5,340.5C 76.5,335.5 76.5,330.5 76.5,325.5C 76.5,320.5 76.5,315.5 76.5,310.5 Z"/></g>
<g><path style="opacity:1" fill="#000000" d="M 253.5,311.5 C 253.5,316.167 253.5,320.833 253.5,325.5C 248.833,325.5 244.167,325.5 239.5,325.5C 239.5,320.833 239.5,316.167 239.5,311.5C 244.167,311.5 248.833,311.5 253.5,311.5 Z"/></g>
<g><path style="opacity:1" fill="#145f91" d="M 253.5,310.5 C 258.5,310.5 263.5,310.5 268.5,310.5C 268.5,315.5 268.5,320.5 268.5,325.5C 268.167,325.5 267.833,325.5 267.5,325.5C 262.833,325.5 258.167,325.5 253.5,325.5C 253.5,320.833 253.5,316.167 253.5,311.5C 253.5,311.167 253.5,310.833 253.5,310.5 Z"/></g>
<g><path style="opacity:1" fill="#c07018" d="M 356.5,311.5 C 361.167,311.5 365.833,311.5 370.5,311.5C 370.5,316.167 370.5,320.833 370.5,325.5C 370.5,320.833 370.5,316.167 370.5,311.5C 365.833,311.5 361.167,311.5 356.5,311.5 Z"/></g>
<g><path style="opacity:1" fill="#c07018" d="M 415.5,311.5 C 420.167,311.5 424.833,311.5 429.5,311.5C 429.5,316.167 429.5,320.833 429.5,325.5C 424.833,325.5 420.167,325.5 415.5,325.5C 415.5,320.833 415.5,316.167 415.5,311.5 Z"/></g>
<g><path style="opacity:1" fill="#a18156" d="M 415.5,311.5 C 415.5,311.167 415.5,310.833 415.5,310.5C 420.5,310.5 425.5,310.5 430.5,310.5C 430.5,315.5 430.5,320.5 430.5,325.5C 430.167,325.5 429.833,325.5 429.5,325.5C 429.5,320.833 429.5,316.167 429.5,311.5C 424.833,311.5 420.167,311.5 415.5,311.5 Z"/></g>
<g><path style="opacity:1" fill="#c07019" d="M 62.5,325.5 C 62.5,330.5 62.5,335.5 62.5,340.5C 62.1667,340.5 61.8333,340.5 61.5,340.5C 46.8333,340.5 32.1667,340.5 17.5,340.5C 12.5,340.5 7.5,340.5 2.5,340.5C 2.5,335.5 2.5,330.5 2.5,325.5C 22.5,325.5 42.5,325.5 62.5,325.5 Z"/></g>
<g><path style="opacity:1" fill="#894b06" d="M 62.5,325.5 C 67.1667,325.5 71.8333,325.5 76.5,325.5C 76.5,330.5 76.5,335.5 76.5,340.5C 76.5,345.167 76.5,349.833 76.5,354.5C 76.5,354.833 76.5,355.167 76.5,355.5C 71.8333,355.5 67.1667,355.5 62.5,355.5C 62.5,350.5 62.5,345.5 62.5,340.5C 62.5,335.5 62.5,330.5 62.5,325.5 Z"/></g>
<g><path style="opacity:1" fill="#3e96c1" d="M 91.5,325.5 C 96.5,325.5 101.5,325.5 106.5,325.5C 106.5,330.167 106.5,334.833 106.5,339.5C 101.5,339.5 96.5,339.5 91.5,339.5C 91.5,334.833 91.5,330.167 91.5,325.5 Z"/></g>
<g><path style="opacity:1" fill="#3c8cb4" d="M 135.5,325.5 C 135.5,330.5 135.5,335.5 135.5,340.5C 130.833,340.5 126.167,340.5 121.5,340.5C 121.5,350.167 121.5,359.833 121.5,369.5C 120.513,364.695 120.179,359.695 120.5,354.5C 120.5,344.833 120.5,335.167 120.5,325.5C 125.5,325.5 130.5,325.5 135.5,325.5 Z"/></g>
<g><path style="opacity:1" fill="#060809" d="M 135.5,325.5 C 140.5,325.5 145.5,325.5 150.5,325.5C 150.5,330.5 150.5,335.5 150.5,340.5C 145.5,340.5 140.5,340.5 135.5,340.5C 135.5,335.5 135.5,330.5 135.5,325.5 Z"/></g>
<g><path style="opacity:1" fill="#125d8f" d="M 238.5,325.5 C 238.5,330.5 238.5,335.5 238.5,340.5C 238.5,345.5 238.5,350.5 238.5,355.5C 238.5,360.167 238.5,364.833 238.5,369.5C 233.833,369.5 229.167,369.5 224.5,369.5C 224.5,354.833 224.5,340.167 224.5,325.5C 229.167,325.5 233.833,325.5 238.5,325.5 Z"/></g>
<g><path style="opacity:1" fill="#f9faf9" d="M 239.5,325.5 C 244.167,325.5 248.833,325.5 253.5,325.5C 253.5,330.167 253.5,334.833 253.5,339.5C 248.833,339.5 244.167,339.5 239.5,339.5C 239.5,334.833 239.5,330.167 239.5,325.5 Z"/></g>
<g><path style="opacity:1" fill="#000000" d="M 253.5,325.5 C 258.167,325.5 262.833,325.5 267.5,325.5C 267.5,335.167 267.5,344.833 267.5,354.5C 262.833,354.5 258.167,354.5 253.5,354.5C 253.5,349.833 253.5,345.167 253.5,340.5C 253.5,340.167 253.5,339.833 253.5,339.5C 253.5,334.833 253.5,330.167 253.5,325.5 Z"/></g>
<g><path style="opacity:1" fill="#153545" d="M 267.5,325.5 C 267.833,325.5 268.167,325.5 268.5,325.5C 268.5,335.5 268.5,345.5 268.5,355.5C 263.5,355.5 258.5,355.5 253.5,355.5C 253.5,355.167 253.5,354.833 253.5,354.5C 258.167,354.5 262.833,354.5 267.5,354.5C 267.5,344.833 267.5,335.167 267.5,325.5 Z"/></g>
<g><path style="opacity:1" fill="#c1711c" d="M 312.5,325.5 C 312.5,330.5 312.5,335.5 312.5,340.5C 307.833,340.5 303.167,340.5 298.5,340.5C 298.819,345.363 298.486,350.03 297.5,354.5C 297.5,344.833 297.5,335.167 297.5,325.5C 302.5,325.5 307.5,325.5 312.5,325.5 Z"/></g>
<g><path style="opacity:1" fill="#ed8f32" d="M 400.5,340.5 C 395.833,340.5 391.167,340.5 386.5,340.5C 386.5,335.5 386.5,330.5 386.5,325.5C 391.167,325.5 395.833,325.5 400.5,325.5C 400.5,330.5 400.5,335.5 400.5,340.5 Z"/></g>
<g><path style="opacity:1" fill="#050809" d="M 415.5,325.5 C 420.167,325.5 424.833,325.5 429.5,325.5C 429.833,325.5 430.167,325.5 430.5,325.5C 430.5,330.5 430.5,335.5 430.5,340.5C 425.5,340.5 420.5,340.5 415.5,340.5C 415.5,335.5 415.5,330.5 415.5,325.5 Z"/></g>
<g><path style="opacity:1" fill="#bfcad3" d="M 238.5,325.5 C 238.833,325.5 239.167,325.5 239.5,325.5C 239.5,330.167 239.5,334.833 239.5,339.5C 244.167,339.5 248.833,339.5 253.5,339.5C 253.5,339.833 253.5,340.167 253.5,340.5C 248.5,340.5 243.5,340.5 238.5,340.5C 238.5,335.5 238.5,330.5 238.5,325.5 Z"/></g>
<g><path style="opacity:1" fill="#874b09" d="M 2.5,340.5 C 7.5,340.5 12.5,340.5 17.5,340.5C 17.5,345.167 17.5,349.833 17.5,354.5C 22.6946,354.179 27.6946,354.513 32.5,355.5C 27.5,355.5 22.5,355.5 17.5,355.5C 12.5,355.5 7.5,355.5 2.5,355.5C 2.5,350.5 2.5,345.5 2.5,340.5 Z"/></g>
<g><path style="opacity:1" fill="#e6a163" d="M 17.5,340.5 C 32.1667,340.5 46.8333,340.5 61.5,340.5C 61.5,360.167 61.5,379.833 61.5,399.5C 66.5,399.5 71.5,399.5 76.5,399.5C 76.5,404.167 76.5,408.833 76.5,413.5C 66.8333,413.5 57.1667,413.5 47.5,413.5C 37.8333,413.5 28.1667,413.5 18.5,413.5C 18.5,408.833 18.5,404.167 18.5,399.5C 23.1667,399.5 27.8333,399.5 32.5,399.5C 32.5,394.5 32.5,389.5 32.5,384.5C 37.5,384.5 42.5,384.5 47.5,384.5C 47.5,379.5 47.5,374.5 47.5,369.5C 42.5,369.5 37.5,369.5 32.5,369.5C 32.5,364.833 32.5,360.167 32.5,355.5C 27.6946,354.513 22.6946,354.179 17.5,354.5C 17.5,349.833 17.5,345.167 17.5,340.5 Z"/></g>
<g><path style="opacity:1" fill="#eb8d31" d="M 76.5,340.5 C 81.5,340.5 86.5,340.5 91.5,340.5C 91.5,345.167 91.5,349.833 91.5,354.5C 86.5,354.5 81.5,354.5 76.5,354.5C 76.5,349.833 76.5,345.167 76.5,340.5 Z"/></g>
<g><path style="opacity:1" fill="#c07018" d="M 91.5,340.5 C 96.1667,340.5 100.833,340.5 105.5,340.5C 105.5,350.167 105.5,359.833 105.5,369.5C 100.833,369.5 96.1667,369.5 91.5,369.5C 91.5,364.5 91.5,359.5 91.5,354.5C 91.5,349.833 91.5,345.167 91.5,340.5 Z"/></g>
<g><path style="opacity:1" fill="#000000" d="M 135.5,340.5 C 135.5,345.167 135.5,349.833 135.5,354.5C 135.5,354.833 135.5,355.167 135.5,355.5C 135.5,360.167 135.5,364.833 135.5,369.5C 130.833,369.5 126.167,369.5 121.5,369.5C 121.5,359.833 121.5,350.167 121.5,340.5C 126.167,340.5 130.833,340.5 135.5,340.5 Z"/></g>
<g><path style="opacity:1" fill="#f6f6f7" d="M 135.5,340.5 C 140.5,340.5 145.5,340.5 150.5,340.5C 150.5,345.167 150.5,349.833 150.5,354.5C 145.5,354.5 140.5,354.5 135.5,354.5C 135.5,349.833 135.5,345.167 135.5,340.5 Z"/></g>
<g><path style="opacity:1" fill="#1b6090" d="M 150.5,340.5 C 155.5,340.5 160.5,340.5 165.5,340.5C 165.5,350.167 165.5,359.833 165.5,369.5C 160.5,369.5 155.5,369.5 150.5,369.5C 150.5,364.833 150.5,360.167 150.5,355.5C 145.5,355.5 140.5,355.5 135.5,355.5C 135.5,355.167 135.5,354.833 135.5,354.5C 140.5,354.5 145.5,354.5 150.5,354.5C 150.5,349.833 150.5,345.167 150.5,340.5 Z"/></g>
<g><path style="opacity:1" fill="#0c3245" d="M 238.5,340.5 C 243.5,340.5 248.5,340.5 253.5,340.5C 253.5,345.167 253.5,349.833 253.5,354.5C 248.405,354.221 243.405,354.555 238.5,355.5C 238.5,350.5 238.5,345.5 238.5,340.5 Z"/></g>
<g><path style="opacity:1" fill="#ec8f31" d="M 312.5,340.5 C 312.5,355.167 312.5,369.833 312.5,384.5C 317.167,384.5 321.833,384.5 326.5,384.5C 326.5,394.167 326.5,403.833 326.5,413.5C 326.5,418.5 326.5,423.5 326.5,428.5C 321.833,428.5 317.167,428.5 312.5,428.5C 312.5,418.833 312.5,409.167 312.5,399.5C 307.5,399.5 302.5,399.5 297.5,399.5C 297.5,399.167 297.5,398.833 297.5,398.5C 297.5,393.833 297.5,389.167 297.5,384.5C 297.5,374.833 297.5,365.167 297.5,355.5C 297.5,355.167 297.5,354.833 297.5,354.5C 298.486,350.03 298.819,345.363 298.5,340.5C 303.167,340.5 307.833,340.5 312.5,340.5 Z"/></g>
<g><path style="opacity:1" fill="#020202" d="M 400.5,340.5 C 405.5,340.5 410.5,340.5 415.5,340.5C 415.5,345.167 415.5,349.833 415.5,354.5C 410.5,354.5 405.5,354.5 400.5,354.5C 400.5,349.833 400.5,345.167 400.5,340.5 Z"/></g>
<g><path style="opacity:1" fill="#725c3d" d="M 400.5,355.5 C 400.5,355.167 400.5,354.833 400.5,354.5C 405.5,354.5 410.5,354.5 415.5,354.5C 420.5,354.5 425.5,354.5 430.5,354.5C 430.5,359.5 430.5,364.5 430.5,369.5C 430.167,369.5 429.833,369.5 429.5,369.5C 429.5,364.833 429.5,360.167 429.5,355.5C 424.833,355.5 420.167,355.5 415.5,355.5C 410.5,355.5 405.5,355.5 400.5,355.5 Z"/></g>
<g><path style="opacity:1" fill="#030201" d="M 17.5,355.5 C 22.5,355.5 27.5,355.5 32.5,355.5C 32.5,360.167 32.5,364.833 32.5,369.5C 37.5,369.5 42.5,369.5 47.5,369.5C 47.5,374.5 47.5,379.5 47.5,384.5C 42.5,384.5 37.5,384.5 32.5,384.5C 32.5,384.167 32.5,383.833 32.5,383.5C 32.5,379.167 32.5,374.833 32.5,370.5C 27.5,370.5 22.5,370.5 17.5,370.5C 17.5,365.5 17.5,360.5 17.5,355.5 Z"/></g>
<g><path style="opacity:1" fill="#c07018" d="M 62.5,355.5 C 67.1667,355.5 71.8333,355.5 76.5,355.5C 76.5,360.167 76.5,364.833 76.5,369.5C 71.8333,369.5 67.1667,369.5 62.5,369.5C 62.5,364.833 62.5,360.167 62.5,355.5 Z"/></g>
<g><path style="opacity:1" fill="#e4a062" d="M 105.5,340.5 C 106.486,344.97 106.819,349.637 106.5,354.5C 106.5,364.5 106.5,374.5 106.5,384.5C 106.5,394.167 106.5,403.833 106.5,413.5C 101.5,413.5 96.5,413.5 91.5,413.5C 91.5,408.833 91.5,404.167 91.5,399.5C 87.03,398.514 82.3633,398.181 77.5,398.5C 77.8271,388.652 77.4938,378.986 76.5,369.5C 76.5,364.833 76.5,360.167 76.5,355.5C 76.5,355.167 76.5,354.833 76.5,354.5C 81.5,354.5 86.5,354.5 91.5,354.5C 91.5,359.5 91.5,364.5 91.5,369.5C 96.1667,369.5 100.833,369.5 105.5,369.5C 105.5,359.833 105.5,350.167 105.5,340.5 Z"/></g>
<g><path style="opacity:1" fill="#4a93b8" d="M 106.5,354.5 C 111.167,354.5 115.833,354.5 120.5,354.5C 120.179,359.695 120.513,364.695 121.5,369.5C 121.5,374.5 121.5,379.5 121.5,384.5C 121.5,394.167 121.5,403.833 121.5,413.5C 121.5,418.5 121.5,423.5 121.5,428.5C 120.513,423.695 120.179,418.695 120.5,413.5C 120.5,403.833 120.5,394.167 120.5,384.5C 115.833,384.5 111.167,384.5 106.5,384.5C 106.5,374.5 106.5,364.5 106.5,354.5 Z"/></g>
<g><path style="opacity:1" fill="#0c3143" d="M 135.5,355.5 C 140.5,355.5 145.5,355.5 150.5,355.5C 150.5,360.167 150.5,364.833 150.5,369.5C 145.5,369.5 140.5,369.5 135.5,369.5C 135.5,364.833 135.5,360.167 135.5,355.5 Z"/></g>
<g><path style="opacity:1" fill="#000305" d="M 253.5,354.5 C 253.5,354.833 253.5,355.167 253.5,355.5C 253.5,360.167 253.5,364.833 253.5,369.5C 248.5,369.5 243.5,369.5 238.5,369.5C 238.5,364.833 238.5,360.167 238.5,355.5C 243.405,354.555 248.405,354.221 253.5,354.5 Z"/></g>
<g><path style="opacity:1" fill="#135e90" d="M 253.5,355.5 C 258.5,355.5 263.5,355.5 268.5,355.5C 268.5,360.167 268.5,364.833 268.5,369.5C 263.5,369.5 258.5,369.5 253.5,369.5C 253.5,364.833 253.5,360.167 253.5,355.5 Z"/></g>
<g><path style="opacity:1" fill="#c06f19" d="M 297.5,355.5 C 297.5,365.167 297.5,374.833 297.5,384.5C 292.833,384.5 288.167,384.5 283.5,384.5C 283.5,374.833 283.5,365.167 283.5,355.5C 288.167,355.5 292.833,355.5 297.5,355.5 Z"/></g>
<g><path style="opacity:1" fill="#ec8f31" d="M 400.5,355.5 C 400.5,360.167 400.5,364.833 400.5,369.5C 395.833,369.5 391.167,369.5 386.5,369.5C 386.5,364.833 386.5,360.167 386.5,355.5C 391.167,355.5 395.833,355.5 400.5,355.5 Z"/></g>
<g><path style="opacity:1" fill="#c06f19" d="M 400.5,355.5 C 405.5,355.5 410.5,355.5 415.5,355.5C 415.5,360.167 415.5,364.833 415.5,369.5C 410.5,369.5 405.5,369.5 400.5,369.5C 400.5,364.833 400.5,360.167 400.5,355.5 Z"/></g>
<g><path style="opacity:1" fill="#884b05" d="M 415.5,355.5 C 420.167,355.5 424.833,355.5 429.5,355.5C 429.5,360.167 429.5,364.833 429.5,369.5C 424.833,369.5 420.167,369.5 415.5,369.5C 415.5,364.833 415.5,360.167 415.5,355.5 Z"/></g>
<g><path style="opacity:1" fill="#003151" d="M 459.5,355.5 C 459.5,360.167 459.5,364.833 459.5,369.5C 454.833,369.5 450.167,369.5 445.5,369.5C 445.5,364.833 445.5,360.167 445.5,355.5C 450.167,355.5 454.833,355.5 459.5,355.5 Z"/></g>
<g><path style="opacity:1" fill="#df9748" d="M 61.5,340.5 C 61.8333,340.5 62.1667,340.5 62.5,340.5C 62.5,345.5 62.5,350.5 62.5,355.5C 62.5,360.167 62.5,364.833 62.5,369.5C 62.5,379.167 62.5,388.833 62.5,398.5C 67.1667,398.5 71.8333,398.5 76.5,398.5C 76.5,388.833 76.5,379.167 76.5,369.5C 77.4938,378.986 77.8271,388.652 77.5,398.5C 82.3633,398.181 87.03,398.514 91.5,399.5C 86.5,399.5 81.5,399.5 76.5,399.5C 71.5,399.5 66.5,399.5 61.5,399.5C 61.5,379.833 61.5,360.167 61.5,340.5 Z"/></g>
<g><path style="opacity:1" fill="#ec8f31" d="M 62.5,369.5 C 67.1667,369.5 71.8333,369.5 76.5,369.5C 76.5,379.167 76.5,388.833 76.5,398.5C 71.8333,398.5 67.1667,398.5 62.5,398.5C 62.5,388.833 62.5,379.167 62.5,369.5 Z"/></g>
<g><path style="opacity:1" fill="#125c8e" d="M 121.5,369.5 C 126.167,369.5 130.833,369.5 135.5,369.5C 135.5,374.5 135.5,379.5 135.5,384.5C 130.833,384.5 126.167,384.5 121.5,384.5C 121.5,379.5 121.5,374.5 121.5,369.5 Z"/></g>
<g><path style="opacity:1" fill="#000305" d="M 135.5,369.5 C 140.5,369.5 145.5,369.5 150.5,369.5C 150.5,374.5 150.5,379.5 150.5,384.5C 145.5,384.5 140.5,384.5 135.5,384.5C 135.5,379.5 135.5,374.5 135.5,369.5 Z"/></g>
<g><path style="opacity:1" fill="#874a07" d="M 430.5,369.5 C 435.167,369.5 439.833,369.5 444.5,369.5C 444.5,374.5 444.5,379.5 444.5,384.5C 439.833,384.5 435.167,384.5 430.5,384.5C 430.5,379.5 430.5,374.5 430.5,369.5 Z"/></g>
<g><path style="opacity:1" fill="#6395ae" d="M 445.5,369.5 C 450.167,369.5 454.833,369.5 459.5,369.5C 459.5,374.5 459.5,379.5 459.5,384.5C 459.5,389.167 459.5,393.833 459.5,398.5C 454.833,398.5 450.167,398.5 445.5,398.5C 445.5,388.833 445.5,379.167 445.5,369.5 Z"/></g>
<g><path style="opacity:1" fill="#c07018" d="M 106.5,384.5 C 111.167,384.5 115.833,384.5 120.5,384.5C 120.5,394.167 120.5,403.833 120.5,413.5C 115.833,413.5 111.167,413.5 106.5,413.5C 106.5,403.833 106.5,394.167 106.5,384.5 Z"/></g>
<g><path style="opacity:1" fill="#145f91" d="M 179.5,384.5 C 184.5,384.5 189.5,384.5 194.5,384.5C 194.5,389.5 194.5,394.5 194.5,399.5C 189.5,399.5 184.5,399.5 179.5,399.5C 179.5,394.5 179.5,389.5 179.5,384.5 Z"/></g>
<g><path style="opacity:1" fill="#125d8f" d="M 209.5,384.5 C 214.167,384.5 218.833,384.5 223.5,384.5C 223.5,389.167 223.5,393.833 223.5,398.5C 218.833,398.5 214.167,398.5 209.5,398.5C 209.5,393.833 209.5,389.167 209.5,384.5 Z"/></g>
<g><path style="opacity:1" fill="#125d8f" d="M 282.5,384.5 C 282.5,389.167 282.5,393.833 282.5,398.5C 277.833,398.5 273.167,398.5 268.5,398.5C 268.5,393.833 268.5,389.167 268.5,384.5C 273.167,384.5 277.833,384.5 282.5,384.5 Z"/></g>
<g><path style="opacity:1" fill="#746649" d="M 297.5,354.5 C 297.5,354.833 297.5,355.167 297.5,355.5C 292.833,355.5 288.167,355.5 283.5,355.5C 283.5,365.167 283.5,374.833 283.5,384.5C 283.5,389.167 283.5,393.833 283.5,398.5C 288.167,398.5 292.833,398.5 297.5,398.5C 297.5,398.833 297.5,399.167 297.5,399.5C 292.5,399.5 287.5,399.5 282.5,399.5C 282.5,399.167 282.5,398.833 282.5,398.5C 282.5,393.833 282.5,389.167 282.5,384.5C 282.5,374.5 282.5,364.5 282.5,354.5C 287.5,354.5 292.5,354.5 297.5,354.5 Z"/></g>
<g><path style="opacity:1" fill="#884b05" d="M 283.5,384.5 C 288.167,384.5 292.833,384.5 297.5,384.5C 297.5,389.167 297.5,393.833 297.5,398.5C 292.833,398.5 288.167,398.5 283.5,398.5C 283.5,393.833 283.5,389.167 283.5,384.5 Z"/></g>
<g><path style="opacity:1" fill="#874c0d" d="M 430.5,384.5 C 430.5,389.167 430.5,393.833 430.5,398.5C 430.5,398.833 430.5,399.167 430.5,399.5C 420.5,399.5 410.5,399.5 400.5,399.5C 395.833,399.5 391.167,399.5 386.5,399.5C 390.97,398.514 395.637,398.181 400.5,398.5C 400.5,393.833 400.5,389.167 400.5,384.5C 410.5,384.5 420.5,384.5 430.5,384.5 Z"/></g>
<g><path style="opacity:1" fill="#000000" d="M 430.5,384.5 C 435.167,384.5 439.833,384.5 444.5,384.5C 444.5,389.167 444.5,393.833 444.5,398.5C 439.833,398.5 435.167,398.5 430.5,398.5C 430.5,393.833 430.5,389.167 430.5,384.5 Z"/></g>
<g><path style="opacity:1" fill="#3a5462" d="M 459.5,354.5 C 459.5,354.833 459.5,355.167 459.5,355.5C 454.833,355.5 450.167,355.5 445.5,355.5C 445.5,360.167 445.5,364.833 445.5,369.5C 445.5,379.167 445.5,388.833 445.5,398.5C 450.167,398.5 454.833,398.5 459.5,398.5C 459.5,398.833 459.5,399.167 459.5,399.5C 454.833,399.5 450.167,399.5 445.5,399.5C 445.5,409.167 445.5,418.833 445.5,428.5C 445.167,428.5 444.833,428.5 444.5,428.5C 444.5,418.833 444.5,409.167 444.5,399.5C 439.833,399.5 435.167,399.5 430.5,399.5C 430.5,399.167 430.5,398.833 430.5,398.5C 435.167,398.5 439.833,398.5 444.5,398.5C 444.5,393.833 444.5,389.167 444.5,384.5C 444.5,379.5 444.5,374.5 444.5,369.5C 444.5,364.5 444.5,359.5 444.5,354.5C 449.5,354.5 454.5,354.5 459.5,354.5 Z"/></g>
<g><path style="opacity:1" fill="#003151" d="M 459.5,384.5 C 464.5,384.5 469.5,384.5 474.5,384.5C 474.5,389.5 474.5,394.5 474.5,399.5C 469.5,399.5 464.5,399.5 459.5,399.5C 459.5,399.167 459.5,398.833 459.5,398.5C 459.5,393.833 459.5,389.167 459.5,384.5 Z"/></g>
<g><path style="opacity:1" fill="#c1701a" d="M 32.5,383.5 C 32.5,383.833 32.5,384.167 32.5,384.5C 32.5,389.5 32.5,394.5 32.5,399.5C 27.8333,399.5 23.1667,399.5 18.5,399.5C 18.5,404.167 18.5,408.833 18.5,413.5C 17.5128,418.305 17.1795,423.305 17.5,428.5C 12.5,428.5 7.5,428.5 2.5,428.5C 2.5,418.5 2.5,408.5 2.5,398.5C 7.5,398.5 12.5,398.5 17.5,398.5C 17.5,393.5 17.5,388.5 17.5,383.5C 22.5,383.5 27.5,383.5 32.5,383.5 Z"/></g>
<g><path style="opacity:1" fill="#c17019" d="M 76.5,399.5 C 81.5,399.5 86.5,399.5 91.5,399.5C 91.5,404.167 91.5,408.833 91.5,413.5C 91.5,418.5 91.5,423.5 91.5,428.5C 86.5,428.5 81.5,428.5 76.5,428.5C 76.5,423.5 76.5,418.5 76.5,413.5C 76.5,408.833 76.5,404.167 76.5,399.5 Z"/></g>
<g><path style="opacity:1" fill="#125d8f" d="M 267.5,413.5 C 258.167,413.5 248.833,413.5 239.5,413.5C 239.5,408.833 239.5,404.167 239.5,399.5C 248.833,399.5 258.167,399.5 267.5,399.5C 267.5,404.167 267.5,408.833 267.5,413.5 Z"/></g>
<g><path style="opacity:1" fill="#6496af" d="M 282.5,399.5 C 287.5,399.5 292.5,399.5 297.5,399.5C 297.5,409.167 297.5,418.833 297.5,428.5C 302.5,428.5 307.5,428.5 312.5,428.5C 312.5,433.167 312.5,437.833 312.5,442.5C 312.5,442.833 312.5,443.167 312.5,443.5C 307.5,443.5 302.5,443.5 297.5,443.5C 297.5,448.167 297.5,452.833 297.5,457.5C 287.833,457.5 278.167,457.5 268.5,457.5C 268.5,452.833 268.5,448.167 268.5,443.5C 273.167,443.5 277.833,443.5 282.5,443.5C 282.5,433.833 282.5,424.167 282.5,414.5C 268.167,414.5 253.833,414.5 239.5,414.5C 239.819,419.363 239.486,424.03 238.5,428.5C 238.179,423.305 238.513,418.305 239.5,413.5C 248.833,413.5 258.167,413.5 267.5,413.5C 272.5,413.5 277.5,413.5 282.5,413.5C 282.5,408.833 282.5,404.167 282.5,399.5 Z"/></g>
<g><path style="opacity:1" fill="#c0701b" d="M 297.5,399.5 C 302.5,399.5 307.5,399.5 312.5,399.5C 312.5,409.167 312.5,418.833 312.5,428.5C 307.5,428.5 302.5,428.5 297.5,428.5C 297.5,418.833 297.5,409.167 297.5,399.5 Z"/></g>
<g><path style="opacity:1" fill="#c07018" d="M 385.5,399.5 C 385.5,404.167 385.5,408.833 385.5,413.5C 380.833,413.5 376.167,413.5 371.5,413.5C 371.5,408.833 371.5,404.167 371.5,399.5C 376.167,399.5 380.833,399.5 385.5,399.5 Z"/></g>
<g><path style="opacity:1" fill="#000000" d="M 386.5,399.5 C 391.167,399.5 395.833,399.5 400.5,399.5C 400.5,409.167 400.5,418.833 400.5,428.5C 395.833,428.5 391.167,428.5 386.5,428.5C 386.5,418.833 386.5,409.167 386.5,399.5 Z"/></g>
<g><path style="opacity:1" fill="#6395ae" d="M 400.5,399.5 C 410.5,399.5 420.5,399.5 430.5,399.5C 435.167,399.5 439.833,399.5 444.5,399.5C 444.5,409.167 444.5,418.833 444.5,428.5C 439.833,428.5 435.167,428.5 430.5,428.5C 429.506,437.986 429.173,447.652 429.5,457.5C 424.833,457.5 420.167,457.5 415.5,457.5C 415.5,447.833 415.5,438.167 415.5,428.5C 410.5,428.5 405.5,428.5 400.5,428.5C 400.5,418.833 400.5,409.167 400.5,399.5 Z"/></g>
<g><path style="opacity:1" fill="#000000" d="M 459.5,399.5 C 459.5,409.167 459.5,418.833 459.5,428.5C 454.833,428.5 450.167,428.5 445.5,428.5C 445.5,418.833 445.5,409.167 445.5,399.5C 450.167,399.5 454.833,399.5 459.5,399.5 Z"/></g>
<g><path style="opacity:1" fill="#8a4c07" d="M 18.5,413.5 C 28.1667,413.5 37.8333,413.5 47.5,413.5C 47.5,418.5 47.5,423.5 47.5,428.5C 52.1667,428.5 56.8333,428.5 61.5,428.5C 61.5,433.5 61.5,438.5 61.5,443.5C 56.5,443.5 51.5,443.5 46.5,443.5C 46.5,438.5 46.5,433.5 46.5,428.5C 36.8333,428.5 27.1667,428.5 17.5,428.5C 17.1795,423.305 17.5128,418.305 18.5,413.5 Z"/></g>
<g><path style="opacity:1" fill="#ec8e32" d="M 47.5,413.5 C 57.1667,413.5 66.8333,413.5 76.5,413.5C 76.5,418.5 76.5,423.5 76.5,428.5C 81.5,428.5 86.5,428.5 91.5,428.5C 91.5,433.5 91.5,438.5 91.5,443.5C 86.5,443.5 81.5,443.5 76.5,443.5C 76.5,448.167 76.5,452.833 76.5,457.5C 71.8333,457.5 67.1667,457.5 62.5,457.5C 62.8271,447.652 62.4938,437.986 61.5,428.5C 56.8333,428.5 52.1667,428.5 47.5,428.5C 47.5,423.5 47.5,418.5 47.5,413.5 Z"/></g>
<g><path style="opacity:1" fill="#ec8e31" d="M 91.5,413.5 C 96.5,413.5 101.5,413.5 106.5,413.5C 111.167,413.5 115.833,413.5 120.5,413.5C 120.179,418.695 120.513,423.695 121.5,428.5C 121.5,433.167 121.5,437.833 121.5,442.5C 116.5,442.5 111.5,442.5 106.5,442.5C 106.5,437.833 106.5,433.167 106.5,428.5C 101.5,428.5 96.5,428.5 91.5,428.5C 91.5,423.5 91.5,418.5 91.5,413.5 Z"/></g>
<g><path style="opacity:1" fill="#125e8f" d="M 121.5,413.5 C 126.167,413.5 130.833,413.5 135.5,413.5C 135.5,418.5 135.5,423.5 135.5,428.5C 130.833,428.5 126.167,428.5 121.5,428.5C 121.5,423.5 121.5,418.5 121.5,413.5 Z"/></g>
<g><path style="opacity:1" fill="#6295af" d="M 135.5,413.5 C 140.5,413.5 145.5,413.5 150.5,413.5C 150.5,418.5 150.5,423.5 150.5,428.5C 145.5,428.5 140.5,428.5 135.5,428.5C 135.5,423.5 135.5,418.5 135.5,413.5 Z"/></g>
<g><path style="opacity:1" fill="#135e90" d="M 150.5,413.5 C 175.167,413.5 199.833,413.5 224.5,413.5C 224.5,418.5 224.5,423.5 224.5,428.5C 199.833,428.5 175.167,428.5 150.5,428.5C 150.5,423.5 150.5,418.5 150.5,413.5 Z"/></g>
<g><path style="opacity:1" fill="#8eaec7" d="M 268.5,457.5 C 268.167,457.5 267.833,457.5 267.5,457.5C 257.833,457.5 248.167,457.5 238.5,457.5C 238.5,462.5 238.5,467.5 238.5,472.5C 223.833,472.5 209.167,472.5 194.5,472.5C 189.5,472.5 184.5,472.5 179.5,472.5C 179.5,467.833 179.5,463.167 179.5,458.5C 174.833,458.5 170.167,458.5 165.5,458.5C 165.5,458.167 165.5,457.833 165.5,457.5C 165.5,452.833 165.5,448.167 165.5,443.5C 155.5,443.5 145.5,443.5 135.5,443.5C 135.5,438.5 135.5,433.5 135.5,428.5C 140.5,428.5 145.5,428.5 150.5,428.5C 175.167,428.5 199.833,428.5 224.5,428.5C 229.167,428.5 233.833,428.5 238.5,428.5C 239.486,424.03 239.819,419.363 239.5,414.5C 253.833,414.5 268.167,414.5 282.5,414.5C 282.5,424.167 282.5,433.833 282.5,443.5C 277.833,443.5 273.167,443.5 268.5,443.5C 268.5,448.167 268.5,452.833 268.5,457.5 Z"/></g>
<g><path style="opacity:1" fill="#8a4c07" d="M 327.5,413.5 C 332.167,413.5 336.833,413.5 341.5,413.5C 341.5,418.5 341.5,423.5 341.5,428.5C 336.833,428.5 332.167,428.5 327.5,428.5C 327.5,423.5 327.5,418.5 327.5,413.5 Z"/></g>
<g><path style="opacity:1" fill="#854906" d="M 385.5,399.5 C 385.833,399.5 386.167,399.5 386.5,399.5C 386.5,409.167 386.5,418.833 386.5,428.5C 385.514,432.97 385.181,437.637 385.5,442.5C 380.833,442.5 376.167,442.5 371.5,442.5C 371.5,437.833 371.5,433.167 371.5,428.5C 371.5,423.5 371.5,418.5 371.5,413.5C 376.167,413.5 380.833,413.5 385.5,413.5C 385.5,408.833 385.5,404.167 385.5,399.5 Z"/></g>
<g><path style="opacity:1" fill="#bf6f19" d="M 91.5,428.5 C 96.5,428.5 101.5,428.5 106.5,428.5C 106.5,433.167 106.5,437.833 106.5,442.5C 111.5,442.5 116.5,442.5 121.5,442.5C 121.5,437.833 121.5,433.167 121.5,428.5C 126.167,428.5 130.833,428.5 135.5,428.5C 135.5,433.5 135.5,438.5 135.5,443.5C 135.5,448.167 135.5,452.833 135.5,457.5C 130.833,457.5 126.167,457.5 121.5,457.5C 121.819,452.637 121.486,447.97 120.5,443.5C 110.833,443.5 101.167,443.5 91.5,443.5C 91.5,438.5 91.5,433.5 91.5,428.5 Z"/></g>
<g><path style="opacity:1" fill="#c06f19" d="M 326.5,413.5 C 326.833,413.5 327.167,413.5 327.5,413.5C 327.5,418.5 327.5,423.5 327.5,428.5C 332.167,428.5 336.833,428.5 341.5,428.5C 341.5,433.167 341.5,437.833 341.5,442.5C 331.833,442.5 322.167,442.5 312.5,442.5C 312.5,437.833 312.5,433.167 312.5,428.5C 317.167,428.5 321.833,428.5 326.5,428.5C 326.5,423.5 326.5,418.5 326.5,413.5 Z"/></g>
<g><path style="opacity:1" fill="#894b06" d="M 341.5,428.5 C 346.5,428.5 351.5,428.5 356.5,428.5C 356.5,433.167 356.5,437.833 356.5,442.5C 351.5,442.5 346.5,442.5 341.5,442.5C 341.5,437.833 341.5,433.167 341.5,428.5 Z"/></g>
<g><path style="opacity:1" fill="#bf6f19" d="M 356.5,428.5 C 361.5,428.5 366.5,428.5 371.5,428.5C 371.5,433.167 371.5,437.833 371.5,442.5C 366.5,442.5 361.5,442.5 356.5,442.5C 356.5,437.833 356.5,433.167 356.5,428.5 Z"/></g>
<g><path style="opacity:1" fill="#125c8e" d="M 386.5,428.5 C 391.167,428.5 395.833,428.5 400.5,428.5C 400.5,448.167 400.5,467.833 400.5,487.5C 400.5,492.167 400.5,496.833 400.5,501.5C 395.637,501.181 390.97,501.514 386.5,502.5C 385.506,511.986 385.173,521.652 385.5,531.5C 380.833,531.5 376.167,531.5 371.5,531.5C 371.5,526.5 371.5,521.5 371.5,516.5C 366.5,516.5 361.5,516.5 356.5,516.5C 356.5,511.5 356.5,506.5 356.5,501.5C 351.5,501.5 346.5,501.5 341.5,501.5C 341.5,511.5 341.5,521.5 341.5,531.5C 336.833,531.5 332.167,531.5 327.5,531.5C 327.5,521.5 327.5,511.5 327.5,501.5C 317.319,501.173 307.319,501.506 297.5,502.5C 292.5,502.5 287.5,502.5 282.5,502.5C 282.5,497.5 282.5,492.5 282.5,487.5C 277.833,487.5 273.167,487.5 268.5,487.5C 268.5,482.5 268.5,477.5 268.5,472.5C 278.167,472.5 287.833,472.5 297.5,472.5C 297.5,467.833 297.5,463.167 297.5,458.5C 297.5,458.167 297.5,457.833 297.5,457.5C 302.5,457.5 307.5,457.5 312.5,457.5C 317.167,457.5 321.833,457.5 326.5,457.5C 326.5,452.833 326.5,448.167 326.5,443.5C 346.5,443.5 366.5,443.5 386.5,443.5C 386.5,438.5 386.5,433.5 386.5,428.5 Z"/></g>
<g><path style="opacity:1" fill="#000101" d="M 400.5,428.5 C 405.5,428.5 410.5,428.5 415.5,428.5C 415.5,438.167 415.5,447.833 415.5,457.5C 415.5,457.833 415.5,458.167 415.5,458.5C 415.5,463.5 415.5,468.5 415.5,473.5C 415.5,478.167 415.5,482.833 415.5,487.5C 410.5,487.5 405.5,487.5 400.5,487.5C 400.5,467.833 400.5,448.167 400.5,428.5 Z"/></g>
<g><path style="opacity:1" fill="#385b6c" d="M 430.5,428.5 C 430.5,438.5 430.5,448.5 430.5,458.5C 425.5,458.5 420.5,458.5 415.5,458.5C 415.5,458.167 415.5,457.833 415.5,457.5C 420.167,457.5 424.833,457.5 429.5,457.5C 429.173,447.652 429.506,437.986 430.5,428.5 Z"/></g>
<g><path style="opacity:1" fill="#000000" d="M 430.5,428.5 C 435.167,428.5 439.833,428.5 444.5,428.5C 444.833,428.5 445.167,428.5 445.5,428.5C 445.5,438.5 445.5,448.5 445.5,458.5C 440.5,458.5 435.5,458.5 430.5,458.5C 430.5,448.5 430.5,438.5 430.5,428.5 Z"/></g>
<g><path style="opacity:1" fill="#7e5b34" d="M 386.5,428.5 C 386.5,433.5 386.5,438.5 386.5,443.5C 366.5,443.5 346.5,443.5 326.5,443.5C 321.833,443.5 317.167,443.5 312.5,443.5C 312.5,443.167 312.5,442.833 312.5,442.5C 322.167,442.5 331.833,442.5 341.5,442.5C 346.5,442.5 351.5,442.5 356.5,442.5C 361.5,442.5 366.5,442.5 371.5,442.5C 376.167,442.5 380.833,442.5 385.5,442.5C 385.181,437.637 385.514,432.97 386.5,428.5 Z"/></g>
<g><path style="opacity:1" fill="#c06f1a" d="M 61.5,428.5 C 62.4938,437.986 62.8271,447.652 62.5,457.5C 57.1667,457.5 51.8333,457.5 46.5,457.5C 46.5,452.833 46.5,448.167 46.5,443.5C 51.5,443.5 56.5,443.5 61.5,443.5C 61.5,438.5 61.5,433.5 61.5,428.5 Z"/></g>
<g><path style="opacity:1" fill="#000000" d="M 91.5,443.5 C 101.167,443.5 110.833,443.5 120.5,443.5C 120.5,448.5 120.5,453.5 120.5,458.5C 110.833,458.5 101.167,458.5 91.5,458.5C 91.5,453.5 91.5,448.5 91.5,443.5 Z"/></g>
<g><path style="opacity:1" fill="#6595ae" d="M 135.5,443.5 C 145.5,443.5 155.5,443.5 165.5,443.5C 165.5,448.167 165.5,452.833 165.5,457.5C 155.5,457.5 145.5,457.5 135.5,457.5C 135.5,452.833 135.5,448.167 135.5,443.5 Z"/></g>
<g><path style="opacity:1" fill="#000101" d="M 312.5,443.5 C 312.5,448.167 312.5,452.833 312.5,457.5C 307.5,457.5 302.5,457.5 297.5,457.5C 297.5,452.833 297.5,448.167 297.5,443.5C 302.5,443.5 307.5,443.5 312.5,443.5 Z"/></g>
<g><path style="opacity:1" fill="#0c3244" d="M 312.5,443.5 C 317.167,443.5 321.833,443.5 326.5,443.5C 326.5,448.167 326.5,452.833 326.5,457.5C 321.833,457.5 317.167,457.5 312.5,457.5C 312.5,452.833 312.5,448.167 312.5,443.5 Z"/></g>
<g><path style="opacity:1" fill="#4b2a08" d="M 120.5,443.5 C 121.486,447.97 121.819,452.637 121.5,457.5C 126.167,457.5 130.833,457.5 135.5,457.5C 135.5,457.833 135.5,458.167 135.5,458.5C 130.5,458.5 125.5,458.5 120.5,458.5C 120.5,453.5 120.5,448.5 120.5,443.5 Z"/></g>
<g><path style="opacity:1" fill="#2b4149" d="M 267.5,457.5 C 267.833,457.5 268.167,457.5 268.5,457.5C 278.167,457.5 287.833,457.5 297.5,457.5C 297.5,457.833 297.5,458.167 297.5,458.5C 287.833,458.5 278.167,458.5 268.5,458.5C 268.5,463.167 268.5,467.833 268.5,472.5C 268.167,472.5 267.833,472.5 267.5,472.5C 267.5,467.5 267.5,462.5 267.5,457.5 Z"/></g>
<g><path style="opacity:1" fill="#8a4c06" d="M 91.5,443.5 C 91.5,448.5 91.5,453.5 91.5,458.5C 86.8333,458.5 82.1667,458.5 77.5,458.5C 77.5,463.5 77.5,468.5 77.5,473.5C 67.4944,473.666 57.4944,473.5 47.5,473C 46.5286,467.928 46.1953,462.762 46.5,457.5C 51.8333,457.5 57.1667,457.5 62.5,457.5C 67.1667,457.5 71.8333,457.5 76.5,457.5C 76.5,452.833 76.5,448.167 76.5,443.5C 81.5,443.5 86.5,443.5 91.5,443.5 Z"/></g>
<g><path style="opacity:1" fill="#000000" d="M 120.5,458.5 C 125.5,458.5 130.5,458.5 135.5,458.5C 145.167,458.5 154.833,458.5 164.5,458.5C 164.5,463.167 164.5,467.833 164.5,472.5C 159.305,472.179 154.305,472.513 149.5,473.5C 139.833,473.5 130.167,473.5 120.5,473.5C 120.5,468.5 120.5,463.5 120.5,458.5 Z"/></g>
<g><path style="opacity:1" fill="#6496ae" d="M 165.5,458.5 C 170.167,458.5 174.833,458.5 179.5,458.5C 179.5,463.167 179.5,467.833 179.5,472.5C 174.833,472.5 170.167,472.5 165.5,472.5C 165.5,467.833 165.5,463.167 165.5,458.5 Z"/></g>
<g><path style="opacity:1" fill="#6596af" d="M 267.5,457.5 C 267.5,462.5 267.5,467.5 267.5,472.5C 257.833,472.5 248.167,472.5 238.5,472.5C 238.5,467.5 238.5,462.5 238.5,457.5C 248.167,457.5 257.833,457.5 267.5,457.5 Z"/></g>
<g><path style="opacity:1" fill="#000000" d="M 297.5,458.5 C 297.5,463.167 297.5,467.833 297.5,472.5C 287.833,472.5 278.167,472.5 268.5,472.5C 268.5,467.833 268.5,463.167 268.5,458.5C 278.167,458.5 287.833,458.5 297.5,458.5 Z"/></g>
<g><path style="opacity:1" fill="#003250" d="M 415.5,458.5 C 420.5,458.5 425.5,458.5 430.5,458.5C 430.5,463.5 430.5,468.5 430.5,473.5C 425.5,473.5 420.5,473.5 415.5,473.5C 415.5,468.5 415.5,463.5 415.5,458.5 Z"/></g>
<g><path style="opacity:1" fill="#010203" d="M 194.5,472.5 C 209.167,472.5 223.833,472.5 238.5,472.5C 248.167,472.5 257.833,472.5 267.5,472.5C 267.833,472.5 268.167,472.5 268.5,472.5C 268.5,477.5 268.5,482.5 268.5,487.5C 253.5,487.5 238.5,487.5 223.5,487.5C 213.833,487.5 204.167,487.5 194.5,487.5C 194.5,482.5 194.5,477.5 194.5,472.5 Z"/></g>
<g><path style="opacity:1" fill="#0d3244" d="M 135.5,458.5 C 135.5,458.167 135.5,457.833 135.5,457.5C 145.5,457.5 155.5,457.5 165.5,457.5C 165.5,457.833 165.5,458.167 165.5,458.5C 165.5,463.167 165.5,467.833 165.5,472.5C 170.167,472.5 174.833,472.5 179.5,472.5C 184.5,472.5 189.5,472.5 194.5,472.5C 194.5,477.5 194.5,482.5 194.5,487.5C 179.833,487.5 165.167,487.5 150.5,487.5C 150.5,492.5 150.5,497.5 150.5,502.5C 150.5,507.167 150.5,511.833 150.5,516.5C 150.5,521.5 150.5,526.5 150.5,531.5C 155.5,531.5 160.5,531.5 165.5,531.5C 170.167,531.5 174.833,531.5 179.5,531.5C 179.5,536.5 179.5,541.5 179.5,546.5C 169.5,546.5 159.5,546.5 149.5,546.5C 149.5,541.5 149.5,536.5 149.5,531.5C 144.833,531.5 140.167,531.5 135.5,531.5C 135.5,516.5 135.5,501.5 135.5,486.5C 140.167,486.5 144.833,486.5 149.5,486.5C 149.5,482.167 149.5,477.833 149.5,473.5C 154.305,472.513 159.305,472.179 164.5,472.5C 164.5,467.833 164.5,463.167 164.5,458.5C 154.833,458.5 145.167,458.5 135.5,458.5 Z"/></g>
<g><path style="opacity:1" fill="#125d8f" d="M 194.5,487.5 C 204.167,487.5 213.833,487.5 223.5,487.5C 223.334,492.179 223.501,496.845 224,501.5C 228.737,502.469 233.57,502.803 238.5,502.5C 238.5,507.167 238.5,511.833 238.5,516.5C 233.5,516.5 228.5,516.5 223.5,516.5C 218.833,516.5 214.167,516.5 209.5,516.5C 209.5,511.5 209.5,506.5 209.5,501.5C 204.5,501.5 199.5,501.5 194.5,501.5C 194.5,496.833 194.5,492.167 194.5,487.5 Z"/></g>
<g><path style="opacity:1" fill="#6395ae" d="M 223.5,487.5 C 238.5,487.5 253.5,487.5 268.5,487.5C 273.167,487.5 277.833,487.5 282.5,487.5C 282.5,492.5 282.5,497.5 282.5,502.5C 282.5,507.167 282.5,511.833 282.5,516.5C 267.833,516.5 253.167,516.5 238.5,516.5C 238.5,511.833 238.5,507.167 238.5,502.5C 233.57,502.803 228.737,502.469 224,501.5C 223.501,496.845 223.334,492.179 223.5,487.5 Z"/></g>
<g><path style="opacity:1" fill="#0b3144" d="M 400.5,487.5 C 405.5,487.5 410.5,487.5 415.5,487.5C 415.5,492.5 415.5,497.5 415.5,502.5C 410.833,502.5 406.167,502.5 401.5,502.5C 396.5,502.5 391.5,502.5 386.5,502.5C 390.97,501.514 395.637,501.181 400.5,501.5C 400.5,496.833 400.5,492.167 400.5,487.5 Z"/></g>
<g><path style="opacity:1" fill="#64afce" d="M 150.5,502.5 C 165.167,502.5 179.833,502.5 194.5,502.5C 194.5,507.167 194.5,511.833 194.5,516.5C 189.5,516.5 184.5,516.5 179.5,516.5C 179.5,521.5 179.5,526.5 179.5,531.5C 174.833,531.5 170.167,531.5 165.5,531.5C 160.5,531.5 155.5,531.5 150.5,531.5C 150.5,526.5 150.5,521.5 150.5,516.5C 150.5,511.833 150.5,507.167 150.5,502.5 Z"/></g>
<g><path style="opacity:1" fill="#3d94bf" d="M 194.5,487.5 C 194.5,492.167 194.5,496.833 194.5,501.5C 199.5,501.5 204.5,501.5 209.5,501.5C 209.5,506.5 209.5,511.5 209.5,516.5C 214.167,516.5 218.833,516.5 223.5,516.5C 223.5,521.5 223.5,526.5 223.5,531.5C 213.833,531.5 204.167,531.5 194.5,531.5C 194.5,526.833 194.5,522.167 194.5,517.5C 189.833,517.5 185.167,517.5 180.5,517.5C 180.5,522.167 180.5,526.833 180.5,531.5C 180.167,531.5 179.833,531.5 179.5,531.5C 179.5,526.5 179.5,521.5 179.5,516.5C 184.5,516.5 189.5,516.5 194.5,516.5C 194.5,511.833 194.5,507.167 194.5,502.5C 179.833,502.5 165.167,502.5 150.5,502.5C 150.5,497.5 150.5,492.5 150.5,487.5C 165.167,487.5 179.833,487.5 194.5,487.5 Z"/></g>
<g><path style="opacity:1" fill="#0e3446" d="M 282.5,502.5 C 287.5,502.5 292.5,502.5 297.5,502.5C 297.5,507.167 297.5,511.833 297.5,516.5C 292.5,516.5 287.5,516.5 282.5,516.5C 282.5,511.833 282.5,507.167 282.5,502.5 Z"/></g>
<g><path style="opacity:1" fill="#3d95bf" d="M 341.5,531.5 C 341.5,536.5 341.5,541.5 341.5,546.5C 326.833,546.5 312.167,546.5 297.5,546.5C 297.5,541.5 297.5,536.5 297.5,531.5C 297.5,526.5 297.5,521.5 297.5,516.5C 297.5,511.833 297.5,507.167 297.5,502.5C 307.319,501.506 317.319,501.173 327.5,501.5C 327.5,511.5 327.5,521.5 327.5,531.5C 332.167,531.5 336.833,531.5 341.5,531.5 Z"/></g>
<g><path style="opacity:1" fill="#0d3245" d="M 371.5,531.5 C 366.5,531.5 361.5,531.5 356.5,531.5C 356.5,536.5 356.5,541.5 356.5,546.5C 351.833,546.5 347.167,546.5 342.5,546.5C 342.5,551.5 342.5,556.5 342.5,561.5C 337.5,561.5 332.5,561.5 327.5,561.5C 327.819,566.363 327.486,571.03 326.5,575.5C 326.5,570.5 326.5,565.5 326.5,560.5C 331.5,560.5 336.5,560.5 341.5,560.5C 341.5,555.833 341.5,551.167 341.5,546.5C 341.5,541.5 341.5,536.5 341.5,531.5C 341.5,521.5 341.5,511.5 341.5,501.5C 346.5,501.5 351.5,501.5 356.5,501.5C 356.5,506.5 356.5,511.5 356.5,516.5C 361.5,516.5 366.5,516.5 371.5,516.5C 371.5,521.5 371.5,526.5 371.5,531.5 Z"/></g>
<g><path style="opacity:1" fill="#010306" d="M 386.5,502.5 C 391.5,502.5 396.5,502.5 401.5,502.5C 401.5,512.167 401.5,521.833 401.5,531.5C 396.5,531.5 391.5,531.5 386.5,531.5C 386.167,531.5 385.833,531.5 385.5,531.5C 385.173,521.652 385.506,511.986 386.5,502.5 Z"/></g>
<g><path style="opacity:1" fill="#162931" d="M 223.5,516.5 C 228.5,516.5 233.5,516.5 238.5,516.5C 253.167,516.5 267.833,516.5 282.5,516.5C 263.341,517.497 244.007,517.83 224.5,517.5C 224.5,522.167 224.5,526.833 224.5,531.5C 224.167,531.5 223.833,531.5 223.5,531.5C 223.5,526.5 223.5,521.5 223.5,516.5 Z"/></g>
<g><path style="opacity:1" fill="#166091" d="M 150.5,516.5 C 155.5,516.5 160.5,516.5 165.5,516.5C 165.5,521.5 165.5,526.5 165.5,531.5C 165.5,526.5 165.5,521.5 165.5,516.5C 160.5,516.5 155.5,516.5 150.5,516.5 Z"/></g>
<g><path style="opacity:1" fill="#125d8f" d="M 194.5,531.5 C 189.833,531.5 185.167,531.5 180.5,531.5C 180.5,526.833 180.5,522.167 180.5,517.5C 185.167,517.5 189.833,517.5 194.5,517.5C 194.5,522.167 194.5,526.833 194.5,531.5 Z"/></g>
<g><path style="opacity:1" fill="#000000" d="M 282.5,516.5 C 287.5,516.5 292.5,516.5 297.5,516.5C 297.5,521.5 297.5,526.5 297.5,531.5C 292.5,531.5 287.5,531.5 282.5,531.5C 282.5,536.5 282.5,541.5 282.5,546.5C 277.5,546.5 272.5,546.5 267.5,546.5C 267.5,541.5 267.5,536.5 267.5,531.5C 253.167,531.5 238.833,531.5 224.5,531.5C 224.5,526.833 224.5,522.167 224.5,517.5C 244.007,517.83 263.341,517.497 282.5,516.5 Z"/></g>
<g><path style="opacity:1" fill="#000000" d="M 179.5,531.5 C 179.833,531.5 180.167,531.5 180.5,531.5C 185.167,531.5 189.833,531.5 194.5,531.5C 204.167,531.5 213.833,531.5 223.5,531.5C 223.833,531.5 224.167,531.5 224.5,531.5C 224.5,536.5 224.5,541.5 224.5,546.5C 209.5,546.5 194.5,546.5 179.5,546.5C 179.5,541.5 179.5,536.5 179.5,531.5 Z"/></g>
<g><path style="opacity:1" fill="#1b5f8e" d="M 297.5,531.5 C 297.5,536.5 297.5,541.5 297.5,546.5C 292.833,546.5 288.167,546.5 283.5,546.5C 283.5,556.167 283.5,565.833 283.5,575.5C 282.506,566.014 282.173,556.348 282.5,546.5C 282.5,541.5 282.5,536.5 282.5,531.5C 287.5,531.5 292.5,531.5 297.5,531.5 Z"/></g>
<g><path style="opacity:1" fill="#000000" d="M 371.5,531.5 C 376.167,531.5 380.833,531.5 385.5,531.5C 385.833,531.5 386.167,531.5 386.5,531.5C 386.5,536.5 386.5,541.5 386.5,546.5C 376.5,546.5 366.5,546.5 356.5,546.5C 356.5,541.5 356.5,536.5 356.5,531.5C 361.5,531.5 366.5,531.5 371.5,531.5 Z"/></g>
<g><path style="opacity:1" fill="#0c3244" d="M 267.5,546.5 C 272.5,546.5 277.5,546.5 282.5,546.5C 282.173,556.348 282.506,566.014 283.5,575.5C 288.167,575.5 292.833,575.5 297.5,575.5C 297.5,580.5 297.5,585.5 297.5,590.5C 292.5,590.5 287.5,590.5 282.5,590.5C 282.5,585.833 282.5,581.167 282.5,576.5C 277.5,576.5 272.5,576.5 267.5,576.5C 267.5,566.5 267.5,556.5 267.5,546.5 Z"/></g>
<g><path style="opacity:1" fill="#64afce" d="M 297.5,546.5 C 312.167,546.5 326.833,546.5 341.5,546.5C 341.5,551.167 341.5,555.833 341.5,560.5C 336.5,560.5 331.5,560.5 326.5,560.5C 326.5,565.5 326.5,570.5 326.5,575.5C 321.833,575.5 317.167,575.5 312.5,575.5C 312.5,570.5 312.5,565.5 312.5,560.5C 307.5,560.5 302.5,560.5 297.5,560.5C 297.5,565.5 297.5,570.5 297.5,575.5C 292.833,575.5 288.167,575.5 283.5,575.5C 283.5,565.833 283.5,556.167 283.5,546.5C 288.167,546.5 292.833,546.5 297.5,546.5 Z"/></g>
<g><path style="opacity:1" fill="#000000" d="M 356.5,546.5 C 356.5,551.5 356.5,556.5 356.5,561.5C 351.833,561.5 347.167,561.5 342.5,561.5C 342.5,556.5 342.5,551.5 342.5,546.5C 347.167,546.5 351.833,546.5 356.5,546.5 Z"/></g>
<g><path style="opacity:1" fill="#166091" d="M 312.5,575.5 C 307.5,575.5 302.5,575.5 297.5,575.5C 297.5,570.5 297.5,565.5 297.5,560.5C 302.5,560.5 307.5,560.5 312.5,560.5C 312.5,565.5 312.5,570.5 312.5,575.5 Z"/></g>
<g><path style="opacity:1" fill="#000001" d="M 342.5,561.5 C 342.5,566.5 342.5,571.5 342.5,576.5C 337.5,576.5 332.5,576.5 327.5,576.5C 327.5,581.167 327.5,585.833 327.5,590.5C 317.5,590.5 307.5,590.5 297.5,590.5C 297.5,585.5 297.5,580.5 297.5,575.5C 302.5,575.5 307.5,575.5 312.5,575.5C 317.167,575.5 321.833,575.5 326.5,575.5C 327.486,571.03 327.819,566.363 327.5,561.5C 332.5,561.5 337.5,561.5 342.5,561.5 Z"/></g>
</svg>
