<?xml version="1.0" encoding="UTF-8"?>
<!DOCTYPE svg PUBLIC "-//W3C//DTD SVG 1.1//EN" "http://www.w3.org/Graphics/SVG/1.1/DTD/svg11.dtd">
<svg xmlns="http://www.w3.org/2000/svg" version="1.1" width="652px" height="526px" style="shape-rendering:geometricPrecision; text-rendering:geometricPrecision; image-rendering:optimizeQuality; fill-rule:evenodd; clip-rule:evenodd" xmlns:xlink="http://www.w3.org/1999/xlink">
<g><path style="opacity:1" fill="#133901" d="M 385.5,15.5 C 385.5,16.1667 385.167,16.5 384.5,16.5C 376.167,16.5 367.833,16.5 359.5,16.5C 359.5,20.5 359.5,24.5 359.5,28.5C 355.167,28.5 350.833,28.5 346.5,28.5C 346.5,24.1667 346.5,19.8333 346.5,15.5C 350.5,15.5 354.5,15.5 358.5,15.5C 358.5,11.5 358.5,7.5 358.5,3.5C 367.5,3.5 376.5,3.5 385.5,3.5C 385.5,7.5 385.5,11.5 385.5,15.5 Z"/></g>
<g><path style="opacity:1" fill="#75ba3d" d="M 244.5,54.5 C 244.5,58.8333 244.5,63.1667 244.5,67.5C 248.833,67.5 253.167,67.5 257.5,67.5C 257.5,71.5 257.5,75.5 257.5,79.5C 257.5,83.8333 257.5,88.1667 257.5,92.5C 253.5,92.5 249.5,92.5 245.5,92.5C 245.167,92.5 244.833,92.5 244.5,92.5C 240.5,92.5 236.5,92.5 232.5,92.5C 232.5,96.8333 232.5,101.167 232.5,105.5C 228.167,105.5 223.833,105.5 219.5,105.5C 219.5,109.5 219.5,113.5 219.5,117.5C 215.5,117.5 211.5,117.5 207.5,117.5C 207.5,121.833 207.5,126.167 207.5,130.5C 203.167,130.5 198.833,130.5 194.5,130.5C 194.5,134.833 194.5,139.167 194.5,143.5C 198.833,143.5 203.167,143.5 207.5,143.5C 207.5,147.5 207.5,151.5 207.5,155.5C 211.5,155.5 215.5,155.5 219.5,155.5C 219.5,159.833 219.5,164.167 219.5,168.5C 219.5,172.833 219.5,177.167 219.5,181.5C 223.833,181.5 228.167,181.5 232.5,181.5C 232.5,185.5 232.5,189.5 232.5,193.5C 236.5,193.5 240.5,193.5 244.5,193.5C 244.833,193.5 245.167,193.5 245.5,193.5C 249.5,193.5 253.5,193.5 257.5,193.5C 257.5,197.833 257.5,202.167 257.5,206.5C 253.5,206.5 249.5,206.5 245.5,206.5C 245.5,210.5 245.5,214.5 245.5,218.5C 236.651,218.174 227.984,218.507 219.5,219.5C 219.5,223.5 219.5,227.5 219.5,231.5C 215.167,231.5 210.833,231.5 206.5,231.5C 206.5,235.833 206.5,240.167 206.5,244.5C 202.5,244.5 198.5,244.5 194.5,244.5C 194.5,248.5 194.5,252.5 194.5,256.5C 190.167,256.5 185.833,256.5 181.5,256.5C 177.167,256.5 172.833,256.5 168.5,256.5C 168.5,252.5 168.5,248.5 168.5,244.5C 164.5,244.5 160.5,244.5 156.5,244.5C 156.5,240.167 156.5,235.833 156.5,231.5C 152.167,231.5 147.833,231.5 143.5,231.5C 143.5,227.5 143.5,223.5 143.5,219.5C 143.5,210.833 143.5,202.167 143.5,193.5C 147.5,193.5 151.5,193.5 155.5,193.5C 155.5,189.5 155.5,185.5 155.5,181.5C 147.5,181.5 139.5,181.5 131.5,181.5C 131.5,185.5 131.5,189.5 131.5,193.5C 131.167,193.5 130.833,193.5 130.5,193.5C 130.5,189.5 130.5,185.5 130.5,181.5C 126.5,181.5 122.5,181.5 118.5,181.5C 118.5,181.167 118.5,180.833 118.5,180.5C 122.5,180.5 126.5,180.5 130.5,180.5C 130.5,172.167 130.5,163.833 130.5,155.5C 126.5,155.5 122.5,155.5 118.5,155.5C 118.5,142.833 118.5,130.167 118.5,117.5C 114.167,117.5 109.833,117.5 105.5,117.5C 105.5,109.167 105.5,100.833 105.5,92.5C 105.5,84.1667 105.5,75.8333 105.5,67.5C 105.5,63.1667 105.5,58.8333 105.5,54.5C 113.833,54.5 122.167,54.5 130.5,54.5C 130.5,58.8333 130.5,63.1667 130.5,67.5C 126.233,67.797 122.066,67.4637 118,66.5C 117.5,79.4957 117.333,92.4957 117.5,105.5C 121.833,105.5 126.167,105.5 130.5,105.5C 130.5,109.5 130.5,113.5 130.5,117.5C 134.833,117.5 139.167,117.5 143.5,117.5C 143.5,104.833 143.5,92.1667 143.5,79.5C 147.5,79.5 151.5,79.5 155.5,79.5C 155.182,84.0323 155.515,88.3656 156.5,92.5C 156.5,96.8333 156.5,101.167 156.5,105.5C 160.5,105.5 164.5,105.5 168.5,105.5C 168.5,101.167 168.5,96.8333 168.5,92.5C 168.5,79.8333 168.5,67.1667 168.5,54.5C 168.5,50.1667 168.5,45.8333 168.5,41.5C 172.833,41.5 177.167,41.5 181.5,41.5C 181.5,54.1667 181.5,66.8333 181.5,79.5C 190.167,79.5 198.833,79.5 207.5,79.5C 207.5,66.8333 207.5,54.1667 207.5,41.5C 203.167,41.5 198.833,41.5 194.5,41.5C 194.5,37.5 194.5,33.5 194.5,29.5C 190.167,29.5 185.833,29.5 181.5,29.5C 181.5,25.1667 181.5,20.8333 181.5,16.5C 189.833,16.5 198.167,16.5 206.5,16.5C 206.5,20.8333 206.5,25.1667 206.5,29.5C 214.833,29.5 223.167,29.5 231.5,29.5C 231.782,37.8359 232.116,46.1692 232.5,54.5C 236.5,54.5 240.5,54.5 244.5,54.5 Z"/></g>
<g><path style="opacity:1" fill="#38880d" d="M 232.5,28.5 C 232.5,32.8333 232.5,37.1667 232.5,41.5C 236.833,41.5 241.167,41.5 245.5,41.5C 245.5,45.8333 245.5,50.1667 245.5,54.5C 245.167,54.5 244.833,54.5 244.5,54.5C 240.5,54.5 236.5,54.5 232.5,54.5C 232.116,46.1692 231.782,37.8359 231.5,29.5C 223.167,29.5 214.833,29.5 206.5,29.5C 206.5,25.1667 206.5,20.8333 206.5,16.5C 198.167,16.5 189.833,16.5 181.5,16.5C 181.5,20.8333 181.5,25.1667 181.5,29.5C 181.5,33.5 181.5,37.5 181.5,41.5C 177.167,41.5 172.833,41.5 168.5,41.5C 168.5,32.8333 168.5,24.1667 168.5,15.5C 172.833,15.5 177.167,15.5 181.5,15.5C 181.5,11.5 181.5,7.5 181.5,3.5C 190.167,3.5 198.833,3.5 207.5,3.5C 207.5,7.5 207.5,11.5 207.5,15.5C 215.833,15.5 224.167,15.5 232.5,15.5C 232.5,19.8333 232.5,24.1667 232.5,28.5 Z"/></g>
<g><path style="opacity:1" fill="#85ca52" d="M 384.5,16.5 C 384.5,24.8333 384.5,33.1667 384.5,41.5C 380.5,41.5 376.5,41.5 372.5,41.5C 368.167,41.5 363.833,41.5 359.5,41.5C 355.167,41.5 350.833,41.5 346.5,41.5C 346.5,37.5 346.5,33.5 346.5,29.5C 351.032,29.8182 355.366,29.4849 359.5,28.5C 359.5,24.5 359.5,20.5 359.5,16.5C 367.833,16.5 376.167,16.5 384.5,16.5 Z"/></g>
<g><path style="opacity:1" fill="#398a0d" d="M 385.5,15.5 C 389.5,15.5 393.5,15.5 397.5,15.5C 397.5,24.1667 397.5,32.8333 397.5,41.5C 393.167,41.5 388.833,41.5 384.5,41.5C 384.5,33.1667 384.5,24.8333 384.5,16.5C 385.167,16.5 385.5,16.1667 385.5,15.5 Z"/></g>
<g><path style="opacity:1" fill="#000000" d="M 232.5,28.5 C 236.833,28.5 241.167,28.5 245.5,28.5C 245.5,32.8333 245.5,37.1667 245.5,41.5C 245.5,37.1667 245.5,32.8333 245.5,28.5C 241.167,28.5 236.833,28.5 232.5,28.5 Z"/></g>
<g><path style="opacity:1" fill="#88cd56" d="M 181.5,29.5 C 185.833,29.5 190.167,29.5 194.5,29.5C 194.5,33.5 194.5,37.5 194.5,41.5C 198.833,41.5 203.167,41.5 207.5,41.5C 207.5,54.1667 207.5,66.8333 207.5,79.5C 198.833,79.5 190.167,79.5 181.5,79.5C 181.5,66.8333 181.5,54.1667 181.5,41.5C 181.5,37.5 181.5,33.5 181.5,29.5 Z"/></g>
<g><path style="opacity:1" fill="#37880c" d="M 346.5,28.5 C 350.833,28.5 355.167,28.5 359.5,28.5C 355.366,29.4849 351.032,29.8182 346.5,29.5C 346.5,33.5 346.5,37.5 346.5,41.5C 338.167,41.5 329.833,41.5 321.5,41.5C 321.167,41.5 320.833,41.5 320.5,41.5C 320.5,37.1667 320.5,32.8333 320.5,28.5C 329.167,28.5 337.833,28.5 346.5,28.5 Z"/></g>
<g><path style="opacity:1" fill="#000200" d="M 245.5,41.5 C 249.833,41.5 254.167,41.5 258.5,41.5C 258.5,45.5 258.5,49.5 258.5,53.5C 262.5,53.5 266.5,53.5 270.5,53.5C 270.5,58.1667 270.5,62.8333 270.5,67.5C 266.069,67.7693 261.735,67.436 257.5,66.5C 257.5,62.5 257.5,58.5 257.5,54.5C 253.5,54.5 249.5,54.5 245.5,54.5C 245.5,50.1667 245.5,45.8333 245.5,41.5 Z"/></g>
<g><path style="opacity:1" fill="#000000" d="M 320.5,41.5 C 320.5,50.1667 320.5,58.8333 320.5,67.5C 316.5,67.5 312.5,67.5 308.5,67.5C 308.5,58.8333 308.5,50.1667 308.5,41.5C 312.5,41.5 316.5,41.5 320.5,41.5 Z"/></g>
<g><path style="opacity:1" fill="#123800" d="M 372.5,41.5 C 376.5,41.5 380.5,41.5 384.5,41.5C 388.833,41.5 393.167,41.5 397.5,41.5C 406.167,41.5 414.833,41.5 423.5,41.5C 423.5,45.5 423.5,49.5 423.5,53.5C 406.5,53.5 389.5,53.5 372.5,53.5C 372.5,49.5 372.5,45.5 372.5,41.5 Z"/></g>
<g><path style="opacity:1" fill="#37880c" d="M 168.5,41.5 C 168.5,45.8333 168.5,50.1667 168.5,54.5C 164.5,54.5 160.5,54.5 156.5,54.5C 156.5,67.1667 156.5,79.8333 156.5,92.5C 155.515,88.3656 155.182,84.0323 155.5,79.5C 151.5,79.5 147.5,79.5 143.5,79.5C 143.5,75.5 143.5,71.5 143.5,67.5C 139.167,67.5 134.833,67.5 130.5,67.5C 130.5,63.1667 130.5,58.8333 130.5,54.5C 122.167,54.5 113.833,54.5 105.5,54.5C 105.5,58.8333 105.5,63.1667 105.5,67.5C 101.167,67.5 96.8333,67.5 92.5,67.5C 92.5,62.8333 92.5,58.1667 92.5,53.5C 96.5,53.5 100.5,53.5 104.5,53.5C 104.5,49.5 104.5,45.5 104.5,41.5C 117.5,41.5 130.5,41.5 143.5,41.5C 143.5,45.5 143.5,49.5 143.5,53.5C 147.5,53.5 151.5,53.5 155.5,53.5C 155.5,49.5 155.5,45.5 155.5,41.5C 159.833,41.5 164.167,41.5 168.5,41.5 Z"/></g>
<g><path style="opacity:1" fill="#2a5014" d="M 320.5,41.5 C 320.833,41.5 321.167,41.5 321.5,41.5C 321.5,49.8333 321.5,58.1667 321.5,66.5C 329.833,66.5 338.167,66.5 346.5,66.5C 346.5,58.1667 346.5,49.8333 346.5,41.5C 350.833,41.5 355.167,41.5 359.5,41.5C 359.5,50.1667 359.5,58.8333 359.5,67.5C 355.167,67.5 350.833,67.5 346.5,67.5C 337.833,67.5 329.167,67.5 320.5,67.5C 320.5,58.8333 320.5,50.1667 320.5,41.5 Z"/></g>
<g><path style="opacity:1" fill="#88cd56" d="M 321.5,41.5 C 329.833,41.5 338.167,41.5 346.5,41.5C 346.5,49.8333 346.5,58.1667 346.5,66.5C 338.167,66.5 329.833,66.5 321.5,66.5C 321.5,58.1667 321.5,49.8333 321.5,41.5 Z"/></g>
<g><path style="opacity:1" fill="#123800" d="M 347.5,42.5 C 351.167,42.5 354.833,42.5 358.5,42.5C 358.5,50.5 358.5,58.5 358.5,66.5C 354.833,66.5 351.167,66.5 347.5,66.5C 347.5,58.5 347.5,50.5 347.5,42.5 Z"/></g>
<g><path style="opacity:1" fill="#38880c" d="M 359.5,41.5 C 363.833,41.5 368.167,41.5 372.5,41.5C 372.5,45.5 372.5,49.5 372.5,53.5C 380.65,54.4927 388.983,54.8261 397.5,54.5C 397.5,58.8333 397.5,63.1667 397.5,67.5C 393.167,67.5 388.833,67.5 384.5,67.5C 384.5,71.5 384.5,75.5 384.5,79.5C 388.833,79.5 393.167,79.5 397.5,79.5C 397.5,79.8333 397.5,80.1667 397.5,80.5C 397.5,88.8333 397.5,97.1667 397.5,105.5C 393.167,105.5 388.833,105.5 384.5,105.5C 384.5,109.5 384.5,113.5 384.5,117.5C 376.167,117.5 367.833,117.5 359.5,117.5C 359.5,121.833 359.5,126.167 359.5,130.5C 359.5,134.833 359.5,139.167 359.5,143.5C 355.167,143.5 350.833,143.5 346.5,143.5C 350.298,142.517 354.298,142.183 358.5,142.5C 358.5,134.167 358.5,125.833 358.5,117.5C 354.5,117.5 350.5,117.5 346.5,117.5C 346.5,113.5 346.5,109.5 346.5,105.5C 350.833,105.5 355.167,105.5 359.5,105.5C 359.5,101.167 359.5,96.8333 359.5,92.5C 355.167,92.5 350.833,92.5 346.5,92.5C 346.5,88.1667 346.5,83.8333 346.5,79.5C 346.5,75.5 346.5,71.5 346.5,67.5C 350.833,67.5 355.167,67.5 359.5,67.5C 359.5,58.8333 359.5,50.1667 359.5,41.5 Z"/></g>
<g><path style="opacity:1" fill="#28520f" d="M 372.5,53.5 C 389.5,53.5 406.5,53.5 423.5,53.5C 423.826,62.3494 423.493,71.0161 422.5,79.5C 422.5,71.1667 422.5,62.8333 422.5,54.5C 414.167,54.5 405.833,54.5 397.5,54.5C 388.983,54.8261 380.65,54.4927 372.5,53.5 Z"/></g>
<g><path style="opacity:1" fill="#123800" d="M 168.5,54.5 C 168.5,67.1667 168.5,79.8333 168.5,92.5C 164.5,92.5 160.5,92.5 156.5,92.5C 156.5,79.8333 156.5,67.1667 156.5,54.5C 160.5,54.5 164.5,54.5 168.5,54.5 Z"/></g>
<g><path style="opacity:1" fill="#3b8b0f" d="M 244.5,54.5 C 244.833,54.5 245.167,54.5 245.5,54.5C 249.5,54.5 253.5,54.5 257.5,54.5C 257.5,58.5 257.5,62.5 257.5,66.5C 257.5,66.8333 257.5,67.1667 257.5,67.5C 253.167,67.5 248.833,67.5 244.5,67.5C 244.5,63.1667 244.5,58.8333 244.5,54.5 Z"/></g>
<g><path style="opacity:1" fill="#88ce56" d="M 397.5,54.5 C 405.833,54.5 414.167,54.5 422.5,54.5C 422.5,62.8333 422.5,71.1667 422.5,79.5C 414.167,79.5 405.833,79.5 397.5,79.5C 397.5,75.5 397.5,71.5 397.5,67.5C 397.5,63.1667 397.5,58.8333 397.5,54.5 Z"/></g>
<g><path style="opacity:1" fill="#133701" d="M 423.5,53.5 C 427.767,53.203 431.934,53.5363 436,54.5C 436.667,62.8333 436.667,71.1667 436,79.5C 431.934,80.4637 427.767,80.797 423.5,80.5C 414.833,80.5 406.167,80.5 397.5,80.5C 397.5,80.1667 397.5,79.8333 397.5,79.5C 405.833,79.5 414.167,79.5 422.5,79.5C 423.493,71.0161 423.826,62.3494 423.5,53.5 Z"/></g>
<g><path style="opacity:1" fill="#123900" d="M 92.5,67.5 C 96.8333,67.5 101.167,67.5 105.5,67.5C 105.5,75.8333 105.5,84.1667 105.5,92.5C 101.167,92.5 96.8333,92.5 92.5,92.5C 92.5,84.1667 92.5,75.8333 92.5,67.5 Z"/></g>
<g><path style="opacity:1" fill="#86cb53" d="M 130.5,67.5 C 134.833,67.5 139.167,67.5 143.5,67.5C 143.5,71.5 143.5,75.5 143.5,79.5C 143.5,92.1667 143.5,104.833 143.5,117.5C 139.167,117.5 134.833,117.5 130.5,117.5C 130.5,113.5 130.5,109.5 130.5,105.5C 126.167,105.5 121.833,105.5 117.5,105.5C 117.333,92.4957 117.5,79.4957 118,66.5C 122.066,67.4637 126.233,67.797 130.5,67.5 Z"/></g>
<g><path style="opacity:1" fill="#133a01" d="M 257.5,66.5 C 261.735,67.436 266.069,67.7693 270.5,67.5C 270.5,71.5 270.5,75.5 270.5,79.5C 266.167,79.5 261.833,79.5 257.5,79.5C 257.5,75.5 257.5,71.5 257.5,67.5C 257.5,67.1667 257.5,66.8333 257.5,66.5 Z"/></g>
<g><path style="opacity:1" fill="#000000" d="M 320.5,67.5 C 329.167,67.5 337.833,67.5 346.5,67.5C 346.5,71.5 346.5,75.5 346.5,79.5C 341.968,79.1818 337.634,79.5151 333.5,80.5C 329.167,80.5 324.833,80.5 320.5,80.5C 320.5,76.1667 320.5,71.8333 320.5,67.5 Z"/></g>
<g><path style="opacity:1" fill="#123900" d="M 397.5,67.5 C 397.5,71.5 397.5,75.5 397.5,79.5C 393.167,79.5 388.833,79.5 384.5,79.5C 384.5,75.5 384.5,71.5 384.5,67.5C 388.833,67.5 393.167,67.5 397.5,67.5 Z"/></g>
<g><path style="opacity:1" fill="#000000" d="M 270.5,79.5 C 274.833,79.5 279.167,79.5 283.5,79.5C 283.5,83.8333 283.5,88.1667 283.5,92.5C 279.167,92.5 274.833,92.5 270.5,92.5C 270.5,88.1667 270.5,83.8333 270.5,79.5 Z"/></g>
<g><path style="opacity:1" fill="#37880d" d="M 257.5,79.5 C 261.833,79.5 266.167,79.5 270.5,79.5C 270.5,83.8333 270.5,88.1667 270.5,92.5C 266.167,92.5 261.833,92.5 257.5,92.5C 257.5,88.1667 257.5,83.8333 257.5,79.5 Z"/></g>
<g><path style="opacity:1" fill="#123800" d="M 346.5,79.5 C 346.5,83.8333 346.5,88.1667 346.5,92.5C 350.833,92.5 355.167,92.5 359.5,92.5C 359.5,96.8333 359.5,101.167 359.5,105.5C 355.167,105.5 350.833,105.5 346.5,105.5C 346.5,109.5 346.5,113.5 346.5,117.5C 346.5,121.833 346.5,126.167 346.5,130.5C 342.167,130.5 337.833,130.5 333.5,130.5C 333.5,113.833 333.5,97.1667 333.5,80.5C 337.634,79.5151 341.968,79.1818 346.5,79.5 Z"/></g>
<g><path style="opacity:1" fill="#000000" d="M 397.5,80.5 C 406.167,80.5 414.833,80.5 423.5,80.5C 423.5,84.5 423.5,88.5 423.5,92.5C 419.167,92.5 414.833,92.5 410.5,92.5C 410.5,96.8333 410.5,101.167 410.5,105.5C 406.167,105.5 401.833,105.5 397.5,105.5C 397.5,97.1667 397.5,88.8333 397.5,80.5 Z"/></g>
<g><path style="opacity:1" fill="#38890d" d="M 92.5,92.5 C 96.8333,92.5 101.167,92.5 105.5,92.5C 105.5,100.833 105.5,109.167 105.5,117.5C 109.833,117.5 114.167,117.5 118.5,117.5C 118.5,130.167 118.5,142.833 118.5,155.5C 118.167,155.5 117.833,155.5 117.5,155.5C 117.5,147.167 117.5,138.833 117.5,130.5C 113.167,130.5 108.833,130.5 104.5,130.5C 104.5,126.5 104.5,122.5 104.5,118.5C 100.5,118.5 96.5,118.5 92.5,118.5C 92.5,109.833 92.5,101.167 92.5,92.5 Z"/></g>
<g><path style="opacity:1" fill="#39890d" d="M 156.5,92.5 C 160.5,92.5 164.5,92.5 168.5,92.5C 168.5,96.8333 168.5,101.167 168.5,105.5C 164.5,105.5 160.5,105.5 156.5,105.5C 156.5,101.167 156.5,96.8333 156.5,92.5 Z"/></g>
<g><path style="opacity:1" fill="#36840b" d="M 244.5,92.5 C 244.5,96.8333 244.5,101.167 244.5,105.5C 240.5,105.5 236.5,105.5 232.5,105.5C 232.5,101.167 232.5,96.8333 232.5,92.5C 236.5,92.5 240.5,92.5 244.5,92.5 Z"/></g>
<g><path style="opacity:1" fill="#d98324" d="M 245.5,92.5 C 249.5,92.5 253.5,92.5 257.5,92.5C 261.833,92.5 266.167,92.5 270.5,92.5C 270.5,96.5 270.5,100.5 270.5,104.5C 262.167,104.5 253.833,104.5 245.5,104.5C 245.5,100.5 245.5,96.5 245.5,92.5 Z"/></g>
<g><path style="opacity:1" fill="#36840b" d="M 270.5,92.5 C 274.833,92.5 279.167,92.5 283.5,92.5C 283.5,100.833 283.5,109.167 283.5,117.5C 279.167,117.5 274.833,117.5 270.5,117.5C 270.5,113.5 270.5,109.5 270.5,105.5C 270.5,105.167 270.5,104.833 270.5,104.5C 270.5,100.5 270.5,96.5 270.5,92.5 Z"/></g>
<g><path style="opacity:1" fill="#000000" d="M 283.5,92.5 C 287.833,92.5 292.167,92.5 296.5,92.5C 296.5,100.833 296.5,109.167 296.5,117.5C 296.167,117.5 295.833,117.5 295.5,117.5C 291.5,117.5 287.5,117.5 283.5,117.5C 283.5,109.167 283.5,100.833 283.5,92.5 Z"/></g>
<g><path style="opacity:1" fill="#c49535" d="M 244.5,92.5 C 244.833,92.5 245.167,92.5 245.5,92.5C 245.5,96.5 245.5,100.5 245.5,104.5C 253.833,104.5 262.167,104.5 270.5,104.5C 270.5,104.833 270.5,105.167 270.5,105.5C 262.167,105.5 253.833,105.5 245.5,105.5C 245.167,105.5 244.833,105.5 244.5,105.5C 244.5,101.167 244.5,96.8333 244.5,92.5 Z"/></g>
<g><path style="opacity:1" fill="#38890b" d="M 181.5,117.5 C 177.5,117.5 173.5,117.5 169.5,117.5C 169.5,113.5 169.5,109.5 169.5,105.5C 173.5,105.5 177.5,105.5 181.5,105.5C 181.5,109.5 181.5,113.5 181.5,117.5 Z"/></g>
<g><path style="opacity:1" fill="#38880c" d="M 232.5,105.5 C 232.5,109.5 232.5,113.5 232.5,117.5C 228.167,117.5 223.833,117.5 219.5,117.5C 219.5,113.5 219.5,109.5 219.5,105.5C 223.833,105.5 228.167,105.5 232.5,105.5 Z"/></g>
<g><path style="opacity:1" fill="#000000" d="M 232.5,105.5 C 236.5,105.5 240.5,105.5 244.5,105.5C 244.5,113.833 244.5,122.167 244.5,130.5C 240.5,130.5 236.5,130.5 232.5,130.5C 232.5,126.167 232.5,121.833 232.5,117.5C 232.5,113.5 232.5,109.5 232.5,105.5 Z"/></g>
<g><path style="opacity:1" fill="#debf63" d="M 245.5,105.5 C 253.833,105.5 262.167,105.5 270.5,105.5C 270.5,109.5 270.5,113.5 270.5,117.5C 270.5,117.833 270.5,118.167 270.5,118.5C 270.5,135.167 270.5,151.833 270.5,168.5C 266.167,168.5 261.833,168.5 257.5,168.5C 257.5,159.833 257.5,151.167 257.5,142.5C 257.5,138.5 257.5,134.5 257.5,130.5C 257.5,126.167 257.5,121.833 257.5,117.5C 253.5,117.5 249.5,117.5 245.5,117.5C 245.5,113.5 245.5,109.5 245.5,105.5 Z"/></g>
<g><path style="opacity:1" fill="#000000" d="M 296.5,117.5 C 300.833,117.5 305.167,117.5 309.5,117.5C 309.5,130.167 309.5,142.833 309.5,155.5C 308.505,167.989 308.171,180.656 308.5,193.5C 304.5,193.5 300.5,193.5 296.5,193.5C 296.5,168.167 296.5,142.833 296.5,117.5 Z"/></g>
<g><path style="opacity:1" fill="#153c02" d="M 169.5,117.5 C 173.5,117.5 177.5,117.5 181.5,117.5C 181.5,121.833 181.5,126.167 181.5,130.5C 177.167,130.5 172.833,130.5 168.5,130.5C 168.182,125.968 168.515,121.634 169.5,117.5 Z"/></g>
<g><path style="opacity:1" fill="#38890c" d="M 219.5,117.5 C 219.5,121.833 219.5,126.167 219.5,130.5C 219.5,138.833 219.5,147.167 219.5,155.5C 215.5,155.5 211.5,155.5 207.5,155.5C 207.5,151.5 207.5,147.5 207.5,143.5C 203.167,143.5 198.833,143.5 194.5,143.5C 194.5,139.167 194.5,134.833 194.5,130.5C 198.833,130.5 203.167,130.5 207.5,130.5C 207.5,126.167 207.5,121.833 207.5,117.5C 211.5,117.5 215.5,117.5 219.5,117.5 Z"/></g>
<g><path style="opacity:1" fill="#f3f5f2" d="M 219.5,117.5 C 223.833,117.5 228.167,117.5 232.5,117.5C 232.5,121.833 232.5,126.167 232.5,130.5C 228.167,130.5 223.833,130.5 219.5,130.5C 219.5,126.167 219.5,121.833 219.5,117.5 Z"/></g>
<g><path style="opacity:1" fill="#f9f9f7" d="M 245.5,117.5 C 249.5,117.5 253.5,117.5 257.5,117.5C 257.5,121.833 257.5,126.167 257.5,130.5C 253.5,130.5 249.5,130.5 245.5,130.5C 245.5,126.167 245.5,121.833 245.5,117.5 Z"/></g>
<g><path style="opacity:1" fill="#d98324" d="M 270.5,118.5 C 274.5,118.5 278.5,118.5 282.5,118.5C 282.5,135.167 282.5,151.833 282.5,168.5C 278.5,168.5 274.5,168.5 270.5,168.5C 270.5,151.833 270.5,135.167 270.5,118.5 Z"/></g>
<g><path style="opacity:1" fill="#9e8219" d="M 270.5,118.5 C 270.5,118.167 270.5,117.833 270.5,117.5C 274.833,117.5 279.167,117.5 283.5,117.5C 283.83,134.675 283.497,151.675 282.5,168.5C 282.5,151.833 282.5,135.167 282.5,118.5C 278.5,118.5 274.5,118.5 270.5,118.5 Z"/></g>
<g><path style="opacity:1" fill="#38880c" d="M 283.5,117.5 C 287.5,117.5 291.5,117.5 295.5,117.5C 295.5,142.833 295.5,168.167 295.5,193.5C 291.167,193.5 286.833,193.5 282.5,193.5C 282.5,197.833 282.5,202.167 282.5,206.5C 274.167,206.5 265.833,206.5 257.5,206.5C 257.5,202.167 257.5,197.833 257.5,193.5C 257.5,189.5 257.5,185.5 257.5,181.5C 262.032,181.818 266.366,181.485 270.5,180.5C 270.5,176.5 270.5,172.5 270.5,168.5C 274.5,168.5 278.5,168.5 282.5,168.5C 283.497,151.675 283.83,134.675 283.5,117.5 Z"/></g>
<g><path style="opacity:1" fill="#74b83d" d="M 346.5,117.5 C 350.5,117.5 354.5,117.5 358.5,117.5C 358.5,125.833 358.5,134.167 358.5,142.5C 354.298,142.183 350.298,142.517 346.5,143.5C 346.5,151.833 346.5,160.167 346.5,168.5C 342.5,168.5 338.5,168.5 334.5,168.5C 333.507,176.65 333.174,184.983 333.5,193.5C 329.5,193.5 325.5,193.5 321.5,193.5C 321.5,180.833 321.5,168.167 321.5,155.5C 325.5,155.5 329.5,155.5 333.5,155.5C 333.5,147.167 333.5,138.833 333.5,130.5C 337.833,130.5 342.167,130.5 346.5,130.5C 346.5,126.167 346.5,121.833 346.5,117.5 Z"/></g>
<g><path style="opacity:1" fill="#123501" d="M 384.5,117.5 C 380.702,118.483 376.702,118.817 372.5,118.5C 372.5,122.5 372.5,126.5 372.5,130.5C 368.167,130.5 363.833,130.5 359.5,130.5C 359.5,126.167 359.5,121.833 359.5,117.5C 367.833,117.5 376.167,117.5 384.5,117.5 Z"/></g>
<g><path style="opacity:1" fill="#000100" d="M 397.5,105.5 C 397.5,109.833 397.5,114.167 397.5,118.5C 393.5,118.5 389.5,118.5 385.5,118.5C 385.5,122.5 385.5,126.5 385.5,130.5C 381.167,130.5 376.833,130.5 372.5,130.5C 372.5,126.5 372.5,122.5 372.5,118.5C 376.702,118.817 380.702,118.483 384.5,117.5C 384.5,113.5 384.5,109.5 384.5,105.5C 388.833,105.5 393.167,105.5 397.5,105.5 Z"/></g>
<g><path style="opacity:1" fill="#113800" d="M 104.5,130.5 C 108.833,130.5 113.167,130.5 117.5,130.5C 117.5,138.833 117.5,147.167 117.5,155.5C 113.167,155.5 108.833,155.5 104.5,155.5C 104.5,147.167 104.5,138.833 104.5,130.5 Z"/></g>
<g><path style="opacity:1" fill="#3a8a0f" d="M 168.5,130.5 C 172.833,130.5 177.167,130.5 181.5,130.5C 181.5,134.833 181.5,139.167 181.5,143.5C 177.167,143.5 172.833,143.5 168.5,143.5C 168.5,139.167 168.5,134.833 168.5,130.5 Z"/></g>
<g><path style="opacity:1" fill="#d8ae24" d="M 219.5,130.5 C 223.833,130.5 228.167,130.5 232.5,130.5C 232.5,134.833 232.5,139.167 232.5,143.5C 232.5,147.5 232.5,151.5 232.5,155.5C 228.167,155.5 223.833,155.5 219.5,155.5C 219.5,147.167 219.5,138.833 219.5,130.5 Z"/></g>
<g><path style="opacity:1" fill="#312e2a" d="M 244.5,105.5 C 244.833,105.5 245.167,105.5 245.5,105.5C 245.5,109.5 245.5,113.5 245.5,117.5C 245.5,121.833 245.5,126.167 245.5,130.5C 249.5,130.5 253.5,130.5 257.5,130.5C 257.5,134.5 257.5,138.5 257.5,142.5C 253.5,142.5 249.5,142.5 245.5,142.5C 245.5,151.167 245.5,159.833 245.5,168.5C 245.167,168.5 244.833,168.5 244.5,168.5C 244.5,160.167 244.5,151.833 244.5,143.5C 240.5,143.5 236.5,143.5 232.5,143.5C 232.5,139.167 232.5,134.833 232.5,130.5C 236.5,130.5 240.5,130.5 244.5,130.5C 244.5,122.167 244.5,113.833 244.5,105.5 Z"/></g>
<g><path style="opacity:1" fill="#000000" d="M 359.5,130.5 C 363.833,130.5 368.167,130.5 372.5,130.5C 372.5,134.833 372.5,139.167 372.5,143.5C 368.167,143.5 363.833,143.5 359.5,143.5C 359.5,139.167 359.5,134.833 359.5,130.5 Z"/></g>
<g><path style="opacity:1" fill="#e0c163" d="M 232.5,143.5 C 236.5,143.5 240.5,143.5 244.5,143.5C 244.5,151.833 244.5,160.167 244.5,168.5C 240.5,168.5 236.5,168.5 232.5,168.5C 232.5,164.167 232.5,159.833 232.5,155.5C 232.5,151.5 232.5,147.5 232.5,143.5 Z"/></g>
<g><path style="opacity:1" fill="#000000" d="M 257.5,142.5 C 257.5,151.167 257.5,159.833 257.5,168.5C 253.5,168.5 249.5,168.5 245.5,168.5C 245.5,159.833 245.5,151.167 245.5,142.5C 249.5,142.5 253.5,142.5 257.5,142.5 Z"/></g>
<g><path style="opacity:1" fill="#123800" d="M 333.5,130.5 C 333.5,138.833 333.5,147.167 333.5,155.5C 329.5,155.5 325.5,155.5 321.5,155.5C 321.5,168.167 321.5,180.833 321.5,193.5C 317.167,193.5 312.833,193.5 308.5,193.5C 308.171,180.656 308.505,167.989 309.5,155.5C 313.167,155.5 316.833,155.5 320.5,155.5C 320.5,147.167 320.5,138.833 320.5,130.5C 324.833,130.5 329.167,130.5 333.5,130.5 Z"/></g>
<g><path style="opacity:1" fill="#da8225" d="M 104.5,156.5 C 108.833,156.5 113.167,156.5 117.5,156.5C 117.5,164.833 117.5,173.167 117.5,181.5C 113.167,181.5 108.833,181.5 104.5,181.5C 104.5,173.167 104.5,164.833 104.5,156.5 Z"/></g>
<g><path style="opacity:1" fill="#8a7b19" d="M 104.5,156.5 C 104.5,156.167 104.5,155.833 104.5,155.5C 108.833,155.5 113.167,155.5 117.5,155.5C 117.833,155.5 118.167,155.5 118.5,155.5C 118.5,163.833 118.5,172.167 118.5,180.5C 118.5,180.833 118.5,181.167 118.5,181.5C 118.167,181.5 117.833,181.5 117.5,181.5C 117.5,173.167 117.5,164.833 117.5,156.5C 113.167,156.5 108.833,156.5 104.5,156.5 Z"/></g>
<g><path style="opacity:1" fill="#38890c" d="M 118.5,155.5 C 122.5,155.5 126.5,155.5 130.5,155.5C 130.5,163.833 130.5,172.167 130.5,180.5C 126.5,180.5 122.5,180.5 118.5,180.5C 118.5,172.167 118.5,163.833 118.5,155.5 Z"/></g>
<g><path style="opacity:1" fill="#d88425" d="M 219.5,155.5 C 223.833,155.5 228.167,155.5 232.5,155.5C 232.5,159.833 232.5,164.167 232.5,168.5C 228.167,168.5 223.833,168.5 219.5,168.5C 219.5,164.167 219.5,159.833 219.5,155.5 Z"/></g>
<g><path style="opacity:1" fill="#3b8a0e" d="M 219.5,168.5 C 223.833,168.5 228.167,168.5 232.5,168.5C 232.5,172.833 232.5,177.167 232.5,181.5C 228.167,181.5 223.833,181.5 219.5,181.5C 219.5,177.167 219.5,172.833 219.5,168.5 Z"/></g>
<g><path style="opacity:1" fill="#d0ab25" d="M 232.5,168.5 C 236.5,168.5 240.5,168.5 244.5,168.5C 244.833,168.5 245.167,168.5 245.5,168.5C 245.5,172.833 245.5,177.167 245.5,181.5C 245.5,185.5 245.5,189.5 245.5,193.5C 245.167,193.5 244.833,193.5 244.5,193.5C 240.5,193.5 236.5,193.5 232.5,193.5C 232.5,189.5 232.5,185.5 232.5,181.5C 232.5,177.167 232.5,172.833 232.5,168.5 Z"/></g>
<g><path style="opacity:1" fill="#dcba5d" d="M 245.5,168.5 C 249.5,168.5 253.5,168.5 257.5,168.5C 257.5,172.5 257.5,176.5 257.5,180.5C 261.833,180.5 266.167,180.5 270.5,180.5C 266.366,181.485 262.032,181.818 257.5,181.5C 253.5,181.5 249.5,181.5 245.5,181.5C 245.5,177.167 245.5,172.833 245.5,168.5 Z"/></g>
<g><path style="opacity:1" fill="#da8325" d="M 257.5,168.5 C 261.833,168.5 266.167,168.5 270.5,168.5C 270.5,172.5 270.5,176.5 270.5,180.5C 266.167,180.5 261.833,180.5 257.5,180.5C 257.5,176.5 257.5,172.5 257.5,168.5 Z"/></g>
<g><path style="opacity:1" fill="#34561d" d="M 334.5,168.5 C 334.5,177.167 334.5,185.833 334.5,194.5C 330.167,194.5 325.833,194.5 321.5,194.5C 321.5,194.167 321.5,193.833 321.5,193.5C 325.5,193.5 329.5,193.5 333.5,193.5C 333.174,184.983 333.507,176.65 334.5,168.5 Z"/></g>
<g><path style="opacity:1" fill="#000000" d="M 346.5,143.5 C 350.833,143.5 355.167,143.5 359.5,143.5C 359.5,151.833 359.5,160.167 359.5,168.5C 355.5,168.5 351.5,168.5 347.5,168.5C 347.5,177.167 347.5,185.833 347.5,194.5C 343.167,194.5 338.833,194.5 334.5,194.5C 334.5,185.833 334.5,177.167 334.5,168.5C 338.5,168.5 342.5,168.5 346.5,168.5C 346.5,160.167 346.5,151.833 346.5,143.5 Z"/></g>
<g><path style="opacity:1" fill="#e1c064" d="M 117.5,181.5 C 117.833,181.5 118.167,181.5 118.5,181.5C 122.5,181.5 126.5,181.5 130.5,181.5C 130.5,185.5 130.5,189.5 130.5,193.5C 126.167,193.5 121.833,193.5 117.5,193.5C 117.5,189.5 117.5,185.5 117.5,181.5 Z"/></g>
<g><path style="opacity:1" fill="#38890b" d="M 143.5,193.5 C 139.5,193.5 135.5,193.5 131.5,193.5C 131.5,189.5 131.5,185.5 131.5,181.5C 139.5,181.5 147.5,181.5 155.5,181.5C 155.5,185.5 155.5,189.5 155.5,193.5C 151.5,193.5 147.5,193.5 143.5,193.5 Z"/></g>
<g><path style="opacity:1" fill="#88cd56" d="M 156.5,181.5 C 164.833,181.5 173.167,181.5 181.5,181.5C 181.5,189.833 181.5,198.167 181.5,206.5C 177.167,206.5 172.833,206.5 168.5,206.5C 168.5,210.833 168.5,215.167 168.5,219.5C 164.5,219.5 160.5,219.5 156.5,219.5C 156.5,206.833 156.5,194.167 156.5,181.5 Z"/></g>
<g><path style="opacity:1" fill="#38890b" d="M 232.5,181.5 C 236.5,181.5 240.5,181.5 244.5,181.5C 244.5,185.5 244.5,189.5 244.5,193.5C 244.5,189.5 244.5,185.5 244.5,181.5C 240.5,181.5 236.5,181.5 232.5,181.5 Z"/></g>
<g><path style="opacity:1" fill="#d98324" d="M 245.5,181.5 C 249.5,181.5 253.5,181.5 257.5,181.5C 257.5,185.5 257.5,189.5 257.5,193.5C 253.5,193.5 249.5,193.5 245.5,193.5C 245.5,189.5 245.5,185.5 245.5,181.5 Z"/></g>
<g><path style="opacity:1" fill="#3c890e" d="M 117.5,193.5 C 121.833,193.5 126.167,193.5 130.5,193.5C 130.5,197.833 130.5,202.167 130.5,206.5C 126.167,206.5 121.833,206.5 117.5,206.5C 117.5,202.167 117.5,197.833 117.5,193.5 Z"/></g>
<g><path style="opacity:1" fill="#133a00" d="M 130.5,193.5 C 130.833,193.5 131.167,193.5 131.5,193.5C 135.5,193.5 139.5,193.5 143.5,193.5C 143.5,202.167 143.5,210.833 143.5,219.5C 139.167,219.5 134.833,219.5 130.5,219.5C 130.5,215.167 130.5,210.833 130.5,206.5C 130.5,202.167 130.5,197.833 130.5,193.5 Z"/></g>
<g><path style="opacity:1" fill="#256106" d="M 295.5,193.5 C 291.702,194.483 287.702,194.817 283.5,194.5C 283.5,198.5 283.5,202.5 283.5,206.5C 283.5,210.5 283.5,214.5 283.5,218.5C 282.517,214.702 282.183,210.702 282.5,206.5C 282.5,202.167 282.5,197.833 282.5,193.5C 286.833,193.5 291.167,193.5 295.5,193.5 Z"/></g>
<g><path style="opacity:1" fill="#133600" d="M 295.5,117.5 C 295.833,117.5 296.167,117.5 296.5,117.5C 296.5,142.833 296.5,168.167 296.5,193.5C 300.5,193.5 304.5,193.5 308.5,193.5C 308.5,193.833 308.5,194.167 308.5,194.5C 308.5,198.5 308.5,202.5 308.5,206.5C 304.5,206.5 300.5,206.5 296.5,206.5C 296.5,210.5 296.5,214.5 296.5,218.5C 300.5,218.5 304.5,218.5 308.5,218.5C 308.5,218.833 308.5,219.167 308.5,219.5C 304.5,219.5 300.5,219.5 296.5,219.5C 296.5,227.833 296.5,236.167 296.5,244.5C 296.5,252.833 296.5,261.167 296.5,269.5C 300.702,269.183 304.702,269.517 308.5,270.5C 304.167,270.5 299.833,270.5 295.5,270.5C 295.5,261.833 295.5,253.167 295.5,244.5C 295.5,240.167 295.5,235.833 295.5,231.5C 295.5,227.5 295.5,223.5 295.5,219.5C 295.5,215.167 295.5,210.833 295.5,206.5C 291.5,206.5 287.5,206.5 283.5,206.5C 283.5,202.5 283.5,198.5 283.5,194.5C 287.702,194.817 291.702,194.483 295.5,193.5C 295.5,168.167 295.5,142.833 295.5,117.5 Z"/></g>
<g><path style="opacity:1" fill="#74b93d" d="M 308.5,194.5 C 312.5,194.5 316.5,194.5 320.5,194.5C 320.5,202.5 320.5,210.5 320.5,218.5C 316.5,218.5 312.5,218.5 308.5,218.5C 308.5,214.5 308.5,210.5 308.5,206.5C 308.5,202.5 308.5,198.5 308.5,194.5 Z"/></g>
<g><path style="opacity:1" fill="#54872f" d="M 308.5,194.5 C 308.5,194.167 308.5,193.833 308.5,193.5C 312.833,193.5 317.167,193.5 321.5,193.5C 321.5,193.833 321.5,194.167 321.5,194.5C 321.5,202.833 321.5,211.167 321.5,219.5C 317.167,219.5 312.833,219.5 308.5,219.5C 308.5,219.167 308.5,218.833 308.5,218.5C 312.5,218.5 316.5,218.5 320.5,218.5C 320.5,210.5 320.5,202.5 320.5,194.5C 316.5,194.5 312.5,194.5 308.5,194.5 Z"/></g>
<g><path style="opacity:1" fill="#000000" d="M 321.5,194.5 C 325.833,194.5 330.167,194.5 334.5,194.5C 334.5,202.833 334.5,211.167 334.5,219.5C 330.167,219.5 325.833,219.5 321.5,219.5C 321.5,211.167 321.5,202.833 321.5,194.5 Z"/></g>
<g><path style="opacity:1" fill="#3b8712" d="M 257.5,206.5 C 257.5,210.833 257.5,215.167 257.5,219.5C 253.5,219.5 249.5,219.5 245.5,219.5C 236.833,219.5 228.167,219.5 219.5,219.5C 227.984,218.507 236.651,218.174 245.5,218.5C 245.5,214.5 245.5,210.5 245.5,206.5C 249.5,206.5 253.5,206.5 257.5,206.5 Z"/></g>
<g><path style="opacity:1" fill="#163801" d="M 257.5,206.5 C 265.833,206.5 274.167,206.5 282.5,206.5C 282.183,210.702 282.517,214.702 283.5,218.5C 283.5,218.833 283.5,219.167 283.5,219.5C 279.167,219.5 274.833,219.5 270.5,219.5C 266.167,219.5 261.833,219.5 257.5,219.5C 257.5,215.167 257.5,210.833 257.5,206.5 Z"/></g>
<g><path style="opacity:1" fill="#39860c" d="M 283.5,206.5 C 287.5,206.5 291.5,206.5 295.5,206.5C 295.5,210.833 295.5,215.167 295.5,219.5C 291.5,219.5 287.5,219.5 283.5,219.5C 283.5,219.167 283.5,218.833 283.5,218.5C 283.5,214.5 283.5,210.5 283.5,206.5 Z"/></g>
<g><path style="opacity:1" fill="#000000" d="M 308.5,206.5 C 308.5,210.5 308.5,214.5 308.5,218.5C 304.5,218.5 300.5,218.5 296.5,218.5C 296.5,214.5 296.5,210.5 296.5,206.5C 300.5,206.5 304.5,206.5 308.5,206.5 Z"/></g>
<g><path style="opacity:1" fill="#000000" d="M 651.5,231.5 C 651.5,235.833 651.5,240.167 651.5,244.5C 647.167,244.5 642.833,244.5 638.5,244.5C 638.5,240.5 638.5,236.5 638.5,232.5C 626.011,231.505 613.344,231.171 600.5,231.5C 600.5,227.167 600.5,222.833 600.5,218.5C 613.5,218.5 626.5,218.5 639.5,218.5C 639.5,222.833 639.5,227.167 639.5,231.5C 643.5,231.5 647.5,231.5 651.5,231.5 Z"/></g>
<g><path style="opacity:1" fill="#000100" d="M 219.5,219.5 C 228.167,219.5 236.833,219.5 245.5,219.5C 245.5,223.5 245.5,227.5 245.5,231.5C 236.833,231.5 228.167,231.5 219.5,231.5C 219.5,227.5 219.5,223.5 219.5,219.5 Z"/></g>
<g><path style="opacity:1" fill="#123800" d="M 245.5,219.5 C 249.5,219.5 253.5,219.5 257.5,219.5C 257.5,223.5 257.5,227.5 257.5,231.5C 253.5,231.5 249.5,231.5 245.5,231.5C 245.5,227.5 245.5,223.5 245.5,219.5 Z"/></g>
<g><path style="opacity:1" fill="#7b0e0c" d="M 257.5,219.5 C 261.833,219.5 266.167,219.5 270.5,219.5C 270.5,227.833 270.5,236.167 270.5,244.5C 266.167,244.5 261.833,244.5 257.5,244.5C 257.5,240.5 257.5,236.5 257.5,232.5C 249.167,232.5 240.833,232.5 232.5,232.5C 232.5,236.5 232.5,240.5 232.5,244.5C 228.167,244.5 223.833,244.5 219.5,244.5C 219.5,240.167 219.5,235.833 219.5,231.5C 228.167,231.5 236.833,231.5 245.5,231.5C 249.5,231.5 253.5,231.5 257.5,231.5C 257.5,227.5 257.5,223.5 257.5,219.5 Z"/></g>
<g><path style="opacity:1" fill="#c34848" d="M 270.5,219.5 C 274.833,219.5 279.167,219.5 283.5,219.5C 283.5,223.5 283.5,227.5 283.5,231.5C 283.5,235.833 283.5,240.167 283.5,244.5C 279.167,244.5 274.833,244.5 270.5,244.5C 270.5,236.167 270.5,227.833 270.5,219.5 Z"/></g>
<g><path style="opacity:1" fill="#7c0c0b" d="M 283.5,219.5 C 287.5,219.5 291.5,219.5 295.5,219.5C 295.5,223.5 295.5,227.5 295.5,231.5C 291.5,231.5 287.5,231.5 283.5,231.5C 283.5,227.5 283.5,223.5 283.5,219.5 Z"/></g>
<g><path style="opacity:1" fill="#38890b" d="M 308.5,219.5 C 308.5,227.833 308.5,236.167 308.5,244.5C 304.5,244.5 300.5,244.5 296.5,244.5C 296.5,236.167 296.5,227.833 296.5,219.5C 300.5,219.5 304.5,219.5 308.5,219.5 Z"/></g>
<g><path style="opacity:1" fill="#052412" d="M 575.5,231.5 C 562.5,231.5 549.5,231.5 536.5,231.5C 536.5,227.167 536.5,222.833 536.5,218.5C 549.5,218.5 562.5,218.5 575.5,218.5C 575.5,222.833 575.5,227.167 575.5,231.5 Z"/></g>
<g><path style="opacity:1" fill="#000100" d="M 587.5,231.5 C 591.833,231.5 596.167,231.5 600.5,231.5C 600.5,235.833 600.5,240.167 600.5,244.5C 596.167,244.5 591.833,244.5 587.5,244.5C 587.5,240.167 587.5,235.833 587.5,231.5 Z"/></g>
<g><path style="opacity:1" fill="#06341a" d="M 600.5,231.5 C 613.344,231.171 626.011,231.505 638.5,232.5C 626.167,232.5 613.833,232.5 601.5,232.5C 601.817,236.702 601.483,240.702 600.5,244.5C 600.5,240.167 600.5,235.833 600.5,231.5 Z"/></g>
<g><path style="opacity:1" fill="#398a0d" d="M 130.5,219.5 C 134.833,219.5 139.167,219.5 143.5,219.5C 143.5,223.5 143.5,227.5 143.5,231.5C 147.833,231.5 152.167,231.5 156.5,231.5C 156.5,235.833 156.5,240.167 156.5,244.5C 152.167,244.5 147.833,244.5 143.5,244.5C 143.5,240.5 143.5,236.5 143.5,232.5C 139.167,232.5 134.833,232.5 130.5,232.5C 130.5,228.167 130.5,223.833 130.5,219.5 Z"/></g>
<g><path style="opacity:1" fill="#153c03" d="M 194.5,244.5 C 190.167,244.5 185.833,244.5 181.5,244.5C 181.5,240.167 181.5,235.833 181.5,231.5C 185.833,231.5 190.167,231.5 194.5,231.5C 194.5,235.833 194.5,240.167 194.5,244.5 Z"/></g>
<g><path style="opacity:1" fill="#3b8b0f" d="M 219.5,231.5 C 219.5,235.833 219.5,240.167 219.5,244.5C 215.5,244.5 211.5,244.5 207.5,244.5C 207.167,244.5 206.833,244.5 206.5,244.5C 206.5,240.167 206.5,235.833 206.5,231.5C 210.833,231.5 215.167,231.5 219.5,231.5 Z"/></g>
<g><path style="opacity:1" fill="#ba2a2a" d="M 257.5,244.5 C 253.167,244.5 248.833,244.5 244.5,244.5C 244.5,248.833 244.5,253.167 244.5,257.5C 240.5,257.5 236.5,257.5 232.5,257.5C 228.167,257.5 223.833,257.5 219.5,257.5C 219.5,253.167 219.5,248.833 219.5,244.5C 223.833,244.5 228.167,244.5 232.5,244.5C 232.5,240.5 232.5,236.5 232.5,232.5C 240.833,232.5 249.167,232.5 257.5,232.5C 257.5,236.5 257.5,240.5 257.5,244.5 Z"/></g>
<g><path style="opacity:1" fill="#050000" d="M 283.5,231.5 C 287.5,231.5 291.5,231.5 295.5,231.5C 295.5,235.833 295.5,240.167 295.5,244.5C 291.5,244.5 287.5,244.5 283.5,244.5C 283.5,240.167 283.5,235.833 283.5,231.5 Z"/></g>
<g><path style="opacity:1" fill="#052412" d="M 536.5,231.5 C 536.5,235.833 536.5,240.167 536.5,244.5C 532.5,244.5 528.5,244.5 524.5,244.5C 524.5,240.167 524.5,235.833 524.5,231.5C 528.5,231.5 532.5,231.5 536.5,231.5 Z"/></g>
<g><path style="opacity:1" fill="#0b552a" d="M 536.5,231.5 C 549.5,231.5 562.5,231.5 575.5,231.5C 575.5,240.167 575.5,248.833 575.5,257.5C 558.5,257.5 541.5,257.5 524.5,257.5C 524.5,253.167 524.5,248.833 524.5,244.5C 528.5,244.5 532.5,244.5 536.5,244.5C 536.5,240.167 536.5,235.833 536.5,231.5 Z"/></g>
<g><path style="opacity:1" fill="#052512" d="M 575.5,231.5 C 579.5,231.5 583.5,231.5 587.5,231.5C 587.5,235.833 587.5,240.167 587.5,244.5C 587.5,252.833 587.5,261.167 587.5,269.5C 596.167,269.5 604.833,269.5 613.5,269.5C 613.5,273.833 613.5,278.167 613.5,282.5C 609.167,282.5 604.833,282.5 600.5,282.5C 592.167,282.5 583.833,282.5 575.5,282.5C 575.5,278.167 575.5,273.833 575.5,269.5C 558.5,269.5 541.5,269.5 524.5,269.5C 524.5,273.833 524.5,278.167 524.5,282.5C 516.167,282.5 507.833,282.5 499.5,282.5C 499.5,278.167 499.5,273.833 499.5,269.5C 503.5,269.5 507.5,269.5 511.5,269.5C 511.5,261.167 511.5,252.833 511.5,244.5C 515.833,244.5 520.167,244.5 524.5,244.5C 524.5,248.833 524.5,253.167 524.5,257.5C 541.5,257.5 558.5,257.5 575.5,257.5C 575.5,248.833 575.5,240.167 575.5,231.5 Z"/></g>
<g><path style="opacity:1" fill="#0b562a" d="M 638.5,232.5 C 638.5,236.5 638.5,240.5 638.5,244.5C 642.833,244.5 647.167,244.5 651.5,244.5C 651.5,261.5 651.5,278.5 651.5,295.5C 647.167,295.5 642.833,295.5 638.5,295.5C 638.5,303.833 638.5,312.167 638.5,320.5C 634.5,320.5 630.5,320.5 626.5,320.5C 625.507,328.65 625.174,336.983 625.5,345.5C 621.298,345.183 617.298,345.517 613.5,346.5C 613.5,350.5 613.5,354.5 613.5,358.5C 605.167,358.5 596.833,358.5 588.5,358.5C 588.5,362.833 588.5,367.167 588.5,371.5C 579.833,371.5 571.167,371.5 562.5,371.5C 562.5,375.833 562.5,380.167 562.5,384.5C 549.833,384.5 537.167,384.5 524.5,384.5C 524.5,388.5 524.5,392.5 524.5,396.5C 503.5,396.5 482.5,396.5 461.5,396.5C 461.5,392.167 461.5,387.833 461.5,383.5C 452.833,383.5 444.167,383.5 435.5,383.5C 435.5,379.5 435.5,375.5 435.5,371.5C 439.833,371.5 444.167,371.5 448.5,371.5C 448.5,354.5 448.5,337.5 448.5,320.5C 444.167,320.5 439.833,320.5 435.5,320.5C 431.5,320.5 427.5,320.5 423.5,320.5C 423.5,316.167 423.5,311.833 423.5,307.5C 414.833,307.5 406.167,307.5 397.5,307.5C 397.5,303.5 397.5,299.5 397.5,295.5C 401.5,295.5 405.5,295.5 409.5,295.5C 413.833,295.5 418.167,295.5 422.5,295.5C 423.483,291.702 423.817,287.702 423.5,283.5C 436.167,283.5 448.833,283.5 461.5,283.5C 461.5,279.167 461.5,274.833 461.5,270.5C 473.833,270.5 486.167,270.5 498.5,270.5C 498.5,274.5 498.5,278.5 498.5,282.5C 490.167,282.5 481.833,282.5 473.5,282.5C 473.5,286.833 473.5,291.167 473.5,295.5C 477.833,295.5 482.167,295.5 486.5,295.5C 486.5,299.5 486.5,303.5 486.5,307.5C 490.833,307.5 495.167,307.5 499.5,307.5C 499.5,316.167 499.5,324.833 499.5,333.5C 503.5,333.5 507.5,333.5 511.5,333.5C 511.5,337.833 511.5,342.167 511.5,346.5C 515.833,346.5 520.167,346.5 524.5,346.5C 524.5,342.167 524.5,337.833 524.5,333.5C 528.833,333.5 533.167,333.5 537.5,333.5C 537.5,337.833 537.5,342.167 537.5,346.5C 541.5,346.5 545.5,346.5 549.5,346.5C 549.5,342.167 549.5,337.833 549.5,333.5C 553.833,333.5 558.167,333.5 562.5,333.5C 562.5,329.167 562.5,324.833 562.5,320.5C 566.833,320.5 571.167,320.5 575.5,320.5C 575.5,316.167 575.5,311.833 575.5,307.5C 579.833,307.5 584.167,307.5 588.5,307.5C 588.5,303.5 588.5,299.5 588.5,295.5C 592.5,295.5 596.5,295.5 600.5,295.5C 600.5,291.167 600.5,286.833 600.5,282.5C 604.833,282.5 609.167,282.5 613.5,282.5C 613.5,278.167 613.5,273.833 613.5,269.5C 604.833,269.5 596.167,269.5 587.5,269.5C 587.5,261.167 587.5,252.833 587.5,244.5C 591.833,244.5 596.167,244.5 600.5,244.5C 601.483,240.702 601.817,236.702 601.5,232.5C 613.833,232.5 626.167,232.5 638.5,232.5 Z"/></g>
<g><path style="opacity:1" fill="#123a00" d="M 143.5,244.5 C 147.833,244.5 152.167,244.5 156.5,244.5C 156.818,249.032 156.485,253.366 155.5,257.5C 151.5,257.5 147.5,257.5 143.5,257.5C 143.5,253.167 143.5,248.833 143.5,244.5 Z"/></g>
<g><path style="opacity:1" fill="#39890e" d="M 156.5,244.5 C 160.5,244.5 164.5,244.5 168.5,244.5C 168.5,248.5 168.5,252.5 168.5,256.5C 172.833,256.5 177.167,256.5 181.5,256.5C 181.5,256.833 181.5,257.167 181.5,257.5C 177.167,257.5 172.833,257.5 168.5,257.5C 168.5,261.833 168.5,266.167 168.5,270.5C 164.167,270.5 159.833,270.5 155.5,270.5C 155.5,266.167 155.5,261.833 155.5,257.5C 156.485,253.366 156.818,249.032 156.5,244.5 Z"/></g>
<g><path style="opacity:1" fill="#38890b" d="M 194.5,244.5 C 198.5,244.5 202.5,244.5 206.5,244.5C 206.5,248.5 206.5,252.5 206.5,256.5C 202.5,256.5 198.5,256.5 194.5,256.5C 194.5,252.5 194.5,248.5 194.5,244.5 Z"/></g>
<g><path style="opacity:1" fill="#020000" d="M 207.5,244.5 C 211.5,244.5 215.5,244.5 219.5,244.5C 219.5,248.833 219.5,253.167 219.5,257.5C 215.5,257.5 211.5,257.5 207.5,257.5C 207.5,253.167 207.5,248.833 207.5,244.5 Z"/></g>
<g><path style="opacity:1" fill="#7f0d0d" d="M 257.5,244.5 C 257.5,248.833 257.5,253.167 257.5,257.5C 253.167,257.5 248.833,257.5 244.5,257.5C 244.5,253.167 244.5,248.833 244.5,244.5C 248.833,244.5 253.167,244.5 257.5,244.5 Z"/></g>
<g><path style="opacity:1" fill="#c54848" d="M 257.5,244.5 C 261.833,244.5 266.167,244.5 270.5,244.5C 270.5,248.833 270.5,253.167 270.5,257.5C 266.167,257.5 261.833,257.5 257.5,257.5C 257.5,253.167 257.5,248.833 257.5,244.5 Z"/></g>
<g><path style="opacity:1" fill="#040500" d="M 270.5,244.5 C 274.833,244.5 279.167,244.5 283.5,244.5C 283.5,248.833 283.5,253.167 283.5,257.5C 279.167,257.5 274.833,257.5 270.5,257.5C 270.5,253.167 270.5,248.833 270.5,244.5 Z"/></g>
<g><path style="opacity:1" fill="#37880b" d="M 283.5,244.5 C 287.5,244.5 291.5,244.5 295.5,244.5C 295.5,253.167 295.5,261.833 295.5,270.5C 299.833,270.5 304.167,270.5 308.5,270.5C 308.5,274.5 308.5,278.5 308.5,282.5C 312.833,282.5 317.167,282.5 321.5,282.5C 321.5,286.833 321.5,291.167 321.5,295.5C 325.5,295.5 329.5,295.5 333.5,295.5C 333.5,299.833 333.5,304.167 333.5,308.5C 337.833,308.5 342.167,308.5 346.5,308.5C 346.5,312.5 346.5,316.5 346.5,320.5C 342.5,320.5 338.5,320.5 334.5,320.5C 333.517,324.298 333.183,328.298 333.5,332.5C 329.5,332.5 325.5,332.5 321.5,332.5C 321.5,324.167 321.5,315.833 321.5,307.5C 317.167,307.5 312.833,307.5 308.5,307.5C 308.5,303.5 308.5,299.5 308.5,295.5C 304.702,294.517 300.702,294.183 296.5,294.5C 296.817,290.298 296.483,286.298 295.5,282.5C 291.5,282.5 287.5,282.5 283.5,282.5C 283.5,274.167 283.5,265.833 283.5,257.5C 283.5,253.167 283.5,248.833 283.5,244.5 Z"/></g>
<g><path style="opacity:1" fill="#000000" d="M 308.5,219.5 C 312.833,219.5 317.167,219.5 321.5,219.5C 321.5,227.833 321.5,236.167 321.5,244.5C 317.5,244.5 313.5,244.5 309.5,244.5C 309.5,252.833 309.5,261.167 309.5,269.5C 313.5,269.5 317.5,269.5 321.5,269.5C 321.5,273.833 321.5,278.167 321.5,282.5C 317.167,282.5 312.833,282.5 308.5,282.5C 308.5,278.5 308.5,274.5 308.5,270.5C 304.702,269.517 300.702,269.183 296.5,269.5C 296.5,261.167 296.5,252.833 296.5,244.5C 300.5,244.5 304.5,244.5 308.5,244.5C 308.5,236.167 308.5,227.833 308.5,219.5 Z"/></g>
<g><path style="opacity:1" fill="#326d15" d="M 206.5,244.5 C 206.833,244.5 207.167,244.5 207.5,244.5C 207.5,248.833 207.5,253.167 207.5,257.5C 207.167,257.5 206.833,257.5 206.5,257.5C 202.5,257.5 198.5,257.5 194.5,257.5C 190.167,257.5 185.833,257.5 181.5,257.5C 181.5,257.167 181.5,256.833 181.5,256.5C 185.833,256.5 190.167,256.5 194.5,256.5C 198.5,256.5 202.5,256.5 206.5,256.5C 206.5,252.5 206.5,248.5 206.5,244.5 Z"/></g>
<g><path style="opacity:1" fill="#123a00" d="M 181.5,257.5 C 181.5,261.833 181.5,266.167 181.5,270.5C 177.167,270.5 172.833,270.5 168.5,270.5C 168.5,266.167 168.5,261.833 168.5,257.5C 172.833,257.5 177.167,257.5 181.5,257.5 Z"/></g>
<g><path style="opacity:1" fill="#000000" d="M 181.5,257.5 C 185.833,257.5 190.167,257.5 194.5,257.5C 194.818,262.032 194.485,266.366 193.5,270.5C 189.5,270.5 185.5,270.5 181.5,270.5C 181.5,266.167 181.5,261.833 181.5,257.5 Z"/></g>
<g><path style="opacity:1" fill="#143700" d="M 194.5,257.5 C 198.5,257.5 202.5,257.5 206.5,257.5C 206.5,261.5 206.5,265.5 206.5,269.5C 215.167,269.5 223.833,269.5 232.5,269.5C 232.5,269.833 232.5,270.167 232.5,270.5C 232.5,274.5 232.5,278.5 232.5,282.5C 219.5,282.5 206.5,282.5 193.5,282.5C 193.5,278.5 193.5,274.5 193.5,270.5C 194.485,266.366 194.818,262.032 194.5,257.5 Z"/></g>
<g><path style="opacity:1" fill="#7b0e0c" d="M 206.5,257.5 C 206.833,257.5 207.167,257.5 207.5,257.5C 211.5,257.5 215.5,257.5 219.5,257.5C 223.833,257.5 228.167,257.5 232.5,257.5C 232.5,261.5 232.5,265.5 232.5,269.5C 223.833,269.5 215.167,269.5 206.5,269.5C 206.5,265.5 206.5,261.5 206.5,257.5 Z"/></g>
<g><path style="opacity:1" fill="#c74b4a" d="M 232.5,257.5 C 236.5,257.5 240.5,257.5 244.5,257.5C 248.833,257.5 253.167,257.5 257.5,257.5C 257.5,261.5 257.5,265.5 257.5,269.5C 253.5,269.5 249.5,269.5 245.5,269.5C 241.167,269.5 236.833,269.5 232.5,269.5C 232.5,265.5 232.5,261.5 232.5,257.5 Z"/></g>
<g><path style="opacity:1" fill="#7d150f" d="M 257.5,257.5 C 261.833,257.5 266.167,257.5 270.5,257.5C 274.833,257.5 279.167,257.5 283.5,257.5C 283.5,265.833 283.5,274.167 283.5,282.5C 283.167,282.5 282.833,282.5 282.5,282.5C 282.5,278.167 282.5,273.833 282.5,269.5C 274.5,269.5 266.5,269.5 258.5,269.5C 258.5,278.167 258.5,286.833 258.5,295.5C 258.167,295.5 257.833,295.5 257.5,295.5C 257.5,287.167 257.5,278.833 257.5,270.5C 253.5,270.5 249.5,270.5 245.5,270.5C 245.5,270.167 245.5,269.833 245.5,269.5C 249.5,269.5 253.5,269.5 257.5,269.5C 257.5,265.5 257.5,261.5 257.5,257.5 Z"/></g>
<g><path style="opacity:1" fill="#052412" d="M 499.5,269.5 C 486.5,269.5 473.5,269.5 460.5,269.5C 460.5,265.167 460.5,260.833 460.5,256.5C 473.5,256.5 486.5,256.5 499.5,256.5C 499.5,260.833 499.5,265.167 499.5,269.5 Z"/></g>
<g><path style="opacity:1" fill="#000000" d="M 448.5,269.5 C 448.5,273.833 448.5,278.167 448.5,282.5C 439.833,282.5 431.167,282.5 422.5,282.5C 422.5,278.167 422.5,273.833 422.5,269.5C 431.167,269.5 439.833,269.5 448.5,269.5 Z"/></g>
<g><path style="opacity:1" fill="#064524" d="M 460.5,269.5 C 473.5,269.5 486.5,269.5 499.5,269.5C 499.5,273.833 499.5,278.167 499.5,282.5C 499.5,286.833 499.5,291.167 499.5,295.5C 495.167,295.5 490.833,295.5 486.5,295.5C 490.298,294.517 494.298,294.183 498.5,294.5C 498.5,290.5 498.5,286.5 498.5,282.5C 498.5,278.5 498.5,274.5 498.5,270.5C 486.167,270.5 473.833,270.5 461.5,270.5C 461.5,274.833 461.5,279.167 461.5,283.5C 448.833,283.5 436.167,283.5 423.5,283.5C 423.817,287.702 423.483,291.702 422.5,295.5C 422.5,291.167 422.5,286.833 422.5,282.5C 431.167,282.5 439.833,282.5 448.5,282.5C 452.5,282.5 456.5,282.5 460.5,282.5C 460.5,278.167 460.5,273.833 460.5,269.5 Z"/></g>
<g><path style="opacity:1" fill="#38890c" d="M 232.5,270.5 C 236.5,270.5 240.5,270.5 244.5,270.5C 244.5,278.5 244.5,286.5 244.5,294.5C 231.656,294.171 218.989,294.505 206.5,295.5C 206.5,299.5 206.5,303.5 206.5,307.5C 198.167,307.5 189.833,307.5 181.5,307.5C 181.5,303.5 181.5,299.5 181.5,295.5C 156.167,295.5 130.833,295.5 105.5,295.5C 105.5,299.5 105.5,303.5 105.5,307.5C 92.8333,307.5 80.1667,307.5 67.5,307.5C 63.1667,307.5 58.8333,307.5 54.5,307.5C 54.5,303.167 54.5,298.833 54.5,294.5C 71.1667,294.5 87.8333,294.5 104.5,294.5C 104.5,290.5 104.5,286.5 104.5,282.5C 134.167,282.5 163.833,282.5 193.5,282.5C 206.5,282.5 219.5,282.5 232.5,282.5C 232.5,278.5 232.5,274.5 232.5,270.5 Z"/></g>
<g><path style="opacity:1" fill="#2c550d" d="M 232.5,270.5 C 232.5,270.167 232.5,269.833 232.5,269.5C 236.833,269.5 241.167,269.5 245.5,269.5C 245.5,269.833 245.5,270.167 245.5,270.5C 245.5,278.833 245.5,287.167 245.5,295.5C 232.833,295.5 220.167,295.5 207.5,295.5C 207.167,295.5 206.833,295.5 206.5,295.5C 218.989,294.505 231.656,294.171 244.5,294.5C 244.5,286.5 244.5,278.5 244.5,270.5C 240.5,270.5 236.5,270.5 232.5,270.5 Z"/></g>
<g><path style="opacity:1" fill="#010000" d="M 245.5,270.5 C 249.5,270.5 253.5,270.5 257.5,270.5C 257.5,278.833 257.5,287.167 257.5,295.5C 253.5,295.5 249.5,295.5 245.5,295.5C 245.5,287.167 245.5,278.833 245.5,270.5 Z"/></g>
<g><path style="opacity:1" fill="#b92a2a" d="M 282.5,282.5 C 278.5,282.5 274.5,282.5 270.5,282.5C 270.5,286.833 270.5,291.167 270.5,295.5C 266.5,295.5 262.5,295.5 258.5,295.5C 258.5,286.833 258.5,278.167 258.5,269.5C 266.5,269.5 274.5,269.5 282.5,269.5C 282.5,273.833 282.5,278.167 282.5,282.5 Z"/></g>
<g><path style="opacity:1" fill="#052412" d="M 448.5,269.5 C 452.5,269.5 456.5,269.5 460.5,269.5C 460.5,273.833 460.5,278.167 460.5,282.5C 456.5,282.5 452.5,282.5 448.5,282.5C 448.5,278.167 448.5,273.833 448.5,269.5 Z"/></g>
<g><path style="opacity:1" fill="#0c8749" d="M 600.5,282.5 C 600.5,286.833 600.5,291.167 600.5,295.5C 596.5,295.5 592.5,295.5 588.5,295.5C 588.5,299.5 588.5,303.5 588.5,307.5C 584.167,307.5 579.833,307.5 575.5,307.5C 575.5,311.833 575.5,316.167 575.5,320.5C 571.167,320.5 566.833,320.5 562.5,320.5C 562.5,324.833 562.5,329.167 562.5,333.5C 558.167,333.5 553.833,333.5 549.5,333.5C 549.5,329.167 549.5,324.833 549.5,320.5C 545.5,320.5 541.5,320.5 537.5,320.5C 537.5,324.833 537.5,329.167 537.5,333.5C 533.167,333.5 528.833,333.5 524.5,333.5C 524.5,329.167 524.5,324.833 524.5,320.5C 520.167,320.5 515.833,320.5 511.5,320.5C 511.5,324.833 511.5,329.167 511.5,333.5C 507.5,333.5 503.5,333.5 499.5,333.5C 499.5,324.833 499.5,316.167 499.5,307.5C 495.167,307.5 490.833,307.5 486.5,307.5C 486.5,303.5 486.5,299.5 486.5,295.5C 490.833,295.5 495.167,295.5 499.5,295.5C 499.5,291.167 499.5,286.833 499.5,282.5C 507.833,282.5 516.167,282.5 524.5,282.5C 524.5,278.167 524.5,273.833 524.5,269.5C 541.5,269.5 558.5,269.5 575.5,269.5C 575.5,273.833 575.5,278.167 575.5,282.5C 583.833,282.5 592.167,282.5 600.5,282.5 Z"/></g>
<g><path style="opacity:1" fill="#000200" d="M 410.5,282.5 C 410.769,286.931 410.436,291.265 409.5,295.5C 405.5,295.5 401.5,295.5 397.5,295.5C 397.5,295.167 397.5,294.833 397.5,294.5C 397.5,290.5 397.5,286.5 397.5,282.5C 401.833,282.5 406.167,282.5 410.5,282.5 Z"/></g>
<g><path style="opacity:1" fill="#052512" d="M 410.5,282.5 C 414.5,282.5 418.5,282.5 422.5,282.5C 422.5,286.833 422.5,291.167 422.5,295.5C 418.167,295.5 413.833,295.5 409.5,295.5C 410.436,291.265 410.769,286.931 410.5,282.5 Z"/></g>
<g><path style="opacity:1" fill="#c74a4a" d="M 282.5,282.5 C 282.5,286.833 282.5,291.167 282.5,295.5C 286.833,295.5 291.167,295.5 295.5,295.5C 295.833,295.5 296.167,295.5 296.5,295.5C 296.5,299.5 296.5,303.5 296.5,307.5C 300.5,307.5 304.5,307.5 308.5,307.5C 308.5,307.833 308.5,308.167 308.5,308.5C 308.5,312.5 308.5,316.5 308.5,320.5C 312.5,320.5 316.5,320.5 320.5,320.5C 320.5,324.833 320.5,329.167 320.5,333.5C 316.5,333.5 312.5,333.5 308.5,333.5C 308.5,337.5 308.5,341.5 308.5,345.5C 300.167,345.5 291.833,345.5 283.5,345.5C 283.5,349.833 283.5,354.167 283.5,358.5C 274.833,358.5 266.167,358.5 257.5,358.5C 257.5,354.5 257.5,350.5 257.5,346.5C 257.5,342.167 257.5,337.833 257.5,333.5C 253.167,333.5 248.833,333.5 244.5,333.5C 244.5,329.5 244.5,325.5 244.5,321.5C 244.5,316.833 244.5,312.167 244.5,307.5C 244.833,307.5 245.167,307.5 245.5,307.5C 249.5,307.5 253.5,307.5 257.5,307.5C 257.5,303.5 257.5,299.5 257.5,295.5C 257.833,295.5 258.167,295.5 258.5,295.5C 262.5,295.5 266.5,295.5 270.5,295.5C 270.5,291.167 270.5,286.833 270.5,282.5C 274.5,282.5 278.5,282.5 282.5,282.5 Z"/></g>
<g><path style="opacity:1" fill="#7f100f" d="M 282.5,282.5 C 282.833,282.5 283.167,282.5 283.5,282.5C 287.5,282.5 291.5,282.5 295.5,282.5C 295.5,286.833 295.5,291.167 295.5,295.5C 291.167,295.5 286.833,295.5 282.5,295.5C 282.5,291.167 282.5,286.833 282.5,282.5 Z"/></g>
<g><path style="opacity:1" fill="#052612" d="M 498.5,282.5 C 498.5,286.5 498.5,290.5 498.5,294.5C 494.298,294.183 490.298,294.517 486.5,295.5C 482.167,295.5 477.833,295.5 473.5,295.5C 473.5,291.167 473.5,286.833 473.5,282.5C 481.833,282.5 490.167,282.5 498.5,282.5 Z"/></g>
<g><path style="opacity:1" fill="#052713" d="M 613.5,282.5 C 617.833,282.5 622.167,282.5 626.5,282.5C 626.5,286.833 626.5,291.167 626.5,295.5C 622.167,295.5 617.833,295.5 613.5,295.5C 613.5,291.167 613.5,286.833 613.5,282.5 Z"/></g>
<g><path style="opacity:1" fill="#113800" d="M 54.5,294.5 C 54.5,298.833 54.5,303.167 54.5,307.5C 45.8333,307.5 37.1667,307.5 28.5,307.5C 28.5,303.167 28.5,298.833 28.5,294.5C 37.1667,294.5 45.8333,294.5 54.5,294.5 Z"/></g>
<g><path style="opacity:1" fill="#49630c" d="M 295.5,282.5 C 296.483,286.298 296.817,290.298 296.5,294.5C 300.702,294.183 304.702,294.517 308.5,295.5C 304.5,295.5 300.5,295.5 296.5,295.5C 296.167,295.5 295.833,295.5 295.5,295.5C 295.5,291.167 295.5,286.833 295.5,282.5 Z"/></g>
<g><path style="opacity:1" fill="#86cb54" d="M 181.5,307.5 C 177.167,307.5 172.833,307.5 168.5,307.5C 151.833,307.5 135.167,307.5 118.5,307.5C 118.5,311.833 118.5,316.167 118.5,320.5C 117.517,324.298 117.183,328.298 117.5,332.5C 113.5,332.5 109.5,332.5 105.5,332.5C 105.5,328.5 105.5,324.5 105.5,320.5C 92.8333,320.5 80.1667,320.5 67.5,320.5C 67.5,316.167 67.5,311.833 67.5,307.5C 80.1667,307.5 92.8333,307.5 105.5,307.5C 105.5,303.5 105.5,299.5 105.5,295.5C 130.833,295.5 156.167,295.5 181.5,295.5C 181.5,299.5 181.5,303.5 181.5,307.5 Z"/></g>
<g><path style="opacity:1" fill="#020000" d="M 207.5,295.5 C 220.167,295.5 232.833,295.5 245.5,295.5C 245.5,299.5 245.5,303.5 245.5,307.5C 245.167,307.5 244.833,307.5 244.5,307.5C 240.069,307.231 235.735,307.564 231.5,308.5C 223.5,308.5 215.5,308.5 207.5,308.5C 207.5,304.167 207.5,299.833 207.5,295.5 Z"/></g>
<g><path style="opacity:1" fill="#7c0c0b" d="M 245.5,295.5 C 249.5,295.5 253.5,295.5 257.5,295.5C 257.5,299.5 257.5,303.5 257.5,307.5C 253.5,307.5 249.5,307.5 245.5,307.5C 245.5,303.5 245.5,299.5 245.5,295.5 Z"/></g>
<g><path style="opacity:1" fill="#7c0c0b" d="M 296.5,295.5 C 300.5,295.5 304.5,295.5 308.5,295.5C 308.5,299.5 308.5,303.5 308.5,307.5C 304.5,307.5 300.5,307.5 296.5,307.5C 296.5,303.5 296.5,299.5 296.5,295.5 Z"/></g>
<g><path style="opacity:1" fill="#062512" d="M 397.5,294.5 C 397.5,294.833 397.5,295.167 397.5,295.5C 397.5,299.5 397.5,303.5 397.5,307.5C 406.167,307.5 414.833,307.5 423.5,307.5C 423.5,311.833 423.5,316.167 423.5,320.5C 427.5,320.5 431.5,320.5 435.5,320.5C 435.5,324.833 435.5,329.167 435.5,333.5C 431.167,333.5 426.833,333.5 422.5,333.5C 422.5,329.167 422.5,324.833 422.5,320.5C 422.5,316.5 422.5,312.5 422.5,308.5C 414.167,308.5 405.833,308.5 397.5,308.5C 397.5,312.5 397.5,316.5 397.5,320.5C 393.5,320.5 389.5,320.5 385.5,320.5C 385.167,320.5 384.833,320.5 384.5,320.5C 384.5,316.167 384.5,311.833 384.5,307.5C 380.167,307.5 375.833,307.5 371.5,307.5C 371.5,303.167 371.5,298.833 371.5,294.5C 380.167,294.5 388.833,294.5 397.5,294.5 Z"/></g>
<g><path style="opacity:1" fill="#062511" d="M 473.5,295.5 C 473.5,299.5 473.5,303.5 473.5,307.5C 469.5,307.5 465.5,307.5 461.5,307.5C 461.5,303.5 461.5,299.5 461.5,295.5C 465.5,295.5 469.5,295.5 473.5,295.5 Z"/></g>
<g><path style="opacity:1" fill="#1a3a0a" d="M 206.5,295.5 C 206.833,295.5 207.167,295.5 207.5,295.5C 207.5,299.833 207.5,304.167 207.5,308.5C 194.833,308.5 182.167,308.5 169.5,308.5C 169.817,312.702 169.483,316.702 168.5,320.5C 168.5,316.167 168.5,311.833 168.5,307.5C 172.833,307.5 177.167,307.5 181.5,307.5C 189.833,307.5 198.167,307.5 206.5,307.5C 206.5,303.5 206.5,299.5 206.5,295.5 Z"/></g>
<g><path style="opacity:1" fill="#1d4d06" d="M 333.5,295.5 C 334.483,299.298 334.817,303.298 334.5,307.5C 338.702,307.183 342.702,307.517 346.5,308.5C 342.167,308.5 337.833,308.5 333.5,308.5C 333.5,304.167 333.5,299.833 333.5,295.5 Z"/></g>
<g><path style="opacity:1" fill="#000100" d="M 321.5,282.5 C 325.833,282.5 330.167,282.5 334.5,282.5C 334.5,286.5 334.5,290.5 334.5,294.5C 338.833,294.5 343.167,294.5 347.5,294.5C 347.5,298.833 347.5,303.167 347.5,307.5C 355.5,307.5 363.5,307.5 371.5,307.5C 375.833,307.5 380.167,307.5 384.5,307.5C 384.5,311.833 384.5,316.167 384.5,320.5C 376.167,320.5 367.833,320.5 359.5,320.5C 359.5,324.833 359.5,329.167 359.5,333.5C 355.167,333.5 350.833,333.5 346.5,333.5C 342.5,333.5 338.5,333.5 334.5,333.5C 334.5,329.167 334.5,324.833 334.5,320.5C 338.5,320.5 342.5,320.5 346.5,320.5C 346.5,316.5 346.5,312.5 346.5,308.5C 342.702,307.517 338.702,307.183 334.5,307.5C 334.817,303.298 334.483,299.298 333.5,295.5C 329.5,295.5 325.5,295.5 321.5,295.5C 321.5,291.167 321.5,286.833 321.5,282.5 Z"/></g>
<g><path style="opacity:1" fill="#88ce56" d="M 54.5,308.5 C 54.5,312.5 54.5,316.5 54.5,320.5C 54.5,324.5 54.5,328.5 54.5,332.5C 46.1667,332.5 37.8333,332.5 29.5,332.5C 29.5,324.5 29.5,316.5 29.5,308.5C 37.8333,308.5 46.1667,308.5 54.5,308.5 Z"/></g>
<g><path style="opacity:1" fill="#143c02" d="M 54.5,307.5 C 58.8333,307.5 63.1667,307.5 67.5,307.5C 67.5,311.833 67.5,316.167 67.5,320.5C 63.1667,320.5 58.8333,320.5 54.5,320.5C 54.5,316.5 54.5,312.5 54.5,308.5C 54.5,308.167 54.5,307.833 54.5,307.5 Z"/></g>
<g><path style="opacity:1" fill="#76bb3e" d="M 168.5,307.5 C 168.5,311.833 168.5,316.167 168.5,320.5C 151.833,320.5 135.167,320.5 118.5,320.5C 118.5,316.167 118.5,311.833 118.5,307.5C 135.167,307.5 151.833,307.5 168.5,307.5 Z"/></g>
<g><path style="opacity:1" fill="#790b0b" d="M 244.5,307.5 C 244.5,312.167 244.5,316.833 244.5,321.5C 240.486,321.666 236.486,321.499 232.5,321C 231.536,316.934 231.203,312.767 231.5,308.5C 235.735,307.564 240.069,307.231 244.5,307.5 Z"/></g>
<g><path style="opacity:1" fill="#7d0c0c" d="M 308.5,308.5 C 312.5,308.5 316.5,308.5 320.5,308.5C 320.5,312.5 320.5,316.5 320.5,320.5C 320.5,316.5 320.5,312.5 320.5,308.5C 316.5,308.5 312.5,308.5 308.5,308.5 Z"/></g>
<g><path style="opacity:1" fill="#743917" d="M 308.5,308.5 C 308.5,308.167 308.5,307.833 308.5,307.5C 312.833,307.5 317.167,307.5 321.5,307.5C 321.5,315.833 321.5,324.167 321.5,332.5C 321.5,332.833 321.5,333.167 321.5,333.5C 321.167,333.5 320.833,333.5 320.5,333.5C 320.5,329.167 320.5,324.833 320.5,320.5C 320.5,316.5 320.5,312.5 320.5,308.5C 316.5,308.5 312.5,308.5 308.5,308.5 Z"/></g>
<g><path style="opacity:1" fill="#000000" d="M 422.5,320.5 C 414.167,320.5 405.833,320.5 397.5,320.5C 397.5,316.5 397.5,312.5 397.5,308.5C 405.833,308.5 414.167,308.5 422.5,308.5C 422.5,312.5 422.5,316.5 422.5,320.5 Z"/></g>
<g><path style="opacity:1" fill="#062511" d="M 448.5,320.5 C 448.5,316.5 448.5,312.5 448.5,308.5C 452.5,308.5 456.5,308.5 460.5,308.5C 460.5,312.5 460.5,316.5 460.5,320.5C 456.5,320.5 452.5,320.5 448.5,320.5 Z"/></g>
<g><path style="opacity:1" fill="#0c572a" d="M 524.5,320.5 C 524.5,316.5 524.5,312.5 524.5,308.5C 528.5,308.5 532.5,308.5 536.5,308.5C 536.5,312.5 536.5,316.5 536.5,320.5C 532.5,320.5 528.5,320.5 524.5,320.5 Z"/></g>
<g><path style="opacity:1" fill="#0c572a" d="M 562.5,320.5 C 558.5,320.5 554.5,320.5 550.5,320.5C 550.5,316.5 550.5,312.5 550.5,308.5C 554.5,308.5 558.5,308.5 562.5,308.5C 562.5,312.5 562.5,316.5 562.5,320.5 Z"/></g>
<g><path style="opacity:1" fill="#3d8c13" d="M 28.5,307.5 C 37.1667,307.5 45.8333,307.5 54.5,307.5C 54.5,307.833 54.5,308.167 54.5,308.5C 46.1667,308.5 37.8333,308.5 29.5,308.5C 29.5,316.5 29.5,324.5 29.5,332.5C 37.8333,332.5 46.1667,332.5 54.5,332.5C 58.8333,332.5 63.1667,332.5 67.5,332.5C 67.5,328.5 67.5,324.5 67.5,320.5C 80.1667,320.5 92.8333,320.5 105.5,320.5C 105.5,324.5 105.5,328.5 105.5,332.5C 100.968,332.182 96.6344,332.515 92.5,333.5C 84.1667,333.5 75.8333,333.5 67.5,333.5C 54.8333,333.5 42.1667,333.5 29.5,333.5C 29.5,337.5 29.5,341.5 29.5,345.5C 28.5166,341.702 28.1832,337.702 28.5,333.5C 24.5,333.5 20.5,333.5 16.5,333.5C 16.5,332.833 16.1667,332.5 15.5,332.5C 15.5,324.167 15.5,315.833 15.5,307.5C 19.8333,307.5 24.1667,307.5 28.5,307.5 Z"/></g>
<g><path style="opacity:1" fill="#73b93c" d="M 54.5,320.5 C 58.8333,320.5 63.1667,320.5 67.5,320.5C 67.5,324.5 67.5,328.5 67.5,332.5C 63.1667,332.5 58.8333,332.5 54.5,332.5C 54.5,328.5 54.5,324.5 54.5,320.5 Z"/></g>
<g><path style="opacity:1" fill="#000000" d="M 207.5,308.5 C 207.5,312.833 207.5,317.167 207.5,321.5C 194.833,321.5 182.167,321.5 169.5,321.5C 169.5,325.5 169.5,329.5 169.5,333.5C 152.5,333.5 135.5,333.5 118.5,333.5C 118.5,329.167 118.5,324.833 118.5,320.5C 135.167,320.5 151.833,320.5 168.5,320.5C 169.483,316.702 169.817,312.702 169.5,308.5C 182.167,308.5 194.833,308.5 207.5,308.5 Z"/></g>
<g><path style="opacity:1" fill="#88cd56" d="M 384.5,320.5 C 384.5,328.833 384.5,337.167 384.5,345.5C 376.167,345.5 367.833,345.5 359.5,345.5C 359.5,341.5 359.5,337.5 359.5,333.5C 359.5,329.167 359.5,324.833 359.5,320.5C 367.833,320.5 376.167,320.5 384.5,320.5 Z"/></g>
<g><path style="opacity:1" fill="#113800" d="M 385.5,320.5 C 389.5,320.5 393.5,320.5 397.5,320.5C 397.5,328.833 397.5,337.167 397.5,345.5C 393.5,345.5 389.5,345.5 385.5,345.5C 385.5,337.167 385.5,328.833 385.5,320.5 Z"/></g>
<g><path style="opacity:1" fill="#88cd56" d="M 397.5,320.5 C 405.833,320.5 414.167,320.5 422.5,320.5C 422.5,324.833 422.5,329.167 422.5,333.5C 422.5,337.5 422.5,341.5 422.5,345.5C 414.167,345.5 405.833,345.5 397.5,345.5C 397.5,337.167 397.5,328.833 397.5,320.5 Z"/></g>
<g><path style="opacity:1" fill="#000200" d="M 435.5,320.5 C 439.833,320.5 444.167,320.5 448.5,320.5C 448.5,337.5 448.5,354.5 448.5,371.5C 444.167,371.5 439.833,371.5 435.5,371.5C 435.5,371.167 435.5,370.833 435.5,370.5C 435.5,362.5 435.5,354.5 435.5,346.5C 435.5,342.167 435.5,337.833 435.5,333.5C 435.5,329.167 435.5,324.833 435.5,320.5 Z"/></g>
<g><path style="opacity:1" fill="#0c592c" d="M 524.5,320.5 C 524.5,324.833 524.5,329.167 524.5,333.5C 520.167,333.5 515.833,333.5 511.5,333.5C 511.5,329.167 511.5,324.833 511.5,320.5C 515.833,320.5 520.167,320.5 524.5,320.5 Z"/></g>
<g><path style="opacity:1" fill="#0c582b" d="M 549.5,333.5 C 545.5,333.5 541.5,333.5 537.5,333.5C 537.5,329.167 537.5,324.833 537.5,320.5C 541.5,320.5 545.5,320.5 549.5,320.5C 549.5,324.833 549.5,329.167 549.5,333.5 Z"/></g>
<g><path style="opacity:1" fill="#043017" d="M 626.5,320.5 C 626.5,329.167 626.5,337.833 626.5,346.5C 622.167,346.5 617.833,346.5 613.5,346.5C 617.298,345.517 621.298,345.183 625.5,345.5C 625.174,336.983 625.507,328.65 626.5,320.5 Z"/></g>
<g><path style="opacity:1" fill="#000000" d="M 651.5,295.5 C 651.5,304.167 651.5,312.833 651.5,321.5C 647.5,321.5 643.5,321.5 639.5,321.5C 639.5,329.833 639.5,338.167 639.5,346.5C 635.167,346.5 630.833,346.5 626.5,346.5C 626.5,337.833 626.5,329.167 626.5,320.5C 630.5,320.5 634.5,320.5 638.5,320.5C 638.5,312.167 638.5,303.833 638.5,295.5C 642.833,295.5 647.167,295.5 651.5,295.5 Z"/></g>
<g><path style="opacity:1" fill="#133901" d="M 15.5,332.5 C 16.1667,332.5 16.5,332.833 16.5,333.5C 16.5,341.833 16.5,350.167 16.5,358.5C 15.8333,358.5 15.5,358.833 15.5,359.5C 11.5,359.5 7.5,359.5 3.5,359.5C 3.5,350.5 3.5,341.5 3.5,332.5C 7.5,332.5 11.5,332.5 15.5,332.5 Z"/></g>
<g><path style="opacity:1" fill="#437424" d="M 118.5,320.5 C 118.5,324.833 118.5,329.167 118.5,333.5C 109.833,333.5 101.167,333.5 92.5,333.5C 96.6344,332.515 100.968,332.182 105.5,332.5C 109.5,332.5 113.5,332.5 117.5,332.5C 117.183,328.298 117.517,324.298 118.5,320.5 Z"/></g>
<g><path style="opacity:1" fill="#88cd56" d="M 16.5,333.5 C 20.5,333.5 24.5,333.5 28.5,333.5C 28.1832,337.702 28.5166,341.702 29.5,345.5C 33.2984,346.483 37.2984,346.817 41.5,346.5C 41.5,350.5 41.5,354.5 41.5,358.5C 33.1667,358.5 24.8333,358.5 16.5,358.5C 16.5,350.167 16.5,341.833 16.5,333.5 Z"/></g>
<g><path style="opacity:1" fill="#123801" d="M 67.5,333.5 C 67.5,341.833 67.5,350.167 67.5,358.5C 66.8333,358.5 66.5,358.833 66.5,359.5C 62.5,359.5 58.5,359.5 54.5,359.5C 54.5,363.5 54.5,367.5 54.5,371.5C 50.1667,371.5 45.8333,371.5 41.5,371.5C 41.5,367.167 41.5,362.833 41.5,358.5C 45.8333,358.5 50.1667,358.5 54.5,358.5C 54.5,354.167 54.5,349.833 54.5,345.5C 46.1667,345.5 37.8333,345.5 29.5,345.5C 29.5,341.5 29.5,337.5 29.5,333.5C 42.1667,333.5 54.8333,333.5 67.5,333.5 Z"/></g>
<g><path style="opacity:1" fill="#88ce56" d="M 67.5,333.5 C 75.8333,333.5 84.1667,333.5 92.5,333.5C 92.5,341.833 92.5,350.167 92.5,358.5C 84.1667,358.5 75.8333,358.5 67.5,358.5C 67.5,350.167 67.5,341.833 67.5,333.5 Z"/></g>
<g><path style="opacity:1" fill="#000100" d="M 92.5,333.5 C 101.167,333.5 109.833,333.5 118.5,333.5C 118.5,337.833 118.5,342.167 118.5,346.5C 114.167,346.5 109.833,346.5 105.5,346.5C 105.5,350.833 105.5,355.167 105.5,359.5C 101.5,359.5 97.5,359.5 93.5,359.5C 93.5,363.5 93.5,367.5 93.5,371.5C 84.5,371.5 75.5,371.5 66.5,371.5C 66.5,367.5 66.5,363.5 66.5,359.5C 66.5,358.833 66.8333,358.5 67.5,358.5C 75.8333,358.5 84.1667,358.5 92.5,358.5C 92.5,350.167 92.5,341.833 92.5,333.5 Z"/></g>
<g><path style="opacity:1" fill="#b82929" d="M 244.5,333.5 C 248.833,333.5 253.167,333.5 257.5,333.5C 257.5,337.833 257.5,342.167 257.5,346.5C 253.167,346.5 248.833,346.5 244.5,346.5C 244.5,342.167 244.5,337.833 244.5,333.5 Z"/></g>
<g><path style="opacity:1" fill="#7a0c0c" d="M 320.5,333.5 C 320.833,333.5 321.167,333.5 321.5,333.5C 321.5,337.833 321.5,342.167 321.5,346.5C 321.167,346.5 320.833,346.5 320.5,346.5C 316.702,345.517 312.702,345.183 308.5,345.5C 308.5,341.5 308.5,337.5 308.5,333.5C 312.5,333.5 316.5,333.5 320.5,333.5 Z"/></g>
<g><path style="opacity:1" fill="#000000" d="M 321.5,333.5 C 325.5,333.5 329.5,333.5 333.5,333.5C 333.5,341.833 333.5,350.167 333.5,358.5C 329.5,358.5 325.5,358.5 321.5,358.5C 321.5,354.5 321.5,350.5 321.5,346.5C 321.5,342.167 321.5,337.833 321.5,333.5 Z"/></g>
<g><path style="opacity:1" fill="#315a19" d="M 334.5,320.5 C 334.5,324.833 334.5,329.167 334.5,333.5C 334.5,341.833 334.5,350.167 334.5,358.5C 334.167,358.5 333.833,358.5 333.5,358.5C 333.5,350.167 333.5,341.833 333.5,333.5C 329.5,333.5 325.5,333.5 321.5,333.5C 321.5,333.167 321.5,332.833 321.5,332.5C 325.5,332.5 329.5,332.5 333.5,332.5C 333.183,328.298 333.517,324.298 334.5,320.5 Z"/></g>
<g><path style="opacity:1" fill="#143a01" d="M 346.5,333.5 C 350.833,333.5 355.167,333.5 359.5,333.5C 359.5,337.5 359.5,341.5 359.5,345.5C 355.167,345.5 350.833,345.5 346.5,345.5C 346.5,341.5 346.5,337.5 346.5,333.5 Z"/></g>
<g><path style="opacity:1" fill="#0c8648" d="M 511.5,333.5 C 515.833,333.5 520.167,333.5 524.5,333.5C 524.5,337.833 524.5,342.167 524.5,346.5C 520.167,346.5 515.833,346.5 511.5,346.5C 511.5,342.167 511.5,337.833 511.5,333.5 Z"/></g>
<g><path style="opacity:1" fill="#0c8749" d="M 537.5,333.5 C 541.5,333.5 545.5,333.5 549.5,333.5C 549.5,337.833 549.5,342.167 549.5,346.5C 545.5,346.5 541.5,346.5 537.5,346.5C 537.5,342.167 537.5,337.833 537.5,333.5 Z"/></g>
<g><path style="opacity:1" fill="#40721f" d="M 384.5,320.5 C 384.833,320.5 385.167,320.5 385.5,320.5C 385.5,328.833 385.5,337.167 385.5,345.5C 389.5,345.5 393.5,345.5 397.5,345.5C 405.833,345.5 414.167,345.5 422.5,345.5C 422.5,345.833 422.5,346.167 422.5,346.5C 414.167,346.5 405.833,346.5 397.5,346.5C 393.167,346.5 388.833,346.5 384.5,346.5C 376.167,346.5 367.833,346.5 359.5,346.5C 355.167,346.5 350.833,346.5 346.5,346.5C 346.5,346.167 346.5,345.833 346.5,345.5C 350.833,345.5 355.167,345.5 359.5,345.5C 367.833,345.5 376.167,345.5 384.5,345.5C 384.5,337.167 384.5,328.833 384.5,320.5 Z"/></g>
<g><path style="opacity:1" fill="#39860f" d="M 29.5,345.5 C 37.8333,345.5 46.1667,345.5 54.5,345.5C 54.5,349.833 54.5,354.167 54.5,358.5C 50.1667,358.5 45.8333,358.5 41.5,358.5C 41.5,354.5 41.5,350.5 41.5,346.5C 37.2984,346.817 33.2984,346.483 29.5,345.5 Z"/></g>
<g><path style="opacity:1" fill="#7d0c0c" d="M 244.5,346.5 C 248.833,346.5 253.167,346.5 257.5,346.5C 257.5,350.5 257.5,354.5 257.5,358.5C 266.167,358.5 274.833,358.5 283.5,358.5C 283.5,362.833 283.5,367.167 283.5,371.5C 279.167,371.5 274.833,371.5 270.5,371.5C 270.5,375.5 270.5,379.5 270.5,383.5C 266.167,383.5 261.833,383.5 257.5,383.5C 257.5,379.5 257.5,375.5 257.5,371.5C 253.167,371.5 248.833,371.5 244.5,371.5C 244.5,363.167 244.5,354.833 244.5,346.5 Z"/></g>
<g><path style="opacity:1" fill="#b82b2b" d="M 308.5,345.5 C 312.702,345.183 316.702,345.517 320.5,346.5C 316.5,346.5 312.5,346.5 308.5,346.5C 304.167,346.5 299.833,346.5 295.5,346.5C 295.5,350.5 295.5,354.5 295.5,358.5C 291.5,358.5 287.5,358.5 283.5,358.5C 283.5,354.167 283.5,349.833 283.5,345.5C 291.833,345.5 300.167,345.5 308.5,345.5 Z"/></g>
<g><path style="opacity:1" fill="#7e0d0d" d="M 308.5,346.5 C 308.5,350.5 308.5,354.5 308.5,358.5C 304.167,358.5 299.833,358.5 295.5,358.5C 295.5,354.5 295.5,350.5 295.5,346.5C 299.833,346.5 304.167,346.5 308.5,346.5 Z"/></g>
<g><path style="opacity:1" fill="#c34949" d="M 308.5,346.5 C 312.5,346.5 316.5,346.5 320.5,346.5C 320.833,346.5 321.167,346.5 321.5,346.5C 321.5,350.5 321.5,354.5 321.5,358.5C 317.167,358.5 312.833,358.5 308.5,358.5C 308.5,354.5 308.5,350.5 308.5,346.5 Z"/></g>
<g><path style="opacity:1" fill="#82c74e" d="M 334.5,333.5 C 338.5,333.5 342.5,333.5 346.5,333.5C 346.5,337.5 346.5,341.5 346.5,345.5C 346.5,345.833 346.5,346.167 346.5,346.5C 346.5,350.5 346.5,354.5 346.5,358.5C 342.5,358.5 338.5,358.5 334.5,358.5C 334.5,350.167 334.5,341.833 334.5,333.5 Z"/></g>
<g><path style="opacity:1" fill="#38880d" d="M 346.5,346.5 C 350.833,346.5 355.167,346.5 359.5,346.5C 359.5,350.5 359.5,354.5 359.5,358.5C 355.167,358.5 350.833,358.5 346.5,358.5C 346.5,354.5 346.5,350.5 346.5,346.5 Z"/></g>
<g><path style="opacity:1" fill="#113700" d="M 359.5,346.5 C 367.833,346.5 376.167,346.5 384.5,346.5C 384.5,350.5 384.5,354.5 384.5,358.5C 380.5,358.5 376.5,358.5 372.5,358.5C 372.5,362.833 372.5,367.167 372.5,371.5C 371.515,367.366 371.182,363.032 371.5,358.5C 367.5,358.5 363.5,358.5 359.5,358.5C 359.5,354.5 359.5,350.5 359.5,346.5 Z"/></g>
<g><path style="opacity:1" fill="#38880c" d="M 422.5,333.5 C 426.833,333.5 431.167,333.5 435.5,333.5C 435.5,337.833 435.5,342.167 435.5,346.5C 431.5,346.5 427.5,346.5 423.5,346.5C 423.5,354.5 423.5,362.5 423.5,370.5C 427.5,370.5 431.5,370.5 435.5,370.5C 435.5,370.833 435.5,371.167 435.5,371.5C 431.167,371.5 426.833,371.5 422.5,371.5C 422.5,384.167 422.5,396.833 422.5,409.5C 414.167,409.5 405.833,409.5 397.5,409.5C 397.5,405.167 397.5,400.833 397.5,396.5C 393.167,396.5 388.833,396.5 384.5,396.5C 384.5,388.167 384.5,379.833 384.5,371.5C 380.5,371.5 376.5,371.5 372.5,371.5C 372.5,367.167 372.5,362.833 372.5,358.5C 376.5,358.5 380.5,358.5 384.5,358.5C 384.5,354.5 384.5,350.5 384.5,346.5C 388.833,346.5 393.167,346.5 397.5,346.5C 397.5,350.5 397.5,354.5 397.5,358.5C 405.833,358.5 414.167,358.5 422.5,358.5C 422.5,354.5 422.5,350.5 422.5,346.5C 422.5,346.167 422.5,345.833 422.5,345.5C 422.5,341.5 422.5,337.5 422.5,333.5 Z"/></g>
<g><path style="opacity:1" fill="#123800" d="M 397.5,346.5 C 405.833,346.5 414.167,346.5 422.5,346.5C 422.5,350.5 422.5,354.5 422.5,358.5C 414.167,358.5 405.833,358.5 397.5,358.5C 397.5,354.5 397.5,350.5 397.5,346.5 Z"/></g>
<g><path style="opacity:1" fill="#75bb3d" d="M 435.5,346.5 C 435.5,354.5 435.5,362.5 435.5,370.5C 431.5,370.5 427.5,370.5 423.5,370.5C 423.5,362.5 423.5,354.5 423.5,346.5C 427.5,346.5 431.5,346.5 435.5,346.5 Z"/></g>
<g><path style="opacity:1" fill="#b92a2a" d="M 308.5,358.5 C 312.833,358.5 317.167,358.5 321.5,358.5C 325.5,358.5 329.5,358.5 333.5,358.5C 333.5,362.5 333.5,366.5 333.5,370.5C 329.298,370.183 325.298,370.517 321.5,371.5C 317.167,371.5 312.833,371.5 308.5,371.5C 308.5,367.167 308.5,362.833 308.5,358.5 Z"/></g>
<g><path style="opacity:1" fill="#000200" d="M 16.5,358.5 C 24.8333,358.5 33.1667,358.5 41.5,358.5C 41.5,362.833 41.5,367.167 41.5,371.5C 32.8333,371.5 24.1667,371.5 15.5,371.5C 15.5,367.5 15.5,363.5 15.5,359.5C 15.5,358.833 15.8333,358.5 16.5,358.5 Z"/></g>
<g><path style="opacity:1" fill="#c74949" d="M 283.5,358.5 C 287.5,358.5 291.5,358.5 295.5,358.5C 299.833,358.5 304.167,358.5 308.5,358.5C 308.5,362.833 308.5,367.167 308.5,371.5C 300.167,371.5 291.833,371.5 283.5,371.5C 283.5,367.167 283.5,362.833 283.5,358.5 Z"/></g>
<g><path style="opacity:1" fill="#123800" d="M 334.5,358.5 C 338.5,358.5 342.5,358.5 346.5,358.5C 350.833,358.5 355.167,358.5 359.5,358.5C 359.5,362.833 359.5,367.167 359.5,371.5C 355.167,371.5 350.833,371.5 346.5,371.5C 342.5,371.5 338.5,371.5 334.5,371.5C 334.5,367.167 334.5,362.833 334.5,358.5 Z"/></g>
<g><path style="opacity:1" fill="#000000" d="M 359.5,358.5 C 363.5,358.5 367.5,358.5 371.5,358.5C 371.182,363.032 371.515,367.366 372.5,371.5C 376.5,371.5 380.5,371.5 384.5,371.5C 384.5,379.833 384.5,388.167 384.5,396.5C 388.833,396.5 393.167,396.5 397.5,396.5C 397.5,400.833 397.5,405.167 397.5,409.5C 393.167,409.5 388.833,409.5 384.5,409.5C 384.5,405.5 384.5,401.5 384.5,397.5C 380.167,397.5 375.833,397.5 371.5,397.5C 371.5,393.167 371.5,388.833 371.5,384.5C 363.5,384.5 355.5,384.5 347.5,384.5C 347.5,392.5 347.5,400.5 347.5,408.5C 351.5,408.5 355.5,408.5 359.5,408.5C 359.5,412.833 359.5,417.167 359.5,421.5C 355.167,421.5 350.833,421.5 346.5,421.5C 346.5,417.5 346.5,413.5 346.5,409.5C 342.5,409.5 338.5,409.5 334.5,409.5C 334.5,401.167 334.5,392.833 334.5,384.5C 338.702,384.817 342.702,384.483 346.5,383.5C 346.5,379.5 346.5,375.5 346.5,371.5C 350.833,371.5 355.167,371.5 359.5,371.5C 359.5,367.167 359.5,362.833 359.5,358.5 Z"/></g>
<g><path style="opacity:1" fill="#000000" d="M 613.5,346.5 C 617.833,346.5 622.167,346.5 626.5,346.5C 626.5,350.833 626.5,355.167 626.5,359.5C 622.167,359.5 617.833,359.5 613.5,359.5C 613.5,363.5 613.5,367.5 613.5,371.5C 605.167,371.5 596.833,371.5 588.5,371.5C 588.5,367.167 588.5,362.833 588.5,358.5C 596.833,358.5 605.167,358.5 613.5,358.5C 613.5,354.5 613.5,350.5 613.5,346.5 Z"/></g>
<g><path style="opacity:1" fill="#843a20" d="M 333.5,358.5 C 333.833,358.5 334.167,358.5 334.5,358.5C 334.5,362.833 334.5,367.167 334.5,371.5C 330.167,371.5 325.833,371.5 321.5,371.5C 325.298,370.517 329.298,370.183 333.5,370.5C 333.5,366.5 333.5,362.5 333.5,358.5 Z"/></g>
<g><path style="opacity:1" fill="#b92a2a" d="M 283.5,371.5 C 291.833,371.5 300.167,371.5 308.5,371.5C 308.5,375.833 308.5,380.167 308.5,384.5C 300.167,384.5 291.833,384.5 283.5,384.5C 279.366,383.515 275.032,383.182 270.5,383.5C 270.5,379.5 270.5,375.5 270.5,371.5C 274.833,371.5 279.167,371.5 283.5,371.5 Z"/></g>
<g><path style="opacity:1" fill="#79190c" d="M 308.5,371.5 C 312.833,371.5 317.167,371.5 321.5,371.5C 321.5,375.833 321.5,380.167 321.5,384.5C 317.167,384.5 312.833,384.5 308.5,384.5C 308.5,380.167 308.5,375.833 308.5,371.5 Z"/></g>
<g><path style="opacity:1" fill="#38870c" d="M 321.5,371.5 C 325.833,371.5 330.167,371.5 334.5,371.5C 338.5,371.5 342.5,371.5 346.5,371.5C 346.5,375.5 346.5,379.5 346.5,383.5C 342.167,383.5 337.833,383.5 333.5,383.5C 333.174,392.349 333.507,401.016 334.5,409.5C 338.5,409.5 342.5,409.5 346.5,409.5C 346.5,413.5 346.5,417.5 346.5,421.5C 350.833,421.5 355.167,421.5 359.5,421.5C 359.5,425.833 359.5,430.167 359.5,434.5C 367.833,434.5 376.167,434.5 384.5,434.5C 384.5,438.833 384.5,443.167 384.5,447.5C 388.833,447.5 393.167,447.5 397.5,447.5C 397.5,451.833 397.5,456.167 397.5,460.5C 401.833,460.5 406.167,460.5 410.5,460.5C 410.5,468.833 410.5,477.167 410.5,485.5C 410.5,493.833 410.5,502.167 410.5,510.5C 410.167,510.5 409.833,510.5 409.5,510.5C 409.5,502.167 409.5,493.833 409.5,485.5C 409.5,481.167 409.5,476.833 409.5,472.5C 405.5,472.5 401.5,472.5 397.5,472.5C 397.5,476.833 397.5,481.167 397.5,485.5C 393.5,485.5 389.5,485.5 385.5,485.5C 385.5,493.833 385.5,502.167 385.5,510.5C 385.167,510.5 384.833,510.5 384.5,510.5C 384.5,502.167 384.5,493.833 384.5,485.5C 380.5,485.5 376.5,485.5 372.5,485.5C 372.5,493.833 372.5,502.167 372.5,510.5C 371.515,506.366 371.182,502.032 371.5,497.5C 367.5,497.5 363.5,497.5 359.5,497.5C 359.5,489.167 359.5,480.833 359.5,472.5C 363.833,472.5 368.167,472.5 372.5,472.5C 372.5,468.167 372.5,463.833 372.5,459.5C 368.167,459.5 363.833,459.5 359.5,459.5C 359.5,455.5 359.5,451.5 359.5,447.5C 355.167,447.5 350.833,447.5 346.5,447.5C 346.5,443.167 346.5,438.833 346.5,434.5C 342.5,434.5 338.5,434.5 334.5,434.5C 334.5,430.167 334.5,425.833 334.5,421.5C 325.833,421.5 317.167,421.5 308.5,421.5C 308.5,417.5 308.5,413.5 308.5,409.5C 304.167,409.5 299.833,409.5 295.5,409.5C 295.5,405.167 295.5,400.833 295.5,396.5C 299.833,396.5 304.167,396.5 308.5,396.5C 308.5,392.5 308.5,388.5 308.5,384.5C 312.833,384.5 317.167,384.5 321.5,384.5C 321.5,380.167 321.5,375.833 321.5,371.5 Z"/></g>
<g><path style="opacity:1" fill="#4e2511" d="M 257.5,384.5 C 257.5,384.167 257.5,383.833 257.5,383.5C 261.833,383.5 266.167,383.5 270.5,383.5C 275.032,383.182 279.366,383.515 283.5,384.5C 283.5,388.5 283.5,392.5 283.5,396.5C 283.167,396.5 282.833,396.5 282.5,396.5C 282.5,392.5 282.5,388.5 282.5,384.5C 278.5,384.5 274.5,384.5 270.5,384.5C 266.167,384.5 261.833,384.5 257.5,384.5 Z"/></g>
<g><path style="opacity:1" fill="#123800" d="M 270.5,384.5 C 274.5,384.5 278.5,384.5 282.5,384.5C 282.5,388.5 282.5,392.5 282.5,396.5C 278.5,396.5 274.5,396.5 270.5,396.5C 270.5,392.5 270.5,388.5 270.5,384.5 Z"/></g>
<g><path style="opacity:1" fill="#7c0c0b" d="M 283.5,384.5 C 291.833,384.5 300.167,384.5 308.5,384.5C 308.5,388.5 308.5,392.5 308.5,396.5C 304.167,396.5 299.833,396.5 295.5,396.5C 291.5,396.5 287.5,396.5 283.5,396.5C 283.5,392.5 283.5,388.5 283.5,384.5 Z"/></g>
<g><path style="opacity:1" fill="#194506" d="M 346.5,383.5 C 342.702,384.483 338.702,384.817 334.5,384.5C 334.5,392.833 334.5,401.167 334.5,409.5C 333.507,401.016 333.174,392.349 333.5,383.5C 337.833,383.5 342.167,383.5 346.5,383.5 Z"/></g>
<g><path style="opacity:1" fill="#000100" d="M 435.5,371.5 C 435.5,375.5 435.5,379.5 435.5,383.5C 443.65,384.493 451.983,384.826 460.5,384.5C 460.183,388.702 460.517,392.702 461.5,396.5C 482.5,396.5 503.5,396.5 524.5,396.5C 524.5,392.5 524.5,388.5 524.5,384.5C 537.167,384.5 549.833,384.5 562.5,384.5C 562.5,380.167 562.5,375.833 562.5,371.5C 571.167,371.5 579.833,371.5 588.5,371.5C 588.5,375.833 588.5,380.167 588.5,384.5C 580.167,384.5 571.833,384.5 563.5,384.5C 563.797,388.767 563.464,392.934 562.5,397C 549.838,397.5 537.171,397.667 524.5,397.5C 524.5,401.5 524.5,405.5 524.5,409.5C 503.167,409.5 481.833,409.5 460.5,409.5C 460.5,405.5 460.5,401.5 460.5,397.5C 452.5,397.5 444.5,397.5 436.5,397.5C 436.5,401.5 436.5,405.5 436.5,409.5C 432.167,409.5 427.833,409.5 423.5,409.5C 423.167,409.5 422.833,409.5 422.5,409.5C 422.5,396.833 422.5,384.167 422.5,371.5C 426.833,371.5 431.167,371.5 435.5,371.5 Z"/></g>
<g><path style="opacity:1" fill="#002b12" d="M 435.5,383.5 C 444.167,383.5 452.833,383.5 461.5,383.5C 461.5,387.833 461.5,392.167 461.5,396.5C 460.517,392.702 460.183,388.702 460.5,384.5C 451.983,384.826 443.65,384.493 435.5,383.5 Z"/></g>
<g><path style="opacity:1" fill="#000000" d="M 257.5,384.5 C 261.833,384.5 266.167,384.5 270.5,384.5C 270.5,388.5 270.5,392.5 270.5,396.5C 274.5,396.5 278.5,396.5 282.5,396.5C 282.833,396.5 283.167,396.5 283.5,396.5C 287.5,396.5 291.5,396.5 295.5,396.5C 295.5,400.833 295.5,405.167 295.5,409.5C 287.167,409.5 278.833,409.5 270.5,409.5C 270.5,405.5 270.5,401.5 270.5,397.5C 266.167,397.5 261.833,397.5 257.5,397.5C 257.5,393.167 257.5,388.833 257.5,384.5 Z"/></g>
<g><path style="opacity:1" fill="#000000" d="M 295.5,409.5 C 299.833,409.5 304.167,409.5 308.5,409.5C 308.5,413.5 308.5,417.5 308.5,421.5C 308.5,421.833 308.5,422.167 308.5,422.5C 304.167,422.5 299.833,422.5 295.5,422.5C 295.5,418.167 295.5,413.833 295.5,409.5 Z"/></g>
<g><path style="opacity:1" fill="#000000" d="M 397.5,409.5 C 405.833,409.5 414.167,409.5 422.5,409.5C 422.833,409.5 423.167,409.5 423.5,409.5C 423.5,413.833 423.5,418.167 423.5,422.5C 414.833,422.5 406.167,422.5 397.5,422.5C 397.5,418.167 397.5,413.833 397.5,409.5 Z"/></g>
<g><path style="opacity:1" fill="#194406" d="M 308.5,422.5 C 308.5,422.167 308.5,421.833 308.5,421.5C 317.167,421.5 325.833,421.5 334.5,421.5C 334.5,425.833 334.5,430.167 334.5,434.5C 333.517,430.702 333.183,426.702 333.5,422.5C 325.167,422.5 316.833,422.5 308.5,422.5 Z"/></g>
<g><path style="opacity:1" fill="#000000" d="M 308.5,422.5 C 316.833,422.5 325.167,422.5 333.5,422.5C 333.183,426.702 333.517,430.702 334.5,434.5C 338.5,434.5 342.5,434.5 346.5,434.5C 346.5,438.833 346.5,443.167 346.5,447.5C 342.167,447.5 337.833,447.5 333.5,447.5C 333.5,443.5 333.5,439.5 333.5,435.5C 325.167,435.5 316.833,435.5 308.5,435.5C 308.5,431.167 308.5,426.833 308.5,422.5 Z"/></g>
<g><path style="opacity:1" fill="#000000" d="M 359.5,421.5 C 368.167,421.5 376.833,421.5 385.5,421.5C 385.5,425.833 385.5,430.167 385.5,434.5C 393.833,434.5 402.167,434.5 410.5,434.5C 410.5,438.5 410.5,442.5 410.5,446.5C 418.84,446.334 427.173,446.5 435.5,447C 436.464,451.066 436.797,455.233 436.5,459.5C 440.5,459.5 444.5,459.5 448.5,459.5C 448.5,468.167 448.5,476.833 448.5,485.5C 444.5,485.5 440.5,485.5 436.5,485.5C 436.5,489.833 436.5,494.167 436.5,498.5C 432.167,498.5 427.833,498.5 423.5,498.5C 423.5,502.833 423.5,507.167 423.5,511.5C 419.167,511.5 414.833,511.5 410.5,511.5C 410.5,511.167 410.5,510.833 410.5,510.5C 410.5,502.167 410.5,493.833 410.5,485.5C 418.833,485.5 427.167,485.5 435.5,485.5C 435.5,477.167 435.5,468.833 435.5,460.5C 427.35,459.507 419.017,459.174 410.5,459.5C 410.5,455.5 410.5,451.5 410.5,447.5C 406.167,447.5 401.833,447.5 397.5,447.5C 393.167,447.5 388.833,447.5 384.5,447.5C 384.5,443.167 384.5,438.833 384.5,434.5C 376.167,434.5 367.833,434.5 359.5,434.5C 359.5,430.167 359.5,425.833 359.5,421.5 Z"/></g>
<g><path style="opacity:1" fill="#000000" d="M 346.5,447.5 C 350.833,447.5 355.167,447.5 359.5,447.5C 359.5,451.5 359.5,455.5 359.5,459.5C 359.5,463.833 359.5,468.167 359.5,472.5C 359.5,480.833 359.5,489.167 359.5,497.5C 355.167,497.5 350.833,497.5 346.5,497.5C 346.5,480.833 346.5,464.167 346.5,447.5 Z"/></g>
<g><path style="opacity:1" fill="#163c05" d="M 397.5,447.5 C 401.833,447.5 406.167,447.5 410.5,447.5C 410.5,451.5 410.5,455.5 410.5,459.5C 419.017,459.174 427.35,459.507 435.5,460.5C 427.167,460.5 418.833,460.5 410.5,460.5C 406.167,460.5 401.833,460.5 397.5,460.5C 397.5,456.167 397.5,451.833 397.5,447.5 Z"/></g>
<g><path style="opacity:1" fill="#133c01" d="M 359.5,459.5 C 363.833,459.5 368.167,459.5 372.5,459.5C 372.5,463.833 372.5,468.167 372.5,472.5C 368.167,472.5 363.833,472.5 359.5,472.5C 359.5,468.167 359.5,463.833 359.5,459.5 Z"/></g>
<g><path style="opacity:1" fill="#75ba3d" d="M 410.5,460.5 C 418.833,460.5 427.167,460.5 435.5,460.5C 435.5,468.833 435.5,477.167 435.5,485.5C 427.167,485.5 418.833,485.5 410.5,485.5C 410.5,477.167 410.5,468.833 410.5,460.5 Z"/></g>
<g><path style="opacity:1" fill="#133a00" d="M 409.5,485.5 C 405.5,485.5 401.5,485.5 397.5,485.5C 397.5,481.167 397.5,476.833 397.5,472.5C 401.5,472.5 405.5,472.5 409.5,472.5C 409.5,476.833 409.5,481.167 409.5,485.5 Z"/></g>
<g><path style="opacity:1" fill="#123800" d="M 384.5,510.5 C 380.5,510.5 376.5,510.5 372.5,510.5C 372.5,502.167 372.5,493.833 372.5,485.5C 376.5,485.5 380.5,485.5 384.5,485.5C 384.5,493.833 384.5,502.167 384.5,510.5 Z"/></g>
<g><path style="opacity:1" fill="#75bb3d" d="M 397.5,485.5 C 401.5,485.5 405.5,485.5 409.5,485.5C 409.5,493.833 409.5,502.167 409.5,510.5C 401.5,510.5 393.5,510.5 385.5,510.5C 385.5,502.167 385.5,493.833 385.5,485.5C 389.5,485.5 393.5,485.5 397.5,485.5 Z"/></g>
<g><path style="opacity:1" fill="#72b63c" d="M 346.5,497.5 C 350.833,497.5 355.167,497.5 359.5,497.5C 363.5,497.5 367.5,497.5 371.5,497.5C 371.182,502.032 371.515,506.366 372.5,510.5C 372.5,514.833 372.5,519.167 372.5,523.5C 363.833,523.5 355.167,523.5 346.5,523.5C 346.5,519.167 346.5,514.833 346.5,510.5C 346.5,506.167 346.5,501.833 346.5,497.5 Z"/></g>
<g><path style="opacity:1" fill="#000000" d="M 346.5,510.5 C 346.5,514.833 346.5,519.167 346.5,523.5C 355.167,523.5 363.833,523.5 372.5,523.5C 376.5,523.5 380.5,523.5 384.5,523.5C 384.833,523.5 385.167,523.5 385.5,523.5C 385.5,524.167 385.5,524.833 385.5,525.5C 368.167,525.5 350.833,525.5 333.5,525.5C 333.5,520.5 333.5,515.5 333.5,510.5C 337.833,510.5 342.167,510.5 346.5,510.5 Z"/></g>
<g><path style="opacity:1" fill="#152809" d="M 384.5,510.5 C 384.833,510.5 385.167,510.5 385.5,510.5C 393.5,510.5 401.5,510.5 409.5,510.5C 409.833,510.5 410.167,510.5 410.5,510.5C 410.5,510.833 410.5,511.167 410.5,511.5C 402.167,511.5 393.833,511.5 385.5,511.5C 385.5,515.5 385.5,519.5 385.5,523.5C 385.167,523.5 384.833,523.5 384.5,523.5C 384.5,519.167 384.5,514.833 384.5,510.5 Z"/></g>
<g><path style="opacity:1" fill="#36850c" d="M 372.5,510.5 C 376.5,510.5 380.5,510.5 384.5,510.5C 384.5,514.833 384.5,519.167 384.5,523.5C 380.5,523.5 376.5,523.5 372.5,523.5C 372.5,519.167 372.5,514.833 372.5,510.5 Z"/></g>
<g><path style="opacity:1" fill="#000000" d="M 410.5,511.5 C 410.5,515.5 410.5,519.5 410.5,523.5C 402.167,523.5 393.833,523.5 385.5,523.5C 385.5,519.5 385.5,515.5 385.5,511.5C 393.833,511.5 402.167,511.5 410.5,511.5 Z"/></g>
<g><path style="opacity:1" fill="#87763d" d="M 651.5,522.5 C 651.5,523.5 651.5,524.5 651.5,525.5C 647.167,525.5 642.833,525.5 638.5,525.5C 638.5,524.5 638.5,523.5 638.5,522.5C 642.833,522.5 647.167,522.5 651.5,522.5 Z"/></g>
</svg>
