<?xml version="1.0" encoding="UTF-8"?>
<!DOCTYPE svg PUBLIC "-//W3C//DTD SVG 1.1//EN" "http://www.w3.org/Graphics/SVG/1.1/DTD/svg11.dtd">
<svg xmlns="http://www.w3.org/2000/svg" version="1.1" width="692px" height="458px" style="shape-rendering:geometricPrecision; text-rendering:geometricPrecision; image-rendering:optimizeQuality; fill-rule:evenodd; clip-rule:evenodd" xmlns:xlink="http://www.w3.org/1999/xlink">
<g><path style="opacity:1" fill="#cccce3" d="M 501.5,72.5 C 501.5,75.1667 501.5,77.8333 501.5,80.5C 507.167,80.5 512.833,80.5 518.5,80.5C 518.5,83.8333 518.5,87.1667 518.5,90.5C 515.5,90.5 512.5,90.5 509.5,90.5C 509.5,93.1667 509.5,95.8333 509.5,98.5C 506.833,98.5 504.167,98.5 501.5,98.5C 501.5,101.5 501.5,104.5 501.5,107.5C 498.167,107.5 494.833,107.5 491.5,107.5C 491.335,104.482 491.502,101.482 492,98.5C 494.719,97.5562 497.552,97.2229 500.5,97.5C 500.5,95.1667 500.5,92.8333 500.5,90.5C 497.5,90.5 494.5,90.5 491.5,90.5C 491.5,87.1667 491.5,83.8333 491.5,80.5C 494.5,80.5 497.5,80.5 500.5,80.5C 500.5,77.8333 500.5,75.1667 500.5,72.5C 489.167,72.5 477.833,72.5 466.5,72.5C 466.5,69.5 466.5,66.5 466.5,63.5C 478.167,63.5 489.833,63.5 501.5,63.5C 501.5,66.5 501.5,69.5 501.5,72.5 Z"/></g>
<g><path style="opacity:1" fill="#9596c0" d="M 501.5,72.5 C 507.167,72.5 512.833,72.5 518.5,72.5C 518.5,75.1667 518.5,77.8333 518.5,80.5C 512.833,80.5 507.167,80.5 501.5,80.5C 501.5,77.8333 501.5,75.1667 501.5,72.5 Z"/></g>
<g><path style="opacity:1" fill="#ececf2" d="M 466.5,72.5 C 477.833,72.5 489.167,72.5 500.5,72.5C 500.5,75.1667 500.5,77.8333 500.5,80.5C 497.5,80.5 494.5,80.5 491.5,80.5C 491.5,83.8333 491.5,87.1667 491.5,90.5C 494.5,90.5 497.5,90.5 500.5,90.5C 500.5,92.8333 500.5,95.1667 500.5,97.5C 497.552,97.2229 494.719,97.5562 492,98.5C 491.502,101.482 491.335,104.482 491.5,107.5C 494.833,107.5 498.167,107.5 501.5,107.5C 501.5,110.167 501.5,112.833 501.5,115.5C 498.167,115.5 494.833,115.5 491.5,115.5C 491.5,121.167 491.5,126.833 491.5,132.5C 488.833,132.5 486.167,132.5 483.5,132.5C 483.5,135.5 483.5,138.5 483.5,141.5C 480.5,141.5 477.5,141.5 474.5,141.5C 474.5,144.5 474.5,147.5 474.5,150.5C 477.5,150.5 480.5,150.5 483.5,150.5C 483.5,153.5 483.5,156.5 483.5,159.5C 477.833,159.5 472.167,159.5 466.5,159.5C 466.5,162.167 466.5,164.833 466.5,167.5C 463.5,167.5 460.5,167.5 457.5,167.5C 457.5,173.167 457.5,178.833 457.5,184.5C 460.5,184.5 463.5,184.5 466.5,184.5C 466.5,187.5 466.5,190.5 466.5,193.5C 469.167,193.5 471.833,193.5 474.5,193.5C 474.5,196.167 474.5,198.833 474.5,201.5C 480.5,201.5 486.5,201.5 492.5,201.5C 492.5,204.833 492.5,208.167 492.5,211.5C 489.833,211.5 487.167,211.5 484.5,211.5C 484.5,214.167 484.5,216.833 484.5,219.5C 478.5,219.5 472.5,219.5 466.5,219.5C 466.5,222.5 466.5,225.5 466.5,228.5C 463.5,228.5 460.5,228.5 457.5,228.5C 457.5,231.167 457.5,233.833 457.5,236.5C 451.833,236.5 446.167,236.5 440.5,236.5C 440.666,245.173 440.5,253.84 440,262.5C 437.281,263.444 434.448,263.777 431.5,263.5C 431.5,265.833 431.5,268.167 431.5,270.5C 426.167,270.5 420.833,270.5 415.5,270.5C 415.802,267.941 415.468,265.607 414.5,263.5C 414.5,257.5 414.5,251.5 414.5,245.5C 417.167,245.5 419.833,245.5 422.5,245.5C 422.5,242.5 422.5,239.5 422.5,236.5C 422.5,230.833 422.5,225.167 422.5,219.5C 428.509,219.666 434.509,219.499 440.5,219C 439.565,216.619 439.232,214.119 439.5,211.5C 442.777,211.784 445.943,211.451 449,210.5C 449.667,199.5 449.667,188.5 449,177.5C 443.259,176.525 437.425,176.192 431.5,176.5C 431.5,170.833 431.5,165.167 431.5,159.5C 428.5,159.5 425.5,159.5 422.5,159.5C 422.5,153.5 422.5,147.5 422.5,141.5C 434.081,141.179 445.581,141.512 457,142.5C 457.498,139.183 457.665,135.85 457.5,132.5C 460.5,132.5 463.5,132.5 466.5,132.5C 464.833,125.5 467.5,122.833 474.5,124.5C 474.5,121.5 474.5,118.5 474.5,115.5C 477.833,115.5 481.167,115.5 484.5,115.5C 484.5,112.833 484.5,110.167 484.5,107.5C 481.167,107.5 477.833,107.5 474.5,107.5C 474.5,104.167 474.5,100.833 474.5,97.5C 471.833,97.5 469.167,97.5 466.5,97.5C 466.5,94.8333 466.5,92.1667 466.5,89.5C 463.5,89.5 460.5,89.5 457.5,89.5C 457.5,86.5 457.5,83.5 457.5,80.5C 460.5,80.5 463.5,80.5 466.5,80.5C 466.5,77.8333 466.5,75.1667 466.5,72.5 Z"/></g>
<g><path style="opacity:1" fill="#cacae2" d="M 466.5,72.5 C 466.5,75.1667 466.5,77.8333 466.5,80.5C 463.5,80.5 460.5,80.5 457.5,80.5C 457.5,83.5 457.5,86.5 457.5,89.5C 455.052,90.4731 452.385,90.8064 449.5,90.5C 449.5,93.1667 449.5,95.8333 449.5,98.5C 443.833,98.5 438.167,98.5 432.5,98.5C 432.5,104.167 432.5,109.833 432.5,115.5C 429.167,115.5 425.833,115.5 422.5,115.5C 422.5,109.5 422.5,103.5 422.5,97.5C 425.5,97.5 428.5,97.5 431.5,97.5C 431.5,94.8333 431.5,92.1667 431.5,89.5C 437.167,89.5 442.833,89.5 448.5,89.5C 448.5,86.5 448.5,83.5 448.5,80.5C 451.167,80.5 453.833,80.5 456.5,80.5C 456.5,77.8333 456.5,75.1667 456.5,72.5C 459.833,72.5 463.167,72.5 466.5,72.5 Z"/></g>
<g><path style="opacity:1" fill="#ecedf2" d="M 501.5,81.5 C 503.833,81.5 506.167,81.5 508.5,81.5C 508.5,84.1667 508.5,86.8333 508.5,89.5C 506.167,89.5 503.833,89.5 501.5,89.5C 501.5,86.8333 501.5,84.1667 501.5,81.5 Z"/></g>
<g><path style="opacity:1" fill="#f8f8f9" d="M 457.5,89.5 C 460.5,89.5 463.5,89.5 466.5,89.5C 466.5,92.1667 466.5,94.8333 466.5,97.5C 469.167,97.5 471.833,97.5 474.5,97.5C 474.5,100.833 474.5,104.167 474.5,107.5C 477.833,107.5 481.167,107.5 484.5,107.5C 484.5,110.167 484.5,112.833 484.5,115.5C 481.167,115.5 477.833,115.5 474.5,115.5C 474.5,118.5 474.5,121.5 474.5,124.5C 467.5,122.833 464.833,125.5 466.5,132.5C 463.5,132.5 460.5,132.5 457.5,132.5C 457.665,135.85 457.498,139.183 457,142.5C 445.581,141.512 434.081,141.179 422.5,141.5C 422.5,132.833 422.5,124.167 422.5,115.5C 425.833,115.5 429.167,115.5 432.5,115.5C 432.5,109.833 432.5,104.167 432.5,98.5C 438.167,98.5 443.833,98.5 449.5,98.5C 449.5,95.8333 449.5,93.1667 449.5,90.5C 452.385,90.8064 455.052,90.4731 457.5,89.5 Z"/></g>
<g><path style="opacity:1" fill="#ebebf2" d="M 518.5,90.5 C 518.5,93.1667 518.5,95.8333 518.5,98.5C 515.5,98.5 512.5,98.5 509.5,98.5C 509.5,95.8333 509.5,93.1667 509.5,90.5C 512.5,90.5 515.5,90.5 518.5,90.5 Z"/></g>
<g><path style="opacity:1" fill="#c8c8e1" d="M 518.5,90.5 C 521.167,90.5 523.833,90.5 526.5,90.5C 526.5,96.1667 526.5,101.833 526.5,107.5C 529.5,107.5 532.5,107.5 535.5,107.5C 535.5,110.167 535.5,112.833 535.5,115.5C 538.167,115.5 540.833,115.5 543.5,115.5C 543.5,124.167 543.5,132.833 543.5,141.5C 537.833,141.5 532.167,141.5 526.5,141.5C 526.5,144.5 526.5,147.5 526.5,150.5C 529.5,150.5 532.5,150.5 535.5,150.5C 535.5,153.5 535.5,156.5 535.5,159.5C 538.167,159.5 540.833,159.5 543.5,159.5C 543.5,167.833 543.5,176.167 543.5,184.5C 540.833,184.5 538.167,184.5 535.5,184.5C 535.5,190.167 535.5,195.833 535.5,201.5C 532.5,201.5 529.5,201.5 526.5,201.5C 526.5,204.833 526.5,208.167 526.5,211.5C 520.833,211.5 515.167,211.5 509.5,211.5C 509.5,214.167 509.5,216.833 509.5,219.5C 506.833,219.5 504.167,219.5 501.5,219.5C 501.5,228.167 501.5,236.833 501.5,245.5C 498.167,245.5 494.833,245.5 491.5,245.5C 491.5,248.167 491.5,250.833 491.5,253.5C 488.833,253.5 486.167,253.5 483.5,253.5C 483.5,256.5 483.5,259.5 483.5,262.5C 477.833,262.5 472.167,262.5 466.5,262.5C 466.5,265.5 466.5,268.5 466.5,271.5C 469.167,271.5 471.833,271.5 474.5,271.5C 474.5,274.5 474.5,277.5 474.5,280.5C 471.833,280.5 469.167,280.5 466.5,280.5C 463.5,280.5 460.5,280.5 457.5,280.5C 451.833,280.5 446.167,280.5 440.5,280.5C 440.167,280.5 439.833,280.5 439.5,280.5C 439.5,277.5 439.5,274.5 439.5,271.5C 431.167,271.5 422.833,271.5 414.5,271.5C 414.5,268.833 414.5,266.167 414.5,263.5C 415.468,265.607 415.802,267.941 415.5,270.5C 420.833,270.5 426.167,270.5 431.5,270.5C 431.5,268.167 431.5,265.833 431.5,263.5C 434.448,263.777 437.281,263.444 440,262.5C 440.5,253.84 440.666,245.173 440.5,236.5C 446.167,236.5 451.833,236.5 457.5,236.5C 457.5,233.833 457.5,231.167 457.5,228.5C 460.5,228.5 463.5,228.5 466.5,228.5C 466.5,225.5 466.5,222.5 466.5,219.5C 472.5,219.5 478.5,219.5 484.5,219.5C 484.5,216.833 484.5,214.167 484.5,211.5C 487.167,211.5 489.833,211.5 492.5,211.5C 492.5,208.167 492.5,204.833 492.5,201.5C 486.5,201.5 480.5,201.5 474.5,201.5C 474.5,198.833 474.5,196.167 474.5,193.5C 471.833,193.5 469.167,193.5 466.5,193.5C 466.5,190.5 466.5,187.5 466.5,184.5C 463.5,184.5 460.5,184.5 457.5,184.5C 457.5,178.833 457.5,173.167 457.5,167.5C 460.5,167.5 463.5,167.5 466.5,167.5C 466.5,164.833 466.5,162.167 466.5,159.5C 472.167,159.5 477.833,159.5 483.5,159.5C 483.5,156.5 483.5,153.5 483.5,150.5C 480.5,150.5 477.5,150.5 474.5,150.5C 474.5,147.5 474.5,144.5 474.5,141.5C 477.5,141.5 480.5,141.5 483.5,141.5C 483.5,138.5 483.5,135.5 483.5,132.5C 486.167,132.5 488.833,132.5 491.5,132.5C 491.5,126.833 491.5,121.167 491.5,115.5C 494.833,115.5 498.167,115.5 501.5,115.5C 501.5,118.5 501.5,121.5 501.5,124.5C 504.167,124.5 506.833,124.5 509.5,124.5C 509.5,121.5 509.5,118.5 509.5,115.5C 512.5,115.5 515.5,115.5 518.5,115.5C 518.5,112.833 518.5,110.167 518.5,107.5C 515.5,107.5 512.5,107.5 509.5,107.5C 509.5,104.5 509.5,101.5 509.5,98.5C 512.5,98.5 515.5,98.5 518.5,98.5C 518.5,95.8333 518.5,93.1667 518.5,90.5 Z"/></g>
<g><path style="opacity:1" fill="#9797c2" d="M 518.5,80.5 C 521.5,80.5 524.5,80.5 527.5,80.5C 527.5,83.5 527.5,86.5 527.5,89.5C 530.5,89.5 533.5,89.5 536.5,89.5C 536.5,95.1667 536.5,100.833 536.5,106.5C 539.167,106.5 541.833,106.5 544.5,106.5C 544.5,109.5 544.5,112.5 544.5,115.5C 547.5,115.5 550.5,115.5 553.5,115.5C 553.5,124.5 553.5,133.5 553.5,142.5C 550.5,142.5 547.5,142.5 544.5,142.5C 544.5,147.833 544.5,153.167 544.5,158.5C 547.5,158.5 550.5,158.5 553.5,158.5C 553.5,167.5 553.5,176.5 553.5,185.5C 550.5,185.5 547.5,185.5 544.5,185.5C 544.5,191.167 544.5,196.833 544.5,202.5C 541.833,202.5 539.167,202.5 536.5,202.5C 536.5,205.5 536.5,208.5 536.5,211.5C 533.5,211.5 530.5,211.5 527.5,211.5C 527.5,214.167 527.5,216.833 527.5,219.5C 521.5,219.5 515.5,219.5 509.5,219.5C 509.5,216.833 509.5,214.167 509.5,211.5C 515.167,211.5 520.833,211.5 526.5,211.5C 526.5,208.167 526.5,204.833 526.5,201.5C 529.5,201.5 532.5,201.5 535.5,201.5C 535.5,195.833 535.5,190.167 535.5,184.5C 538.167,184.5 540.833,184.5 543.5,184.5C 543.5,176.167 543.5,167.833 543.5,159.5C 540.833,159.5 538.167,159.5 535.5,159.5C 535.5,156.5 535.5,153.5 535.5,150.5C 532.5,150.5 529.5,150.5 526.5,150.5C 526.5,147.5 526.5,144.5 526.5,141.5C 532.167,141.5 537.833,141.5 543.5,141.5C 543.5,132.833 543.5,124.167 543.5,115.5C 540.833,115.5 538.167,115.5 535.5,115.5C 535.5,112.833 535.5,110.167 535.5,107.5C 532.5,107.5 529.5,107.5 526.5,107.5C 526.5,101.833 526.5,96.1667 526.5,90.5C 523.833,90.5 521.167,90.5 518.5,90.5C 518.5,87.1667 518.5,83.8333 518.5,80.5 Z"/></g>
<g><path style="opacity:1" fill="#ebebf2" d="M 509.5,98.5 C 509.5,101.5 509.5,104.5 509.5,107.5C 506.833,107.5 504.167,107.5 501.5,107.5C 501.5,104.5 501.5,101.5 501.5,98.5C 504.167,98.5 506.833,98.5 509.5,98.5 Z"/></g>
<g><path style="opacity:1" fill="#c9c9e1" d="M 501.5,107.5 C 504.167,107.5 506.833,107.5 509.5,107.5C 509.5,110.167 509.5,112.833 509.5,115.5C 506.833,115.5 504.167,115.5 501.5,115.5C 501.5,112.833 501.5,110.167 501.5,107.5 Z"/></g>
<g><path style="opacity:1" fill="#ecedf2" d="M 509.5,107.5 C 512.5,107.5 515.5,107.5 518.5,107.5C 518.5,110.167 518.5,112.833 518.5,115.5C 515.5,115.5 512.5,115.5 509.5,115.5C 509.5,112.833 509.5,110.167 509.5,107.5 Z"/></g>
<g><path style="opacity:1" fill="#578fc8" d="M 370.5,115.5 C 370.5,118.5 370.5,121.5 370.5,124.5C 364.833,124.5 359.167,124.5 353.5,124.5C 353.5,121.5 353.5,118.5 353.5,115.5C 359.167,115.5 364.833,115.5 370.5,115.5 Z"/></g>
<g><path style="opacity:1" fill="#c7c8e0" d="M 422.5,115.5 C 422.5,124.167 422.5,132.833 422.5,141.5C 422.5,147.5 422.5,153.5 422.5,159.5C 419.833,159.5 417.167,159.5 414.5,159.5C 414.5,144.833 414.5,130.167 414.5,115.5C 417.167,115.5 419.833,115.5 422.5,115.5 Z"/></g>
<g><path style="opacity:1" fill="#ebebf2" d="M 501.5,115.5 C 504.167,115.5 506.833,115.5 509.5,115.5C 509.5,118.5 509.5,121.5 509.5,124.5C 506.833,124.5 504.167,124.5 501.5,124.5C 501.5,121.5 501.5,118.5 501.5,115.5 Z"/></g>
<g><path style="opacity:1" fill="#578fc8" d="M 353.5,124.5 C 353.5,127.167 353.5,129.833 353.5,132.5C 350.833,132.5 348.167,132.5 345.5,132.5C 345.5,129.833 345.5,127.167 345.5,124.5C 348.167,124.5 350.833,124.5 353.5,124.5 Z"/></g>
<g><path style="opacity:1" fill="#a6dff8" d="M 353.5,124.5 C 359.167,124.5 364.833,124.5 370.5,124.5C 370.5,127.167 370.5,129.833 370.5,132.5C 367.833,132.5 365.167,132.5 362.5,132.5C 362.5,135.5 362.5,138.5 362.5,141.5C 359.287,141.19 356.287,141.523 353.5,142.5C 353.5,145.167 353.5,147.833 353.5,150.5C 350.833,150.5 348.167,150.5 345.5,150.5C 345.5,144.5 345.5,138.5 345.5,132.5C 348.167,132.5 350.833,132.5 353.5,132.5C 353.5,129.833 353.5,127.167 353.5,124.5 Z"/></g>
<g><path style="opacity:1" fill="#5790c8" d="M 345.5,132.5 C 345.5,138.5 345.5,144.5 345.5,150.5C 342.5,150.5 339.5,150.5 336.5,150.5C 336.5,149.833 336.167,149.5 335.5,149.5C 335.5,143.833 335.5,138.167 335.5,132.5C 338.833,132.5 342.167,132.5 345.5,132.5 Z"/></g>
<g><path style="opacity:1" fill="#3d6a82" d="M 370.5,115.5 C 373.833,115.5 377.167,115.5 380.5,115.5C 380.5,121.5 380.5,127.5 380.5,133.5C 377.5,133.5 374.5,133.5 371.5,133.5C 371.5,136.5 371.5,139.5 371.5,142.5C 368.833,142.5 366.167,142.5 363.5,142.5C 360.167,142.5 356.833,142.5 353.5,142.5C 356.287,141.523 359.287,141.19 362.5,141.5C 362.5,138.5 362.5,135.5 362.5,132.5C 365.167,132.5 367.833,132.5 370.5,132.5C 370.5,129.833 370.5,127.167 370.5,124.5C 370.5,121.5 370.5,118.5 370.5,115.5 Z"/></g>
<g><path style="opacity:1" fill="#0e0f0f" d="M 353.5,142.5 C 356.833,142.5 360.167,142.5 363.5,142.5C 363.5,148.167 363.5,153.833 363.5,159.5C 360.5,159.5 357.5,159.5 354.5,159.5C 354.167,159.5 353.833,159.5 353.5,159.5C 353.5,156.5 353.5,153.5 353.5,150.5C 353.5,147.833 353.5,145.167 353.5,142.5 Z"/></g>
<g><path style="opacity:1" fill="#386680" d="M 335.5,149.5 C 336.167,149.5 336.5,149.833 336.5,150.5C 336.5,156.167 336.5,161.833 336.5,167.5C 333.5,167.5 330.5,167.5 327.5,167.5C 327.5,161.5 327.5,155.5 327.5,149.5C 330.167,149.5 332.833,149.5 335.5,149.5 Z"/></g>
<g><path style="opacity:1" fill="#75c7f8" d="M 336.5,150.5 C 339.5,150.5 342.5,150.5 345.5,150.5C 348.167,150.5 350.833,150.5 353.5,150.5C 353.5,153.5 353.5,156.5 353.5,159.5C 350.833,159.5 348.167,159.5 345.5,159.5C 345.5,162.167 345.5,164.833 345.5,167.5C 342.5,167.5 339.5,167.5 336.5,167.5C 336.5,161.833 336.5,156.167 336.5,150.5 Z"/></g>
<g><path style="opacity:1" fill="#36637b" d="M 353.5,159.5 C 353.833,159.5 354.167,159.5 354.5,159.5C 354.5,162.167 354.5,164.833 354.5,167.5C 351.5,167.5 348.5,167.5 345.5,167.5C 345.5,164.833 345.5,162.167 345.5,159.5C 348.167,159.5 350.833,159.5 353.5,159.5 Z"/></g>
<g><path style="opacity:1" fill="#c7c8e0" d="M 422.5,159.5 C 425.5,159.5 428.5,159.5 431.5,159.5C 431.5,165.167 431.5,170.833 431.5,176.5C 428.5,176.5 425.5,176.5 422.5,176.5C 422.5,170.833 422.5,165.167 422.5,159.5 Z"/></g>
<g><path style="opacity:1" fill="#5ba4dc" d="M 327.5,167.5 C 330.5,167.5 333.5,167.5 336.5,167.5C 339.5,167.5 342.5,167.5 345.5,167.5C 345.5,173.167 345.5,178.833 345.5,184.5C 342.5,184.5 339.5,184.5 336.5,184.5C 336.5,187.5 336.5,190.5 336.5,193.5C 335.51,199.31 335.177,205.31 335.5,211.5C 333.167,211.5 330.833,211.5 328.5,211.5C 328.5,208.5 328.5,205.5 328.5,202.5C 328.826,193.651 328.493,184.984 327.5,176.5C 327.5,173.5 327.5,170.5 327.5,167.5 Z"/></g>
<g><path style="opacity:1" fill="#0b0c0b" d="M 345.5,167.5 C 348.5,167.5 351.5,167.5 354.5,167.5C 354.666,173.176 354.499,178.843 354,184.5C 351.281,185.444 348.448,185.777 345.5,185.5C 345.5,185.167 345.5,184.833 345.5,184.5C 345.5,178.833 345.5,173.167 345.5,167.5 Z"/></g>
<g><path style="opacity:1" fill="#578fc8" d="M 284.5,184.5 C 267.167,184.5 249.833,184.5 232.5,184.5C 232.5,181.833 232.5,179.167 232.5,176.5C 249.833,176.5 267.167,176.5 284.5,176.5C 284.5,179.167 284.5,181.833 284.5,184.5 Z"/></g>
<g><path style="opacity:1" fill="#c7c8e0" d="M 422.5,176.5 C 422.5,179.167 422.5,181.833 422.5,184.5C 419.833,184.5 417.167,184.5 414.5,184.5C 414.5,181.833 414.5,179.167 414.5,176.5C 417.167,176.5 419.833,176.5 422.5,176.5 Z"/></g>
<g><path style="opacity:1" fill="#f9f9f9" d="M 422.5,176.5 C 425.5,176.5 428.5,176.5 431.5,176.5C 437.425,176.192 443.259,176.525 449,177.5C 449.667,188.5 449.667,199.5 449,210.5C 445.943,211.451 442.777,211.784 439.5,211.5C 439.232,214.119 439.565,216.619 440.5,219C 434.509,219.499 428.509,219.666 422.5,219.5C 422.5,225.167 422.5,230.833 422.5,236.5C 419.833,236.5 417.167,236.5 414.5,236.5C 414.5,233.833 414.5,231.167 414.5,228.5C 411.5,228.5 408.5,228.5 405.5,228.5C 405.5,219.5 405.5,210.5 405.5,201.5C 408.5,201.5 411.5,201.5 414.5,201.5C 414.5,195.833 414.5,190.167 414.5,184.5C 417.167,184.5 419.833,184.5 422.5,184.5C 422.5,181.833 422.5,179.167 422.5,176.5 Z"/></g>
<g><path style="opacity:1" fill="#386781" d="M 327.5,176.5 C 328.493,184.984 328.826,193.651 328.5,202.5C 325.5,202.5 322.5,202.5 319.5,202.5C 319.5,201.833 319.167,201.5 318.5,201.5C 318.5,198.833 318.5,196.167 318.5,193.5C 318.5,187.833 318.5,182.167 318.5,176.5C 321.5,176.5 324.5,176.5 327.5,176.5 Z"/></g>
<g><path style="opacity:1" fill="#c7c8e0" d="M 414.5,184.5 C 414.5,190.167 414.5,195.833 414.5,201.5C 411.5,201.5 408.5,201.5 405.5,201.5C 405.5,195.833 405.5,190.167 405.5,184.5C 408.5,184.5 411.5,184.5 414.5,184.5 Z"/></g>
<g><path style="opacity:1" fill="#a6dff8" d="M 232.5,184.5 C 249.833,184.5 267.167,184.5 284.5,184.5C 284.5,187.5 284.5,190.5 284.5,193.5C 290.167,193.5 295.833,193.5 301.5,193.5C 301.5,196.167 301.5,198.833 301.5,201.5C 298.833,201.5 296.167,201.5 293.5,201.5C 287.833,201.5 282.167,201.5 276.5,201.5C 276.5,198.833 276.5,196.167 276.5,193.5C 273.5,193.5 270.5,193.5 267.5,193.5C 255.833,193.5 244.167,193.5 232.5,193.5C 232.5,190.5 232.5,187.5 232.5,184.5 Z"/></g>
<g><path style="opacity:1" fill="#38657e" d="M 345.5,184.5 C 345.5,184.833 345.5,185.167 345.5,185.5C 345.5,188.167 345.5,190.833 345.5,193.5C 342.5,193.5 339.5,193.5 336.5,193.5C 336.5,190.5 336.5,187.5 336.5,184.5C 339.5,184.5 342.5,184.5 345.5,184.5 Z"/></g>
<g><path style="opacity:1" fill="#568fc7" d="M 232.5,184.5 C 232.5,187.5 232.5,190.5 232.5,193.5C 229.833,193.5 227.167,193.5 224.5,193.5C 224.5,196.5 224.5,199.5 224.5,202.5C 221.167,202.5 217.833,202.5 214.5,202.5C 214.5,199.5 214.5,196.5 214.5,193.5C 217.5,193.5 220.5,193.5 223.5,193.5C 223.5,190.5 223.5,187.5 223.5,184.5C 226.5,184.5 229.5,184.5 232.5,184.5 Z"/></g>
<g><path style="opacity:1" fill="#6397b3" d="M 232.5,193.5 C 244.167,193.5 255.833,193.5 267.5,193.5C 267.5,196.167 267.5,198.833 267.5,201.5C 270.5,201.5 273.5,201.5 276.5,201.5C 282.167,201.5 287.833,201.5 293.5,201.5C 293.5,201.833 293.5,202.167 293.5,202.5C 284.5,202.5 275.5,202.5 266.5,202.5C 266.5,199.833 266.5,197.167 266.5,194.5C 254.988,194.828 243.654,194.495 232.5,193.5 Z"/></g>
<g><path style="opacity:1" fill="#578fc7" d="M 284.5,184.5 C 290.5,184.5 296.5,184.5 302.5,184.5C 302.5,187.5 302.5,190.5 302.5,193.5C 307.833,193.5 313.167,193.5 318.5,193.5C 318.5,196.167 318.5,198.833 318.5,201.5C 312.833,201.5 307.167,201.5 301.5,201.5C 301.5,198.833 301.5,196.167 301.5,193.5C 295.833,193.5 290.167,193.5 284.5,193.5C 284.5,190.5 284.5,187.5 284.5,184.5 Z"/></g>
<g><path style="opacity:1" fill="#37647d" d="M 232.5,193.5 C 243.654,194.495 254.988,194.828 266.5,194.5C 266.5,197.167 266.5,199.833 266.5,202.5C 252.5,202.5 238.5,202.5 224.5,202.5C 224.5,199.5 224.5,196.5 224.5,193.5C 227.167,193.5 229.833,193.5 232.5,193.5 Z"/></g>
<g><path style="opacity:1" fill="#78c9fa" d="M 267.5,193.5 C 270.5,193.5 273.5,193.5 276.5,193.5C 276.5,196.167 276.5,198.833 276.5,201.5C 273.5,201.5 270.5,201.5 267.5,201.5C 267.5,198.833 267.5,196.167 267.5,193.5 Z"/></g>
<g><path style="opacity:1" fill="#0c0d0d" d="M 336.5,193.5 C 339.5,193.5 342.5,193.5 345.5,193.5C 345.5,205.167 345.5,216.833 345.5,228.5C 342.5,228.5 339.5,228.5 336.5,228.5C 336.5,216.833 336.5,205.167 336.5,193.5 Z"/></g>
<g><path style="opacity:1" fill="#c8c8e0" d="M 405.5,201.5 C 405.5,210.5 405.5,219.5 405.5,228.5C 402.5,228.5 399.5,228.5 396.5,228.5C 396.5,219.5 396.5,210.5 396.5,201.5C 399.5,201.5 402.5,201.5 405.5,201.5 Z"/></g>
<g><path style="opacity:1" fill="#37647d" d="M 266.5,202.5 C 275.5,202.5 284.5,202.5 293.5,202.5C 293.5,205.5 293.5,208.5 293.5,211.5C 284.5,211.5 275.5,211.5 266.5,211.5C 266.5,208.5 266.5,205.5 266.5,202.5 Z"/></g>
<g><path style="opacity:1" fill="#73c3f4" d="M 293.5,201.5 C 296.167,201.5 298.833,201.5 301.5,201.5C 307.167,201.5 312.833,201.5 318.5,201.5C 319.167,201.5 319.5,201.833 319.5,202.5C 319.5,207.833 319.5,213.167 319.5,218.5C 316.833,218.5 314.167,218.5 311.5,218.5C 311.802,215.941 311.468,213.607 310.5,211.5C 307.5,211.5 304.5,211.5 301.5,211.5C 298.833,211.5 296.167,211.5 293.5,211.5C 293.5,208.5 293.5,205.5 293.5,202.5C 293.5,202.167 293.5,201.833 293.5,201.5 Z"/></g>
<g><path style="opacity:1" fill="#558dc3" d="M 336.5,193.5 C 336.5,205.167 336.5,216.833 336.5,228.5C 333.833,228.5 331.167,228.5 328.5,228.5C 328.5,225.5 328.5,222.5 328.5,219.5C 325.167,219.5 321.833,219.5 318.5,219.5C 315.833,219.5 313.167,219.5 310.5,219.5C 310.5,216.833 310.5,214.167 310.5,211.5C 311.468,213.607 311.802,215.941 311.5,218.5C 314.167,218.5 316.833,218.5 319.5,218.5C 319.5,213.167 319.5,207.833 319.5,202.5C 322.5,202.5 325.5,202.5 328.5,202.5C 328.5,205.5 328.5,208.5 328.5,211.5C 330.833,211.5 333.167,211.5 335.5,211.5C 335.177,205.31 335.51,199.31 336.5,193.5 Z"/></g>
<g><path style="opacity:1" fill="#0b0c0b" d="M 293.5,211.5 C 296.167,211.5 298.833,211.5 301.5,211.5C 301.5,214.167 301.5,216.833 301.5,219.5C 298.833,219.5 296.167,219.5 293.5,219.5C 293.5,216.833 293.5,214.167 293.5,211.5 Z"/></g>
<g><path style="opacity:1" fill="#37637b" d="M 301.5,211.5 C 304.5,211.5 307.5,211.5 310.5,211.5C 310.5,214.167 310.5,216.833 310.5,219.5C 307.5,219.5 304.5,219.5 301.5,219.5C 301.5,216.833 301.5,214.167 301.5,211.5 Z"/></g>
<g><path style="opacity:1" fill="#0b0c0b" d="M 310.5,219.5 C 313.167,219.5 315.833,219.5 318.5,219.5C 318.5,222.5 318.5,225.5 318.5,228.5C 315.833,228.5 313.167,228.5 310.5,228.5C 310.5,225.5 310.5,222.5 310.5,219.5 Z"/></g>
<g><path style="opacity:1" fill="#37637c" d="M 318.5,219.5 C 321.833,219.5 325.167,219.5 328.5,219.5C 328.5,222.5 328.5,225.5 328.5,228.5C 331.167,228.5 333.833,228.5 336.5,228.5C 336.5,231.167 336.5,233.833 336.5,236.5C 333.5,236.5 330.5,236.5 327.5,236.5C 327.5,233.833 327.5,231.167 327.5,228.5C 324.5,228.5 321.5,228.5 318.5,228.5C 318.5,225.5 318.5,222.5 318.5,219.5 Z"/></g>
<g><path style="opacity:1" fill="#578fc8" d="M 336.5,228.5 C 339.5,228.5 342.5,228.5 345.5,228.5C 351.167,228.5 356.833,228.5 362.5,228.5C 362.5,231.167 362.5,233.833 362.5,236.5C 353.833,236.5 345.167,236.5 336.5,236.5C 336.5,233.833 336.5,231.167 336.5,228.5 Z"/></g>
<g><path style="opacity:1" fill="#37637c" d="M 362.5,228.5 C 371.167,228.5 379.833,228.5 388.5,228.5C 388.5,231.167 388.5,233.833 388.5,236.5C 385.833,236.5 383.167,236.5 380.5,236.5C 374.5,236.5 368.5,236.5 362.5,236.5C 362.5,233.833 362.5,231.167 362.5,228.5 Z"/></g>
<g><path style="opacity:1" fill="#0b0c0b" d="M 388.5,228.5 C 391.167,228.5 393.833,228.5 396.5,228.5C 399.5,228.5 402.5,228.5 405.5,228.5C 405.5,231.167 405.5,233.833 405.5,236.5C 399.833,236.5 394.167,236.5 388.5,236.5C 388.5,233.833 388.5,231.167 388.5,228.5 Z"/></g>
<g><path style="opacity:1" fill="#c7c8e0" d="M 405.5,228.5 C 408.5,228.5 411.5,228.5 414.5,228.5C 414.5,231.167 414.5,233.833 414.5,236.5C 411.5,236.5 408.5,236.5 405.5,236.5C 405.5,233.833 405.5,231.167 405.5,228.5 Z"/></g>
<g><path style="opacity:1" fill="#578fc8" d="M 327.5,236.5 C 330.5,236.5 333.5,236.5 336.5,236.5C 336.5,239.5 336.5,242.5 336.5,245.5C 333.833,245.5 331.167,245.5 328.5,245.5C 328.167,245.5 327.833,245.5 327.5,245.5C 327.5,242.5 327.5,239.5 327.5,236.5 Z"/></g>
<g><path style="opacity:1" fill="#75c7f9" d="M 336.5,236.5 C 345.167,236.5 353.833,236.5 362.5,236.5C 368.5,236.5 374.5,236.5 380.5,236.5C 380.5,239.5 380.5,242.5 380.5,245.5C 383.167,245.5 385.833,245.5 388.5,245.5C 391.5,245.5 394.5,245.5 397.5,245.5C 397.5,248.167 397.5,250.833 397.5,253.5C 400.167,253.5 402.833,253.5 405.5,253.5C 405.5,256.833 405.5,260.167 405.5,263.5C 405.5,266.167 405.5,268.833 405.5,271.5C 408.5,271.5 411.5,271.5 414.5,271.5C 414.5,274.5 414.5,277.5 414.5,280.5C 414.5,283.167 414.5,285.833 414.5,288.5C 411.5,288.5 408.5,288.5 405.5,288.5C 405.5,291.5 405.5,294.5 405.5,297.5C 399.833,297.5 394.167,297.5 388.5,297.5C 388.5,291.833 388.5,286.167 388.5,280.5C 385.833,280.5 383.167,280.5 380.5,280.5C 380.5,277.5 380.5,274.5 380.5,271.5C 380.5,265.5 380.5,259.5 380.5,253.5C 377.167,253.5 373.833,253.5 370.5,253.5C 367.833,253.5 365.167,253.5 362.5,253.5C 362.5,250.833 362.5,248.167 362.5,245.5C 353.833,245.5 345.167,245.5 336.5,245.5C 336.5,242.5 336.5,239.5 336.5,236.5 Z"/></g>
<g><path style="opacity:1" fill="#5ca6df" d="M 380.5,236.5 C 383.167,236.5 385.833,236.5 388.5,236.5C 388.5,239.5 388.5,242.5 388.5,245.5C 385.833,245.5 383.167,245.5 380.5,245.5C 380.5,242.5 380.5,239.5 380.5,236.5 Z"/></g>
<g><path style="opacity:1" fill="#568ec6" d="M 388.5,236.5 C 394.167,236.5 399.833,236.5 405.5,236.5C 408.5,236.5 411.5,236.5 414.5,236.5C 414.5,239.5 414.5,242.5 414.5,245.5C 411.5,245.5 408.5,245.5 405.5,245.5C 402.833,245.5 400.167,245.5 397.5,245.5C 394.5,245.5 391.5,245.5 388.5,245.5C 388.5,242.5 388.5,239.5 388.5,236.5 Z"/></g>
<g><path style="opacity:1" fill="#c5c7e0" d="M 414.5,236.5 C 417.167,236.5 419.833,236.5 422.5,236.5C 422.5,239.5 422.5,242.5 422.5,245.5C 419.833,245.5 417.167,245.5 414.5,245.5C 414.5,242.5 414.5,239.5 414.5,236.5 Z"/></g>
<g><path style="opacity:1" fill="#a6def8" d="M 328.5,245.5 C 331.167,245.5 333.833,245.5 336.5,245.5C 345.167,245.5 353.833,245.5 362.5,245.5C 362.5,248.167 362.5,250.833 362.5,253.5C 365.167,253.5 367.833,253.5 370.5,253.5C 370.5,253.833 370.5,254.167 370.5,254.5C 367.833,254.5 365.167,254.5 362.5,254.5C 362.5,257.167 362.5,259.833 362.5,262.5C 365.167,262.5 367.833,262.5 370.5,262.5C 370.5,262.833 370.5,263.167 370.5,263.5C 368.167,263.5 365.833,263.5 363.5,263.5C 363.167,263.5 362.833,263.5 362.5,263.5C 353.833,263.5 345.167,263.5 336.5,263.5C 336.5,266.167 336.5,268.833 336.5,271.5C 333.833,271.5 331.167,271.5 328.5,271.5C 328.5,274.5 328.5,277.5 328.5,280.5C 325.167,280.5 321.833,280.5 318.5,280.5C 318.5,283.167 318.5,285.833 318.5,288.5C 316.167,288.5 313.833,288.5 311.5,288.5C 311.5,291.5 311.5,294.5 311.5,297.5C 311.167,297.5 310.833,297.5 310.5,297.5C 310.5,288.833 310.5,280.167 310.5,271.5C 310.5,271.167 310.5,270.833 310.5,270.5C 313.167,270.5 315.833,270.5 318.5,270.5C 318.334,265.156 318.501,259.823 319,254.5C 322.057,253.549 325.223,253.216 328.5,253.5C 328.5,250.833 328.5,248.167 328.5,245.5 Z"/></g>
<g><path style="opacity:1" fill="#5da7e0" d="M 397.5,245.5 C 400.167,245.5 402.833,245.5 405.5,245.5C 405.5,248.167 405.5,250.833 405.5,253.5C 402.833,253.5 400.167,253.5 397.5,253.5C 397.5,250.833 397.5,248.167 397.5,245.5 Z"/></g>
<g><path style="opacity:1" fill="#c5c6df" d="M 405.5,245.5 C 408.5,245.5 411.5,245.5 414.5,245.5C 414.5,251.5 414.5,257.5 414.5,263.5C 411.5,263.5 408.5,263.5 405.5,263.5C 405.5,260.167 405.5,256.833 405.5,253.5C 405.5,250.833 405.5,248.167 405.5,245.5 Z"/></g>
<g><path style="opacity:1" fill="#5ea8e0" d="M 327.5,245.5 C 327.833,245.5 328.167,245.5 328.5,245.5C 328.5,248.167 328.5,250.833 328.5,253.5C 325.223,253.216 322.057,253.549 319,254.5C 318.501,259.823 318.334,265.156 318.5,270.5C 315.833,270.5 313.167,270.5 310.5,270.5C 310.5,267.833 310.5,265.167 310.5,262.5C 310.5,259.5 310.5,256.5 310.5,253.5C 313.167,253.5 315.833,253.5 318.5,253.5C 318.5,250.833 318.5,248.167 318.5,245.5C 321.5,245.5 324.5,245.5 327.5,245.5 Z"/></g>
<g><path style="opacity:1" fill="#f9f9f9" d="M 241.5,254.5 C 241.5,257.5 241.5,260.5 241.5,263.5C 244.167,263.5 246.833,263.5 249.5,263.5C 249.5,269.167 249.5,274.833 249.5,280.5C 249.5,286.167 249.5,291.833 249.5,297.5C 246.833,297.5 244.167,297.5 241.5,297.5C 241.5,300.167 241.5,302.833 241.5,305.5C 235.833,305.5 230.167,305.5 224.5,305.5C 224.5,308.5 224.5,311.5 224.5,314.5C 215.833,314.5 207.167,314.5 198.5,314.5C 198.5,308.833 198.5,303.167 198.5,297.5C 195.5,297.5 192.5,297.5 189.5,297.5C 189.5,300.167 189.5,302.833 189.5,305.5C 183.833,305.5 178.167,305.5 172.5,305.5C 172.5,302.833 172.5,300.167 172.5,297.5C 169.5,297.5 166.5,297.5 163.5,297.5C 163.5,294.5 163.5,291.5 163.5,288.5C 160.833,288.5 158.167,288.5 155.5,288.5C 155.5,285.833 155.5,283.167 155.5,280.5C 152.5,280.5 149.5,280.5 146.5,280.5C 146.5,277.5 146.5,274.5 146.5,271.5C 149.5,271.5 152.5,271.5 155.5,271.5C 155.5,268.833 155.5,266.167 155.5,263.5C 163.833,263.5 172.167,263.5 180.5,263.5C 180.5,260.5 180.5,257.5 180.5,254.5C 189.167,254.5 197.833,254.5 206.5,254.5C 206.5,257.5 206.5,260.5 206.5,263.5C 209.5,263.5 212.5,263.5 215.5,263.5C 215.5,260.5 215.5,257.5 215.5,254.5C 224.167,254.5 232.833,254.5 241.5,254.5 Z"/></g>
<g><path style="opacity:1" fill="#f7f9fa" d="M 370.5,254.5 C 370.5,257.167 370.5,259.833 370.5,262.5C 367.833,262.5 365.167,262.5 362.5,262.5C 362.5,259.833 362.5,257.167 362.5,254.5C 365.167,254.5 367.833,254.5 370.5,254.5 Z"/></g>
<g><path style="opacity:1" fill="#3e505e" d="M 370.5,253.5 C 373.833,253.5 377.167,253.5 380.5,253.5C 380.5,259.5 380.5,265.5 380.5,271.5C 377.167,271.5 373.833,271.5 370.5,271.5C 367.833,271.5 365.167,271.5 362.5,271.5C 362.5,268.833 362.5,266.167 362.5,263.5C 362.833,263.5 363.167,263.5 363.5,263.5C 363.5,265.833 363.5,268.167 363.5,270.5C 368.833,270.5 374.167,270.5 379.5,270.5C 379.5,265.167 379.5,259.833 379.5,254.5C 376.833,254.5 374.167,254.5 371.5,254.5C 371.81,257.713 371.477,260.713 370.5,263.5C 370.5,263.167 370.5,262.833 370.5,262.5C 370.5,259.833 370.5,257.167 370.5,254.5C 370.5,254.167 370.5,253.833 370.5,253.5 Z"/></g>
<g><path style="opacity:1" fill="#0b0c0b" d="M 363.5,263.5 C 365.833,263.5 368.167,263.5 370.5,263.5C 371.477,260.713 371.81,257.713 371.5,254.5C 374.167,254.5 376.833,254.5 379.5,254.5C 379.5,259.833 379.5,265.167 379.5,270.5C 374.167,270.5 368.833,270.5 363.5,270.5C 363.5,268.167 363.5,265.833 363.5,263.5 Z"/></g>
<g><path style="opacity:1" fill="#9b9bc4" d="M 509.5,219.5 C 509.5,228.5 509.5,237.5 509.5,246.5C 506.833,246.5 504.167,246.5 501.5,246.5C 501.5,249.167 501.5,251.833 501.5,254.5C 498.5,254.5 495.5,254.5 492.5,254.5C 492.5,257.5 492.5,260.5 492.5,263.5C 489.833,263.5 487.167,263.5 484.5,263.5C 484.5,265.833 484.5,268.167 484.5,270.5C 481.375,271.479 478.042,271.813 474.5,271.5C 471.833,271.5 469.167,271.5 466.5,271.5C 466.5,268.5 466.5,265.5 466.5,262.5C 472.167,262.5 477.833,262.5 483.5,262.5C 483.5,259.5 483.5,256.5 483.5,253.5C 486.167,253.5 488.833,253.5 491.5,253.5C 491.5,250.833 491.5,248.167 491.5,245.5C 494.833,245.5 498.167,245.5 501.5,245.5C 501.5,236.833 501.5,228.167 501.5,219.5C 504.167,219.5 506.833,219.5 509.5,219.5 Z"/></g>
<g><path style="opacity:1" fill="#9497c2" d="M 310.5,262.5 C 310.5,265.167 310.5,267.833 310.5,270.5C 310.5,270.833 310.5,271.167 310.5,271.5C 307.5,271.5 304.5,271.5 301.5,271.5C 301.5,268.5 301.5,265.5 301.5,262.5C 304.5,262.5 307.5,262.5 310.5,262.5 Z"/></g>
<g><path style="opacity:1" fill="#9898c2" d="M 276.5,288.5 C 270.5,288.5 264.5,288.5 258.5,288.5C 258.5,285.833 258.5,283.167 258.5,280.5C 255.5,280.5 252.5,280.5 249.5,280.5C 249.5,274.833 249.5,269.167 249.5,263.5C 246.833,263.5 244.167,263.5 241.5,263.5C 241.5,260.5 241.5,257.5 241.5,254.5C 232.682,253.507 223.682,253.173 214.5,253.5C 214.5,250.833 214.5,248.167 214.5,245.5C 223.833,245.5 233.167,245.5 242.5,245.5C 242.5,248.167 242.5,250.833 242.5,253.5C 245.167,253.5 247.833,253.5 250.5,253.5C 250.5,256.5 250.5,259.5 250.5,262.5C 253.5,262.5 256.5,262.5 259.5,262.5C 259.5,268.167 259.5,273.833 259.5,279.5C 265.167,279.5 270.833,279.5 276.5,279.5C 276.5,282.5 276.5,285.5 276.5,288.5 Z"/></g>
<g><path style="opacity:1" fill="#9999c3" d="M 362.5,263.5 C 362.5,266.167 362.5,268.833 362.5,271.5C 353.833,271.5 345.167,271.5 336.5,271.5C 336.5,268.833 336.5,266.167 336.5,263.5C 345.167,263.5 353.833,263.5 362.5,263.5 Z"/></g>
<g><path style="opacity:1" fill="#9498c3" d="M 405.5,263.5 C 408.5,263.5 411.5,263.5 414.5,263.5C 414.5,266.167 414.5,268.833 414.5,271.5C 411.5,271.5 408.5,271.5 405.5,271.5C 405.5,268.833 405.5,266.167 405.5,263.5 Z"/></g>
<g><path style="opacity:1" fill="#5da8e0" d="M 301.5,271.5 C 304.5,271.5 307.5,271.5 310.5,271.5C 310.5,280.167 310.5,288.833 310.5,297.5C 310.5,300.167 310.5,302.833 310.5,305.5C 307.5,305.5 304.5,305.5 301.5,305.5C 301.5,302.833 301.5,300.167 301.5,297.5C 301.5,288.833 301.5,280.167 301.5,271.5 Z"/></g>
<g><path style="opacity:1" fill="#9999c2" d="M 336.5,271.5 C 336.5,274.5 336.5,277.5 336.5,280.5C 333.833,280.5 331.167,280.5 328.5,280.5C 328.5,277.5 328.5,274.5 328.5,271.5C 331.167,271.5 333.833,271.5 336.5,271.5 Z"/></g>
<g><path style="opacity:1" fill="#ecedf2" d="M 336.5,271.5 C 345.167,271.5 353.833,271.5 362.5,271.5C 362.5,274.5 362.5,277.5 362.5,280.5C 365.167,280.5 367.833,280.5 370.5,280.5C 370.5,283.167 370.5,285.833 370.5,288.5C 364.833,288.5 359.167,288.5 353.5,288.5C 353.5,291.5 353.5,294.5 353.5,297.5C 350.615,297.194 347.948,297.527 345.5,298.5C 345.5,300.833 345.5,303.167 345.5,305.5C 339.833,305.5 334.167,305.5 328.5,305.5C 328.5,302.833 328.5,300.167 328.5,297.5C 331.167,297.5 333.833,297.5 336.5,297.5C 336.5,294.5 336.5,291.5 336.5,288.5C 339.5,288.5 342.5,288.5 345.5,288.5C 345.5,285.833 345.5,283.167 345.5,280.5C 342.5,280.5 339.5,280.5 336.5,280.5C 336.5,277.5 336.5,274.5 336.5,271.5 Z"/></g>
<g><path style="opacity:1" fill="#b0b0db" d="M 362.5,271.5 C 365.167,271.5 367.833,271.5 370.5,271.5C 370.5,274.5 370.5,277.5 370.5,280.5C 367.833,280.5 365.167,280.5 362.5,280.5C 362.5,277.5 362.5,274.5 362.5,271.5 Z"/></g>
<g><path style="opacity:1" fill="#3d6883" d="M 370.5,271.5 C 373.833,271.5 377.167,271.5 380.5,271.5C 380.5,274.5 380.5,277.5 380.5,280.5C 377.5,280.5 374.5,280.5 371.5,280.5C 371.167,280.5 370.833,280.5 370.5,280.5C 370.5,277.5 370.5,274.5 370.5,271.5 Z"/></g>
<g><path style="opacity:1" fill="#9596c1" d="M 414.5,271.5 C 422.833,271.5 431.167,271.5 439.5,271.5C 439.5,274.5 439.5,277.5 439.5,280.5C 433.833,280.5 428.167,280.5 422.5,280.5C 419.833,280.5 417.167,280.5 414.5,280.5C 414.5,277.5 414.5,274.5 414.5,271.5 Z"/></g>
<g><path style="opacity:1" fill="#5ca7e0" d="M 518.5,280.5 C 515.5,280.5 512.5,280.5 509.5,280.5C 509.5,283.167 509.5,285.833 509.5,288.5C 506.833,288.5 504.167,288.5 501.5,288.5C 492.5,288.5 483.5,288.5 474.5,288.5C 474.5,285.833 474.5,283.167 474.5,280.5C 483.5,280.5 492.5,280.5 501.5,280.5C 501.5,277.5 501.5,274.5 501.5,271.5C 509.833,271.5 518.167,271.5 526.5,271.5C 526.5,274.5 526.5,277.5 526.5,280.5C 523.833,280.5 521.167,280.5 518.5,280.5 Z"/></g>
<g><path style="opacity:1" fill="#ececf2" d="M 146.5,280.5 C 149.5,280.5 152.5,280.5 155.5,280.5C 155.5,283.167 155.5,285.833 155.5,288.5C 158.167,288.5 160.833,288.5 163.5,288.5C 163.5,291.5 163.5,294.5 163.5,297.5C 166.5,297.5 169.5,297.5 172.5,297.5C 172.5,300.167 172.5,302.833 172.5,305.5C 178.167,305.5 183.833,305.5 189.5,305.5C 189.5,302.833 189.5,300.167 189.5,297.5C 192.5,297.5 195.5,297.5 198.5,297.5C 198.5,303.167 198.5,308.833 198.5,314.5C 207.167,314.5 215.833,314.5 224.5,314.5C 224.5,311.5 224.5,308.5 224.5,305.5C 230.167,305.5 235.833,305.5 241.5,305.5C 241.5,302.833 241.5,300.167 241.5,297.5C 244.167,297.5 246.833,297.5 249.5,297.5C 249.5,291.833 249.5,286.167 249.5,280.5C 252.5,280.5 255.5,280.5 258.5,280.5C 258.5,283.167 258.5,285.833 258.5,288.5C 264.5,288.5 270.5,288.5 276.5,288.5C 276.5,291.5 276.5,294.5 276.5,297.5C 279.167,297.5 281.833,297.5 284.5,297.5C 284.5,300.167 284.5,302.833 284.5,305.5C 290.167,305.5 295.833,305.5 301.5,305.5C 301.5,311.167 301.5,316.833 301.5,322.5C 301.5,322.833 301.5,323.167 301.5,323.5C 295.833,323.5 290.167,323.5 284.5,323.5C 284.5,326.5 284.5,329.5 284.5,332.5C 275.833,332.5 267.167,332.5 258.5,332.5C 258.5,329.5 258.5,326.5 258.5,323.5C 255.5,323.5 252.5,323.5 249.5,323.5C 249.5,320.833 249.5,318.167 249.5,315.5C 241.167,315.5 232.833,315.5 224.5,315.5C 224.5,318.167 224.5,320.833 224.5,323.5C 221.5,323.5 218.5,323.5 215.5,323.5C 215.5,326.5 215.5,329.5 215.5,332.5C 209.5,332.5 203.5,332.5 197.5,332.5C 197.5,329.5 197.5,326.5 197.5,323.5C 194.833,323.5 192.167,323.5 189.5,323.5C 189.5,320.833 189.5,318.167 189.5,315.5C 180.833,315.5 172.167,315.5 163.5,315.5C 163.5,312.167 163.5,308.833 163.5,305.5C 157.833,305.5 152.167,305.5 146.5,305.5C 146.5,297.167 146.5,288.833 146.5,280.5 Z"/></g>
<g><path style="opacity:1" fill="#999dc4" d="M 328.5,280.5 C 328.5,283.167 328.5,285.833 328.5,288.5C 325.5,288.5 322.5,288.5 319.5,288.5C 319.5,291.5 319.5,294.5 319.5,297.5C 319.167,297.5 318.833,297.5 318.5,297.5C 318.5,294.5 318.5,291.5 318.5,288.5C 318.5,285.833 318.5,283.167 318.5,280.5C 321.833,280.5 325.167,280.5 328.5,280.5 Z"/></g>
<g><path style="opacity:1" fill="#f9faf9" d="M 328.5,280.5 C 331.167,280.5 333.833,280.5 336.5,280.5C 339.5,280.5 342.5,280.5 345.5,280.5C 345.5,283.167 345.5,285.833 345.5,288.5C 342.5,288.5 339.5,288.5 336.5,288.5C 336.5,291.5 336.5,294.5 336.5,297.5C 333.833,297.5 331.167,297.5 328.5,297.5C 328.5,294.5 328.5,291.5 328.5,288.5C 328.5,285.833 328.5,283.167 328.5,280.5 Z"/></g>
<g><path style="opacity:1" fill="#9294be" d="M 371.5,280.5 C 374.5,280.5 377.5,280.5 380.5,280.5C 380.5,283.167 380.5,285.833 380.5,288.5C 380.167,288.5 379.833,288.5 379.5,288.5C 376.833,288.5 374.167,288.5 371.5,288.5C 371.5,285.833 371.5,283.167 371.5,280.5 Z"/></g>
<g><path style="opacity:1" fill="#3a6782" d="M 380.5,280.5 C 383.167,280.5 385.833,280.5 388.5,280.5C 388.5,286.167 388.5,291.833 388.5,297.5C 388.806,300.385 388.473,303.052 387.5,305.5C 385.167,305.5 382.833,305.5 380.5,305.5C 380.5,299.833 380.5,294.167 380.5,288.5C 380.5,285.833 380.5,283.167 380.5,280.5 Z"/></g>
<g><path style="opacity:1" fill="#5da7e0" d="M 414.5,280.5 C 417.167,280.5 419.833,280.5 422.5,280.5C 422.5,288.833 422.5,297.167 422.5,305.5C 419.833,305.5 417.167,305.5 414.5,305.5C 414.5,308.5 414.5,311.5 414.5,314.5C 408.833,314.5 403.167,314.5 397.5,314.5C 397.5,317.5 397.5,320.5 397.5,323.5C 391.833,323.5 386.167,323.5 380.5,323.5C 380.5,320.833 380.5,318.167 380.5,315.5C 380.5,315.167 380.5,314.833 380.5,314.5C 382.833,314.5 385.167,314.5 387.5,314.5C 387.5,311.5 387.5,308.5 387.5,305.5C 388.473,303.052 388.806,300.385 388.5,297.5C 394.167,297.5 399.833,297.5 405.5,297.5C 405.5,294.5 405.5,291.5 405.5,288.5C 408.5,288.5 411.5,288.5 414.5,288.5C 414.5,285.833 414.5,283.167 414.5,280.5 Z"/></g>
<g><path style="opacity:1" fill="#578fc8" d="M 422.5,280.5 C 428.167,280.5 433.833,280.5 439.5,280.5C 439.833,280.5 440.167,280.5 440.5,280.5C 440.5,283.167 440.5,285.833 440.5,288.5C 443.5,288.5 446.5,288.5 449.5,288.5C 449.5,297.5 449.5,306.5 449.5,315.5C 449.5,318.167 449.5,320.833 449.5,323.5C 446.5,323.5 443.5,323.5 440.5,323.5C 440.5,326.5 440.5,329.5 440.5,332.5C 440.5,335.167 440.5,337.833 440.5,340.5C 437.833,340.5 435.167,340.5 432.5,340.5C 431.523,343.287 431.19,346.287 431.5,349.5C 428.5,349.5 425.5,349.5 422.5,349.5C 422.5,352.167 422.5,354.833 422.5,357.5C 419.833,357.5 417.167,357.5 414.5,357.5C 414.5,360.5 414.5,363.5 414.5,366.5C 411.5,366.5 408.5,366.5 405.5,366.5C 402.615,366.194 399.948,366.527 397.5,367.5C 394.5,367.5 391.5,367.5 388.5,367.5C 388.5,369.833 388.5,372.167 388.5,374.5C 385.946,375.388 383.279,375.721 380.5,375.5C 377.713,374.523 374.713,374.19 371.5,374.5C 371.5,371.833 371.5,369.167 371.5,366.5C 368.5,366.5 365.5,366.5 362.5,366.5C 362.5,357.833 362.5,349.167 362.5,340.5C 365.167,340.5 367.833,340.5 370.5,340.5C 370.5,337.833 370.5,335.167 370.5,332.5C 370.5,329.5 370.5,326.5 370.5,323.5C 370.833,323.5 371.167,323.5 371.5,323.5C 374.5,323.5 377.5,323.5 380.5,323.5C 386.167,323.5 391.833,323.5 397.5,323.5C 397.5,320.5 397.5,317.5 397.5,314.5C 403.167,314.5 408.833,314.5 414.5,314.5C 414.5,311.5 414.5,308.5 414.5,305.5C 417.167,305.5 419.833,305.5 422.5,305.5C 422.5,297.167 422.5,288.833 422.5,280.5 Z"/></g>
<g><path style="opacity:1" fill="#9595bf" d="M 440.5,280.5 C 446.167,280.5 451.833,280.5 457.5,280.5C 457.5,283.167 457.5,285.833 457.5,288.5C 454.833,288.5 452.167,288.5 449.5,288.5C 446.5,288.5 443.5,288.5 440.5,288.5C 440.5,285.833 440.5,283.167 440.5,280.5 Z"/></g>
<g><path style="opacity:1" fill="#0c0d0d" d="M 457.5,280.5 C 460.5,280.5 463.5,280.5 466.5,280.5C 466.5,283.167 466.5,285.833 466.5,288.5C 466.5,291.5 466.5,294.5 466.5,297.5C 472.167,297.5 477.833,297.5 483.5,297.5C 483.5,300.5 483.5,303.5 483.5,306.5C 478.167,306.5 472.833,306.5 467.5,306.5C 467.5,311.833 467.5,317.167 467.5,322.5C 463.833,322.5 460.167,322.5 456.5,322.5C 456.5,325.5 456.5,328.5 456.5,331.5C 454.167,331.5 451.833,331.5 449.5,331.5C 449.5,328.833 449.5,326.167 449.5,323.5C 449.5,320.833 449.5,318.167 449.5,315.5C 452.167,315.5 454.833,315.5 457.5,315.5C 457.5,306.5 457.5,297.5 457.5,288.5C 457.5,285.833 457.5,283.167 457.5,280.5 Z"/></g>
<g><path style="opacity:1" fill="#37637b" d="M 466.5,280.5 C 469.167,280.5 471.833,280.5 474.5,280.5C 474.5,283.167 474.5,285.833 474.5,288.5C 471.833,288.5 469.167,288.5 466.5,288.5C 466.5,285.833 466.5,283.167 466.5,280.5 Z"/></g>
<g><path style="opacity:1" fill="#578fc8" d="M 518.5,280.5 C 518.5,283.167 518.5,285.833 518.5,288.5C 515.5,288.5 512.5,288.5 509.5,288.5C 509.5,285.833 509.5,283.167 509.5,280.5C 512.5,280.5 515.5,280.5 518.5,280.5 Z"/></g>
<g><path style="opacity:1" fill="#38657f" d="M 518.5,288.5 C 518.5,285.833 518.5,283.167 518.5,280.5C 521.167,280.5 523.833,280.5 526.5,280.5C 526.5,277.5 526.5,274.5 526.5,271.5C 518.167,271.5 509.833,271.5 501.5,271.5C 501.5,274.5 501.5,277.5 501.5,280.5C 492.5,280.5 483.5,280.5 474.5,280.5C 474.5,277.5 474.5,274.5 474.5,271.5C 478.042,271.813 481.375,271.479 484.5,270.5C 489.833,270.5 495.167,270.5 500.5,270.5C 500.5,267.833 500.5,265.167 500.5,262.5C 509.5,262.5 518.5,262.5 527.5,262.5C 527.5,265.167 527.5,267.833 527.5,270.5C 530.5,270.5 533.5,270.5 536.5,270.5C 536.5,273.833 536.5,277.167 536.5,280.5C 533.5,280.5 530.5,280.5 527.5,280.5C 527.5,283.167 527.5,285.833 527.5,288.5C 524.5,288.5 521.5,288.5 518.5,288.5 Z"/></g>
<g><path style="opacity:1" fill="#9596c0" d="M 137.5,288.5 C 140.167,288.5 142.833,288.5 145.5,288.5C 145.5,294.5 145.5,300.5 145.5,306.5C 142.833,306.5 140.167,306.5 137.5,306.5C 137.5,300.5 137.5,294.5 137.5,288.5 Z"/></g>
<g><path style="opacity:1" fill="#9596c0" d="M 276.5,288.5 C 279.167,288.5 281.833,288.5 284.5,288.5C 284.5,291.5 284.5,294.5 284.5,297.5C 281.833,297.5 279.167,297.5 276.5,297.5C 276.5,294.5 276.5,291.5 276.5,288.5 Z"/></g>
<g><path style="opacity:1" fill="#f9faf9" d="M 318.5,288.5 C 318.5,291.5 318.5,294.5 318.5,297.5C 316.167,297.5 313.833,297.5 311.5,297.5C 311.5,294.5 311.5,291.5 311.5,288.5C 313.833,288.5 316.167,288.5 318.5,288.5 Z"/></g>
<g><path style="opacity:1" fill="#3d6780" d="M 328.5,288.5 C 328.5,291.5 328.5,294.5 328.5,297.5C 325.5,297.5 322.5,297.5 319.5,297.5C 319.5,294.5 319.5,291.5 319.5,288.5C 322.5,288.5 325.5,288.5 328.5,288.5 Z"/></g>
<g><path style="opacity:1" fill="#9696c1" d="M 370.5,288.5 C 370.5,291.5 370.5,294.5 370.5,297.5C 364.833,297.5 359.167,297.5 353.5,297.5C 353.5,294.5 353.5,291.5 353.5,288.5C 359.167,288.5 364.833,288.5 370.5,288.5 Z"/></g>
<g><path style="opacity:1" fill="#c6c6e0" d="M 370.5,280.5 C 370.833,280.5 371.167,280.5 371.5,280.5C 371.5,283.167 371.5,285.833 371.5,288.5C 374.167,288.5 376.833,288.5 379.5,288.5C 379.5,297.167 379.5,305.833 379.5,314.5C 376.5,314.5 373.5,314.5 370.5,314.5C 370.5,317.167 370.5,319.833 370.5,322.5C 362.167,322.5 353.833,322.5 345.5,322.5C 345.5,320.167 345.5,317.833 345.5,315.5C 345.5,312.5 345.5,309.5 345.5,306.5C 339.833,306.5 334.167,306.5 328.5,306.5C 328.5,306.167 328.5,305.833 328.5,305.5C 334.167,305.5 339.833,305.5 345.5,305.5C 348.167,305.5 350.833,305.5 353.5,305.5C 353.5,303.167 353.5,300.833 353.5,298.5C 350.833,298.5 348.167,298.5 345.5,298.5C 347.948,297.527 350.615,297.194 353.5,297.5C 359.167,297.5 364.833,297.5 370.5,297.5C 370.5,294.5 370.5,291.5 370.5,288.5C 370.5,285.833 370.5,283.167 370.5,280.5 Z"/></g>
<g><path style="opacity:1" fill="#366279" d="M 449.5,288.5 C 452.167,288.5 454.833,288.5 457.5,288.5C 457.5,297.5 457.5,306.5 457.5,315.5C 454.833,315.5 452.167,315.5 449.5,315.5C 449.5,306.5 449.5,297.5 449.5,288.5 Z"/></g>
<g><path style="opacity:1" fill="#568ec6" d="M 466.5,288.5 C 469.167,288.5 471.833,288.5 474.5,288.5C 483.5,288.5 492.5,288.5 501.5,288.5C 501.5,291.5 501.5,294.5 501.5,297.5C 495.5,297.5 489.5,297.5 483.5,297.5C 477.833,297.5 472.167,297.5 466.5,297.5C 466.5,294.5 466.5,291.5 466.5,288.5 Z"/></g>
<g><path style="opacity:1" fill="#9596c0" d="M 284.5,297.5 C 290.167,297.5 295.833,297.5 301.5,297.5C 301.5,300.167 301.5,302.833 301.5,305.5C 295.833,305.5 290.167,305.5 284.5,305.5C 284.5,302.833 284.5,300.167 284.5,297.5 Z"/></g>
<g><path style="opacity:1" fill="#494e5e" d="M 310.5,297.5 C 310.833,297.5 311.167,297.5 311.5,297.5C 313.833,297.5 316.167,297.5 318.5,297.5C 318.833,297.5 319.167,297.5 319.5,297.5C 319.5,300.167 319.5,302.833 319.5,305.5C 319.167,305.5 318.833,305.5 318.5,305.5C 318.5,303.167 318.5,300.833 318.5,298.5C 316.167,298.5 313.833,298.5 311.5,298.5C 311.5,300.833 311.5,303.167 311.5,305.5C 311.167,305.5 310.833,305.5 310.5,305.5C 310.5,302.833 310.5,300.167 310.5,297.5 Z"/></g>
<g><path style="opacity:1" fill="#0b0c0b" d="M 318.5,305.5 C 316.167,305.5 313.833,305.5 311.5,305.5C 311.5,303.167 311.5,300.833 311.5,298.5C 313.833,298.5 316.167,298.5 318.5,298.5C 318.5,300.833 318.5,303.167 318.5,305.5 Z"/></g>
<g><path style="opacity:1" fill="#9597c0" d="M 319.5,297.5 C 322.5,297.5 325.5,297.5 328.5,297.5C 328.5,300.167 328.5,302.833 328.5,305.5C 325.5,305.5 322.5,305.5 319.5,305.5C 319.5,302.833 319.5,300.167 319.5,297.5 Z"/></g>
<g><path style="opacity:1" fill="#9596c0" d="M 345.5,298.5 C 348.167,298.5 350.833,298.5 353.5,298.5C 353.5,300.833 353.5,303.167 353.5,305.5C 350.833,305.5 348.167,305.5 345.5,305.5C 345.5,303.167 345.5,300.833 345.5,298.5 Z"/></g>
<g><path style="opacity:1" fill="#37647d" d="M 501.5,288.5 C 504.167,288.5 506.833,288.5 509.5,288.5C 512.5,288.5 515.5,288.5 518.5,288.5C 518.5,291.833 518.5,295.167 518.5,298.5C 512.833,298.5 507.167,298.5 501.5,298.5C 501.5,301.167 501.5,303.833 501.5,306.5C 495.5,306.5 489.5,306.5 483.5,306.5C 483.5,303.5 483.5,300.5 483.5,297.5C 489.5,297.5 495.5,297.5 501.5,297.5C 501.5,294.5 501.5,291.5 501.5,288.5 Z"/></g>
<g><path style="opacity:1" fill="#5890c8" d="M 301.5,305.5 C 304.5,305.5 307.5,305.5 310.5,305.5C 310.5,311.167 310.5,316.833 310.5,322.5C 307.5,322.5 304.5,322.5 301.5,322.5C 301.5,316.833 301.5,311.167 301.5,305.5 Z"/></g>
<g><path style="opacity:1" fill="#a5def8" d="M 310.5,305.5 C 310.833,305.5 311.167,305.5 311.5,305.5C 313.833,305.5 316.167,305.5 318.5,305.5C 318.833,305.5 319.167,305.5 319.5,305.5C 322.5,305.5 325.5,305.5 328.5,305.5C 328.5,305.833 328.5,306.167 328.5,306.5C 328.5,309.167 328.5,311.833 328.5,314.5C 331.385,314.194 334.052,314.527 336.5,315.5C 336.5,318.167 336.5,320.833 336.5,323.5C 336.5,326.5 336.5,329.5 336.5,332.5C 330.833,332.5 325.167,332.5 319.5,332.5C 319.81,329.287 319.477,326.287 318.5,323.5C 316.052,322.527 313.385,322.194 310.5,322.5C 310.5,316.833 310.5,311.167 310.5,305.5 Z"/></g>
<g><path style="opacity:1" fill="#a3a4cf" d="M 328.5,306.5 C 334.167,306.5 339.833,306.5 345.5,306.5C 345.5,309.5 345.5,312.5 345.5,315.5C 342.5,315.5 339.5,315.5 336.5,315.5C 334.052,314.527 331.385,314.194 328.5,314.5C 328.5,311.833 328.5,309.167 328.5,306.5 Z"/></g>
<g><path style="opacity:1" fill="#558dc6" d="M 380.5,305.5 C 382.833,305.5 385.167,305.5 387.5,305.5C 387.5,308.5 387.5,311.5 387.5,314.5C 385.167,314.5 382.833,314.5 380.5,314.5C 380.5,311.5 380.5,308.5 380.5,305.5 Z"/></g>
<g><path style="opacity:1" fill="#c8c8e1" d="M 214.5,253.5 C 223.682,253.173 232.682,253.507 241.5,254.5C 232.833,254.5 224.167,254.5 215.5,254.5C 215.5,257.5 215.5,260.5 215.5,263.5C 212.5,263.5 209.5,263.5 206.5,263.5C 206.5,260.5 206.5,257.5 206.5,254.5C 197.833,254.5 189.167,254.5 180.5,254.5C 180.5,257.5 180.5,260.5 180.5,263.5C 172.167,263.5 163.833,263.5 155.5,263.5C 155.5,266.167 155.5,268.833 155.5,271.5C 152.5,271.5 149.5,271.5 146.5,271.5C 146.5,274.5 146.5,277.5 146.5,280.5C 146.5,288.833 146.5,297.167 146.5,305.5C 152.167,305.5 157.833,305.5 163.5,305.5C 163.5,308.833 163.5,312.167 163.5,315.5C 172.167,315.5 180.833,315.5 189.5,315.5C 189.5,318.167 189.5,320.833 189.5,323.5C 192.167,323.5 194.833,323.5 197.5,323.5C 197.5,326.5 197.5,329.5 197.5,332.5C 203.5,332.5 209.5,332.5 215.5,332.5C 215.5,329.5 215.5,326.5 215.5,323.5C 218.5,323.5 221.5,323.5 224.5,323.5C 224.5,320.833 224.5,318.167 224.5,315.5C 232.833,315.5 241.167,315.5 249.5,315.5C 249.5,318.167 249.5,320.833 249.5,323.5C 252.5,323.5 255.5,323.5 258.5,323.5C 258.5,326.5 258.5,329.5 258.5,332.5C 267.167,332.5 275.833,332.5 284.5,332.5C 284.5,329.5 284.5,326.5 284.5,323.5C 290.167,323.5 295.833,323.5 301.5,323.5C 304.5,323.5 307.5,323.5 310.5,323.5C 310.5,329.167 310.5,334.833 310.5,340.5C 307.5,340.5 304.5,340.5 301.5,340.5C 301.5,346.167 301.5,351.833 301.5,357.5C 295.833,357.5 290.167,357.5 284.5,357.5C 284.5,360.5 284.5,363.5 284.5,366.5C 278.833,366.5 273.167,366.5 267.5,366.5C 267.5,363.5 267.5,360.5 267.5,357.5C 261.5,357.5 255.5,357.5 249.5,357.5C 249.5,360.5 249.5,363.5 249.5,366.5C 238.167,366.5 226.833,366.5 215.5,366.5C 215.5,360.833 215.5,355.167 215.5,349.5C 201.167,349.5 186.833,349.5 172.5,349.5C 172.5,346.5 172.5,343.5 172.5,340.5C 169.5,340.5 166.5,340.5 163.5,340.5C 163.5,337.833 163.5,335.167 163.5,332.5C 160.833,332.5 158.167,332.5 155.5,332.5C 155.5,326.5 155.5,320.5 155.5,314.5C 157.833,314.5 160.167,314.5 162.5,314.5C 162.5,311.833 162.5,309.167 162.5,306.5C 156.833,306.5 151.167,306.5 145.5,306.5C 145.5,300.5 145.5,294.5 145.5,288.5C 142.833,288.5 140.167,288.5 137.5,288.5C 137.5,282.5 137.5,276.5 137.5,270.5C 140.167,270.5 142.833,270.5 145.5,270.5C 145.5,267.833 145.5,265.167 145.5,262.5C 148.5,262.5 151.5,262.5 154.5,262.5C 154.5,259.5 154.5,256.5 154.5,253.5C 163.167,253.5 171.833,253.5 180.5,253.5C 180.5,250.833 180.5,248.167 180.5,245.5C 189.5,245.5 198.5,245.5 207.5,245.5C 207.5,248.167 207.5,250.833 207.5,253.5C 209.833,253.5 212.167,253.5 214.5,253.5 Z"/></g>
<g><path style="opacity:1" fill="#3a6882" d="M 336.5,315.5 C 339.5,315.5 342.5,315.5 345.5,315.5C 345.5,317.833 345.5,320.167 345.5,322.5C 345.5,322.833 345.5,323.167 345.5,323.5C 342.5,323.5 339.5,323.5 336.5,323.5C 336.5,320.833 336.5,318.167 336.5,315.5 Z"/></g>
<g><path style="opacity:1" fill="#3a6883" d="M 380.5,315.5 C 380.5,318.167 380.5,320.833 380.5,323.5C 377.5,323.5 374.5,323.5 371.5,323.5C 371.5,320.833 371.5,318.167 371.5,315.5C 374.5,315.5 377.5,315.5 380.5,315.5 Z"/></g>
<g><path style="opacity:1" fill="#8e9fb9" d="M 379.5,288.5 C 379.833,288.5 380.167,288.5 380.5,288.5C 380.5,294.167 380.5,299.833 380.5,305.5C 380.5,308.5 380.5,311.5 380.5,314.5C 380.5,314.833 380.5,315.167 380.5,315.5C 377.5,315.5 374.5,315.5 371.5,315.5C 371.5,318.167 371.5,320.833 371.5,323.5C 371.167,323.5 370.833,323.5 370.5,323.5C 362.167,323.5 353.833,323.5 345.5,323.5C 345.5,323.167 345.5,322.833 345.5,322.5C 353.833,322.5 362.167,322.5 370.5,322.5C 370.5,319.833 370.5,317.167 370.5,314.5C 373.5,314.5 376.5,314.5 379.5,314.5C 379.5,305.833 379.5,297.167 379.5,288.5 Z"/></g>
<g><path style="opacity:1" fill="#0b0c0b" d="M 467.5,322.5 C 470.167,322.5 472.833,322.5 475.5,322.5C 475.5,325.5 475.5,328.5 475.5,331.5C 472.833,331.5 470.167,331.5 467.5,331.5C 467.5,328.5 467.5,325.5 467.5,322.5 Z"/></g>
<g><path style="opacity:1" fill="#84acd7" d="M 301.5,323.5 C 301.5,323.167 301.5,322.833 301.5,322.5C 304.5,322.5 307.5,322.5 310.5,322.5C 313.385,322.194 316.052,322.527 318.5,323.5C 316.167,323.5 313.833,323.5 311.5,323.5C 311.822,329.358 311.489,335.025 310.5,340.5C 310.5,334.833 310.5,329.167 310.5,323.5C 307.5,323.5 304.5,323.5 301.5,323.5 Z"/></g>
<g><path style="opacity:1" fill="#588fc7" d="M 318.5,323.5 C 318.5,332.167 318.5,340.833 318.5,349.5C 318.5,349.833 318.5,350.167 318.5,350.5C 316.167,350.5 313.833,350.5 311.5,350.5C 310.586,347.272 310.253,343.939 310.5,340.5C 311.489,335.025 311.822,329.358 311.5,323.5C 313.833,323.5 316.167,323.5 318.5,323.5 Z"/></g>
<g><path style="opacity:1" fill="#75c6f8" d="M 318.5,323.5 C 319.477,326.287 319.81,329.287 319.5,332.5C 325.167,332.5 330.833,332.5 336.5,332.5C 336.5,329.5 336.5,326.5 336.5,323.5C 339.5,323.5 342.5,323.5 345.5,323.5C 345.5,326.5 345.5,329.5 345.5,332.5C 345.5,335.167 345.5,337.833 345.5,340.5C 342.5,340.5 339.5,340.5 336.5,340.5C 336.5,346.167 336.5,351.833 336.5,357.5C 333.833,357.5 331.167,357.5 328.5,357.5C 328.5,354.833 328.5,352.167 328.5,349.5C 325.167,349.5 321.833,349.5 318.5,349.5C 318.5,340.833 318.5,332.167 318.5,323.5 Z"/></g>
<g><path style="opacity:1" fill="#38657f" d="M 345.5,323.5 C 353.833,323.5 362.167,323.5 370.5,323.5C 370.5,326.5 370.5,329.5 370.5,332.5C 362.167,332.5 353.833,332.5 345.5,332.5C 345.5,329.5 345.5,326.5 345.5,323.5 Z"/></g>
<g><path style="opacity:1" fill="#395a6d" d="M 449.5,323.5 C 449.5,326.167 449.5,328.833 449.5,331.5C 449.5,331.833 449.5,332.167 449.5,332.5C 449.5,335.167 449.5,337.833 449.5,340.5C 449.5,346.167 449.5,351.833 449.5,357.5C 448.507,349.35 448.174,341.017 448.5,332.5C 445.833,332.5 443.167,332.5 440.5,332.5C 440.5,329.5 440.5,326.5 440.5,323.5C 443.5,323.5 446.5,323.5 449.5,323.5 Z"/></g>
<g><path style="opacity:1" fill="#5ca6df" d="M 345.5,332.5 C 353.833,332.5 362.167,332.5 370.5,332.5C 370.5,335.167 370.5,337.833 370.5,340.5C 367.833,340.5 365.167,340.5 362.5,340.5C 362.5,349.167 362.5,357.833 362.5,366.5C 365.5,366.5 368.5,366.5 371.5,366.5C 371.5,369.167 371.5,371.833 371.5,374.5C 362.833,374.5 354.167,374.5 345.5,374.5C 345.5,371.833 345.5,369.167 345.5,366.5C 342.5,366.5 339.5,366.5 336.5,366.5C 333.833,366.5 331.167,366.5 328.5,366.5C 328.5,363.5 328.5,360.5 328.5,357.5C 331.167,357.5 333.833,357.5 336.5,357.5C 336.5,351.833 336.5,346.167 336.5,340.5C 339.5,340.5 342.5,340.5 345.5,340.5C 345.5,337.833 345.5,335.167 345.5,332.5 Z"/></g>
<g><path style="opacity:1" fill="#0c0c0c" d="M 475.5,331.5 C 478.5,331.5 481.5,331.5 484.5,331.5C 484.5,337.833 484.5,344.167 484.5,350.5C 481.5,350.5 478.5,350.5 475.5,350.5C 475.768,353.119 475.435,355.619 474.5,358C 468.843,358.499 463.176,358.666 457.5,358.5C 457.5,361.5 457.5,364.5 457.5,367.5C 454.5,367.5 451.5,367.5 448.5,367.5C 448.5,364.5 448.5,361.5 448.5,358.5C 445.5,358.5 442.5,358.5 439.5,358.5C 439.5,355.833 439.5,353.167 439.5,350.5C 437.167,350.5 434.833,350.5 432.5,350.5C 432.5,347.167 432.5,343.833 432.5,340.5C 435.167,340.5 437.833,340.5 440.5,340.5C 440.5,337.833 440.5,335.167 440.5,332.5C 443.167,332.5 445.833,332.5 448.5,332.5C 448.174,341.017 448.507,349.35 449.5,357.5C 452.167,357.5 454.833,357.5 457.5,357.5C 457.5,354.833 457.5,352.167 457.5,349.5C 460.5,349.5 463.5,349.5 466.5,349.5C 469.167,349.5 471.833,349.5 474.5,349.5C 475.49,343.69 475.823,337.69 475.5,331.5 Z"/></g>
<g><path style="opacity:1" fill="#9797c2" d="M 449.5,332.5 C 452.167,332.5 454.833,332.5 457.5,332.5C 457.5,335.167 457.5,337.833 457.5,340.5C 454.833,340.5 452.167,340.5 449.5,340.5C 449.5,337.833 449.5,335.167 449.5,332.5 Z"/></g>
<g><path style="opacity:1" fill="#c7c7e1" d="M 457.5,332.5 C 460.5,332.5 463.5,332.5 466.5,332.5C 466.5,335.167 466.5,337.833 466.5,340.5C 463.5,340.5 460.5,340.5 457.5,340.5C 457.5,337.833 457.5,335.167 457.5,332.5 Z"/></g>
<g><path style="opacity:1" fill="#ebebf2" d="M 466.5,332.5 C 469.167,332.5 471.833,332.5 474.5,332.5C 474.5,335.167 474.5,337.833 474.5,340.5C 471.833,340.5 469.167,340.5 466.5,340.5C 466.5,337.833 466.5,335.167 466.5,332.5 Z"/></g>
<g><path style="opacity:1" fill="#2d2d30" d="M 467.5,322.5 C 467.5,325.5 467.5,328.5 467.5,331.5C 470.167,331.5 472.833,331.5 475.5,331.5C 475.823,337.69 475.49,343.69 474.5,349.5C 474.5,346.5 474.5,343.5 474.5,340.5C 474.5,337.833 474.5,335.167 474.5,332.5C 471.833,332.5 469.167,332.5 466.5,332.5C 466.5,329.5 466.5,326.5 466.5,323.5C 463.5,323.5 460.5,323.5 457.5,323.5C 457.5,326.5 457.5,329.5 457.5,332.5C 454.833,332.5 452.167,332.5 449.5,332.5C 449.5,332.167 449.5,331.833 449.5,331.5C 451.833,331.5 454.167,331.5 456.5,331.5C 456.5,328.5 456.5,325.5 456.5,322.5C 460.167,322.5 463.833,322.5 467.5,322.5 Z"/></g>
<g><path style="opacity:1" fill="#9797c1" d="M 466.5,332.5 C 463.5,332.5 460.5,332.5 457.5,332.5C 457.5,329.5 457.5,326.5 457.5,323.5C 460.5,323.5 463.5,323.5 466.5,323.5C 466.5,326.5 466.5,329.5 466.5,332.5 Z"/></g>
<g><path style="opacity:1" fill="#eaeaf0" d="M 449.5,340.5 C 452.167,340.5 454.833,340.5 457.5,340.5C 457.5,343.5 457.5,346.5 457.5,349.5C 457.5,352.167 457.5,354.833 457.5,357.5C 454.833,357.5 452.167,357.5 449.5,357.5C 449.5,351.833 449.5,346.167 449.5,340.5 Z"/></g>
<g><path style="opacity:1" fill="#9596c0" d="M 457.5,340.5 C 460.5,340.5 463.5,340.5 466.5,340.5C 466.5,343.5 466.5,346.5 466.5,349.5C 463.5,349.5 460.5,349.5 457.5,349.5C 457.5,346.5 457.5,343.5 457.5,340.5 Z"/></g>
<g><path style="opacity:1" fill="#c7c7e1" d="M 466.5,340.5 C 469.167,340.5 471.833,340.5 474.5,340.5C 474.5,343.5 474.5,346.5 474.5,349.5C 471.833,349.5 469.167,349.5 466.5,349.5C 466.5,346.5 466.5,343.5 466.5,340.5 Z"/></g>
<g><path style="opacity:1" fill="#262f3a" d="M 432.5,340.5 C 432.5,343.833 432.5,347.167 432.5,350.5C 429.5,350.5 426.5,350.5 423.5,350.5C 423.5,353.167 423.5,355.833 423.5,358.5C 420.833,358.5 418.167,358.5 415.5,358.5C 415.5,367.167 415.5,375.833 415.5,384.5C 415.167,384.5 414.833,384.5 414.5,384.5C 414.5,381.167 414.5,377.833 414.5,374.5C 414.5,371.833 414.5,369.167 414.5,366.5C 414.5,363.5 414.5,360.5 414.5,357.5C 417.167,357.5 419.833,357.5 422.5,357.5C 422.5,354.833 422.5,352.167 422.5,349.5C 425.5,349.5 428.5,349.5 431.5,349.5C 431.19,346.287 431.523,343.287 432.5,340.5 Z"/></g>
<g><path style="opacity:1" fill="#396881" d="M 318.5,349.5 C 321.833,349.5 325.167,349.5 328.5,349.5C 328.5,352.167 328.5,354.833 328.5,357.5C 325.167,357.5 321.833,357.5 318.5,357.5C 318.5,355.167 318.5,352.833 318.5,350.5C 318.5,350.167 318.5,349.833 318.5,349.5 Z"/></g>
<g><path style="opacity:1" fill="#0b0c0b" d="M 432.5,350.5 C 432.5,353.167 432.5,355.833 432.5,358.5C 429.5,358.5 426.5,358.5 423.5,358.5C 423.5,355.833 423.5,353.167 423.5,350.5C 426.5,350.5 429.5,350.5 432.5,350.5 Z"/></g>
<g><path style="opacity:1" fill="#9797c2" d="M 145.5,306.5 C 151.167,306.5 156.833,306.5 162.5,306.5C 162.5,309.167 162.5,311.833 162.5,314.5C 160.167,314.5 157.833,314.5 155.5,314.5C 155.5,320.5 155.5,326.5 155.5,332.5C 158.167,332.5 160.833,332.5 163.5,332.5C 163.5,335.167 163.5,337.833 163.5,340.5C 166.5,340.5 169.5,340.5 172.5,340.5C 172.5,343.5 172.5,346.5 172.5,349.5C 186.833,349.5 201.167,349.5 215.5,349.5C 215.5,355.167 215.5,360.833 215.5,366.5C 226.833,366.5 238.167,366.5 249.5,366.5C 249.5,363.5 249.5,360.5 249.5,357.5C 255.5,357.5 261.5,357.5 267.5,357.5C 267.5,360.5 267.5,363.5 267.5,366.5C 273.167,366.5 278.833,366.5 284.5,366.5C 284.5,363.5 284.5,360.5 284.5,357.5C 290.167,357.5 295.833,357.5 301.5,357.5C 301.5,351.833 301.5,346.167 301.5,340.5C 304.5,340.5 307.5,340.5 310.5,340.5C 310.253,343.939 310.586,347.272 311.5,350.5C 311.5,353.167 311.5,355.833 311.5,358.5C 308.5,358.5 305.5,358.5 302.5,358.5C 302.5,361.5 302.5,364.5 302.5,367.5C 296.5,367.5 290.5,367.5 284.5,367.5C 284.5,370.167 284.5,372.833 284.5,375.5C 278.5,375.5 272.5,375.5 266.5,375.5C 266.5,372.833 266.5,370.167 266.5,367.5C 261.167,367.5 255.833,367.5 250.5,367.5C 250.5,370.167 250.5,372.833 250.5,375.5C 238.5,375.5 226.5,375.5 214.5,375.5C 214.5,372.833 214.5,370.167 214.5,367.5C 211.833,367.5 209.167,367.5 206.5,367.5C 206.5,364.5 206.5,361.5 206.5,358.5C 195.167,358.5 183.833,358.5 172.5,358.5C 172.5,355.833 172.5,353.167 172.5,350.5C 169.482,350.665 166.482,350.498 163.5,350C 162.549,346.943 162.216,343.777 162.5,340.5C 159.833,340.5 157.167,340.5 154.5,340.5C 154.5,337.833 154.5,335.167 154.5,332.5C 151.5,332.5 148.5,332.5 145.5,332.5C 145.5,323.833 145.5,315.167 145.5,306.5 Z"/></g>
<g><path style="opacity:1" fill="#0f1113" d="M 318.5,357.5 C 321.833,357.5 325.167,357.5 328.5,357.5C 328.5,360.5 328.5,363.5 328.5,366.5C 331.167,366.5 333.833,366.5 336.5,366.5C 336.5,369.5 336.5,372.5 336.5,375.5C 333.5,375.5 330.5,375.5 327.5,375.5C 327.5,372.833 327.5,370.167 327.5,367.5C 324.5,367.5 321.5,367.5 318.5,367.5C 318.5,364.167 318.5,360.833 318.5,357.5 Z"/></g>
<g><path style="opacity:1" fill="#0b0c0b" d="M 423.5,358.5 C 423.5,367.167 423.5,375.833 423.5,384.5C 420.833,384.5 418.167,384.5 415.5,384.5C 415.5,375.833 415.5,367.167 415.5,358.5C 418.167,358.5 420.833,358.5 423.5,358.5 Z"/></g>
<g><path style="opacity:1" fill="#39627b" d="M 336.5,366.5 C 339.5,366.5 342.5,366.5 345.5,366.5C 345.5,369.167 345.5,371.833 345.5,374.5C 354.167,374.5 362.833,374.5 371.5,374.5C 374.713,374.19 377.713,374.523 380.5,375.5C 380.5,378.5 380.5,381.5 380.5,384.5C 380.167,384.5 379.833,384.5 379.5,384.5C 379.5,381.5 379.5,378.5 379.5,375.5C 368.167,375.5 356.833,375.5 345.5,375.5C 342.5,375.5 339.5,375.5 336.5,375.5C 336.5,372.5 336.5,369.5 336.5,366.5 Z"/></g>
<g><path style="opacity:1" fill="#37637b" d="M 397.5,367.5 C 397.5,369.833 397.5,372.167 397.5,374.5C 394.5,374.5 391.5,374.5 388.5,374.5C 388.5,372.167 388.5,369.833 388.5,367.5C 391.5,367.5 394.5,367.5 397.5,367.5 Z"/></g>
<g><path style="opacity:1" fill="#111215" d="M 405.5,366.5 C 405.5,369.167 405.5,371.833 405.5,374.5C 402.833,374.5 400.167,374.5 397.5,374.5C 397.5,372.167 397.5,369.833 397.5,367.5C 399.948,366.527 402.615,366.194 405.5,366.5 Z"/></g>
<g><path style="opacity:1" fill="#9396c1" d="M 405.5,366.5 C 408.5,366.5 411.5,366.5 414.5,366.5C 414.5,369.167 414.5,371.833 414.5,374.5C 411.5,374.5 408.5,374.5 405.5,374.5C 405.5,371.833 405.5,369.167 405.5,366.5 Z"/></g>
<g><path style="opacity:1" fill="#0b0c0b" d="M 345.5,375.5 C 356.833,375.5 368.167,375.5 379.5,375.5C 379.5,378.5 379.5,381.5 379.5,384.5C 368.167,384.5 356.833,384.5 345.5,384.5C 345.5,381.5 345.5,378.5 345.5,375.5 Z"/></g>
<g><path style="opacity:1" fill="#8a8baf" d="M 388.5,374.5 C 391.5,374.5 394.5,374.5 397.5,374.5C 400.167,374.5 402.833,374.5 405.5,374.5C 405.5,374.833 405.5,375.167 405.5,375.5C 402.833,375.5 400.167,375.5 397.5,375.5C 394.5,375.5 391.5,375.5 388.5,375.5C 388.5,378.5 388.5,381.5 388.5,384.5C 388.5,387.167 388.5,389.833 388.5,392.5C 388.167,392.5 387.833,392.5 387.5,392.5C 387.5,389.833 387.5,387.167 387.5,384.5C 385.167,384.5 382.833,384.5 380.5,384.5C 380.5,381.5 380.5,378.5 380.5,375.5C 383.279,375.721 385.946,375.388 388.5,374.5 Z"/></g>
<g><path style="opacity:1" fill="#c8c8e1" d="M 397.5,375.5 C 397.5,378.5 397.5,381.5 397.5,384.5C 394.5,384.5 391.5,384.5 388.5,384.5C 388.5,381.5 388.5,378.5 388.5,375.5C 391.5,375.5 394.5,375.5 397.5,375.5 Z"/></g>
<g><path style="opacity:1" fill="#9596c0" d="M 397.5,375.5 C 400.167,375.5 402.833,375.5 405.5,375.5C 405.5,378.5 405.5,381.5 405.5,384.5C 402.833,384.5 400.167,384.5 397.5,384.5C 397.5,381.5 397.5,378.5 397.5,375.5 Z"/></g>
<g><path style="opacity:1" fill="#e3e3eb" d="M 405.5,374.5 C 408.5,374.5 411.5,374.5 414.5,374.5C 414.5,377.833 414.5,381.167 414.5,384.5C 411.5,384.5 408.5,384.5 405.5,384.5C 405.5,381.5 405.5,378.5 405.5,375.5C 405.5,375.167 405.5,374.833 405.5,374.5 Z"/></g>
<g><path style="opacity:1" fill="#0b0c0b" d="M 379.5,384.5 C 379.833,384.5 380.167,384.5 380.5,384.5C 382.833,384.5 385.167,384.5 387.5,384.5C 387.5,387.167 387.5,389.833 387.5,392.5C 384.833,392.5 382.167,392.5 379.5,392.5C 379.5,389.833 379.5,387.167 379.5,384.5 Z"/></g>
<g><path style="opacity:1" fill="#e6e6ec" d="M 388.5,384.5 C 391.5,384.5 394.5,384.5 397.5,384.5C 397.5,387.167 397.5,389.833 397.5,392.5C 394.5,392.5 391.5,392.5 388.5,392.5C 388.5,389.833 388.5,387.167 388.5,384.5 Z"/></g>
<g><path style="opacity:1" fill="#0b0c0b" d="M 405.5,384.5 C 408.5,384.5 411.5,384.5 414.5,384.5C 414.833,384.5 415.167,384.5 415.5,384.5C 415.5,387.167 415.5,389.833 415.5,392.5C 412.167,392.5 408.833,392.5 405.5,392.5C 405.5,389.833 405.5,387.167 405.5,384.5 Z"/></g>
<g><path style="opacity:1" fill="#0b0c0b" d="M 387.5,392.5 C 387.833,392.5 388.167,392.5 388.5,392.5C 391.5,392.5 394.5,392.5 397.5,392.5C 397.5,395.5 397.5,398.5 397.5,401.5C 394.167,401.5 390.833,401.5 387.5,401.5C 387.5,398.5 387.5,395.5 387.5,392.5 Z"/></g>
</svg>
