<?xml version="1.0" encoding="UTF-8"?>
<!DOCTYPE svg PUBLIC "-//W3C//DTD SVG 1.1//EN" "http://www.w3.org/Graphics/SVG/1.1/DTD/svg11.dtd">
<svg xmlns="http://www.w3.org/2000/svg" version="1.1" width="808px" height="596px" style="shape-rendering:geometricPrecision; text-rendering:geometricPrecision; image-rendering:optimizeQuality; fill-rule:evenodd; clip-rule:evenodd" xmlns:xlink="http://www.w3.org/1999/xlink">
<g><path style="opacity:1" fill="#da0000" d="M 498.5,-0.5 C 503.833,-0.5 509.167,-0.5 514.5,-0.5C 514.5,33.5 514.5,67.5 514.5,101.5C 518.833,101.5 523.167,101.5 527.5,101.5C 527.5,96.5 527.5,91.5 527.5,86.5C 532.833,86.5 538.167,86.5 543.5,86.5C 543.5,91.5 543.5,96.5 543.5,101.5C 548.167,101.5 552.833,101.5 557.5,101.5C 557.5,106.5 557.5,111.5 557.5,116.5C 552.5,116.5 547.5,116.5 542.5,116.5C 542.5,111.5 542.5,106.5 542.5,101.5C 537.833,101.5 533.167,101.5 528.5,101.5C 528.5,106.5 528.5,111.5 528.5,116.5C 523.5,116.5 518.5,116.5 513.5,116.5C 513.5,111.5 513.5,106.5 513.5,101.5C 508.833,101.5 504.167,101.5 499.5,101.5C 499.5,77.1667 499.5,52.8333 499.5,28.5C 494.5,28.5 489.5,28.5 484.5,28.5C 484.5,23.5 484.5,18.5 484.5,13.5C 489.167,13.5 493.833,13.5 498.5,13.5C 498.5,8.83333 498.5,4.16667 498.5,-0.5 Z"/></g>
<g><path style="opacity:1" fill="#f93800" d="M 484.5,28.5 C 489.5,28.5 494.5,28.5 499.5,28.5C 499.5,52.8333 499.5,77.1667 499.5,101.5C 504.167,101.5 508.833,101.5 513.5,101.5C 513.5,106.5 513.5,111.5 513.5,116.5C 518.5,116.5 523.5,116.5 528.5,116.5C 528.5,111.5 528.5,106.5 528.5,101.5C 533.167,101.5 537.833,101.5 542.5,101.5C 542.5,106.5 542.5,111.5 542.5,116.5C 547.5,116.5 552.5,116.5 557.5,116.5C 557.5,111.5 557.5,106.5 557.5,101.5C 562.167,101.5 566.833,101.5 571.5,101.5C 571.5,111.167 571.5,120.833 571.5,130.5C 576.5,130.5 581.5,130.5 586.5,130.5C 586.5,125.833 586.5,121.167 586.5,116.5C 591.5,116.5 596.5,116.5 601.5,116.5C 601.5,111.5 601.5,106.5 601.5,101.5C 606.167,101.5 610.833,101.5 615.5,101.5C 615.5,96.5 615.5,91.5 615.5,86.5C 620.5,86.5 625.5,86.5 630.5,86.5C 630.5,81.8333 630.5,77.1667 630.5,72.5C 635.167,72.5 639.833,72.5 644.5,72.5C 644.5,67.5 644.5,62.5 644.5,57.5C 649.5,57.5 654.5,57.5 659.5,57.5C 659.5,67.1667 659.5,76.8333 659.5,86.5C 654.5,86.5 649.5,86.5 644.5,86.5C 644.5,101.167 644.5,115.833 644.5,130.5C 639.833,130.5 635.167,130.5 630.5,130.5C 630.5,145.167 630.5,159.833 630.5,174.5C 649.833,174.5 669.167,174.5 688.5,174.5C 688.5,179.167 688.5,183.833 688.5,188.5C 683.5,188.5 678.5,188.5 673.5,188.5C 673.5,193.5 673.5,198.5 673.5,203.5C 668.833,203.5 664.167,203.5 659.5,203.5C 659.5,208.167 659.5,212.833 659.5,217.5C 654.5,217.5 649.5,217.5 644.5,217.5C 644.5,222.5 644.5,227.5 644.5,232.5C 673.833,232.5 703.167,232.5 732.5,232.5C 732.5,237.5 732.5,242.5 732.5,247.5C 722.5,247.5 712.5,247.5 702.5,247.5C 702.5,252.167 702.5,256.833 702.5,261.5C 692.833,261.5 683.167,261.5 673.5,261.5C 673.5,266.5 673.5,271.5 673.5,276.5C 668.833,276.5 664.167,276.5 659.5,276.5C 659.5,281.5 659.5,286.5 659.5,291.5C 664.167,291.5 668.833,291.5 673.5,291.5C 673.5,295.5 673.5,299.5 673.5,303.5C 683.5,303.5 693.5,303.5 703.5,303.5C 703.5,308.167 703.5,312.833 703.5,317.5C 713.167,317.5 722.833,317.5 732.5,317.5C 732.5,322.5 732.5,327.5 732.5,332.5C 722.833,332.5 713.167,332.5 703.5,332.5C 703.5,337.5 703.5,342.5 703.5,347.5C 688.833,347.5 674.167,347.5 659.5,347.5C 659.5,352.167 659.5,356.833 659.5,361.5C 640.167,361.5 620.833,361.5 601.5,361.5C 601.5,356.833 601.5,352.167 601.5,347.5C 601.5,347.167 601.5,346.833 601.5,346.5C 606.167,346.5 610.833,346.5 615.5,346.5C 615.5,341.833 615.5,337.167 615.5,332.5C 610.833,332.5 606.167,332.5 601.5,332.5C 601.167,332.5 600.833,332.5 600.5,332.5C 600.5,327.833 600.5,323.167 600.5,318.5C 595.833,318.5 591.167,318.5 586.5,318.5C 586.5,313.5 586.5,308.5 586.5,303.5C 591.5,303.5 596.5,303.5 601.5,303.5C 601.5,294.5 601.5,285.5 601.5,276.5C 586.833,276.5 572.167,276.5 557.5,276.5C 557.5,266.833 557.5,257.167 557.5,247.5C 562.5,247.5 567.5,247.5 572.5,247.5C 572.5,237.833 572.5,228.167 572.5,218.5C 577.363,218.819 582.03,218.486 586.5,217.5C 586.5,208.167 586.5,198.833 586.5,189.5C 572.01,188.504 557.343,188.171 542.5,188.5C 542.5,193.5 542.5,198.5 542.5,203.5C 537.833,203.5 533.167,203.5 528.5,203.5C 528.5,193.833 528.5,184.167 528.5,174.5C 523.833,174.5 519.167,174.5 514.5,174.5C 513.514,178.97 513.181,183.637 513.5,188.5C 508.5,188.5 503.5,188.5 498.5,188.5C 498.5,198.167 498.5,207.833 498.5,217.5C 493.833,217.5 489.167,217.5 484.5,217.5C 484.5,212.833 484.5,208.167 484.5,203.5C 479.833,203.5 475.167,203.5 470.5,203.5C 470.167,203.5 469.833,203.5 469.5,203.5C 469.5,198.833 469.5,194.167 469.5,189.5C 464.833,189.5 460.167,189.5 455.5,189.5C 455.5,194.167 455.5,198.833 455.5,203.5C 451.5,203.5 447.5,203.5 443.5,203.5C 443.5,213.167 443.5,222.833 443.5,232.5C 443.167,232.5 442.833,232.5 442.5,232.5C 437.833,232.5 433.167,232.5 428.5,232.5C 423.833,232.5 419.167,232.5 414.5,232.5C 414.5,227.5 414.5,222.5 414.5,217.5C 409.5,217.5 404.5,217.5 399.5,217.5C 399.5,212.833 399.5,208.167 399.5,203.5C 394.5,203.5 389.5,203.5 384.5,203.5C 379.833,203.5 375.167,203.5 370.5,203.5C 370.5,198.833 370.5,194.167 370.5,189.5C 370.5,179.5 370.5,169.5 370.5,159.5C 380.167,159.5 389.833,159.5 399.5,159.5C 399.5,145.167 399.5,130.833 399.5,116.5C 404.167,116.5 408.833,116.5 413.5,116.5C 413.5,121.167 413.5,125.833 413.5,130.5C 418.5,130.5 423.5,130.5 428.5,130.5C 428.5,135.5 428.5,140.5 428.5,145.5C 433.5,145.5 438.5,145.5 443.5,145.5C 443.5,140.5 443.5,135.5 443.5,130.5C 447.5,130.5 451.5,130.5 455.5,130.5C 455.5,120.833 455.5,111.167 455.5,101.5C 460.5,101.5 465.5,101.5 470.5,101.5C 470.5,91.8333 470.5,82.1667 470.5,72.5C 475.167,72.5 479.833,72.5 484.5,72.5C 484.5,62.5 484.5,52.5 484.5,42.5C 484.5,37.8333 484.5,33.1667 484.5,28.5 Z"/></g>
<g><path style="opacity:1" fill="#da0000" d="M 644.5,57.5 C 644.5,62.5 644.5,67.5 644.5,72.5C 639.833,72.5 635.167,72.5 630.5,72.5C 630.5,77.1667 630.5,81.8333 630.5,86.5C 625.5,86.5 620.5,86.5 615.5,86.5C 615.5,81.5 615.5,76.5 615.5,71.5C 620.167,71.5 624.833,71.5 629.5,71.5C 629.5,66.8333 629.5,62.1667 629.5,57.5C 634.5,57.5 639.5,57.5 644.5,57.5 Z"/></g>
<g><path style="opacity:1" fill="#da0000" d="M 428.5,130.5 C 423.5,130.5 418.5,130.5 413.5,130.5C 413.5,125.833 413.5,121.167 413.5,116.5C 408.833,116.5 404.167,116.5 399.5,116.5C 399.5,130.833 399.5,145.167 399.5,159.5C 389.833,159.5 380.167,159.5 370.5,159.5C 370.5,169.5 370.5,179.5 370.5,189.5C 365.595,188.555 360.595,188.221 355.5,188.5C 355.5,169.167 355.5,149.833 355.5,130.5C 360.5,130.5 365.5,130.5 370.5,130.5C 370.5,135.167 370.5,139.833 370.5,144.5C 375.167,144.5 379.833,144.5 384.5,144.5C 384.5,120.167 384.5,95.8333 384.5,71.5C 389.5,71.5 394.5,71.5 399.5,71.5C 399.5,76.5 399.5,81.5 399.5,86.5C 404.5,86.5 409.5,86.5 414.5,86.5C 414.5,96.1667 414.5,105.833 414.5,115.5C 419.167,115.5 423.833,115.5 428.5,115.5C 428.5,120.5 428.5,125.5 428.5,130.5 Z"/></g>
<g><path style="opacity:1" fill="#da0100" d="M 484.5,42.5 C 484.5,52.5 484.5,62.5 484.5,72.5C 479.833,72.5 475.167,72.5 470.5,72.5C 470.5,82.1667 470.5,91.8333 470.5,101.5C 465.5,101.5 460.5,101.5 455.5,101.5C 455.5,91.5 455.5,81.5 455.5,71.5C 460.167,71.5 464.833,71.5 469.5,71.5C 469.5,61.8333 469.5,52.1667 469.5,42.5C 474.5,42.5 479.5,42.5 484.5,42.5 Z"/></g>
<g><path style="opacity:1" fill="#da0000" d="M 615.5,86.5 C 615.5,91.5 615.5,96.5 615.5,101.5C 610.833,101.5 606.167,101.5 601.5,101.5C 601.5,106.5 601.5,111.5 601.5,116.5C 596.5,116.5 591.5,116.5 586.5,116.5C 586.5,121.167 586.5,125.833 586.5,130.5C 581.5,130.5 576.5,130.5 571.5,130.5C 571.5,120.833 571.5,111.167 571.5,101.5C 566.833,101.5 562.167,101.5 557.5,101.5C 557.5,96.5 557.5,91.5 557.5,86.5C 562.167,86.5 566.833,86.5 571.5,86.5C 571.5,81.5 571.5,76.5 571.5,71.5C 576.762,71.1953 581.928,71.5286 587,72.5C 587.5,82.1609 587.666,91.8276 587.5,101.5C 591.833,101.5 596.167,101.5 600.5,101.5C 600.5,96.5 600.5,91.5 600.5,86.5C 605.5,86.5 610.5,86.5 615.5,86.5 Z"/></g>
<g><path style="opacity:1" fill="#da0100" d="M 455.5,101.5 C 455.5,111.167 455.5,120.833 455.5,130.5C 451.5,130.5 447.5,130.5 443.5,130.5C 443.5,135.5 443.5,140.5 443.5,145.5C 438.5,145.5 433.5,145.5 428.5,145.5C 428.5,140.5 428.5,135.5 428.5,130.5C 433.167,130.5 437.833,130.5 442.5,130.5C 442.5,120.833 442.5,111.167 442.5,101.5C 446.833,101.5 451.167,101.5 455.5,101.5 Z"/></g>
<g><path style="opacity:1" fill="#da0000" d="M 732.5,247.5 C 732.5,242.5 732.5,237.5 732.5,232.5C 703.167,232.5 673.833,232.5 644.5,232.5C 644.5,227.5 644.5,222.5 644.5,217.5C 649.5,217.5 654.5,217.5 659.5,217.5C 659.5,212.833 659.5,208.167 659.5,203.5C 664.167,203.5 668.833,203.5 673.5,203.5C 673.5,198.5 673.5,193.5 673.5,188.5C 678.5,188.5 683.5,188.5 688.5,188.5C 688.5,183.833 688.5,179.167 688.5,174.5C 669.167,174.5 649.833,174.5 630.5,174.5C 630.5,159.833 630.5,145.167 630.5,130.5C 635.167,130.5 639.833,130.5 644.5,130.5C 644.5,115.833 644.5,101.167 644.5,86.5C 649.5,86.5 654.5,86.5 659.5,86.5C 659.5,76.8333 659.5,67.1667 659.5,57.5C 654.5,57.5 649.5,57.5 644.5,57.5C 644.5,52.5 644.5,47.5 644.5,42.5C 649.5,42.5 654.5,42.5 659.5,42.5C 659.5,37.8333 659.5,33.1667 659.5,28.5C 664.5,28.5 669.5,28.5 674.5,28.5C 674.5,48.1667 674.5,67.8333 674.5,87.5C 669.5,87.5 664.5,87.5 659.5,87.5C 659.5,102.167 659.5,116.833 659.5,131.5C 654.833,131.5 650.167,131.5 645.5,131.5C 645.5,140.833 645.5,150.167 645.5,159.5C 669.833,159.5 694.167,159.5 718.5,159.5C 718.5,164.5 718.5,169.5 718.5,174.5C 713.5,174.5 708.5,174.5 703.5,174.5C 703.5,179.5 703.5,184.5 703.5,189.5C 698.833,189.5 694.167,189.5 689.5,189.5C 689.5,194.167 689.5,198.833 689.5,203.5C 684.5,203.5 679.5,203.5 674.5,203.5C 674.5,208.167 674.5,212.833 674.5,217.5C 703.5,217.5 732.5,217.5 761.5,217.5C 761.5,222.833 761.5,228.167 761.5,233.5C 756.833,233.5 752.167,233.5 747.5,233.5C 747.5,238.167 747.5,242.833 747.5,247.5C 742.5,247.5 737.5,247.5 732.5,247.5 Z"/></g>
<g><path style="opacity:1" fill="#fa9600" d="M 514.5,174.5 C 519.167,174.5 523.833,174.5 528.5,174.5C 528.5,184.167 528.5,193.833 528.5,203.5C 533.167,203.5 537.833,203.5 542.5,203.5C 542.5,208.167 542.5,212.833 542.5,217.5C 537.833,217.5 533.167,217.5 528.5,217.5C 528.5,222.5 528.5,227.5 528.5,232.5C 523.5,232.5 518.5,232.5 513.5,232.5C 513.5,237.5 513.5,242.5 513.5,247.5C 508.833,247.5 504.167,247.5 499.5,247.5C 499.5,252.167 499.5,256.833 499.5,261.5C 494.5,261.5 489.5,261.5 484.5,261.5C 484.5,251.833 484.5,242.167 484.5,232.5C 479.833,232.5 475.167,232.5 470.5,232.5C 470.5,222.833 470.5,213.167 470.5,203.5C 475.167,203.5 479.833,203.5 484.5,203.5C 484.5,208.167 484.5,212.833 484.5,217.5C 489.305,218.487 494.305,218.821 499.5,218.5C 499.5,208.833 499.5,199.167 499.5,189.5C 504.5,189.5 509.5,189.5 514.5,189.5C 514.5,184.5 514.5,179.5 514.5,174.5 Z"/></g>
<g><path style="opacity:1" fill="#143850" d="M 326.5,188.5 C 336.167,188.5 345.833,188.5 355.5,188.5C 360.595,188.221 365.595,188.555 370.5,189.5C 370.5,194.167 370.5,198.833 370.5,203.5C 375.167,203.5 379.833,203.5 384.5,203.5C 384.5,208.167 384.5,212.833 384.5,217.5C 389.5,217.5 394.5,217.5 399.5,217.5C 399.5,217.833 399.5,218.167 399.5,218.5C 389.5,218.5 379.5,218.5 369.5,218.5C 369.5,213.5 369.5,208.5 369.5,203.5C 360.167,203.5 350.833,203.5 341.5,203.5C 336.5,203.5 331.5,203.5 326.5,203.5C 326.5,198.5 326.5,193.5 326.5,188.5 Z"/></g>
<g><path style="opacity:1" fill="#fa7500" d="M 586.5,189.5 C 572.167,189.5 557.833,189.5 543.5,189.5C 543.5,194.167 543.5,198.833 543.5,203.5C 543.167,203.5 542.833,203.5 542.5,203.5C 542.5,198.5 542.5,193.5 542.5,188.5C 557.343,188.171 572.01,188.504 586.5,189.5 Z"/></g>
<g><path style="opacity:1" fill="#f99600" d="M 469.5,203.5 C 464.833,203.5 460.167,203.5 455.5,203.5C 455.5,198.833 455.5,194.167 455.5,189.5C 460.167,189.5 464.833,189.5 469.5,189.5C 469.5,194.167 469.5,198.833 469.5,203.5 Z"/></g>
<g><path style="opacity:1" fill="#fa6700" d="M 514.5,174.5 C 514.5,179.5 514.5,184.5 514.5,189.5C 509.5,189.5 504.5,189.5 499.5,189.5C 499.5,199.167 499.5,208.833 499.5,218.5C 494.305,218.821 489.305,218.487 484.5,217.5C 489.167,217.5 493.833,217.5 498.5,217.5C 498.5,207.833 498.5,198.167 498.5,188.5C 503.5,188.5 508.5,188.5 513.5,188.5C 513.181,183.637 513.514,178.97 514.5,174.5 Z"/></g>
<g><path style="opacity:1" fill="#f99600" d="M 586.5,189.5 C 586.5,198.833 586.5,208.167 586.5,217.5C 581.833,217.5 577.167,217.5 572.5,217.5C 572.5,212.833 572.5,208.167 572.5,203.5C 562.833,203.5 553.167,203.5 543.5,203.5C 543.5,198.833 543.5,194.167 543.5,189.5C 557.833,189.5 572.167,189.5 586.5,189.5 Z"/></g>
<g><path style="opacity:1" fill="#2b6982" d="M 326.5,188.5 C 326.5,193.5 326.5,198.5 326.5,203.5C 316.833,203.5 307.167,203.5 297.5,203.5C 297.5,208.167 297.5,212.833 297.5,217.5C 287.5,217.5 277.5,217.5 267.5,217.5C 267.5,212.833 267.5,208.167 267.5,203.5C 277.167,203.5 286.833,203.5 296.5,203.5C 296.5,198.5 296.5,193.5 296.5,188.5C 306.5,188.5 316.5,188.5 326.5,188.5 Z"/></g>
<g><path style="opacity:1" fill="#5ca7ba" d="M 326.5,203.5 C 331.5,203.5 336.5,203.5 341.5,203.5C 341.5,213.167 341.5,222.833 341.5,232.5C 336.5,232.5 331.5,232.5 326.5,232.5C 326.5,237.5 326.5,242.5 326.5,247.5C 321.5,247.5 316.5,247.5 311.5,247.5C 311.5,252.167 311.5,256.833 311.5,261.5C 301.833,261.5 292.167,261.5 282.5,261.5C 282.5,266.5 282.5,271.5 282.5,276.5C 267.833,276.5 253.167,276.5 238.5,276.5C 238.5,266.833 238.5,257.167 238.5,247.5C 243.5,247.5 248.5,247.5 253.5,247.5C 253.5,242.5 253.5,237.5 253.5,232.5C 258.167,232.5 262.833,232.5 267.5,232.5C 267.5,227.5 267.5,222.5 267.5,217.5C 277.5,217.5 287.5,217.5 297.5,217.5C 297.5,212.833 297.5,208.167 297.5,203.5C 307.167,203.5 316.833,203.5 326.5,203.5 Z"/></g>
<g><path style="opacity:1" fill="#2b6a82" d="M 341.5,203.5 C 350.833,203.5 360.167,203.5 369.5,203.5C 369.5,208.5 369.5,213.5 369.5,218.5C 379.5,218.5 389.5,218.5 399.5,218.5C 399.5,223.167 399.5,227.833 399.5,232.5C 404.167,232.5 408.833,232.5 413.5,232.5C 413.5,237.5 413.5,242.5 413.5,247.5C 418.5,247.5 423.5,247.5 428.5,247.5C 428.5,252.167 428.5,256.833 428.5,261.5C 428.5,266.5 428.5,271.5 428.5,276.5C 433.167,276.5 437.833,276.5 442.5,276.5C 442.5,295.167 442.5,313.833 442.5,332.5C 437.833,332.5 433.167,332.5 428.5,332.5C 428.5,337.5 428.5,342.5 428.5,347.5C 428.5,352.167 428.5,356.833 428.5,361.5C 423.833,361.5 419.167,361.5 414.5,361.5C 414.5,346.833 414.5,332.167 414.5,317.5C 409.5,317.5 404.5,317.5 399.5,317.5C 399.5,312.833 399.5,308.167 399.5,303.5C 399.5,299.167 399.5,294.833 399.5,290.5C 394.5,290.5 389.5,290.5 384.5,290.5C 384.5,285.833 384.5,281.167 384.5,276.5C 379.833,276.5 375.167,276.5 370.5,276.5C 360.5,276.5 350.5,276.5 340.5,276.5C 335.833,276.5 331.167,276.5 326.5,276.5C 326.5,281.167 326.5,285.833 326.5,290.5C 321.5,290.5 316.5,290.5 311.5,290.5C 311.5,294.833 311.5,299.167 311.5,303.5C 306.833,303.5 302.167,303.5 297.5,303.5C 297.5,308.5 297.5,313.5 297.5,318.5C 292.5,318.5 287.5,318.5 282.5,318.5C 282.5,323.167 282.5,327.833 282.5,332.5C 282.5,337.5 282.5,342.5 282.5,347.5C 277.833,347.5 273.167,347.5 268.5,347.5C 268.167,347.5 267.833,347.5 267.5,347.5C 262.833,347.5 258.167,347.5 253.5,347.5C 253.5,361.833 253.5,376.167 253.5,390.5C 253.5,390.833 253.5,391.167 253.5,391.5C 253.5,396.167 253.5,400.833 253.5,405.5C 248.833,405.5 244.167,405.5 239.5,405.5C 238.514,409.97 238.181,414.637 238.5,419.5C 228.833,419.5 219.167,419.5 209.5,419.5C 209.5,414.833 209.5,410.167 209.5,405.5C 214.5,405.5 219.5,405.5 224.5,405.5C 224.5,400.5 224.5,395.5 224.5,390.5C 219.833,390.5 215.167,390.5 210.5,390.5C 210.5,385.833 210.5,381.167 210.5,376.5C 205.5,376.5 200.5,376.5 195.5,376.5C 195.5,381.167 195.5,385.833 195.5,390.5C 190.5,390.5 185.5,390.5 180.5,390.5C 180.5,385.5 180.5,380.5 180.5,375.5C 185.167,375.5 189.833,375.5 194.5,375.5C 199.5,375.5 204.5,375.5 209.5,375.5C 209.5,366.167 209.5,356.833 209.5,347.5C 210.497,329.007 210.83,310.341 210.5,291.5C 215.363,291.819 220.03,291.486 224.5,290.5C 224.827,280.652 224.494,270.986 223.5,261.5C 223.5,251.833 223.5,242.167 223.5,232.5C 228.5,232.5 233.5,232.5 238.5,232.5C 238.5,227.5 238.5,222.5 238.5,217.5C 248.167,217.5 257.833,217.5 267.5,217.5C 267.5,222.5 267.5,227.5 267.5,232.5C 262.833,232.5 258.167,232.5 253.5,232.5C 253.5,237.5 253.5,242.5 253.5,247.5C 248.5,247.5 243.5,247.5 238.5,247.5C 238.5,257.167 238.5,266.833 238.5,276.5C 253.167,276.5 267.833,276.5 282.5,276.5C 282.5,271.5 282.5,266.5 282.5,261.5C 292.167,261.5 301.833,261.5 311.5,261.5C 311.5,256.833 311.5,252.167 311.5,247.5C 316.5,247.5 321.5,247.5 326.5,247.5C 326.5,242.5 326.5,237.5 326.5,232.5C 331.5,232.5 336.5,232.5 341.5,232.5C 341.5,222.833 341.5,213.167 341.5,203.5 Z"/></g>
<g><path style="opacity:1" fill="#120e0d" d="M 384.5,203.5 C 389.5,203.5 394.5,203.5 399.5,203.5C 399.5,208.167 399.5,212.833 399.5,217.5C 394.5,217.5 389.5,217.5 384.5,217.5C 384.5,212.833 384.5,208.167 384.5,203.5 Z"/></g>
<g><path style="opacity:1" fill="#f99600" d="M 455.5,203.5 C 455.5,213.167 455.5,222.833 455.5,232.5C 451.5,232.5 447.5,232.5 443.5,232.5C 443.5,222.833 443.5,213.167 443.5,203.5C 447.5,203.5 451.5,203.5 455.5,203.5 Z"/></g>
<g><path style="opacity:1" fill="#f9d90c" d="M 455.5,203.5 C 460.167,203.5 464.833,203.5 469.5,203.5C 469.833,203.5 470.167,203.5 470.5,203.5C 470.5,213.167 470.5,222.833 470.5,232.5C 475.167,232.5 479.833,232.5 484.5,232.5C 484.5,242.167 484.5,251.833 484.5,261.5C 489.5,261.5 494.5,261.5 499.5,261.5C 499.5,256.833 499.5,252.167 499.5,247.5C 504.167,247.5 508.833,247.5 513.5,247.5C 513.5,242.5 513.5,237.5 513.5,232.5C 518.5,232.5 523.5,232.5 528.5,232.5C 528.5,227.5 528.5,222.5 528.5,217.5C 533.167,217.5 537.833,217.5 542.5,217.5C 542.5,212.833 542.5,208.167 542.5,203.5C 542.833,203.5 543.167,203.5 543.5,203.5C 553.167,203.5 562.833,203.5 572.5,203.5C 572.5,208.167 572.5,212.833 572.5,217.5C 571.833,217.5 571.5,217.833 571.5,218.5C 566.833,218.5 562.167,218.5 557.5,218.5C 557.5,227.833 557.5,237.167 557.5,246.5C 557.5,246.833 557.5,247.167 557.5,247.5C 552.833,247.5 548.167,247.5 543.5,247.5C 542.504,261.99 542.171,276.657 542.5,291.5C 557.167,291.5 571.833,291.5 586.5,291.5C 586.5,295.5 586.5,299.5 586.5,303.5C 581.833,303.5 577.167,303.5 572.5,303.5C 572.666,308.179 572.499,312.845 572,317.5C 567.263,318.469 562.43,318.803 557.5,318.5C 557.5,323.167 557.5,327.833 557.5,332.5C 571.833,332.5 586.167,332.5 600.5,332.5C 600.833,332.5 601.167,332.5 601.5,332.5C 601.5,337.167 601.5,341.833 601.5,346.5C 601.5,346.833 601.5,347.167 601.5,347.5C 591.833,347.5 582.167,347.5 572.5,347.5C 572.5,352.167 572.5,356.833 572.5,361.5C 567.5,361.5 562.5,361.5 557.5,361.5C 557.5,366.5 557.5,371.5 557.5,376.5C 552.833,376.5 548.167,376.5 543.5,376.5C 543.5,381.167 543.5,385.833 543.5,390.5C 548.167,390.5 552.833,390.5 557.5,390.5C 557.5,390.833 557.5,391.167 557.5,391.5C 557.5,396.167 557.5,400.833 557.5,405.5C 552.5,405.5 547.5,405.5 542.5,405.5C 537.833,405.5 533.167,405.5 528.5,405.5C 523.833,405.5 519.167,405.5 514.5,405.5C 514.5,400.833 514.5,396.167 514.5,391.5C 519.363,391.819 524.03,391.486 528.5,390.5C 528.5,385.833 528.5,381.167 528.5,376.5C 518.833,376.5 509.167,376.5 499.5,376.5C 499.5,366.5 499.5,356.5 499.5,346.5C 494.305,346.179 489.305,346.513 484.5,347.5C 484.5,352.167 484.5,356.833 484.5,361.5C 474.833,361.5 465.167,361.5 455.5,361.5C 455.5,356.833 455.5,352.167 455.5,347.5C 451.702,346.517 447.702,346.183 443.5,346.5C 443.5,341.833 443.5,337.167 443.5,332.5C 447.5,332.5 451.5,332.5 455.5,332.5C 455.5,313.833 455.5,295.167 455.5,276.5C 451.167,276.5 446.833,276.5 442.5,276.5C 442.5,271.5 442.5,266.5 442.5,261.5C 442.5,256.833 442.5,252.167 442.5,247.5C 442.5,242.5 442.5,237.5 442.5,232.5C 442.833,232.5 443.167,232.5 443.5,232.5C 447.5,232.5 451.5,232.5 455.5,232.5C 455.5,222.833 455.5,213.167 455.5,203.5 Z"/></g>
<g><path style="opacity:1" fill="#0b0c0b" d="M 399.5,218.5 C 404.167,218.5 408.833,218.5 413.5,218.5C 413.5,223.167 413.5,227.833 413.5,232.5C 413.5,227.833 413.5,223.167 413.5,218.5C 408.833,218.5 404.167,218.5 399.5,218.5 Z"/></g>
<g><path style="opacity:1" fill="#992302" d="M 399.5,218.5 C 399.5,218.167 399.5,217.833 399.5,217.5C 404.5,217.5 409.5,217.5 414.5,217.5C 414.5,222.5 414.5,227.5 414.5,232.5C 414.167,232.5 413.833,232.5 413.5,232.5C 413.5,227.833 413.5,223.167 413.5,218.5C 408.833,218.5 404.167,218.5 399.5,218.5 Z"/></g>
<g><path style="opacity:1" fill="#f99600" d="M 571.5,218.5 C 571.5,227.833 571.5,237.167 571.5,246.5C 566.833,246.5 562.167,246.5 557.5,246.5C 557.5,237.167 557.5,227.833 557.5,218.5C 562.167,218.5 566.833,218.5 571.5,218.5 Z"/></g>
<g><path style="opacity:1" fill="#fa6900" d="M 572.5,217.5 C 577.167,217.5 581.833,217.5 586.5,217.5C 582.03,218.486 577.363,218.819 572.5,218.5C 572.5,228.167 572.5,237.833 572.5,247.5C 567.5,247.5 562.5,247.5 557.5,247.5C 557.5,247.167 557.5,246.833 557.5,246.5C 562.167,246.5 566.833,246.5 571.5,246.5C 571.5,237.167 571.5,227.833 571.5,218.5C 571.5,217.833 571.833,217.5 572.5,217.5 Z"/></g>
<g><path style="opacity:1" fill="#131211" d="M 413.5,232.5 C 413.833,232.5 414.167,232.5 414.5,232.5C 419.167,232.5 423.833,232.5 428.5,232.5C 428.5,237.5 428.5,242.5 428.5,247.5C 423.5,247.5 418.5,247.5 413.5,247.5C 413.5,242.5 413.5,237.5 413.5,232.5 Z"/></g>
<g><path style="opacity:1" fill="#f69300" d="M 428.5,232.5 C 433.167,232.5 437.833,232.5 442.5,232.5C 442.5,237.5 442.5,242.5 442.5,247.5C 437.833,247.5 433.167,247.5 428.5,247.5C 428.5,242.5 428.5,237.5 428.5,232.5 Z"/></g>
<g><path style="opacity:1" fill="#0b0c0b" d="M 428.5,247.5 C 433.167,247.5 437.833,247.5 442.5,247.5C 442.5,252.167 442.5,256.833 442.5,261.5C 437.833,261.5 433.167,261.5 428.5,261.5C 428.5,256.833 428.5,252.167 428.5,247.5 Z"/></g>
<g><path style="opacity:1" fill="#fa9500" d="M 543.5,247.5 C 548.167,247.5 552.833,247.5 557.5,247.5C 557.5,257.167 557.5,266.833 557.5,276.5C 572.167,276.5 586.833,276.5 601.5,276.5C 601.5,285.5 601.5,294.5 601.5,303.5C 596.5,303.5 591.5,303.5 586.5,303.5C 586.5,299.5 586.5,295.5 586.5,291.5C 572.343,290.504 558.01,290.171 543.5,290.5C 543.5,276.167 543.5,261.833 543.5,247.5 Z"/></g>
<g><path style="opacity:1" fill="#755d1f" d="M 223.5,261.5 C 224.494,270.986 224.827,280.652 224.5,290.5C 219.5,290.5 214.5,290.5 209.5,290.5C 209.5,280.833 209.5,271.167 209.5,261.5C 214.167,261.5 218.833,261.5 223.5,261.5 Z"/></g>
<g><path style="opacity:1" fill="#0c3750" d="M 428.5,261.5 C 433.167,261.5 437.833,261.5 442.5,261.5C 442.5,266.5 442.5,271.5 442.5,276.5C 437.833,276.5 433.167,276.5 428.5,276.5C 428.5,271.5 428.5,266.5 428.5,261.5 Z"/></g>
<g><path style="opacity:1" fill="#c7a850" d="M 340.5,276.5 C 340.5,281.167 340.5,285.833 340.5,290.5C 335.833,290.5 331.167,290.5 326.5,290.5C 326.5,285.833 326.5,281.167 326.5,276.5C 331.167,276.5 335.833,276.5 340.5,276.5 Z"/></g>
<g><path style="opacity:1" fill="#f9f2a1" d="M 340.5,276.5 C 350.5,276.5 360.5,276.5 370.5,276.5C 375.167,276.5 379.833,276.5 384.5,276.5C 384.5,281.167 384.5,285.833 384.5,290.5C 384.5,294.833 384.5,299.167 384.5,303.5C 389.5,303.5 394.5,303.5 399.5,303.5C 399.5,308.167 399.5,312.833 399.5,317.5C 399.5,317.833 399.5,318.167 399.5,318.5C 399.5,323.167 399.5,327.833 399.5,332.5C 404.167,332.5 408.833,332.5 413.5,332.5C 413.5,347.167 413.5,361.833 413.5,376.5C 408.833,376.5 404.167,376.5 399.5,376.5C 399.5,381.167 399.5,385.833 399.5,390.5C 399.167,390.5 398.833,390.5 398.5,390.5C 393.833,390.5 389.167,390.5 384.5,390.5C 384.5,395.5 384.5,400.5 384.5,405.5C 379.833,405.5 375.167,405.5 370.5,405.5C 365.5,405.5 360.5,405.5 355.5,405.5C 355.5,410.167 355.5,414.833 355.5,419.5C 345.831,419.789 336.165,420.122 326.5,420.5C 307.341,419.503 288.007,419.17 268.5,419.5C 268.5,424.5 268.5,429.5 268.5,434.5C 268.167,434.5 267.833,434.5 267.5,434.5C 262.833,434.5 258.167,434.5 253.5,434.5C 248.833,434.5 244.167,434.5 239.5,434.5C 238.514,438.97 238.181,443.637 238.5,448.5C 223.99,448.171 209.657,448.504 195.5,449.5C 195.5,454.167 195.5,458.833 195.5,463.5C 190.5,463.5 185.5,463.5 180.5,463.5C 180.5,458.833 180.5,454.167 180.5,449.5C 180.5,444.5 180.5,439.5 180.5,434.5C 190.167,434.5 199.833,434.5 209.5,434.5C 210.486,430.03 210.819,425.363 210.5,420.5C 220.167,420.5 229.833,420.5 239.5,420.5C 239.5,415.5 239.5,410.5 239.5,405.5C 244.167,405.5 248.833,405.5 253.5,405.5C 253.5,400.833 253.5,396.167 253.5,391.5C 258.5,391.5 263.5,391.5 268.5,391.5C 268.5,381.5 268.5,371.5 268.5,361.5C 273.167,361.5 277.833,361.5 282.5,361.5C 282.5,356.833 282.5,352.167 282.5,347.5C 282.5,342.5 282.5,337.5 282.5,332.5C 287.5,332.5 292.5,332.5 297.5,332.5C 297.5,327.833 297.5,323.167 297.5,318.5C 297.5,313.5 297.5,308.5 297.5,303.5C 302.167,303.5 306.833,303.5 311.5,303.5C 311.5,299.167 311.5,294.833 311.5,290.5C 316.5,290.5 321.5,290.5 326.5,290.5C 331.167,290.5 335.833,290.5 340.5,290.5C 340.5,285.833 340.5,281.167 340.5,276.5 Z"/></g>
<g><path style="opacity:1" fill="#c7a850" d="M 370.5,276.5 C 375.167,276.5 379.833,276.5 384.5,276.5C 384.5,281.167 384.5,285.833 384.5,290.5C 379.833,290.5 375.167,290.5 370.5,290.5C 370.5,285.833 370.5,281.167 370.5,276.5 Z"/></g>
<g><path style="opacity:1" fill="#0e1011" d="M 442.5,276.5 C 446.833,276.5 451.167,276.5 455.5,276.5C 455.5,295.167 455.5,313.833 455.5,332.5C 451.5,332.5 447.5,332.5 443.5,332.5C 443.167,332.5 442.833,332.5 442.5,332.5C 442.5,313.833 442.5,295.167 442.5,276.5 Z"/></g>
<g><path style="opacity:1" fill="#755d1e" d="M 209.5,290.5 C 209.5,309.167 209.5,327.833 209.5,346.5C 204.5,346.5 199.5,346.5 194.5,346.5C 194.5,327.833 194.5,309.167 194.5,290.5C 199.5,290.5 204.5,290.5 209.5,290.5 Z"/></g>
<g><path style="opacity:1" fill="#fabb03" d="M 543.5,247.5 C 543.5,261.833 543.5,276.167 543.5,290.5C 558.01,290.171 572.343,290.504 586.5,291.5C 571.833,291.5 557.167,291.5 542.5,291.5C 542.171,276.657 542.504,261.99 543.5,247.5 Z"/></g>
<g><path style="opacity:1" fill="#da0000" d="M 732.5,247.5 C 732.5,252.5 732.5,257.5 732.5,262.5C 722.833,262.5 713.167,262.5 703.5,262.5C 703.5,267.167 703.5,271.833 703.5,276.5C 693.833,276.5 684.167,276.5 674.5,276.5C 674.5,281.167 674.5,285.833 674.5,290.5C 684.167,290.5 693.833,290.5 703.5,290.5C 703.5,294.5 703.5,298.5 703.5,302.5C 713.167,302.5 722.833,302.5 732.5,302.5C 732.5,307.5 732.5,312.5 732.5,317.5C 722.833,317.5 713.167,317.5 703.5,317.5C 703.5,312.833 703.5,308.167 703.5,303.5C 693.5,303.5 683.5,303.5 673.5,303.5C 673.5,299.5 673.5,295.5 673.5,291.5C 668.833,291.5 664.167,291.5 659.5,291.5C 659.5,286.5 659.5,281.5 659.5,276.5C 664.167,276.5 668.833,276.5 673.5,276.5C 673.5,271.5 673.5,266.5 673.5,261.5C 683.167,261.5 692.833,261.5 702.5,261.5C 702.5,256.833 702.5,252.167 702.5,247.5C 712.5,247.5 722.5,247.5 732.5,247.5 Z"/></g>
<g><path style="opacity:1" fill="#4c6056" d="M 209.5,290.5 C 214.5,290.5 219.5,290.5 224.5,290.5C 220.03,291.486 215.363,291.819 210.5,291.5C 210.83,310.341 210.497,329.007 209.5,347.5C 204.5,347.5 199.5,347.5 194.5,347.5C 194.5,347.167 194.5,346.833 194.5,346.5C 199.5,346.5 204.5,346.5 209.5,346.5C 209.5,327.833 209.5,309.167 209.5,290.5 Z"/></g>
<g><path style="opacity:1" fill="#c2a654" d="M 384.5,290.5 C 389.5,290.5 394.5,290.5 399.5,290.5C 399.5,294.833 399.5,299.167 399.5,303.5C 394.5,303.5 389.5,303.5 384.5,303.5C 384.5,299.167 384.5,294.833 384.5,290.5 Z"/></g>
<g><path style="opacity:1" fill="#fa9600" d="M 586.5,303.5 C 586.5,308.5 586.5,313.5 586.5,318.5C 591.167,318.5 595.833,318.5 600.5,318.5C 600.5,323.167 600.5,327.833 600.5,332.5C 586.167,332.5 571.833,332.5 557.5,332.5C 557.5,327.833 557.5,323.167 557.5,318.5C 562.43,318.803 567.263,318.469 572,317.5C 572.499,312.845 572.666,308.179 572.5,303.5C 577.167,303.5 581.833,303.5 586.5,303.5 Z"/></g>
<g><path style="opacity:1" fill="#d90000" d="M 732.5,317.5 C 737.5,317.5 742.5,317.5 747.5,317.5C 747.5,322.5 747.5,327.5 747.5,332.5C 742.5,332.5 737.5,332.5 732.5,332.5C 732.5,327.5 732.5,322.5 732.5,317.5 Z"/></g>
<g><path style="opacity:1" fill="#c6a853" d="M 297.5,318.5 C 297.5,323.167 297.5,327.833 297.5,332.5C 292.5,332.5 287.5,332.5 282.5,332.5C 282.5,327.833 282.5,323.167 282.5,318.5C 287.5,318.5 292.5,318.5 297.5,318.5 Z"/></g>
<g><path style="opacity:1" fill="#0b0c0b" d="M 355.5,332.5 C 345.833,332.5 336.167,332.5 326.5,332.5C 326.5,327.833 326.5,323.167 326.5,318.5C 336.167,318.5 345.833,318.5 355.5,318.5C 355.5,323.167 355.5,327.833 355.5,332.5 Z"/></g>
<g><path style="opacity:1" fill="#c7a850" d="M 399.5,318.5 C 404.167,318.5 408.833,318.5 413.5,318.5C 413.5,323.167 413.5,327.833 413.5,332.5C 413.5,327.833 413.5,323.167 413.5,318.5C 408.833,318.5 404.167,318.5 399.5,318.5 Z"/></g>
<g><path style="opacity:1" fill="#a99751" d="M 312.5,332.5 C 312.5,337.167 312.5,341.833 312.5,346.5C 317.167,346.5 321.833,346.5 326.5,346.5C 321.695,347.487 316.695,347.821 311.5,347.5C 311.179,342.305 311.513,337.305 312.5,332.5 Z"/></g>
<g><path style="opacity:1" fill="#775e20" d="M 312.5,332.5 C 317.167,332.5 321.833,332.5 326.5,332.5C 326.5,337.167 326.5,341.833 326.5,346.5C 321.833,346.5 317.167,346.5 312.5,346.5C 312.5,341.833 312.5,337.167 312.5,332.5 Z"/></g>
<g><path style="opacity:1" fill="#755d1e" d="M 355.5,332.5 C 360.167,332.5 364.833,332.5 369.5,332.5C 369.5,337.167 369.5,341.833 369.5,346.5C 364.833,346.5 360.167,346.5 355.5,346.5C 355.5,341.833 355.5,337.167 355.5,332.5 Z"/></g>
<g><path style="opacity:1" fill="#748f7f" d="M 399.5,318.5 C 399.5,318.167 399.5,317.833 399.5,317.5C 404.5,317.5 409.5,317.5 414.5,317.5C 414.5,332.167 414.5,346.833 414.5,361.5C 414.5,366.5 414.5,371.5 414.5,376.5C 414.167,376.5 413.833,376.5 413.5,376.5C 413.5,361.833 413.5,347.167 413.5,332.5C 413.5,327.833 413.5,323.167 413.5,318.5C 408.833,318.5 404.167,318.5 399.5,318.5 Z"/></g>
<g><path style="opacity:1" fill="#0c364f" d="M 442.5,332.5 C 442.5,337.5 442.5,342.5 442.5,347.5C 437.833,347.5 433.167,347.5 428.5,347.5C 428.5,342.5 428.5,337.5 428.5,332.5C 433.167,332.5 437.833,332.5 442.5,332.5 Z"/></g>
<g><path style="opacity:1" fill="#8a8d2e" d="M 442.5,332.5 C 442.833,332.5 443.167,332.5 443.5,332.5C 443.5,337.167 443.5,341.833 443.5,346.5C 447.702,346.183 451.702,346.517 455.5,347.5C 451.167,347.5 446.833,347.5 442.5,347.5C 442.5,342.5 442.5,337.5 442.5,332.5 Z"/></g>
<g><path style="opacity:1" fill="#f99600" d="M 601.5,332.5 C 606.167,332.5 610.833,332.5 615.5,332.5C 615.5,337.167 615.5,341.833 615.5,346.5C 610.833,346.5 606.167,346.5 601.5,346.5C 601.5,341.833 601.5,337.167 601.5,332.5 Z"/></g>
<g><path style="opacity:1" fill="#d90000" d="M 732.5,332.5 C 732.5,337.5 732.5,342.5 732.5,347.5C 722.833,347.5 713.167,347.5 703.5,347.5C 703.5,342.5 703.5,337.5 703.5,332.5C 713.167,332.5 722.833,332.5 732.5,332.5 Z"/></g>
<g><path style="opacity:1" fill="#0c3751" d="M 194.5,347.5 C 199.5,347.5 204.5,347.5 209.5,347.5C 209.5,356.833 209.5,366.167 209.5,375.5C 204.5,375.5 199.5,375.5 194.5,375.5C 194.5,366.167 194.5,356.833 194.5,347.5 Z"/></g>
<g><path style="opacity:1" fill="#065d89" d="M 267.5,347.5 C 267.5,361.833 267.5,376.167 267.5,390.5C 262.833,390.5 258.167,390.5 253.5,390.5C 253.5,376.167 253.5,361.833 253.5,347.5C 258.167,347.5 262.833,347.5 267.5,347.5 Z"/></g>
<g><path style="opacity:1" fill="#c7a850" d="M 268.5,347.5 C 273.167,347.5 277.833,347.5 282.5,347.5C 282.5,352.167 282.5,356.833 282.5,361.5C 277.833,361.5 273.167,361.5 268.5,361.5C 268.5,356.833 268.5,352.167 268.5,347.5 Z"/></g>
<g><path style="opacity:1" fill="#c7a850" d="M 311.5,347.5 C 311.5,352.167 311.5,356.833 311.5,361.5C 306.833,361.5 302.167,361.5 297.5,361.5C 297.5,356.833 297.5,352.167 297.5,347.5C 302.167,347.5 306.833,347.5 311.5,347.5 Z"/></g>
<g><path style="opacity:1" fill="#c3a54f" d="M 369.5,332.5 C 370.234,341.996 370.234,351.662 369.5,361.5C 364.833,361.5 360.167,361.5 355.5,361.5C 355.5,356.5 355.5,351.5 355.5,346.5C 360.167,346.5 364.833,346.5 369.5,346.5C 369.5,341.833 369.5,337.167 369.5,332.5 Z"/></g>
<g><path style="opacity:1" fill="#0b0c0b" d="M 428.5,347.5 C 433.167,347.5 437.833,347.5 442.5,347.5C 442.5,352.167 442.5,356.833 442.5,361.5C 437.833,361.5 433.167,361.5 428.5,361.5C 428.5,356.833 428.5,352.167 428.5,347.5 Z"/></g>
<g><path style="opacity:1" fill="#0c364e" d="M 442.5,347.5 C 446.833,347.5 451.167,347.5 455.5,347.5C 455.5,352.167 455.5,356.833 455.5,361.5C 451.167,361.5 446.833,361.5 442.5,361.5C 442.5,356.833 442.5,352.167 442.5,347.5 Z"/></g>
<g><path style="opacity:1" fill="#065c88" d="M 484.5,347.5 C 489.167,347.5 493.833,347.5 498.5,347.5C 498.173,357.348 498.506,367.014 499.5,376.5C 509.167,376.5 518.833,376.5 528.5,376.5C 528.5,381.167 528.5,385.833 528.5,390.5C 523.5,390.5 518.5,390.5 513.5,390.5C 513.179,395.695 513.513,400.695 514.5,405.5C 514.5,410.167 514.5,414.833 514.5,419.5C 519.167,419.5 523.833,419.5 528.5,419.5C 528.5,419.833 528.5,420.167 528.5,420.5C 528.5,429.833 528.5,439.167 528.5,448.5C 523.833,448.5 519.167,448.5 514.5,448.5C 514.819,443.637 514.486,438.97 513.5,434.5C 503.833,434.5 494.167,434.5 484.5,434.5C 484.5,439.167 484.5,443.833 484.5,448.5C 470.833,448.5 457.167,448.5 443.5,448.5C 443.819,443.637 443.486,438.97 442.5,434.5C 437.833,434.5 433.167,434.5 428.5,434.5C 428.5,429.833 428.5,425.167 428.5,420.5C 424.03,419.514 419.363,419.181 414.5,419.5C 414.5,414.833 414.5,410.167 414.5,405.5C 414.5,400.833 414.5,396.167 414.5,391.5C 419.363,391.819 424.03,391.486 428.5,390.5C 428.5,385.833 428.5,381.167 428.5,376.5C 428.5,371.5 428.5,366.5 428.5,361.5C 433.167,361.5 437.833,361.5 442.5,361.5C 446.833,361.5 451.167,361.5 455.5,361.5C 455.5,366.5 455.5,371.5 455.5,376.5C 460.5,376.5 465.5,376.5 470.5,376.5C 470.5,371.833 470.5,367.167 470.5,362.5C 475.363,362.819 480.03,362.486 484.5,361.5C 484.5,356.833 484.5,352.167 484.5,347.5 Z"/></g>
<g><path style="opacity:1" fill="#739750" d="M 484.5,347.5 C 489.305,346.513 494.305,346.179 499.5,346.5C 499.5,356.5 499.5,366.5 499.5,376.5C 498.506,367.014 498.173,357.348 498.5,347.5C 493.833,347.5 489.167,347.5 484.5,347.5 Z"/></g>
<g><path style="opacity:1" fill="#fa9400" d="M 601.5,347.5 C 601.5,352.167 601.5,356.833 601.5,361.5C 601.167,361.5 600.833,361.5 600.5,361.5C 591.167,361.5 581.833,361.5 572.5,361.5C 572.5,356.833 572.5,352.167 572.5,347.5C 582.167,347.5 591.833,347.5 601.5,347.5 Z"/></g>
<g><path style="opacity:1" fill="#6c988a" d="M 267.5,347.5 C 267.833,347.5 268.167,347.5 268.5,347.5C 268.5,352.167 268.5,356.833 268.5,361.5C 268.5,371.5 268.5,381.5 268.5,391.5C 263.5,391.5 258.5,391.5 253.5,391.5C 253.5,391.167 253.5,390.833 253.5,390.5C 258.167,390.5 262.833,390.5 267.5,390.5C 267.5,376.167 267.5,361.833 267.5,347.5 Z"/></g>
<g><path style="opacity:1" fill="#786021" d="M 297.5,361.5 C 302.167,361.5 306.833,361.5 311.5,361.5C 311.5,366.5 311.5,371.5 311.5,376.5C 306.833,376.5 302.167,376.5 297.5,376.5C 297.5,371.5 297.5,366.5 297.5,361.5 Z"/></g>
<g><path style="opacity:1" fill="#0c3750" d="M 414.5,361.5 C 419.167,361.5 423.833,361.5 428.5,361.5C 428.5,366.5 428.5,371.5 428.5,376.5C 423.833,376.5 419.167,376.5 414.5,376.5C 414.5,371.5 414.5,366.5 414.5,361.5 Z"/></g>
<g><path style="opacity:1" fill="#0e3c54" d="M 455.5,361.5 C 465.167,361.5 474.833,361.5 484.5,361.5C 480.03,362.486 475.363,362.819 470.5,362.5C 470.5,367.167 470.5,371.833 470.5,376.5C 465.5,376.5 460.5,376.5 455.5,376.5C 455.5,371.5 455.5,366.5 455.5,361.5 Z"/></g>
<g><path style="opacity:1" fill="#fa3900" d="M 572.5,361.5 C 581.833,361.5 591.167,361.5 600.5,361.5C 600.334,371.172 600.5,380.839 601,390.5C 605.737,391.469 610.57,391.803 615.5,391.5C 615.5,396.167 615.5,400.833 615.5,405.5C 600.833,405.5 586.167,405.5 571.5,405.5C 571.5,400.833 571.5,396.167 571.5,391.5C 566.833,391.5 562.167,391.5 557.5,391.5C 557.5,391.167 557.5,390.833 557.5,390.5C 557.5,385.833 557.5,381.167 557.5,376.5C 557.5,371.5 557.5,366.5 557.5,361.5C 562.5,361.5 567.5,361.5 572.5,361.5 Z"/></g>
<g><path style="opacity:1" fill="#5ba6b9" d="M 209.5,419.5 C 209.5,419.833 209.5,420.167 209.5,420.5C 199.833,420.5 190.167,420.5 180.5,420.5C 180.5,425.167 180.5,429.833 180.5,434.5C 170.833,434.5 161.167,434.5 151.5,434.5C 151.5,429.5 151.5,424.5 151.5,419.5C 156.167,419.5 160.833,419.5 165.5,419.5C 165.5,414.833 165.5,410.167 165.5,405.5C 170.5,405.5 175.5,405.5 180.5,405.5C 180.5,400.5 180.5,395.5 180.5,390.5C 185.5,390.5 190.5,390.5 195.5,390.5C 195.5,385.833 195.5,381.167 195.5,376.5C 200.5,376.5 205.5,376.5 210.5,376.5C 210.5,381.167 210.5,385.833 210.5,390.5C 215.167,390.5 219.833,390.5 224.5,390.5C 224.5,395.5 224.5,400.5 224.5,405.5C 219.5,405.5 214.5,405.5 209.5,405.5C 209.5,410.167 209.5,414.833 209.5,419.5 Z"/></g>
<g><path style="opacity:1" fill="#2b6a83" d="M 413.5,376.5 C 413.5,381.167 413.5,385.833 413.5,390.5C 408.833,390.5 404.167,390.5 399.5,390.5C 399.5,385.833 399.5,381.167 399.5,376.5C 404.167,376.5 408.833,376.5 413.5,376.5 Z"/></g>
<g><path style="opacity:1" fill="#0c0d0d" d="M 414.5,376.5 C 419.167,376.5 423.833,376.5 428.5,376.5C 428.5,381.167 428.5,385.833 428.5,390.5C 423.833,390.5 419.167,390.5 414.5,390.5C 414.5,385.833 414.5,381.167 414.5,376.5 Z"/></g>
<g><path style="opacity:1" fill="#f99600" d="M 557.5,376.5 C 557.5,381.167 557.5,385.833 557.5,390.5C 552.833,390.5 548.167,390.5 543.5,390.5C 543.5,385.833 543.5,381.167 543.5,376.5C 548.167,376.5 552.833,376.5 557.5,376.5 Z"/></g>
<g><path style="opacity:1" fill="#12394a" d="M 413.5,376.5 C 413.833,376.5 414.167,376.5 414.5,376.5C 414.5,381.167 414.5,385.833 414.5,390.5C 419.167,390.5 423.833,390.5 428.5,390.5C 424.03,391.486 419.363,391.819 414.5,391.5C 414.5,396.167 414.5,400.833 414.5,405.5C 414.167,405.5 413.833,405.5 413.5,405.5C 413.5,400.833 413.5,396.167 413.5,391.5C 408.833,391.5 404.167,391.5 399.5,391.5C 399.5,391.167 399.5,390.833 399.5,390.5C 404.167,390.5 408.833,390.5 413.5,390.5C 413.5,385.833 413.5,381.167 413.5,376.5 Z"/></g>
<g><path style="opacity:1" fill="#a5b135" d="M 528.5,390.5 C 524.03,391.486 519.363,391.819 514.5,391.5C 514.5,396.167 514.5,400.833 514.5,405.5C 513.513,400.695 513.179,395.695 513.5,390.5C 518.5,390.5 523.5,390.5 528.5,390.5 Z"/></g>
<g><path style="opacity:1" fill="#da0000" d="M 703.5,347.5 C 703.5,352.5 703.5,357.5 703.5,362.5C 688.833,362.5 674.167,362.5 659.5,362.5C 659.5,367.167 659.5,371.833 659.5,376.5C 645.167,376.5 630.833,376.5 616.5,376.5C 616.5,381.167 616.5,385.833 616.5,390.5C 621.167,390.5 625.833,390.5 630.5,390.5C 630.5,395.167 630.5,399.833 630.5,404.5C 635.5,404.5 640.5,404.5 645.5,404.5C 645.5,409.833 645.5,415.167 645.5,420.5C 630.833,420.5 616.167,420.5 601.5,420.5C 601.5,425.167 601.5,429.833 601.5,434.5C 606.5,434.5 611.5,434.5 616.5,434.5C 616.5,439.5 616.5,444.5 616.5,449.5C 596.833,449.5 577.167,449.5 557.5,449.5C 553.03,448.514 548.363,448.181 543.5,448.5C 543.5,443.833 543.5,439.167 543.5,434.5C 557.833,434.5 572.167,434.5 586.5,434.5C 586.5,429.833 586.5,425.167 586.5,420.5C 581.5,420.5 576.5,420.5 571.5,420.5C 571.5,415.5 571.5,410.5 571.5,405.5C 586.167,405.5 600.833,405.5 615.5,405.5C 615.5,400.833 615.5,396.167 615.5,391.5C 610.57,391.803 605.737,391.469 601,390.5C 600.5,380.839 600.334,371.172 600.5,361.5C 600.833,361.5 601.167,361.5 601.5,361.5C 620.833,361.5 640.167,361.5 659.5,361.5C 659.5,356.833 659.5,352.167 659.5,347.5C 674.167,347.5 688.833,347.5 703.5,347.5 Z"/></g>
<g><path style="opacity:1" fill="#c9aa53" d="M 398.5,390.5 C 398.5,395.5 398.5,400.5 398.5,405.5C 393.833,405.5 389.167,405.5 384.5,405.5C 384.5,400.5 384.5,395.5 384.5,390.5C 389.167,390.5 393.833,390.5 398.5,390.5 Z"/></g>
<g><path style="opacity:1" fill="#0e0d0c" d="M 399.5,391.5 C 404.167,391.5 408.833,391.5 413.5,391.5C 413.5,396.167 413.5,400.833 413.5,405.5C 408.833,405.5 404.167,405.5 399.5,405.5C 399.5,400.833 399.5,396.167 399.5,391.5 Z"/></g>
<g><path style="opacity:1" fill="#fa9500" d="M 557.5,391.5 C 562.167,391.5 566.833,391.5 571.5,391.5C 571.5,396.167 571.5,400.833 571.5,405.5C 566.833,405.5 562.167,405.5 557.5,405.5C 557.5,400.833 557.5,396.167 557.5,391.5 Z"/></g>
<g><path style="opacity:1" fill="#2b6982" d="M 180.5,390.5 C 180.5,395.5 180.5,400.5 180.5,405.5C 175.5,405.5 170.5,405.5 165.5,405.5C 165.5,410.167 165.5,414.833 165.5,419.5C 160.833,419.5 156.167,419.5 151.5,419.5C 151.5,414.5 151.5,409.5 151.5,404.5C 156.167,404.5 160.833,404.5 165.5,404.5C 165.5,399.833 165.5,395.167 165.5,390.5C 170.5,390.5 175.5,390.5 180.5,390.5 Z"/></g>
<g><path style="opacity:1" fill="#775e20" d="M 398.5,390.5 C 398.833,390.5 399.167,390.5 399.5,390.5C 399.5,390.833 399.5,391.167 399.5,391.5C 399.5,396.167 399.5,400.833 399.5,405.5C 399.5,410.167 399.5,414.833 399.5,419.5C 389.833,419.5 380.167,419.5 370.5,419.5C 370.5,414.833 370.5,410.167 370.5,405.5C 375.167,405.5 379.833,405.5 384.5,405.5C 389.167,405.5 393.833,405.5 398.5,405.5C 398.5,400.5 398.5,395.5 398.5,390.5 Z"/></g>
<g><path style="opacity:1" fill="#c6a650" d="M 370.5,405.5 C 370.5,410.167 370.5,414.833 370.5,419.5C 380.167,419.5 389.833,419.5 399.5,419.5C 399.5,414.833 399.5,410.167 399.5,405.5C 404.167,405.5 408.833,405.5 413.5,405.5C 413.5,410.5 413.5,415.5 413.5,420.5C 418.5,420.5 423.5,420.5 428.5,420.5C 428.5,425.167 428.5,429.833 428.5,434.5C 433.167,434.5 437.833,434.5 442.5,434.5C 442.5,439.5 442.5,444.5 442.5,449.5C 451.833,449.5 461.167,449.5 470.5,449.5C 470.827,459.348 470.494,469.014 469.5,478.5C 469.5,473.5 469.5,468.5 469.5,463.5C 464.833,463.5 460.167,463.5 455.5,463.5C 455.5,468.5 455.5,473.5 455.5,478.5C 451.5,478.5 447.5,478.5 443.5,478.5C 443.5,483.167 443.5,487.833 443.5,492.5C 443.5,507.167 443.5,521.833 443.5,536.5C 433.5,536.5 423.5,536.5 413.5,536.5C 413.5,531.833 413.5,527.167 413.5,522.5C 408.833,522.5 404.167,522.5 399.5,522.5C 389.833,522.5 380.167,522.5 370.5,522.5C 370.5,527.167 370.5,531.833 370.5,536.5C 365.5,536.5 360.5,536.5 355.5,536.5C 355.5,541.167 355.5,545.833 355.5,550.5C 341.167,550.5 326.833,550.5 312.5,550.5C 312.819,545.637 312.486,540.97 311.5,536.5C 306.833,536.5 302.167,536.5 297.5,536.5C 297.5,531.833 297.5,527.167 297.5,522.5C 302.167,522.5 306.833,522.5 311.5,522.5C 311.5,512.833 311.5,503.167 311.5,493.5C 316.5,493.5 321.5,493.5 326.5,493.5C 326.5,498.167 326.5,502.833 326.5,507.5C 331.167,507.5 335.833,507.5 340.5,507.5C 340.181,512.363 340.514,517.03 341.5,521.5C 346.167,521.5 350.833,521.5 355.5,521.5C 355.5,516.833 355.5,512.167 355.5,507.5C 365.167,507.5 374.833,507.5 384.5,507.5C 389.5,507.5 394.5,507.5 399.5,507.5C 399.5,502.833 399.5,498.167 399.5,493.5C 394.5,493.5 389.5,493.5 384.5,493.5C 384.5,493.167 384.5,492.833 384.5,492.5C 389.5,492.5 394.5,492.5 399.5,492.5C 404.167,492.5 408.833,492.5 413.5,492.5C 413.5,487.833 413.5,483.167 413.5,478.5C 413.5,473.5 413.5,468.5 413.5,463.5C 403.833,463.5 394.167,463.5 384.5,463.5C 384.5,468.5 384.5,473.5 384.5,478.5C 379.833,478.5 375.167,478.5 370.5,478.5C 370.5,483.167 370.5,487.833 370.5,492.5C 365.5,492.5 360.5,492.5 355.5,492.5C 355.5,482.833 355.5,473.167 355.5,463.5C 350.833,463.5 346.167,463.5 341.5,463.5C 340.506,472.986 340.173,482.652 340.5,492.5C 335.833,492.5 331.167,492.5 326.5,492.5C 326.5,487.833 326.5,483.167 326.5,478.5C 326.5,468.833 326.5,459.167 326.5,449.5C 321.695,448.513 316.695,448.179 311.5,448.5C 311.5,443.833 311.5,439.167 311.5,434.5C 316.5,434.5 321.5,434.5 326.5,434.5C 326.5,429.833 326.5,425.167 326.5,420.5C 336.165,420.122 345.831,419.789 355.5,419.5C 355.5,414.833 355.5,410.167 355.5,405.5C 360.5,405.5 365.5,405.5 370.5,405.5 Z"/></g>
<g><path style="opacity:1" fill="#0f0d0c" d="M 514.5,405.5 C 519.167,405.5 523.833,405.5 528.5,405.5C 528.5,410.167 528.5,414.833 528.5,419.5C 523.833,419.5 519.167,419.5 514.5,419.5C 514.5,414.833 514.5,410.167 514.5,405.5 Z"/></g>
<g><path style="opacity:1" fill="#f29100" d="M 528.5,405.5 C 533.167,405.5 537.833,405.5 542.5,405.5C 542.5,410.5 542.5,415.5 542.5,420.5C 537.833,420.5 533.167,420.5 528.5,420.5C 528.5,420.167 528.5,419.833 528.5,419.5C 528.5,414.833 528.5,410.167 528.5,405.5 Z"/></g>
<g><path style="opacity:1" fill="#f93800" d="M 542.5,405.5 C 547.5,405.5 552.5,405.5 557.5,405.5C 562.167,405.5 566.833,405.5 571.5,405.5C 571.5,410.5 571.5,415.5 571.5,420.5C 576.5,420.5 581.5,420.5 586.5,420.5C 586.5,425.167 586.5,429.833 586.5,434.5C 572.167,434.5 557.833,434.5 543.5,434.5C 543.819,429.637 543.486,424.97 542.5,420.5C 542.5,415.5 542.5,410.5 542.5,405.5 Z"/></g>
<g><path style="opacity:1" fill="#9ab290" d="M 239.5,405.5 C 239.5,410.5 239.5,415.5 239.5,420.5C 229.833,420.5 220.167,420.5 210.5,420.5C 210.819,425.363 210.486,430.03 209.5,434.5C 209.5,429.833 209.5,425.167 209.5,420.5C 209.5,420.167 209.5,419.833 209.5,419.5C 219.167,419.5 228.833,419.5 238.5,419.5C 238.181,414.637 238.514,409.97 239.5,405.5 Z"/></g>
<g><path style="opacity:1" fill="#63816c" d="M 413.5,405.5 C 413.833,405.5 414.167,405.5 414.5,405.5C 414.5,410.167 414.5,414.833 414.5,419.5C 419.363,419.181 424.03,419.514 428.5,420.5C 423.5,420.5 418.5,420.5 413.5,420.5C 413.5,415.5 413.5,410.5 413.5,405.5 Z"/></g>
<g><path style="opacity:1" fill="#2b6982" d="M 151.5,419.5 C 151.5,424.5 151.5,429.5 151.5,434.5C 146.5,434.5 141.5,434.5 136.5,434.5C 136.5,429.5 136.5,424.5 136.5,419.5C 141.5,419.5 146.5,419.5 151.5,419.5 Z"/></g>
<g><path style="opacity:1" fill="#2b6a83" d="M 209.5,420.5 C 209.5,425.167 209.5,429.833 209.5,434.5C 199.833,434.5 190.167,434.5 180.5,434.5C 180.5,429.833 180.5,425.167 180.5,420.5C 190.167,420.5 199.833,420.5 209.5,420.5 Z"/></g>
<g><path style="opacity:1" fill="#7c652a" d="M 326.5,420.5 C 321.5,420.5 316.5,420.5 311.5,420.5C 301.833,420.5 292.167,420.5 282.5,420.5C 282.5,425.167 282.5,429.833 282.5,434.5C 277.833,434.5 273.167,434.5 268.5,434.5C 268.5,429.5 268.5,424.5 268.5,419.5C 288.007,419.17 307.341,419.503 326.5,420.5 Z"/></g>
<g><path style="opacity:1" fill="#0d0c0c" d="M 311.5,420.5 C 311.5,425.167 311.5,429.833 311.5,434.5C 306.833,434.5 302.167,434.5 297.5,434.5C 292.5,434.5 287.5,434.5 282.5,434.5C 282.5,429.833 282.5,425.167 282.5,420.5C 292.167,420.5 301.833,420.5 311.5,420.5 Z"/></g>
<g><path style="opacity:1" fill="#745b1f" d="M 311.5,420.5 C 316.5,420.5 321.5,420.5 326.5,420.5C 326.5,425.167 326.5,429.833 326.5,434.5C 321.5,434.5 316.5,434.5 311.5,434.5C 311.5,429.833 311.5,425.167 311.5,420.5 Z"/></g>
<g><path style="opacity:1" fill="#755d1e" d="M 341.5,420.5 C 350.833,420.5 360.167,420.5 369.5,420.5C 369.5,425.167 369.5,429.833 369.5,434.5C 360.167,434.5 350.833,434.5 341.5,434.5C 341.5,429.833 341.5,425.167 341.5,420.5 Z"/></g>
<g><path style="opacity:1" fill="#0c0d0e" d="M 528.5,420.5 C 533.167,420.5 537.833,420.5 542.5,420.5C 542.5,430.167 542.5,439.833 542.5,449.5C 537.833,449.5 533.167,449.5 528.5,449.5C 528.5,449.167 528.5,448.833 528.5,448.5C 528.5,439.167 528.5,429.833 528.5,420.5 Z"/></g>
<g><path style="opacity:1" fill="#316c82" d="M 151.5,434.5 C 161.167,434.5 170.833,434.5 180.5,434.5C 180.5,439.5 180.5,444.5 180.5,449.5C 175.833,449.5 171.167,449.5 166.5,449.5C 161.5,449.5 156.5,449.5 151.5,449.5C 151.5,444.5 151.5,439.5 151.5,434.5 Z"/></g>
<g><path style="opacity:1" fill="#755d1e" d="M 239.5,434.5 C 244.167,434.5 248.833,434.5 253.5,434.5C 253.5,439.5 253.5,444.5 253.5,449.5C 248.833,449.5 244.167,449.5 239.5,449.5C 239.5,444.5 239.5,439.5 239.5,434.5 Z"/></g>
<g><path style="opacity:1" fill="#0f0e0c" d="M 253.5,434.5 C 258.167,434.5 262.833,434.5 267.5,434.5C 267.5,439.5 267.5,444.5 267.5,449.5C 262.833,449.5 258.167,449.5 253.5,449.5C 253.5,444.5 253.5,439.5 253.5,434.5 Z"/></g>
<g><path style="opacity:1" fill="#f9f2a1" d="M 268.5,434.5 C 273.167,434.5 277.833,434.5 282.5,434.5C 282.5,439.5 282.5,444.5 282.5,449.5C 287.5,449.5 292.5,449.5 297.5,449.5C 297.5,458.833 297.5,468.167 297.5,477.5C 292.833,477.5 288.167,477.5 283.5,477.5C 283.819,472.637 283.486,467.97 282.5,463.5C 277.833,463.5 273.167,463.5 268.5,463.5C 268.5,453.833 268.5,444.167 268.5,434.5 Z"/></g>
<g><path style="opacity:1" fill="#c8aa53" d="M 282.5,434.5 C 287.5,434.5 292.5,434.5 297.5,434.5C 297.5,439.5 297.5,444.5 297.5,449.5C 292.5,449.5 287.5,449.5 282.5,449.5C 282.5,444.5 282.5,439.5 282.5,434.5 Z"/></g>
<g><path style="opacity:1" fill="#c7a750" d="M 513.5,434.5 C 513.5,439.5 513.5,444.5 513.5,449.5C 518.5,449.5 523.5,449.5 528.5,449.5C 528.5,454.167 528.5,458.833 528.5,463.5C 533.167,463.5 537.833,463.5 542.5,463.5C 542.5,483.167 542.5,502.833 542.5,522.5C 537.833,522.5 533.167,522.5 528.5,522.5C 528.5,527.167 528.5,531.833 528.5,536.5C 528.5,541.5 528.5,546.5 528.5,551.5C 523.833,551.5 519.167,551.5 514.5,551.5C 513.506,560.986 513.173,570.652 513.5,580.5C 508.833,580.5 504.167,580.5 499.5,580.5C 499.5,580.167 499.5,579.833 499.5,579.5C 499.819,574.637 499.486,569.97 498.5,565.5C 498.5,560.833 498.5,556.167 498.5,551.5C 488.833,551.5 479.167,551.5 469.5,551.5C 469.5,546.5 469.5,541.5 469.5,536.5C 479.167,536.5 488.833,536.5 498.5,536.5C 498.5,531.5 498.5,526.5 498.5,521.5C 503.5,521.5 508.5,521.5 513.5,521.5C 513.5,502.167 513.5,482.833 513.5,463.5C 508.833,463.5 504.167,463.5 499.5,463.5C 499.5,458.5 499.5,453.5 499.5,448.5C 494.5,448.5 489.5,448.5 484.5,448.5C 484.5,443.833 484.5,439.167 484.5,434.5C 494.167,434.5 503.833,434.5 513.5,434.5 Z"/></g>
<g><path style="opacity:1" fill="#920d01" d="M 542.5,420.5 C 543.486,424.97 543.819,429.637 543.5,434.5C 543.5,439.167 543.5,443.833 543.5,448.5C 548.363,448.181 553.03,448.514 557.5,449.5C 552.5,449.5 547.5,449.5 542.5,449.5C 542.5,439.833 542.5,430.167 542.5,420.5 Z"/></g>
<g><path style="opacity:1" fill="#aea468" d="M 239.5,434.5 C 239.5,439.5 239.5,444.5 239.5,449.5C 229.5,449.5 219.5,449.5 209.5,449.5C 204.833,449.5 200.167,449.5 195.5,449.5C 209.657,448.504 223.99,448.171 238.5,448.5C 238.181,443.637 238.514,438.97 239.5,434.5 Z"/></g>
<g><path style="opacity:1" fill="#5b8374" d="M 442.5,434.5 C 443.486,438.97 443.819,443.637 443.5,448.5C 457.167,448.5 470.833,448.5 484.5,448.5C 480.03,449.486 475.363,449.819 470.5,449.5C 461.167,449.5 451.833,449.5 442.5,449.5C 442.5,444.5 442.5,439.5 442.5,434.5 Z"/></g>
<g><path style="opacity:1" fill="#4a7871" d="M 513.5,434.5 C 514.486,438.97 514.819,443.637 514.5,448.5C 519.167,448.5 523.833,448.5 528.5,448.5C 528.5,448.833 528.5,449.167 528.5,449.5C 523.5,449.5 518.5,449.5 513.5,449.5C 513.5,444.5 513.5,439.5 513.5,434.5 Z"/></g>
<g><path style="opacity:1" fill="#f6ef9e" d="M 151.5,449.5 C 156.5,449.5 161.5,449.5 166.5,449.5C 166.5,454.167 166.5,458.833 166.5,463.5C 161.5,463.5 156.5,463.5 151.5,463.5C 151.5,458.833 151.5,454.167 151.5,449.5 Z"/></g>
<g><path style="opacity:1" fill="#c7a850" d="M 166.5,449.5 C 171.167,449.5 175.833,449.5 180.5,449.5C 180.5,454.167 180.5,458.833 180.5,463.5C 175.833,463.5 171.167,463.5 166.5,463.5C 166.5,458.833 166.5,454.167 166.5,449.5 Z"/></g>
<g><path style="opacity:1" fill="#765d1f" d="M 195.5,449.5 C 200.167,449.5 204.833,449.5 209.5,449.5C 209.5,454.5 209.5,459.5 209.5,464.5C 204.833,464.5 200.167,464.5 195.5,464.5C 195.5,464.167 195.5,463.833 195.5,463.5C 195.5,458.833 195.5,454.167 195.5,449.5 Z"/></g>
<g><path style="opacity:1" fill="#0d0d0c" d="M 209.5,449.5 C 219.5,449.5 229.5,449.5 239.5,449.5C 239.5,454.5 239.5,459.5 239.5,464.5C 229.5,464.5 219.5,464.5 209.5,464.5C 209.5,459.5 209.5,454.5 209.5,449.5 Z"/></g>
<g><path style="opacity:1" fill="#c6a853" d="M 297.5,449.5 C 302.167,449.5 306.833,449.5 311.5,449.5C 311.5,459.167 311.5,468.833 311.5,478.5C 301.833,478.5 292.167,478.5 282.5,478.5C 282.5,473.5 282.5,468.5 282.5,463.5C 283.486,467.97 283.819,472.637 283.5,477.5C 288.167,477.5 292.833,477.5 297.5,477.5C 297.5,468.167 297.5,458.833 297.5,449.5 Z"/></g>
<g><path style="opacity:1" fill="#0f0e0c" d="M 326.5,449.5 C 326.5,459.167 326.5,468.833 326.5,478.5C 321.833,478.5 317.167,478.5 312.5,478.5C 312.5,468.833 312.5,459.167 312.5,449.5C 317.167,449.5 321.833,449.5 326.5,449.5 Z"/></g>
<g><path style="opacity:1" fill="#755d1e" d="M 355.5,463.5 C 355.5,458.833 355.5,454.167 355.5,449.5C 360.167,449.5 364.833,449.5 369.5,449.5C 369.5,454.167 369.5,458.833 369.5,463.5C 364.833,463.5 360.167,463.5 355.5,463.5 Z"/></g>
<g><path style="opacity:1" fill="#f9f2a1" d="M 484.5,448.5 C 489.5,448.5 494.5,448.5 499.5,448.5C 499.5,453.5 499.5,458.5 499.5,463.5C 504.167,463.5 508.833,463.5 513.5,463.5C 513.5,482.833 513.5,502.167 513.5,521.5C 508.5,521.5 503.5,521.5 498.5,521.5C 498.5,526.5 498.5,531.5 498.5,536.5C 488.833,536.5 479.167,536.5 469.5,536.5C 469.5,531.833 469.5,527.167 469.5,522.5C 464.833,522.5 460.167,522.5 455.5,522.5C 455.5,512.5 455.5,502.5 455.5,492.5C 455.5,487.833 455.5,483.167 455.5,478.5C 460.167,478.5 464.833,478.5 469.5,478.5C 470.494,469.014 470.827,459.348 470.5,449.5C 475.363,449.819 480.03,449.486 484.5,448.5 Z"/></g>
<g><path style="opacity:1" fill="#2b6a83" d="M 528.5,449.5 C 533.167,449.5 537.833,449.5 542.5,449.5C 542.5,454.167 542.5,458.833 542.5,463.5C 537.833,463.5 533.167,463.5 528.5,463.5C 528.5,458.833 528.5,454.167 528.5,449.5 Z"/></g>
<g><path style="opacity:1" fill="#0c0c0c" d="M 542.5,449.5 C 547.5,449.5 552.5,449.5 557.5,449.5C 557.5,473.833 557.5,498.167 557.5,522.5C 552.833,522.5 548.167,522.5 543.5,522.5C 543.83,502.66 543.497,482.993 542.5,463.5C 542.5,458.833 542.5,454.167 542.5,449.5 Z"/></g>
<g><path style="opacity:1" fill="#0d0d0c" d="M 136.5,434.5 C 141.5,434.5 146.5,434.5 151.5,434.5C 151.5,439.5 151.5,444.5 151.5,449.5C 151.5,454.167 151.5,458.833 151.5,463.5C 156.5,463.5 161.5,463.5 166.5,463.5C 171.167,463.5 175.833,463.5 180.5,463.5C 185.5,463.5 190.5,463.5 195.5,463.5C 195.5,463.833 195.5,464.167 195.5,464.5C 195.5,469.167 195.5,473.833 195.5,478.5C 180.833,478.5 166.167,478.5 151.5,478.5C 151.5,473.833 151.5,469.167 151.5,464.5C 146.5,464.5 141.5,464.5 136.5,464.5C 136.5,454.5 136.5,444.5 136.5,434.5 Z"/></g>
<g><path style="opacity:1" fill="#765d1f" d="M 267.5,434.5 C 267.833,434.5 268.167,434.5 268.5,434.5C 268.5,444.167 268.5,453.833 268.5,463.5C 273.167,463.5 277.833,463.5 282.5,463.5C 282.5,468.5 282.5,473.5 282.5,478.5C 282.5,483.167 282.5,487.833 282.5,492.5C 282.5,492.833 282.5,493.167 282.5,493.5C 282.5,503.167 282.5,512.833 282.5,522.5C 277.5,522.5 272.5,522.5 267.5,522.5C 267.5,503.167 267.5,483.833 267.5,464.5C 262.833,464.5 258.167,464.5 253.5,464.5C 253.5,459.5 253.5,454.5 253.5,449.5C 258.167,449.5 262.833,449.5 267.5,449.5C 267.5,444.5 267.5,439.5 267.5,434.5 Z"/></g>
<g><path style="opacity:1" fill="#0d0c0c" d="M 341.5,463.5 C 346.167,463.5 350.833,463.5 355.5,463.5C 355.5,473.167 355.5,482.833 355.5,492.5C 350.833,492.5 346.167,492.5 341.5,492.5C 341.5,482.833 341.5,473.167 341.5,463.5 Z"/></g>
<g><path style="opacity:1" fill="#f8f1a0" d="M 413.5,478.5 C 408.833,478.5 404.167,478.5 399.5,478.5C 399.5,483.167 399.5,487.833 399.5,492.5C 394.5,492.5 389.5,492.5 384.5,492.5C 379.833,492.5 375.167,492.5 370.5,492.5C 370.5,487.833 370.5,483.167 370.5,478.5C 375.167,478.5 379.833,478.5 384.5,478.5C 384.5,473.5 384.5,468.5 384.5,463.5C 394.167,463.5 403.833,463.5 413.5,463.5C 413.5,468.5 413.5,473.5 413.5,478.5 Z"/></g>
<g><path style="opacity:1" fill="#785f20" d="M 414.5,463.5 C 419.167,463.5 423.833,463.5 428.5,463.5C 428.5,468.5 428.5,473.5 428.5,478.5C 423.833,478.5 419.167,478.5 414.5,478.5C 414.5,473.5 414.5,468.5 414.5,463.5 Z"/></g>
<g><path style="opacity:1" fill="#786021" d="M 469.5,478.5 C 464.833,478.5 460.167,478.5 455.5,478.5C 455.5,473.5 455.5,468.5 455.5,463.5C 460.167,463.5 464.833,463.5 469.5,463.5C 469.5,468.5 469.5,473.5 469.5,478.5 Z"/></g>
<g><path style="opacity:1" fill="#0d0c0c" d="M 282.5,478.5 C 292.167,478.5 301.833,478.5 311.5,478.5C 311.5,483.167 311.5,487.833 311.5,492.5C 301.833,492.5 292.167,492.5 282.5,492.5C 282.5,487.833 282.5,483.167 282.5,478.5 Z"/></g>
<g><path style="opacity:1" fill="#735b20" d="M 297.5,434.5 C 302.167,434.5 306.833,434.5 311.5,434.5C 311.5,439.167 311.5,443.833 311.5,448.5C 316.695,448.179 321.695,448.513 326.5,449.5C 321.833,449.5 317.167,449.5 312.5,449.5C 312.5,459.167 312.5,468.833 312.5,478.5C 317.167,478.5 321.833,478.5 326.5,478.5C 326.5,483.167 326.5,487.833 326.5,492.5C 321.5,492.5 316.5,492.5 311.5,492.5C 311.5,487.833 311.5,483.167 311.5,478.5C 311.5,468.833 311.5,459.167 311.5,449.5C 306.833,449.5 302.167,449.5 297.5,449.5C 297.5,444.5 297.5,439.5 297.5,434.5 Z"/></g>
<g><path style="opacity:1" fill="#755d1e" d="M 413.5,478.5 C 413.5,483.167 413.5,487.833 413.5,492.5C 408.833,492.5 404.167,492.5 399.5,492.5C 399.5,487.833 399.5,483.167 399.5,478.5C 404.167,478.5 408.833,478.5 413.5,478.5 Z"/></g>
<g><path style="opacity:1" fill="#755d1e" d="M 455.5,478.5 C 455.5,483.167 455.5,487.833 455.5,492.5C 451.5,492.5 447.5,492.5 443.5,492.5C 443.5,487.833 443.5,483.167 443.5,478.5C 447.5,478.5 451.5,478.5 455.5,478.5 Z"/></g>
<g><path style="opacity:1" fill="#89773c" d="M 341.5,463.5 C 341.5,473.167 341.5,482.833 341.5,492.5C 346.167,492.5 350.833,492.5 355.5,492.5C 360.5,492.5 365.5,492.5 370.5,492.5C 375.167,492.5 379.833,492.5 384.5,492.5C 384.5,492.833 384.5,493.167 384.5,493.5C 374.833,493.5 365.167,493.5 355.5,493.5C 350.833,493.5 346.167,493.5 341.5,493.5C 341.5,498.167 341.5,502.833 341.5,507.5C 341.5,512.167 341.5,516.833 341.5,521.5C 340.514,517.03 340.181,512.363 340.5,507.5C 335.833,507.5 331.167,507.5 326.5,507.5C 326.5,502.833 326.5,498.167 326.5,493.5C 321.5,493.5 316.5,493.5 311.5,493.5C 301.833,493.5 292.167,493.5 282.5,493.5C 282.5,493.167 282.5,492.833 282.5,492.5C 292.167,492.5 301.833,492.5 311.5,492.5C 316.5,492.5 321.5,492.5 326.5,492.5C 331.167,492.5 335.833,492.5 340.5,492.5C 340.173,482.652 340.506,472.986 341.5,463.5 Z"/></g>
<g><path style="opacity:1" fill="#f7f09f" d="M 282.5,493.5 C 292.167,493.5 301.833,493.5 311.5,493.5C 311.5,503.167 311.5,512.833 311.5,522.5C 306.833,522.5 302.167,522.5 297.5,522.5C 292.5,522.5 287.5,522.5 282.5,522.5C 282.5,512.833 282.5,503.167 282.5,493.5 Z"/></g>
<g><path style="opacity:1" fill="#765d1f" d="M 326.5,493.5 C 331.167,493.5 335.833,493.5 340.5,493.5C 340.5,498.167 340.5,502.833 340.5,507.5C 340.5,502.833 340.5,498.167 340.5,493.5C 335.833,493.5 331.167,493.5 326.5,493.5 Z"/></g>
<g><path style="opacity:1" fill="#c7a750" d="M 355.5,493.5 C 355.5,498.167 355.5,502.833 355.5,507.5C 350.833,507.5 346.167,507.5 341.5,507.5C 341.5,502.833 341.5,498.167 341.5,493.5C 346.167,493.5 350.833,493.5 355.5,493.5 Z"/></g>
<g><path style="opacity:1" fill="#0e0d0c" d="M 355.5,493.5 C 365.167,493.5 374.833,493.5 384.5,493.5C 384.5,498.167 384.5,502.833 384.5,507.5C 374.833,507.5 365.167,507.5 355.5,507.5C 355.5,502.833 355.5,498.167 355.5,493.5 Z"/></g>
<g><path style="opacity:1" fill="#765d1f" d="M 384.5,493.5 C 389.5,493.5 394.5,493.5 399.5,493.5C 399.5,498.167 399.5,502.833 399.5,507.5C 394.5,507.5 389.5,507.5 384.5,507.5C 384.5,502.833 384.5,498.167 384.5,493.5 Z"/></g>
<g><path style="opacity:1" fill="#0c0c0c" d="M 443.5,492.5 C 447.5,492.5 451.5,492.5 455.5,492.5C 455.5,502.5 455.5,512.5 455.5,522.5C 455.5,527.167 455.5,531.833 455.5,536.5C 455.5,541.5 455.5,546.5 455.5,551.5C 441.5,551.5 427.5,551.5 413.5,551.5C 413.5,546.5 413.5,541.5 413.5,536.5C 423.5,536.5 433.5,536.5 443.5,536.5C 443.5,521.833 443.5,507.167 443.5,492.5 Z"/></g>
<g><path style="opacity:1" fill="#755d1e" d="M 341.5,507.5 C 346.167,507.5 350.833,507.5 355.5,507.5C 355.5,512.167 355.5,516.833 355.5,521.5C 350.833,521.5 346.167,521.5 341.5,521.5C 341.5,516.833 341.5,512.167 341.5,507.5 Z"/></g>
<g><path style="opacity:1" fill="#765d1f" d="M 282.5,522.5 C 287.5,522.5 292.5,522.5 297.5,522.5C 297.5,527.167 297.5,531.833 297.5,536.5C 302.167,536.5 306.833,536.5 311.5,536.5C 311.5,541.167 311.5,545.833 311.5,550.5C 301.833,550.5 292.167,550.5 282.5,550.5C 282.5,541.167 282.5,531.833 282.5,522.5 Z"/></g>
<g><path style="opacity:1" fill="#0d0c0c" d="M 399.5,522.5 C 399.5,527.167 399.5,531.833 399.5,536.5C 389.833,536.5 380.167,536.5 370.5,536.5C 370.5,531.833 370.5,527.167 370.5,522.5C 380.167,522.5 389.833,522.5 399.5,522.5 Z"/></g>
<g><path style="opacity:1" fill="#755d1e" d="M 399.5,522.5 C 404.167,522.5 408.833,522.5 413.5,522.5C 413.5,527.167 413.5,531.833 413.5,536.5C 408.833,536.5 404.167,536.5 399.5,536.5C 399.5,531.833 399.5,527.167 399.5,522.5 Z"/></g>
<g><path style="opacity:1" fill="#c7a850" d="M 455.5,522.5 C 460.167,522.5 464.833,522.5 469.5,522.5C 469.5,527.167 469.5,531.833 469.5,536.5C 464.833,536.5 460.167,536.5 455.5,536.5C 455.5,531.833 455.5,527.167 455.5,522.5 Z"/></g>
<g><path style="opacity:1" fill="#6f5820" d="M 542.5,463.5 C 543.497,482.993 543.83,502.66 543.5,522.5C 543.5,527.167 543.5,531.833 543.5,536.5C 538.5,536.5 533.5,536.5 528.5,536.5C 528.5,531.833 528.5,527.167 528.5,522.5C 533.167,522.5 537.833,522.5 542.5,522.5C 542.5,502.833 542.5,483.167 542.5,463.5 Z"/></g>
<g><path style="opacity:1" fill="#0b0c0b" d="M 370.5,536.5 C 370.5,541.5 370.5,546.5 370.5,551.5C 365.5,551.5 360.5,551.5 355.5,551.5C 355.5,551.167 355.5,550.833 355.5,550.5C 355.5,545.833 355.5,541.167 355.5,536.5C 360.5,536.5 365.5,536.5 370.5,536.5 Z"/></g>
<g><path style="opacity:1" fill="#735b1e" d="M 455.5,536.5 C 460.167,536.5 464.833,536.5 469.5,536.5C 469.5,541.5 469.5,546.5 469.5,551.5C 464.833,551.5 460.167,551.5 455.5,551.5C 455.5,546.5 455.5,541.5 455.5,536.5 Z"/></g>
<g><path style="opacity:1" fill="#0b0c0b" d="M 528.5,536.5 C 533.5,536.5 538.5,536.5 543.5,536.5C 543.5,541.5 543.5,546.5 543.5,551.5C 538.5,551.5 533.5,551.5 528.5,551.5C 528.5,546.5 528.5,541.5 528.5,536.5 Z"/></g>
<g><path style="opacity:1" fill="#9e8a47" d="M 311.5,536.5 C 312.486,540.97 312.819,545.637 312.5,550.5C 326.833,550.5 341.167,550.5 355.5,550.5C 355.5,550.833 355.5,551.167 355.5,551.5C 345.833,551.5 336.167,551.5 326.5,551.5C 321.5,551.5 316.5,551.5 311.5,551.5C 306.833,551.5 302.167,551.5 297.5,551.5C 292.833,551.5 288.167,551.5 283.5,551.5C 283.5,556.167 283.5,560.833 283.5,565.5C 282.513,560.695 282.179,555.695 282.5,550.5C 292.167,550.5 301.833,550.5 311.5,550.5C 311.5,545.833 311.5,541.167 311.5,536.5 Z"/></g>
<g><path style="opacity:1" fill="#0b0c0b" d="M 455.5,551.5 C 460.167,551.5 464.833,551.5 469.5,551.5C 469.5,556.167 469.5,560.833 469.5,565.5C 469.5,570.5 469.5,575.5 469.5,580.5C 464.833,580.5 460.167,580.5 455.5,580.5C 455.5,570.833 455.5,561.167 455.5,551.5 Z"/></g>
<g><path style="opacity:1" fill="#745b1e" d="M 469.5,551.5 C 479.167,551.5 488.833,551.5 498.5,551.5C 498.5,556.167 498.5,560.833 498.5,565.5C 489.167,565.5 479.833,565.5 470.5,565.5C 470.167,565.5 469.833,565.5 469.5,565.5C 469.5,560.833 469.5,556.167 469.5,551.5 Z"/></g>
<g><path style="opacity:1" fill="#0b0c0b" d="M 514.5,551.5 C 519.167,551.5 523.833,551.5 528.5,551.5C 528.5,561.167 528.5,570.833 528.5,580.5C 523.833,580.5 519.167,580.5 514.5,580.5C 514.5,570.833 514.5,561.167 514.5,551.5 Z"/></g>
<g><path style="opacity:1" fill="#0c0c0c" d="M 282.5,550.5 C 282.179,555.695 282.513,560.695 283.5,565.5C 288.167,565.5 292.833,565.5 297.5,565.5C 302.167,565.5 306.833,565.5 311.5,565.5C 316.5,565.5 321.5,565.5 326.5,565.5C 326.5,560.833 326.5,556.167 326.5,551.5C 336.167,551.5 345.833,551.5 355.5,551.5C 355.5,556.5 355.5,561.5 355.5,566.5C 345.833,566.5 336.167,566.5 326.5,566.5C 326.5,571.167 326.5,575.833 326.5,580.5C 311.833,580.5 297.167,580.5 282.5,580.5C 282.5,575.833 282.5,571.167 282.5,566.5C 277.5,566.5 272.5,566.5 267.5,566.5C 267.5,561.167 267.5,555.833 267.5,550.5C 272.5,550.5 277.5,550.5 282.5,550.5 Z"/></g>
<g><path style="opacity:1" fill="#755e21" d="M 311.5,551.5 C 316.5,551.5 321.5,551.5 326.5,551.5C 326.5,556.167 326.5,560.833 326.5,565.5C 321.5,565.5 316.5,565.5 311.5,565.5C 311.5,560.833 311.5,556.167 311.5,551.5 Z"/></g>
<g><path style="opacity:1" fill="#70a8ae" d="M 297.5,551.5 C 302.167,551.5 306.833,551.5 311.5,551.5C 311.5,556.167 311.5,560.833 311.5,565.5C 306.833,565.5 302.167,565.5 297.5,565.5C 297.5,560.833 297.5,556.167 297.5,551.5 Z"/></g>
<g><path style="opacity:1" fill="#f7f1ba" d="M 297.5,551.5 C 297.5,556.167 297.5,560.833 297.5,565.5C 292.833,565.5 288.167,565.5 283.5,565.5C 283.5,560.833 283.5,556.167 283.5,551.5C 288.167,551.5 292.833,551.5 297.5,551.5 Z"/></g>
<g><path style="opacity:1" fill="#f8f1b8" d="M 470.5,565.5 C 479.833,565.5 489.167,565.5 498.5,565.5C 499.486,569.97 499.819,574.637 499.5,579.5C 489.833,579.5 480.167,579.5 470.5,579.5C 470.5,574.833 470.5,570.167 470.5,565.5 Z"/></g>
<g><path style="opacity:1" fill="#afab82" d="M 469.5,565.5 C 469.833,565.5 470.167,565.5 470.5,565.5C 470.5,570.167 470.5,574.833 470.5,579.5C 480.167,579.5 489.833,579.5 499.5,579.5C 499.5,579.833 499.5,580.167 499.5,580.5C 489.5,580.5 479.5,580.5 469.5,580.5C 469.5,575.5 469.5,570.5 469.5,565.5 Z"/></g>
<g><path style="opacity:1" fill="#0e0e0d" d="M 514.5,551.5 C 514.5,561.167 514.5,570.833 514.5,580.5C 514.5,585.5 514.5,590.5 514.5,595.5C 499.5,595.5 484.5,595.5 469.5,595.5C 469.5,590.5 469.5,585.5 469.5,580.5C 479.5,580.5 489.5,580.5 499.5,580.5C 504.167,580.5 508.833,580.5 513.5,580.5C 513.173,570.652 513.506,560.986 514.5,551.5 Z"/></g>
</svg>
