<?xml version="1.0" encoding="UTF-8"?>
<!DOCTYPE svg PUBLIC "-//W3C//DTD SVG 1.1//EN" "http://www.w3.org/Graphics/SVG/1.1/DTD/svg11.dtd">
<svg xmlns="http://www.w3.org/2000/svg" version="1.1" width="694px" height="590px" style="shape-rendering:geometricPrecision; text-rendering:geometricPrecision; image-rendering:optimizeQuality; fill-rule:evenodd; clip-rule:evenodd" xmlns:xlink="http://www.w3.org/1999/xlink">
<g><path style="opacity:1" fill="#2b83c1" d="M 185.5,-0.5 C 202.5,-0.5 219.5,-0.5 236.5,-0.5C 236.5,5.16667 236.5,10.8333 236.5,16.5C 241.167,16.5 245.833,16.5 250.5,16.5C 250.5,10.8333 250.5,5.16667 250.5,-0.5C 256.5,-0.5 262.5,-0.5 268.5,-0.5C 268.5,5.16667 268.5,10.8333 268.5,16.5C 262.833,16.5 257.167,16.5 251.5,16.5C 251.5,21.8333 251.5,27.1667 251.5,32.5C 240.5,32.5 229.5,32.5 218.5,32.5C 218.5,32.1667 218.5,31.8333 218.5,31.5C 218.5,26.5 218.5,21.5 218.5,16.5C 207.5,16.5 196.5,16.5 185.5,16.5C 185.5,10.8333 185.5,5.16667 185.5,-0.5 Z"/></g>
<g><path style="opacity:1" fill="#255783" d="M 268.5,-0.5 C 279.833,-0.5 291.167,-0.5 302.5,-0.5C 302.5,5.16667 302.5,10.8333 302.5,16.5C 291.167,16.5 279.833,16.5 268.5,16.5C 268.5,10.8333 268.5,5.16667 268.5,-0.5 Z"/></g>
<g><path style="opacity:1" fill="#2b81c0" d="M 302.5,16.5 C 308.167,16.5 313.833,16.5 319.5,16.5C 319.5,21.5 319.5,26.5 319.5,31.5C 313.833,31.5 308.167,31.5 302.5,31.5C 302.5,26.5 302.5,21.5 302.5,16.5 Z"/></g>
<g><path style="opacity:1" fill="#0b0c0b" d="M 319.5,16.5 C 325.5,16.5 331.5,16.5 337.5,16.5C 337.5,21.5 337.5,26.5 337.5,31.5C 331.5,31.5 325.5,31.5 319.5,31.5C 319.5,26.5 319.5,21.5 319.5,16.5 Z"/></g>
<g><path style="opacity:1" fill="#95e0f9" d="M 185.5,16.5 C 196.5,16.5 207.5,16.5 218.5,16.5C 218.5,21.5 218.5,26.5 218.5,31.5C 212.5,31.5 206.5,31.5 200.5,31.5C 200.5,37.5 200.5,43.5 200.5,49.5C 195.5,49.5 190.5,49.5 185.5,49.5C 185.5,55.5 185.5,61.5 185.5,67.5C 179.5,67.5 173.5,67.5 167.5,67.5C 161.833,67.5 156.167,67.5 150.5,67.5C 150.5,55.8333 150.5,44.1667 150.5,32.5C 162.167,32.5 173.833,32.5 185.5,32.5C 185.5,27.1667 185.5,21.8333 185.5,16.5 Z"/></g>
<g><path style="opacity:1" fill="#69aee0" d="M 268.5,16.5 C 279.833,16.5 291.167,16.5 302.5,16.5C 302.5,21.5 302.5,26.5 302.5,31.5C 308.167,31.5 313.833,31.5 319.5,31.5C 324.975,32.4889 330.642,32.8222 336.5,32.5C 336.5,44.1667 336.5,55.8333 336.5,67.5C 342.5,67.5 348.5,67.5 354.5,67.5C 354.5,78.5 354.5,89.5 354.5,100.5C 348.833,100.5 343.167,100.5 337.5,100.5C 336.51,94.69 336.177,88.69 336.5,82.5C 330.833,82.5 325.167,82.5 319.5,82.5C 319.5,77.5 319.5,72.5 319.5,67.5C 313.833,67.5 308.167,67.5 302.5,67.5C 302.5,72.5 302.5,77.5 302.5,82.5C 302.167,82.5 301.833,82.5 301.5,82.5C 301.5,77.5 301.5,72.5 301.5,67.5C 290.833,67.5 280.167,67.5 269.5,67.5C 269.821,72.6946 269.487,77.6946 268.5,82.5C 268.5,77.5 268.5,72.5 268.5,67.5C 262.833,67.5 257.167,67.5 251.5,67.5C 246.5,67.5 241.5,67.5 236.5,67.5C 236.5,72.5 236.5,77.5 236.5,82.5C 230.5,82.5 224.5,82.5 218.5,82.5C 218.5,88.1667 218.5,93.8333 218.5,99.5C 212.5,99.5 206.5,99.5 200.5,99.5C 200.5,105.5 200.5,111.5 200.5,117.5C 195.5,117.5 190.5,117.5 185.5,117.5C 185.5,122.833 185.5,128.167 185.5,133.5C 179.5,133.5 173.5,133.5 167.5,133.5C 167.5,145.167 167.5,156.833 167.5,168.5C 173.5,168.5 179.5,168.5 185.5,168.5C 185.5,174.167 185.5,179.833 185.5,185.5C 202.167,185.5 218.833,185.5 235.5,185.5C 235.833,185.5 236.167,185.5 236.5,185.5C 241.5,185.5 246.5,185.5 251.5,185.5C 257.167,185.5 262.833,185.5 268.5,185.5C 268.833,185.5 269.167,185.5 269.5,185.5C 275.167,185.5 280.833,185.5 286.5,185.5C 291.5,185.5 296.5,185.5 301.5,185.5C 301.5,179.833 301.5,174.167 301.5,168.5C 301.833,168.5 302.167,168.5 302.5,168.5C 302.5,174.167 302.5,179.833 302.5,185.5C 308.167,185.5 313.833,185.5 319.5,185.5C 319.5,190.5 319.5,195.5 319.5,200.5C 313.31,200.177 307.31,200.51 301.5,201.5C 296.5,201.5 291.5,201.5 286.5,201.5C 286.5,207.167 286.5,212.833 286.5,218.5C 257.833,218.5 229.167,218.5 200.5,218.5C 195.5,218.5 190.5,218.5 185.5,218.5C 185.5,212.833 185.5,207.167 185.5,201.5C 179.5,201.5 173.5,201.5 167.5,201.5C 161.833,201.5 156.167,201.5 150.5,201.5C 145.5,201.5 140.5,201.5 135.5,201.5C 135.5,207.167 135.5,212.833 135.5,218.5C 129.5,218.5 123.5,218.5 117.5,218.5C 111.833,218.5 106.167,218.5 100.5,218.5C 99.5111,223.975 99.1778,229.642 99.5,235.5C 77.1667,235.5 54.8333,235.5 32.5,235.5C 32.8222,229.642 32.4889,223.975 31.5,218.5C 26.5,218.5 21.5,218.5 16.5,218.5C 16.5,212.833 16.5,207.167 16.5,201.5C 16.5,196.167 16.5,190.833 16.5,185.5C 21.8333,185.5 27.1667,185.5 32.5,185.5C 32.5,179.833 32.5,174.167 32.5,168.5C 38.1667,168.5 43.8333,168.5 49.5,168.5C 49.5,162.5 49.5,156.5 49.5,150.5C 55.1667,150.5 60.8333,150.5 66.5,150.5C 66.5,144.5 66.5,138.5 66.5,132.5C 54.8333,132.5 43.1667,132.5 31.5,132.5C 31.5,127.5 31.5,122.5 31.5,117.5C 43.5,117.5 55.5,117.5 67.5,117.5C 67.5,122.5 67.5,127.5 67.5,132.5C 67.5,138.5 67.5,144.5 67.5,150.5C 84.1667,150.5 100.833,150.5 117.5,150.5C 123.5,150.5 129.5,150.5 135.5,150.5C 135.5,144.5 135.5,138.5 135.5,132.5C 129.5,132.5 123.5,132.5 117.5,132.5C 117.5,127.5 117.5,122.5 117.5,117.5C 123.5,117.5 129.5,117.5 135.5,117.5C 135.5,105.833 135.5,94.1667 135.5,82.5C 140.5,82.5 145.5,82.5 150.5,82.5C 150.5,77.5 150.5,72.5 150.5,67.5C 156.167,67.5 161.833,67.5 167.5,67.5C 167.5,78.5 167.5,89.5 167.5,100.5C 173.5,100.5 179.5,100.5 185.5,100.5C 185.5,89.5 185.5,78.5 185.5,67.5C 190.5,67.5 195.5,67.5 200.5,67.5C 200.5,61.5 200.5,55.5 200.5,49.5C 200.5,43.5 200.5,37.5 200.5,31.5C 206.5,31.5 212.5,31.5 218.5,31.5C 218.5,31.8333 218.5,32.1667 218.5,32.5C 229.5,32.5 240.5,32.5 251.5,32.5C 251.5,27.1667 251.5,21.8333 251.5,16.5C 257.167,16.5 262.833,16.5 268.5,16.5 Z"/></g>
<g><path style="opacity:1" fill="#0b0c0b" d="M 337.5,31.5 C 343.167,31.5 348.833,31.5 354.5,31.5C 354.5,37.5 354.5,43.5 354.5,49.5C 348.833,49.5 343.167,49.5 337.5,49.5C 337.5,43.5 337.5,37.5 337.5,31.5 Z"/></g>
<g><path style="opacity:1" fill="#6aafe1" d="M 185.5,16.5 C 185.5,21.8333 185.5,27.1667 185.5,32.5C 173.833,32.5 162.167,32.5 150.5,32.5C 150.5,44.1667 150.5,55.8333 150.5,67.5C 145.5,67.5 140.5,67.5 135.5,67.5C 135.5,72.5 135.5,77.5 135.5,82.5C 134.512,77.3595 134.179,72.0262 134.5,66.5C 134.5,54.8333 134.5,43.1667 134.5,31.5C 139.833,31.5 145.167,31.5 150.5,31.5C 150.5,26.5 150.5,21.5 150.5,16.5C 162.167,16.5 173.833,16.5 185.5,16.5 Z"/></g>
<g><path style="opacity:1" fill="#255783" d="M 218.5,32.5 C 218.5,38.1667 218.5,43.8333 218.5,49.5C 212.833,49.5 207.167,49.5 201.5,49.5C 201.5,43.8333 201.5,38.1667 201.5,32.5C 207.167,32.5 212.833,32.5 218.5,32.5 Z"/></g>
<g><path style="opacity:1" fill="#265884" d="M 200.5,49.5 C 200.5,55.5 200.5,61.5 200.5,67.5C 195.5,67.5 190.5,67.5 185.5,67.5C 185.5,61.5 185.5,55.5 185.5,49.5C 190.5,49.5 195.5,49.5 200.5,49.5 Z"/></g>
<g><path style="opacity:1" fill="#2c83c1" d="M 268.5,49.5 C 279.5,49.5 290.5,49.5 301.5,49.5C 301.5,55.1667 301.5,60.8333 301.5,66.5C 290.5,66.5 279.5,66.5 268.5,66.5C 268.5,60.8333 268.5,55.1667 268.5,49.5 Z"/></g>
<g><path style="opacity:1" fill="#285983" d="M 319.5,31.5 C 325.5,31.5 331.5,31.5 337.5,31.5C 337.5,37.5 337.5,43.5 337.5,49.5C 343.167,49.5 348.833,49.5 354.5,49.5C 354.5,55.1667 354.5,60.8333 354.5,66.5C 354.5,66.8333 354.5,67.1667 354.5,67.5C 348.5,67.5 342.5,67.5 336.5,67.5C 336.5,55.8333 336.5,44.1667 336.5,32.5C 330.642,32.8222 324.975,32.4889 319.5,31.5 Z"/></g>
<g><path style="opacity:1" fill="#0c0c0d" d="M 354.5,66.5 C 359.833,66.5 365.167,66.5 370.5,66.5C 370.5,71.8333 370.5,77.1667 370.5,82.5C 369.51,88.31 369.177,94.31 369.5,100.5C 364.5,100.5 359.5,100.5 354.5,100.5C 354.5,89.5 354.5,78.5 354.5,67.5C 354.5,67.1667 354.5,66.8333 354.5,66.5 Z"/></g>
<g><path style="opacity:1" fill="#2c83c1" d="M 134.5,66.5 C 134.179,72.0262 134.512,77.3595 135.5,82.5C 135.5,94.1667 135.5,105.833 135.5,117.5C 129.5,117.5 123.5,117.5 117.5,117.5C 117.5,100.5 117.5,83.5 117.5,66.5C 123.167,66.5 128.833,66.5 134.5,66.5 Z"/></g>
<g><path style="opacity:1" fill="#96e1f9" d="M 150.5,67.5 C 150.5,72.5 150.5,77.5 150.5,82.5C 145.5,82.5 140.5,82.5 135.5,82.5C 135.5,77.5 135.5,72.5 135.5,67.5C 140.5,67.5 145.5,67.5 150.5,67.5 Z"/></g>
<g><path style="opacity:1" fill="#275a86" d="M 167.5,67.5 C 173.5,67.5 179.5,67.5 185.5,67.5C 185.5,78.5 185.5,89.5 185.5,100.5C 179.5,100.5 173.5,100.5 167.5,100.5C 167.5,89.5 167.5,78.5 167.5,67.5 Z"/></g>
<g><path style="opacity:1" fill="#255783" d="M 251.5,67.5 C 251.5,72.5 251.5,77.5 251.5,82.5C 250.511,87.9753 250.178,93.642 250.5,99.5C 245.5,99.5 240.5,99.5 235.5,99.5C 235.5,105.5 235.5,111.5 235.5,117.5C 229.833,117.5 224.167,117.5 218.5,117.5C 218.5,134.5 218.5,151.5 218.5,168.5C 207.5,168.5 196.5,168.5 185.5,168.5C 179.5,168.5 173.5,168.5 167.5,168.5C 167.5,156.833 167.5,145.167 167.5,133.5C 173.5,133.5 179.5,133.5 185.5,133.5C 185.5,128.167 185.5,122.833 185.5,117.5C 190.5,117.5 195.5,117.5 200.5,117.5C 200.5,111.5 200.5,105.5 200.5,99.5C 206.5,99.5 212.5,99.5 218.5,99.5C 218.5,93.8333 218.5,88.1667 218.5,82.5C 224.5,82.5 230.5,82.5 236.5,82.5C 236.5,77.5 236.5,72.5 236.5,67.5C 241.5,67.5 246.5,67.5 251.5,67.5 Z"/></g>
<g><path style="opacity:1" fill="#2b83c1" d="M 251.5,67.5 C 257.167,67.5 262.833,67.5 268.5,67.5C 268.5,72.5 268.5,77.5 268.5,82.5C 262.833,82.5 257.167,82.5 251.5,82.5C 251.5,77.5 251.5,72.5 251.5,67.5 Z"/></g>
<g><path style="opacity:1" fill="#f9f8f8" d="M 301.5,82.5 C 301.5,88.5 301.5,94.5 301.5,100.5C 307.5,100.5 313.5,100.5 319.5,100.5C 319.5,117.167 319.5,133.833 319.5,150.5C 313.5,150.5 307.5,150.5 301.5,150.5C 301.5,156.5 301.5,162.5 301.5,168.5C 301.5,174.167 301.5,179.833 301.5,185.5C 296.5,185.5 291.5,185.5 286.5,185.5C 286.5,179.833 286.5,174.167 286.5,168.5C 286.5,156.5 286.5,144.5 286.5,132.5C 286.5,127.5 286.5,122.5 286.5,117.5C 280.833,117.5 275.167,117.5 269.5,117.5C 268.511,112.025 268.178,106.358 268.5,100.5C 262.833,100.5 257.167,100.5 251.5,100.5C 251.5,94.5 251.5,88.5 251.5,82.5C 257.167,82.5 262.833,82.5 268.5,82.5C 269.487,77.6946 269.821,72.6946 269.5,67.5C 280.167,67.5 290.833,67.5 301.5,67.5C 301.5,72.5 301.5,77.5 301.5,82.5 Z"/></g>
<g><path style="opacity:1" fill="#2b83c1" d="M 319.5,82.5 C 313.833,82.5 308.167,82.5 302.5,82.5C 302.5,77.5 302.5,72.5 302.5,67.5C 308.167,67.5 313.833,67.5 319.5,67.5C 319.5,72.5 319.5,77.5 319.5,82.5 Z"/></g>
<g><path style="opacity:1" fill="#761301" d="M 370.5,82.5 C 398.833,82.5 427.167,82.5 455.5,82.5C 455.5,94.5 455.5,106.5 455.5,118.5C 449.833,118.5 444.167,118.5 438.5,118.5C 438.5,129.5 438.5,140.5 438.5,151.5C 432.5,151.5 426.5,151.5 420.5,151.5C 420.5,162.833 420.5,174.167 420.5,185.5C 415.5,185.5 410.5,185.5 405.5,185.5C 405.5,196.5 405.5,207.5 405.5,218.5C 405.167,218.5 404.833,218.5 404.5,218.5C 404.5,212.833 404.5,207.167 404.5,201.5C 404.5,190.5 404.5,179.5 404.5,168.5C 398.833,168.5 393.167,168.5 387.5,168.5C 387.5,168.167 387.5,167.833 387.5,167.5C 393.167,167.5 398.833,167.5 404.5,167.5C 404.5,161.833 404.5,156.167 404.5,150.5C 409.833,150.5 415.167,150.5 420.5,150.5C 420.5,139.5 420.5,128.5 420.5,117.5C 426.167,117.5 431.833,117.5 437.5,117.5C 437.5,111.833 437.5,106.167 437.5,100.5C 415.167,100.5 392.833,100.5 370.5,100.5C 370.5,106.167 370.5,111.833 370.5,117.5C 370.167,117.5 369.833,117.5 369.5,117.5C 369.5,111.833 369.5,106.167 369.5,100.5C 369.177,94.31 369.51,88.31 370.5,82.5 Z"/></g>
<g><path style="opacity:1" fill="#b5b0b7" d="M 301.5,82.5 C 301.833,82.5 302.167,82.5 302.5,82.5C 308.167,82.5 313.833,82.5 319.5,82.5C 319.5,88.5 319.5,94.5 319.5,100.5C 313.5,100.5 307.5,100.5 301.5,100.5C 301.5,94.5 301.5,88.5 301.5,82.5 Z"/></g>
<g><path style="opacity:1" fill="#255783" d="M 319.5,82.5 C 325.167,82.5 330.833,82.5 336.5,82.5C 336.177,88.69 336.51,94.69 337.5,100.5C 337.5,106.167 337.5,111.833 337.5,117.5C 343.167,117.5 348.833,117.5 354.5,117.5C 354.5,128.5 354.5,139.5 354.5,150.5C 348.833,150.5 343.167,150.5 337.5,150.5C 336.511,155.975 336.178,161.642 336.5,167.5C 330.833,167.5 325.167,167.5 319.5,167.5C 319.5,161.833 319.5,156.167 319.5,150.5C 319.5,133.833 319.5,117.167 319.5,100.5C 319.5,94.5 319.5,88.5 319.5,82.5 Z"/></g>
<g><path style="opacity:1" fill="#6b6a7a" d="M 251.5,82.5 C 251.5,88.5 251.5,94.5 251.5,100.5C 246.5,100.5 241.5,100.5 236.5,100.5C 236.5,106.167 236.5,111.833 236.5,117.5C 236.5,122.833 236.5,128.167 236.5,133.5C 236.5,145.167 236.5,156.833 236.5,168.5C 236.5,174.167 236.5,179.833 236.5,185.5C 236.167,185.5 235.833,185.5 235.5,185.5C 235.5,162.833 235.5,140.167 235.5,117.5C 235.5,111.5 235.5,105.5 235.5,99.5C 240.5,99.5 245.5,99.5 250.5,99.5C 250.178,93.642 250.511,87.9753 251.5,82.5 Z"/></g>
<g><path style="opacity:1" fill="#b5adb3" d="M 251.5,100.5 C 251.5,106.167 251.5,111.833 251.5,117.5C 246.5,117.5 241.5,117.5 236.5,117.5C 236.5,111.833 236.5,106.167 236.5,100.5C 241.5,100.5 246.5,100.5 251.5,100.5 Z"/></g>
<g><path style="opacity:1" fill="#bb1b26" d="M 251.5,100.5 C 257.167,100.5 262.833,100.5 268.5,100.5C 268.178,106.358 268.511,112.025 269.5,117.5C 269.5,122.5 269.5,127.5 269.5,132.5C 263.5,132.5 257.5,132.5 251.5,132.5C 251.5,127.5 251.5,122.5 251.5,117.5C 251.5,111.833 251.5,106.167 251.5,100.5 Z"/></g>
<g><path style="opacity:1" fill="#2b83c1" d="M 337.5,100.5 C 343.167,100.5 348.833,100.5 354.5,100.5C 354.5,106.167 354.5,111.833 354.5,117.5C 348.833,117.5 343.167,117.5 337.5,117.5C 337.5,111.833 337.5,106.167 337.5,100.5 Z"/></g>
<g><path style="opacity:1" fill="#255783" d="M 354.5,100.5 C 359.5,100.5 364.5,100.5 369.5,100.5C 369.5,106.167 369.5,111.833 369.5,117.5C 364.5,117.5 359.5,117.5 354.5,117.5C 354.5,111.833 354.5,106.167 354.5,100.5 Z"/></g>
<g><path style="opacity:1" fill="#c73d1e" d="M 387.5,167.5 C 387.5,161.833 387.5,156.167 387.5,150.5C 387.5,139.5 387.5,128.5 387.5,117.5C 381.833,117.5 376.167,117.5 370.5,117.5C 370.5,111.833 370.5,106.167 370.5,100.5C 392.833,100.5 415.167,100.5 437.5,100.5C 437.5,106.167 437.5,111.833 437.5,117.5C 431.833,117.5 426.167,117.5 420.5,117.5C 420.5,128.5 420.5,139.5 420.5,150.5C 415.167,150.5 409.833,150.5 404.5,150.5C 404.5,156.167 404.5,161.833 404.5,167.5C 398.833,167.5 393.167,167.5 387.5,167.5 Z"/></g>
<g><path style="opacity:1" fill="#255782" d="M 117.5,117.5 C 117.5,122.5 117.5,127.5 117.5,132.5C 117.5,138.5 117.5,144.5 117.5,150.5C 100.833,150.5 84.1667,150.5 67.5,150.5C 67.5,144.5 67.5,138.5 67.5,132.5C 78.1667,132.5 88.8333,132.5 99.5,132.5C 99.5,127.5 99.5,122.5 99.5,117.5C 105.5,117.5 111.5,117.5 117.5,117.5 Z"/></g>
<g><path style="opacity:1" fill="#0c0c0c" d="M 235.5,117.5 C 235.5,140.167 235.5,162.833 235.5,185.5C 218.833,185.5 202.167,185.5 185.5,185.5C 185.5,179.833 185.5,174.167 185.5,168.5C 196.5,168.5 207.5,168.5 218.5,168.5C 218.5,151.5 218.5,134.5 218.5,117.5C 224.167,117.5 229.833,117.5 235.5,117.5 Z"/></g>
<g><path style="opacity:1" fill="#f7f3f3" d="M 236.5,117.5 C 241.5,117.5 246.5,117.5 251.5,117.5C 251.5,122.5 251.5,127.5 251.5,132.5C 251.5,132.833 251.5,133.167 251.5,133.5C 246.5,133.5 241.5,133.5 236.5,133.5C 236.5,128.167 236.5,122.833 236.5,117.5 Z"/></g>
<g><path style="opacity:1" fill="#e17e77" d="M 269.5,117.5 C 275.167,117.5 280.833,117.5 286.5,117.5C 286.5,122.5 286.5,127.5 286.5,132.5C 280.833,132.5 275.167,132.5 269.5,132.5C 269.5,127.5 269.5,122.5 269.5,117.5 Z"/></g>
<g><path style="opacity:1" fill="#69aee0" d="M 354.5,117.5 C 359.5,117.5 364.5,117.5 369.5,117.5C 369.5,134.5 369.5,151.5 369.5,168.5C 375.5,168.5 381.5,168.5 387.5,168.5C 387.5,179.5 387.5,190.5 387.5,201.5C 387.5,207.167 387.5,212.833 387.5,218.5C 393.167,218.5 398.833,218.5 404.5,218.5C 404.5,235.5 404.5,252.5 404.5,269.5C 398.833,269.5 393.167,269.5 387.5,269.5C 381.69,268.51 375.69,268.177 369.5,268.5C 369.5,274.5 369.5,280.5 369.5,286.5C 364.5,286.5 359.5,286.5 354.5,286.5C 354.5,280.833 354.5,275.167 354.5,269.5C 354.5,263.5 354.5,257.5 354.5,251.5C 348.5,251.5 342.5,251.5 336.5,251.5C 336.5,268.167 336.5,284.833 336.5,301.5C 336.5,301.833 336.5,302.167 336.5,302.5C 330.833,302.5 325.167,302.5 319.5,302.5C 319.5,313.833 319.5,325.167 319.5,336.5C 313.5,336.5 307.5,336.5 301.5,336.5C 301.5,341.833 301.5,347.167 301.5,352.5C 296.5,352.5 291.5,352.5 286.5,352.5C 286.5,358.167 286.5,363.833 286.5,369.5C 257.833,369.5 229.167,369.5 200.5,369.5C 200.5,363.833 200.5,358.167 200.5,352.5C 217.5,352.5 234.5,352.5 251.5,352.5C 257.167,352.5 262.833,352.5 268.5,352.5C 268.5,347.5 268.5,342.5 268.5,337.5C 268.833,337.5 269.167,337.5 269.5,337.5C 275.167,337.5 280.833,337.5 286.5,337.5C 286.5,331.5 286.5,325.5 286.5,319.5C 286.5,313.833 286.5,308.167 286.5,302.5C 280.833,302.5 275.167,302.5 269.5,302.5C 269.5,302.167 269.5,301.833 269.5,301.5C 275.167,301.5 280.833,301.5 286.5,301.5C 291.5,301.5 296.5,301.5 301.5,301.5C 301.5,284.833 301.5,268.167 301.5,251.5C 307.5,251.5 313.5,251.5 319.5,251.5C 319.5,234.833 319.5,218.167 319.5,201.5C 325.5,201.5 331.5,201.5 337.5,201.5C 337.5,196.167 337.5,190.833 337.5,185.5C 331.5,185.5 325.5,185.5 319.5,185.5C 319.5,179.833 319.5,174.167 319.5,168.5C 325.5,168.5 331.5,168.5 337.5,168.5C 337.5,162.5 337.5,156.5 337.5,150.5C 343.167,150.5 348.833,150.5 354.5,150.5C 354.5,139.5 354.5,128.5 354.5,117.5 Z"/></g>
<g><path style="opacity:1" fill="#0e0c0c" d="M 370.5,117.5 C 376.167,117.5 381.833,117.5 387.5,117.5C 387.5,128.5 387.5,139.5 387.5,150.5C 381.833,150.5 376.167,150.5 370.5,150.5C 370.5,139.5 370.5,128.5 370.5,117.5 Z"/></g>
<g><path style="opacity:1" fill="#69afe0" d="M 31.5,132.5 C 31.5,138.5 31.5,144.5 31.5,150.5C 26.5,150.5 21.5,150.5 16.5,150.5C 16.5,144.5 16.5,138.5 16.5,132.5C 21.5,132.5 26.5,132.5 31.5,132.5 Z"/></g>
<g><path style="opacity:1" fill="#94dff9" d="M 31.5,132.5 C 43.1667,132.5 54.8333,132.5 66.5,132.5C 66.5,138.5 66.5,144.5 66.5,150.5C 60.8333,150.5 55.1667,150.5 49.5,150.5C 49.5,156.5 49.5,162.5 49.5,168.5C 43.8333,168.5 38.1667,168.5 32.5,168.5C 32.5,174.167 32.5,179.833 32.5,185.5C 27.1667,185.5 21.8333,185.5 16.5,185.5C 16.5,179.833 16.5,174.167 16.5,168.5C 16.5,162.5 16.5,156.5 16.5,150.5C 21.5,150.5 26.5,150.5 31.5,150.5C 31.5,144.5 31.5,138.5 31.5,132.5 Z"/></g>
<g><path style="opacity:1" fill="#2e84c2" d="M 117.5,132.5 C 123.5,132.5 129.5,132.5 135.5,132.5C 135.5,138.5 135.5,144.5 135.5,150.5C 129.5,150.5 123.5,150.5 117.5,150.5C 117.5,144.5 117.5,138.5 117.5,132.5 Z"/></g>
<g><path style="opacity:1" fill="#df7c75" d="M 236.5,133.5 C 241.5,133.5 246.5,133.5 251.5,133.5C 251.5,145.167 251.5,156.833 251.5,168.5C 246.5,168.5 241.5,168.5 236.5,168.5C 236.5,156.833 236.5,145.167 236.5,133.5 Z"/></g>
<g><path style="opacity:1" fill="#0b0c0b" d="M 251.5,133.5 C 257.167,133.5 262.833,133.5 268.5,133.5C 268.5,150.833 268.5,168.167 268.5,185.5C 262.833,185.5 257.167,185.5 251.5,185.5C 251.5,179.833 251.5,174.167 251.5,168.5C 251.5,156.833 251.5,145.167 251.5,133.5 Z"/></g>
<g><path style="opacity:1" fill="#681e21" d="M 251.5,133.5 C 251.5,133.167 251.5,132.833 251.5,132.5C 257.5,132.5 263.5,132.5 269.5,132.5C 269.5,144.5 269.5,156.5 269.5,168.5C 269.5,174.167 269.5,179.833 269.5,185.5C 269.167,185.5 268.833,185.5 268.5,185.5C 268.5,168.167 268.5,150.833 268.5,133.5C 262.833,133.5 257.167,133.5 251.5,133.5 Z"/></g>
<g><path style="opacity:1" fill="#bb1c26" d="M 269.5,132.5 C 275.167,132.5 280.833,132.5 286.5,132.5C 286.5,144.5 286.5,156.5 286.5,168.5C 280.833,168.5 275.167,168.5 269.5,168.5C 269.5,156.5 269.5,144.5 269.5,132.5 Z"/></g>
<g><path style="opacity:1" fill="#2b81bf" d="M -0.5,150.5 C 5.16667,150.5 10.8333,150.5 16.5,150.5C 16.5,156.5 16.5,162.5 16.5,168.5C 10.8333,168.5 5.16667,168.5 -0.5,168.5C -0.5,162.5 -0.5,156.5 -0.5,150.5 Z"/></g>
<g><path style="opacity:1" fill="#b5b0b6" d="M 319.5,150.5 C 319.5,156.167 319.5,161.833 319.5,167.5C 313.642,167.178 307.975,167.511 302.5,168.5C 302.167,168.5 301.833,168.5 301.5,168.5C 301.5,162.5 301.5,156.5 301.5,150.5C 307.5,150.5 313.5,150.5 319.5,150.5 Z"/></g>
<g><path style="opacity:1" fill="#295881" d="M 369.5,117.5 C 369.833,117.5 370.167,117.5 370.5,117.5C 370.5,128.5 370.5,139.5 370.5,150.5C 376.167,150.5 381.833,150.5 387.5,150.5C 387.5,156.167 387.5,161.833 387.5,167.5C 387.5,167.833 387.5,168.167 387.5,168.5C 381.5,168.5 375.5,168.5 369.5,168.5C 369.5,151.5 369.5,134.5 369.5,117.5 Z"/></g>
<g><path style="opacity:1" fill="#245681" d="M -0.5,168.5 C 5.16667,168.5 10.8333,168.5 16.5,168.5C 16.5,174.167 16.5,179.833 16.5,185.5C 16.5,190.833 16.5,196.167 16.5,201.5C 10.8333,201.5 5.16667,201.5 -0.5,201.5C -0.5,190.5 -0.5,179.5 -0.5,168.5 Z"/></g>
<g><path style="opacity:1" fill="#b3adb3" d="M 236.5,168.5 C 241.5,168.5 246.5,168.5 251.5,168.5C 251.5,174.167 251.5,179.833 251.5,185.5C 246.5,185.5 241.5,185.5 236.5,185.5C 236.5,179.833 236.5,174.167 236.5,168.5 Z"/></g>
<g><path style="opacity:1" fill="#e07d75" d="M 269.5,168.5 C 275.167,168.5 280.833,168.5 286.5,168.5C 286.5,174.167 286.5,179.833 286.5,185.5C 280.833,185.5 275.167,185.5 269.5,185.5C 269.5,179.833 269.5,174.167 269.5,168.5 Z"/></g>
<g><path style="opacity:1" fill="#3383be" d="M 337.5,150.5 C 337.5,156.5 337.5,162.5 337.5,168.5C 331.5,168.5 325.5,168.5 319.5,168.5C 319.5,174.167 319.5,179.833 319.5,185.5C 313.833,185.5 308.167,185.5 302.5,185.5C 302.5,179.833 302.5,174.167 302.5,168.5C 307.975,167.511 313.642,167.178 319.5,167.5C 325.167,167.5 330.833,167.5 336.5,167.5C 336.178,161.642 336.511,155.975 337.5,150.5 Z"/></g>
<g><path style="opacity:1" fill="#0c0d0d" d="M 387.5,168.5 C 393.167,168.5 398.833,168.5 404.5,168.5C 404.5,179.5 404.5,190.5 404.5,201.5C 398.833,201.5 393.167,201.5 387.5,201.5C 387.5,190.5 387.5,179.5 387.5,168.5 Z"/></g>
<g><path style="opacity:1" fill="#2e84c1" d="M 66.5,218.5 C 66.5,212.833 66.5,207.167 66.5,201.5C 60.8333,201.5 55.1667,201.5 49.5,201.5C 49.5,196.167 49.5,190.833 49.5,185.5C 66.5,185.5 83.5,185.5 100.5,185.5C 100.5,190.833 100.5,196.167 100.5,201.5C 89.5,201.5 78.5,201.5 67.5,201.5C 67.8222,207.358 67.4889,213.025 66.5,218.5 Z"/></g>
<g><path style="opacity:1" fill="#2a5c88" d="M 319.5,185.5 C 325.5,185.5 331.5,185.5 337.5,185.5C 337.5,190.833 337.5,196.167 337.5,201.5C 331.5,201.5 325.5,201.5 319.5,201.5C 313.5,201.5 307.5,201.5 301.5,201.5C 307.31,200.51 313.31,200.177 319.5,200.5C 319.5,195.5 319.5,190.5 319.5,185.5 Z"/></g>
<g><path style="opacity:1" fill="#c63d1e" d="M 420.5,185.5 C 420.5,190.833 420.5,196.167 420.5,201.5C 432.167,201.5 443.833,201.5 455.5,201.5C 455.5,207.167 455.5,212.833 455.5,218.5C 460.5,218.5 465.5,218.5 470.5,218.5C 470.5,224.167 470.5,229.833 470.5,235.5C 470.5,235.833 470.5,236.167 470.5,236.5C 465.5,236.5 460.5,236.5 455.5,236.5C 443.833,236.5 432.167,236.5 420.5,236.5C 420.5,230.5 420.5,224.5 420.5,218.5C 415.5,218.5 410.5,218.5 405.5,218.5C 405.5,207.5 405.5,196.5 405.5,185.5C 410.5,185.5 415.5,185.5 420.5,185.5 Z"/></g>
<g><path style="opacity:1" fill="#751200" d="M 420.5,185.5 C 432.167,185.5 443.833,185.5 455.5,185.5C 455.5,190.5 455.5,195.5 455.5,200.5C 466.5,200.5 477.5,200.5 488.5,200.5C 488.5,206.5 488.5,212.5 488.5,218.5C 482.833,218.5 477.167,218.5 471.5,218.5C 471.5,224.167 471.5,229.833 471.5,235.5C 471.167,235.5 470.833,235.5 470.5,235.5C 470.5,229.833 470.5,224.167 470.5,218.5C 465.5,218.5 460.5,218.5 455.5,218.5C 455.5,212.833 455.5,207.167 455.5,201.5C 443.833,201.5 432.167,201.5 420.5,201.5C 420.5,196.167 420.5,190.833 420.5,185.5 Z"/></g>
<g><path style="opacity:1" fill="#255783" d="M 49.5,201.5 C 55.1667,201.5 60.8333,201.5 66.5,201.5C 66.5,207.167 66.5,212.833 66.5,218.5C 60.8333,218.5 55.1667,218.5 49.5,218.5C 49.5,212.833 49.5,207.167 49.5,201.5 Z"/></g>
<g><path style="opacity:1" fill="#255782" d="M 150.5,201.5 C 150.5,207.5 150.5,213.5 150.5,219.5C 145.5,219.5 140.5,219.5 135.5,219.5C 135.5,219.167 135.5,218.833 135.5,218.5C 135.5,212.833 135.5,207.167 135.5,201.5C 140.5,201.5 145.5,201.5 150.5,201.5 Z"/></g>
<g><path style="opacity:1" fill="#0b0c0b" d="M 150.5,201.5 C 156.167,201.5 161.833,201.5 167.5,201.5C 167.5,207.5 167.5,213.5 167.5,219.5C 161.833,219.5 156.167,219.5 150.5,219.5C 150.5,213.5 150.5,207.5 150.5,201.5 Z"/></g>
<g><path style="opacity:1" fill="#255783" d="M 301.5,201.5 C 301.5,207.167 301.5,212.833 301.5,218.5C 296.5,218.5 291.5,218.5 286.5,218.5C 286.5,212.833 286.5,207.167 286.5,201.5C 291.5,201.5 296.5,201.5 301.5,201.5 Z"/></g>
<g><path style="opacity:1" fill="#0e0c0d" d="M 301.5,201.5 C 307.5,201.5 313.5,201.5 319.5,201.5C 319.5,218.167 319.5,234.833 319.5,251.5C 313.5,251.5 307.5,251.5 301.5,251.5C 301.5,246.5 301.5,241.5 301.5,236.5C 296.5,236.5 291.5,236.5 286.5,236.5C 269.833,236.5 253.167,236.5 236.5,236.5C 230.5,236.5 224.5,236.5 218.5,236.5C 213.025,235.511 207.358,235.178 201.5,235.5C 201.5,230.167 201.5,224.833 201.5,219.5C 235.004,219.832 268.338,219.498 301.5,218.5C 301.5,212.833 301.5,207.167 301.5,201.5 Z"/></g>
<g><path style="opacity:1" fill="#255783" d="M 387.5,201.5 C 393.167,201.5 398.833,201.5 404.5,201.5C 404.5,207.167 404.5,212.833 404.5,218.5C 398.833,218.5 393.167,218.5 387.5,218.5C 387.5,212.833 387.5,207.167 387.5,201.5 Z"/></g>
<g><path style="opacity:1" fill="#1c2128" d="M 200.5,218.5 C 229.167,218.5 257.833,218.5 286.5,218.5C 291.5,218.5 296.5,218.5 301.5,218.5C 268.338,219.498 235.004,219.832 201.5,219.5C 201.5,224.833 201.5,230.167 201.5,235.5C 207.358,235.178 213.025,235.511 218.5,236.5C 212.5,236.5 206.5,236.5 200.5,236.5C 200.5,230.5 200.5,224.5 200.5,218.5 Z"/></g>
<g><path style="opacity:1" fill="#265782" d="M 488.5,218.5 C 499.5,218.5 510.5,218.5 521.5,218.5C 521.5,224.167 521.5,229.833 521.5,235.5C 521.5,235.833 521.5,236.167 521.5,236.5C 516.167,236.5 510.833,236.5 505.5,236.5C 505.5,241.5 505.5,246.5 505.5,251.5C 499.833,251.5 494.167,251.5 488.5,251.5C 488.5,246.5 488.5,241.5 488.5,236.5C 482.833,236.5 477.167,236.5 471.5,236.5C 471.167,236.5 470.833,236.5 470.5,236.5C 470.5,236.167 470.5,235.833 470.5,235.5C 470.833,235.5 471.167,235.5 471.5,235.5C 477.167,235.5 482.833,235.5 488.5,235.5C 488.5,229.833 488.5,224.167 488.5,218.5 Z"/></g>
<g><path style="opacity:1" fill="#0f0f0f" d="M -0.5,201.5 C 5.16667,201.5 10.8333,201.5 16.5,201.5C 16.5,207.167 16.5,212.833 16.5,218.5C 21.5,218.5 26.5,218.5 31.5,218.5C 31.5,224.5 31.5,230.5 31.5,236.5C 26.5,236.5 21.5,236.5 16.5,236.5C 16.5,230.833 16.5,225.167 16.5,219.5C 10.8333,219.5 5.16667,219.5 -0.5,219.5C -0.5,213.5 -0.5,207.5 -0.5,201.5 Z"/></g>
<g><path style="opacity:1" fill="#255783" d="M 100.5,218.5 C 106.167,218.5 111.833,218.5 117.5,218.5C 117.5,224.167 117.5,229.833 117.5,235.5C 111.833,235.5 106.167,235.5 100.5,235.5C 100.5,229.833 100.5,224.167 100.5,218.5 Z"/></g>
<g><path style="opacity:1" fill="#0c0d0d" d="M 117.5,218.5 C 123.5,218.5 129.5,218.5 135.5,218.5C 135.5,218.833 135.5,219.167 135.5,219.5C 135.5,236.167 135.5,252.833 135.5,269.5C 129.5,269.5 123.5,269.5 117.5,269.5C 111.5,269.5 105.5,269.5 99.5,269.5C 99.5,263.5 99.5,257.5 99.5,251.5C 99.8333,251.5 100.167,251.5 100.5,251.5C 106.167,251.5 111.833,251.5 117.5,251.5C 117.5,246.5 117.5,241.5 117.5,236.5C 117.5,236.167 117.5,235.833 117.5,235.5C 117.5,229.833 117.5,224.167 117.5,218.5 Z"/></g>
<g><path style="opacity:1" fill="#245580" d="M 167.5,201.5 C 173.5,201.5 179.5,201.5 185.5,201.5C 185.5,207.167 185.5,212.833 185.5,218.5C 190.5,218.5 195.5,218.5 200.5,218.5C 200.5,224.5 200.5,230.5 200.5,236.5C 195.5,236.5 190.5,236.5 185.5,236.5C 185.5,230.833 185.5,225.167 185.5,219.5C 179.5,219.5 173.5,219.5 167.5,219.5C 167.5,213.5 167.5,207.5 167.5,201.5 Z"/></g>
<g><path style="opacity:1" fill="#0d0c0c" d="M 405.5,218.5 C 410.5,218.5 415.5,218.5 420.5,218.5C 420.5,224.5 420.5,230.5 420.5,236.5C 432.167,236.5 443.833,236.5 455.5,236.5C 455.5,241.5 455.5,246.5 455.5,251.5C 443.833,251.5 432.167,251.5 420.5,251.5C 415.5,251.5 410.5,251.5 405.5,251.5C 405.5,240.5 405.5,229.5 405.5,218.5 Z"/></g>
<g><path style="opacity:1" fill="#0d0c0c" d="M 488.5,218.5 C 488.5,224.167 488.5,229.833 488.5,235.5C 482.833,235.5 477.167,235.5 471.5,235.5C 471.5,229.833 471.5,224.167 471.5,218.5C 477.167,218.5 482.833,218.5 488.5,218.5 Z"/></g>
<g><path style="opacity:1" fill="#5b819e" d="M 31.5,218.5 C 32.4889,223.975 32.8222,229.642 32.5,235.5C 54.8333,235.5 77.1667,235.5 99.5,235.5C 99.1778,229.642 99.5111,223.975 100.5,218.5C 100.5,224.167 100.5,229.833 100.5,235.5C 106.167,235.5 111.833,235.5 117.5,235.5C 117.5,235.833 117.5,236.167 117.5,236.5C 111.833,236.5 106.167,236.5 100.5,236.5C 100.5,241.5 100.5,246.5 100.5,251.5C 100.167,251.5 99.8333,251.5 99.5,251.5C 99.5,246.5 99.5,241.5 99.5,236.5C 77.1667,236.5 54.8333,236.5 32.5,236.5C 32.5,241.5 32.5,246.5 32.5,251.5C 32.1667,251.5 31.8333,251.5 31.5,251.5C 31.5,246.5 31.5,241.5 31.5,236.5C 31.5,230.5 31.5,224.5 31.5,218.5 Z"/></g>
<g><path style="opacity:1" fill="#0c0c0c" d="M 521.5,235.5 C 527.5,235.5 533.5,235.5 539.5,235.5C 539.5,252.833 539.5,270.167 539.5,287.5C 533.5,287.5 527.5,287.5 521.5,287.5C 521.5,292.5 521.5,297.5 521.5,302.5C 516.5,302.5 511.5,302.5 506.5,302.5C 506.5,297.167 506.5,291.833 506.5,286.5C 511.5,286.5 516.5,286.5 521.5,286.5C 521.5,280.833 521.5,275.167 521.5,269.5C 521.5,269.167 521.5,268.833 521.5,268.5C 521.5,262.833 521.5,257.167 521.5,251.5C 521.5,246.5 521.5,241.5 521.5,236.5C 521.5,236.167 521.5,235.833 521.5,235.5 Z"/></g>
<g><path style="opacity:1" fill="#f9faf9" d="M 16.5,236.5 C 21.5,236.5 26.5,236.5 31.5,236.5C 31.5,241.5 31.5,246.5 31.5,251.5C 26.5,251.5 21.5,251.5 16.5,251.5C 16.5,246.5 16.5,241.5 16.5,236.5 Z"/></g>
<g><path style="opacity:1" fill="#0b0c0b" d="M 99.5,251.5 C 77.1667,251.5 54.8333,251.5 32.5,251.5C 32.5,246.5 32.5,241.5 32.5,236.5C 54.8333,236.5 77.1667,236.5 99.5,236.5C 99.5,241.5 99.5,246.5 99.5,251.5 Z"/></g>
<g><path style="opacity:1" fill="#f9faf9" d="M 117.5,236.5 C 117.5,241.5 117.5,246.5 117.5,251.5C 111.833,251.5 106.167,251.5 100.5,251.5C 100.5,246.5 100.5,241.5 100.5,236.5C 106.167,236.5 111.833,236.5 117.5,236.5 Z"/></g>
<g><path style="opacity:1" fill="#b1abb1" d="M 200.5,236.5 C 206.5,236.5 212.5,236.5 218.5,236.5C 218.5,241.5 218.5,246.5 218.5,251.5C 212.833,251.5 207.167,251.5 201.5,251.5C 201.167,251.5 200.833,251.5 200.5,251.5C 200.5,246.5 200.5,241.5 200.5,236.5 Z"/></g>
<g><path style="opacity:1" fill="#771201" d="M 218.5,236.5 C 224.5,236.5 230.5,236.5 236.5,236.5C 236.5,241.5 236.5,246.5 236.5,251.5C 230.5,251.5 224.5,251.5 218.5,251.5C 218.5,246.5 218.5,241.5 218.5,236.5 Z"/></g>
<g><path style="opacity:1" fill="#bb1925" d="M 236.5,236.5 C 253.167,236.5 269.833,236.5 286.5,236.5C 286.5,241.5 286.5,246.5 286.5,251.5C 280.833,251.5 275.167,251.5 269.5,251.5C 268.51,257.31 268.177,263.31 268.5,269.5C 251.833,269.5 235.167,269.5 218.5,269.5C 218.5,275.167 218.5,280.833 218.5,286.5C 212.833,286.5 207.167,286.5 201.5,286.5C 201.5,274.833 201.5,263.167 201.5,251.5C 207.167,251.5 212.833,251.5 218.5,251.5C 224.5,251.5 230.5,251.5 236.5,251.5C 236.5,246.5 236.5,241.5 236.5,236.5 Z"/></g>
<g><path style="opacity:1" fill="#751200" d="M 286.5,236.5 C 291.5,236.5 296.5,236.5 301.5,236.5C 301.5,241.5 301.5,246.5 301.5,251.5C 296.5,251.5 291.5,251.5 286.5,251.5C 286.5,246.5 286.5,241.5 286.5,236.5 Z"/></g>
<g><path style="opacity:1" fill="#255783" d="M 455.5,236.5 C 460.5,236.5 465.5,236.5 470.5,236.5C 470.5,241.5 470.5,246.5 470.5,251.5C 465.5,251.5 460.5,251.5 455.5,251.5C 455.5,246.5 455.5,241.5 455.5,236.5 Z"/></g>
<g><path style="opacity:1" fill="#95dff9" d="M 471.5,236.5 C 477.167,236.5 482.833,236.5 488.5,236.5C 488.5,241.5 488.5,246.5 488.5,251.5C 482.833,251.5 477.167,251.5 471.5,251.5C 471.5,246.5 471.5,241.5 471.5,236.5 Z"/></g>
<g><path style="opacity:1" fill="#91daf3" d="M 521.5,236.5 C 521.5,241.5 521.5,246.5 521.5,251.5C 516.5,251.5 511.5,251.5 506.5,251.5C 506.167,251.5 505.833,251.5 505.5,251.5C 505.5,246.5 505.5,241.5 505.5,236.5C 510.833,236.5 516.167,236.5 521.5,236.5 Z"/></g>
<g><path style="opacity:1" fill="#0b0c0b" d="M 16.5,251.5 C 21.5,251.5 26.5,251.5 31.5,251.5C 31.8333,251.5 32.1667,251.5 32.5,251.5C 32.5,257.5 32.5,263.5 32.5,269.5C 27.1667,269.5 21.8333,269.5 16.5,269.5C 16.5,263.5 16.5,257.5 16.5,251.5 Z"/></g>
<g><path style="opacity:1" fill="#f9faf9" d="M 269.5,251.5 C 275.167,251.5 280.833,251.5 286.5,251.5C 286.5,257.167 286.5,262.833 286.5,268.5C 280.833,268.5 275.167,268.5 269.5,268.5C 269.5,262.833 269.5,257.167 269.5,251.5 Z"/></g>
<g><path style="opacity:1" fill="#0b0c0b" d="M 286.5,251.5 C 291.5,251.5 296.5,251.5 301.5,251.5C 301.5,268.167 301.5,284.833 301.5,301.5C 296.5,301.5 291.5,301.5 286.5,301.5C 286.5,296.5 286.5,291.5 286.5,286.5C 286.5,280.833 286.5,275.167 286.5,269.5C 286.5,269.167 286.5,268.833 286.5,268.5C 286.5,262.833 286.5,257.167 286.5,251.5 Z"/></g>
<g><path style="opacity:1" fill="#2f83bf" d="M 354.5,269.5 C 348.833,269.5 343.167,269.5 337.5,269.5C 337.5,280.167 337.5,290.833 337.5,301.5C 337.167,301.5 336.833,301.5 336.5,301.5C 336.5,284.833 336.5,268.167 336.5,251.5C 342.5,251.5 348.5,251.5 354.5,251.5C 354.5,257.5 354.5,263.5 354.5,269.5 Z"/></g>
<g><path style="opacity:1" fill="#69aee0" d="M 470.5,236.5 C 470.833,236.5 471.167,236.5 471.5,236.5C 471.5,241.5 471.5,246.5 471.5,251.5C 471.5,257.167 471.5,262.833 471.5,268.5C 477.167,268.5 482.833,268.5 488.5,268.5C 488.5,262.833 488.5,257.167 488.5,251.5C 494.167,251.5 499.833,251.5 505.5,251.5C 505.833,251.5 506.167,251.5 506.5,251.5C 506.5,257.167 506.5,262.833 506.5,268.5C 511.5,268.5 516.5,268.5 521.5,268.5C 521.5,268.833 521.5,269.167 521.5,269.5C 516.167,269.5 510.833,269.5 505.5,269.5C 505.5,275.167 505.5,280.833 505.5,286.5C 505.5,291.5 505.5,296.5 505.5,301.5C 499.833,301.5 494.167,301.5 488.5,301.5C 482.5,301.5 476.5,301.5 470.5,301.5C 470.5,307.5 470.5,313.5 470.5,319.5C 470.5,325.5 470.5,331.5 470.5,337.5C 465.5,337.5 460.5,337.5 455.5,337.5C 443.833,337.5 432.167,337.5 420.5,337.5C 420.5,337.167 420.5,336.833 420.5,336.5C 420.5,330.833 420.5,325.167 420.5,319.5C 415.5,319.5 410.5,319.5 405.5,319.5C 405.5,302.833 405.5,286.167 405.5,269.5C 410.5,269.5 415.5,269.5 420.5,269.5C 420.5,263.5 420.5,257.5 420.5,251.5C 432.167,251.5 443.833,251.5 455.5,251.5C 460.5,251.5 465.5,251.5 470.5,251.5C 470.5,246.5 470.5,241.5 470.5,236.5 Z"/></g>
<g><path style="opacity:1" fill="#2b83c1" d="M 471.5,251.5 C 477.167,251.5 482.833,251.5 488.5,251.5C 488.5,257.167 488.5,262.833 488.5,268.5C 482.833,268.5 477.167,268.5 471.5,268.5C 471.5,262.833 471.5,257.167 471.5,251.5 Z"/></g>
<g><path style="opacity:1" fill="#245581" d="M 506.5,251.5 C 511.5,251.5 516.5,251.5 521.5,251.5C 521.5,257.167 521.5,262.833 521.5,268.5C 516.5,268.5 511.5,268.5 506.5,268.5C 506.5,262.833 506.5,257.167 506.5,251.5 Z"/></g>
<g><path style="opacity:1" fill="#0c0c0c" d="M 185.5,236.5 C 190.5,236.5 195.5,236.5 200.5,236.5C 200.5,241.5 200.5,246.5 200.5,251.5C 200.5,257.5 200.5,263.5 200.5,269.5C 195.5,269.5 190.5,269.5 185.5,269.5C 185.5,275.167 185.5,280.833 185.5,286.5C 185.5,291.5 185.5,296.5 185.5,301.5C 179.833,301.5 174.167,301.5 168.5,301.5C 168.821,296.305 168.487,291.305 167.5,286.5C 167.5,280.5 167.5,274.5 167.5,268.5C 173.5,268.5 179.5,268.5 185.5,268.5C 185.5,257.833 185.5,247.167 185.5,236.5 Z"/></g>
<g><path style="opacity:1" fill="#de999e" d="M 269.5,251.5 C 269.5,257.167 269.5,262.833 269.5,268.5C 275.167,268.5 280.833,268.5 286.5,268.5C 286.5,268.833 286.5,269.167 286.5,269.5C 280.5,269.5 274.5,269.5 268.5,269.5C 268.177,263.31 268.51,257.31 269.5,251.5 Z"/></g>
<g><path style="opacity:1" fill="#2b83c1" d="M 117.5,269.5 C 123.5,269.5 129.5,269.5 135.5,269.5C 135.5,275.167 135.5,280.833 135.5,286.5C 135.167,286.5 134.833,286.5 134.5,286.5C 128.833,286.5 123.167,286.5 117.5,286.5C 117.5,280.833 117.5,275.167 117.5,269.5 Z"/></g>
<g><path style="opacity:1" fill="#b4afb4" d="M 200.5,269.5 C 200.5,275.167 200.5,280.833 200.5,286.5C 195.5,286.5 190.5,286.5 185.5,286.5C 185.5,280.833 185.5,275.167 185.5,269.5C 190.5,269.5 195.5,269.5 200.5,269.5 Z"/></g>
<g><path style="opacity:1" fill="#e07c76" d="M 268.5,269.5 C 268.5,275.167 268.5,280.833 268.5,286.5C 262.833,286.5 257.167,286.5 251.5,286.5C 251.5,291.5 251.5,296.5 251.5,301.5C 246.238,301.195 241.072,301.529 236,302.5C 235.501,308.157 235.334,313.824 235.5,319.5C 229.833,319.5 224.167,319.5 218.5,319.5C 212.833,319.5 207.167,319.5 201.5,319.5C 201.167,319.5 200.833,319.5 200.5,319.5C 200.5,313.833 200.5,308.167 200.5,302.5C 195.5,302.5 190.5,302.5 185.5,302.5C 185.5,302.167 185.5,301.833 185.5,301.5C 190.5,301.5 195.5,301.5 200.5,301.5C 201.486,297.03 201.819,292.363 201.5,287.5C 207.358,287.822 213.025,287.489 218.5,286.5C 218.5,280.833 218.5,275.167 218.5,269.5C 235.167,269.5 251.833,269.5 268.5,269.5 Z"/></g>
<g><path style="opacity:1" fill="#bc1c26" d="M 268.5,269.5 C 274.5,269.5 280.5,269.5 286.5,269.5C 286.5,275.167 286.5,280.833 286.5,286.5C 280.833,286.5 275.167,286.5 269.5,286.5C 269.167,286.5 268.833,286.5 268.5,286.5C 268.5,280.833 268.5,275.167 268.5,269.5 Z"/></g>
<g><path style="opacity:1" fill="#255783" d="M 354.5,269.5 C 354.5,275.167 354.5,280.833 354.5,286.5C 354.5,291.5 354.5,296.5 354.5,301.5C 348.833,301.5 343.167,301.5 337.5,301.5C 337.5,290.833 337.5,280.167 337.5,269.5C 343.167,269.5 348.833,269.5 354.5,269.5 Z"/></g>
<g><path style="opacity:1" fill="#7f9a7b" d="M 387.5,269.5 C 381.833,269.5 376.167,269.5 370.5,269.5C 370.5,275.167 370.5,280.833 370.5,286.5C 370.167,286.5 369.833,286.5 369.5,286.5C 369.5,280.5 369.5,274.5 369.5,268.5C 375.69,268.177 381.69,268.51 387.5,269.5 Z"/></g>
<g><path style="opacity:1" fill="#8e7d1e" d="M 387.5,269.5 C 387.5,275.167 387.5,280.833 387.5,286.5C 381.833,286.5 376.167,286.5 370.5,286.5C 370.5,280.833 370.5,275.167 370.5,269.5C 376.167,269.5 381.833,269.5 387.5,269.5 Z"/></g>
<g><path style="opacity:1" fill="#2e82be" d="M 404.5,218.5 C 404.833,218.5 405.167,218.5 405.5,218.5C 405.5,229.5 405.5,240.5 405.5,251.5C 410.5,251.5 415.5,251.5 420.5,251.5C 420.5,257.5 420.5,263.5 420.5,269.5C 415.5,269.5 410.5,269.5 405.5,269.5C 405.5,286.167 405.5,302.833 405.5,319.5C 405.167,319.5 404.833,319.5 404.5,319.5C 404.5,313.5 404.5,307.5 404.5,301.5C 398.833,301.5 393.167,301.5 387.5,301.5C 387.5,296.5 387.5,291.5 387.5,286.5C 387.5,280.833 387.5,275.167 387.5,269.5C 393.167,269.5 398.833,269.5 404.5,269.5C 404.5,252.5 404.5,235.5 404.5,218.5 Z"/></g>
<g><path style="opacity:1" fill="#92dcf6" d="M 521.5,269.5 C 521.5,275.167 521.5,280.833 521.5,286.5C 516.5,286.5 511.5,286.5 506.5,286.5C 506.167,286.5 505.833,286.5 505.5,286.5C 505.5,280.833 505.5,275.167 505.5,269.5C 510.833,269.5 516.167,269.5 521.5,269.5 Z"/></g>
<g><path style="opacity:1" fill="#2b82c1" d="M 117.5,286.5 C 117.5,291.5 117.5,296.5 117.5,301.5C 117.5,301.833 117.5,302.167 117.5,302.5C 111.5,302.5 105.5,302.5 99.5,302.5C 99.5,297.167 99.5,291.833 99.5,286.5C 105.5,286.5 111.5,286.5 117.5,286.5 Z"/></g>
<g><path style="opacity:1" fill="#2a7ebb" d="M 135.5,286.5 C 146.167,286.5 156.833,286.5 167.5,286.5C 168.487,291.305 168.821,296.305 168.5,301.5C 167.833,301.5 167.5,301.833 167.5,302.5C 161.833,302.5 156.167,302.5 150.5,302.5C 145.695,301.513 140.695,301.179 135.5,301.5C 135.5,296.5 135.5,291.5 135.5,286.5 Z"/></g>
<g><path style="opacity:1" fill="#95e0f9" d="M 117.5,286.5 C 123.167,286.5 128.833,286.5 134.5,286.5C 134.5,291.5 134.5,296.5 134.5,301.5C 128.833,301.5 123.167,301.5 117.5,301.5C 117.5,296.5 117.5,291.5 117.5,286.5 Z"/></g>
<g><path style="opacity:1" fill="#bb1a26" d="M 185.5,286.5 C 190.5,286.5 195.5,286.5 200.5,286.5C 200.5,291.5 200.5,296.5 200.5,301.5C 195.5,301.5 190.5,301.5 185.5,301.5C 185.5,296.5 185.5,291.5 185.5,286.5 Z"/></g>
<g><path style="opacity:1" fill="#c65255" d="M 200.5,251.5 C 200.833,251.5 201.167,251.5 201.5,251.5C 201.5,263.167 201.5,274.833 201.5,286.5C 207.167,286.5 212.833,286.5 218.5,286.5C 213.025,287.489 207.358,287.822 201.5,287.5C 201.819,292.363 201.486,297.03 200.5,301.5C 200.5,296.5 200.5,291.5 200.5,286.5C 200.5,280.833 200.5,275.167 200.5,269.5C 200.5,263.5 200.5,257.5 200.5,251.5 Z"/></g>
<g><path style="opacity:1" fill="#bb1925" d="M 268.5,286.5 C 268.5,291.5 268.5,296.5 268.5,301.5C 262.833,301.5 257.167,301.5 251.5,301.5C 251.5,296.5 251.5,291.5 251.5,286.5C 257.167,286.5 262.833,286.5 268.5,286.5 Z"/></g>
<g><path style="opacity:1" fill="#f9f8f8" d="M 269.5,286.5 C 275.167,286.5 280.833,286.5 286.5,286.5C 286.5,291.5 286.5,296.5 286.5,301.5C 280.833,301.5 275.167,301.5 269.5,301.5C 269.5,296.5 269.5,291.5 269.5,286.5 Z"/></g>
<g><path style="opacity:1" fill="#8e7d20" d="M 354.5,286.5 C 359.5,286.5 364.5,286.5 369.5,286.5C 369.5,291.5 369.5,296.5 369.5,301.5C 364.5,301.5 359.5,301.5 354.5,301.5C 354.5,296.5 354.5,291.5 354.5,286.5 Z"/></g>
<g><path style="opacity:1" fill="#ebe043" d="M 369.5,286.5 C 369.833,286.5 370.167,286.5 370.5,286.5C 376.167,286.5 381.833,286.5 387.5,286.5C 387.5,291.5 387.5,296.5 387.5,301.5C 387.5,307.5 387.5,313.5 387.5,319.5C 393.167,319.5 398.833,319.5 404.5,319.5C 404.5,325.5 404.5,331.5 404.5,337.5C 409.833,337.5 415.167,337.5 420.5,337.5C 420.5,342.5 420.5,347.5 420.5,352.5C 409.5,352.5 398.5,352.5 387.5,352.5C 387.5,358.167 387.5,363.833 387.5,369.5C 387.5,369.833 387.5,370.167 387.5,370.5C 376.5,370.5 365.5,370.5 354.5,370.5C 354.5,376.167 354.5,381.833 354.5,387.5C 348.833,387.5 343.167,387.5 337.5,387.5C 336.513,392.305 336.179,397.305 336.5,402.5C 330.642,402.178 324.975,402.511 319.5,403.5C 319.5,409.167 319.5,414.833 319.5,420.5C 313.5,420.5 307.5,420.5 301.5,420.5C 301.5,409.5 301.5,398.5 301.5,387.5C 307.5,387.5 313.5,387.5 319.5,387.5C 319.5,375.833 319.5,364.167 319.5,352.5C 325.167,352.5 330.833,352.5 336.5,352.5C 336.5,347.5 336.5,342.5 336.5,337.5C 337.495,326.012 337.828,314.345 337.5,302.5C 343.358,302.822 349.025,302.489 354.5,301.5C 359.5,301.5 364.5,301.5 369.5,301.5C 369.5,296.5 369.5,291.5 369.5,286.5 Z"/></g>
<g><path style="opacity:1" fill="#63afe0" d="M 134.5,286.5 C 134.833,286.5 135.167,286.5 135.5,286.5C 135.5,291.5 135.5,296.5 135.5,301.5C 140.695,301.179 145.695,301.513 150.5,302.5C 145.5,302.5 140.5,302.5 135.5,302.5C 135.5,308.167 135.5,313.833 135.5,319.5C 134.511,314.025 134.178,308.358 134.5,302.5C 128.833,302.5 123.167,302.5 117.5,302.5C 117.5,302.167 117.5,301.833 117.5,301.5C 123.167,301.5 128.833,301.5 134.5,301.5C 134.5,296.5 134.5,291.5 134.5,286.5 Z"/></g>
<g><path style="opacity:1" fill="#d8888e" d="M 268.5,286.5 C 268.833,286.5 269.167,286.5 269.5,286.5C 269.5,291.5 269.5,296.5 269.5,301.5C 269.5,301.833 269.5,302.167 269.5,302.5C 269.167,302.5 268.833,302.5 268.5,302.5C 262.833,302.5 257.167,302.5 251.5,302.5C 251.5,302.167 251.5,301.833 251.5,301.5C 257.167,301.5 262.833,301.5 268.5,301.5C 268.5,296.5 268.5,291.5 268.5,286.5 Z"/></g>
<g><path style="opacity:1" fill="#35566d" d="M 505.5,286.5 C 505.833,286.5 506.167,286.5 506.5,286.5C 506.5,291.833 506.5,297.167 506.5,302.5C 500.5,302.5 494.5,302.5 488.5,302.5C 488.5,302.167 488.5,301.833 488.5,301.5C 494.167,301.5 499.833,301.5 505.5,301.5C 505.5,296.5 505.5,291.5 505.5,286.5 Z"/></g>
<g><path style="opacity:1" fill="#2c84c1" d="M 117.5,302.5 C 123.167,302.5 128.833,302.5 134.5,302.5C 134.178,308.358 134.511,314.025 135.5,319.5C 135.5,325.5 135.5,331.5 135.5,337.5C 129.5,337.5 123.5,337.5 117.5,337.5C 117.5,337.167 117.5,336.833 117.5,336.5C 117.5,325.167 117.5,313.833 117.5,302.5 Z"/></g>
<g><path style="opacity:1" fill="#96e1f9" d="M 150.5,302.5 C 150.5,308.167 150.5,313.833 150.5,319.5C 145.5,319.5 140.5,319.5 135.5,319.5C 135.5,313.833 135.5,308.167 135.5,302.5C 140.5,302.5 145.5,302.5 150.5,302.5 Z"/></g>
<g><path style="opacity:1" fill="#0d0d0d" d="M 150.5,302.5 C 156.167,302.5 161.833,302.5 167.5,302.5C 167.178,308.358 167.511,314.025 168.5,319.5C 174.167,319.5 179.833,319.5 185.5,319.5C 190.5,319.5 195.5,319.5 200.5,319.5C 200.5,325.5 200.5,331.5 200.5,337.5C 195.5,337.5 190.5,337.5 185.5,337.5C 185.5,342.5 185.5,347.5 185.5,352.5C 179.833,352.5 174.167,352.5 168.5,352.5C 168.5,347.167 168.5,341.833 168.5,336.5C 162.5,336.5 156.5,336.5 150.5,336.5C 150.5,330.833 150.5,325.167 150.5,319.5C 150.5,313.833 150.5,308.167 150.5,302.5 Z"/></g>
<g><path style="opacity:1" fill="#828282" d="M 168.5,301.5 C 174.167,301.5 179.833,301.5 185.5,301.5C 185.5,301.833 185.5,302.167 185.5,302.5C 179.833,302.5 174.167,302.5 168.5,302.5C 168.5,308.167 168.5,313.833 168.5,319.5C 167.511,314.025 167.178,308.358 167.5,302.5C 167.5,301.833 167.833,301.5 168.5,301.5 Z"/></g>
<g><path style="opacity:1" fill="#f9faf9" d="M 185.5,302.5 C 185.5,308.167 185.5,313.833 185.5,319.5C 179.833,319.5 174.167,319.5 168.5,319.5C 168.5,313.833 168.5,308.167 168.5,302.5C 174.167,302.5 179.833,302.5 185.5,302.5 Z"/></g>
<g><path style="opacity:1" fill="#b4afb4" d="M 185.5,302.5 C 190.5,302.5 195.5,302.5 200.5,302.5C 200.5,308.167 200.5,313.833 200.5,319.5C 195.5,319.5 190.5,319.5 185.5,319.5C 185.5,313.833 185.5,308.167 185.5,302.5 Z"/></g>
<g><path style="opacity:1" fill="#7c1908" d="M 251.5,301.5 C 251.5,301.833 251.5,302.167 251.5,302.5C 251.5,308.167 251.5,313.833 251.5,319.5C 246.5,319.5 241.5,319.5 236.5,319.5C 236.167,319.5 235.833,319.5 235.5,319.5C 235.334,313.824 235.501,308.157 236,302.5C 241.072,301.529 246.238,301.195 251.5,301.5 Z"/></g>
<g><path style="opacity:1" fill="#f9f9f9" d="M 251.5,302.5 C 257.167,302.5 262.833,302.5 268.5,302.5C 268.5,313.833 268.5,325.167 268.5,336.5C 257.833,336.5 247.167,336.5 236.5,336.5C 236.5,330.833 236.5,325.167 236.5,319.5C 241.5,319.5 246.5,319.5 251.5,319.5C 251.5,313.833 251.5,308.167 251.5,302.5 Z"/></g>
<g><path style="opacity:1" fill="#0b0c0b" d="M 269.5,302.5 C 275.167,302.5 280.833,302.5 286.5,302.5C 286.5,308.167 286.5,313.833 286.5,319.5C 280.833,319.5 275.167,319.5 269.5,319.5C 269.5,313.833 269.5,308.167 269.5,302.5 Z"/></g>
<g><path style="opacity:1" fill="#255783" d="M 336.5,302.5 C 336.5,313.833 336.5,325.167 336.5,336.5C 330.833,336.5 325.167,336.5 319.5,336.5C 319.5,325.167 319.5,313.833 319.5,302.5C 325.167,302.5 330.833,302.5 336.5,302.5 Z"/></g>
<g><path style="opacity:1" fill="#889b64" d="M 336.5,301.5 C 336.833,301.5 337.167,301.5 337.5,301.5C 343.167,301.5 348.833,301.5 354.5,301.5C 349.025,302.489 343.358,302.822 337.5,302.5C 337.828,314.345 337.495,326.012 336.5,337.5C 336.5,337.167 336.5,336.833 336.5,336.5C 336.5,325.167 336.5,313.833 336.5,302.5C 336.5,302.167 336.5,301.833 336.5,301.5 Z"/></g>
<g><path style="opacity:1" fill="#255784" d="M 387.5,301.5 C 393.167,301.5 398.833,301.5 404.5,301.5C 404.5,307.5 404.5,313.5 404.5,319.5C 398.833,319.5 393.167,319.5 387.5,319.5C 387.5,313.5 387.5,307.5 387.5,301.5 Z"/></g>
<g><path style="opacity:1" fill="#2e83c1" d="M 488.5,301.5 C 488.5,301.833 488.5,302.167 488.5,302.5C 488.5,308.167 488.5,313.833 488.5,319.5C 482.833,319.5 477.167,319.5 471.5,319.5C 471.167,319.5 470.833,319.5 470.5,319.5C 470.5,313.5 470.5,307.5 470.5,301.5C 476.5,301.5 482.5,301.5 488.5,301.5 Z"/></g>
<g><path style="opacity:1" fill="#0c0c0c" d="M 607.5,319.5 C 613.167,319.5 618.833,319.5 624.5,319.5C 624.5,342.167 624.5,364.833 624.5,387.5C 624.5,392.5 624.5,397.5 624.5,402.5C 607.833,402.5 591.167,402.5 574.5,402.5C 574.5,397.5 574.5,392.5 574.5,387.5C 585.167,387.5 595.833,387.5 606.5,387.5C 607.497,365.006 607.831,342.339 607.5,319.5 Z"/></g>
<g><path style="opacity:1" fill="#6aafe1" d="M 135.5,319.5 C 140.5,319.5 145.5,319.5 150.5,319.5C 150.5,325.167 150.5,330.833 150.5,336.5C 155.975,337.489 161.642,337.822 167.5,337.5C 167.5,342.5 167.5,347.5 167.5,352.5C 150.833,352.5 134.167,352.5 117.5,352.5C 117.5,347.5 117.5,342.5 117.5,337.5C 123.5,337.5 129.5,337.5 135.5,337.5C 135.5,331.5 135.5,325.5 135.5,319.5 Z"/></g>
<g><path style="opacity:1" fill="#751203" d="M 200.5,319.5 C 200.833,319.5 201.167,319.5 201.5,319.5C 201.5,325.167 201.5,330.833 201.5,336.5C 207.167,336.5 212.833,336.5 218.5,336.5C 218.5,330.833 218.5,325.167 218.5,319.5C 224.167,319.5 229.833,319.5 235.5,319.5C 235.5,325.5 235.5,331.5 235.5,337.5C 223.833,337.5 212.167,337.5 200.5,337.5C 200.5,331.5 200.5,325.5 200.5,319.5 Z"/></g>
<g><path style="opacity:1" fill="#bb1925" d="M 201.5,319.5 C 207.167,319.5 212.833,319.5 218.5,319.5C 218.5,325.167 218.5,330.833 218.5,336.5C 212.833,336.5 207.167,336.5 201.5,336.5C 201.5,330.833 201.5,325.167 201.5,319.5 Z"/></g>
<g><path style="opacity:1" fill="#265783" d="M 269.5,319.5 C 275.167,319.5 280.833,319.5 286.5,319.5C 286.5,325.5 286.5,331.5 286.5,337.5C 280.833,337.5 275.167,337.5 269.5,337.5C 269.5,331.5 269.5,325.5 269.5,319.5 Z"/></g>
<g><path style="opacity:1" fill="#2b83c1" d="M 405.5,319.5 C 410.5,319.5 415.5,319.5 420.5,319.5C 420.5,325.167 420.5,330.833 420.5,336.5C 415.5,336.5 410.5,336.5 405.5,336.5C 405.5,330.833 405.5,325.167 405.5,319.5 Z"/></g>
<g><path style="opacity:1" fill="#0c0c0c" d="M 488.5,302.5 C 494.5,302.5 500.5,302.5 506.5,302.5C 506.5,308.5 506.5,314.5 506.5,320.5C 500.5,320.5 494.5,320.5 488.5,320.5C 488.5,325.833 488.5,331.167 488.5,336.5C 482.833,336.5 477.167,336.5 471.5,336.5C 471.5,330.833 471.5,325.167 471.5,319.5C 477.167,319.5 482.833,319.5 488.5,319.5C 488.5,313.833 488.5,308.167 488.5,302.5 Z"/></g>
<g><path style="opacity:1" fill="#255782" d="M 117.5,336.5 C 117.5,336.833 117.5,337.167 117.5,337.5C 117.5,342.5 117.5,347.5 117.5,352.5C 111.5,352.5 105.5,352.5 99.5,352.5C 99.5,347.167 99.5,341.833 99.5,336.5C 105.5,336.5 111.5,336.5 117.5,336.5 Z"/></g>
<g><path style="opacity:1" fill="#a29c9f" d="M 268.5,302.5 C 268.833,302.5 269.167,302.5 269.5,302.5C 269.5,308.167 269.5,313.833 269.5,319.5C 269.5,325.5 269.5,331.5 269.5,337.5C 269.167,337.5 268.833,337.5 268.5,337.5C 262.833,337.5 257.167,337.5 251.5,337.5C 246.167,337.5 240.833,337.5 235.5,337.5C 235.5,331.5 235.5,325.5 235.5,319.5C 235.833,319.5 236.167,319.5 236.5,319.5C 236.5,325.167 236.5,330.833 236.5,336.5C 247.167,336.5 257.833,336.5 268.5,336.5C 268.5,325.167 268.5,313.833 268.5,302.5 Z"/></g>
<g><path style="opacity:1" fill="#7fa68f" d="M 404.5,319.5 C 404.833,319.5 405.167,319.5 405.5,319.5C 405.5,325.167 405.5,330.833 405.5,336.5C 410.5,336.5 415.5,336.5 420.5,336.5C 420.5,336.833 420.5,337.167 420.5,337.5C 415.167,337.5 409.833,337.5 404.5,337.5C 404.5,331.5 404.5,325.5 404.5,319.5 Z"/></g>
<g><path style="opacity:1" fill="#0b0c0b" d="M 488.5,336.5 C 494.5,336.5 500.5,336.5 506.5,336.5C 506.5,341.833 506.5,347.167 506.5,352.5C 506.167,352.5 505.833,352.5 505.5,352.5C 499.833,352.5 494.167,352.5 488.5,352.5C 488.5,347.5 488.5,342.5 488.5,337.5C 488.5,337.167 488.5,336.833 488.5,336.5 Z"/></g>
<g><path style="opacity:1" fill="#35556c" d="M 150.5,336.5 C 156.5,336.5 162.5,336.5 168.5,336.5C 168.5,341.833 168.5,347.167 168.5,352.5C 168.167,352.5 167.833,352.5 167.5,352.5C 167.5,347.5 167.5,342.5 167.5,337.5C 161.642,337.822 155.975,337.489 150.5,336.5 Z"/></g>
<g><path style="opacity:1" fill="#6aafe1" d="M 200.5,337.5 C 200.5,342.5 200.5,347.5 200.5,352.5C 195.5,352.5 190.5,352.5 185.5,352.5C 185.5,347.5 185.5,342.5 185.5,337.5C 190.5,337.5 195.5,337.5 200.5,337.5 Z"/></g>
<g><path style="opacity:1" fill="#0d0e0e" d="M 200.5,337.5 C 212.167,337.5 223.833,337.5 235.5,337.5C 240.833,337.5 246.167,337.5 251.5,337.5C 251.5,342.5 251.5,347.5 251.5,352.5C 234.5,352.5 217.5,352.5 200.5,352.5C 200.5,347.5 200.5,342.5 200.5,337.5 Z"/></g>
<g><path style="opacity:1" fill="#255783" d="M 251.5,337.5 C 257.167,337.5 262.833,337.5 268.5,337.5C 268.5,342.5 268.5,347.5 268.5,352.5C 262.833,352.5 257.167,352.5 251.5,352.5C 251.5,347.5 251.5,342.5 251.5,337.5 Z"/></g>
<g><path style="opacity:1" fill="#2c5b84" d="M 319.5,336.5 C 325.167,336.5 330.833,336.5 336.5,336.5C 336.5,336.833 336.5,337.167 336.5,337.5C 330.833,337.5 325.167,337.5 319.5,337.5C 319.5,342.5 319.5,347.5 319.5,352.5C 313.5,352.5 307.5,352.5 301.5,352.5C 301.5,347.167 301.5,341.833 301.5,336.5C 307.5,336.5 313.5,336.5 319.5,336.5 Z"/></g>
<g><path style="opacity:1" fill="#8e7d1e" d="M 336.5,337.5 C 336.5,342.5 336.5,347.5 336.5,352.5C 330.833,352.5 325.167,352.5 319.5,352.5C 319.5,347.5 319.5,342.5 319.5,337.5C 325.167,337.5 330.833,337.5 336.5,337.5 Z"/></g>
<g><path style="opacity:1" fill="#255783" d="M 420.5,337.5 C 432.167,337.5 443.833,337.5 455.5,337.5C 455.5,342.5 455.5,347.5 455.5,352.5C 443.833,352.5 432.167,352.5 420.5,352.5C 420.5,347.5 420.5,342.5 420.5,337.5 Z"/></g>
<g><path style="opacity:1" fill="#0b0c0b" d="M 455.5,337.5 C 460.5,337.5 465.5,337.5 470.5,337.5C 470.5,342.5 470.5,347.5 470.5,352.5C 465.5,352.5 460.5,352.5 455.5,352.5C 455.5,347.5 455.5,342.5 455.5,337.5 Z"/></g>
<g><path style="opacity:1" fill="#244b69" d="M 470.5,319.5 C 470.833,319.5 471.167,319.5 471.5,319.5C 471.5,325.167 471.5,330.833 471.5,336.5C 477.167,336.5 482.833,336.5 488.5,336.5C 488.5,336.833 488.5,337.167 488.5,337.5C 482.833,337.5 477.167,337.5 471.5,337.5C 471.821,342.695 471.487,347.695 470.5,352.5C 470.5,347.5 470.5,342.5 470.5,337.5C 470.5,331.5 470.5,325.5 470.5,319.5 Z"/></g>
<g><path style="opacity:1" fill="#2b82c0" d="M 488.5,337.5 C 488.5,342.5 488.5,347.5 488.5,352.5C 494.167,352.5 499.833,352.5 505.5,352.5C 505.5,358.5 505.5,364.5 505.5,370.5C 510.833,370.5 516.167,370.5 521.5,370.5C 521.5,376.167 521.5,381.833 521.5,387.5C 527.167,387.5 532.833,387.5 538.5,387.5C 538.833,387.5 539.167,387.5 539.5,387.5C 551.167,387.5 562.833,387.5 574.5,387.5C 574.5,392.5 574.5,397.5 574.5,402.5C 595.994,403.497 617.66,403.831 639.5,403.5C 639.5,415.167 639.5,426.833 639.5,438.5C 634.5,438.5 629.5,438.5 624.5,438.5C 624.5,444.167 624.5,449.833 624.5,455.5C 618.5,455.5 612.5,455.5 606.5,455.5C 600.833,455.5 595.167,455.5 589.5,455.5C 589.5,460.5 589.5,465.5 589.5,470.5C 566.833,470.5 544.167,470.5 521.5,470.5C 521.5,465.5 521.5,460.5 521.5,455.5C 521.5,449.833 521.5,444.167 521.5,438.5C 516.5,438.5 511.5,438.5 506.5,438.5C 506.5,444.167 506.5,449.833 506.5,455.5C 506.167,455.5 505.833,455.5 505.5,455.5C 505.5,449.833 505.5,444.167 505.5,438.5C 499.642,438.822 493.975,438.489 488.5,437.5C 494.167,437.5 499.833,437.5 505.5,437.5C 505.5,426.167 505.5,414.833 505.5,403.5C 499.833,403.5 494.167,403.5 488.5,403.5C 482.5,403.5 476.5,403.5 470.5,403.5C 470.5,392.5 470.5,381.5 470.5,370.5C 465.5,370.5 460.5,370.5 455.5,370.5C 455.5,376.167 455.5,381.833 455.5,387.5C 443.833,387.5 432.167,387.5 420.5,387.5C 420.5,381.5 420.5,375.5 420.5,369.5C 432.167,369.5 443.833,369.5 455.5,369.5C 455.5,363.833 455.5,358.167 455.5,352.5C 460.5,352.5 465.5,352.5 470.5,352.5C 471.487,347.695 471.821,342.695 471.5,337.5C 477.167,337.5 482.833,337.5 488.5,337.5 Z"/></g>
<g><path style="opacity:1" fill="#255782" d="M 117.5,352.5 C 134.167,352.5 150.833,352.5 167.5,352.5C 167.5,358.5 167.5,364.5 167.5,370.5C 150.833,370.5 134.167,370.5 117.5,370.5C 117.5,364.5 117.5,358.5 117.5,352.5 Z"/></g>
<g><path style="opacity:1" fill="#68addf" d="M 167.5,352.5 C 167.833,352.5 168.167,352.5 168.5,352.5C 174.167,352.5 179.833,352.5 185.5,352.5C 185.5,358.5 185.5,364.5 185.5,370.5C 179.5,370.5 173.5,370.5 167.5,370.5C 167.5,364.5 167.5,358.5 167.5,352.5 Z"/></g>
<g><path style="opacity:1" fill="#295880" d="M 185.5,352.5 C 190.5,352.5 195.5,352.5 200.5,352.5C 200.5,358.167 200.5,363.833 200.5,369.5C 229.167,369.5 257.833,369.5 286.5,369.5C 286.5,369.833 286.5,370.167 286.5,370.5C 257.833,370.5 229.167,370.5 200.5,370.5C 195.5,370.5 190.5,370.5 185.5,370.5C 185.5,364.5 185.5,358.5 185.5,352.5 Z"/></g>
<g><path style="opacity:1" fill="#0b0c0b" d="M 301.5,352.5 C 301.5,358.167 301.5,363.833 301.5,369.5C 296.5,369.5 291.5,369.5 286.5,369.5C 286.5,363.833 286.5,358.167 286.5,352.5C 291.5,352.5 296.5,352.5 301.5,352.5 Z"/></g>
<g><path style="opacity:1" fill="#8d7c1e" d="M 301.5,352.5 C 307.5,352.5 313.5,352.5 319.5,352.5C 319.5,364.167 319.5,375.833 319.5,387.5C 313.5,387.5 307.5,387.5 301.5,387.5C 301.5,398.5 301.5,409.5 301.5,420.5C 296.5,420.5 291.5,420.5 286.5,420.5C 286.5,403.833 286.5,387.167 286.5,370.5C 286.5,370.167 286.5,369.833 286.5,369.5C 291.5,369.5 296.5,369.5 301.5,369.5C 301.5,363.833 301.5,358.167 301.5,352.5 Z"/></g>
<g><path style="opacity:1" fill="#8e7d1f" d="M 420.5,352.5 C 420.5,358.167 420.5,363.833 420.5,369.5C 409.5,369.5 398.5,369.5 387.5,369.5C 387.5,363.833 387.5,358.167 387.5,352.5C 398.5,352.5 409.5,352.5 420.5,352.5 Z"/></g>
<g><path style="opacity:1" fill="#6aafe1" d="M 420.5,352.5 C 432.167,352.5 443.833,352.5 455.5,352.5C 455.5,358.167 455.5,363.833 455.5,369.5C 443.833,369.5 432.167,369.5 420.5,369.5C 420.5,363.833 420.5,358.167 420.5,352.5 Z"/></g>
<g><path style="opacity:1" fill="#0b0c0b" d="M 506.5,352.5 C 511.5,352.5 516.5,352.5 521.5,352.5C 521.5,358.167 521.5,363.833 521.5,369.5C 516.5,369.5 511.5,369.5 506.5,369.5C 506.5,363.833 506.5,358.167 506.5,352.5 Z"/></g>
<g><path style="opacity:1" fill="#751401" d="M 607.5,319.5 C 607.831,342.339 607.497,365.006 606.5,387.5C 606.5,370.833 606.5,354.167 606.5,337.5C 600.833,337.5 595.167,337.5 589.5,337.5C 589.5,342.5 589.5,347.5 589.5,352.5C 584.5,352.5 579.5,352.5 574.5,352.5C 574.5,358.5 574.5,364.5 574.5,370.5C 562.833,370.5 551.167,370.5 539.5,370.5C 539.5,376.167 539.5,381.833 539.5,387.5C 539.167,387.5 538.833,387.5 538.5,387.5C 538.5,381.5 538.5,375.5 538.5,369.5C 538.5,363.833 538.5,358.167 538.5,352.5C 550.167,352.5 561.833,352.5 573.5,352.5C 573.5,347.167 573.5,341.833 573.5,336.5C 578.5,336.5 583.5,336.5 588.5,336.5C 588.5,330.833 588.5,325.167 588.5,319.5C 594.833,319.5 601.167,319.5 607.5,319.5 Z"/></g>
<g><path style="opacity:1" fill="#c73e1e" d="M 606.5,387.5 C 595.833,387.5 585.167,387.5 574.5,387.5C 562.833,387.5 551.167,387.5 539.5,387.5C 539.5,381.833 539.5,376.167 539.5,370.5C 551.167,370.5 562.833,370.5 574.5,370.5C 574.5,364.5 574.5,358.5 574.5,352.5C 579.5,352.5 584.5,352.5 589.5,352.5C 589.5,347.5 589.5,342.5 589.5,337.5C 595.167,337.5 600.833,337.5 606.5,337.5C 606.5,354.167 606.5,370.833 606.5,387.5 Z"/></g>
<g><path style="opacity:1" fill="#1d4062" d="M 505.5,352.5 C 505.833,352.5 506.167,352.5 506.5,352.5C 506.5,358.167 506.5,363.833 506.5,369.5C 511.5,369.5 516.5,369.5 521.5,369.5C 521.5,369.833 521.5,370.167 521.5,370.5C 516.167,370.5 510.833,370.5 505.5,370.5C 505.5,364.5 505.5,358.5 505.5,352.5 Z"/></g>
<g><path style="opacity:1" fill="#0b0c0b" d="M 521.5,369.5 C 527.167,369.5 532.833,369.5 538.5,369.5C 538.5,375.5 538.5,381.5 538.5,387.5C 532.833,387.5 527.167,387.5 521.5,387.5C 521.5,381.833 521.5,376.167 521.5,370.5C 521.5,370.167 521.5,369.833 521.5,369.5 Z"/></g>
<g><path style="opacity:1" fill="#0b0c0b" d="M 200.5,370.5 C 229.167,370.5 257.833,370.5 286.5,370.5C 286.5,387.167 286.5,403.833 286.5,420.5C 280.833,420.5 275.167,420.5 269.5,420.5C 269.5,409.5 269.5,398.5 269.5,387.5C 258.167,387.5 246.833,387.5 235.5,387.5C 235.5,392.5 235.5,397.5 235.5,402.5C 235.5,408.5 235.5,414.5 235.5,420.5C 229.833,420.5 224.167,420.5 218.5,420.5C 218.5,414.833 218.5,409.167 218.5,403.5C 218.5,403.167 218.5,402.833 218.5,402.5C 218.5,397.5 218.5,392.5 218.5,387.5C 212.5,387.5 206.5,387.5 200.5,387.5C 200.5,381.833 200.5,376.167 200.5,370.5 Z"/></g>
<g><path style="opacity:1" fill="#8e7d1e" d="M 387.5,370.5 C 387.5,376.167 387.5,381.833 387.5,387.5C 376.5,387.5 365.5,387.5 354.5,387.5C 354.5,381.833 354.5,376.167 354.5,370.5C 365.5,370.5 376.5,370.5 387.5,370.5 Z"/></g>
<g><path style="opacity:1" fill="#6aaedf" d="M 387.5,369.5 C 398.5,369.5 409.5,369.5 420.5,369.5C 420.5,375.5 420.5,381.5 420.5,387.5C 415.167,387.5 409.833,387.5 404.5,387.5C 404.5,392.5 404.5,397.5 404.5,402.5C 398.642,402.178 392.975,402.511 387.5,403.5C 387.5,414.833 387.5,426.167 387.5,437.5C 381.5,437.5 375.5,437.5 369.5,437.5C 369.5,448.5 369.5,459.5 369.5,470.5C 364.5,470.5 359.5,470.5 354.5,470.5C 354.5,465.5 354.5,460.5 354.5,455.5C 348.833,455.5 343.167,455.5 337.5,455.5C 337.5,449.833 337.5,444.167 337.5,438.5C 331.5,438.5 325.5,438.5 319.5,438.5C 319.5,432.5 319.5,426.5 319.5,420.5C 325.167,420.5 330.833,420.5 336.5,420.5C 336.5,414.833 336.5,409.167 336.5,403.5C 337.167,403.5 337.5,403.167 337.5,402.5C 343.167,402.5 348.833,402.5 354.5,402.5C 354.5,397.5 354.5,392.5 354.5,387.5C 365.5,387.5 376.5,387.5 387.5,387.5C 387.5,381.833 387.5,376.167 387.5,370.5C 387.5,370.167 387.5,369.833 387.5,369.5 Z"/></g>
<g><path style="opacity:1" fill="#69aee0" d="M 488.5,403.5 C 488.5,414.833 488.5,426.167 488.5,437.5C 493.975,438.489 499.642,438.822 505.5,438.5C 505.5,444.167 505.5,449.833 505.5,455.5C 505.5,466.5 505.5,477.5 505.5,488.5C 499.833,488.5 494.167,488.5 488.5,488.5C 488.5,494.167 488.5,499.833 488.5,505.5C 488.5,505.833 488.5,506.167 488.5,506.5C 471.5,506.5 454.5,506.5 437.5,506.5C 437.5,500.5 437.5,494.5 437.5,488.5C 426.833,488.5 416.167,488.5 405.5,488.5C 405.666,482.824 405.499,477.157 405,471.5C 399.259,470.525 393.425,470.192 387.5,470.5C 387.5,459.833 387.5,449.167 387.5,438.5C 393.5,438.5 399.5,438.5 405.5,438.5C 405.5,426.833 405.5,415.167 405.5,403.5C 410.5,403.5 415.5,403.5 420.5,403.5C 420.5,398.167 420.5,392.833 420.5,387.5C 432.167,387.5 443.833,387.5 455.5,387.5C 455.5,381.833 455.5,376.167 455.5,370.5C 460.5,370.5 465.5,370.5 470.5,370.5C 470.5,381.5 470.5,392.5 470.5,403.5C 476.5,403.5 482.5,403.5 488.5,403.5 Z"/></g>
<g><path style="opacity:1" fill="#245580" d="M 624.5,387.5 C 629.833,387.5 635.167,387.5 640.5,387.5C 640.5,392.5 640.5,397.5 640.5,402.5C 639.833,402.5 639.5,402.833 639.5,403.5C 617.66,403.831 595.994,403.497 574.5,402.5C 591.167,402.5 607.833,402.5 624.5,402.5C 624.5,397.5 624.5,392.5 624.5,387.5 Z"/></g>
<g><path style="opacity:1" fill="#245681" d="M 200.5,387.5 C 206.5,387.5 212.5,387.5 218.5,387.5C 218.5,392.5 218.5,397.5 218.5,402.5C 212.5,402.5 206.5,402.5 200.5,402.5C 200.5,397.5 200.5,392.5 200.5,387.5 Z"/></g>
<g><path style="opacity:1" fill="#8b791e" d="M 269.5,420.5 C 269.167,420.5 268.833,420.5 268.5,420.5C 262.833,420.5 257.167,420.5 251.5,420.5C 251.5,414.833 251.5,409.167 251.5,403.5C 246.36,402.512 241.026,402.179 235.5,402.5C 235.5,397.5 235.5,392.5 235.5,387.5C 246.833,387.5 258.167,387.5 269.5,387.5C 269.5,398.5 269.5,409.5 269.5,420.5 Z"/></g>
<g><path style="opacity:1" fill="#8f7e1f" d="M 337.5,387.5 C 343.167,387.5 348.833,387.5 354.5,387.5C 354.5,392.5 354.5,397.5 354.5,402.5C 348.833,402.5 343.167,402.5 337.5,402.5C 337.5,397.5 337.5,392.5 337.5,387.5 Z"/></g>
<g><path style="opacity:1" fill="#255783" d="M 471.5,387.5 C 477.167,387.5 482.833,387.5 488.5,387.5C 488.5,392.5 488.5,397.5 488.5,402.5C 482.833,402.5 477.167,402.5 471.5,402.5C 471.5,397.5 471.5,392.5 471.5,387.5 Z"/></g>
<g><path style="opacity:1" fill="#baae33" d="M 337.5,387.5 C 337.5,392.5 337.5,397.5 337.5,402.5C 337.5,403.167 337.167,403.5 336.5,403.5C 330.833,403.5 325.167,403.5 319.5,403.5C 324.975,402.511 330.642,402.178 336.5,402.5C 336.179,397.305 336.513,392.305 337.5,387.5 Z"/></g>
<g><path style="opacity:1" fill="#0d0e0f" d="M 640.5,402.5 C 646.167,402.5 651.833,402.5 657.5,402.5C 657.5,414.5 657.5,426.5 657.5,438.5C 651.833,438.5 646.167,438.5 640.5,438.5C 640.5,444.5 640.5,450.5 640.5,456.5C 635.167,456.5 629.833,456.5 624.5,456.5C 624.5,461.5 624.5,466.5 624.5,471.5C 618.5,471.5 612.5,471.5 606.5,471.5C 606.5,466.167 606.5,460.833 606.5,455.5C 612.5,455.5 618.5,455.5 624.5,455.5C 624.5,449.833 624.5,444.167 624.5,438.5C 629.5,438.5 634.5,438.5 639.5,438.5C 639.5,426.833 639.5,415.167 639.5,403.5C 639.5,402.833 639.833,402.5 640.5,402.5 Z"/></g>
<g><path style="opacity:1" fill="#2c82c0" d="M 200.5,402.5 C 206.5,402.5 212.5,402.5 218.5,402.5C 218.5,402.833 218.5,403.167 218.5,403.5C 212.5,403.5 206.5,403.5 200.5,403.5C 200.5,414.833 200.5,426.167 200.5,437.5C 195.5,437.5 190.5,437.5 185.5,437.5C 185.5,425.833 185.5,414.167 185.5,402.5C 190.5,402.5 195.5,402.5 200.5,402.5 Z"/></g>
<g><path style="opacity:1" fill="#69aee0" d="M 218.5,403.5 C 218.5,409.167 218.5,414.833 218.5,420.5C 224.167,420.5 229.833,420.5 235.5,420.5C 235.5,432.167 235.5,443.833 235.5,455.5C 223.833,455.5 212.167,455.5 200.5,455.5C 200.5,460.5 200.5,465.5 200.5,470.5C 195.5,470.5 190.5,470.5 185.5,470.5C 185.5,459.5 185.5,448.5 185.5,437.5C 190.5,437.5 195.5,437.5 200.5,437.5C 200.5,426.167 200.5,414.833 200.5,403.5C 206.5,403.5 212.5,403.5 218.5,403.5 Z"/></g>
<g><path style="opacity:1" fill="#2c82bf" d="M 251.5,403.5 C 251.5,409.167 251.5,414.833 251.5,420.5C 246.5,420.5 241.5,420.5 236.5,420.5C 236.5,414.833 236.5,409.167 236.5,403.5C 241.5,403.5 246.5,403.5 251.5,403.5 Z"/></g>
<g><path style="opacity:1" fill="#8e7d1e" d="M 319.5,403.5 C 325.167,403.5 330.833,403.5 336.5,403.5C 336.5,409.167 336.5,414.833 336.5,420.5C 330.833,420.5 325.167,420.5 319.5,420.5C 319.5,414.833 319.5,409.167 319.5,403.5 Z"/></g>
<g><path style="opacity:1" fill="#255783" d="M 387.5,403.5 C 393.167,403.5 398.833,403.5 404.5,403.5C 404.5,414.833 404.5,426.167 404.5,437.5C 398.833,437.5 393.167,437.5 387.5,437.5C 387.5,426.167 387.5,414.833 387.5,403.5 Z"/></g>
<g><path style="opacity:1" fill="#255783" d="M 488.5,403.5 C 494.167,403.5 499.833,403.5 505.5,403.5C 505.5,414.833 505.5,426.167 505.5,437.5C 499.833,437.5 494.167,437.5 488.5,437.5C 488.5,426.167 488.5,414.833 488.5,403.5 Z"/></g>
<g><path style="opacity:1" fill="#3b5d71" d="M 235.5,402.5 C 241.026,402.179 246.36,402.512 251.5,403.5C 246.5,403.5 241.5,403.5 236.5,403.5C 236.5,409.167 236.5,414.833 236.5,420.5C 236.5,432.167 236.5,443.833 236.5,455.5C 236.167,455.5 235.833,455.5 235.5,455.5C 235.5,443.833 235.5,432.167 235.5,420.5C 235.5,414.5 235.5,408.5 235.5,402.5 Z"/></g>
<g><path style="opacity:1" fill="#0c0d0e" d="M 236.5,420.5 C 241.5,420.5 246.5,420.5 251.5,420.5C 251.5,432.167 251.5,443.833 251.5,455.5C 246.5,455.5 241.5,455.5 236.5,455.5C 236.5,443.833 236.5,432.167 236.5,420.5 Z"/></g>
<g><path style="opacity:1" fill="#2c82c0" d="M 420.5,387.5 C 420.5,392.833 420.5,398.167 420.5,403.5C 415.5,403.5 410.5,403.5 405.5,403.5C 405.5,415.167 405.5,426.833 405.5,438.5C 399.5,438.5 393.5,438.5 387.5,438.5C 381.833,438.5 376.167,438.5 370.5,438.5C 370.5,449.167 370.5,459.833 370.5,470.5C 370.5,470.833 370.5,471.167 370.5,471.5C 369.505,482.654 369.172,493.988 369.5,505.5C 358.833,505.5 348.167,505.5 337.5,505.5C 337.5,499.833 337.5,494.167 337.5,488.5C 331.5,488.5 325.5,488.5 319.5,488.5C 313.5,488.5 307.5,488.5 301.5,488.5C 301.5,482.833 301.5,477.167 301.5,471.5C 296.5,471.5 291.5,471.5 286.5,471.5C 281.025,470.511 275.358,470.178 269.5,470.5C 269.5,465.5 269.5,460.5 269.5,455.5C 263.5,455.5 257.5,455.5 251.5,455.5C 251.5,443.833 251.5,432.167 251.5,420.5C 257.167,420.5 262.833,420.5 268.5,420.5C 268.5,426.5 268.5,432.5 268.5,438.5C 274.5,438.5 280.5,438.5 286.5,438.5C 291.5,438.5 296.5,438.5 301.5,438.5C 307.5,438.5 313.5,438.5 319.5,438.5C 325.5,438.5 331.5,438.5 337.5,438.5C 337.5,444.167 337.5,449.833 337.5,455.5C 343.167,455.5 348.833,455.5 354.5,455.5C 354.5,460.5 354.5,465.5 354.5,470.5C 359.5,470.5 364.5,470.5 369.5,470.5C 369.5,459.5 369.5,448.5 369.5,437.5C 375.5,437.5 381.5,437.5 387.5,437.5C 393.167,437.5 398.833,437.5 404.5,437.5C 404.5,426.167 404.5,414.833 404.5,403.5C 398.833,403.5 393.167,403.5 387.5,403.5C 392.975,402.511 398.642,402.178 404.5,402.5C 404.5,397.5 404.5,392.5 404.5,387.5C 409.833,387.5 415.167,387.5 420.5,387.5 Z"/></g>
<g><path style="opacity:1" fill="#8e7d1e" d="M 269.5,420.5 C 275.167,420.5 280.833,420.5 286.5,420.5C 286.5,426.167 286.5,431.833 286.5,437.5C 280.833,437.5 275.167,437.5 269.5,437.5C 269.5,431.833 269.5,426.167 269.5,420.5 Z"/></g>
<g><path style="opacity:1" fill="#0d0f10" d="M 286.5,420.5 C 291.5,420.5 296.5,420.5 301.5,420.5C 301.5,426.5 301.5,432.5 301.5,438.5C 296.5,438.5 291.5,438.5 286.5,438.5C 286.5,438.167 286.5,437.833 286.5,437.5C 286.5,431.833 286.5,426.167 286.5,420.5 Z"/></g>
<g><path style="opacity:1" fill="#8a7b24" d="M 301.5,420.5 C 307.5,420.5 313.5,420.5 319.5,420.5C 319.5,426.5 319.5,432.5 319.5,438.5C 313.5,438.5 307.5,438.5 301.5,438.5C 301.5,432.5 301.5,426.5 301.5,420.5 Z"/></g>
<g><path style="opacity:1" fill="#255782" d="M 185.5,437.5 C 185.5,448.5 185.5,459.5 185.5,470.5C 185.5,476.5 185.5,482.5 185.5,488.5C 179.5,488.5 173.5,488.5 167.5,488.5C 167.5,471.5 167.5,454.5 167.5,437.5C 173.5,437.5 179.5,437.5 185.5,437.5 Z"/></g>
<g><path style="opacity:1" fill="#657c64" d="M 268.5,420.5 C 268.833,420.5 269.167,420.5 269.5,420.5C 269.5,426.167 269.5,431.833 269.5,437.5C 275.167,437.5 280.833,437.5 286.5,437.5C 286.5,437.833 286.5,438.167 286.5,438.5C 280.5,438.5 274.5,438.5 268.5,438.5C 268.5,432.5 268.5,426.5 268.5,420.5 Z"/></g>
<g><path style="opacity:1" fill="#255783" d="M 387.5,438.5 C 387.5,449.167 387.5,459.833 387.5,470.5C 381.833,470.5 376.167,470.5 370.5,470.5C 370.5,459.833 370.5,449.167 370.5,438.5C 376.167,438.5 381.833,438.5 387.5,438.5 Z"/></g>
<g><path style="opacity:1" fill="#255783" d="M 521.5,455.5 C 516.5,455.5 511.5,455.5 506.5,455.5C 506.5,449.833 506.5,444.167 506.5,438.5C 511.5,438.5 516.5,438.5 521.5,438.5C 521.5,444.167 521.5,449.833 521.5,455.5 Z"/></g>
<g><path style="opacity:1" fill="#2b82c0" d="M 235.5,455.5 C 235.833,455.5 236.167,455.5 236.5,455.5C 241.5,455.5 246.5,455.5 251.5,455.5C 251.5,460.5 251.5,465.5 251.5,470.5C 257.167,470.5 262.833,470.5 268.5,470.5C 268.177,476.69 268.51,482.69 269.5,488.5C 275.167,488.5 280.833,488.5 286.5,488.5C 291.5,488.5 296.5,488.5 301.5,488.5C 301.5,499.5 301.5,510.5 301.5,521.5C 296.5,521.5 291.5,521.5 286.5,521.5C 280.5,521.5 274.5,521.5 268.5,521.5C 268.5,527.167 268.5,532.833 268.5,538.5C 257.5,538.5 246.5,538.5 235.5,538.5C 235.5,544.5 235.5,550.5 235.5,556.5C 229.833,556.5 224.167,556.5 218.5,556.5C 218.5,544.833 218.5,533.167 218.5,521.5C 212.833,521.5 207.167,521.5 201.5,521.5C 201.5,516.167 201.5,510.833 201.5,505.5C 207.167,505.5 212.833,505.5 218.5,505.5C 218.5,499.833 218.5,494.167 218.5,488.5C 207.5,488.5 196.5,488.5 185.5,488.5C 185.5,482.5 185.5,476.5 185.5,470.5C 190.5,470.5 195.5,470.5 200.5,470.5C 200.5,465.5 200.5,460.5 200.5,455.5C 212.167,455.5 223.833,455.5 235.5,455.5 Z"/></g>
<g><path style="opacity:1" fill="#245682" d="M 251.5,455.5 C 257.5,455.5 263.5,455.5 269.5,455.5C 269.5,460.5 269.5,465.5 269.5,470.5C 275.358,470.178 281.025,470.511 286.5,471.5C 280.833,471.5 275.167,471.5 269.5,471.5C 269.5,477.167 269.5,482.833 269.5,488.5C 268.51,482.69 268.177,476.69 268.5,470.5C 262.833,470.5 257.167,470.5 251.5,470.5C 251.5,465.5 251.5,460.5 251.5,455.5 Z"/></g>
<g><path style="opacity:1" fill="#2a4960" d="M 505.5,455.5 C 505.833,455.5 506.167,455.5 506.5,455.5C 506.5,472.5 506.5,489.5 506.5,506.5C 500.5,506.5 494.5,506.5 488.5,506.5C 488.5,506.167 488.5,505.833 488.5,505.5C 494.167,505.5 499.833,505.5 505.5,505.5C 505.5,499.833 505.5,494.167 505.5,488.5C 505.5,477.5 505.5,466.5 505.5,455.5 Z"/></g>
<g><path style="opacity:1" fill="#0c0c0c" d="M 506.5,455.5 C 511.5,455.5 516.5,455.5 521.5,455.5C 521.5,460.5 521.5,465.5 521.5,470.5C 543.994,471.497 566.661,471.831 589.5,471.5C 589.5,477.167 589.5,482.833 589.5,488.5C 566.833,488.5 544.167,488.5 521.5,488.5C 521.5,494.5 521.5,500.5 521.5,506.5C 516.5,506.5 511.5,506.5 506.5,506.5C 506.5,489.5 506.5,472.5 506.5,455.5 Z"/></g>
<g><path style="opacity:1" fill="#24547e" d="M 606.5,455.5 C 606.5,460.833 606.5,466.167 606.5,471.5C 600.833,471.5 595.167,471.5 589.5,471.5C 566.661,471.831 543.994,471.497 521.5,470.5C 544.167,470.5 566.833,470.5 589.5,470.5C 589.5,465.5 589.5,460.5 589.5,455.5C 595.167,455.5 600.833,455.5 606.5,455.5 Z"/></g>
<g><path style="opacity:1" fill="#0b0c0b" d="M 286.5,471.5 C 286.5,477.167 286.5,482.833 286.5,488.5C 280.833,488.5 275.167,488.5 269.5,488.5C 269.5,482.833 269.5,477.167 269.5,471.5C 275.167,471.5 280.833,471.5 286.5,471.5 Z"/></g>
<g><path style="opacity:1" fill="#255783" d="M 286.5,471.5 C 291.5,471.5 296.5,471.5 301.5,471.5C 301.5,477.167 301.5,482.833 301.5,488.5C 296.5,488.5 291.5,488.5 286.5,488.5C 286.5,482.833 286.5,477.167 286.5,471.5 Z"/></g>
<g><path style="opacity:1" fill="#0c0c0c" d="M 370.5,470.5 C 376.167,470.5 381.833,470.5 387.5,470.5C 387.5,482.5 387.5,494.5 387.5,506.5C 393.167,506.5 398.833,506.5 404.5,506.5C 404.5,511.5 404.5,516.5 404.5,521.5C 381.833,521.5 359.167,521.5 336.5,521.5C 336.5,516.5 336.5,511.5 336.5,506.5C 347.833,506.5 359.167,506.5 370.5,506.5C 370.5,494.833 370.5,483.167 370.5,471.5C 370.5,471.167 370.5,470.833 370.5,470.5 Z"/></g>
<g><path style="opacity:1" fill="#2c82bf" d="M 387.5,470.5 C 393.425,470.192 399.259,470.525 405,471.5C 405.499,477.157 405.666,482.824 405.5,488.5C 416.167,488.5 426.833,488.5 437.5,488.5C 437.5,494.5 437.5,500.5 437.5,506.5C 454.5,506.5 471.5,506.5 488.5,506.5C 488.5,511.5 488.5,516.5 488.5,521.5C 482.5,521.5 476.5,521.5 470.5,521.5C 470.5,527.167 470.5,532.833 470.5,538.5C 476.5,538.5 482.5,538.5 488.5,538.5C 499.5,538.5 510.5,538.5 521.5,538.5C 521.5,538.833 521.5,539.167 521.5,539.5C 516.5,539.5 511.5,539.5 506.5,539.5C 500.5,539.5 494.5,539.5 488.5,539.5C 482.833,539.5 477.167,539.5 471.5,539.5C 471.5,550.167 471.5,560.833 471.5,571.5C 471.167,571.5 470.833,571.5 470.5,571.5C 470.5,566.5 470.5,561.5 470.5,556.5C 465.5,556.5 460.5,556.5 455.5,556.5C 455.5,550.833 455.5,545.167 455.5,539.5C 449.833,539.5 444.167,539.5 438.5,539.5C 438.5,550.167 438.5,560.833 438.5,571.5C 444.167,571.5 449.833,571.5 455.5,571.5C 455.5,571.833 455.5,572.167 455.5,572.5C 449.5,572.5 443.5,572.5 437.5,572.5C 437.5,567.167 437.5,561.833 437.5,556.5C 431.833,556.5 426.167,556.5 420.5,556.5C 420.5,550.833 420.5,545.167 420.5,539.5C 426.167,539.5 431.833,539.5 437.5,539.5C 437.5,533.5 437.5,527.5 437.5,521.5C 431.833,521.5 426.167,521.5 420.5,521.5C 415.167,521.5 409.833,521.5 404.5,521.5C 404.5,516.5 404.5,511.5 404.5,506.5C 398.833,506.5 393.167,506.5 387.5,506.5C 387.5,494.5 387.5,482.5 387.5,470.5 Z"/></g>
<g><path style="opacity:1" fill="#245681" d="M 185.5,488.5 C 196.5,488.5 207.5,488.5 218.5,488.5C 218.5,494.167 218.5,499.833 218.5,505.5C 212.833,505.5 207.167,505.5 201.5,505.5C 201.5,510.833 201.5,516.167 201.5,521.5C 201.167,521.5 200.833,521.5 200.5,521.5C 200.5,516.5 200.5,511.5 200.5,506.5C 195.5,506.5 190.5,506.5 185.5,506.5C 185.5,506.167 185.5,505.833 185.5,505.5C 185.5,499.833 185.5,494.167 185.5,488.5 Z"/></g>
<g><path style="opacity:1" fill="#0e0f11" d="M 301.5,488.5 C 307.5,488.5 313.5,488.5 319.5,488.5C 319.5,494.5 319.5,500.5 319.5,506.5C 319.5,511.5 319.5,516.5 319.5,521.5C 313.833,521.5 308.167,521.5 302.5,521.5C 302.167,521.5 301.833,521.5 301.5,521.5C 301.5,510.5 301.5,499.5 301.5,488.5 Z"/></g>
<g><path style="opacity:1" fill="#245680" d="M 370.5,471.5 C 370.5,483.167 370.5,494.833 370.5,506.5C 359.167,506.5 347.833,506.5 336.5,506.5C 330.833,506.5 325.167,506.5 319.5,506.5C 319.5,500.5 319.5,494.5 319.5,488.5C 325.5,488.5 331.5,488.5 337.5,488.5C 337.5,494.167 337.5,499.833 337.5,505.5C 348.167,505.5 358.833,505.5 369.5,505.5C 369.172,493.988 369.505,482.654 370.5,471.5 Z"/></g>
<g><path style="opacity:1" fill="#2b83c1" d="M 505.5,488.5 C 505.5,494.167 505.5,499.833 505.5,505.5C 499.833,505.5 494.167,505.5 488.5,505.5C 488.5,499.833 488.5,494.167 488.5,488.5C 494.167,488.5 499.833,488.5 505.5,488.5 Z"/></g>
<g><path style="opacity:1" fill="#0b0c0b" d="M 167.5,505.5 C 167.5,516.833 167.5,528.167 167.5,539.5C 161.833,539.5 156.167,539.5 150.5,539.5C 150.5,528.167 150.5,516.833 150.5,505.5C 156.167,505.5 161.833,505.5 167.5,505.5 Z"/></g>
<g><path style="opacity:1" fill="#2b83c1" d="M 168.5,505.5 C 174.167,505.5 179.833,505.5 185.5,505.5C 185.5,505.833 185.5,506.167 185.5,506.5C 185.5,511.5 185.5,516.5 185.5,521.5C 179.833,521.5 174.167,521.5 168.5,521.5C 168.5,516.167 168.5,510.833 168.5,505.5 Z"/></g>
<g><path style="opacity:1" fill="#0b0c0b" d="M 185.5,506.5 C 190.5,506.5 195.5,506.5 200.5,506.5C 200.5,511.5 200.5,516.5 200.5,521.5C 195.5,521.5 190.5,521.5 185.5,521.5C 185.5,516.5 185.5,511.5 185.5,506.5 Z"/></g>
<g><path style="opacity:1" fill="#255783" d="M 218.5,521.5 C 218.5,516.5 218.5,511.5 218.5,506.5C 229.5,506.5 240.5,506.5 251.5,506.5C 251.5,511.5 251.5,516.5 251.5,521.5C 240.5,521.5 229.5,521.5 218.5,521.5 Z"/></g>
<g><path style="opacity:1" fill="#0b0c0b" d="M 488.5,506.5 C 494.5,506.5 500.5,506.5 506.5,506.5C 506.5,511.5 506.5,516.5 506.5,521.5C 511.5,521.5 516.5,521.5 521.5,521.5C 521.5,527.167 521.5,532.833 521.5,538.5C 510.5,538.5 499.5,538.5 488.5,538.5C 488.5,532.833 488.5,527.167 488.5,521.5C 488.5,516.5 488.5,511.5 488.5,506.5 Z"/></g>
<g><path style="opacity:1" fill="#6aafe1" d="M 168.5,521.5 C 174.167,521.5 179.833,521.5 185.5,521.5C 185.5,527.167 185.5,532.833 185.5,538.5C 179.833,538.5 174.167,538.5 168.5,538.5C 168.5,532.833 168.5,527.167 168.5,521.5 Z"/></g>
<g><path style="opacity:1" fill="#3084c1" d="M 185.5,521.5 C 190.5,521.5 195.5,521.5 200.5,521.5C 200.833,521.5 201.167,521.5 201.5,521.5C 201.5,533.167 201.5,544.833 201.5,556.5C 201.167,556.5 200.833,556.5 200.5,556.5C 200.5,550.5 200.5,544.5 200.5,538.5C 195.5,538.5 190.5,538.5 185.5,538.5C 185.5,532.833 185.5,527.167 185.5,521.5 Z"/></g>
<g><path style="opacity:1" fill="#6aafe1" d="M 201.5,521.5 C 207.167,521.5 212.833,521.5 218.5,521.5C 218.5,533.167 218.5,544.833 218.5,556.5C 212.833,556.5 207.167,556.5 201.5,556.5C 201.5,544.833 201.5,533.167 201.5,521.5 Z"/></g>
<g><path style="opacity:1" fill="#0b0c0b" d="M 286.5,521.5 C 291.5,521.5 296.5,521.5 301.5,521.5C 301.833,521.5 302.167,521.5 302.5,521.5C 302.5,527.5 302.5,533.5 302.5,539.5C 297.167,539.5 291.833,539.5 286.5,539.5C 286.5,533.5 286.5,527.5 286.5,521.5 Z"/></g>
<g><path style="opacity:1" fill="#0c0d0d" d="M 404.5,521.5 C 409.833,521.5 415.167,521.5 420.5,521.5C 420.5,527.5 420.5,533.5 420.5,539.5C 420.5,545.167 420.5,550.833 420.5,556.5C 426.167,556.5 431.833,556.5 437.5,556.5C 437.5,561.833 437.5,567.167 437.5,572.5C 431.5,572.5 425.5,572.5 419.5,572.5C 419.5,567.5 419.5,562.5 419.5,557.5C 414.5,557.5 409.5,557.5 404.5,557.5C 404.5,545.5 404.5,533.5 404.5,521.5 Z"/></g>
<g><path style="opacity:1" fill="#255784" d="M 420.5,521.5 C 426.167,521.5 431.833,521.5 437.5,521.5C 437.5,527.5 437.5,533.5 437.5,539.5C 431.833,539.5 426.167,539.5 420.5,539.5C 420.5,533.5 420.5,527.5 420.5,521.5 Z"/></g>
<g><path style="opacity:1" fill="#255783" d="M 488.5,521.5 C 488.5,527.167 488.5,532.833 488.5,538.5C 482.5,538.5 476.5,538.5 470.5,538.5C 470.5,532.833 470.5,527.167 470.5,521.5C 476.5,521.5 482.5,521.5 488.5,521.5 Z"/></g>
<g><path style="opacity:1" fill="#0b0c0b" d="M 521.5,538.5 C 527.5,538.5 533.5,538.5 539.5,538.5C 539.5,549.833 539.5,561.167 539.5,572.5C 533.5,572.5 527.5,572.5 521.5,572.5C 521.5,572.167 521.5,571.833 521.5,571.5C 521.5,560.833 521.5,550.167 521.5,539.5C 521.5,539.167 521.5,538.833 521.5,538.5 Z"/></g>
<g><path style="opacity:1" fill="#0b0c0b" d="M 167.5,539.5 C 173.5,539.5 179.5,539.5 185.5,539.5C 185.5,545.5 185.5,551.5 185.5,557.5C 185.5,551.5 185.5,545.5 185.5,539.5C 179.5,539.5 173.5,539.5 167.5,539.5 Z"/></g>
<g><path style="opacity:1" fill="#275781" d="M 167.5,505.5 C 167.833,505.5 168.167,505.5 168.5,505.5C 168.5,510.833 168.5,516.167 168.5,521.5C 168.5,527.167 168.5,532.833 168.5,538.5C 174.167,538.5 179.833,538.5 185.5,538.5C 190.5,538.5 195.5,538.5 200.5,538.5C 200.5,544.5 200.5,550.5 200.5,556.5C 200.5,556.833 200.5,557.167 200.5,557.5C 195.5,557.5 190.5,557.5 185.5,557.5C 185.5,551.5 185.5,545.5 185.5,539.5C 179.5,539.5 173.5,539.5 167.5,539.5C 167.5,528.167 167.5,516.833 167.5,505.5 Z"/></g>
<g><path style="opacity:1" fill="#255783" d="M 286.5,521.5 C 286.5,527.5 286.5,533.5 286.5,539.5C 280.833,539.5 275.167,539.5 269.5,539.5C 263.5,539.5 257.5,539.5 251.5,539.5C 251.5,545.5 251.5,551.5 251.5,557.5C 246.5,557.5 241.5,557.5 236.5,557.5C 236.5,556.833 236.167,556.5 235.5,556.5C 235.5,550.5 235.5,544.5 235.5,538.5C 246.5,538.5 257.5,538.5 268.5,538.5C 268.5,532.833 268.5,527.167 268.5,521.5C 274.5,521.5 280.5,521.5 286.5,521.5 Z"/></g>
<g><path style="opacity:1" fill="#0b0c0b" d="M 269.5,539.5 C 269.5,545.5 269.5,551.5 269.5,557.5C 263.5,557.5 257.5,557.5 251.5,557.5C 251.5,551.5 251.5,545.5 251.5,539.5C 257.5,539.5 263.5,539.5 269.5,539.5 Z"/></g>
<g><path style="opacity:1" fill="#6aafe1" d="M 455.5,556.5 C 455.5,561.5 455.5,566.5 455.5,571.5C 449.833,571.5 444.167,571.5 438.5,571.5C 438.5,560.833 438.5,550.167 438.5,539.5C 444.167,539.5 449.833,539.5 455.5,539.5C 455.5,545.167 455.5,550.833 455.5,556.5 Z"/></g>
<g><path style="opacity:1" fill="#69aee0" d="M 488.5,539.5 C 488.5,545.167 488.5,550.833 488.5,556.5C 488.5,561.5 488.5,566.5 488.5,571.5C 482.833,571.5 477.167,571.5 471.5,571.5C 471.5,560.833 471.5,550.167 471.5,539.5C 477.167,539.5 482.833,539.5 488.5,539.5 Z"/></g>
<g><path style="opacity:1" fill="#2f84c1" d="M 488.5,539.5 C 494.5,539.5 500.5,539.5 506.5,539.5C 506.5,550.167 506.5,560.833 506.5,571.5C 505.513,566.695 505.179,561.695 505.5,556.5C 499.833,556.5 494.167,556.5 488.5,556.5C 488.5,550.833 488.5,545.167 488.5,539.5 Z"/></g>
<g><path style="opacity:1" fill="#68acdd" d="M 506.5,539.5 C 511.5,539.5 516.5,539.5 521.5,539.5C 521.5,550.167 521.5,560.833 521.5,571.5C 516.5,571.5 511.5,571.5 506.5,571.5C 506.5,560.833 506.5,550.167 506.5,539.5 Z"/></g>
<g><path style="opacity:1" fill="#0c0d0e" d="M 200.5,556.5 C 200.833,556.5 201.167,556.5 201.5,556.5C 207.167,556.5 212.833,556.5 218.5,556.5C 224.167,556.5 229.833,556.5 235.5,556.5C 236.167,556.5 236.5,556.833 236.5,557.5C 236.5,562.5 236.5,567.5 236.5,572.5C 224.5,572.5 212.5,572.5 200.5,572.5C 200.5,567.5 200.5,562.5 200.5,557.5C 200.5,557.167 200.5,556.833 200.5,556.5 Z"/></g>
<g><path style="opacity:1" fill="#255783" d="M 455.5,556.5 C 460.5,556.5 465.5,556.5 470.5,556.5C 470.5,561.5 470.5,566.5 470.5,571.5C 465.5,571.5 460.5,571.5 455.5,571.5C 455.5,566.5 455.5,561.5 455.5,556.5 Z"/></g>
<g><path style="opacity:1" fill="#26557d" d="M 488.5,556.5 C 494.167,556.5 499.833,556.5 505.5,556.5C 505.179,561.695 505.513,566.695 506.5,571.5C 511.5,571.5 516.5,571.5 521.5,571.5C 521.5,571.833 521.5,572.167 521.5,572.5C 499.5,572.5 477.5,572.5 455.5,572.5C 455.5,572.167 455.5,571.833 455.5,571.5C 460.5,571.5 465.5,571.5 470.5,571.5C 470.833,571.5 471.167,571.5 471.5,571.5C 477.167,571.5 482.833,571.5 488.5,571.5C 488.5,566.5 488.5,561.5 488.5,556.5 Z"/></g>
<g><path style="opacity:1" fill="#255783" d="M 437.5,572.5 C 443.5,572.5 449.5,572.5 455.5,572.5C 455.5,578.167 455.5,583.833 455.5,589.5C 449.5,589.5 443.5,589.5 437.5,589.5C 437.5,583.833 437.5,578.167 437.5,572.5 Z"/></g>
<g><path style="opacity:1" fill="#0b0c0b" d="M 455.5,572.5 C 477.5,572.5 499.5,572.5 521.5,572.5C 521.5,578.167 521.5,583.833 521.5,589.5C 499.5,589.5 477.5,589.5 455.5,589.5C 455.5,583.833 455.5,578.167 455.5,572.5 Z"/></g>
</svg>
