<?xml version="1.0" encoding="UTF-8"?>
<!DOCTYPE svg PUBLIC "-//W3C//DTD SVG 1.1//EN" "http://www.w3.org/Graphics/SVG/1.1/DTD/svg11.dtd">
<svg xmlns="http://www.w3.org/2000/svg" version="1.1" width="578px" height="590px" style="shape-rendering:geometricPrecision; text-rendering:geometricPrecision; image-rendering:optimizeQuality; fill-rule:evenodd; clip-rule:evenodd" xmlns:xlink="http://www.w3.org/1999/xlink">
<g><path style="opacity:1" fill="#3e5d12" d="M 345.5,37.5 C 359.5,37.5 373.5,37.5 387.5,37.5C 387.5,42.1667 387.5,46.8333 387.5,51.5C 373.5,51.5 359.5,51.5 345.5,51.5C 345.5,46.8333 345.5,42.1667 345.5,37.5 Z"/></g>
<g><path style="opacity:1" fill="#5d8824" d="M 345.5,37.5 C 345.5,42.1667 345.5,46.8333 345.5,51.5C 327.5,51.5 309.5,51.5 291.5,51.5C 291.167,51.5 290.833,51.5 290.5,51.5C 290.5,46.8333 290.5,42.1667 290.5,37.5C 308.833,37.5 327.167,37.5 345.5,37.5 Z"/></g>
<g><path style="opacity:1" fill="#5d8825" d="M 277.5,51.5 C 277.5,56.1667 277.5,60.8333 277.5,65.5C 263.833,65.5 250.167,65.5 236.5,65.5C 236.5,60.8333 236.5,56.1667 236.5,51.5C 250.167,51.5 263.833,51.5 277.5,51.5 Z"/></g>
<g><path style="opacity:1" fill="#7ce02b" d="M 277.5,51.5 C 281.833,51.5 286.167,51.5 290.5,51.5C 290.833,51.5 291.167,51.5 291.5,51.5C 322.996,52.4982 354.662,52.8315 386.5,52.5C 386.5,56.8333 386.5,61.1667 386.5,65.5C 354.833,65.5 323.167,65.5 291.5,65.5C 291.5,70.1667 291.5,74.8333 291.5,79.5C 277.833,79.5 264.167,79.5 250.5,79.5C 250.5,83.8333 250.5,88.1667 250.5,92.5C 236.833,92.5 223.167,92.5 209.5,92.5C 209.5,88.1667 209.5,83.8333 209.5,79.5C 218.5,79.5 227.5,79.5 236.5,79.5C 236.5,74.8333 236.5,70.1667 236.5,65.5C 250.167,65.5 263.833,65.5 277.5,65.5C 277.5,60.8333 277.5,56.1667 277.5,51.5 Z"/></g>
<g><path style="opacity:1" fill="#5e8f25" d="M 291.5,51.5 C 309.5,51.5 327.5,51.5 345.5,51.5C 359.5,51.5 373.5,51.5 387.5,51.5C 391.833,51.5 396.167,51.5 400.5,51.5C 400.5,56.1667 400.5,60.8333 400.5,65.5C 395.833,65.5 391.167,65.5 386.5,65.5C 386.5,61.1667 386.5,56.8333 386.5,52.5C 354.662,52.8315 322.996,52.4982 291.5,51.5 Z"/></g>
<g><path style="opacity:1" fill="#3d5d11" d="M 400.5,51.5 C 414.167,51.5 427.833,51.5 441.5,51.5C 441.5,56.1667 441.5,60.8333 441.5,65.5C 427.833,65.5 414.167,65.5 400.5,65.5C 400.5,60.8333 400.5,56.1667 400.5,51.5 Z"/></g>
<g><path style="opacity:1" fill="#5a8722" d="M 386.5,65.5 C 359.338,66.4979 332.005,66.8312 304.5,66.5C 304.231,70.9315 304.564,75.2648 305.5,79.5C 300.833,79.5 296.167,79.5 291.5,79.5C 291.5,74.8333 291.5,70.1667 291.5,65.5C 323.167,65.5 354.833,65.5 386.5,65.5 Z"/></g>
<g><path style="opacity:1" fill="#3e5e12" d="M 386.5,65.5 C 391.167,65.5 395.833,65.5 400.5,65.5C 400.5,70.1667 400.5,74.8333 400.5,79.5C 368.833,79.5 337.167,79.5 305.5,79.5C 304.564,75.2648 304.231,70.9315 304.5,66.5C 332.005,66.8312 359.338,66.4979 386.5,65.5 Z"/></g>
<g><path style="opacity:1" fill="#7bde2a" d="M 400.5,65.5 C 414.167,65.5 427.833,65.5 441.5,65.5C 441.5,70.1667 441.5,74.8333 441.5,79.5C 432.5,79.5 423.5,79.5 414.5,79.5C 409.833,79.5 405.167,79.5 400.5,79.5C 400.5,74.8333 400.5,70.1667 400.5,65.5 Z"/></g>
<g><path style="opacity:1" fill="#3e5d12" d="M 441.5,65.5 C 450.833,65.5 460.167,65.5 469.5,65.5C 469.5,69.8333 469.5,74.1667 469.5,78.5C 478.5,78.5 487.5,78.5 496.5,78.5C 496.5,83.1667 496.5,87.8333 496.5,92.5C 501.167,92.5 505.833,92.5 510.5,92.5C 510.5,97.1667 510.5,101.833 510.5,106.5C 514.833,106.5 519.167,106.5 523.5,106.5C 523.5,110.833 523.5,115.167 523.5,119.5C 519.03,120.486 514.363,120.819 509.5,120.5C 509.5,115.833 509.5,111.167 509.5,106.5C 505.167,106.5 500.833,106.5 496.5,106.5C 496.5,111.167 496.5,115.833 496.5,120.5C 491.833,120.5 487.167,120.5 482.5,120.5C 482.5,115.833 482.5,111.167 482.5,106.5C 477.833,106.5 473.167,106.5 468.5,106.5C 459.5,106.5 450.5,106.5 441.5,106.5C 441.5,102.167 441.5,97.8333 441.5,93.5C 450.682,93.8266 459.682,93.4933 468.5,92.5C 468.5,88.1667 468.5,83.8333 468.5,79.5C 459.5,79.5 450.5,79.5 441.5,79.5C 441.5,74.8333 441.5,70.1667 441.5,65.5 Z"/></g>
<g><path style="opacity:1" fill="#5d8925" d="M 236.5,65.5 C 236.5,70.1667 236.5,74.8333 236.5,79.5C 227.5,79.5 218.5,79.5 209.5,79.5C 209.5,83.8333 209.5,88.1667 209.5,92.5C 200.167,92.5 190.833,92.5 181.5,92.5C 181.5,87.8333 181.5,83.1667 181.5,78.5C 190.5,78.5 199.5,78.5 208.5,78.5C 208.5,74.1667 208.5,69.8333 208.5,65.5C 217.833,65.5 227.167,65.5 236.5,65.5 Z"/></g>
<g><path style="opacity:1" fill="#5d8925" d="M 291.5,79.5 C 291.5,83.8333 291.5,88.1667 291.5,92.5C 277.833,92.5 264.167,92.5 250.5,92.5C 250.5,88.1667 250.5,83.8333 250.5,79.5C 264.167,79.5 277.833,79.5 291.5,79.5 Z"/></g>
<g><path style="opacity:1" fill="#7ce02a" d="M 291.5,79.5 C 296.167,79.5 300.833,79.5 305.5,79.5C 337.167,79.5 368.833,79.5 400.5,79.5C 400.5,84.1667 400.5,88.8333 400.5,93.5C 414.167,93.5 427.833,93.5 441.5,93.5C 441.5,97.8333 441.5,102.167 441.5,106.5C 450.5,106.5 459.5,106.5 468.5,106.5C 468.5,111.167 468.5,115.833 468.5,120.5C 454.833,120.5 441.167,120.5 427.5,120.5C 427.5,124.833 427.5,129.167 427.5,133.5C 409.167,133.5 390.833,133.5 372.5,133.5C 372.5,138.167 372.5,142.833 372.5,147.5C 331.833,147.5 291.167,147.5 250.5,147.5C 245.833,147.5 241.167,147.5 236.5,147.5C 218.167,147.5 199.833,147.5 181.5,147.5C 177.167,147.5 172.833,147.5 168.5,147.5C 168.5,152.167 168.5,156.833 168.5,161.5C 163.833,161.5 159.167,161.5 154.5,161.5C 150.167,161.5 145.833,161.5 141.5,161.5C 141.5,156.833 141.5,152.167 141.5,147.5C 145.833,147.5 150.167,147.5 154.5,147.5C 154.5,138.5 154.5,129.5 154.5,120.5C 159.167,120.5 163.833,120.5 168.5,120.5C 168.5,124.833 168.5,129.167 168.5,133.5C 172.833,133.5 177.167,133.5 181.5,133.5C 182.485,129.366 182.818,125.032 182.5,120.5C 191.5,120.5 200.5,120.5 209.5,120.5C 209.5,115.833 209.5,111.167 209.5,106.5C 223.167,106.5 236.833,106.5 250.5,106.5C 250.5,102.167 250.5,97.8333 250.5,93.5C 264.344,93.829 278.01,93.4957 291.5,92.5C 291.5,88.1667 291.5,83.8333 291.5,79.5 Z"/></g>
<g><path style="opacity:1" fill="#5d8d24" d="M 400.5,79.5 C 405.167,79.5 409.833,79.5 414.5,79.5C 414.5,83.8333 414.5,88.1667 414.5,92.5C 423.5,92.5 432.5,92.5 441.5,92.5C 450.5,92.5 459.5,92.5 468.5,92.5C 459.682,93.4933 450.682,93.8266 441.5,93.5C 427.833,93.5 414.167,93.5 400.5,93.5C 400.5,88.8333 400.5,84.1667 400.5,79.5 Z"/></g>
<g><path style="opacity:1" fill="#3d5d11" d="M 414.5,79.5 C 423.5,79.5 432.5,79.5 441.5,79.5C 441.5,83.8333 441.5,88.1667 441.5,92.5C 432.5,92.5 423.5,92.5 414.5,92.5C 414.5,88.1667 414.5,83.8333 414.5,79.5 Z"/></g>
<g><path style="opacity:1" fill="#7ce12a" d="M 441.5,79.5 C 450.5,79.5 459.5,79.5 468.5,79.5C 468.5,83.8333 468.5,88.1667 468.5,92.5C 459.5,92.5 450.5,92.5 441.5,92.5C 441.5,88.1667 441.5,83.8333 441.5,79.5 Z"/></g>
<g><path style="opacity:1" fill="#6fb42b" d="M 181.5,92.5 C 190.833,92.5 200.167,92.5 209.5,92.5C 223.167,92.5 236.833,92.5 250.5,92.5C 264.167,92.5 277.833,92.5 291.5,92.5C 278.01,93.4957 264.344,93.829 250.5,93.5C 236.833,93.5 223.167,93.5 209.5,93.5C 200.5,93.5 191.5,93.5 182.5,93.5C 182.5,97.8333 182.5,102.167 182.5,106.5C 182.5,111.167 182.5,115.833 182.5,120.5C 182.818,125.032 182.485,129.366 181.5,133.5C 181.5,129.167 181.5,124.833 181.5,120.5C 181.5,115.833 181.5,111.167 181.5,106.5C 181.5,101.833 181.5,97.1667 181.5,92.5 Z"/></g>
<g><path style="opacity:1" fill="#5d8825" d="M 181.5,92.5 C 181.5,97.1667 181.5,101.833 181.5,106.5C 177.167,106.5 172.833,106.5 168.5,106.5C 168.167,106.5 167.833,106.5 167.5,106.5C 167.5,101.833 167.5,97.1667 167.5,92.5C 172.167,92.5 176.833,92.5 181.5,92.5 Z"/></g>
<g><path style="opacity:1" fill="#7de02b" d="M 209.5,93.5 C 209.5,97.8333 209.5,102.167 209.5,106.5C 200.5,106.5 191.5,106.5 182.5,106.5C 182.5,102.167 182.5,97.8333 182.5,93.5C 191.5,93.5 200.5,93.5 209.5,93.5 Z"/></g>
<g><path style="opacity:1" fill="#5d8925" d="M 209.5,93.5 C 223.167,93.5 236.833,93.5 250.5,93.5C 250.5,97.8333 250.5,102.167 250.5,106.5C 236.833,106.5 223.167,106.5 209.5,106.5C 209.5,102.167 209.5,97.8333 209.5,93.5 Z"/></g>
<g><path style="opacity:1" fill="#5c8924" d="M 482.5,106.5 C 482.5,102.167 482.5,97.8333 482.5,93.5C 486.833,93.5 491.167,93.5 495.5,93.5C 495.5,97.8333 495.5,102.167 495.5,106.5C 491.167,106.5 486.833,106.5 482.5,106.5 Z"/></g>
<g><path style="opacity:1" fill="#7de02b" d="M 168.5,106.5 C 172.833,106.5 177.167,106.5 181.5,106.5C 181.5,111.167 181.5,115.833 181.5,120.5C 177.167,120.5 172.833,120.5 168.5,120.5C 168.5,115.833 168.5,111.167 168.5,106.5 Z"/></g>
<g><path style="opacity:1" fill="#5e8a25" d="M 182.5,106.5 C 191.5,106.5 200.5,106.5 209.5,106.5C 209.5,111.167 209.5,115.833 209.5,120.5C 200.5,120.5 191.5,120.5 182.5,120.5C 182.5,115.833 182.5,111.167 182.5,106.5 Z"/></g>
<g><path style="opacity:1" fill="#63ae24" d="M 468.5,106.5 C 473.167,106.5 477.833,106.5 482.5,106.5C 482.5,111.167 482.5,115.833 482.5,120.5C 487.167,120.5 491.833,120.5 496.5,120.5C 496.5,124.833 496.5,129.167 496.5,133.5C 500.833,133.5 505.167,133.5 509.5,133.5C 518.318,134.493 527.318,134.827 536.5,134.5C 536.182,139.032 536.515,143.366 537.5,147.5C 541.833,147.5 546.167,147.5 550.5,147.5C 550.5,152.167 550.5,156.833 550.5,161.5C 550.5,166.167 550.5,170.833 550.5,175.5C 555.167,175.5 559.833,175.5 564.5,175.5C 564.5,184.167 564.5,192.833 564.5,201.5C 559.833,201.5 555.167,201.5 550.5,201.5C 550.5,197.167 550.5,192.833 550.5,188.5C 546.167,188.5 541.833,188.5 537.5,188.5C 532.833,188.5 528.167,188.5 523.5,188.5C 523.5,184.167 523.5,179.833 523.5,175.5C 518.833,175.5 514.167,175.5 509.5,175.5C 496.01,174.504 482.344,174.171 468.5,174.5C 468.5,179.167 468.5,183.833 468.5,188.5C 441.167,188.5 413.833,188.5 386.5,188.5C 377.5,188.5 368.5,188.5 359.5,188.5C 359.5,184.167 359.5,179.833 359.5,175.5C 354.833,175.5 350.167,175.5 345.5,175.5C 336.5,175.5 327.5,175.5 318.5,175.5C 314.167,175.5 309.833,175.5 305.5,175.5C 305.819,170.637 305.486,165.97 304.5,161.5C 295.5,161.5 286.5,161.5 277.5,161.5C 268.5,161.5 259.5,161.5 250.5,161.5C 250.5,156.833 250.5,152.167 250.5,147.5C 291.167,147.5 331.833,147.5 372.5,147.5C 372.5,142.833 372.5,138.167 372.5,133.5C 390.833,133.5 409.167,133.5 427.5,133.5C 427.5,129.167 427.5,124.833 427.5,120.5C 441.167,120.5 454.833,120.5 468.5,120.5C 468.5,115.833 468.5,111.167 468.5,106.5 Z"/></g>
<g><path style="opacity:1" fill="#000100" d="M 509.5,120.5 C 505.167,120.5 500.833,120.5 496.5,120.5C 496.5,115.833 496.5,111.167 496.5,106.5C 500.833,106.5 505.167,106.5 509.5,106.5C 509.5,111.167 509.5,115.833 509.5,120.5 Z"/></g>
<g><path style="opacity:1" fill="#3d5c12" d="M 167.5,106.5 C 167.833,106.5 168.167,106.5 168.5,106.5C 168.5,111.167 168.5,115.833 168.5,120.5C 163.833,120.5 159.167,120.5 154.5,120.5C 154.5,129.5 154.5,138.5 154.5,147.5C 150.167,147.5 145.833,147.5 141.5,147.5C 141.5,152.167 141.5,156.833 141.5,161.5C 141.5,170.5 141.5,179.5 141.5,188.5C 141.167,188.5 140.833,188.5 140.5,188.5C 140.5,179.5 140.5,170.5 140.5,161.5C 135.833,161.5 131.167,161.5 126.5,161.5C 126.5,156.833 126.5,152.167 126.5,147.5C 131.167,147.5 135.833,147.5 140.5,147.5C 140.5,138.167 140.5,128.833 140.5,119.5C 145.167,119.5 149.833,119.5 154.5,119.5C 154.5,115.167 154.5,110.833 154.5,106.5C 158.833,106.5 163.167,106.5 167.5,106.5 Z"/></g>
<g><path style="opacity:1" fill="#000100" d="M 523.5,119.5 C 528.167,119.5 532.833,119.5 537.5,119.5C 537.5,124.167 537.5,128.833 537.5,133.5C 528.167,133.5 518.833,133.5 509.5,133.5C 509.5,129.167 509.5,124.833 509.5,120.5C 514.363,120.819 519.03,120.486 523.5,119.5 Z"/></g>
<g><path style="opacity:1" fill="#5c8924" d="M 168.5,120.5 C 172.833,120.5 177.167,120.5 181.5,120.5C 181.5,124.833 181.5,129.167 181.5,133.5C 177.167,133.5 172.833,133.5 168.5,133.5C 168.5,129.167 168.5,124.833 168.5,120.5 Z"/></g>
<g><path style="opacity:1" fill="#3d5d11" d="M 496.5,120.5 C 500.833,120.5 505.167,120.5 509.5,120.5C 509.5,124.833 509.5,129.167 509.5,133.5C 505.167,133.5 500.833,133.5 496.5,133.5C 496.5,129.167 496.5,124.833 496.5,120.5 Z"/></g>
<g><path style="opacity:1" fill="#345b13" d="M 509.5,133.5 C 518.833,133.5 528.167,133.5 537.5,133.5C 537.5,138.167 537.5,142.833 537.5,147.5C 536.515,143.366 536.182,139.032 536.5,134.5C 527.318,134.827 518.318,134.493 509.5,133.5 Z"/></g>
<g><path style="opacity:1" fill="#000000" d="M 537.5,133.5 C 542.167,133.5 546.833,133.5 551.5,133.5C 551.5,138.167 551.5,142.833 551.5,147.5C 551.167,147.5 550.833,147.5 550.5,147.5C 546.167,147.5 541.833,147.5 537.5,147.5C 537.5,142.833 537.5,138.167 537.5,133.5 Z"/></g>
<g><path style="opacity:1" fill="#111b01" d="M 181.5,147.5 C 199.833,147.5 218.167,147.5 236.5,147.5C 236.5,147.833 236.5,148.167 236.5,148.5C 218.5,148.5 200.5,148.5 182.5,148.5C 182.5,152.833 182.5,157.167 182.5,161.5C 182.167,161.5 181.833,161.5 181.5,161.5C 181.5,156.833 181.5,152.167 181.5,147.5 Z"/></g>
<g><path style="opacity:1" fill="#030500" d="M 550.5,147.5 C 550.833,147.5 551.167,147.5 551.5,147.5C 555.833,147.5 560.167,147.5 564.5,147.5C 564.5,152.167 564.5,156.833 564.5,161.5C 560.167,161.5 555.833,161.5 551.5,161.5C 551.167,161.5 550.833,161.5 550.5,161.5C 550.5,156.833 550.5,152.167 550.5,147.5 Z"/></g>
<g><path style="opacity:1" fill="#3e5e12" d="M 181.5,147.5 C 181.5,152.167 181.5,156.833 181.5,161.5C 177.167,161.5 172.833,161.5 168.5,161.5C 168.5,156.833 168.5,152.167 168.5,147.5C 172.833,147.5 177.167,147.5 181.5,147.5 Z"/></g>
<g><path style="opacity:1" fill="#000000" d="M 236.5,148.5 C 236.5,152.833 236.5,157.167 236.5,161.5C 218.5,161.5 200.5,161.5 182.5,161.5C 182.5,157.167 182.5,152.833 182.5,148.5C 200.5,148.5 218.5,148.5 236.5,148.5 Z"/></g>
<g><path style="opacity:1" fill="#000000" d="M 126.5,161.5 C 131.167,161.5 135.833,161.5 140.5,161.5C 140.5,170.5 140.5,179.5 140.5,188.5C 136.167,188.5 131.833,188.5 127.5,188.5C 127.167,188.5 126.833,188.5 126.5,188.5C 126.5,179.5 126.5,170.5 126.5,161.5 Z"/></g>
<g><path style="opacity:1" fill="#5c8924" d="M 141.5,161.5 C 145.833,161.5 150.167,161.5 154.5,161.5C 154.5,170.5 154.5,179.5 154.5,188.5C 150.167,188.5 145.833,188.5 141.5,188.5C 141.5,179.5 141.5,170.5 141.5,161.5 Z"/></g>
<g><path style="opacity:1" fill="#010100" d="M 154.5,161.5 C 159.167,161.5 163.833,161.5 168.5,161.5C 168.5,165.833 168.5,170.167 168.5,174.5C 172.833,174.5 177.167,174.5 181.5,174.5C 181.5,179.167 181.5,183.833 181.5,188.5C 172.5,188.5 163.5,188.5 154.5,188.5C 154.5,179.5 154.5,170.5 154.5,161.5 Z"/></g>
<g><path style="opacity:1" fill="#3e5d12" d="M 236.5,147.5 C 241.167,147.5 245.833,147.5 250.5,147.5C 250.5,152.167 250.5,156.833 250.5,161.5C 259.5,161.5 268.5,161.5 277.5,161.5C 277.5,166.167 277.5,170.833 277.5,175.5C 268.167,175.5 258.833,175.5 249.5,175.5C 249.5,170.833 249.5,166.167 249.5,161.5C 245.167,161.5 240.833,161.5 236.5,161.5C 236.5,157.167 236.5,152.833 236.5,148.5C 236.5,148.167 236.5,147.833 236.5,147.5 Z"/></g>
<g><path style="opacity:1" fill="#000000" d="M 277.5,161.5 C 286.5,161.5 295.5,161.5 304.5,161.5C 304.5,166.167 304.5,170.833 304.5,175.5C 295.5,175.5 286.5,175.5 277.5,175.5C 277.5,170.833 277.5,166.167 277.5,161.5 Z"/></g>
<g><path style="opacity:1" fill="#3d5d11" d="M 551.5,161.5 C 555.833,161.5 560.167,161.5 564.5,161.5C 564.5,165.833 564.5,170.167 564.5,174.5C 560.167,174.5 555.833,174.5 551.5,174.5C 551.5,170.167 551.5,165.833 551.5,161.5 Z"/></g>
<g><path style="opacity:1" fill="#3b5411" d="M 181.5,174.5 C 186.5,174.5 191.5,174.5 196.5,174.5C 196.5,179.167 196.5,183.833 196.5,188.5C 196.167,188.5 195.833,188.5 195.5,188.5C 190.833,188.5 186.167,188.5 181.5,188.5C 181.5,183.833 181.5,179.167 181.5,174.5 Z"/></g>
<g><path style="opacity:1" fill="#457419" d="M 509.5,175.5 C 500.5,175.5 491.5,175.5 482.5,175.5C 478.167,175.5 473.833,175.5 469.5,175.5C 469.5,179.833 469.5,184.167 469.5,188.5C 469.167,188.5 468.833,188.5 468.5,188.5C 468.5,183.833 468.5,179.167 468.5,174.5C 482.344,174.171 496.01,174.504 509.5,175.5 Z"/></g>
<g><path style="opacity:1" fill="#4f821c" d="M 550.5,161.5 C 550.833,161.5 551.167,161.5 551.5,161.5C 551.5,165.833 551.5,170.167 551.5,174.5C 555.833,174.5 560.167,174.5 564.5,174.5C 564.5,174.833 564.5,175.167 564.5,175.5C 559.833,175.5 555.167,175.5 550.5,175.5C 550.5,170.833 550.5,166.167 550.5,161.5 Z"/></g>
<g><path style="opacity:1" fill="#000000" d="M 564.5,174.5 C 568.833,174.5 573.167,174.5 577.5,174.5C 577.5,183.833 577.5,193.167 577.5,202.5C 573.167,202.5 568.833,202.5 564.5,202.5C 564.5,202.167 564.5,201.833 564.5,201.5C 564.5,192.833 564.5,184.167 564.5,175.5C 564.5,175.167 564.5,174.833 564.5,174.5 Z"/></g>
<g><path style="opacity:1" fill="#3d5d11" d="M 304.5,161.5 C 305.486,165.97 305.819,170.637 305.5,175.5C 309.833,175.5 314.167,175.5 318.5,175.5C 318.5,180.167 318.5,184.833 318.5,189.5C 313.833,189.5 309.167,189.5 304.5,189.5C 304.5,184.833 304.5,180.167 304.5,175.5C 304.5,170.833 304.5,166.167 304.5,161.5 Z"/></g>
<g><path style="opacity:1" fill="#000000" d="M 318.5,175.5 C 327.5,175.5 336.5,175.5 345.5,175.5C 345.5,180.167 345.5,184.833 345.5,189.5C 336.5,189.5 327.5,189.5 318.5,189.5C 318.5,184.833 318.5,180.167 318.5,175.5 Z"/></g>
<g><path style="opacity:1" fill="#3e5d12" d="M 482.5,175.5 C 482.5,180.167 482.5,184.833 482.5,189.5C 478.167,189.5 473.833,189.5 469.5,189.5C 469.5,189.167 469.5,188.833 469.5,188.5C 469.5,184.167 469.5,179.833 469.5,175.5C 473.833,175.5 478.167,175.5 482.5,175.5 Z"/></g>
<g><path style="opacity:1" fill="#000000" d="M 482.5,175.5 C 491.5,175.5 500.5,175.5 509.5,175.5C 509.5,180.167 509.5,184.833 509.5,189.5C 500.5,189.5 491.5,189.5 482.5,189.5C 482.5,184.833 482.5,180.167 482.5,175.5 Z"/></g>
<g><path style="opacity:1" fill="#3d5c12" d="M 509.5,175.5 C 514.167,175.5 518.833,175.5 523.5,175.5C 523.5,179.833 523.5,184.167 523.5,188.5C 522.833,188.5 522.5,188.833 522.5,189.5C 518.167,189.5 513.833,189.5 509.5,189.5C 509.5,184.833 509.5,180.167 509.5,175.5 Z"/></g>
<g><path style="opacity:1" fill="#3e5612" d="M 196.5,188.5 C 205.5,188.5 214.5,188.5 223.5,188.5C 223.5,192.833 223.5,197.167 223.5,201.5C 214.5,201.5 205.5,201.5 196.5,201.5C 196.5,197.167 196.5,192.833 196.5,188.5 Z"/></g>
<g><path style="opacity:1" fill="#7f9052" d="M 126.5,188.5 C 126.833,188.5 127.167,188.5 127.5,188.5C 127.5,193.167 127.5,197.833 127.5,202.5C 118.167,202.5 108.833,202.5 99.5,202.5C 99.5,206.833 99.5,211.167 99.5,215.5C 95.1667,215.5 90.8333,215.5 86.5,215.5C 86.5,210.833 86.5,206.167 86.5,201.5C 90.8333,201.5 95.1667,201.5 99.5,201.5C 99.5,197.167 99.5,192.833 99.5,188.5C 108.5,188.5 117.5,188.5 126.5,188.5 Z"/></g>
<g><path style="opacity:1" fill="#d3f288" d="M 127.5,188.5 C 131.833,188.5 136.167,188.5 140.5,188.5C 140.833,188.5 141.167,188.5 141.5,188.5C 145.833,188.5 150.167,188.5 154.5,188.5C 163.5,188.5 172.5,188.5 181.5,188.5C 186.167,188.5 190.833,188.5 195.5,188.5C 195.5,193.167 195.5,197.833 195.5,202.5C 204.5,202.5 213.5,202.5 222.5,202.5C 222.182,207.032 222.515,211.366 223.5,215.5C 227.833,215.5 232.167,215.5 236.5,215.5C 236.5,220.167 236.5,224.833 236.5,229.5C 241.167,229.5 245.833,229.5 250.5,229.5C 250.5,234.167 250.5,238.833 250.5,243.5C 250.5,247.833 250.5,252.167 250.5,256.5C 254.833,256.5 259.167,256.5 263.5,256.5C 263.5,274.833 263.5,293.167 263.5,311.5C 268.167,311.5 272.833,311.5 277.5,311.5C 277.5,320.5 277.5,329.5 277.5,338.5C 277.5,343.167 277.5,347.833 277.5,352.5C 281.833,352.5 286.167,352.5 290.5,352.5C 290.182,357.032 290.515,361.366 291.5,365.5C 291.5,365.833 291.5,366.167 291.5,366.5C 286.833,366.5 282.167,366.5 277.5,366.5C 277.5,370.833 277.5,375.167 277.5,379.5C 277.5,384.167 277.5,388.833 277.5,393.5C 282.167,393.5 286.833,393.5 291.5,393.5C 295.833,393.5 300.167,393.5 304.5,393.5C 305.485,389.366 305.818,385.032 305.5,380.5C 309.833,380.5 314.167,380.5 318.5,380.5C 318.5,384.833 318.5,389.167 318.5,393.5C 323.167,393.5 327.833,393.5 332.5,393.5C 332.5,397.833 332.5,402.167 332.5,406.5C 341.318,407.493 350.318,407.827 359.5,407.5C 359.5,402.833 359.5,398.167 359.5,393.5C 373.167,393.5 386.833,393.5 400.5,393.5C 400.5,398.167 400.5,402.833 400.5,407.5C 400.5,416.5 400.5,425.5 400.5,434.5C 395.833,434.5 391.167,434.5 386.5,434.5C 386.5,438.833 386.5,443.167 386.5,447.5C 386.5,456.833 386.5,466.167 386.5,475.5C 382.167,475.5 377.833,475.5 373.5,475.5C 373.5,480.167 373.5,484.833 373.5,489.5C 368.833,489.5 364.167,489.5 359.5,489.5C 359.5,493.833 359.5,498.167 359.5,502.5C 354.833,502.5 350.167,502.5 345.5,502.5C 345.5,507.167 345.5,511.833 345.5,516.5C 336.5,516.5 327.5,516.5 318.5,516.5C 318.5,521.167 318.5,525.833 318.5,530.5C 314.167,530.5 309.833,530.5 305.5,530.5C 305.5,534.833 305.5,539.167 305.5,543.5C 300.833,543.5 296.167,543.5 291.5,543.5C 291.5,548.167 291.5,552.833 291.5,557.5C 291.5,562.167 291.5,566.833 291.5,571.5C 291.5,577.5 291.5,583.5 291.5,589.5C 268.833,589.5 246.167,589.5 223.5,589.5C 223.823,583.31 223.49,577.31 222.5,571.5C 218.366,570.515 214.032,570.182 209.5,570.5C 209.5,561.5 209.5,552.5 209.5,543.5C 204.833,543.5 200.167,543.5 195.5,543.5C 195.5,547.833 195.5,552.167 195.5,556.5C 186.5,556.5 177.5,556.5 168.5,556.5C 168.5,552.167 168.5,547.833 168.5,543.5C 159.5,543.5 150.5,543.5 141.5,543.5C 141.5,538.833 141.5,534.167 141.5,529.5C 136.833,529.5 132.167,529.5 127.5,529.5C 127.5,525.167 127.5,520.833 127.5,516.5C 122.833,516.5 118.167,516.5 113.5,516.5C 113.5,521.167 113.5,525.833 113.5,530.5C 104.5,530.5 95.5,530.5 86.5,530.5C 86.5,525.833 86.5,521.167 86.5,516.5C 86.5,502.833 86.5,489.167 86.5,475.5C 86.5,470.833 86.5,466.167 86.5,461.5C 90.8333,461.5 95.1667,461.5 99.5,461.5C 100.493,452.682 100.827,443.682 100.5,434.5C 95.8333,434.5 91.1667,434.5 86.5,434.5C 82.1667,434.5 77.8333,434.5 73.5,434.5C 73.1667,434.5 72.8333,434.5 72.5,434.5C 72.5,429.833 72.5,425.167 72.5,420.5C 72.5,416.167 72.5,411.833 72.5,407.5C 68.1667,407.5 63.8333,407.5 59.5,407.5C 59.5,389.167 59.5,370.833 59.5,352.5C 63.8333,352.5 68.1667,352.5 72.5,352.5C 72.5,347.833 72.5,343.167 72.5,338.5C 72.5,320.5 72.5,302.5 72.5,284.5C 72.5,279.833 72.5,275.167 72.5,270.5C 72.5,265.833 72.5,261.167 72.5,256.5C 77.1667,256.5 81.8333,256.5 86.5,256.5C 86.5,261.167 86.5,265.833 86.5,270.5C 100.167,270.5 113.833,270.5 127.5,270.5C 127.5,266.167 127.5,261.833 127.5,257.5C 132.167,257.5 136.833,257.5 141.5,257.5C 141.5,252.833 141.5,248.167 141.5,243.5C 145.833,243.5 150.167,243.5 154.5,243.5C 154.5,234.167 154.5,224.833 154.5,215.5C 150.167,215.5 145.833,215.5 141.5,215.5C 141.5,211.167 141.5,206.833 141.5,202.5C 136.833,202.5 132.167,202.5 127.5,202.5C 127.5,197.833 127.5,193.167 127.5,188.5 Z"/></g>
<g><path style="opacity:1" fill="#3d5d12" d="M 345.5,175.5 C 350.167,175.5 354.833,175.5 359.5,175.5C 359.5,179.833 359.5,184.167 359.5,188.5C 368.5,188.5 377.5,188.5 386.5,188.5C 386.5,193.167 386.5,197.833 386.5,202.5C 377.5,202.5 368.5,202.5 359.5,202.5C 359.5,198.167 359.5,193.833 359.5,189.5C 354.833,189.5 350.167,189.5 345.5,189.5C 345.5,184.833 345.5,180.167 345.5,175.5 Z"/></g>
<g><path style="opacity:1" fill="#010100" d="M 386.5,188.5 C 413.833,188.5 441.167,188.5 468.5,188.5C 468.833,188.5 469.167,188.5 469.5,188.5C 469.5,188.833 469.5,189.167 469.5,189.5C 469.5,193.833 469.5,198.167 469.5,202.5C 441.833,202.5 414.167,202.5 386.5,202.5C 386.5,197.833 386.5,193.167 386.5,188.5 Z"/></g>
<g><path style="opacity:1" fill="#020400" d="M 523.5,188.5 C 528.167,188.5 532.833,188.5 537.5,188.5C 537.5,193.167 537.5,197.833 537.5,202.5C 532.5,202.5 527.5,202.5 522.5,202.5C 522.5,198.167 522.5,193.833 522.5,189.5C 522.5,188.833 522.833,188.5 523.5,188.5 Z"/></g>
<g><path style="opacity:1" fill="#3f6012" d="M 537.5,188.5 C 541.833,188.5 546.167,188.5 550.5,188.5C 550.5,192.833 550.5,197.167 550.5,201.5C 555.167,201.5 559.833,201.5 564.5,201.5C 564.5,201.833 564.5,202.167 564.5,202.5C 559.833,202.5 555.167,202.5 550.5,202.5C 546.167,202.5 541.833,202.5 537.5,202.5C 537.5,197.833 537.5,193.167 537.5,188.5 Z"/></g>
<g><path style="opacity:1" fill="#6b8436" d="M 195.5,188.5 C 195.833,188.5 196.167,188.5 196.5,188.5C 196.5,192.833 196.5,197.167 196.5,201.5C 205.5,201.5 214.5,201.5 223.5,201.5C 223.5,206.167 223.5,210.833 223.5,215.5C 222.515,211.366 222.182,207.032 222.5,202.5C 213.5,202.5 204.5,202.5 195.5,202.5C 195.5,197.833 195.5,193.167 195.5,188.5 Z"/></g>
<g><path style="opacity:1" fill="#ecf9c0" d="M 127.5,202.5 C 132.167,202.5 136.833,202.5 141.5,202.5C 141.5,206.833 141.5,211.167 141.5,215.5C 145.833,215.5 150.167,215.5 154.5,215.5C 154.5,224.833 154.5,234.167 154.5,243.5C 150.167,243.5 145.833,243.5 141.5,243.5C 141.5,248.167 141.5,252.833 141.5,257.5C 136.833,257.5 132.167,257.5 127.5,257.5C 127.5,261.833 127.5,266.167 127.5,270.5C 113.833,270.5 100.167,270.5 86.5,270.5C 86.5,265.833 86.5,261.167 86.5,256.5C 81.8333,256.5 77.1667,256.5 72.5,256.5C 72.5,252.167 72.5,247.833 72.5,243.5C 72.8333,243.5 73.1667,243.5 73.5,243.5C 77.8333,243.5 82.1667,243.5 86.5,243.5C 86.5,238.833 86.5,234.167 86.5,229.5C 86.5,224.833 86.5,220.167 86.5,215.5C 90.8333,215.5 95.1667,215.5 99.5,215.5C 99.5,211.167 99.5,206.833 99.5,202.5C 108.833,202.5 118.167,202.5 127.5,202.5 Z"/></g>
<g><path style="opacity:1" fill="#000000" d="M 550.5,202.5 C 555.167,202.5 559.833,202.5 564.5,202.5C 564.5,207.167 564.5,211.833 564.5,216.5C 559.833,216.5 555.167,216.5 550.5,216.5C 550.5,211.833 550.5,207.167 550.5,202.5 Z"/></g>
<g><path style="opacity:1" fill="#3d5d11" d="M 564.5,202.5 C 568.833,202.5 573.167,202.5 577.5,202.5C 577.5,207.167 577.5,211.833 577.5,216.5C 573.167,216.5 568.833,216.5 564.5,216.5C 564.5,211.833 564.5,207.167 564.5,202.5 Z"/></g>
<g><path style="opacity:1" fill="#afc965" d="M 86.5,215.5 C 86.5,220.167 86.5,224.833 86.5,229.5C 82.1667,229.5 77.8333,229.5 73.5,229.5C 73.5,234.167 73.5,238.833 73.5,243.5C 73.1667,243.5 72.8333,243.5 72.5,243.5C 72.5,238.833 72.5,234.167 72.5,229.5C 72.5,224.833 72.5,220.167 72.5,215.5C 77.1667,215.5 81.8333,215.5 86.5,215.5 Z"/></g>
<g><path style="opacity:1" fill="#3e5712" d="M 223.5,201.5 C 228.167,201.5 232.833,201.5 237.5,201.5C 237.5,206.167 237.5,210.833 237.5,215.5C 241.833,215.5 246.167,215.5 250.5,215.5C 250.5,220.167 250.5,224.833 250.5,229.5C 245.833,229.5 241.167,229.5 236.5,229.5C 236.5,224.833 236.5,220.167 236.5,215.5C 232.167,215.5 227.833,215.5 223.5,215.5C 223.5,210.833 223.5,206.167 223.5,201.5 Z"/></g>
<g><path style="opacity:1" fill="#3e5713" d="M 250.5,229.5 C 255.167,229.5 259.833,229.5 264.5,229.5C 264.5,234.167 264.5,238.833 264.5,243.5C 259.833,243.5 255.167,243.5 250.5,243.5C 250.5,238.833 250.5,234.167 250.5,229.5 Z"/></g>
<g><path style="opacity:1" fill="#7e8f51" d="M 72.5,229.5 C 72.5,234.167 72.5,238.833 72.5,243.5C 67.8333,243.5 63.1667,243.5 58.5,243.5C 58.5,238.833 58.5,234.167 58.5,229.5C 63.1667,229.5 67.8333,229.5 72.5,229.5 Z"/></g>
<g><path style="opacity:1" fill="#d4f289" d="M 86.5,229.5 C 86.5,234.167 86.5,238.833 86.5,243.5C 82.1667,243.5 77.8333,243.5 73.5,243.5C 73.5,238.833 73.5,234.167 73.5,229.5C 77.8333,229.5 82.1667,229.5 86.5,229.5 Z"/></g>
<g><path style="opacity:1" fill="#aec863" d="M 58.5,243.5 C 63.1667,243.5 67.8333,243.5 72.5,243.5C 72.5,247.833 72.5,252.167 72.5,256.5C 68.1667,256.5 63.8333,256.5 59.5,256.5C 59.1667,256.5 58.8333,256.5 58.5,256.5C 58.5,252.167 58.5,247.833 58.5,243.5 Z"/></g>
<g><path style="opacity:1" fill="#7f9152" d="M 209.5,256.5 C 200.494,256.334 191.494,256.5 182.5,257C 181.533,261.401 181.2,265.901 181.5,270.5C 177.167,270.5 172.833,270.5 168.5,270.5C 168.5,265.833 168.5,261.167 168.5,256.5C 172.833,256.5 177.167,256.5 181.5,256.5C 181.5,252.167 181.5,247.833 181.5,243.5C 190.833,243.5 200.167,243.5 209.5,243.5C 209.5,247.833 209.5,252.167 209.5,256.5 Z"/></g>
<g><path style="opacity:1" fill="#7c8f50" d="M 250.5,243.5 C 255.167,243.5 259.833,243.5 264.5,243.5C 264.5,247.833 264.5,252.167 264.5,256.5C 264.167,256.5 263.833,256.5 263.5,256.5C 259.167,256.5 254.833,256.5 250.5,256.5C 250.5,252.167 250.5,247.833 250.5,243.5 Z"/></g>
<g><path style="opacity:1" fill="#c1bab9" d="M 58.5,256.5 C 58.8333,256.5 59.1667,256.5 59.5,256.5C 59.5,261.167 59.5,265.833 59.5,270.5C 59.5,275.167 59.5,279.833 59.5,284.5C 59.5,302.5 59.5,320.5 59.5,338.5C 59.1667,338.5 58.8333,338.5 58.5,338.5C 58.5,329.5 58.5,320.5 58.5,311.5C 58.5,302.5 58.5,293.5 58.5,284.5C 54.1667,284.5 49.8333,284.5 45.5,284.5C 45.5,275.167 45.5,265.833 45.5,256.5C 49.8333,256.5 54.1667,256.5 58.5,256.5 Z"/></g>
<g><path style="opacity:1" fill="#3e5611" d="M 264.5,256.5 C 269.167,256.5 273.833,256.5 278.5,256.5C 278.5,270.167 278.5,283.833 278.5,297.5C 273.833,297.5 269.167,297.5 264.5,297.5C 264.5,283.833 264.5,270.167 264.5,256.5 Z"/></g>
<g><path style="opacity:1" fill="#7e9051" d="M 59.5,256.5 C 63.8333,256.5 68.1667,256.5 72.5,256.5C 72.5,261.167 72.5,265.833 72.5,270.5C 68.1667,270.5 63.8333,270.5 59.5,270.5C 59.5,265.833 59.5,261.167 59.5,256.5 Z"/></g>
<g><path style="opacity:1" fill="#bfc0bb" d="M 209.5,256.5 C 209.5,256.833 209.5,257.167 209.5,257.5C 204.833,257.5 200.167,257.5 195.5,257.5C 195.5,261.833 195.5,266.167 195.5,270.5C 190.833,270.5 186.167,270.5 181.5,270.5C 181.2,265.901 181.533,261.401 182.5,257C 191.494,256.5 200.494,256.334 209.5,256.5 Z"/></g>
<g><path style="opacity:1" fill="#f9f6f6" d="M 209.5,257.5 C 209.5,261.833 209.5,266.167 209.5,270.5C 209.5,275.167 209.5,279.833 209.5,284.5C 204.833,284.5 200.167,284.5 195.5,284.5C 195.5,279.833 195.5,275.167 195.5,270.5C 195.5,266.167 195.5,261.833 195.5,257.5C 200.167,257.5 204.833,257.5 209.5,257.5 Z"/></g>
<g><path style="opacity:1" fill="#7c8f50" d="M 209.5,257.5 C 213.833,257.5 218.167,257.5 222.5,257.5C 222.5,261.833 222.5,266.167 222.5,270.5C 218.167,270.5 213.833,270.5 209.5,270.5C 209.5,266.167 209.5,261.833 209.5,257.5 Z"/></g>
<g><path style="opacity:1" fill="#a4bd68" d="M 209.5,257.5 C 209.5,257.167 209.5,256.833 209.5,256.5C 214.167,256.5 218.833,256.5 223.5,256.5C 223.5,261.167 223.5,265.833 223.5,270.5C 223.167,270.5 222.833,270.5 222.5,270.5C 222.5,266.167 222.5,261.833 222.5,257.5C 218.167,257.5 213.833,257.5 209.5,257.5 Z"/></g>
<g><path style="opacity:1" fill="#5e3d56" d="M 59.5,270.5 C 63.8333,270.5 68.1667,270.5 72.5,270.5C 72.5,275.167 72.5,279.833 72.5,284.5C 68.1667,284.5 63.8333,284.5 59.5,284.5C 59.5,279.833 59.5,275.167 59.5,270.5 Z"/></g>
<g><path style="opacity:1" fill="#c02524" d="M 168.5,270.5 C 172.833,270.5 177.167,270.5 181.5,270.5C 181.5,274.833 181.5,279.167 181.5,283.5C 177.167,283.5 172.833,283.5 168.5,283.5C 168.5,279.167 168.5,274.833 168.5,270.5 Z"/></g>
<g><path style="opacity:1" fill="#e97574" d="M 181.5,270.5 C 186.167,270.5 190.833,270.5 195.5,270.5C 195.5,275.167 195.5,279.833 195.5,284.5C 191.167,284.5 186.833,284.5 182.5,284.5C 182.5,293.5 182.5,302.5 182.5,311.5C 182.167,311.5 181.833,311.5 181.5,311.5C 181.5,302.5 181.5,293.5 181.5,284.5C 177.167,284.5 172.833,284.5 168.5,284.5C 168.5,284.167 168.5,283.833 168.5,283.5C 172.833,283.5 177.167,283.5 181.5,283.5C 181.5,279.167 181.5,274.833 181.5,270.5 Z"/></g>
<g><path style="opacity:1" fill="#c0c1c0" d="M 209.5,270.5 C 213.833,270.5 218.167,270.5 222.5,270.5C 222.833,270.5 223.167,270.5 223.5,270.5C 227.833,270.5 232.167,270.5 236.5,270.5C 236.5,275.167 236.5,279.833 236.5,284.5C 232.167,284.5 227.833,284.5 223.5,284.5C 223.167,284.5 222.833,284.5 222.5,284.5C 218.167,284.5 213.833,284.5 209.5,284.5C 209.5,279.833 209.5,275.167 209.5,270.5 Z"/></g>
<g><path style="opacity:1" fill="#f9faf9" d="M 45.5,284.5 C 49.8333,284.5 54.1667,284.5 58.5,284.5C 58.5,293.5 58.5,302.5 58.5,311.5C 54.1667,311.5 49.8333,311.5 45.5,311.5C 45.5,302.5 45.5,293.5 45.5,284.5 Z"/></g>
<g><path style="opacity:1" fill="#c02524" d="M 59.5,284.5 C 63.8333,284.5 68.1667,284.5 72.5,284.5C 72.5,302.5 72.5,320.5 72.5,338.5C 68.1667,338.5 63.8333,338.5 59.5,338.5C 59.5,320.5 59.5,302.5 59.5,284.5 Z"/></g>
<g><path style="opacity:1" fill="#f9faf9" d="M 168.5,284.5 C 172.833,284.5 177.167,284.5 181.5,284.5C 181.5,293.5 181.5,302.5 181.5,311.5C 177.167,311.5 172.833,311.5 168.5,311.5C 168.5,302.5 168.5,293.5 168.5,284.5 Z"/></g>
<g><path style="opacity:1" fill="#c12626" d="M 195.5,284.5 C 195.5,288.833 195.5,293.167 195.5,297.5C 200.167,297.5 204.833,297.5 209.5,297.5C 209.5,306.833 209.5,316.167 209.5,325.5C 204.833,325.5 200.167,325.5 195.5,325.5C 195.5,329.833 195.5,334.167 195.5,338.5C 191.167,338.5 186.833,338.5 182.5,338.5C 182.5,329.5 182.5,320.5 182.5,311.5C 182.5,302.5 182.5,293.5 182.5,284.5C 186.833,284.5 191.167,284.5 195.5,284.5 Z"/></g>
<g><path style="opacity:1" fill="#ec7676" d="M 195.5,284.5 C 200.167,284.5 204.833,284.5 209.5,284.5C 209.5,288.833 209.5,293.167 209.5,297.5C 204.833,297.5 200.167,297.5 195.5,297.5C 195.5,293.167 195.5,288.833 195.5,284.5 Z"/></g>
<g><path style="opacity:1" fill="#f9faf9" d="M 209.5,284.5 C 213.833,284.5 218.167,284.5 222.5,284.5C 222.5,302.5 222.5,320.5 222.5,338.5C 218.167,338.5 213.833,338.5 209.5,338.5C 209.5,334.167 209.5,329.833 209.5,325.5C 209.5,316.167 209.5,306.833 209.5,297.5C 209.5,293.167 209.5,288.833 209.5,284.5 Z"/></g>
<g><path style="opacity:1" fill="#7c8f50" d="M 223.5,284.5 C 227.833,284.5 232.167,284.5 236.5,284.5C 236.5,288.833 236.5,293.167 236.5,297.5C 232.167,297.5 227.833,297.5 223.5,297.5C 223.5,293.167 223.5,288.833 223.5,284.5 Z"/></g>
<g><path style="opacity:1" fill="#aeba94" d="M 222.5,284.5 C 222.833,284.5 223.167,284.5 223.5,284.5C 223.5,288.833 223.5,293.167 223.5,297.5C 223.5,306.833 223.5,316.167 223.5,325.5C 223.5,329.833 223.5,334.167 223.5,338.5C 219.03,339.486 214.363,339.819 209.5,339.5C 209.5,339.167 209.5,338.833 209.5,338.5C 213.833,338.5 218.167,338.5 222.5,338.5C 222.5,320.5 222.5,302.5 222.5,284.5 Z"/></g>
<g><path style="opacity:1" fill="#3f5813" d="M 223.5,297.5 C 227.833,297.5 232.167,297.5 236.5,297.5C 236.5,306.833 236.5,316.167 236.5,325.5C 232.167,325.5 227.833,325.5 223.5,325.5C 223.5,316.167 223.5,306.833 223.5,297.5 Z"/></g>
<g><path style="opacity:1" fill="#7e924f" d="M 263.5,256.5 C 263.833,256.5 264.167,256.5 264.5,256.5C 264.5,270.167 264.5,283.833 264.5,297.5C 269.167,297.5 273.833,297.5 278.5,297.5C 278.5,302.167 278.5,306.833 278.5,311.5C 278.167,311.5 277.833,311.5 277.5,311.5C 272.833,311.5 268.167,311.5 263.5,311.5C 263.5,293.167 263.5,274.833 263.5,256.5 Z"/></g>
<g><path style="opacity:1" fill="#c0c1c0" d="M 45.5,311.5 C 49.8333,311.5 54.1667,311.5 58.5,311.5C 58.5,320.5 58.5,329.5 58.5,338.5C 54.1667,338.5 49.8333,338.5 45.5,338.5C 45.5,329.5 45.5,320.5 45.5,311.5 Z"/></g>
<g><path style="opacity:1" fill="#5c3e56" d="M 168.5,311.5 C 172.833,311.5 177.167,311.5 181.5,311.5C 181.5,320.5 181.5,329.5 181.5,338.5C 177.167,338.5 172.833,338.5 168.5,338.5C 168.5,329.5 168.5,320.5 168.5,311.5 Z"/></g>
<g><path style="opacity:1" fill="#903743" d="M 181.5,311.5 C 181.833,311.5 182.167,311.5 182.5,311.5C 182.5,320.5 182.5,329.5 182.5,338.5C 186.833,338.5 191.167,338.5 195.5,338.5C 200.167,338.5 204.833,338.5 209.5,338.5C 209.5,338.833 209.5,339.167 209.5,339.5C 200.5,339.5 191.5,339.5 182.5,339.5C 182.5,343.833 182.5,348.167 182.5,352.5C 182.167,352.5 181.833,352.5 181.5,352.5C 181.5,348.167 181.5,343.833 181.5,339.5C 177.167,339.5 172.833,339.5 168.5,339.5C 168.5,339.167 168.5,338.833 168.5,338.5C 172.833,338.5 177.167,338.5 181.5,338.5C 181.5,329.5 181.5,320.5 181.5,311.5 Z"/></g>
<g><path style="opacity:1" fill="#020200" d="M 277.5,311.5 C 277.833,311.5 278.167,311.5 278.5,311.5C 282.833,311.5 287.167,311.5 291.5,311.5C 291.5,320.5 291.5,329.5 291.5,338.5C 286.833,338.5 282.167,338.5 277.5,338.5C 277.5,329.5 277.5,320.5 277.5,311.5 Z"/></g>
<g><path style="opacity:1" fill="#ec7676" d="M 209.5,325.5 C 209.5,329.833 209.5,334.167 209.5,338.5C 204.833,338.5 200.167,338.5 195.5,338.5C 195.5,334.167 195.5,329.833 195.5,325.5C 200.167,325.5 204.833,325.5 209.5,325.5 Z"/></g>
<g><path style="opacity:1" fill="#7c8f50" d="M 223.5,325.5 C 227.833,325.5 232.167,325.5 236.5,325.5C 236.5,329.833 236.5,334.167 236.5,338.5C 232.167,338.5 227.833,338.5 223.5,338.5C 223.5,334.167 223.5,329.833 223.5,325.5 Z"/></g>
<g><path style="opacity:1" fill="#5f3d55" d="M 59.5,338.5 C 63.8333,338.5 68.1667,338.5 72.5,338.5C 72.5,343.167 72.5,347.833 72.5,352.5C 68.1667,352.5 63.8333,352.5 59.5,352.5C 59.5,347.833 59.5,343.167 59.5,338.5 Z"/></g>
<g><path style="opacity:1" fill="#b0ca65" d="M 100.5,352.5 C 95.8333,352.5 91.1667,352.5 86.5,352.5C 86.5,347.833 86.5,343.167 86.5,338.5C 91.1667,338.5 95.8333,338.5 100.5,338.5C 100.5,343.167 100.5,347.833 100.5,352.5 Z"/></g>
<g><path style="opacity:1" fill="#7c8f50" d="M 154.5,339.5 C 154.5,343.833 154.5,348.167 154.5,352.5C 150.167,352.5 145.833,352.5 141.5,352.5C 141.5,348.167 141.5,343.833 141.5,339.5C 145.833,339.5 150.167,339.5 154.5,339.5 Z"/></g>
<g><path style="opacity:1" fill="#c02524" d="M 168.5,339.5 C 172.833,339.5 177.167,339.5 181.5,339.5C 181.5,343.833 181.5,348.167 181.5,352.5C 177.167,352.5 172.833,352.5 168.5,352.5C 168.5,348.167 168.5,343.833 168.5,339.5 Z"/></g>
<g><path style="opacity:1" fill="#5d3e57" d="M 209.5,339.5 C 209.5,343.833 209.5,348.167 209.5,352.5C 200.5,352.5 191.5,352.5 182.5,352.5C 182.5,348.167 182.5,343.833 182.5,339.5C 191.5,339.5 200.5,339.5 209.5,339.5 Z"/></g>
<g><path style="opacity:1" fill="#aec763" d="M 223.5,338.5 C 227.833,338.5 232.167,338.5 236.5,338.5C 236.5,343.167 236.5,347.833 236.5,352.5C 227.5,352.5 218.5,352.5 209.5,352.5C 209.5,348.167 209.5,343.833 209.5,339.5C 214.363,339.819 219.03,339.486 223.5,338.5 Z"/></g>
<g><path style="opacity:1" fill="#7c8e50" d="M 277.5,338.5 C 282.167,338.5 286.833,338.5 291.5,338.5C 291.5,343.167 291.5,347.833 291.5,352.5C 291.5,356.833 291.5,361.167 291.5,365.5C 290.515,361.366 290.182,357.032 290.5,352.5C 286.167,352.5 281.833,352.5 277.5,352.5C 277.5,347.833 277.5,343.167 277.5,338.5 Z"/></g>
<g><path style="opacity:1" fill="#3d5711" d="M 45.5,352.5 C 49.8333,352.5 54.1667,352.5 58.5,352.5C 58.5,370.833 58.5,389.167 58.5,407.5C 54.1667,407.5 49.8333,407.5 45.5,407.5C 45.5,389.167 45.5,370.833 45.5,352.5 Z"/></g>
<g><path style="opacity:1" fill="#7e8f52" d="M 86.5,352.5 C 91.1667,352.5 95.8333,352.5 100.5,352.5C 100.5,357.167 100.5,361.833 100.5,366.5C 95.8333,366.5 91.1667,366.5 86.5,366.5C 86.5,361.833 86.5,357.167 86.5,352.5 Z"/></g>
<g><path style="opacity:1" fill="#603e56" d="M 100.5,352.5 C 109.5,352.5 118.5,352.5 127.5,352.5C 127.5,356.833 127.5,361.167 127.5,365.5C 127.5,365.833 127.5,366.167 127.5,366.5C 122.833,366.5 118.167,366.5 113.5,366.5C 109.167,366.5 104.833,366.5 100.5,366.5C 100.5,361.833 100.5,357.167 100.5,352.5 Z"/></g>
<g><path style="opacity:1" fill="#7c8f50" d="M 127.5,352.5 C 131.833,352.5 136.167,352.5 140.5,352.5C 140.5,356.833 140.5,361.167 140.5,365.5C 136.167,365.5 131.833,365.5 127.5,365.5C 127.5,361.167 127.5,356.833 127.5,352.5 Z"/></g>
<g><path style="opacity:1" fill="#adc664" d="M 154.5,339.5 C 150.167,339.5 145.833,339.5 141.5,339.5C 141.5,343.833 141.5,348.167 141.5,352.5C 145.833,352.5 150.167,352.5 154.5,352.5C 154.5,356.833 154.5,361.167 154.5,365.5C 150.167,365.5 145.833,365.5 141.5,365.5C 141.167,365.5 140.833,365.5 140.5,365.5C 140.5,361.167 140.5,356.833 140.5,352.5C 140.5,347.833 140.5,343.167 140.5,338.5C 145.363,338.181 150.03,338.514 154.5,339.5 Z"/></g>
<g><path style="opacity:1" fill="#000000" d="M 291.5,352.5 C 295.833,352.5 300.167,352.5 304.5,352.5C 304.5,356.833 304.5,361.167 304.5,365.5C 300.167,365.5 295.833,365.5 291.5,365.5C 291.5,361.167 291.5,356.833 291.5,352.5 Z"/></g>
<g><path style="opacity:1" fill="#3d5711" d="M 305.5,352.5 C 310.167,352.5 314.833,352.5 319.5,352.5C 319.5,356.833 319.5,361.167 319.5,365.5C 314.833,365.5 310.167,365.5 305.5,365.5C 305.5,361.167 305.5,356.833 305.5,352.5 Z"/></g>
<g><path style="opacity:1" fill="#ba9467" d="M 127.5,366.5 C 127.5,366.167 127.5,365.833 127.5,365.5C 131.833,365.5 136.167,365.5 140.5,365.5C 140.833,365.5 141.167,365.5 141.5,365.5C 141.819,370.363 141.486,375.03 140.5,379.5C 140.5,375.167 140.5,370.833 140.5,366.5C 136.167,366.5 131.833,366.5 127.5,366.5 Z"/></g>
<g><path style="opacity:1" fill="#263c0c" d="M 304.5,352.5 C 304.833,352.5 305.167,352.5 305.5,352.5C 305.5,356.833 305.5,361.167 305.5,365.5C 310.167,365.5 314.833,365.5 319.5,365.5C 319.5,365.833 319.5,366.167 319.5,366.5C 314.833,366.5 310.167,366.5 305.5,366.5C 305.5,370.833 305.5,375.167 305.5,379.5C 305.167,379.5 304.833,379.5 304.5,379.5C 304.5,375.167 304.5,370.833 304.5,366.5C 300.167,366.5 295.833,366.5 291.5,366.5C 291.5,366.167 291.5,365.833 291.5,365.5C 295.833,365.5 300.167,365.5 304.5,365.5C 304.5,361.167 304.5,356.833 304.5,352.5 Z"/></g>
<g><path style="opacity:1" fill="#ec7675" d="M 100.5,366.5 C 104.833,366.5 109.167,366.5 113.5,366.5C 113.5,370.833 113.5,375.167 113.5,379.5C 109.167,379.5 104.833,379.5 100.5,379.5C 100.5,375.167 100.5,370.833 100.5,366.5 Z"/></g>
<g><path style="opacity:1" fill="#c22727" d="M 113.5,366.5 C 118.167,366.5 122.833,366.5 127.5,366.5C 127.5,370.833 127.5,375.167 127.5,379.5C 122.833,379.5 118.167,379.5 113.5,379.5C 113.5,375.167 113.5,370.833 113.5,366.5 Z"/></g>
<g><path style="opacity:1" fill="#ec7675" d="M 127.5,366.5 C 131.833,366.5 136.167,366.5 140.5,366.5C 140.5,370.833 140.5,375.167 140.5,379.5C 136.167,379.5 131.833,379.5 127.5,379.5C 127.5,375.167 127.5,370.833 127.5,366.5 Z"/></g>
<g><path style="opacity:1" fill="#7de02b" d="M 291.5,366.5 C 291.5,370.833 291.5,375.167 291.5,379.5C 286.833,379.5 282.167,379.5 277.5,379.5C 277.5,375.167 277.5,370.833 277.5,366.5C 282.167,366.5 286.833,366.5 291.5,366.5 Z"/></g>
<g><path style="opacity:1" fill="#63af24" d="M 291.5,366.5 C 295.833,366.5 300.167,366.5 304.5,366.5C 304.5,370.833 304.5,375.167 304.5,379.5C 300.167,379.5 295.833,379.5 291.5,379.5C 291.5,375.167 291.5,370.833 291.5,366.5 Z"/></g>
<g><path style="opacity:1" fill="#000000" d="M 319.5,366.5 C 319.5,370.833 319.5,375.167 319.5,379.5C 319.167,379.5 318.833,379.5 318.5,379.5C 314.167,379.5 309.833,379.5 305.5,379.5C 305.5,375.167 305.5,370.833 305.5,366.5C 310.167,366.5 314.833,366.5 319.5,366.5 Z"/></g>
<g><path style="opacity:1" fill="#3f5813" d="M 318.5,379.5 C 318.833,379.5 319.167,379.5 319.5,379.5C 323.833,379.5 328.167,379.5 332.5,379.5C 332.5,384.167 332.5,388.833 332.5,393.5C 327.833,393.5 323.167,393.5 318.5,393.5C 318.5,389.167 318.5,384.833 318.5,380.5C 318.5,380.167 318.5,379.833 318.5,379.5 Z"/></g>
<g><path style="opacity:1" fill="#3d5711" d="M 400.5,393.5 C 386.833,393.5 373.167,393.5 359.5,393.5C 359.5,388.833 359.5,384.167 359.5,379.5C 373.167,379.5 386.833,379.5 400.5,379.5C 400.5,384.167 400.5,388.833 400.5,393.5 Z"/></g>
<g><path style="opacity:1" fill="#5d8a25" d="M 277.5,379.5 C 282.167,379.5 286.833,379.5 291.5,379.5C 291.5,384.167 291.5,388.833 291.5,393.5C 286.833,393.5 282.167,393.5 277.5,393.5C 277.5,388.833 277.5,384.167 277.5,379.5 Z"/></g>
<g><path style="opacity:1" fill="#3e5812" d="M 291.5,379.5 C 295.833,379.5 300.167,379.5 304.5,379.5C 304.5,384.167 304.5,388.833 304.5,393.5C 300.167,393.5 295.833,393.5 291.5,393.5C 291.5,388.833 291.5,384.167 291.5,379.5 Z"/></g>
<g><path style="opacity:1" fill="#8ea752" d="M 304.5,379.5 C 304.833,379.5 305.167,379.5 305.5,379.5C 309.833,379.5 314.167,379.5 318.5,379.5C 318.5,379.833 318.5,380.167 318.5,380.5C 314.167,380.5 309.833,380.5 305.5,380.5C 305.818,385.032 305.485,389.366 304.5,393.5C 304.5,388.833 304.5,384.167 304.5,379.5 Z"/></g>
<g><path style="opacity:1" fill="#3d5711" d="M 332.5,393.5 C 336.833,393.5 341.167,393.5 345.5,393.5C 345.5,397.833 345.5,402.167 345.5,406.5C 341.167,406.5 336.833,406.5 332.5,406.5C 332.5,402.167 332.5,397.833 332.5,393.5 Z"/></g>
<g><path style="opacity:1" fill="#7d9050" d="M 345.5,393.5 C 350.167,393.5 354.833,393.5 359.5,393.5C 359.5,398.167 359.5,402.833 359.5,407.5C 350.318,407.827 341.318,407.493 332.5,406.5C 336.833,406.5 341.167,406.5 345.5,406.5C 345.5,402.167 345.5,397.833 345.5,393.5 Z"/></g>
<g><path style="opacity:1" fill="#3c5411" d="M 400.5,393.5 C 405.167,393.5 409.833,393.5 414.5,393.5C 414.5,398.167 414.5,402.833 414.5,407.5C 409.833,407.5 405.167,407.5 400.5,407.5C 400.5,402.833 400.5,398.167 400.5,393.5 Z"/></g>
<g><path style="opacity:1" fill="#7c8e4f" d="M 45.5,338.5 C 49.8333,338.5 54.1667,338.5 58.5,338.5C 58.8333,338.5 59.1667,338.5 59.5,338.5C 59.5,343.167 59.5,347.833 59.5,352.5C 59.5,370.833 59.5,389.167 59.5,407.5C 63.8333,407.5 68.1667,407.5 72.5,407.5C 72.5,411.833 72.5,416.167 72.5,420.5C 67.8333,420.5 63.1667,420.5 58.5,420.5C 58.5,416.167 58.5,411.833 58.5,407.5C 58.5,389.167 58.5,370.833 58.5,352.5C 54.1667,352.5 49.8333,352.5 45.5,352.5C 45.5,347.833 45.5,343.167 45.5,338.5 Z"/></g>
<g><path style="opacity:1" fill="#7de02b" d="M 250.5,407.5 C 250.5,411.833 250.5,416.167 250.5,420.5C 245.833,420.5 241.167,420.5 236.5,420.5C 236.5,416.167 236.5,411.833 236.5,407.5C 241.167,407.5 245.833,407.5 250.5,407.5 Z"/></g>
<g><path style="opacity:1" fill="#63af24" d="M 250.5,407.5 C 254.833,407.5 259.167,407.5 263.5,407.5C 263.5,411.833 263.5,416.167 263.5,420.5C 259.167,420.5 254.833,420.5 250.5,420.5C 250.5,416.167 250.5,411.833 250.5,407.5 Z"/></g>
<g><path style="opacity:1" fill="#7f9152" d="M 359.5,407.5 C 364.167,407.5 368.833,407.5 373.5,407.5C 373.5,411.833 373.5,416.167 373.5,420.5C 368.833,420.5 364.167,420.5 359.5,420.5C 359.5,416.167 359.5,411.833 359.5,407.5 Z"/></g>
<g><path style="opacity:1" fill="#000000" d="M 400.5,407.5 C 405.167,407.5 409.833,407.5 414.5,407.5C 414.5,425.5 414.5,443.5 414.5,461.5C 409.833,461.5 405.167,461.5 400.5,461.5C 400.5,456.833 400.5,452.167 400.5,447.5C 400.5,443.167 400.5,438.833 400.5,434.5C 400.5,425.5 400.5,416.5 400.5,407.5 Z"/></g>
<g><path style="opacity:1" fill="#3e5712" d="M 58.5,420.5 C 63.1667,420.5 67.8333,420.5 72.5,420.5C 72.5,425.167 72.5,429.833 72.5,434.5C 72.5,439.167 72.5,443.833 72.5,448.5C 72.5,452.833 72.5,457.167 72.5,461.5C 77.1667,461.5 81.8333,461.5 86.5,461.5C 86.5,466.167 86.5,470.833 86.5,475.5C 81.8333,475.5 77.1667,475.5 72.5,475.5C 72.5,471.167 72.5,466.833 72.5,462.5C 67.8333,462.5 63.1667,462.5 58.5,462.5C 58.5,448.5 58.5,434.5 58.5,420.5 Z"/></g>
<g><path style="opacity:1" fill="#5f8b26" d="M 236.5,420.5 C 241.167,420.5 245.833,420.5 250.5,420.5C 250.5,425.167 250.5,429.833 250.5,434.5C 245.833,434.5 241.167,434.5 236.5,434.5C 236.5,429.833 236.5,425.167 236.5,420.5 Z"/></g>
<g><path style="opacity:1" fill="#405913" d="M 250.5,420.5 C 254.833,420.5 259.167,420.5 263.5,420.5C 263.5,425.167 263.5,429.833 263.5,434.5C 259.167,434.5 254.833,434.5 250.5,434.5C 250.5,429.833 250.5,425.167 250.5,420.5 Z"/></g>
<g><path style="opacity:1" fill="#7ce12a" d="M 73.5,434.5 C 77.8333,434.5 82.1667,434.5 86.5,434.5C 86.5,438.833 86.5,443.167 86.5,447.5C 82.1667,447.5 77.8333,447.5 73.5,447.5C 73.5,443.167 73.5,438.833 73.5,434.5 Z"/></g>
<g><path style="opacity:1" fill="#618c29" d="M 86.5,434.5 C 91.1667,434.5 95.8333,434.5 100.5,434.5C 100.827,443.682 100.493,452.682 99.5,461.5C 99.5,456.833 99.5,452.167 99.5,447.5C 95.1667,447.5 90.8333,447.5 86.5,447.5C 86.5,443.167 86.5,438.833 86.5,434.5 Z"/></g>
<g><path style="opacity:1" fill="#69b22a" d="M 182.5,434.5 C 182.5,438.833 182.5,443.167 182.5,447.5C 186.833,447.5 191.167,447.5 195.5,447.5C 195.5,443.167 195.5,438.833 195.5,434.5C 200.167,434.5 204.833,434.5 209.5,434.5C 209.5,439.167 209.5,443.833 209.5,448.5C 204.833,448.5 200.167,448.5 195.5,448.5C 191.167,448.5 186.833,448.5 182.5,448.5C 181.167,443.833 181.167,439.167 182.5,434.5 Z"/></g>
<g><path style="opacity:1" fill="#7ce12a" d="M 182.5,434.5 C 186.833,434.5 191.167,434.5 195.5,434.5C 195.5,438.833 195.5,443.167 195.5,447.5C 191.167,447.5 186.833,447.5 182.5,447.5C 182.5,443.167 182.5,438.833 182.5,434.5 Z"/></g>
<g><path style="opacity:1" fill="#7f9152" d="M 400.5,434.5 C 400.5,438.833 400.5,443.167 400.5,447.5C 395.833,447.5 391.167,447.5 386.5,447.5C 386.5,443.167 386.5,438.833 386.5,434.5C 391.167,434.5 395.833,434.5 400.5,434.5 Z"/></g>
<g><path style="opacity:1" fill="#6fb728" d="M 72.5,434.5 C 72.8333,434.5 73.1667,434.5 73.5,434.5C 73.5,438.833 73.5,443.167 73.5,447.5C 77.8333,447.5 82.1667,447.5 86.5,447.5C 86.5,447.833 86.5,448.167 86.5,448.5C 81.8333,448.5 77.1667,448.5 72.5,448.5C 72.5,443.833 72.5,439.167 72.5,434.5 Z"/></g>
<g><path style="opacity:1" fill="#5c8824" d="M 72.5,448.5 C 77.1667,448.5 81.8333,448.5 86.5,448.5C 86.5,452.833 86.5,457.167 86.5,461.5C 81.8333,461.5 77.1667,461.5 72.5,461.5C 72.5,457.167 72.5,452.833 72.5,448.5 Z"/></g>
<g><path style="opacity:1" fill="#3e5812" d="M 86.5,447.5 C 90.8333,447.5 95.1667,447.5 99.5,447.5C 99.5,452.167 99.5,456.833 99.5,461.5C 95.1667,461.5 90.8333,461.5 86.5,461.5C 86.5,457.167 86.5,452.833 86.5,448.5C 86.5,448.167 86.5,447.833 86.5,447.5 Z"/></g>
<g><path style="opacity:1" fill="#7ee02c" d="M 113.5,448.5 C 118.167,448.5 122.833,448.5 127.5,448.5C 127.5,452.833 127.5,457.167 127.5,461.5C 122.833,461.5 118.167,461.5 113.5,461.5C 113.5,457.167 113.5,452.833 113.5,448.5 Z"/></g>
<g><path style="opacity:1" fill="#6db52d" d="M 113.5,448.5 C 122.652,447.506 131.985,447.173 141.5,447.5C 141.5,452.167 141.5,456.833 141.5,461.5C 136.833,461.5 132.167,461.5 127.5,461.5C 127.5,457.167 127.5,452.833 127.5,448.5C 122.833,448.5 118.167,448.5 113.5,448.5 Z"/></g>
<g><path style="opacity:1" fill="#5c8924" d="M 182.5,448.5 C 186.833,448.5 191.167,448.5 195.5,448.5C 195.5,452.833 195.5,457.167 195.5,461.5C 191.167,461.5 186.833,461.5 182.5,461.5C 182.5,457.167 182.5,452.833 182.5,448.5 Z"/></g>
<g><path style="opacity:1" fill="#3f5913" d="M 195.5,448.5 C 200.167,448.5 204.833,448.5 209.5,448.5C 209.5,452.833 209.5,457.167 209.5,461.5C 204.833,461.5 200.167,461.5 195.5,461.5C 195.5,457.167 195.5,452.833 195.5,448.5 Z"/></g>
<g><path style="opacity:1" fill="#aec763" d="M 386.5,447.5 C 391.167,447.5 395.833,447.5 400.5,447.5C 400.5,452.167 400.5,456.833 400.5,461.5C 400.5,466.167 400.5,470.833 400.5,475.5C 404.833,475.5 409.167,475.5 413.5,475.5C 413.5,498.167 413.5,520.833 413.5,543.5C 409.167,543.5 404.833,543.5 400.5,543.5C 400.5,547.833 400.5,552.167 400.5,556.5C 400.5,556.833 400.5,557.167 400.5,557.5C 400.5,562.167 400.5,566.833 400.5,571.5C 395.833,571.5 391.167,571.5 386.5,571.5C 386.5,571.167 386.5,570.833 386.5,570.5C 386.5,566.167 386.5,561.833 386.5,557.5C 382.167,557.5 377.833,557.5 373.5,557.5C 373.5,561.833 373.5,566.167 373.5,570.5C 373.5,570.833 373.5,571.167 373.5,571.5C 368.833,571.5 364.167,571.5 359.5,571.5C 359.5,566.833 359.5,562.167 359.5,557.5C 359.5,552.833 359.5,548.167 359.5,543.5C 350.5,543.5 341.5,543.5 332.5,543.5C 332.5,547.833 332.5,552.167 332.5,556.5C 318.822,556.477 305.156,556.81 291.5,557.5C 291.5,552.833 291.5,548.167 291.5,543.5C 296.167,543.5 300.833,543.5 305.5,543.5C 305.5,539.167 305.5,534.833 305.5,530.5C 309.833,530.5 314.167,530.5 318.5,530.5C 318.5,525.833 318.5,521.167 318.5,516.5C 327.5,516.5 336.5,516.5 345.5,516.5C 345.5,511.833 345.5,507.167 345.5,502.5C 350.167,502.5 354.833,502.5 359.5,502.5C 359.5,498.167 359.5,493.833 359.5,489.5C 364.167,489.5 368.833,489.5 373.5,489.5C 373.5,484.833 373.5,480.167 373.5,475.5C 377.833,475.5 382.167,475.5 386.5,475.5C 386.5,466.167 386.5,456.833 386.5,447.5 Z"/></g>
<g><path style="opacity:1" fill="#5f8b27" d="M 113.5,461.5 C 118.167,461.5 122.833,461.5 127.5,461.5C 127.5,466.167 127.5,470.833 127.5,475.5C 122.833,475.5 118.167,475.5 113.5,475.5C 113.5,470.833 113.5,466.167 113.5,461.5 Z"/></g>
<g><path style="opacity:1" fill="#435d16" d="M 127.5,461.5 C 132.167,461.5 136.833,461.5 141.5,461.5C 141.5,466.167 141.5,470.833 141.5,475.5C 136.833,475.5 132.167,475.5 127.5,475.5C 127.5,470.833 127.5,466.167 127.5,461.5 Z"/></g>
<g><path style="opacity:1" fill="#465d1b" d="M 400.5,461.5 C 405.167,461.5 409.833,461.5 414.5,461.5C 414.5,465.833 414.5,470.167 414.5,474.5C 414.5,497.5 414.5,520.5 414.5,543.5C 414.167,543.5 413.833,543.5 413.5,543.5C 413.5,520.833 413.5,498.167 413.5,475.5C 409.167,475.5 404.833,475.5 400.5,475.5C 400.5,470.833 400.5,466.167 400.5,461.5 Z"/></g>
<g><path style="opacity:1" fill="#000000" d="M 414.5,474.5 C 419.167,474.5 423.833,474.5 428.5,474.5C 428.5,502.167 428.5,529.833 428.5,557.5C 423.833,557.5 419.167,557.5 414.5,557.5C 414.5,552.833 414.5,548.167 414.5,543.5C 414.5,520.5 414.5,497.5 414.5,474.5 Z"/></g>
<g><path style="opacity:1" fill="#7c8e50" d="M 72.5,475.5 C 77.1667,475.5 81.8333,475.5 86.5,475.5C 86.5,489.167 86.5,502.833 86.5,516.5C 81.8333,516.5 77.1667,516.5 72.5,516.5C 72.5,502.833 72.5,489.167 72.5,475.5 Z"/></g>
<g><path style="opacity:1" fill="#3d5711" d="M 72.5,516.5 C 77.1667,516.5 81.8333,516.5 86.5,516.5C 86.5,521.167 86.5,525.833 86.5,530.5C 86.5,539.5 86.5,548.5 86.5,557.5C 86.5,562.167 86.5,566.833 86.5,571.5C 81.8333,571.5 77.1667,571.5 72.5,571.5C 72.5,553.167 72.5,534.833 72.5,516.5 Z"/></g>
<g><path style="opacity:1" fill="#aec763" d="M 141.5,543.5 C 141.5,548.167 141.5,552.833 141.5,557.5C 145.833,557.5 150.167,557.5 154.5,557.5C 154.5,561.833 154.5,566.167 154.5,570.5C 149.968,570.182 145.634,570.515 141.5,571.5C 141.5,575.833 141.5,580.167 141.5,584.5C 136.833,584.5 132.167,584.5 127.5,584.5C 122.833,584.5 118.167,584.5 113.5,584.5C 113.5,580.167 113.5,575.833 113.5,571.5C 109.154,571.666 104.821,571.499 100.5,571C 99.5333,566.599 99.2,562.099 99.5,557.5C 95.1667,557.5 90.8333,557.5 86.5,557.5C 86.5,548.5 86.5,539.5 86.5,530.5C 95.5,530.5 104.5,530.5 113.5,530.5C 113.5,525.833 113.5,521.167 113.5,516.5C 118.167,516.5 122.833,516.5 127.5,516.5C 127.5,520.833 127.5,525.167 127.5,529.5C 132.167,529.5 136.833,529.5 141.5,529.5C 141.5,534.167 141.5,538.833 141.5,543.5 Z"/></g>
<g><path style="opacity:1" fill="#7c8f50" d="M 127.5,530.5 C 131.833,530.5 136.167,530.5 140.5,530.5C 140.5,534.833 140.5,539.167 140.5,543.5C 136.167,543.5 131.833,543.5 127.5,543.5C 127.5,539.167 127.5,534.833 127.5,530.5 Z"/></g>
<g><path style="opacity:1" fill="#7e9051" d="M 359.5,543.5 C 359.5,539.167 359.5,534.833 359.5,530.5C 364.167,530.5 368.833,530.5 373.5,530.5C 373.5,534.833 373.5,539.167 373.5,543.5C 368.833,543.5 364.167,543.5 359.5,543.5 Z"/></g>
<g><path style="opacity:1" fill="#7d9050" d="M 141.5,543.5 C 150.5,543.5 159.5,543.5 168.5,543.5C 168.5,547.833 168.5,552.167 168.5,556.5C 177.5,556.5 186.5,556.5 195.5,556.5C 195.5,552.167 195.5,547.833 195.5,543.5C 200.167,543.5 204.833,543.5 209.5,543.5C 209.5,552.5 209.5,561.5 209.5,570.5C 214.032,570.182 218.366,570.515 222.5,571.5C 217.833,571.5 213.167,571.5 208.5,571.5C 208.5,566.833 208.5,562.167 208.5,557.5C 204.167,557.5 199.833,557.5 195.5,557.5C 182.167,557.5 168.833,557.5 155.5,557.5C 155.167,557.5 154.833,557.5 154.5,557.5C 150.167,557.5 145.833,557.5 141.5,557.5C 141.5,552.833 141.5,548.167 141.5,543.5 Z"/></g>
<g><path style="opacity:1" fill="#3e5712" d="M 413.5,543.5 C 413.5,547.833 413.5,552.167 413.5,556.5C 409.167,556.5 404.833,556.5 400.5,556.5C 400.5,552.167 400.5,547.833 400.5,543.5C 404.833,543.5 409.167,543.5 413.5,543.5 Z"/></g>
<g><path style="opacity:1" fill="#26350c" d="M 413.5,543.5 C 413.833,543.5 414.167,543.5 414.5,543.5C 414.5,548.167 414.5,552.833 414.5,557.5C 409.833,557.5 405.167,557.5 400.5,557.5C 400.5,557.167 400.5,556.833 400.5,556.5C 404.833,556.5 409.167,556.5 413.5,556.5C 413.5,552.167 413.5,547.833 413.5,543.5 Z"/></g>
<g><path style="opacity:1" fill="#798c4e" d="M 86.5,557.5 C 90.8333,557.5 95.1667,557.5 99.5,557.5C 99.2,562.099 99.5333,566.599 100.5,571C 104.821,571.499 109.154,571.666 113.5,571.5C 113.5,575.833 113.5,580.167 113.5,584.5C 109.167,584.5 104.833,584.5 100.5,584.5C 100.5,586.167 100.5,587.833 100.5,589.5C 100.167,589.5 99.8333,589.5 99.5,589.5C 99.5,583.5 99.5,577.5 99.5,571.5C 95.1667,571.5 90.8333,571.5 86.5,571.5C 86.5,566.833 86.5,562.167 86.5,557.5 Z"/></g>
<g><path style="opacity:1" fill="#384020" d="M 154.5,557.5 C 154.833,557.5 155.167,557.5 155.5,557.5C 155.5,562.167 155.5,566.833 155.5,571.5C 150.833,571.5 146.167,571.5 141.5,571.5C 145.634,570.515 149.968,570.182 154.5,570.5C 154.5,566.167 154.5,561.833 154.5,557.5 Z"/></g>
<g><path style="opacity:1" fill="#000000" d="M 155.5,557.5 C 168.833,557.5 182.167,557.5 195.5,557.5C 195.5,562.167 195.5,566.833 195.5,571.5C 182.167,571.5 168.833,571.5 155.5,571.5C 155.5,566.833 155.5,562.167 155.5,557.5 Z"/></g>
<g><path style="opacity:1" fill="#3c5511" d="M 195.5,557.5 C 199.833,557.5 204.167,557.5 208.5,557.5C 208.5,562.167 208.5,566.833 208.5,571.5C 204.167,571.5 199.833,571.5 195.5,571.5C 195.5,566.833 195.5,562.167 195.5,557.5 Z"/></g>
<g><path style="opacity:1" fill="#77884c" d="M 359.5,543.5 C 359.5,548.167 359.5,552.833 359.5,557.5C 341.5,557.5 323.5,557.5 305.5,557.5C 305.666,561.846 305.499,566.179 305,570.5C 300.599,571.467 296.099,571.8 291.5,571.5C 291.5,566.833 291.5,562.167 291.5,557.5C 305.156,556.81 318.822,556.477 332.5,556.5C 332.5,552.167 332.5,547.833 332.5,543.5C 341.5,543.5 350.5,543.5 359.5,543.5 Z"/></g>
<g><path style="opacity:1" fill="#000000" d="M 359.5,557.5 C 359.5,562.167 359.5,566.833 359.5,571.5C 346.167,571.5 332.833,571.5 319.5,571.5C 319.666,575.846 319.499,580.179 319,584.5C 314.599,585.467 310.099,585.8 305.5,585.5C 305.5,586.833 305.5,588.167 305.5,589.5C 300.833,589.5 296.167,589.5 291.5,589.5C 291.5,583.5 291.5,577.5 291.5,571.5C 296.099,571.8 300.599,571.467 305,570.5C 305.499,566.179 305.666,561.846 305.5,557.5C 323.5,557.5 341.5,557.5 359.5,557.5 Z"/></g>
<g><path style="opacity:1" fill="#7c8f50" d="M 386.5,570.5 C 382.167,570.5 377.833,570.5 373.5,570.5C 373.5,566.167 373.5,561.833 373.5,557.5C 377.833,557.5 382.167,557.5 386.5,557.5C 386.5,561.833 386.5,566.167 386.5,570.5 Z"/></g>
<g><path style="opacity:1" fill="#010101" d="M 400.5,557.5 C 405.167,557.5 409.833,557.5 414.5,557.5C 414.5,566.833 414.5,576.167 414.5,585.5C 409.833,585.5 405.167,585.5 400.5,585.5C 400.5,586.833 400.5,588.167 400.5,589.5C 391.167,589.5 381.833,589.5 372.5,589.5C 372.5,588.167 372.5,586.833 372.5,585.5C 368.167,585.5 363.833,585.5 359.5,585.5C 359.5,580.833 359.5,576.167 359.5,571.5C 364.167,571.5 368.833,571.5 373.5,571.5C 373.5,575.833 373.5,580.167 373.5,584.5C 377.833,584.5 382.167,584.5 386.5,584.5C 391.167,584.5 395.833,584.5 400.5,584.5C 400.5,580.167 400.5,575.833 400.5,571.5C 400.5,566.833 400.5,562.167 400.5,557.5 Z"/></g>
<g><path style="opacity:1" fill="#3d5711" d="M 86.5,571.5 C 90.8333,571.5 95.1667,571.5 99.5,571.5C 99.5,577.5 99.5,583.5 99.5,589.5C 95.1667,589.5 90.8333,589.5 86.5,589.5C 86.5,583.5 86.5,577.5 86.5,571.5 Z"/></g>
<g><path style="opacity:1" fill="#010100" d="M 141.5,571.5 C 146.167,571.5 150.833,571.5 155.5,571.5C 155.5,576.167 155.5,580.833 155.5,585.5C 150.833,585.5 146.167,585.5 141.5,585.5C 141.5,586.833 141.5,588.167 141.5,589.5C 136.833,589.5 132.167,589.5 127.5,589.5C 127.5,587.833 127.5,586.167 127.5,584.5C 132.167,584.5 136.833,584.5 141.5,584.5C 141.5,580.167 141.5,575.833 141.5,571.5 Z"/></g>
<g><path style="opacity:1" fill="#435c16" d="M 208.5,571.5 C 213.167,571.5 217.833,571.5 222.5,571.5C 223.49,577.31 223.823,583.31 223.5,589.5C 223.167,589.5 222.833,589.5 222.5,589.5C 222.5,587.833 222.5,586.167 222.5,584.5C 217.833,584.5 213.167,584.5 208.5,584.5C 208.5,580.167 208.5,575.833 208.5,571.5 Z"/></g>
<g><path style="opacity:1" fill="#bebfbd" d="M 373.5,570.5 C 377.833,570.5 382.167,570.5 386.5,570.5C 386.5,570.833 386.5,571.167 386.5,571.5C 386.5,575.833 386.5,580.167 386.5,584.5C 382.167,584.5 377.833,584.5 373.5,584.5C 373.5,580.167 373.5,575.833 373.5,571.5C 373.5,571.167 373.5,570.833 373.5,570.5 Z"/></g>
<g><path style="opacity:1" fill="#7e9053" d="M 386.5,571.5 C 391.167,571.5 395.833,571.5 400.5,571.5C 400.5,575.833 400.5,580.167 400.5,584.5C 395.833,584.5 391.167,584.5 386.5,584.5C 386.5,580.167 386.5,575.833 386.5,571.5 Z"/></g>
<g><path style="opacity:1" fill="#000000" d="M 208.5,584.5 C 213.167,584.5 217.833,584.5 222.5,584.5C 222.5,586.167 222.5,587.833 222.5,589.5C 217.833,589.5 213.167,589.5 208.5,589.5C 208.5,587.833 208.5,586.167 208.5,584.5 Z"/></g>
<g><path style="opacity:1" fill="#bfbfbd" d="M 113.5,584.5 C 118.167,584.5 122.833,584.5 127.5,584.5C 127.5,586.167 127.5,587.833 127.5,589.5C 118.5,589.5 109.5,589.5 100.5,589.5C 100.5,587.833 100.5,586.167 100.5,584.5C 104.833,584.5 109.167,584.5 113.5,584.5 Z"/></g>
</svg>
