<?xml version="1.0" encoding="UTF-8"?>
<!DOCTYPE svg PUBLIC "-//W3C//DTD SVG 1.1//EN" "http://www.w3.org/Graphics/SVG/1.1/DTD/svg11.dtd">
<svg xmlns="http://www.w3.org/2000/svg" version="1.1" width="552px" height="676px" style="shape-rendering:geometricPrecision; text-rendering:geometricPrecision; image-rendering:optimizeQuality; fill-rule:evenodd; clip-rule:evenodd" xmlns:xlink="http://www.w3.org/1999/xlink">
<g><path style="opacity:1" fill="#425b1a" d="M 276.5,20.5 C 276.5,30.1667 276.5,39.8333 276.5,49.5C 275.506,40.0144 275.173,30.3478 275.5,20.5C 270.833,20.5 266.167,20.5 261.5,20.5C 261.5,15.5 261.5,10.5 261.5,5.5C 266.5,5.5 271.5,5.5 276.5,5.5C 276.5,10.5 276.5,15.5 276.5,20.5 Z"/></g>
<g><path style="opacity:1" fill="#a1d33d" d="M 261.5,20.5 C 266.167,20.5 270.833,20.5 275.5,20.5C 275.173,30.3478 275.506,40.0144 276.5,49.5C 276.5,54.1667 276.5,58.8333 276.5,63.5C 281.167,63.5 285.833,63.5 290.5,63.5C 290.5,77.8333 290.5,92.1667 290.5,106.5C 290.5,111.5 290.5,116.5 290.5,121.5C 295.43,121.803 300.263,121.469 305,120.5C 305.5,111.173 305.666,101.839 305.5,92.5C 309.833,92.5 314.167,92.5 318.5,92.5C 319.486,88.03 319.819,83.3633 319.5,78.5C 329.015,78.8269 338.348,78.4936 347.5,77.5C 347.5,72.8333 347.5,68.1667 347.5,63.5C 357.167,63.5 366.833,63.5 376.5,63.5C 376.5,73.1667 376.5,82.8333 376.5,92.5C 371.833,92.5 367.167,92.5 362.5,92.5C 361.506,101.652 361.173,110.985 361.5,120.5C 356.833,120.5 352.167,120.5 347.5,120.5C 347.5,125.5 347.5,130.5 347.5,135.5C 342.833,135.5 338.167,135.5 333.5,135.5C 328.833,135.5 324.167,135.5 319.5,135.5C 319.5,140.167 319.5,144.833 319.5,149.5C 314.5,149.5 309.5,149.5 304.5,149.5C 299.833,149.5 295.167,149.5 290.5,149.5C 290.5,154.5 290.5,159.5 290.5,164.5C 295.167,164.5 299.833,164.5 304.5,164.5C 314.167,164.5 323.833,164.5 333.5,164.5C 333.5,169.167 333.5,173.833 333.5,178.5C 338.167,178.5 342.833,178.5 347.5,178.5C 347.833,178.5 348.167,178.5 348.5,178.5C 348.5,183.167 348.5,187.833 348.5,192.5C 353.167,192.5 357.833,192.5 362.5,192.5C 362.5,202.167 362.5,211.833 362.5,221.5C 367.167,221.5 371.833,221.5 376.5,221.5C 376.5,216.833 376.5,212.167 376.5,207.5C 381.5,207.5 386.5,207.5 391.5,207.5C 391.5,197.833 391.5,188.167 391.5,178.5C 396.167,178.5 400.833,178.5 405.5,178.5C 405.5,173.833 405.5,169.167 405.5,164.5C 410.167,164.5 414.833,164.5 419.5,164.5C 419.5,159.833 419.5,155.167 419.5,150.5C 424.5,150.5 429.5,150.5 434.5,150.5C 434.5,145.5 434.5,140.5 434.5,135.5C 439.167,135.5 443.833,135.5 448.5,135.5C 448.5,130.833 448.5,126.167 448.5,121.5C 458.167,121.5 467.833,121.5 477.5,121.5C 477.5,116.833 477.5,112.167 477.5,107.5C 491.5,107.5 505.5,107.5 519.5,107.5C 519.5,116.833 519.5,126.167 519.5,135.5C 515.167,135.5 510.833,135.5 506.5,135.5C 505.506,144.986 505.173,154.652 505.5,164.5C 500.833,164.5 496.167,164.5 491.5,164.5C 491.5,169.167 491.5,173.833 491.5,178.5C 486.833,178.5 482.167,178.5 477.5,178.5C 476.514,182.97 476.181,187.637 476.5,192.5C 471.637,192.181 466.97,192.514 462.5,193.5C 462.5,198.167 462.5,202.833 462.5,207.5C 453.167,207.5 443.833,207.5 434.5,207.5C 434.5,212.167 434.5,216.833 434.5,221.5C 424.833,221.5 415.167,221.5 405.5,221.5C 405.5,231.167 405.5,240.833 405.5,250.5C 405.5,255.167 405.5,259.833 405.5,264.5C 400.5,264.5 395.5,264.5 390.5,264.5C 390.5,269.167 390.5,273.833 390.5,278.5C 381.167,278.5 371.833,278.5 362.5,278.5C 362.5,273.833 362.5,269.167 362.5,264.5C 357.5,264.5 352.5,264.5 347.5,264.5C 347.5,259.833 347.5,255.167 347.5,250.5C 342.833,250.5 338.167,250.5 333.5,250.5C 333.5,245.833 333.5,241.167 333.5,236.5C 329.03,235.514 324.363,235.181 319.5,235.5C 319.5,230.833 319.5,226.167 319.5,221.5C 314.5,221.5 309.5,221.5 304.5,221.5C 261.5,221.5 218.5,221.5 175.5,221.5C 170.833,221.5 166.167,221.5 161.5,221.5C 161.5,226.167 161.5,230.833 161.5,235.5C 156.637,235.181 151.97,235.514 147.5,236.5C 147.5,241.167 147.5,245.833 147.5,250.5C 147.167,250.5 146.833,250.5 146.5,250.5C 141.833,250.5 137.167,250.5 132.5,250.5C 132.5,240.833 132.5,231.167 132.5,221.5C 132.5,216.833 132.5,212.167 132.5,207.5C 137.5,207.5 142.5,207.5 147.5,207.5C 147.5,202.833 147.5,198.167 147.5,193.5C 152.363,193.819 157.03,193.486 161.5,192.5C 161.5,187.833 161.5,183.167 161.5,178.5C 170.833,178.5 180.167,178.5 189.5,178.5C 190.486,174.03 190.819,169.363 190.5,164.5C 199.833,164.5 209.167,164.5 218.5,164.5C 228.167,164.5 237.833,164.5 247.5,164.5C 247.5,159.5 247.5,154.5 247.5,149.5C 237.833,149.5 228.167,149.5 218.5,149.5C 218.5,144.833 218.5,140.167 218.5,135.5C 213.833,135.5 209.167,135.5 204.5,135.5C 204.5,130.833 204.5,126.167 204.5,121.5C 200.03,120.514 195.363,120.181 190.5,120.5C 190.827,110.985 190.494,101.652 189.5,92.5C 184.833,92.5 180.167,92.5 175.5,92.5C 175.5,82.8333 175.5,73.1667 175.5,63.5C 185.167,63.5 194.833,63.5 204.5,63.5C 204.5,68.1667 204.5,72.8333 204.5,77.5C 208.97,78.4861 213.637,78.8195 218.5,78.5C 218.5,83.1667 218.5,87.8333 218.5,92.5C 223.5,92.5 228.5,92.5 233.5,92.5C 233.5,97.1667 233.5,101.833 233.5,106.5C 238.167,106.5 242.833,106.5 247.5,106.5C 247.5,87.5 247.5,68.5 247.5,49.5C 252.167,49.5 256.833,49.5 261.5,49.5C 261.5,39.8333 261.5,30.1667 261.5,20.5 Z"/></g>
<g><path style="opacity:1" fill="#0c0c0c" d="M 276.5,20.5 C 281.167,20.5 285.833,20.5 290.5,20.5C 290.5,29.8333 290.5,39.1667 290.5,48.5C 295.5,48.5 300.5,48.5 305.5,48.5C 305.5,58.1667 305.5,67.8333 305.5,77.5C 304.513,82.3054 304.179,87.3054 304.5,92.5C 304.5,97.1667 304.5,101.833 304.5,106.5C 299.833,106.5 295.167,106.5 290.5,106.5C 290.5,92.1667 290.5,77.8333 290.5,63.5C 285.833,63.5 281.167,63.5 276.5,63.5C 276.5,58.8333 276.5,54.1667 276.5,49.5C 276.5,39.8333 276.5,30.1667 276.5,20.5 Z"/></g>
<g><path style="opacity:1" fill="#3e5618" d="M 204.5,63.5 C 194.833,63.5 185.167,63.5 175.5,63.5C 175.5,73.1667 175.5,82.8333 175.5,92.5C 170.5,92.5 165.5,92.5 160.5,92.5C 160.5,77.8333 160.5,63.1667 160.5,48.5C 175.167,48.5 189.833,48.5 204.5,48.5C 204.5,53.5 204.5,58.5 204.5,63.5 Z"/></g>
<g><path style="opacity:1" fill="#3e5719" d="M 261.5,20.5 C 261.5,30.1667 261.5,39.8333 261.5,49.5C 256.833,49.5 252.167,49.5 247.5,49.5C 247.5,68.5 247.5,87.5 247.5,106.5C 242.833,106.5 238.167,106.5 233.5,106.5C 233.5,101.833 233.5,97.1667 233.5,92.5C 233.5,87.5 233.5,82.5 233.5,77.5C 223.833,77.5 214.167,77.5 204.5,77.5C 204.5,72.8333 204.5,68.1667 204.5,63.5C 213.833,63.5 223.167,63.5 232.5,63.5C 232.5,58.5 232.5,53.5 232.5,48.5C 237.167,48.5 241.833,48.5 246.5,48.5C 246.5,39.1667 246.5,29.8333 246.5,20.5C 251.5,20.5 256.5,20.5 261.5,20.5 Z"/></g>
<g><path style="opacity:1" fill="#6f962a" d="M 276.5,49.5 C 281.167,49.5 285.833,49.5 290.5,49.5C 290.5,54.1667 290.5,58.8333 290.5,63.5C 290.5,58.8333 290.5,54.1667 290.5,49.5C 285.833,49.5 281.167,49.5 276.5,49.5 Z"/></g>
<g><path style="opacity:1" fill="#3e5618" d="M 376.5,48.5 C 376.5,53.5 376.5,58.5 376.5,63.5C 366.833,63.5 357.167,63.5 347.5,63.5C 347.5,58.5 347.5,53.5 347.5,48.5C 357.167,48.5 366.833,48.5 376.5,48.5 Z"/></g>
<g><path style="opacity:1" fill="#3d5718" d="M 75.5,77.5 C 70.5,77.5 65.5,77.5 60.5,77.5C 60.5,87.1667 60.5,96.8333 60.5,106.5C 55.8333,106.5 51.1667,106.5 46.5,106.5C 46.5,92.1667 46.5,77.8333 46.5,63.5C 56.1667,63.5 65.8333,63.5 75.5,63.5C 75.5,68.1667 75.5,72.8333 75.5,77.5 Z"/></g>
<g><path style="opacity:1" fill="#3e5618" d="M 347.5,63.5 C 347.5,68.1667 347.5,72.8333 347.5,77.5C 337.833,77.5 328.167,77.5 318.5,77.5C 318.5,72.8333 318.5,68.1667 318.5,63.5C 328.167,63.5 337.833,63.5 347.5,63.5 Z"/></g>
<g><path style="opacity:1" fill="#607f23" d="M 318.5,77.5 C 328.167,77.5 337.833,77.5 347.5,77.5C 338.348,78.4936 329.015,78.8269 319.5,78.5C 319.819,83.3633 319.486,88.03 318.5,92.5C 318.5,87.5 318.5,82.5 318.5,77.5 Z"/></g>
<g><path style="opacity:1" fill="#749a2e" d="M 75.5,77.5 C 75.5,82.5 75.5,87.5 75.5,92.5C 74.5139,88.03 74.1805,83.3633 74.5,78.5C 70.1667,78.5 65.8333,78.5 61.5,78.5C 61.5,97.5 61.5,116.5 61.5,135.5C 61.1667,135.5 60.8333,135.5 60.5,135.5C 60.5,125.833 60.5,116.167 60.5,106.5C 60.5,96.8333 60.5,87.1667 60.5,77.5C 65.5,77.5 70.5,77.5 75.5,77.5 Z"/></g>
<g><path style="opacity:1" fill="#a1d23d" d="M 75.5,92.5 C 80.1667,92.5 84.8333,92.5 89.5,92.5C 89.5,97.1667 89.5,101.833 89.5,106.5C 94.1667,106.5 98.8333,106.5 103.5,106.5C 103.5,111.5 103.5,116.5 103.5,121.5C 108.5,121.5 113.5,121.5 118.5,121.5C 118.5,130.833 118.5,140.167 118.5,149.5C 123.167,149.5 127.833,149.5 132.5,149.5C 132.5,154.5 132.5,159.5 132.5,164.5C 127.833,164.5 123.167,164.5 118.5,164.5C 118.5,169.167 118.5,173.833 118.5,178.5C 108.833,178.5 99.1667,178.5 89.5,178.5C 89.5,173.833 89.5,169.167 89.5,164.5C 84.8333,164.5 80.1667,164.5 75.5,164.5C 75.5,154.833 75.5,145.167 75.5,135.5C 70.8333,135.5 66.1667,135.5 61.5,135.5C 61.5,116.5 61.5,97.5 61.5,78.5C 65.8333,78.5 70.1667,78.5 74.5,78.5C 74.1805,83.3633 74.5139,88.03 75.5,92.5 Z"/></g>
<g><path style="opacity:1" fill="#3e5718" d="M 75.5,77.5 C 80.1667,77.5 84.8333,77.5 89.5,77.5C 89.5,82.5 89.5,87.5 89.5,92.5C 84.8333,92.5 80.1667,92.5 75.5,92.5C 75.5,87.5 75.5,82.5 75.5,77.5 Z"/></g>
<g><path style="opacity:1" fill="#6d9229" d="M 204.5,77.5 C 214.167,77.5 223.833,77.5 233.5,77.5C 233.5,82.5 233.5,87.5 233.5,92.5C 228.5,92.5 223.5,92.5 218.5,92.5C 218.5,87.8333 218.5,83.1667 218.5,78.5C 213.637,78.8195 208.97,78.4861 204.5,77.5 Z"/></g>
<g><path style="opacity:1" fill="#3d5418" d="M 305.5,77.5 C 309.833,77.5 314.167,77.5 318.5,77.5C 318.5,82.5 318.5,87.5 318.5,92.5C 314.167,92.5 309.833,92.5 305.5,92.5C 305.167,92.5 304.833,92.5 304.5,92.5C 304.179,87.3054 304.513,82.3054 305.5,77.5 Z"/></g>
<g><path style="opacity:1" fill="#3e5719" d="M 89.5,92.5 C 94.5,92.5 99.5,92.5 104.5,92.5C 104.5,97.1667 104.5,101.833 104.5,106.5C 104.5,111.167 104.5,115.833 104.5,120.5C 109.167,120.5 113.833,120.5 118.5,120.5C 118.5,120.833 118.5,121.167 118.5,121.5C 113.5,121.5 108.5,121.5 103.5,121.5C 103.5,116.5 103.5,111.5 103.5,106.5C 98.8333,106.5 94.1667,106.5 89.5,106.5C 89.5,101.833 89.5,97.1667 89.5,92.5 Z"/></g>
<g><path style="opacity:1" fill="#3d5718" d="M 175.5,92.5 C 180.167,92.5 184.833,92.5 189.5,92.5C 189.5,102.167 189.5,111.833 189.5,121.5C 184.833,121.5 180.167,121.5 175.5,121.5C 175.5,111.833 175.5,102.167 175.5,92.5 Z"/></g>
<g><path style="opacity:1" fill="#729a2c" d="M 189.5,92.5 C 190.494,101.652 190.827,110.985 190.5,120.5C 195.363,120.181 200.03,120.514 204.5,121.5C 199.5,121.5 194.5,121.5 189.5,121.5C 189.5,111.833 189.5,102.167 189.5,92.5 Z"/></g>
<g><path style="opacity:1" fill="#6d8d2c" d="M 362.5,92.5 C 362.5,102.167 362.5,111.833 362.5,121.5C 357.833,121.5 353.167,121.5 348.5,121.5C 348.5,126.167 348.5,130.833 348.5,135.5C 348.167,135.5 347.833,135.5 347.5,135.5C 347.5,130.5 347.5,125.5 347.5,120.5C 352.167,120.5 356.833,120.5 361.5,120.5C 361.173,110.985 361.506,101.652 362.5,92.5 Z"/></g>
<g><path style="opacity:1" fill="#0d0d0c" d="M 376.5,48.5 C 381.5,48.5 386.5,48.5 391.5,48.5C 391.5,63.1667 391.5,77.8333 391.5,92.5C 386.833,92.5 382.167,92.5 377.5,92.5C 377.5,102.167 377.5,111.833 377.5,121.5C 372.5,121.5 367.5,121.5 362.5,121.5C 362.5,111.833 362.5,102.167 362.5,92.5C 367.167,92.5 371.833,92.5 376.5,92.5C 376.5,82.8333 376.5,73.1667 376.5,63.5C 376.5,58.5 376.5,53.5 376.5,48.5 Z"/></g>
<g><path style="opacity:1" fill="#3d5618" d="M 520.5,92.5 C 520.5,97.1667 520.5,101.833 520.5,106.5C 505.833,106.5 491.167,106.5 476.5,106.5C 476.5,101.833 476.5,97.1667 476.5,92.5C 491.167,92.5 505.833,92.5 520.5,92.5 Z"/></g>
<g><path style="opacity:1" fill="#0b0c0b" d="M 520.5,92.5 C 525.167,92.5 529.833,92.5 534.5,92.5C 534.5,106.833 534.5,121.167 534.5,135.5C 529.833,135.5 525.167,135.5 520.5,135.5C 520.5,125.833 520.5,116.167 520.5,106.5C 520.5,101.833 520.5,97.1667 520.5,92.5 Z"/></g>
<g><path style="opacity:1" fill="#0b0c0b" d="M 104.5,106.5 C 109.167,106.5 113.833,106.5 118.5,106.5C 118.5,111.167 118.5,115.833 118.5,120.5C 118.5,115.833 118.5,111.167 118.5,106.5C 113.833,106.5 109.167,106.5 104.5,106.5 Z"/></g>
<g><path style="opacity:1" fill="#3e5718" d="M 476.5,106.5 C 476.5,111.167 476.5,115.833 476.5,120.5C 466.985,120.173 457.652,120.506 448.5,121.5C 448.5,126.167 448.5,130.833 448.5,135.5C 443.833,135.5 439.167,135.5 434.5,135.5C 434.167,135.5 433.833,135.5 433.5,135.5C 433.5,130.5 433.5,125.5 433.5,120.5C 438.167,120.5 442.833,120.5 447.5,120.5C 447.5,115.833 447.5,111.167 447.5,106.5C 457.167,106.5 466.833,106.5 476.5,106.5 Z"/></g>
<g><path style="opacity:1" fill="#0c0d0c" d="M 46.5,106.5 C 51.1667,106.5 55.8333,106.5 60.5,106.5C 60.5,116.167 60.5,125.833 60.5,135.5C 55.8333,135.5 51.1667,135.5 46.5,135.5C 46.5,125.833 46.5,116.167 46.5,106.5 Z"/></g>
<g><path style="opacity:1" fill="#70962b" d="M 304.5,92.5 C 304.833,92.5 305.167,92.5 305.5,92.5C 305.666,101.839 305.5,111.173 305,120.5C 300.263,121.469 295.43,121.803 290.5,121.5C 290.5,116.5 290.5,111.5 290.5,106.5C 295.167,106.5 299.833,106.5 304.5,106.5C 304.5,101.833 304.5,97.1667 304.5,92.5 Z"/></g>
<g><path style="opacity:1" fill="#6d8f2b" d="M 476.5,106.5 C 491.167,106.5 505.833,106.5 520.5,106.5C 520.5,116.167 520.5,125.833 520.5,135.5C 520.167,135.5 519.833,135.5 519.5,135.5C 519.5,126.167 519.5,116.833 519.5,107.5C 505.5,107.5 491.5,107.5 477.5,107.5C 477.5,112.167 477.5,116.833 477.5,121.5C 467.833,121.5 458.167,121.5 448.5,121.5C 457.652,120.506 466.985,120.173 476.5,120.5C 476.5,115.833 476.5,111.167 476.5,106.5 Z"/></g>
<g><path style="opacity:1" fill="#0b0c0b" d="M 118.5,120.5 C 123.5,120.5 128.5,120.5 133.5,120.5C 133.5,130.167 133.5,139.833 133.5,149.5C 133.167,149.5 132.833,149.5 132.5,149.5C 127.833,149.5 123.167,149.5 118.5,149.5C 118.5,140.167 118.5,130.833 118.5,121.5C 118.5,121.167 118.5,120.833 118.5,120.5 Z"/></g>
<g><path style="opacity:1" fill="#0b0c0b" d="M 362.5,121.5 C 362.5,126.167 362.5,130.833 362.5,135.5C 357.833,135.5 353.167,135.5 348.5,135.5C 348.5,130.833 348.5,126.167 348.5,121.5C 353.167,121.5 357.833,121.5 362.5,121.5 Z"/></g>
<g><path style="opacity:1" fill="#11110e" d="M 60.5,135.5 C 60.8333,135.5 61.1667,135.5 61.5,135.5C 66.1667,135.5 70.8333,135.5 75.5,135.5C 75.5,145.167 75.5,154.833 75.5,164.5C 75.1667,164.5 74.8333,164.5 74.5,164.5C 69.8333,164.5 65.1667,164.5 60.5,164.5C 60.5,154.833 60.5,145.167 60.5,135.5 Z"/></g>
<g><path style="opacity:1" fill="#3e5718" d="M 189.5,121.5 C 194.5,121.5 199.5,121.5 204.5,121.5C 204.5,126.167 204.5,130.833 204.5,135.5C 209.167,135.5 213.833,135.5 218.5,135.5C 218.5,140.167 218.5,144.833 218.5,149.5C 213.5,149.5 208.5,149.5 203.5,149.5C 203.5,144.833 203.5,140.167 203.5,135.5C 198.833,135.5 194.167,135.5 189.5,135.5C 189.5,130.833 189.5,126.167 189.5,121.5 Z"/></g>
<g><path style="opacity:1" fill="#6f962a" d="M 333.5,135.5 C 333.5,140.167 333.5,144.833 333.5,149.5C 328.833,149.5 324.167,149.5 319.5,149.5C 319.5,144.833 319.5,140.167 319.5,135.5C 324.167,135.5 328.833,135.5 333.5,135.5 Z"/></g>
<g><path style="opacity:1" fill="#0b0c0b" d="M 333.5,135.5 C 338.167,135.5 342.833,135.5 347.5,135.5C 347.833,135.5 348.167,135.5 348.5,135.5C 348.5,144.833 348.5,154.167 348.5,163.5C 343.5,163.5 338.5,163.5 333.5,163.5C 333.5,159.167 333.5,154.833 333.5,150.5C 333.5,150.167 333.5,149.833 333.5,149.5C 333.5,144.833 333.5,140.167 333.5,135.5 Z"/></g>
<g><path style="opacity:1" fill="#3d5718" d="M 433.5,135.5 C 433.5,140.167 433.5,144.833 433.5,149.5C 428.833,149.5 424.167,149.5 419.5,149.5C 419.5,144.833 419.5,140.167 419.5,135.5C 424.167,135.5 428.833,135.5 433.5,135.5 Z"/></g>
<g><path style="opacity:1" fill="#0b0c0b" d="M 506.5,135.5 C 510.833,135.5 515.167,135.5 519.5,135.5C 519.833,135.5 520.167,135.5 520.5,135.5C 520.5,145.167 520.5,154.833 520.5,164.5C 515.833,164.5 511.167,164.5 506.5,164.5C 506.5,154.833 506.5,145.167 506.5,135.5 Z"/></g>
<g><path style="opacity:1" fill="#0d0d0c" d="M 133.5,149.5 C 138.167,149.5 142.833,149.5 147.5,149.5C 147.5,159.167 147.5,168.833 147.5,178.5C 151.833,178.5 156.167,178.5 160.5,178.5C 160.833,178.5 161.167,178.5 161.5,178.5C 161.5,183.167 161.5,187.833 161.5,192.5C 156.5,192.5 151.5,192.5 146.5,192.5C 142.167,192.5 137.833,192.5 133.5,192.5C 133.5,178.167 133.5,163.833 133.5,149.5 Z"/></g>
<g><path style="opacity:1" fill="#0c0d0c" d="M 203.5,149.5 C 208.5,149.5 213.5,149.5 218.5,149.5C 218.5,154.167 218.5,158.833 218.5,163.5C 208.833,163.5 199.167,163.5 189.5,163.5C 189.5,158.833 189.5,154.167 189.5,149.5C 194.167,149.5 198.833,149.5 203.5,149.5 Z"/></g>
<g><path style="opacity:1" fill="#79a22f" d="M 433.5,135.5 C 433.833,135.5 434.167,135.5 434.5,135.5C 434.5,140.5 434.5,145.5 434.5,150.5C 429.5,150.5 424.5,150.5 419.5,150.5C 419.5,150.167 419.5,149.833 419.5,149.5C 424.167,149.5 428.833,149.5 433.5,149.5C 433.5,144.833 433.5,140.167 433.5,135.5 Z"/></g>
<g><path style="opacity:1" fill="#71972b" d="M 218.5,149.5 C 228.167,149.5 237.833,149.5 247.5,149.5C 247.5,154.5 247.5,159.5 247.5,164.5C 237.833,164.5 228.167,164.5 218.5,164.5C 218.5,164.167 218.5,163.833 218.5,163.5C 218.5,158.833 218.5,154.167 218.5,149.5 Z"/></g>
<g><path style="opacity:1" fill="#71982b" d="M 304.5,149.5 C 304.5,154.5 304.5,159.5 304.5,164.5C 299.833,164.5 295.167,164.5 290.5,164.5C 290.5,159.5 290.5,154.5 290.5,149.5C 295.167,149.5 299.833,149.5 304.5,149.5 Z"/></g>
<g><path style="opacity:1" fill="#3d5718" d="M 333.5,150.5 C 333.5,154.833 333.5,159.167 333.5,163.5C 324.167,163.5 314.833,163.5 305.5,163.5C 305.5,159.167 305.5,154.833 305.5,150.5C 314.833,150.5 324.167,150.5 333.5,150.5 Z"/></g>
<g><path style="opacity:1" fill="#0b0c0b" d="M 189.5,163.5 C 189.5,168.5 189.5,173.5 189.5,178.5C 180.167,178.5 170.833,178.5 161.5,178.5C 161.167,178.5 160.833,178.5 160.5,178.5C 160.5,173.5 160.5,168.5 160.5,163.5C 170.167,163.5 179.833,163.5 189.5,163.5 Z"/></g>
<g><path style="opacity:1" fill="#577620" d="M 304.5,149.5 C 309.5,149.5 314.5,149.5 319.5,149.5C 324.167,149.5 328.833,149.5 333.5,149.5C 333.5,149.833 333.5,150.167 333.5,150.5C 324.167,150.5 314.833,150.5 305.5,150.5C 305.5,154.833 305.5,159.167 305.5,163.5C 314.833,163.5 324.167,163.5 333.5,163.5C 333.5,163.833 333.5,164.167 333.5,164.5C 323.833,164.5 314.167,164.5 304.5,164.5C 304.5,159.5 304.5,154.5 304.5,149.5 Z"/></g>
<g><path style="opacity:1" fill="#0b0c0b" d="M 348.5,163.5 C 353.167,163.5 357.833,163.5 362.5,163.5C 362.5,168.5 362.5,173.5 362.5,178.5C 357.833,178.5 353.167,178.5 348.5,178.5C 348.5,173.5 348.5,168.5 348.5,163.5 Z"/></g>
<g><path style="opacity:1" fill="#0b0c0b" d="M 74.5,164.5 C 74.8333,164.5 75.1667,164.5 75.5,164.5C 80.1667,164.5 84.8333,164.5 89.5,164.5C 89.5,169.167 89.5,173.833 89.5,178.5C 89.5,183.5 89.5,188.5 89.5,193.5C 84.5,193.5 79.5,193.5 74.5,193.5C 74.5,183.833 74.5,174.167 74.5,164.5 Z"/></g>
<g><path style="opacity:1" fill="#6f942a" d="M 132.5,164.5 C 132.5,174.167 132.5,183.833 132.5,193.5C 132.5,197.833 132.5,202.167 132.5,206.5C 137.167,206.5 141.833,206.5 146.5,206.5C 146.5,202.167 146.5,197.833 146.5,193.5C 146.5,193.167 146.5,192.833 146.5,192.5C 151.5,192.5 156.5,192.5 161.5,192.5C 157.03,193.486 152.363,193.819 147.5,193.5C 147.5,198.167 147.5,202.833 147.5,207.5C 142.5,207.5 137.5,207.5 132.5,207.5C 132.5,212.167 132.5,216.833 132.5,221.5C 127.833,221.5 123.167,221.5 118.5,221.5C 118.5,216.833 118.5,212.167 118.5,207.5C 114.03,206.514 109.363,206.181 104.5,206.5C 104.818,201.968 104.485,197.634 103.5,193.5C 98.8333,193.5 94.1667,193.5 89.5,193.5C 89.5,188.5 89.5,183.5 89.5,178.5C 99.1667,178.5 108.833,178.5 118.5,178.5C 118.5,173.833 118.5,169.167 118.5,164.5C 123.167,164.5 127.833,164.5 132.5,164.5 Z"/></g>
<g><path style="opacity:1" fill="#1c2312" d="M 132.5,149.5 C 132.833,149.5 133.167,149.5 133.5,149.5C 133.5,163.833 133.5,178.167 133.5,192.5C 137.833,192.5 142.167,192.5 146.5,192.5C 146.5,192.833 146.5,193.167 146.5,193.5C 141.833,193.5 137.167,193.5 132.5,193.5C 132.5,183.833 132.5,174.167 132.5,164.5C 132.5,159.5 132.5,154.5 132.5,149.5 Z"/></g>
<g><path style="opacity:1" fill="#475b20" d="M 189.5,163.5 C 199.167,163.5 208.833,163.5 218.5,163.5C 218.5,163.833 218.5,164.167 218.5,164.5C 209.167,164.5 199.833,164.5 190.5,164.5C 190.819,169.363 190.486,174.03 189.5,178.5C 189.5,173.5 189.5,168.5 189.5,163.5 Z"/></g>
<g><path style="opacity:1" fill="#6f962a" d="M 333.5,164.5 C 338.167,164.5 342.833,164.5 347.5,164.5C 347.5,169.167 347.5,173.833 347.5,178.5C 347.5,173.833 347.5,169.167 347.5,164.5C 342.833,164.5 338.167,164.5 333.5,164.5 Z"/></g>
<g><path style="opacity:1" fill="#2d3916" d="M 333.5,164.5 C 333.5,164.167 333.5,163.833 333.5,163.5C 338.5,163.5 343.5,163.5 348.5,163.5C 348.5,168.5 348.5,173.5 348.5,178.5C 348.167,178.5 347.833,178.5 347.5,178.5C 347.5,173.833 347.5,169.167 347.5,164.5C 342.833,164.5 338.167,164.5 333.5,164.5 Z"/></g>
<g><path style="opacity:1" fill="#3e5718" d="M 419.5,149.5 C 419.5,149.833 419.5,150.167 419.5,150.5C 419.5,155.167 419.5,159.833 419.5,164.5C 414.833,164.5 410.167,164.5 405.5,164.5C 405.5,169.167 405.5,173.833 405.5,178.5C 400.833,178.5 396.167,178.5 391.5,178.5C 391.167,178.5 390.833,178.5 390.5,178.5C 390.5,173.5 390.5,168.5 390.5,163.5C 395.167,163.5 399.833,163.5 404.5,163.5C 404.5,158.833 404.5,154.167 404.5,149.5C 409.5,149.5 414.5,149.5 419.5,149.5 Z"/></g>
<g><path style="opacity:1" fill="#6e932a" d="M 348.5,178.5 C 353.167,178.5 357.833,178.5 362.5,178.5C 362.5,183.167 362.5,187.833 362.5,192.5C 357.833,192.5 353.167,192.5 348.5,192.5C 348.5,187.833 348.5,183.167 348.5,178.5 Z"/></g>
<g><path style="opacity:1" fill="#3e5719" d="M 362.5,178.5 C 371.833,178.5 381.167,178.5 390.5,178.5C 390.5,187.833 390.5,197.167 390.5,206.5C 385.833,206.5 381.167,206.5 376.5,206.5C 376.5,201.833 376.5,197.167 376.5,192.5C 371.833,192.5 367.167,192.5 362.5,192.5C 362.5,187.833 362.5,183.167 362.5,178.5 Z"/></g>
<g><path style="opacity:1" fill="#0f100d" d="M 506.5,135.5 C 506.5,145.167 506.5,154.833 506.5,164.5C 506.5,169.5 506.5,174.5 506.5,179.5C 501.5,179.5 496.5,179.5 491.5,179.5C 491.5,184.167 491.5,188.833 491.5,193.5C 486.833,193.5 482.167,193.5 477.5,193.5C 477.5,188.5 477.5,183.5 477.5,178.5C 482.167,178.5 486.833,178.5 491.5,178.5C 491.5,173.833 491.5,169.167 491.5,164.5C 496.167,164.5 500.833,164.5 505.5,164.5C 505.173,154.652 505.506,144.986 506.5,135.5 Z"/></g>
<g><path style="opacity:1" fill="#5d7827" d="M 477.5,178.5 C 477.5,183.5 477.5,188.5 477.5,193.5C 472.833,193.5 468.167,193.5 463.5,193.5C 463.167,193.5 462.833,193.5 462.5,193.5C 466.97,192.514 471.637,192.181 476.5,192.5C 476.181,187.637 476.514,182.97 477.5,178.5 Z"/></g>
<g><path style="opacity:1" fill="#0b0c0b" d="M 89.5,193.5 C 94.1667,193.5 98.8333,193.5 103.5,193.5C 103.5,198.167 103.5,202.833 103.5,207.5C 98.8333,207.5 94.1667,207.5 89.5,207.5C 89.5,202.833 89.5,198.167 89.5,193.5 Z"/></g>
<g><path style="opacity:1" fill="#3e5719" d="M 132.5,193.5 C 137.167,193.5 141.833,193.5 146.5,193.5C 146.5,197.833 146.5,202.167 146.5,206.5C 141.833,206.5 137.167,206.5 132.5,206.5C 132.5,202.167 132.5,197.833 132.5,193.5 Z"/></g>
<g><path style="opacity:1" fill="#6e942a" d="M 390.5,178.5 C 390.833,178.5 391.167,178.5 391.5,178.5C 391.5,188.167 391.5,197.833 391.5,207.5C 386.5,207.5 381.5,207.5 376.5,207.5C 376.5,212.167 376.5,216.833 376.5,221.5C 371.833,221.5 367.167,221.5 362.5,221.5C 362.5,211.833 362.5,202.167 362.5,192.5C 367.167,192.5 371.833,192.5 376.5,192.5C 376.5,197.167 376.5,201.833 376.5,206.5C 381.167,206.5 385.833,206.5 390.5,206.5C 390.5,197.167 390.5,187.833 390.5,178.5 Z"/></g>
<g><path style="opacity:1" fill="#0b0c0b" d="M 463.5,193.5 C 468.167,193.5 472.833,193.5 477.5,193.5C 477.5,198.167 477.5,202.833 477.5,207.5C 472.833,207.5 468.167,207.5 463.5,207.5C 463.5,202.833 463.5,198.167 463.5,193.5 Z"/></g>
<g><path style="opacity:1" fill="#537022" d="M 103.5,193.5 C 104.485,197.634 104.818,201.968 104.5,206.5C 109.363,206.181 114.03,206.514 118.5,207.5C 113.5,207.5 108.5,207.5 103.5,207.5C 103.5,202.833 103.5,198.167 103.5,193.5 Z"/></g>
<g><path style="opacity:1" fill="#6e932a" d="M 175.5,221.5 C 175.5,226.167 175.5,230.833 175.5,235.5C 175.5,235.833 175.5,236.167 175.5,236.5C 166.167,236.5 156.833,236.5 147.5,236.5C 151.97,235.514 156.637,235.181 161.5,235.5C 161.5,230.833 161.5,226.167 161.5,221.5C 166.167,221.5 170.833,221.5 175.5,221.5 Z"/></g>
<g><path style="opacity:1" fill="#3e5719" d="M 175.5,221.5 C 218.5,221.5 261.5,221.5 304.5,221.5C 304.5,226.167 304.5,230.833 304.5,235.5C 261.5,235.5 218.5,235.5 175.5,235.5C 175.5,230.833 175.5,226.167 175.5,221.5 Z"/></g>
<g><path style="opacity:1" fill="#6e932a" d="M 304.5,221.5 C 309.5,221.5 314.5,221.5 319.5,221.5C 319.5,226.167 319.5,230.833 319.5,235.5C 324.363,235.181 329.03,235.514 333.5,236.5C 323.833,236.5 314.167,236.5 304.5,236.5C 304.5,236.167 304.5,235.833 304.5,235.5C 304.5,230.833 304.5,226.167 304.5,221.5 Z"/></g>
<g><path style="opacity:1" fill="#0d0d0c" d="M 462.5,193.5 C 462.833,193.5 463.167,193.5 463.5,193.5C 463.5,198.167 463.5,202.833 463.5,207.5C 463.5,212.5 463.5,217.5 463.5,222.5C 453.833,222.5 444.167,222.5 434.5,222.5C 434.5,227.167 434.5,231.833 434.5,236.5C 429.833,236.5 425.167,236.5 420.5,236.5C 420.5,240.833 420.5,245.167 420.5,249.5C 425.167,249.5 429.833,249.5 434.5,249.5C 434.5,278.5 434.5,307.5 434.5,336.5C 429.833,336.5 425.167,336.5 420.5,336.5C 420.5,346.167 420.5,355.833 420.5,365.5C 415.5,365.5 410.5,365.5 405.5,365.5C 405.5,355.833 405.5,346.167 405.5,336.5C 410.167,336.5 414.833,336.5 419.5,336.5C 419.5,307.833 419.5,279.167 419.5,250.5C 414.833,250.5 410.167,250.5 405.5,250.5C 405.5,240.833 405.5,231.167 405.5,221.5C 415.167,221.5 424.833,221.5 434.5,221.5C 434.5,216.833 434.5,212.167 434.5,207.5C 443.833,207.5 453.167,207.5 462.5,207.5C 462.5,202.833 462.5,198.167 462.5,193.5 Z"/></g>
<g><path style="opacity:1" fill="#3f5719" d="M 147.5,236.5 C 156.833,236.5 166.167,236.5 175.5,236.5C 175.5,241.167 175.5,245.833 175.5,250.5C 170.833,250.5 166.167,250.5 161.5,250.5C 156.833,250.5 152.167,250.5 147.5,250.5C 147.5,245.833 147.5,241.167 147.5,236.5 Z"/></g>
<g><path style="opacity:1" fill="#955d24" d="M 175.5,235.5 C 218.5,235.5 261.5,235.5 304.5,235.5C 304.5,235.833 304.5,236.167 304.5,236.5C 304.5,241.167 304.5,245.833 304.5,250.5C 299.833,250.5 295.167,250.5 290.5,250.5C 285.833,250.5 281.167,250.5 276.5,250.5C 276.5,255.167 276.5,259.833 276.5,264.5C 271.5,264.5 266.5,264.5 261.5,264.5C 256.833,264.5 252.167,264.5 247.5,264.5C 247.5,269.167 247.5,273.833 247.5,278.5C 242.637,278.181 237.97,278.514 233.5,279.5C 233.5,284.167 233.5,288.833 233.5,293.5C 223.833,293.5 214.167,293.5 204.5,293.5C 204.5,288.833 204.5,284.167 204.5,279.5C 200.03,278.514 195.363,278.181 190.5,278.5C 190.5,269.167 190.5,259.833 190.5,250.5C 185.5,250.5 180.5,250.5 175.5,250.5C 175.5,245.833 175.5,241.167 175.5,236.5C 175.5,236.167 175.5,235.833 175.5,235.5 Z"/></g>
<g><path style="opacity:1" fill="#405719" d="M 304.5,236.5 C 314.167,236.5 323.833,236.5 333.5,236.5C 333.5,241.167 333.5,245.833 333.5,250.5C 328.833,250.5 324.167,250.5 319.5,250.5C 314.5,250.5 309.5,250.5 304.5,250.5C 304.5,245.833 304.5,241.167 304.5,236.5 Z"/></g>
<g><path style="opacity:1" fill="#0e0f0c" d="M 103.5,207.5 C 108.5,207.5 113.5,207.5 118.5,207.5C 118.5,212.167 118.5,216.833 118.5,221.5C 123.167,221.5 127.833,221.5 132.5,221.5C 132.5,231.167 132.5,240.833 132.5,250.5C 127.833,250.5 123.167,250.5 118.5,250.5C 118.5,283.833 118.5,317.167 118.5,350.5C 123.167,350.5 127.833,350.5 132.5,350.5C 132.5,355.5 132.5,360.5 132.5,365.5C 132.5,370.167 132.5,374.833 132.5,379.5C 127.833,379.5 123.167,379.5 118.5,379.5C 118.5,384.167 118.5,388.833 118.5,393.5C 118.167,393.5 117.833,393.5 117.5,393.5C 117.5,388.833 117.5,384.167 117.5,379.5C 117.5,370.167 117.5,360.833 117.5,351.5C 112.833,351.5 108.167,351.5 103.5,351.5C 103.5,317.5 103.5,283.5 103.5,249.5C 108.167,249.5 112.833,249.5 117.5,249.5C 117.5,240.5 117.5,231.5 117.5,222.5C 112.833,222.5 108.167,222.5 103.5,222.5C 103.5,217.5 103.5,212.5 103.5,207.5 Z"/></g>
<g><path style="opacity:1" fill="#6f962a" d="M 132.5,250.5 C 132.5,255.167 132.5,259.833 132.5,264.5C 132.5,269.5 132.5,274.5 132.5,279.5C 132.5,303.167 132.5,326.833 132.5,350.5C 127.833,350.5 123.167,350.5 118.5,350.5C 118.5,317.167 118.5,283.833 118.5,250.5C 123.167,250.5 127.833,250.5 132.5,250.5 Z"/></g>
<g><path style="opacity:1" fill="#3e5719" d="M 132.5,250.5 C 137.167,250.5 141.833,250.5 146.5,250.5C 146.5,255.167 146.5,259.833 146.5,264.5C 141.833,264.5 137.167,264.5 132.5,264.5C 132.5,259.833 132.5,255.167 132.5,250.5 Z"/></g>
<g><path style="opacity:1" fill="#f9ae63" d="M 161.5,250.5 C 166.167,250.5 170.833,250.5 175.5,250.5C 175.5,255.167 175.5,259.833 175.5,264.5C 180.167,264.5 184.833,264.5 189.5,264.5C 189.5,269.5 189.5,274.5 189.5,279.5C 194.5,279.5 199.5,279.5 204.5,279.5C 204.5,284.167 204.5,288.833 204.5,293.5C 214.167,293.5 223.833,293.5 233.5,293.5C 233.5,288.833 233.5,284.167 233.5,279.5C 242.833,279.5 252.167,279.5 261.5,279.5C 261.5,274.5 261.5,269.5 261.5,264.5C 266.5,264.5 271.5,264.5 276.5,264.5C 281.167,264.5 285.833,264.5 290.5,264.5C 290.5,259.833 290.5,255.167 290.5,250.5C 295.167,250.5 299.833,250.5 304.5,250.5C 309.5,250.5 314.5,250.5 319.5,250.5C 319.5,255.167 319.5,259.833 319.5,264.5C 324.167,264.5 328.833,264.5 333.5,264.5C 333.5,269.5 333.5,274.5 333.5,279.5C 338.167,279.5 342.833,279.5 347.5,279.5C 347.5,284.167 347.5,288.833 347.5,293.5C 347.5,307.833 347.5,322.167 347.5,336.5C 342.833,336.5 338.167,336.5 333.5,336.5C 333.5,341.5 333.5,346.5 333.5,351.5C 328.833,351.5 324.167,351.5 319.5,351.5C 319.5,356.167 319.5,360.833 319.5,365.5C 314.5,365.5 309.5,365.5 304.5,365.5C 304.5,370.167 304.5,374.833 304.5,379.5C 299.833,379.5 295.167,379.5 290.5,379.5C 290.5,374.833 290.5,370.167 290.5,365.5C 285.833,365.5 281.167,365.5 276.5,365.5C 276.5,370.167 276.5,374.833 276.5,379.5C 247.833,379.5 219.167,379.5 190.5,379.5C 190.819,374.637 190.486,369.97 189.5,365.5C 184.833,365.5 180.167,365.5 175.5,365.5C 175.5,370.167 175.5,374.833 175.5,379.5C 170.833,379.5 166.167,379.5 161.5,379.5C 161.5,374.833 161.5,370.167 161.5,365.5C 156.833,365.5 152.167,365.5 147.5,365.5C 147.5,360.833 147.5,356.167 147.5,351.5C 157.015,351.827 166.348,351.494 175.5,350.5C 175.5,345.833 175.5,341.167 175.5,336.5C 180.167,336.5 184.833,336.5 189.5,336.5C 189.5,341.167 189.5,345.833 189.5,350.5C 194.5,350.5 199.5,350.5 204.5,350.5C 204.5,355.5 204.5,360.5 204.5,365.5C 214.167,365.5 223.833,365.5 233.5,365.5C 233.5,360.5 233.5,355.5 233.5,350.5C 238.167,350.5 242.833,350.5 247.5,350.5C 247.5,345.833 247.5,341.167 247.5,336.5C 247.5,331.833 247.5,327.167 247.5,322.5C 228.5,322.5 209.5,322.5 190.5,322.5C 190.5,312.833 190.5,303.167 190.5,293.5C 185.833,293.5 181.167,293.5 176.5,293.5C 176.5,288.5 176.5,283.5 176.5,278.5C 166.833,278.5 157.167,278.5 147.5,278.5C 147.5,273.833 147.5,269.167 147.5,264.5C 152.167,264.5 156.833,264.5 161.5,264.5C 161.5,259.833 161.5,255.167 161.5,250.5 Z"/></g>
<g><path style="opacity:1" fill="#ba8148" d="M 175.5,250.5 C 180.5,250.5 185.5,250.5 190.5,250.5C 190.5,259.833 190.5,269.167 190.5,278.5C 195.363,278.181 200.03,278.514 204.5,279.5C 199.5,279.5 194.5,279.5 189.5,279.5C 189.5,274.5 189.5,269.5 189.5,264.5C 184.833,264.5 180.167,264.5 175.5,264.5C 175.5,259.833 175.5,255.167 175.5,250.5 Z"/></g>
<g><path style="opacity:1" fill="#ba834a" d="M 290.5,250.5 C 290.5,255.167 290.5,259.833 290.5,264.5C 285.833,264.5 281.167,264.5 276.5,264.5C 276.5,259.833 276.5,255.167 276.5,250.5C 281.167,250.5 285.833,250.5 290.5,250.5 Z"/></g>
<g><path style="opacity:1" fill="#ba834a" d="M 319.5,250.5 C 324.167,250.5 328.833,250.5 333.5,250.5C 333.5,255.167 333.5,259.833 333.5,264.5C 328.833,264.5 324.167,264.5 319.5,264.5C 319.5,259.833 319.5,255.167 319.5,250.5 Z"/></g>
<g><path style="opacity:1" fill="#3d5718" d="M 333.5,250.5 C 338.167,250.5 342.833,250.5 347.5,250.5C 347.5,255.167 347.5,259.833 347.5,264.5C 342.833,264.5 338.167,264.5 333.5,264.5C 333.5,259.833 333.5,255.167 333.5,250.5 Z"/></g>
<g><path style="opacity:1" fill="#6f952a" d="M 405.5,250.5 C 410.167,250.5 414.833,250.5 419.5,250.5C 419.5,279.167 419.5,307.833 419.5,336.5C 414.833,336.5 410.167,336.5 405.5,336.5C 405.5,346.167 405.5,355.833 405.5,365.5C 400.833,365.5 396.167,365.5 391.5,365.5C 390.514,369.97 390.181,374.637 390.5,379.5C 381.167,379.5 371.833,379.5 362.5,379.5C 362.5,374.833 362.5,370.167 362.5,365.5C 367.167,365.5 371.833,365.5 376.5,365.5C 376.5,360.5 376.5,355.5 376.5,350.5C 376.5,336.167 376.5,321.833 376.5,307.5C 376.5,302.833 376.5,298.167 376.5,293.5C 371.833,293.5 367.167,293.5 362.5,293.5C 362.5,288.833 362.5,284.167 362.5,279.5C 372.167,279.5 381.833,279.5 391.5,279.5C 391.5,274.833 391.5,270.167 391.5,265.5C 396.363,265.819 401.03,265.486 405.5,264.5C 405.5,259.833 405.5,255.167 405.5,250.5 Z"/></g>
<g><path style="opacity:1" fill="#bc8349" d="M 261.5,264.5 C 261.5,269.5 261.5,274.5 261.5,279.5C 252.167,279.5 242.833,279.5 233.5,279.5C 237.97,278.514 242.637,278.181 247.5,278.5C 247.5,273.833 247.5,269.167 247.5,264.5C 252.167,264.5 256.833,264.5 261.5,264.5 Z"/></g>
<g><path style="opacity:1" fill="#b48147" d="M 333.5,264.5 C 338.167,264.5 342.833,264.5 347.5,264.5C 348.473,274.084 348.806,283.75 348.5,293.5C 348.167,293.5 347.833,293.5 347.5,293.5C 347.5,288.833 347.5,284.167 347.5,279.5C 342.833,279.5 338.167,279.5 333.5,279.5C 333.5,274.5 333.5,269.5 333.5,264.5 Z"/></g>
<g><path style="opacity:1" fill="#405919" d="M 347.5,264.5 C 352.5,264.5 357.5,264.5 362.5,264.5C 362.5,269.167 362.5,273.833 362.5,278.5C 362.5,278.833 362.5,279.167 362.5,279.5C 362.5,284.167 362.5,288.833 362.5,293.5C 362.167,293.5 361.833,293.5 361.5,293.5C 357.167,293.5 352.833,293.5 348.5,293.5C 348.806,283.75 348.473,274.084 347.5,264.5 Z"/></g>
<g><path style="opacity:1" fill="#8bb736" d="M 405.5,264.5 C 401.03,265.486 396.363,265.819 391.5,265.5C 391.5,270.167 391.5,274.833 391.5,279.5C 381.833,279.5 372.167,279.5 362.5,279.5C 362.5,279.167 362.5,278.833 362.5,278.5C 371.833,278.5 381.167,278.5 390.5,278.5C 390.5,273.833 390.5,269.167 390.5,264.5C 395.5,264.5 400.5,264.5 405.5,264.5 Z"/></g>
<g><path style="opacity:1" fill="#f9af63" d="M 132.5,279.5 C 137.167,279.5 141.833,279.5 146.5,279.5C 146.5,298.5 146.5,317.5 146.5,336.5C 146.5,341.167 146.5,345.833 146.5,350.5C 141.833,350.5 137.167,350.5 132.5,350.5C 132.5,326.833 132.5,303.167 132.5,279.5 Z"/></g>
<g><path style="opacity:1" fill="#0e0e0e" d="M 276.5,279.5 C 281.167,279.5 285.833,279.5 290.5,279.5C 290.5,284.167 290.5,288.833 290.5,293.5C 285.833,293.5 281.167,293.5 276.5,293.5C 276.5,288.833 276.5,284.167 276.5,279.5 Z"/></g>
<g><path style="opacity:1" fill="#996028" d="M 276.5,279.5 C 285.652,278.506 294.985,278.173 304.5,278.5C 304.5,283.5 304.5,288.5 304.5,293.5C 299.833,293.5 295.167,293.5 290.5,293.5C 290.5,288.833 290.5,284.167 290.5,279.5C 285.833,279.5 281.167,279.5 276.5,279.5 Z"/></g>
<g><path style="opacity:1" fill="#0e0e0e" d="M 147.5,293.5 C 152.167,293.5 156.833,293.5 161.5,293.5C 161.5,303.167 161.5,312.833 161.5,322.5C 166.167,322.5 170.833,322.5 175.5,322.5C 175.5,327.167 175.5,331.833 175.5,336.5C 175.5,341.167 175.5,345.833 175.5,350.5C 170.833,350.5 166.167,350.5 161.5,350.5C 161.5,345.833 161.5,341.167 161.5,336.5C 156.833,336.5 152.167,336.5 147.5,336.5C 147.5,322.167 147.5,307.833 147.5,293.5 Z"/></g>
<g><path style="opacity:1" fill="#ba824a" d="M 146.5,250.5 C 146.833,250.5 147.167,250.5 147.5,250.5C 152.167,250.5 156.833,250.5 161.5,250.5C 161.5,255.167 161.5,259.833 161.5,264.5C 156.833,264.5 152.167,264.5 147.5,264.5C 147.5,269.167 147.5,273.833 147.5,278.5C 157.167,278.5 166.833,278.5 176.5,278.5C 176.5,283.5 176.5,288.5 176.5,293.5C 181.167,293.5 185.833,293.5 190.5,293.5C 190.5,303.167 190.5,312.833 190.5,322.5C 190.5,327.167 190.5,331.833 190.5,336.5C 195.167,336.5 199.833,336.5 204.5,336.5C 204.5,341.167 204.5,345.833 204.5,350.5C 199.5,350.5 194.5,350.5 189.5,350.5C 189.5,345.833 189.5,341.167 189.5,336.5C 184.833,336.5 180.167,336.5 175.5,336.5C 175.5,331.833 175.5,327.167 175.5,322.5C 175.5,312.833 175.5,303.167 175.5,293.5C 175.5,288.833 175.5,284.167 175.5,279.5C 170.833,279.5 166.167,279.5 161.5,279.5C 156.833,279.5 152.167,279.5 147.5,279.5C 147.5,284.167 147.5,288.833 147.5,293.5C 147.5,307.833 147.5,322.167 147.5,336.5C 147.167,336.5 146.833,336.5 146.5,336.5C 146.5,317.5 146.5,298.5 146.5,279.5C 141.833,279.5 137.167,279.5 132.5,279.5C 132.5,274.5 132.5,269.5 132.5,264.5C 137.167,264.5 141.833,264.5 146.5,264.5C 146.5,259.833 146.5,255.167 146.5,250.5 Z"/></g>
<g><path style="opacity:1" fill="#efefef" d="M 161.5,293.5 C 166.167,293.5 170.833,293.5 175.5,293.5C 175.5,303.167 175.5,312.833 175.5,322.5C 170.833,322.5 166.167,322.5 161.5,322.5C 161.5,312.833 161.5,303.167 161.5,293.5 Z"/></g>
<g><path style="opacity:1" fill="#0e0e0e" d="M 161.5,279.5 C 166.167,279.5 170.833,279.5 175.5,279.5C 175.5,284.167 175.5,288.833 175.5,293.5C 170.833,293.5 166.167,293.5 161.5,293.5C 161.5,288.833 161.5,284.167 161.5,279.5 Z"/></g>
<g><path style="opacity:1" fill="#925b24" d="M 161.5,279.5 C 161.5,284.167 161.5,288.833 161.5,293.5C 156.833,293.5 152.167,293.5 147.5,293.5C 147.5,288.833 147.5,284.167 147.5,279.5C 152.167,279.5 156.833,279.5 161.5,279.5 Z"/></g>
<g><path style="opacity:1" fill="#bb844d" d="M 276.5,279.5 C 276.5,284.167 276.5,288.833 276.5,293.5C 276.5,303.167 276.5,312.833 276.5,322.5C 276.5,331.833 276.5,341.167 276.5,350.5C 275.514,346.03 275.181,341.363 275.5,336.5C 270.833,336.5 266.167,336.5 261.5,336.5C 261.5,322.167 261.5,307.833 261.5,293.5C 266.167,293.5 270.833,293.5 275.5,293.5C 275.181,288.637 275.514,283.97 276.5,279.5 Z"/></g>
<g><path style="opacity:1" fill="#efefef" d="M 276.5,293.5 C 281.167,293.5 285.833,293.5 290.5,293.5C 290.5,303.167 290.5,312.833 290.5,322.5C 285.833,322.5 281.167,322.5 276.5,322.5C 276.5,312.833 276.5,303.167 276.5,293.5 Z"/></g>
<g><path style="opacity:1" fill="#0b0c0b" d="M 290.5,293.5 C 295.167,293.5 299.833,293.5 304.5,293.5C 304.5,307.833 304.5,322.167 304.5,336.5C 299.833,336.5 295.167,336.5 290.5,336.5C 290.5,341.167 290.5,345.833 290.5,350.5C 285.833,350.5 281.167,350.5 276.5,350.5C 276.5,341.167 276.5,331.833 276.5,322.5C 281.167,322.5 285.833,322.5 290.5,322.5C 290.5,312.833 290.5,303.167 290.5,293.5 Z"/></g>
<g><path style="opacity:1" fill="#bc834a" d="M 347.5,293.5 C 347.833,293.5 348.167,293.5 348.5,293.5C 352.833,293.5 357.167,293.5 361.5,293.5C 361.5,303.167 361.5,312.833 361.5,322.5C 357.167,322.5 352.833,322.5 348.5,322.5C 348.819,327.363 348.486,332.03 347.5,336.5C 347.5,322.167 347.5,307.833 347.5,293.5 Z"/></g>
<g><path style="opacity:1" fill="#3d5718" d="M 362.5,293.5 C 367.167,293.5 371.833,293.5 376.5,293.5C 376.5,298.167 376.5,302.833 376.5,307.5C 371.833,307.5 367.167,307.5 362.5,307.5C 362.5,302.833 362.5,298.167 362.5,293.5 Z"/></g>
<g><path style="opacity:1" fill="#0c0c0c" d="M 362.5,307.5 C 367.167,307.5 371.833,307.5 376.5,307.5C 376.5,321.833 376.5,336.167 376.5,350.5C 371.833,350.5 367.167,350.5 362.5,350.5C 362.5,336.167 362.5,321.833 362.5,307.5 Z"/></g>
<g><path style="opacity:1" fill="#ed5d2b" d="M 190.5,322.5 C 209.5,322.5 228.5,322.5 247.5,322.5C 247.5,327.167 247.5,331.833 247.5,336.5C 242.5,336.5 237.5,336.5 232.5,336.5C 232.5,341.167 232.5,345.833 232.5,350.5C 223.167,350.5 213.833,350.5 204.5,350.5C 204.5,345.833 204.5,341.167 204.5,336.5C 199.833,336.5 195.167,336.5 190.5,336.5C 190.5,331.833 190.5,327.167 190.5,322.5 Z"/></g>
<g><path style="opacity:1" fill="#945c25" d="M 361.5,293.5 C 361.833,293.5 362.167,293.5 362.5,293.5C 362.5,298.167 362.5,302.833 362.5,307.5C 362.5,321.833 362.5,336.167 362.5,350.5C 362.5,355.5 362.5,360.5 362.5,365.5C 357.5,365.5 352.5,365.5 347.5,365.5C 347.5,374.833 347.5,384.167 347.5,393.5C 342.833,393.5 338.167,393.5 333.5,393.5C 333.5,388.833 333.5,384.167 333.5,379.5C 328.833,379.5 324.167,379.5 319.5,379.5C 319.5,374.833 319.5,370.167 319.5,365.5C 319.5,360.833 319.5,356.167 319.5,351.5C 324.167,351.5 328.833,351.5 333.5,351.5C 333.5,346.5 333.5,341.5 333.5,336.5C 338.167,336.5 342.833,336.5 347.5,336.5C 348.486,332.03 348.819,327.363 348.5,322.5C 352.833,322.5 357.167,322.5 361.5,322.5C 361.5,312.833 361.5,303.167 361.5,293.5 Z"/></g>
<g><path style="opacity:1" fill="#935b24" d="M 147.5,336.5 C 152.167,336.5 156.833,336.5 161.5,336.5C 161.5,341.167 161.5,345.833 161.5,350.5C 156.833,350.5 152.167,350.5 147.5,350.5C 147.5,345.833 147.5,341.167 147.5,336.5 Z"/></g>
<g><path style="opacity:1" fill="#9a6128" d="M 304.5,336.5 C 304.5,341.5 304.5,346.5 304.5,351.5C 294.985,351.827 285.652,351.494 276.5,350.5C 281.167,350.5 285.833,350.5 290.5,350.5C 290.5,345.833 290.5,341.167 290.5,336.5C 295.167,336.5 299.833,336.5 304.5,336.5 Z"/></g>
<g><path style="opacity:1" fill="#bc834a" d="M 247.5,336.5 C 247.5,341.167 247.5,345.833 247.5,350.5C 242.833,350.5 238.167,350.5 233.5,350.5C 233.5,355.5 233.5,360.5 233.5,365.5C 223.833,365.5 214.167,365.5 204.5,365.5C 204.5,360.5 204.5,355.5 204.5,350.5C 213.833,350.5 223.167,350.5 232.5,350.5C 232.5,345.833 232.5,341.167 232.5,336.5C 237.5,336.5 242.5,336.5 247.5,336.5 Z"/></g>
<g><path style="opacity:1" fill="#3d5518" d="M 362.5,350.5 C 367.167,350.5 371.833,350.5 376.5,350.5C 376.5,355.5 376.5,360.5 376.5,365.5C 371.833,365.5 367.167,365.5 362.5,365.5C 362.5,360.5 362.5,355.5 362.5,350.5 Z"/></g>
<g><path style="opacity:1" fill="#945c24" d="M 132.5,365.5 C 137.167,365.5 141.833,365.5 146.5,365.5C 146.5,370.167 146.5,374.833 146.5,379.5C 141.833,379.5 137.167,379.5 132.5,379.5C 132.5,374.833 132.5,370.167 132.5,365.5 Z"/></g>
<g><path style="opacity:1" fill="#bc834a" d="M 146.5,336.5 C 146.833,336.5 147.167,336.5 147.5,336.5C 147.5,341.167 147.5,345.833 147.5,350.5C 152.167,350.5 156.833,350.5 161.5,350.5C 166.167,350.5 170.833,350.5 175.5,350.5C 166.348,351.494 157.015,351.827 147.5,351.5C 147.5,356.167 147.5,360.833 147.5,365.5C 152.167,365.5 156.833,365.5 161.5,365.5C 161.5,370.167 161.5,374.833 161.5,379.5C 156.5,379.5 151.5,379.5 146.5,379.5C 146.5,374.833 146.5,370.167 146.5,365.5C 141.833,365.5 137.167,365.5 132.5,365.5C 132.5,360.5 132.5,355.5 132.5,350.5C 137.167,350.5 141.833,350.5 146.5,350.5C 146.5,345.833 146.5,341.167 146.5,336.5 Z"/></g>
<g><path style="opacity:1" fill="#965d25" d="M 189.5,365.5 C 189.5,370.167 189.5,374.833 189.5,379.5C 184.833,379.5 180.167,379.5 175.5,379.5C 175.5,374.833 175.5,370.167 175.5,365.5C 180.167,365.5 184.833,365.5 189.5,365.5 Z"/></g>
<g><path style="opacity:1" fill="#ba824a" d="M 189.5,365.5 C 190.486,369.97 190.819,374.637 190.5,379.5C 190.5,384.167 190.5,388.833 190.5,393.5C 219.167,393.5 247.833,393.5 276.5,393.5C 276.5,388.833 276.5,384.167 276.5,379.5C 281.167,379.5 285.833,379.5 290.5,379.5C 295.167,379.5 299.833,379.5 304.5,379.5C 304.5,374.833 304.5,370.167 304.5,365.5C 309.5,365.5 314.5,365.5 319.5,365.5C 319.5,370.167 319.5,374.833 319.5,379.5C 324.167,379.5 328.833,379.5 333.5,379.5C 333.5,384.167 333.5,388.833 333.5,393.5C 328.833,393.5 324.167,393.5 319.5,393.5C 318.514,397.97 318.181,402.637 318.5,407.5C 304.323,407.171 290.323,407.504 276.5,408.5C 276.5,413.167 276.5,417.833 276.5,422.5C 281.167,422.5 285.833,422.5 290.5,422.5C 290.5,427.5 290.5,432.5 290.5,437.5C 285.833,437.5 281.167,437.5 276.5,437.5C 276.5,442.167 276.5,446.833 276.5,451.5C 252.5,451.5 228.5,451.5 204.5,451.5C 204.5,446.833 204.5,442.167 204.5,437.5C 209.363,437.819 214.03,437.486 218.5,436.5C 219.486,432.03 219.819,427.363 219.5,422.5C 224.167,422.5 228.833,422.5 233.5,422.5C 233.5,417.833 233.5,413.167 233.5,408.5C 228.5,408.5 223.5,408.5 218.5,408.5C 204.167,408.5 189.833,408.5 175.5,408.5C 175.5,403.5 175.5,398.5 175.5,393.5C 170.833,393.5 166.167,393.5 161.5,393.5C 161.5,388.833 161.5,384.167 161.5,379.5C 166.167,379.5 170.833,379.5 175.5,379.5C 180.167,379.5 184.833,379.5 189.5,379.5C 189.5,374.833 189.5,370.167 189.5,365.5 Z"/></g>
<g><path style="opacity:1" fill="#955d24" d="M 290.5,379.5 C 285.833,379.5 281.167,379.5 276.5,379.5C 276.5,374.833 276.5,370.167 276.5,365.5C 281.167,365.5 285.833,365.5 290.5,365.5C 290.5,370.167 290.5,374.833 290.5,379.5 Z"/></g>
<g><path style="opacity:1" fill="#3f5619" d="M 362.5,365.5 C 362.5,370.167 362.5,374.833 362.5,379.5C 371.833,379.5 381.167,379.5 390.5,379.5C 390.181,374.637 390.514,369.97 391.5,365.5C 391.5,370.167 391.5,374.833 391.5,379.5C 391.5,384.167 391.5,388.833 391.5,393.5C 391.5,398.167 391.5,402.833 391.5,407.5C 396.167,407.5 400.833,407.5 405.5,407.5C 405.5,407.833 405.5,408.167 405.5,408.5C 400.5,408.5 395.5,408.5 390.5,408.5C 390.5,403.5 390.5,398.5 390.5,393.5C 381.167,393.5 371.833,393.5 362.5,393.5C 362.5,398.5 362.5,403.5 362.5,408.5C 362.167,408.5 361.833,408.5 361.5,408.5C 361.5,403.5 361.5,398.5 361.5,393.5C 356.833,393.5 352.167,393.5 347.5,393.5C 347.5,384.167 347.5,374.833 347.5,365.5C 352.5,365.5 357.5,365.5 362.5,365.5 Z"/></g>
<g><path style="opacity:1" fill="#0b0c0b" d="M 391.5,365.5 C 396.167,365.5 400.833,365.5 405.5,365.5C 405.5,370.167 405.5,374.833 405.5,379.5C 400.833,379.5 396.167,379.5 391.5,379.5C 391.5,374.833 391.5,370.167 391.5,365.5 Z"/></g>
<g><path style="opacity:1" fill="#0b0c0b" d="M 117.5,379.5 C 117.5,384.167 117.5,388.833 117.5,393.5C 112.833,393.5 108.167,393.5 103.5,393.5C 103.5,388.833 103.5,384.167 103.5,379.5C 108.167,379.5 112.833,379.5 117.5,379.5 Z"/></g>
<g><path style="opacity:1" fill="#6f962a" d="M 132.5,379.5 C 132.5,384.167 132.5,388.833 132.5,393.5C 127.833,393.5 123.167,393.5 118.5,393.5C 118.5,388.833 118.5,384.167 118.5,379.5C 123.167,379.5 127.833,379.5 132.5,379.5 Z"/></g>
<g><path style="opacity:1" fill="#915a24" d="M 146.5,379.5 C 151.5,379.5 156.5,379.5 161.5,379.5C 161.5,384.167 161.5,388.833 161.5,393.5C 156.5,393.5 151.5,393.5 146.5,393.5C 146.5,388.833 146.5,384.167 146.5,379.5 Z"/></g>
<g><path style="opacity:1" fill="#965d25" d="M 190.5,379.5 C 219.167,379.5 247.833,379.5 276.5,379.5C 276.5,384.167 276.5,388.833 276.5,393.5C 247.833,393.5 219.167,393.5 190.5,393.5C 190.5,388.833 190.5,384.167 190.5,379.5 Z"/></g>
<g><path style="opacity:1" fill="#0d0d0c" d="M 132.5,379.5 C 137.167,379.5 141.833,379.5 146.5,379.5C 146.5,384.167 146.5,388.833 146.5,393.5C 151.5,393.5 156.5,393.5 161.5,393.5C 166.167,393.5 170.833,393.5 175.5,393.5C 175.5,398.5 175.5,403.5 175.5,408.5C 161.5,408.5 147.5,408.5 133.5,408.5C 133.803,413.43 133.469,418.263 132.5,423C 118.171,423.5 103.837,423.667 89.5,423.5C 89.5,413.5 89.5,403.5 89.5,393.5C 94.1667,393.5 98.8333,393.5 103.5,393.5C 103.5,398.5 103.5,403.5 103.5,408.5C 113.348,408.827 123.014,408.494 132.5,407.5C 132.5,402.833 132.5,398.167 132.5,393.5C 132.5,388.833 132.5,384.167 132.5,379.5 Z"/></g>
<g><path style="opacity:1" fill="#0b0c0b" d="M 391.5,393.5 C 396.167,393.5 400.833,393.5 405.5,393.5C 405.5,398.167 405.5,402.833 405.5,407.5C 405.5,402.833 405.5,398.167 405.5,393.5C 400.833,393.5 396.167,393.5 391.5,393.5 Z"/></g>
<g><path style="opacity:1" fill="#a1d33d" d="M 118.5,393.5 C 123.167,393.5 127.833,393.5 132.5,393.5C 132.5,398.167 132.5,402.833 132.5,407.5C 123.167,407.5 113.833,407.5 104.5,407.5C 104.5,403.167 104.5,398.833 104.5,394.5C 109.363,394.819 114.03,394.486 118.5,393.5 Z"/></g>
<g><path style="opacity:1" fill="#100e0d" d="M 319.5,393.5 C 324.167,393.5 328.833,393.5 333.5,393.5C 338.167,393.5 342.833,393.5 347.5,393.5C 352.167,393.5 356.833,393.5 361.5,393.5C 361.5,398.5 361.5,403.5 361.5,408.5C 347.5,408.5 333.5,408.5 319.5,408.5C 319.5,403.5 319.5,398.5 319.5,393.5 Z"/></g>
<g><path style="opacity:1" fill="#9fd03d" d="M 405.5,408.5 C 405.5,413.167 405.5,417.833 405.5,422.5C 395.833,422.5 386.167,422.5 376.5,422.5C 376.5,417.833 376.5,413.167 376.5,408.5C 371.833,408.5 367.167,408.5 362.5,408.5C 362.5,403.5 362.5,398.5 362.5,393.5C 371.833,393.5 381.167,393.5 390.5,393.5C 390.5,398.5 390.5,403.5 390.5,408.5C 395.5,408.5 400.5,408.5 405.5,408.5 Z"/></g>
<g><path style="opacity:1" fill="#76982f" d="M 103.5,393.5 C 108.167,393.5 112.833,393.5 117.5,393.5C 117.833,393.5 118.167,393.5 118.5,393.5C 114.03,394.486 109.363,394.819 104.5,394.5C 104.5,398.833 104.5,403.167 104.5,407.5C 113.833,407.5 123.167,407.5 132.5,407.5C 123.014,408.494 113.348,408.827 103.5,408.5C 103.5,403.5 103.5,398.5 103.5,393.5 Z"/></g>
<g><path style="opacity:1" fill="#8e6337" d="M 319.5,393.5 C 319.5,398.5 319.5,403.5 319.5,408.5C 305.167,408.5 290.833,408.5 276.5,408.5C 290.323,407.504 304.323,407.171 318.5,407.5C 318.181,402.637 318.514,397.97 319.5,393.5 Z"/></g>
<g><path style="opacity:1" fill="#0c0c0c" d="M 405.5,407.5 C 410.5,407.5 415.5,407.5 420.5,407.5C 420.5,417.5 420.5,427.5 420.5,437.5C 405.833,437.5 391.167,437.5 376.5,437.5C 376.5,432.833 376.5,428.167 376.5,423.5C 371.821,423.666 367.155,423.499 362.5,423C 361.531,418.263 361.197,413.43 361.5,408.5C 361.833,408.5 362.167,408.5 362.5,408.5C 367.167,408.5 371.833,408.5 376.5,408.5C 376.5,413.167 376.5,417.833 376.5,422.5C 386.167,422.5 395.833,422.5 405.5,422.5C 405.5,417.833 405.5,413.167 405.5,408.5C 405.5,408.167 405.5,407.833 405.5,407.5 Z"/></g>
<g><path style="opacity:1" fill="#0b0c0b" d="M 175.5,408.5 C 189.833,408.5 204.167,408.5 218.5,408.5C 218.5,417.833 218.5,427.167 218.5,436.5C 213.833,436.5 209.167,436.5 204.5,436.5C 204.5,431.833 204.5,427.167 204.5,422.5C 199.5,422.5 194.5,422.5 189.5,422.5C 189.5,427.167 189.5,431.833 189.5,436.5C 179.833,436.5 170.167,436.5 160.5,436.5C 160.5,431.833 160.5,427.167 160.5,422.5C 165.5,422.5 170.5,422.5 175.5,422.5C 175.5,417.833 175.5,413.167 175.5,408.5 Z"/></g>
<g><path style="opacity:1" fill="#955d27" d="M 218.5,408.5 C 223.5,408.5 228.5,408.5 233.5,408.5C 233.5,413.167 233.5,417.833 233.5,422.5C 228.833,422.5 224.167,422.5 219.5,422.5C 219.819,427.363 219.486,432.03 218.5,436.5C 218.5,427.167 218.5,417.833 218.5,408.5 Z"/></g>
<g><path style="opacity:1" fill="#0b0c0b" d="M 276.5,408.5 C 290.833,408.5 305.167,408.5 319.5,408.5C 319.5,413.167 319.5,417.833 319.5,422.5C 309.833,422.5 300.167,422.5 290.5,422.5C 285.833,422.5 281.167,422.5 276.5,422.5C 276.5,417.833 276.5,413.167 276.5,408.5 Z"/></g>
<g><path style="opacity:1" fill="#0b0c0b" d="M 319.5,422.5 C 329.167,422.5 338.833,422.5 348.5,422.5C 348.5,427.167 348.5,431.833 348.5,436.5C 338.833,436.5 329.167,436.5 319.5,436.5C 319.5,431.833 319.5,427.167 319.5,422.5 Z"/></g>
<g><path style="opacity:1" fill="#633d19" d="M 218.5,436.5 C 214.03,437.486 209.363,437.819 204.5,437.5C 204.5,442.167 204.5,446.833 204.5,451.5C 199.833,451.5 195.167,451.5 190.5,451.5C 189.506,460.652 189.173,469.985 189.5,479.5C 184.833,479.5 180.167,479.5 175.5,479.5C 175.5,474.833 175.5,470.167 175.5,465.5C 170.833,465.5 166.167,465.5 161.5,465.5C 161.5,460.833 161.5,456.167 161.5,451.5C 161.5,446.833 161.5,442.167 161.5,437.5C 171.015,437.827 180.348,437.494 189.5,436.5C 189.5,431.833 189.5,427.167 189.5,422.5C 194.5,422.5 199.5,422.5 204.5,422.5C 204.5,427.167 204.5,431.833 204.5,436.5C 209.167,436.5 213.833,436.5 218.5,436.5 Z"/></g>
<g><path style="opacity:1" fill="#643e19" d="M 290.5,422.5 C 300.167,422.5 309.833,422.5 319.5,422.5C 319.5,427.167 319.5,431.833 319.5,436.5C 328.652,437.494 337.985,437.827 347.5,437.5C 347.5,442.167 347.5,446.833 347.5,451.5C 342.833,451.5 338.167,451.5 333.5,451.5C 333.5,456.167 333.5,460.833 333.5,465.5C 328.833,465.5 324.167,465.5 319.5,465.5C 314.833,465.5 310.167,465.5 305.5,465.5C 305.5,475.167 305.5,484.833 305.5,494.5C 305.167,494.5 304.833,494.5 304.5,494.5C 304.5,480.167 304.5,465.833 304.5,451.5C 299.833,451.5 295.167,451.5 290.5,451.5C 290.5,446.833 290.5,442.167 290.5,437.5C 290.5,432.5 290.5,427.5 290.5,422.5 Z"/></g>
<g><path style="opacity:1" fill="#0b0c0b" d="M 160.5,436.5 C 160.5,441.167 160.5,445.833 160.5,450.5C 155.833,450.5 151.167,450.5 146.5,450.5C 146.5,445.833 146.5,441.167 146.5,436.5C 151.167,436.5 155.833,436.5 160.5,436.5 Z"/></g>
<g><path style="opacity:1" fill="#f9ae63" d="M 290.5,437.5 C 290.5,442.167 290.5,446.833 290.5,451.5C 295.167,451.5 299.833,451.5 304.5,451.5C 304.5,465.833 304.5,480.167 304.5,494.5C 304.5,503.833 304.5,513.167 304.5,522.5C 299.833,522.5 295.167,522.5 290.5,522.5C 290.5,527.5 290.5,532.5 290.5,537.5C 261.833,537.5 233.167,537.5 204.5,537.5C 204.5,532.833 204.5,528.167 204.5,523.5C 199.833,523.5 195.167,523.5 190.5,523.5C 190.5,509.167 190.5,494.833 190.5,480.5C 195.363,480.819 200.03,480.486 204.5,479.5C 204.5,470.167 204.5,460.833 204.5,451.5C 228.5,451.5 252.5,451.5 276.5,451.5C 276.5,446.833 276.5,442.167 276.5,437.5C 281.167,437.5 285.833,437.5 290.5,437.5 Z"/></g>
<g><path style="opacity:1" fill="#2c1f10" d="M 319.5,436.5 C 329.167,436.5 338.833,436.5 348.5,436.5C 348.5,441.167 348.5,445.833 348.5,450.5C 353.032,450.182 357.366,450.515 361.5,451.5C 356.833,451.5 352.167,451.5 347.5,451.5C 347.5,446.833 347.5,442.167 347.5,437.5C 337.985,437.827 328.652,437.494 319.5,436.5 Z"/></g>
<g><path style="opacity:1" fill="#0b0c0b" d="M 146.5,450.5 C 146.5,455.5 146.5,460.5 146.5,465.5C 141.833,465.5 137.167,465.5 132.5,465.5C 132.5,460.5 132.5,455.5 132.5,450.5C 137.167,450.5 141.833,450.5 146.5,450.5 Z"/></g>
<g><path style="opacity:1" fill="#2e2010" d="M 160.5,436.5 C 170.167,436.5 179.833,436.5 189.5,436.5C 180.348,437.494 171.015,437.827 161.5,437.5C 161.5,442.167 161.5,446.833 161.5,451.5C 156.833,451.5 152.167,451.5 147.5,451.5C 147.819,456.363 147.486,461.03 146.5,465.5C 146.5,460.5 146.5,455.5 146.5,450.5C 151.167,450.5 155.833,450.5 160.5,450.5C 160.5,445.833 160.5,441.167 160.5,436.5 Z"/></g>
<g><path style="opacity:1" fill="#955c24" d="M 161.5,451.5 C 161.5,456.167 161.5,460.833 161.5,465.5C 166.167,465.5 170.833,465.5 175.5,465.5C 175.5,470.167 175.5,474.833 175.5,479.5C 175.5,489.167 175.5,498.833 175.5,508.5C 170.833,508.5 166.167,508.5 161.5,508.5C 160.514,512.97 160.181,517.637 160.5,522.5C 156.167,522.5 151.833,522.5 147.5,522.5C 147.5,513.167 147.5,503.833 147.5,494.5C 142.5,494.5 137.5,494.5 132.5,494.5C 132.5,484.833 132.5,475.167 132.5,465.5C 137.167,465.5 141.833,465.5 146.5,465.5C 147.486,461.03 147.819,456.363 147.5,451.5C 152.167,451.5 156.833,451.5 161.5,451.5 Z"/></g>
<g><path style="opacity:1" fill="#0f0d0d" d="M 190.5,451.5 C 195.167,451.5 199.833,451.5 204.5,451.5C 204.5,460.833 204.5,470.167 204.5,479.5C 199.833,479.5 195.167,479.5 190.5,479.5C 190.5,470.167 190.5,460.833 190.5,451.5 Z"/></g>
<g><path style="opacity:1" fill="#945c24" d="M 347.5,451.5 C 352.167,451.5 356.833,451.5 361.5,451.5C 362.486,455.97 362.819,460.637 362.5,465.5C 367.167,465.5 371.833,465.5 376.5,465.5C 376.5,475.167 376.5,484.833 376.5,494.5C 381.5,494.5 386.5,494.5 391.5,494.5C 391.5,508.833 391.5,523.167 391.5,537.5C 391.167,537.5 390.833,537.5 390.5,537.5C 385.833,537.5 381.167,537.5 376.5,537.5C 376.5,527.833 376.5,518.167 376.5,508.5C 371.833,508.5 367.167,508.5 362.5,508.5C 362.5,518.167 362.5,527.833 362.5,537.5C 357.5,537.5 352.5,537.5 347.5,537.5C 347.5,532.833 347.5,528.167 347.5,523.5C 342.833,523.5 338.167,523.5 333.5,523.5C 333.5,513.833 333.5,504.167 333.5,494.5C 328.833,494.5 324.167,494.5 319.5,494.5C 319.5,484.833 319.5,475.167 319.5,465.5C 324.167,465.5 328.833,465.5 333.5,465.5C 333.5,460.833 333.5,456.167 333.5,451.5C 338.167,451.5 342.833,451.5 347.5,451.5 Z"/></g>
<g><path style="opacity:1" fill="#110e0c" d="M 319.5,465.5 C 319.5,475.167 319.5,484.833 319.5,494.5C 314.833,494.5 310.167,494.5 305.5,494.5C 305.5,484.833 305.5,475.167 305.5,465.5C 310.167,465.5 314.833,465.5 319.5,465.5 Z"/></g>
<g><path style="opacity:1" fill="#46331e" d="M 190.5,451.5 C 190.5,460.833 190.5,470.167 190.5,479.5C 195.167,479.5 199.833,479.5 204.5,479.5C 200.03,480.486 195.363,480.819 190.5,480.5C 190.5,494.833 190.5,509.167 190.5,523.5C 190.5,532.833 190.5,542.167 190.5,551.5C 189.502,528.006 189.169,504.339 189.5,480.5C 185.167,480.5 180.833,480.5 176.5,480.5C 176.827,490.015 176.494,499.348 175.5,508.5C 175.5,498.833 175.5,489.167 175.5,479.5C 180.167,479.5 184.833,479.5 189.5,479.5C 189.173,469.985 189.506,460.652 190.5,451.5 Z"/></g>
<g><path style="opacity:1" fill="#0d0c0c" d="M 132.5,465.5 C 132.5,475.167 132.5,484.833 132.5,494.5C 127.833,494.5 123.167,494.5 118.5,494.5C 118.5,503.833 118.5,513.167 118.5,522.5C 132.657,523.496 146.99,523.829 161.5,523.5C 161.5,528.167 161.5,532.833 161.5,537.5C 146.833,537.5 132.167,537.5 117.5,537.5C 117.5,532.833 117.5,528.167 117.5,523.5C 112.833,523.5 108.167,523.5 103.5,523.5C 103.5,513.5 103.5,503.5 103.5,493.5C 108.167,493.5 112.833,493.5 117.5,493.5C 117.5,484.167 117.5,474.833 117.5,465.5C 122.5,465.5 127.5,465.5 132.5,465.5 Z"/></g>
<g><path style="opacity:1" fill="#0c0c0c" d="M 348.5,436.5 C 353.167,436.5 357.833,436.5 362.5,436.5C 362.5,441.167 362.5,445.833 362.5,450.5C 367.179,450.334 371.845,450.501 376.5,451C 377.469,455.737 377.803,460.57 377.5,465.5C 382.167,465.5 386.833,465.5 391.5,465.5C 391.5,474.833 391.5,484.167 391.5,493.5C 396.167,493.5 400.833,493.5 405.5,493.5C 405.5,498.5 405.5,503.5 405.5,508.5C 419.833,508.5 434.167,508.5 448.5,508.5C 448.5,518.167 448.5,527.833 448.5,537.5C 443.833,537.5 439.167,537.5 434.5,537.5C 434.5,532.5 434.5,527.5 434.5,522.5C 424.652,522.173 414.986,522.506 405.5,523.5C 405.5,528.167 405.5,532.833 405.5,537.5C 400.833,537.5 396.167,537.5 391.5,537.5C 391.5,523.167 391.5,508.833 391.5,494.5C 386.5,494.5 381.5,494.5 376.5,494.5C 376.5,484.833 376.5,475.167 376.5,465.5C 371.833,465.5 367.167,465.5 362.5,465.5C 362.819,460.637 362.486,455.97 361.5,451.5C 357.366,450.515 353.032,450.182 348.5,450.5C 348.5,445.833 348.5,441.167 348.5,436.5 Z"/></g>
<g><path style="opacity:1" fill="#955d24" d="M 132.5,494.5 C 132.5,503.833 132.5,513.167 132.5,522.5C 127.833,522.5 123.167,522.5 118.5,522.5C 118.5,513.167 118.5,503.833 118.5,494.5C 123.167,494.5 127.833,494.5 132.5,494.5 Z"/></g>
<g><path style="opacity:1" fill="#643e19" d="M 132.5,494.5 C 137.5,494.5 142.5,494.5 147.5,494.5C 147.5,503.833 147.5,513.167 147.5,522.5C 151.833,522.5 156.167,522.5 160.5,522.5C 160.181,517.637 160.514,512.97 161.5,508.5C 161.5,513.5 161.5,518.5 161.5,523.5C 146.99,523.829 132.657,523.496 118.5,522.5C 123.167,522.5 127.833,522.5 132.5,522.5C 132.5,513.167 132.5,503.833 132.5,494.5 Z"/></g>
<g><path style="opacity:1" fill="#ba824a" d="M 304.5,494.5 C 304.833,494.5 305.167,494.5 305.5,494.5C 310.167,494.5 314.833,494.5 319.5,494.5C 319.5,504.167 319.5,513.833 319.5,523.5C 319.5,532.833 319.5,542.167 319.5,551.5C 318.514,555.97 318.181,560.637 318.5,565.5C 313.833,565.5 309.167,565.5 304.5,565.5C 304.5,570.5 304.5,575.5 304.5,580.5C 299.833,580.5 295.167,580.5 290.5,580.5C 290.5,575.833 290.5,571.167 290.5,566.5C 285.833,566.5 281.167,566.5 276.5,566.5C 276.5,561.5 276.5,556.5 276.5,551.5C 262.167,551.5 247.833,551.5 233.5,551.5C 232.506,560.986 232.173,570.652 232.5,580.5C 228.167,580.5 223.833,580.5 219.5,580.5C 219.5,585.167 219.5,589.833 219.5,594.5C 219.167,594.5 218.833,594.5 218.5,594.5C 218.5,589.833 218.5,585.167 218.5,580.5C 218.5,575.833 218.5,571.167 218.5,566.5C 213.833,566.5 209.167,566.5 204.5,566.5C 204.5,561.5 204.5,556.5 204.5,551.5C 199.833,551.5 195.167,551.5 190.5,551.5C 190.5,542.167 190.5,532.833 190.5,523.5C 195.167,523.5 199.833,523.5 204.5,523.5C 204.5,528.167 204.5,532.833 204.5,537.5C 233.167,537.5 261.833,537.5 290.5,537.5C 290.5,532.5 290.5,527.5 290.5,522.5C 295.167,522.5 299.833,522.5 304.5,522.5C 304.5,513.167 304.5,503.833 304.5,494.5 Z"/></g>
<g><path style="opacity:1" fill="#0d0e0c" d="M 319.5,494.5 C 324.167,494.5 328.833,494.5 333.5,494.5C 333.5,504.167 333.5,513.833 333.5,523.5C 328.833,523.5 324.167,523.5 319.5,523.5C 319.5,513.833 319.5,504.167 319.5,494.5 Z"/></g>
<g><path style="opacity:1" fill="#643e19" d="M 376.5,537.5 C 371.833,537.5 367.167,537.5 362.5,537.5C 362.5,527.833 362.5,518.167 362.5,508.5C 367.167,508.5 371.833,508.5 376.5,508.5C 376.5,518.167 376.5,527.833 376.5,537.5 Z"/></g>
<g><path style="opacity:1" fill="#682c1a" d="M 405.5,523.5 C 414.986,522.506 424.652,522.173 434.5,522.5C 434.5,527.5 434.5,532.5 434.5,537.5C 434.167,537.5 433.833,537.5 433.5,537.5C 433.5,532.833 433.5,528.167 433.5,523.5C 424.167,523.5 414.833,523.5 405.5,523.5 Z"/></g>
<g><path style="opacity:1" fill="#6f962a" d="M 319.5,523.5 C 324.167,523.5 328.833,523.5 333.5,523.5C 333.5,528.167 333.5,532.833 333.5,537.5C 333.5,542.167 333.5,546.833 333.5,551.5C 328.833,551.5 324.167,551.5 319.5,551.5C 319.5,542.167 319.5,532.833 319.5,523.5 Z"/></g>
<g><path style="opacity:1" fill="#0b0c0b" d="M 333.5,523.5 C 338.167,523.5 342.833,523.5 347.5,523.5C 347.5,528.167 347.5,532.833 347.5,537.5C 342.833,537.5 338.167,537.5 333.5,537.5C 333.5,532.833 333.5,528.167 333.5,523.5 Z"/></g>
<g><path style="opacity:1" fill="#ec5d2a" d="M 405.5,523.5 C 414.833,523.5 424.167,523.5 433.5,523.5C 433.5,528.167 433.5,532.833 433.5,537.5C 428.833,537.5 424.167,537.5 419.5,537.5C 419.5,542.167 419.5,546.833 419.5,551.5C 410.167,551.5 400.833,551.5 391.5,551.5C 391.5,546.833 391.5,542.167 391.5,537.5C 396.167,537.5 400.833,537.5 405.5,537.5C 405.5,532.833 405.5,528.167 405.5,523.5 Z"/></g>
<g><path style="opacity:1" fill="#3d5718" d="M 333.5,537.5 C 338.167,537.5 342.833,537.5 347.5,537.5C 347.5,542.167 347.5,546.833 347.5,551.5C 342.833,551.5 338.167,551.5 333.5,551.5C 333.5,546.833 333.5,542.167 333.5,537.5 Z"/></g>
<g><path style="opacity:1" fill="#0c0c0c" d="M 347.5,537.5 C 352.5,537.5 357.5,537.5 362.5,537.5C 367.167,537.5 371.833,537.5 376.5,537.5C 381.167,537.5 385.833,537.5 390.5,537.5C 390.5,542.167 390.5,546.833 390.5,551.5C 381.167,551.5 371.833,551.5 362.5,551.5C 357.5,551.5 352.5,551.5 347.5,551.5C 347.5,546.833 347.5,542.167 347.5,537.5 Z"/></g>
<g><path style="opacity:1" fill="#100d0c" d="M 433.5,537.5 C 433.833,537.5 434.167,537.5 434.5,537.5C 434.5,542.5 434.5,547.5 434.5,552.5C 429.833,552.5 425.167,552.5 420.5,552.5C 420.5,557.167 420.5,561.833 420.5,566.5C 410.833,566.5 401.167,566.5 391.5,566.5C 391.5,561.5 391.5,556.5 391.5,551.5C 400.833,551.5 410.167,551.5 419.5,551.5C 419.5,546.833 419.5,542.167 419.5,537.5C 424.167,537.5 428.833,537.5 433.5,537.5 Z"/></g>
<g><path style="opacity:1" fill="#3c2d1b" d="M 233.5,552.5 C 233.5,552.167 233.5,551.833 233.5,551.5C 247.833,551.5 262.167,551.5 276.5,551.5C 276.5,556.5 276.5,561.5 276.5,566.5C 276.167,566.5 275.833,566.5 275.5,566.5C 275.5,561.833 275.5,557.167 275.5,552.5C 261.5,552.5 247.5,552.5 233.5,552.5 Z"/></g>
<g><path style="opacity:1" fill="#0d0d0c" d="M 190.5,551.5 C 195.167,551.5 199.833,551.5 204.5,551.5C 204.5,556.5 204.5,561.5 204.5,566.5C 204.5,571.167 204.5,575.833 204.5,580.5C 199.5,580.5 194.5,580.5 189.5,580.5C 184.833,580.5 180.167,580.5 175.5,580.5C 170.833,580.5 166.167,580.5 161.5,580.5C 161.5,585.167 161.5,589.833 161.5,594.5C 156.5,594.5 151.5,594.5 146.5,594.5C 146.5,589.833 146.5,585.167 146.5,580.5C 151.167,580.5 155.833,580.5 160.5,580.5C 160.5,575.5 160.5,570.5 160.5,565.5C 170.167,565.5 179.833,565.5 189.5,565.5C 189.5,561.167 189.5,556.833 189.5,552.5C 184.833,552.5 180.167,552.5 175.5,552.5C 175.5,542.833 175.5,533.167 175.5,523.5C 170.833,523.5 166.167,523.5 161.5,523.5C 161.5,518.5 161.5,513.5 161.5,508.5C 166.167,508.5 170.833,508.5 175.5,508.5C 176.494,499.348 176.827,490.015 176.5,480.5C 180.833,480.5 185.167,480.5 189.5,480.5C 189.169,504.339 189.502,528.006 190.5,551.5 Z"/></g>
<g><path style="opacity:1" fill="#0b0c0b" d="M 233.5,552.5 C 247.5,552.5 261.5,552.5 275.5,552.5C 275.5,557.167 275.5,561.833 275.5,566.5C 266.167,566.5 256.833,566.5 247.5,566.5C 247.5,576.167 247.5,585.833 247.5,595.5C 242.833,595.5 238.167,595.5 233.5,595.5C 233.5,595.167 233.5,594.833 233.5,594.5C 233.5,580.5 233.5,566.5 233.5,552.5 Z"/></g>
<g><path style="opacity:1" fill="#12110d" d="M 319.5,551.5 C 324.167,551.5 328.833,551.5 333.5,551.5C 333.5,556.167 333.5,560.833 333.5,565.5C 333.5,565.833 333.5,566.167 333.5,566.5C 328.833,566.5 324.167,566.5 319.5,566.5C 319.5,561.5 319.5,556.5 319.5,551.5 Z"/></g>
<g><path style="opacity:1" fill="#6f952a" d="M 333.5,551.5 C 338.167,551.5 342.833,551.5 347.5,551.5C 351.97,552.486 356.637,552.819 361.5,552.5C 361.5,556.833 361.5,561.167 361.5,565.5C 352.167,565.5 342.833,565.5 333.5,565.5C 333.5,560.833 333.5,556.167 333.5,551.5 Z"/></g>
<g><path style="opacity:1" fill="#ec5d2a" d="M 362.5,552.5 C 371.833,552.5 381.167,552.5 390.5,552.5C 390.5,556.833 390.5,561.167 390.5,565.5C 381.167,565.5 371.833,565.5 362.5,565.5C 362.5,561.167 362.5,556.833 362.5,552.5 Z"/></g>
<g><path style="opacity:1" fill="#556a21" d="M 347.5,551.5 C 352.5,551.5 357.5,551.5 362.5,551.5C 362.5,551.833 362.5,552.167 362.5,552.5C 362.5,556.833 362.5,561.167 362.5,565.5C 362.5,565.833 362.5,566.167 362.5,566.5C 352.833,566.5 343.167,566.5 333.5,566.5C 333.5,566.167 333.5,565.833 333.5,565.5C 342.833,565.5 352.167,565.5 361.5,565.5C 361.5,561.167 361.5,556.833 361.5,552.5C 356.637,552.819 351.97,552.486 347.5,551.5 Z"/></g>
<g><path style="opacity:1" fill="#993e20" d="M 390.5,537.5 C 390.833,537.5 391.167,537.5 391.5,537.5C 391.5,542.167 391.5,546.833 391.5,551.5C 391.5,556.5 391.5,561.5 391.5,566.5C 381.833,566.5 372.167,566.5 362.5,566.5C 362.5,566.167 362.5,565.833 362.5,565.5C 371.833,565.5 381.167,565.5 390.5,565.5C 390.5,561.167 390.5,556.833 390.5,552.5C 381.167,552.5 371.833,552.5 362.5,552.5C 362.5,552.167 362.5,551.833 362.5,551.5C 371.833,551.5 381.167,551.5 390.5,551.5C 390.5,546.833 390.5,542.167 390.5,537.5 Z"/></g>
<g><path style="opacity:1" fill="#955d24" d="M 204.5,566.5 C 209.167,566.5 213.833,566.5 218.5,566.5C 218.5,571.167 218.5,575.833 218.5,580.5C 213.833,580.5 209.167,580.5 204.5,580.5C 204.5,575.833 204.5,571.167 204.5,566.5 Z"/></g>
<g><path style="opacity:1" fill="#0b0c0b" d="M 275.5,566.5 C 275.833,566.5 276.167,566.5 276.5,566.5C 281.167,566.5 285.833,566.5 290.5,566.5C 290.5,571.167 290.5,575.833 290.5,580.5C 290.5,585.167 290.5,589.833 290.5,594.5C 290.5,599.5 290.5,604.5 290.5,609.5C 285.5,609.5 280.5,609.5 275.5,609.5C 275.5,595.167 275.5,580.833 275.5,566.5 Z"/></g>
<g><path style="opacity:1" fill="#965e26" d="M 319.5,551.5 C 319.5,556.5 319.5,561.5 319.5,566.5C 324.167,566.5 328.833,566.5 333.5,566.5C 333.5,571.167 333.5,575.833 333.5,580.5C 333.5,590.167 333.5,599.833 333.5,609.5C 328.833,609.5 324.167,609.5 319.5,609.5C 319.5,599.833 319.5,590.167 319.5,580.5C 314.5,580.5 309.5,580.5 304.5,580.5C 304.5,575.5 304.5,570.5 304.5,565.5C 309.167,565.5 313.833,565.5 318.5,565.5C 318.181,560.637 318.514,555.97 319.5,551.5 Z"/></g>
<g><path style="opacity:1" fill="#0b0c0b" d="M 333.5,566.5 C 343.167,566.5 352.833,566.5 362.5,566.5C 372.167,566.5 381.833,566.5 391.5,566.5C 391.5,571.167 391.5,575.833 391.5,580.5C 381.833,580.5 372.167,580.5 362.5,580.5C 362.5,585.167 362.5,589.833 362.5,594.5C 357.833,594.5 353.167,594.5 348.5,594.5C 348.819,589.637 348.486,584.97 347.5,580.5C 342.833,580.5 338.167,580.5 333.5,580.5C 333.5,575.833 333.5,571.167 333.5,566.5 Z"/></g>
<g><path style="opacity:1" fill="#f2f3f2" d="M 175.5,580.5 C 175.5,585.167 175.5,589.833 175.5,594.5C 170.833,594.5 166.167,594.5 161.5,594.5C 161.5,589.833 161.5,585.167 161.5,580.5C 166.167,580.5 170.833,580.5 175.5,580.5 Z"/></g>
<g><path style="opacity:1" fill="#965e26" d="M 175.5,580.5 C 180.167,580.5 184.833,580.5 189.5,580.5C 189.5,585.167 189.5,589.833 189.5,594.5C 184.833,594.5 180.167,594.5 175.5,594.5C 175.5,589.833 175.5,585.167 175.5,580.5 Z"/></g>
<g><path style="opacity:1" fill="#f1f0f0" d="M 189.5,580.5 C 194.5,580.5 199.5,580.5 204.5,580.5C 209.167,580.5 213.833,580.5 218.5,580.5C 218.5,585.167 218.5,589.833 218.5,594.5C 218.5,599.5 218.5,604.5 218.5,609.5C 209.167,609.5 199.833,609.5 190.5,609.5C 189.514,613.97 189.181,618.637 189.5,623.5C 180.167,623.5 170.833,623.5 161.5,623.5C 161.5,618.833 161.5,614.167 161.5,609.5C 166.167,609.5 170.833,609.5 175.5,609.5C 175.5,604.833 175.5,600.167 175.5,595.5C 180.363,595.819 185.03,595.486 189.5,594.5C 189.5,589.833 189.5,585.167 189.5,580.5 Z"/></g>
<g><path style="opacity:1" fill="#915b26" d="M 233.5,551.5 C 233.5,551.833 233.5,552.167 233.5,552.5C 233.5,566.5 233.5,580.5 233.5,594.5C 228.833,594.5 224.167,594.5 219.5,594.5C 219.5,589.833 219.5,585.167 219.5,580.5C 223.833,580.5 228.167,580.5 232.5,580.5C 232.173,570.652 232.506,560.986 233.5,551.5 Z"/></g>
<g><path style="opacity:1" fill="#955d24" d="M 290.5,580.5 C 295.167,580.5 299.833,580.5 304.5,580.5C 304.5,585.167 304.5,589.833 304.5,594.5C 299.833,594.5 295.167,594.5 290.5,594.5C 290.5,589.833 290.5,585.167 290.5,580.5 Z"/></g>
<g><path style="opacity:1" fill="#f1f0ef" d="M 304.5,580.5 C 309.5,580.5 314.5,580.5 319.5,580.5C 319.5,590.167 319.5,599.833 319.5,609.5C 324.167,609.5 328.833,609.5 333.5,609.5C 333.5,618.833 333.5,628.167 333.5,637.5C 324.167,637.5 314.833,637.5 305.5,637.5C 305.827,627.985 305.494,618.652 304.5,609.5C 299.833,609.5 295.167,609.5 290.5,609.5C 290.5,604.5 290.5,599.5 290.5,594.5C 295.167,594.5 299.833,594.5 304.5,594.5C 304.5,589.833 304.5,585.167 304.5,580.5 Z"/></g>
<g><path style="opacity:1" fill="#f1f0f0" d="M 333.5,580.5 C 338.167,580.5 342.833,580.5 347.5,580.5C 347.5,585.5 347.5,590.5 347.5,595.5C 352.167,595.5 356.833,595.5 361.5,595.5C 361.5,609.5 361.5,623.5 361.5,637.5C 356.833,637.5 352.167,637.5 347.5,637.5C 347.5,628.167 347.5,618.833 347.5,609.5C 342.833,609.5 338.167,609.5 333.5,609.5C 333.5,599.833 333.5,590.167 333.5,580.5 Z"/></g>
<g><path style="opacity:1" fill="#0b0c0b" d="M 146.5,594.5 C 146.5,599.5 146.5,604.5 146.5,609.5C 146.5,614.5 146.5,619.5 146.5,624.5C 141.833,624.5 137.167,624.5 132.5,624.5C 132.5,614.5 132.5,604.5 132.5,594.5C 137.167,594.5 141.833,594.5 146.5,594.5 Z"/></g>
<g><path style="opacity:1" fill="#929292" d="M 347.5,580.5 C 348.486,584.97 348.819,589.637 348.5,594.5C 353.167,594.5 357.833,594.5 362.5,594.5C 362.5,609.167 362.5,623.833 362.5,638.5C 357.305,638.821 352.305,638.487 347.5,637.5C 352.167,637.5 356.833,637.5 361.5,637.5C 361.5,623.5 361.5,609.5 361.5,595.5C 356.833,595.5 352.167,595.5 347.5,595.5C 347.5,590.5 347.5,585.5 347.5,580.5 Z"/></g>
<g><path style="opacity:1" fill="#0b0c0b" d="M 362.5,594.5 C 367.5,594.5 372.5,594.5 377.5,594.5C 377.5,609.167 377.5,623.833 377.5,638.5C 372.5,638.5 367.5,638.5 362.5,638.5C 362.5,623.833 362.5,609.167 362.5,594.5 Z"/></g>
<g><path style="opacity:1" fill="#9d948c" d="M 146.5,594.5 C 151.5,594.5 156.5,594.5 161.5,594.5C 166.167,594.5 170.833,594.5 175.5,594.5C 180.167,594.5 184.833,594.5 189.5,594.5C 185.03,595.486 180.363,595.819 175.5,595.5C 170.833,595.5 166.167,595.5 161.5,595.5C 156.833,595.5 152.167,595.5 147.5,595.5C 147.5,600.167 147.5,604.833 147.5,609.5C 147.167,609.5 146.833,609.5 146.5,609.5C 146.5,604.5 146.5,599.5 146.5,594.5 Z"/></g>
<g><path style="opacity:1" fill="#efeeec" d="M 161.5,595.5 C 161.5,600.167 161.5,604.833 161.5,609.5C 156.833,609.5 152.167,609.5 147.5,609.5C 147.5,604.833 147.5,600.167 147.5,595.5C 152.167,595.5 156.833,595.5 161.5,595.5 Z"/></g>
<g><path style="opacity:1" fill="#975f28" d="M 161.5,595.5 C 166.167,595.5 170.833,595.5 175.5,595.5C 175.5,600.167 175.5,604.833 175.5,609.5C 170.833,609.5 166.167,609.5 161.5,609.5C 161.5,604.833 161.5,600.167 161.5,595.5 Z"/></g>
<g><path style="opacity:1" fill="#443c35" d="M 218.5,594.5 C 218.833,594.5 219.167,594.5 219.5,594.5C 224.167,594.5 228.833,594.5 233.5,594.5C 233.5,594.833 233.5,595.167 233.5,595.5C 228.833,595.5 224.167,595.5 219.5,595.5C 219.5,600.167 219.5,604.833 219.5,609.5C 219.167,609.5 218.833,609.5 218.5,609.5C 218.5,604.5 218.5,599.5 218.5,594.5 Z"/></g>
<g><path style="opacity:1" fill="#0b0c0b" d="M 233.5,595.5 C 233.5,600.167 233.5,604.833 233.5,609.5C 228.833,609.5 224.167,609.5 219.5,609.5C 219.5,604.833 219.5,600.167 219.5,595.5C 224.167,595.5 228.833,595.5 233.5,595.5 Z"/></g>
<g><path style="opacity:1" fill="#0b0c0b" d="M 190.5,609.5 C 199.833,609.5 209.167,609.5 218.5,609.5C 218.833,609.5 219.167,609.5 219.5,609.5C 219.5,614.5 219.5,619.5 219.5,624.5C 209.833,624.5 200.167,624.5 190.5,624.5C 190.5,619.5 190.5,614.5 190.5,609.5 Z"/></g>
<g><path style="opacity:1" fill="#0b0c0b" d="M 290.5,609.5 C 295.167,609.5 299.833,609.5 304.5,609.5C 304.5,619.167 304.5,628.833 304.5,638.5C 299.833,638.5 295.167,638.5 290.5,638.5C 290.5,628.833 290.5,619.167 290.5,609.5 Z"/></g>
<g><path style="opacity:1" fill="#955d24" d="M 333.5,609.5 C 338.167,609.5 342.833,609.5 347.5,609.5C 347.5,618.833 347.5,628.167 347.5,637.5C 342.833,637.5 338.167,637.5 333.5,637.5C 333.5,628.167 333.5,618.833 333.5,609.5 Z"/></g>
<g><path style="opacity:1" fill="#393531" d="M 146.5,609.5 C 146.833,609.5 147.167,609.5 147.5,609.5C 147.5,614.167 147.5,618.833 147.5,623.5C 152.167,623.5 156.833,623.5 161.5,623.5C 170.833,623.5 180.167,623.5 189.5,623.5C 189.181,618.637 189.514,613.97 190.5,609.5C 190.5,614.5 190.5,619.5 190.5,624.5C 175.833,624.5 161.167,624.5 146.5,624.5C 146.5,619.5 146.5,614.5 146.5,609.5 Z"/></g>
<g><path style="opacity:1" fill="#975f28" d="M 147.5,609.5 C 152.167,609.5 156.833,609.5 161.5,609.5C 161.5,614.167 161.5,618.833 161.5,623.5C 156.833,623.5 152.167,623.5 147.5,623.5C 147.5,618.833 147.5,614.167 147.5,609.5 Z"/></g>
<g><path style="opacity:1" fill="#0b0c0b" d="M 146.5,624.5 C 161.167,624.5 175.833,624.5 190.5,624.5C 190.5,629.167 190.5,633.833 190.5,638.5C 175.833,638.5 161.167,638.5 146.5,638.5C 146.5,633.833 146.5,629.167 146.5,624.5 Z"/></g>
<g><path style="opacity:1" fill="#757575" d="M 304.5,609.5 C 305.494,618.652 305.827,627.985 305.5,637.5C 314.833,637.5 324.167,637.5 333.5,637.5C 324.014,638.494 314.348,638.827 304.5,638.5C 304.5,628.833 304.5,619.167 304.5,609.5 Z"/></g>
<g><path style="opacity:1" fill="#0d0c0c" d="M 333.5,637.5 C 338.167,637.5 342.833,637.5 347.5,637.5C 352.305,638.487 357.305,638.821 362.5,638.5C 362.5,643.167 362.5,647.833 362.5,652.5C 343.167,652.5 323.833,652.5 304.5,652.5C 304.5,647.833 304.5,643.167 304.5,638.5C 314.348,638.827 324.014,638.494 333.5,637.5 Z"/></g>
</svg>
