<?xml version="1.0" encoding="UTF-8"?>
<!DOCTYPE svg PUBLIC "-//W3C//DTD SVG 1.1//EN" "http://www.w3.org/Graphics/SVG/1.1/DTD/svg11.dtd">
<svg xmlns="http://www.w3.org/2000/svg" version="1.1" width="502px" height="540px" style="shape-rendering:geometricPrecision; text-rendering:geometricPrecision; image-rendering:optimizeQuality; fill-rule:evenodd; clip-rule:evenodd" xmlns:xlink="http://www.w3.org/1999/xlink">
<g><path style="opacity:1" fill="#38647d" d="M 191.5,25.5 C 170.833,25.5 150.167,25.5 129.5,25.5C 129.5,20.5 129.5,15.5 129.5,10.5C 150.167,10.5 170.833,10.5 191.5,10.5C 191.5,15.5 191.5,20.5 191.5,25.5 Z"/></g>
<g><path style="opacity:1" fill="#37647d" d="M 392.5,25.5 C 371.5,25.5 350.5,25.5 329.5,25.5C 329.5,20.5 329.5,15.5 329.5,10.5C 350.5,10.5 371.5,10.5 392.5,10.5C 392.5,15.5 392.5,20.5 392.5,25.5 Z"/></g>
<g><path style="opacity:1" fill="#568fc4" d="M 314.5,25.5 C 319.5,25.5 324.5,25.5 329.5,25.5C 350.5,25.5 371.5,25.5 392.5,25.5C 392.5,30.8333 392.5,36.1667 392.5,41.5C 387.167,41.5 381.833,41.5 376.5,41.5C 376.5,36.5 376.5,31.5 376.5,26.5C 361.167,26.5 345.833,26.5 330.5,26.5C 330.5,31.5 330.5,36.5 330.5,41.5C 325.167,41.5 319.833,41.5 314.5,41.5C 314.5,36.1667 314.5,30.8333 314.5,25.5 Z"/></g>
<g><path style="opacity:1" fill="#75c6f7" d="M 129.5,25.5 C 150.167,25.5 170.833,25.5 191.5,25.5C 191.5,30.8333 191.5,36.1667 191.5,41.5C 196.5,41.5 201.5,41.5 206.5,41.5C 206.5,51.8333 206.5,62.1667 206.5,72.5C 206.5,82.8333 206.5,93.1667 206.5,103.5C 201.5,103.5 196.5,103.5 191.5,103.5C 191.5,98.1667 191.5,92.8333 191.5,87.5C 191.5,82.5 191.5,77.5 191.5,72.5C 186.5,72.5 181.5,72.5 176.5,72.5C 176.5,77.5 176.5,82.5 176.5,87.5C 176.167,87.5 175.833,87.5 175.5,87.5C 175.5,82.5 175.5,77.5 175.5,72.5C 175.5,67.5 175.5,62.5 175.5,57.5C 170.5,57.5 165.5,57.5 160.5,57.5C 160.5,57.1667 160.5,56.8333 160.5,56.5C 160.5,51.5 160.5,46.5 160.5,41.5C 150.167,41.5 139.833,41.5 129.5,41.5C 129.5,36.1667 129.5,30.8333 129.5,25.5 Z"/></g>
<g><path style="opacity:1" fill="#75c7f9" d="M 392.5,41.5 C 397.5,41.5 402.5,41.5 407.5,41.5C 407.5,46.5 407.5,51.5 407.5,56.5C 407.5,61.8333 407.5,67.1667 407.5,72.5C 412.5,72.5 417.5,72.5 422.5,72.5C 422.5,82.8333 422.5,93.1667 422.5,103.5C 417.5,103.5 412.5,103.5 407.5,103.5C 407.5,108.5 407.5,113.5 407.5,118.5C 402.5,118.5 397.5,118.5 392.5,118.5C 392.821,113.305 392.487,108.305 391.5,103.5C 386.5,103.5 381.5,103.5 376.5,103.5C 376.5,103.167 376.5,102.833 376.5,102.5C 381.5,102.5 386.5,102.5 391.5,102.5C 391.5,92.5 391.5,82.5 391.5,72.5C 386.5,72.5 381.5,72.5 376.5,72.5C 376.5,67.1667 376.5,61.8333 376.5,56.5C 371.5,56.5 366.5,56.5 361.5,56.5C 361.5,51.5 361.5,46.5 361.5,41.5C 351.167,41.5 340.833,41.5 330.5,41.5C 330.5,36.5 330.5,31.5 330.5,26.5C 345.833,26.5 361.167,26.5 376.5,26.5C 376.5,31.5 376.5,36.5 376.5,41.5C 381.833,41.5 387.167,41.5 392.5,41.5 Z"/></g>
<g><path style="opacity:1" fill="#37647c" d="M 392.5,25.5 C 397.5,25.5 402.5,25.5 407.5,25.5C 407.5,30.8333 407.5,36.1667 407.5,41.5C 402.5,41.5 397.5,41.5 392.5,41.5C 392.5,36.1667 392.5,30.8333 392.5,25.5 Z"/></g>
<g><path style="opacity:1" fill="#76c8fa" d="M 129.5,41.5 C 129.5,46.5 129.5,51.5 129.5,56.5C 124.5,56.5 119.5,56.5 114.5,56.5C 114.5,51.5 114.5,46.5 114.5,41.5C 119.5,41.5 124.5,41.5 129.5,41.5 Z"/></g>
<g><path style="opacity:1" fill="#578fc8" d="M 129.5,41.5 C 139.833,41.5 150.167,41.5 160.5,41.5C 160.5,46.5 160.5,51.5 160.5,56.5C 150.167,56.5 139.833,56.5 129.5,56.5C 129.5,51.5 129.5,46.5 129.5,41.5 Z"/></g>
<g><path style="opacity:1" fill="#578fc7" d="M 314.5,41.5 C 314.5,46.5 314.5,51.5 314.5,56.5C 314.5,61.8333 314.5,67.1667 314.5,72.5C 309.5,72.5 304.5,72.5 299.5,72.5C 299.5,62.1667 299.5,51.8333 299.5,41.5C 304.5,41.5 309.5,41.5 314.5,41.5 Z"/></g>
<g><path style="opacity:1" fill="#75c6f8" d="M 314.5,41.5 C 319.833,41.5 325.167,41.5 330.5,41.5C 330.5,46.5 330.5,51.5 330.5,56.5C 325.167,56.5 319.833,56.5 314.5,56.5C 314.5,51.5 314.5,46.5 314.5,41.5 Z"/></g>
<g><path style="opacity:1" fill="#578fc8" d="M 330.5,41.5 C 340.833,41.5 351.167,41.5 361.5,41.5C 361.5,46.5 361.5,51.5 361.5,56.5C 351.167,56.5 340.833,56.5 330.5,56.5C 330.5,51.5 330.5,46.5 330.5,41.5 Z"/></g>
<g><path style="opacity:1" fill="#37647c" d="M 407.5,41.5 C 412.833,41.5 418.167,41.5 423.5,41.5C 423.5,46.5 423.5,51.5 423.5,56.5C 418.167,56.5 412.833,56.5 407.5,56.5C 407.5,51.5 407.5,46.5 407.5,41.5 Z"/></g>
<g><path style="opacity:1" fill="#b5c292" d="M 314.5,56.5 C 319.833,56.5 325.167,56.5 330.5,56.5C 340.833,56.5 351.167,56.5 361.5,56.5C 361.5,61.8333 361.5,67.1667 361.5,72.5C 360.513,67.6946 360.179,62.6946 360.5,57.5C 350.5,57.5 340.5,57.5 330.5,57.5C 325.5,57.5 320.5,57.5 315.5,57.5C 315.5,62.5 315.5,67.5 315.5,72.5C 315.167,72.5 314.833,72.5 314.5,72.5C 314.5,67.1667 314.5,61.8333 314.5,56.5 Z"/></g>
<g><path style="opacity:1" fill="#5890c8" d="M 114.5,56.5 C 119.5,56.5 124.5,56.5 129.5,56.5C 129.5,56.8333 129.5,57.1667 129.5,57.5C 129.5,62.5 129.5,67.5 129.5,72.5C 124.5,72.5 119.5,72.5 114.5,72.5C 114.5,67.1667 114.5,61.8333 114.5,56.5 Z"/></g>
<g><path style="opacity:1" fill="#f9e682" d="M 129.5,57.5 C 139.5,57.5 149.5,57.5 159.5,57.5C 159.5,67.5 159.5,77.5 159.5,87.5C 154.5,87.5 149.5,87.5 144.5,87.5C 144.5,92.8333 144.5,98.1667 144.5,103.5C 139.5,103.5 134.5,103.5 129.5,103.5C 129.5,108.5 129.5,113.5 129.5,118.5C 129.5,139.167 129.5,159.833 129.5,180.5C 129.5,185.5 129.5,190.5 129.5,195.5C 124.5,195.5 119.5,195.5 114.5,195.5C 114.5,190.5 114.5,185.5 114.5,180.5C 114.5,175.5 114.5,170.5 114.5,165.5C 109.5,165.5 104.5,165.5 99.5,165.5C 99.5,149.833 99.5,134.167 99.5,118.5C 104.5,118.5 109.5,118.5 114.5,118.5C 114.5,113.5 114.5,108.5 114.5,103.5C 114.5,98.1667 114.5,92.8333 114.5,87.5C 119.5,87.5 124.5,87.5 129.5,87.5C 129.5,82.5 129.5,77.5 129.5,72.5C 129.5,67.5 129.5,62.5 129.5,57.5 Z"/></g>
<g><path style="opacity:1" fill="#578fc7" d="M 160.5,57.5 C 165.5,57.5 170.5,57.5 175.5,57.5C 175.5,62.5 175.5,67.5 175.5,72.5C 170.5,72.5 165.5,72.5 160.5,72.5C 160.5,67.5 160.5,62.5 160.5,57.5 Z"/></g>
<g><path style="opacity:1" fill="#c8af3f" d="M 330.5,57.5 C 330.5,62.5 330.5,67.5 330.5,72.5C 325.5,72.5 320.5,72.5 315.5,72.5C 315.5,67.5 315.5,62.5 315.5,57.5C 320.5,57.5 325.5,57.5 330.5,57.5 Z"/></g>
<g><path style="opacity:1" fill="#f9e682" d="M 330.5,57.5 C 340.5,57.5 350.5,57.5 360.5,57.5C 360.179,62.6946 360.513,67.6946 361.5,72.5C 361.5,77.5 361.5,82.5 361.5,87.5C 366.5,87.5 371.5,87.5 376.5,87.5C 376.5,92.5 376.5,97.5 376.5,102.5C 376.5,102.833 376.5,103.167 376.5,103.5C 376.5,108.5 376.5,113.5 376.5,118.5C 381.5,118.5 386.5,118.5 391.5,118.5C 391.5,134.167 391.5,149.833 391.5,165.5C 386.5,165.5 381.5,165.5 376.5,165.5C 376.5,170.5 376.5,175.5 376.5,180.5C 376.5,185.5 376.5,190.5 376.5,195.5C 371.167,195.5 365.833,195.5 360.5,195.5C 360.5,205.833 360.5,216.167 360.5,226.5C 355.5,226.5 350.5,226.5 345.5,226.5C 340.5,226.5 335.5,226.5 330.5,226.5C 325.5,226.5 320.5,226.5 315.5,226.5C 315.167,226.5 314.833,226.5 314.5,226.5C 314.5,221.5 314.5,216.5 314.5,211.5C 319.833,211.5 325.167,211.5 330.5,211.5C 335.5,211.5 340.5,211.5 345.5,211.5C 345.5,206.167 345.5,200.833 345.5,195.5C 345.5,169.833 345.5,144.167 345.5,118.5C 345.5,113.5 345.5,108.5 345.5,103.5C 340.5,103.5 335.5,103.5 330.5,103.5C 325.36,102.512 320.026,102.179 314.5,102.5C 314.5,97.5 314.5,92.5 314.5,87.5C 314.5,82.5 314.5,77.5 314.5,72.5C 314.833,72.5 315.167,72.5 315.5,72.5C 320.5,72.5 325.5,72.5 330.5,72.5C 330.5,67.5 330.5,62.5 330.5,57.5 Z"/></g>
<g><path style="opacity:1" fill="#5890c8" d="M 361.5,56.5 C 366.5,56.5 371.5,56.5 376.5,56.5C 376.5,61.8333 376.5,67.1667 376.5,72.5C 371.5,72.5 366.5,72.5 361.5,72.5C 361.5,67.1667 361.5,61.8333 361.5,56.5 Z"/></g>
<g><path style="opacity:1" fill="#568ec4" d="M 407.5,56.5 C 412.833,56.5 418.167,56.5 423.5,56.5C 423.5,61.5 423.5,66.5 423.5,71.5C 423.5,82.1667 423.5,92.8333 423.5,103.5C 423.167,103.5 422.833,103.5 422.5,103.5C 422.5,93.1667 422.5,82.8333 422.5,72.5C 417.5,72.5 412.5,72.5 407.5,72.5C 407.5,67.1667 407.5,61.8333 407.5,56.5 Z"/></g>
<g><path style="opacity:1" fill="#38647d" d="M 129.5,25.5 C 129.5,30.8333 129.5,36.1667 129.5,41.5C 124.5,41.5 119.5,41.5 114.5,41.5C 114.5,46.5 114.5,51.5 114.5,56.5C 114.5,61.8333 114.5,67.1667 114.5,72.5C 114.5,77.5 114.5,82.5 114.5,87.5C 114.167,87.5 113.833,87.5 113.5,87.5C 113.5,82.5 113.5,77.5 113.5,72.5C 108.5,72.5 103.5,72.5 98.5,72.5C 98.5,77.5 98.5,82.5 98.5,87.5C 98.5,92.8333 98.5,98.1667 98.5,103.5C 98.5,129.167 98.5,154.833 98.5,180.5C 93.1667,180.5 87.8333,180.5 82.5,180.5C 82.5,144.167 82.5,107.833 82.5,71.5C 87.8333,71.5 93.1667,71.5 98.5,71.5C 98.5,61.5 98.5,51.5 98.5,41.5C 103.5,41.5 108.5,41.5 113.5,41.5C 113.5,36.1667 113.5,30.8333 113.5,25.5C 118.833,25.5 124.167,25.5 129.5,25.5 Z"/></g>
<g><path style="opacity:1" fill="#568ec7" d="M 113.5,87.5 C 108.5,87.5 103.5,87.5 98.5,87.5C 98.5,82.5 98.5,77.5 98.5,72.5C 103.5,72.5 108.5,72.5 113.5,72.5C 113.5,77.5 113.5,82.5 113.5,87.5 Z"/></g>
<g><path style="opacity:1" fill="#d9ce75" d="M 114.5,72.5 C 119.5,72.5 124.5,72.5 129.5,72.5C 129.5,77.5 129.5,82.5 129.5,87.5C 124.5,87.5 119.5,87.5 114.5,87.5C 114.5,82.5 114.5,77.5 114.5,72.5 Z"/></g>
<g><path style="opacity:1" fill="#d9ce7b" d="M 129.5,57.5 C 129.5,57.1667 129.5,56.8333 129.5,56.5C 139.833,56.5 150.167,56.5 160.5,56.5C 160.5,56.8333 160.5,57.1667 160.5,57.5C 160.5,62.5 160.5,67.5 160.5,72.5C 165.5,72.5 170.5,72.5 175.5,72.5C 175.5,77.5 175.5,82.5 175.5,87.5C 170.5,87.5 165.5,87.5 160.5,87.5C 160.167,87.5 159.833,87.5 159.5,87.5C 159.5,77.5 159.5,67.5 159.5,57.5C 149.5,57.5 139.5,57.5 129.5,57.5 Z"/></g>
<g><path style="opacity:1" fill="#578fc8" d="M 191.5,87.5 C 186.5,87.5 181.5,87.5 176.5,87.5C 176.5,82.5 176.5,77.5 176.5,72.5C 181.5,72.5 186.5,72.5 191.5,72.5C 191.5,77.5 191.5,82.5 191.5,87.5 Z"/></g>
<g><path style="opacity:1" fill="#568ec7" d="M 206.5,72.5 C 211.833,72.5 217.167,72.5 222.5,72.5C 222.5,82.8333 222.5,93.1667 222.5,103.5C 221.503,123.66 221.17,143.993 221.5,164.5C 216.305,164.179 211.305,164.513 206.5,165.5C 206.5,170.5 206.5,175.5 206.5,180.5C 201.5,180.5 196.5,180.5 191.5,180.5C 191.5,175.5 191.5,170.5 191.5,165.5C 191.5,144.833 191.5,124.167 191.5,103.5C 196.5,103.5 201.5,103.5 206.5,103.5C 206.5,93.1667 206.5,82.8333 206.5,72.5 Z"/></g>
<g><path style="opacity:1" fill="#37647d" d="M 191.5,25.5 C 196.833,25.5 202.167,25.5 207.5,25.5C 207.5,30.8333 207.5,36.1667 207.5,41.5C 212.5,41.5 217.5,41.5 222.5,41.5C 222.5,51.5 222.5,61.5 222.5,71.5C 227.762,71.1953 232.928,71.5286 238,72.5C 238.5,82.828 238.666,93.1613 238.5,103.5C 233.167,103.5 227.833,103.5 222.5,103.5C 222.5,93.1667 222.5,82.8333 222.5,72.5C 217.167,72.5 211.833,72.5 206.5,72.5C 206.5,62.1667 206.5,51.8333 206.5,41.5C 201.5,41.5 196.5,41.5 191.5,41.5C 191.5,36.1667 191.5,30.8333 191.5,25.5 Z"/></g>
<g><path style="opacity:1" fill="#37647d" d="M 314.5,25.5 C 314.5,30.8333 314.5,36.1667 314.5,41.5C 309.5,41.5 304.5,41.5 299.5,41.5C 299.5,51.8333 299.5,62.1667 299.5,72.5C 299.167,72.5 298.833,72.5 298.5,72.5C 293.5,72.5 288.5,72.5 283.5,72.5C 283.5,82.5 283.5,92.5 283.5,102.5C 283.5,102.833 283.5,103.167 283.5,103.5C 283.5,129.167 283.5,154.833 283.5,180.5C 278.5,180.5 273.5,180.5 268.5,180.5C 268.5,175.5 268.5,170.5 268.5,165.5C 268.5,165.167 268.5,164.833 268.5,164.5C 268.5,159.5 268.5,154.5 268.5,149.5C 268.5,123.5 268.5,97.5 268.5,71.5C 273.5,71.5 278.5,71.5 283.5,71.5C 283.5,61.5 283.5,51.5 283.5,41.5C 288.5,41.5 293.5,41.5 298.5,41.5C 298.5,36.1667 298.5,30.8333 298.5,25.5C 303.833,25.5 309.167,25.5 314.5,25.5 Z"/></g>
<g><path style="opacity:1" fill="#568ec6" d="M 298.5,72.5 C 298.5,82.5 298.5,92.5 298.5,102.5C 293.5,102.5 288.5,102.5 283.5,102.5C 283.5,92.5 283.5,82.5 283.5,72.5C 288.5,72.5 293.5,72.5 298.5,72.5 Z"/></g>
<g><path style="opacity:1" fill="#c7af3d" d="M 299.5,72.5 C 304.5,72.5 309.5,72.5 314.5,72.5C 314.5,77.5 314.5,82.5 314.5,87.5C 309.5,87.5 304.5,87.5 299.5,87.5C 299.5,82.5 299.5,77.5 299.5,72.5 Z"/></g>
<g><path style="opacity:1" fill="#d9ce75" d="M 361.5,72.5 C 366.5,72.5 371.5,72.5 376.5,72.5C 376.5,77.5 376.5,82.5 376.5,87.5C 371.5,87.5 366.5,87.5 361.5,87.5C 361.5,82.5 361.5,77.5 361.5,72.5 Z"/></g>
<g><path style="opacity:1" fill="#578fc8" d="M 376.5,72.5 C 381.5,72.5 386.5,72.5 391.5,72.5C 391.5,82.5 391.5,92.5 391.5,102.5C 386.5,102.5 381.5,102.5 376.5,102.5C 376.5,97.5 376.5,92.5 376.5,87.5C 376.5,82.5 376.5,77.5 376.5,72.5 Z"/></g>
<g><path style="opacity:1" fill="#37637c" d="M 423.5,71.5 C 428.5,71.5 433.5,71.5 438.5,71.5C 438.5,82.1667 438.5,92.8333 438.5,103.5C 433.5,103.5 428.5,103.5 423.5,103.5C 423.5,92.8333 423.5,82.1667 423.5,71.5 Z"/></g>
<g><path style="opacity:1" fill="#c6af42" d="M 98.5,87.5 C 103.5,87.5 108.5,87.5 113.5,87.5C 113.833,87.5 114.167,87.5 114.5,87.5C 114.5,92.8333 114.5,98.1667 114.5,103.5C 109.167,103.5 103.833,103.5 98.5,103.5C 98.5,98.1667 98.5,92.8333 98.5,87.5 Z"/></g>
<g><path style="opacity:1" fill="#c7ae40" d="M 159.5,87.5 C 159.833,87.5 160.167,87.5 160.5,87.5C 160.5,92.8333 160.5,98.1667 160.5,103.5C 155.5,103.5 150.5,103.5 145.5,103.5C 145.167,103.5 144.833,103.5 144.5,103.5C 144.5,98.1667 144.5,92.8333 144.5,87.5C 149.5,87.5 154.5,87.5 159.5,87.5 Z"/></g>
<g><path style="opacity:1" fill="#f8e581" d="M 160.5,87.5 C 165.5,87.5 170.5,87.5 175.5,87.5C 175.5,87.8333 175.5,88.1667 175.5,88.5C 175.5,93.5 175.5,98.5 175.5,103.5C 170.5,103.5 165.5,103.5 160.5,103.5C 160.5,98.1667 160.5,92.8333 160.5,87.5 Z"/></g>
<g><path style="opacity:1" fill="#c8af3e" d="M 175.5,88.5 C 180.5,88.5 185.5,88.5 190.5,88.5C 190.5,113.833 190.5,139.167 190.5,164.5C 185.833,164.5 181.167,164.5 176.5,164.5C 176.83,148.991 176.496,133.658 175.5,118.5C 170.5,118.5 165.5,118.5 160.5,118.5C 160.5,113.5 160.5,108.5 160.5,103.5C 165.5,103.5 170.5,103.5 175.5,103.5C 175.5,98.5 175.5,93.5 175.5,88.5 Z"/></g>
<g><path style="opacity:1" fill="#d9cc75" d="M 299.5,87.5 C 304.5,87.5 309.5,87.5 314.5,87.5C 314.5,92.5 314.5,97.5 314.5,102.5C 320.026,102.179 325.36,102.512 330.5,103.5C 325.167,103.5 319.833,103.5 314.5,103.5C 314.5,108.5 314.5,113.5 314.5,118.5C 309.5,118.5 304.5,118.5 299.5,118.5C 299.5,113.5 299.5,108.5 299.5,103.5C 299.5,98.1667 299.5,92.8333 299.5,87.5 Z"/></g>
<g><path style="opacity:1" fill="#6c95ad" d="M 298.5,72.5 C 298.833,72.5 299.167,72.5 299.5,72.5C 299.5,77.5 299.5,82.5 299.5,87.5C 299.5,92.8333 299.5,98.1667 299.5,103.5C 294.5,103.5 289.5,103.5 284.5,103.5C 284.167,103.5 283.833,103.5 283.5,103.5C 283.5,103.167 283.5,102.833 283.5,102.5C 288.5,102.5 293.5,102.5 298.5,102.5C 298.5,92.5 298.5,82.5 298.5,72.5 Z"/></g>
<g><path style="opacity:1" fill="#c7af3d" d="M 144.5,103.5 C 144.5,108.5 144.5,113.5 144.5,118.5C 139.5,118.5 134.5,118.5 129.5,118.5C 129.5,113.5 129.5,108.5 129.5,103.5C 134.5,103.5 139.5,103.5 144.5,103.5 Z"/></g>
<g><path style="opacity:1" fill="#131312" d="M 145.5,103.5 C 150.5,103.5 155.5,103.5 160.5,103.5C 160.5,108.5 160.5,113.5 160.5,118.5C 155.5,118.5 150.5,118.5 145.5,118.5C 145.5,113.5 145.5,108.5 145.5,103.5 Z"/></g>
<g><path style="opacity:1" fill="#9b9a57" d="M 175.5,88.5 C 175.5,88.1667 175.5,87.8333 175.5,87.5C 175.833,87.5 176.167,87.5 176.5,87.5C 181.5,87.5 186.5,87.5 191.5,87.5C 191.5,92.8333 191.5,98.1667 191.5,103.5C 191.5,124.167 191.5,144.833 191.5,165.5C 186.167,165.5 180.833,165.5 175.5,165.5C 175.5,149.833 175.5,134.167 175.5,118.5C 176.496,133.658 176.83,148.991 176.5,164.5C 181.167,164.5 185.833,164.5 190.5,164.5C 190.5,139.167 190.5,113.833 190.5,88.5C 185.5,88.5 180.5,88.5 175.5,88.5 Z"/></g>
<g><path style="opacity:1" fill="#315172" d="M 222.5,103.5 C 222.5,123.833 222.5,144.167 222.5,164.5C 237.833,164.5 253.167,164.5 268.5,164.5C 268.5,164.833 268.5,165.167 268.5,165.5C 253.167,165.5 237.833,165.5 222.5,165.5C 217.167,165.5 211.833,165.5 206.5,165.5C 211.305,164.513 216.305,164.179 221.5,164.5C 221.17,143.993 221.503,123.66 222.5,103.5 Z"/></g>
<g><path style="opacity:1" fill="#111211" d="M 222.5,103.5 C 227.833,103.5 233.167,103.5 238.5,103.5C 238.5,118.833 238.5,134.167 238.5,149.5C 248.5,149.5 258.5,149.5 268.5,149.5C 268.5,154.5 268.5,159.5 268.5,164.5C 253.167,164.5 237.833,164.5 222.5,164.5C 222.5,144.167 222.5,123.833 222.5,103.5 Z"/></g>
<g><path style="opacity:1" fill="#959c5e" d="M 283.5,103.5 C 283.833,103.5 284.167,103.5 284.5,103.5C 284.5,139.167 284.5,174.833 284.5,210.5C 289.695,210.179 294.695,210.513 299.5,211.5C 294.167,211.5 288.833,211.5 283.5,211.5C 283.5,206.167 283.5,200.833 283.5,195.5C 283.5,190.5 283.5,185.5 283.5,180.5C 283.5,154.833 283.5,129.167 283.5,103.5 Z"/></g>
<g><path style="opacity:1" fill="#c8af3e" d="M 284.5,103.5 C 289.5,103.5 294.5,103.5 299.5,103.5C 299.5,108.5 299.5,113.5 299.5,118.5C 298.502,144.328 298.169,170.328 298.5,196.5C 303.833,196.5 309.167,196.5 314.5,196.5C 314.5,201.5 314.5,206.5 314.5,211.5C 314.5,216.5 314.5,221.5 314.5,226.5C 309.5,226.5 304.5,226.5 299.5,226.5C 299.5,221.5 299.5,216.5 299.5,211.5C 294.695,210.513 289.695,210.179 284.5,210.5C 284.5,174.833 284.5,139.167 284.5,103.5 Z"/></g>
<g><path style="opacity:1" fill="#171714" d="M 330.5,103.5 C 330.5,108.5 330.5,113.5 330.5,118.5C 325.167,118.5 319.833,118.5 314.5,118.5C 314.5,113.5 314.5,108.5 314.5,103.5C 319.833,103.5 325.167,103.5 330.5,103.5 Z"/></g>
<g><path style="opacity:1" fill="#c7af3d" d="M 330.5,103.5 C 335.5,103.5 340.5,103.5 345.5,103.5C 345.5,108.5 345.5,113.5 345.5,118.5C 340.5,118.5 335.5,118.5 330.5,118.5C 330.5,113.5 330.5,108.5 330.5,103.5 Z"/></g>
<g><path style="opacity:1" fill="#d9ce75" d="M 376.5,103.5 C 381.5,103.5 386.5,103.5 391.5,103.5C 391.5,108.5 391.5,113.5 391.5,118.5C 386.5,118.5 381.5,118.5 376.5,118.5C 376.5,113.5 376.5,108.5 376.5,103.5 Z"/></g>
<g><path style="opacity:1" fill="#578fc7" d="M 422.5,103.5 C 422.5,123.833 422.5,144.167 422.5,164.5C 417.305,164.179 412.305,164.513 407.5,165.5C 407.5,175.5 407.5,185.5 407.5,195.5C 412.305,196.487 417.305,196.821 422.5,196.5C 422.5,201.5 422.5,206.5 422.5,211.5C 412.167,211.5 401.833,211.5 391.5,211.5C 391.5,216.5 391.5,221.5 391.5,226.5C 381.5,226.5 371.5,226.5 361.5,226.5C 361.5,221.5 361.5,216.5 361.5,211.5C 366.5,211.5 371.5,211.5 376.5,211.5C 376.5,206.167 376.5,200.833 376.5,195.5C 376.5,190.5 376.5,185.5 376.5,180.5C 381.833,180.5 387.167,180.5 392.5,180.5C 392.5,159.833 392.5,139.167 392.5,118.5C 397.5,118.5 402.5,118.5 407.5,118.5C 407.5,113.5 407.5,108.5 407.5,103.5C 412.5,103.5 417.5,103.5 422.5,103.5 Z"/></g>
<g><path style="opacity:1" fill="#111211" d="M 423.5,103.5 C 428.5,103.5 433.5,103.5 438.5,103.5C 438.5,123.833 438.5,144.167 438.5,164.5C 433.5,164.5 428.5,164.5 423.5,164.5C 423.5,144.167 423.5,123.833 423.5,103.5 Z"/></g>
<g><path style="opacity:1" fill="#a89636" d="M 299.5,118.5 C 299.5,144.167 299.5,169.833 299.5,195.5C 304.695,195.179 309.695,195.513 314.5,196.5C 309.167,196.5 303.833,196.5 298.5,196.5C 298.169,170.328 298.502,144.328 299.5,118.5 Z"/></g>
<g><path style="opacity:1" fill="#121212" d="M 129.5,118.5 C 134.5,118.5 139.5,118.5 144.5,118.5C 144.5,139.167 144.5,159.833 144.5,180.5C 139.5,180.5 134.5,180.5 129.5,180.5C 129.5,159.833 129.5,139.167 129.5,118.5 Z"/></g>
<g><path style="opacity:1" fill="#9696c0" d="M 145.5,118.5 C 150.5,118.5 155.5,118.5 160.5,118.5C 160.5,123.833 160.5,129.167 160.5,134.5C 155.5,134.5 150.5,134.5 145.5,134.5C 145.5,129.167 145.5,123.833 145.5,118.5 Z"/></g>
<g><path style="opacity:1" fill="#121212" d="M 160.5,118.5 C 165.5,118.5 170.5,118.5 175.5,118.5C 175.5,134.167 175.5,149.833 175.5,165.5C 175.5,170.5 175.5,175.5 175.5,180.5C 170.5,180.5 165.5,180.5 160.5,180.5C 160.5,175.5 160.5,170.5 160.5,165.5C 160.5,155.167 160.5,144.833 160.5,134.5C 160.5,129.167 160.5,123.833 160.5,118.5 Z"/></g>
<g><path style="opacity:1" fill="#121212" d="M 299.5,118.5 C 304.5,118.5 309.5,118.5 314.5,118.5C 314.5,123.833 314.5,129.167 314.5,134.5C 314.5,144.5 314.5,154.5 314.5,164.5C 314.5,169.833 314.5,175.167 314.5,180.5C 319.833,180.5 325.167,180.5 330.5,180.5C 330.5,175.167 330.5,169.833 330.5,164.5C 330.5,154.5 330.5,144.5 330.5,134.5C 330.5,129.167 330.5,123.833 330.5,118.5C 335.5,118.5 340.5,118.5 345.5,118.5C 345.5,144.167 345.5,169.833 345.5,195.5C 340.5,195.5 335.5,195.5 330.5,195.5C 329.513,200.305 329.179,205.305 329.5,210.5C 324.833,210.5 320.167,210.5 315.5,210.5C 315.819,205.637 315.486,200.97 314.5,196.5C 309.695,195.513 304.695,195.179 299.5,195.5C 299.5,169.833 299.5,144.167 299.5,118.5 Z"/></g>
<g><path style="opacity:1" fill="#9393bc" d="M 314.5,118.5 C 319.833,118.5 325.167,118.5 330.5,118.5C 330.5,123.833 330.5,129.167 330.5,134.5C 325.167,134.5 319.833,134.5 314.5,134.5C 314.5,129.167 314.5,123.833 314.5,118.5 Z"/></g>
<g><path style="opacity:1" fill="#f7f7f7" d="M 145.5,134.5 C 150.5,134.5 155.5,134.5 160.5,134.5C 160.5,144.833 160.5,155.167 160.5,165.5C 155.5,165.5 150.5,165.5 145.5,165.5C 145.5,155.167 145.5,144.833 145.5,134.5 Z"/></g>
<g><path style="opacity:1" fill="#f3f3f3" d="M 314.5,134.5 C 319.833,134.5 325.167,134.5 330.5,134.5C 330.5,144.5 330.5,154.5 330.5,164.5C 325.167,164.5 319.833,164.5 314.5,164.5C 314.5,154.5 314.5,144.5 314.5,134.5 Z"/></g>
<g><path style="opacity:1" fill="#455267" d="M 422.5,103.5 C 422.833,103.5 423.167,103.5 423.5,103.5C 423.5,123.833 423.5,144.167 423.5,164.5C 428.5,164.5 433.5,164.5 438.5,164.5C 438.5,164.833 438.5,165.167 438.5,165.5C 433.5,165.5 428.5,165.5 423.5,165.5C 423.5,170.5 423.5,175.5 423.5,180.5C 423.167,180.5 422.833,180.5 422.5,180.5C 422.5,175.5 422.5,170.5 422.5,165.5C 417.5,165.5 412.5,165.5 407.5,165.5C 412.305,164.513 417.305,164.179 422.5,164.5C 422.5,144.167 422.5,123.833 422.5,103.5 Z"/></g>
<g><path style="opacity:1" fill="#dace77" d="M 98.5,103.5 C 103.833,103.5 109.167,103.5 114.5,103.5C 114.5,108.5 114.5,113.5 114.5,118.5C 109.5,118.5 104.5,118.5 99.5,118.5C 99.5,134.167 99.5,149.833 99.5,165.5C 104.5,165.5 109.5,165.5 114.5,165.5C 114.5,170.5 114.5,175.5 114.5,180.5C 109.167,180.5 103.833,180.5 98.5,180.5C 98.5,154.833 98.5,129.167 98.5,103.5 Z"/></g>
<g><path style="opacity:1" fill="#8e8dae" d="M 144.5,103.5 C 144.833,103.5 145.167,103.5 145.5,103.5C 145.5,108.5 145.5,113.5 145.5,118.5C 145.5,123.833 145.5,129.167 145.5,134.5C 145.5,144.833 145.5,155.167 145.5,165.5C 150.5,165.5 155.5,165.5 160.5,165.5C 160.5,170.5 160.5,175.5 160.5,180.5C 155.5,180.5 150.5,180.5 145.5,180.5C 145.167,180.5 144.833,180.5 144.5,180.5C 144.5,159.833 144.5,139.167 144.5,118.5C 144.5,113.5 144.5,108.5 144.5,103.5 Z"/></g>
<g><path style="opacity:1" fill="#38637c" d="M 175.5,165.5 C 180.833,165.5 186.167,165.5 191.5,165.5C 191.5,170.5 191.5,175.5 191.5,180.5C 186.167,180.5 180.833,180.5 175.5,180.5C 175.5,175.5 175.5,170.5 175.5,165.5 Z"/></g>
<g><path style="opacity:1" fill="#131417" d="M 206.5,165.5 C 211.833,165.5 217.167,165.5 222.5,165.5C 222.5,170.5 222.5,175.5 222.5,180.5C 217.167,180.5 211.833,180.5 206.5,180.5C 206.5,175.5 206.5,170.5 206.5,165.5 Z"/></g>
<g><path style="opacity:1" fill="#12448f" d="M 222.5,165.5 C 237.833,165.5 253.167,165.5 268.5,165.5C 268.5,170.5 268.5,175.5 268.5,180.5C 263.167,180.5 257.833,180.5 252.5,180.5C 252.5,185.5 252.5,190.5 252.5,195.5C 237.167,195.5 221.833,195.5 206.5,195.5C 206.5,190.5 206.5,185.5 206.5,180.5C 211.833,180.5 217.167,180.5 222.5,180.5C 222.5,175.5 222.5,170.5 222.5,165.5 Z"/></g>
<g><path style="opacity:1" fill="#9494bc" d="M 314.5,164.5 C 319.833,164.5 325.167,164.5 330.5,164.5C 330.5,169.833 330.5,175.167 330.5,180.5C 325.167,180.5 319.833,180.5 314.5,180.5C 314.5,175.167 314.5,169.833 314.5,164.5 Z"/></g>
<g><path style="opacity:1" fill="#cfc981" d="M 391.5,103.5 C 392.487,108.305 392.821,113.305 392.5,118.5C 392.5,139.167 392.5,159.833 392.5,180.5C 387.167,180.5 381.833,180.5 376.5,180.5C 376.5,175.5 376.5,170.5 376.5,165.5C 381.5,165.5 386.5,165.5 391.5,165.5C 391.5,149.833 391.5,134.167 391.5,118.5C 391.5,113.5 391.5,108.5 391.5,103.5 Z"/></g>
<g><path style="opacity:1" fill="#111211" d="M 407.5,165.5 C 412.5,165.5 417.5,165.5 422.5,165.5C 422.5,170.5 422.5,175.5 422.5,180.5C 422.5,185.5 422.5,190.5 422.5,195.5C 417.5,195.5 412.5,195.5 407.5,195.5C 407.5,185.5 407.5,175.5 407.5,165.5 Z"/></g>
<g><path style="opacity:1" fill="#3b657d" d="M 98.5,180.5 C 103.833,180.5 109.167,180.5 114.5,180.5C 114.5,185.5 114.5,190.5 114.5,195.5C 114.5,200.833 114.5,206.167 114.5,211.5C 114.167,211.5 113.833,211.5 113.5,211.5C 103.347,210.506 93.0135,210.172 82.5,210.5C 82.5,205.5 82.5,200.5 82.5,195.5C 87.8333,195.5 93.1667,195.5 98.5,195.5C 98.5,190.5 98.5,185.5 98.5,180.5 Z"/></g>
<g><path style="opacity:1" fill="#c2aa3c" d="M 129.5,180.5 C 134.5,180.5 139.5,180.5 144.5,180.5C 144.833,180.5 145.167,180.5 145.5,180.5C 145.5,185.5 145.5,190.5 145.5,195.5C 145.167,195.5 144.833,195.5 144.5,195.5C 139.5,195.5 134.5,195.5 129.5,195.5C 129.5,190.5 129.5,185.5 129.5,180.5 Z"/></g>
<g><path style="opacity:1" fill="#131313" d="M 145.5,180.5 C 150.5,180.5 155.5,180.5 160.5,180.5C 160.5,185.5 160.5,190.5 160.5,195.5C 155.5,195.5 150.5,195.5 145.5,195.5C 145.5,190.5 145.5,185.5 145.5,180.5 Z"/></g>
<g><path style="opacity:1" fill="#9595c0" d="M 160.5,180.5 C 165.5,180.5 170.5,180.5 175.5,180.5C 180.833,180.5 186.167,180.5 191.5,180.5C 191.5,185.5 191.5,190.5 191.5,195.5C 181.167,195.5 170.833,195.5 160.5,195.5C 160.5,190.5 160.5,185.5 160.5,180.5 Z"/></g>
<g><path style="opacity:1" fill="#38647d" d="M 191.5,180.5 C 196.5,180.5 201.5,180.5 206.5,180.5C 206.5,185.5 206.5,190.5 206.5,195.5C 201.5,195.5 196.5,195.5 191.5,195.5C 191.5,190.5 191.5,185.5 191.5,180.5 Z"/></g>
<g><path style="opacity:1" fill="#558dc7" d="M 268.5,180.5 C 273.5,180.5 278.5,180.5 283.5,180.5C 283.5,185.5 283.5,190.5 283.5,195.5C 273.167,195.5 262.833,195.5 252.5,195.5C 252.5,190.5 252.5,185.5 252.5,180.5C 257.833,180.5 263.167,180.5 268.5,180.5 Z"/></g>
<g><path style="opacity:1" fill="#c7c7e0" d="M 423.5,180.5 C 428.5,180.5 433.5,180.5 438.5,180.5C 438.5,185.5 438.5,190.5 438.5,195.5C 438.5,190.5 438.5,185.5 438.5,180.5C 433.5,180.5 428.5,180.5 423.5,180.5 Z"/></g>
<g><path style="opacity:1" fill="#9696c0" d="M 438.5,165.5 C 438.5,170.167 438.5,174.833 438.5,179.5C 443.511,179.334 448.511,179.501 453.5,180C 454.471,185.072 454.805,190.238 454.5,195.5C 459.5,195.5 464.5,195.5 469.5,195.5C 469.5,200.5 469.5,205.5 469.5,210.5C 474.833,210.5 480.167,210.5 485.5,210.5C 485.5,215.833 485.5,221.167 485.5,226.5C 490.5,226.5 495.5,226.5 500.5,226.5C 500.5,231.5 500.5,236.5 500.5,241.5C 495.167,241.5 489.833,241.5 484.5,241.5C 484.5,236.5 484.5,231.5 484.5,226.5C 479.5,226.5 474.5,226.5 469.5,226.5C 464.167,226.5 458.833,226.5 453.5,226.5C 453.5,221.5 453.5,216.5 453.5,211.5C 448.5,211.5 443.5,211.5 438.5,211.5C 438.5,211.167 438.5,210.833 438.5,210.5C 443.5,210.5 448.5,210.5 453.5,210.5C 453.5,205.5 453.5,200.5 453.5,195.5C 448.5,195.5 443.5,195.5 438.5,195.5C 438.5,190.5 438.5,185.5 438.5,180.5C 433.5,180.5 428.5,180.5 423.5,180.5C 423.5,175.5 423.5,170.5 423.5,165.5C 428.5,165.5 433.5,165.5 438.5,165.5 Z"/></g>
<g><path style="opacity:1" fill="#d9ce78" d="M 114.5,195.5 C 119.5,195.5 124.5,195.5 129.5,195.5C 129.5,200.833 129.5,206.167 129.5,211.5C 124.5,211.5 119.5,211.5 114.5,211.5C 114.5,206.167 114.5,200.833 114.5,195.5 Z"/></g>
<g><path style="opacity:1" fill="#f8e581" d="M 129.5,195.5 C 134.5,195.5 139.5,195.5 144.5,195.5C 144.5,200.833 144.5,206.167 144.5,211.5C 139.5,211.5 134.5,211.5 129.5,211.5C 129.5,206.167 129.5,200.833 129.5,195.5 Z"/></g>
<g><path style="opacity:1" fill="#f9f9f9" d="M 144.5,195.5 C 144.833,195.5 145.167,195.5 145.5,195.5C 145.5,200.833 145.5,206.167 145.5,211.5C 150.5,211.5 155.5,211.5 160.5,211.5C 160.5,206.167 160.5,200.833 160.5,195.5C 170.833,195.5 181.167,195.5 191.5,195.5C 191.5,200.833 191.5,206.167 191.5,211.5C 196.5,211.5 201.5,211.5 206.5,211.5C 206.5,206.5 206.5,201.5 206.5,196.5C 216.833,196.5 227.167,196.5 237.5,196.5C 237.5,201.5 237.5,206.5 237.5,211.5C 242.5,211.5 247.5,211.5 252.5,211.5C 252.5,221.5 252.5,231.5 252.5,241.5C 247.305,241.179 242.305,241.513 237.5,242.5C 237.5,247.5 237.5,252.5 237.5,257.5C 227.167,257.5 216.833,257.5 206.5,257.5C 206.5,252.5 206.5,247.5 206.5,242.5C 201.5,242.5 196.5,242.5 191.5,242.5C 191.5,247.5 191.5,252.5 191.5,257.5C 181.167,257.5 170.833,257.5 160.5,257.5C 160.5,252.5 160.5,247.5 160.5,242.5C 155.695,241.513 150.695,241.179 145.5,241.5C 145.821,236.305 145.487,231.305 144.5,226.5C 144.5,221.5 144.5,216.5 144.5,211.5C 144.5,206.167 144.5,200.833 144.5,195.5 Z"/></g>
<g><path style="opacity:1" fill="#9595be" d="M 145.5,195.5 C 150.5,195.5 155.5,195.5 160.5,195.5C 160.5,200.833 160.5,206.167 160.5,211.5C 155.5,211.5 150.5,211.5 145.5,211.5C 145.5,206.167 145.5,200.833 145.5,195.5 Z"/></g>
<g><path style="opacity:1" fill="#9698c1" d="M 191.5,195.5 C 196.5,195.5 201.5,195.5 206.5,195.5C 221.833,195.5 237.167,195.5 252.5,195.5C 252.5,200.833 252.5,206.167 252.5,211.5C 247.5,211.5 242.5,211.5 237.5,211.5C 237.5,206.5 237.5,201.5 237.5,196.5C 227.167,196.5 216.833,196.5 206.5,196.5C 206.5,201.5 206.5,206.5 206.5,211.5C 201.5,211.5 196.5,211.5 191.5,211.5C 191.5,206.167 191.5,200.833 191.5,195.5 Z"/></g>
<g><path style="opacity:1" fill="#76c7f9" d="M 252.5,195.5 C 262.833,195.5 273.167,195.5 283.5,195.5C 283.5,200.833 283.5,206.167 283.5,211.5C 288.833,211.5 294.167,211.5 299.5,211.5C 299.5,216.5 299.5,221.5 299.5,226.5C 304.5,226.5 309.5,226.5 314.5,226.5C 314.5,231.833 314.5,237.167 314.5,242.5C 324.833,242.5 335.167,242.5 345.5,242.5C 350.833,242.5 356.167,242.5 361.5,242.5C 361.5,237.167 361.5,231.833 361.5,226.5C 371.5,226.5 381.5,226.5 391.5,226.5C 391.5,221.5 391.5,216.5 391.5,211.5C 401.833,211.5 412.167,211.5 422.5,211.5C 427.833,211.5 433.167,211.5 438.5,211.5C 438.5,216.5 438.5,221.5 438.5,226.5C 438.5,231.833 438.5,237.167 438.5,242.5C 433.167,242.5 427.833,242.5 422.5,242.5C 422.5,247.5 422.5,252.5 422.5,257.5C 417.5,257.5 412.5,257.5 407.5,257.5C 402.5,257.5 397.5,257.5 392.5,257.5C 392.5,262.5 392.5,267.5 392.5,272.5C 376.833,272.5 361.167,272.5 345.5,272.5C 345.5,277.833 345.5,283.167 345.5,288.5C 319.833,288.5 294.167,288.5 268.5,288.5C 263.167,288.5 257.833,288.5 252.5,288.5C 252.5,283.5 252.5,278.5 252.5,273.5C 247.5,273.5 242.5,273.5 237.5,273.5C 217.007,272.503 196.34,272.169 175.5,272.5C 175.5,277.833 175.5,283.167 175.5,288.5C 165.5,288.5 155.5,288.5 145.5,288.5C 145.167,288.5 144.833,288.5 144.5,288.5C 139.5,288.5 134.5,288.5 129.5,288.5C 129.5,283.5 129.5,278.5 129.5,273.5C 124.5,273.5 119.5,273.5 114.5,273.5C 109.36,272.512 104.026,272.179 98.5,272.5C 98.5,267.5 98.5,262.5 98.5,257.5C 93.5,257.5 88.5,257.5 83.5,257.5C 83.5,252.5 83.5,247.5 83.5,242.5C 78.5,242.5 73.5,242.5 68.5,242.5C 68.5,237.5 68.5,232.5 68.5,227.5C 73.5,227.5 78.5,227.5 83.5,227.5C 83.5,222.167 83.5,216.833 83.5,211.5C 93.5,211.5 103.5,211.5 113.5,211.5C 113.833,211.5 114.167,211.5 114.5,211.5C 119.5,211.5 124.5,211.5 129.5,211.5C 129.5,216.5 129.5,221.5 129.5,226.5C 134.305,227.487 139.305,227.821 144.5,227.5C 144.5,232.5 144.5,237.5 144.5,242.5C 149.833,242.5 155.167,242.5 160.5,242.5C 160.5,247.5 160.5,252.5 160.5,257.5C 170.833,257.5 181.167,257.5 191.5,257.5C 196.5,257.5 201.5,257.5 206.5,257.5C 216.833,257.5 227.167,257.5 237.5,257.5C 242.5,257.5 247.5,257.5 252.5,257.5C 252.5,252.5 252.5,247.5 252.5,242.5C 252.833,242.5 253.167,242.5 253.5,242.5C 258.5,242.5 263.5,242.5 268.5,242.5C 268.5,232.167 268.5,221.833 268.5,211.5C 263.5,211.5 258.5,211.5 253.5,211.5C 253.167,211.5 252.833,211.5 252.5,211.5C 252.5,206.167 252.5,200.833 252.5,195.5 Z"/></g>
<g><path style="opacity:1" fill="#c4ac3e" d="M 330.5,195.5 C 335.5,195.5 340.5,195.5 345.5,195.5C 345.5,200.833 345.5,206.167 345.5,211.5C 340.5,211.5 335.5,211.5 330.5,211.5C 330.5,206.167 330.5,200.833 330.5,195.5 Z"/></g>
<g><path style="opacity:1" fill="#d9cd79" d="M 376.5,195.5 C 376.5,200.833 376.5,206.167 376.5,211.5C 371.5,211.5 366.5,211.5 361.5,211.5C 361.5,216.5 361.5,221.5 361.5,226.5C 361.167,226.5 360.833,226.5 360.5,226.5C 360.5,216.167 360.5,205.833 360.5,195.5C 365.833,195.5 371.167,195.5 376.5,195.5 Z"/></g>
<g><path style="opacity:1" fill="#416a83" d="M 422.5,180.5 C 422.833,180.5 423.167,180.5 423.5,180.5C 423.5,185.5 423.5,190.5 423.5,195.5C 428.5,195.5 433.5,195.5 438.5,195.5C 438.5,200.5 438.5,205.5 438.5,210.5C 438.5,210.833 438.5,211.167 438.5,211.5C 433.167,211.5 427.833,211.5 422.5,211.5C 422.5,206.5 422.5,201.5 422.5,196.5C 417.305,196.821 412.305,196.487 407.5,195.5C 412.5,195.5 417.5,195.5 422.5,195.5C 422.5,190.5 422.5,185.5 422.5,180.5 Z"/></g>
<g><path style="opacity:1" fill="#c6c6e0" d="M 438.5,195.5 C 443.5,195.5 448.5,195.5 453.5,195.5C 453.5,200.5 453.5,205.5 453.5,210.5C 448.5,210.5 443.5,210.5 438.5,210.5C 438.5,205.5 438.5,200.5 438.5,195.5 Z"/></g>
<g><path style="opacity:1" fill="#464428" d="M 330.5,195.5 C 330.5,200.833 330.5,206.167 330.5,211.5C 325.167,211.5 319.833,211.5 314.5,211.5C 314.5,206.5 314.5,201.5 314.5,196.5C 315.486,200.97 315.819,205.637 315.5,210.5C 320.167,210.5 324.833,210.5 329.5,210.5C 329.179,205.305 329.513,200.305 330.5,195.5 Z"/></g>
<g><path style="opacity:1" fill="#37647c" d="M 82.5,210.5 C 82.5,215.833 82.5,221.167 82.5,226.5C 77.5,226.5 72.5,226.5 67.5,226.5C 67.5,221.167 67.5,215.833 67.5,210.5C 72.5,210.5 77.5,210.5 82.5,210.5 Z"/></g>
<g><path style="opacity:1" fill="#d9ce75" d="M 129.5,211.5 C 134.5,211.5 139.5,211.5 144.5,211.5C 144.5,216.5 144.5,221.5 144.5,226.5C 139.5,226.5 134.5,226.5 129.5,226.5C 129.5,221.5 129.5,216.5 129.5,211.5 Z"/></g>
<g><path style="opacity:1" fill="#cacae2" d="M 252.5,211.5 C 252.833,211.5 253.167,211.5 253.5,211.5C 253.5,221.833 253.5,232.167 253.5,242.5C 253.167,242.5 252.833,242.5 252.5,242.5C 247.5,242.5 242.5,242.5 237.5,242.5C 242.305,241.513 247.305,241.179 252.5,241.5C 252.5,231.5 252.5,221.5 252.5,211.5 Z"/></g>
<g><path style="opacity:1" fill="#9596c1" d="M 253.5,211.5 C 258.5,211.5 263.5,211.5 268.5,211.5C 268.5,221.833 268.5,232.167 268.5,242.5C 263.5,242.5 258.5,242.5 253.5,242.5C 253.5,232.167 253.5,221.833 253.5,211.5 Z"/></g>
<g><path style="opacity:1" fill="#38647d" d="M 438.5,211.5 C 443.5,211.5 448.5,211.5 453.5,211.5C 453.5,216.5 453.5,221.5 453.5,226.5C 448.5,226.5 443.5,226.5 438.5,226.5C 438.5,221.5 438.5,216.5 438.5,211.5 Z"/></g>
<g><path style="opacity:1" fill="#121213" d="M 67.5,226.5 C 67.1724,237.014 67.5058,247.347 68.5,257.5C 73.5,257.5 78.5,257.5 83.5,257.5C 83.5,262.5 83.5,267.5 83.5,272.5C 93.3194,273.494 103.319,273.827 113.5,273.5C 113.5,278.5 113.5,283.5 113.5,288.5C 103.167,288.5 92.8333,288.5 82.5,288.5C 82.5,283.5 82.5,278.5 82.5,273.5C 77.5,273.5 72.5,273.5 67.5,273.5C 67.5,268.5 67.5,263.5 67.5,258.5C 62.2384,258.805 57.0717,258.471 52,257.5C 51.5002,247.172 51.3335,236.839 51.5,226.5C 56.8333,226.5 62.1667,226.5 67.5,226.5 Z"/></g>
<g><path style="opacity:1" fill="#b3dcf1" d="M 129.5,226.5 C 134.5,226.5 139.5,226.5 144.5,226.5C 145.487,231.305 145.821,236.305 145.5,241.5C 150.695,241.179 155.695,241.513 160.5,242.5C 155.167,242.5 149.833,242.5 144.5,242.5C 144.5,237.5 144.5,232.5 144.5,227.5C 139.305,227.821 134.305,227.487 129.5,226.5 Z"/></g>
<g><path style="opacity:1" fill="#c8af3f" d="M 315.5,226.5 C 320.5,226.5 325.5,226.5 330.5,226.5C 330.5,231.5 330.5,236.5 330.5,241.5C 325.5,241.5 320.5,241.5 315.5,241.5C 315.5,236.5 315.5,231.5 315.5,226.5 Z"/></g>
<g><path style="opacity:1" fill="#dace76" d="M 330.5,226.5 C 335.5,226.5 340.5,226.5 345.5,226.5C 345.5,231.5 345.5,236.5 345.5,241.5C 340.5,241.5 335.5,241.5 330.5,241.5C 330.5,236.5 330.5,231.5 330.5,226.5 Z"/></g>
<g><path style="opacity:1" fill="#5a93c9" d="M 345.5,226.5 C 350.5,226.5 355.5,226.5 360.5,226.5C 360.833,226.5 361.167,226.5 361.5,226.5C 361.5,231.833 361.5,237.167 361.5,242.5C 356.167,242.5 350.833,242.5 345.5,242.5C 345.5,242.167 345.5,241.833 345.5,241.5C 345.5,236.5 345.5,231.5 345.5,226.5 Z"/></g>
<g><path style="opacity:1" fill="#568ec7" d="M 438.5,226.5 C 443.5,226.5 448.5,226.5 453.5,226.5C 453.5,236.833 453.5,247.167 453.5,257.5C 448.5,257.5 443.5,257.5 438.5,257.5C 438.5,252.5 438.5,247.5 438.5,242.5C 438.5,237.167 438.5,231.833 438.5,226.5 Z"/></g>
<g><path style="opacity:1" fill="#3c424e" d="M 453.5,226.5 C 458.833,226.5 464.167,226.5 469.5,226.5C 469.5,236.833 469.5,247.167 469.5,257.5C 469.167,257.5 468.833,257.5 468.5,257.5C 468.5,247.5 468.5,237.5 468.5,227.5C 463.833,227.5 459.167,227.5 454.5,227.5C 454.5,237.5 454.5,247.5 454.5,257.5C 454.167,257.5 453.833,257.5 453.5,257.5C 453.5,247.167 453.5,236.833 453.5,226.5 Z"/></g>
<g><path style="opacity:1" fill="#111211" d="M 468.5,257.5 C 463.833,257.5 459.167,257.5 454.5,257.5C 454.5,247.5 454.5,237.5 454.5,227.5C 459.167,227.5 463.833,227.5 468.5,227.5C 468.5,237.5 468.5,247.5 468.5,257.5 Z"/></g>
<g><path style="opacity:1" fill="#f9f9f9" d="M 469.5,226.5 C 474.5,226.5 479.5,226.5 484.5,226.5C 484.5,231.5 484.5,236.5 484.5,241.5C 489.305,242.487 494.305,242.821 499.5,242.5C 499.5,252.5 499.5,262.5 499.5,272.5C 489.5,272.5 479.5,272.5 469.5,272.5C 469.5,267.5 469.5,262.5 469.5,257.5C 469.5,247.167 469.5,236.833 469.5,226.5 Z"/></g>
<g><path style="opacity:1" fill="#aebb88" d="M 314.5,226.5 C 314.833,226.5 315.167,226.5 315.5,226.5C 315.5,231.5 315.5,236.5 315.5,241.5C 320.5,241.5 325.5,241.5 330.5,241.5C 335.5,241.5 340.5,241.5 345.5,241.5C 345.5,241.833 345.5,242.167 345.5,242.5C 335.167,242.5 324.833,242.5 314.5,242.5C 314.5,237.167 314.5,231.833 314.5,226.5 Z"/></g>
<g><path style="opacity:1" fill="#4e89af" d="M 82.5,210.5 C 93.0135,210.172 103.347,210.506 113.5,211.5C 103.5,211.5 93.5,211.5 83.5,211.5C 83.5,216.833 83.5,222.167 83.5,227.5C 78.5,227.5 73.5,227.5 68.5,227.5C 68.5,232.5 68.5,237.5 68.5,242.5C 68.5,247.5 68.5,252.5 68.5,257.5C 67.5058,247.347 67.1724,237.014 67.5,226.5C 72.5,226.5 77.5,226.5 82.5,226.5C 82.5,221.167 82.5,215.833 82.5,210.5 Z"/></g>
<g><path style="opacity:1" fill="#5da8e1" d="M 68.5,242.5 C 73.5,242.5 78.5,242.5 83.5,242.5C 83.5,247.5 83.5,252.5 83.5,257.5C 78.5,257.5 73.5,257.5 68.5,257.5C 68.5,252.5 68.5,247.5 68.5,242.5 Z"/></g>
<g><path style="opacity:1" fill="#9596c0" d="M 206.5,257.5 C 201.5,257.5 196.5,257.5 191.5,257.5C 191.5,252.5 191.5,247.5 191.5,242.5C 196.5,242.5 201.5,242.5 206.5,242.5C 206.5,247.5 206.5,252.5 206.5,257.5 Z"/></g>
<g><path style="opacity:1" fill="#9696c1" d="M 237.5,242.5 C 242.5,242.5 247.5,242.5 252.5,242.5C 252.5,247.5 252.5,252.5 252.5,257.5C 247.5,257.5 242.5,257.5 237.5,257.5C 237.5,252.5 237.5,247.5 237.5,242.5 Z"/></g>
<g><path style="opacity:1" fill="#5da8e1" d="M 438.5,242.5 C 438.5,247.5 438.5,252.5 438.5,257.5C 433.167,257.5 427.833,257.5 422.5,257.5C 422.5,252.5 422.5,247.5 422.5,242.5C 427.833,242.5 433.167,242.5 438.5,242.5 Z"/></g>
<g><path style="opacity:1" fill="#578fc8" d="M 83.5,257.5 C 88.5,257.5 93.5,257.5 98.5,257.5C 98.5,262.5 98.5,267.5 98.5,272.5C 93.5,272.5 88.5,272.5 83.5,272.5C 83.5,267.5 83.5,262.5 83.5,257.5 Z"/></g>
<g><path style="opacity:1" fill="#568ec6" d="M 407.5,257.5 C 412.5,257.5 417.5,257.5 422.5,257.5C 427.833,257.5 433.167,257.5 438.5,257.5C 438.5,262.5 438.5,267.5 438.5,272.5C 428.167,272.5 417.833,272.5 407.5,272.5C 407.5,267.5 407.5,262.5 407.5,257.5 Z"/></g>
<g><path style="opacity:1" fill="#121313" d="M 438.5,257.5 C 443.5,257.5 448.5,257.5 453.5,257.5C 453.5,262.5 453.5,267.5 453.5,272.5C 448.5,272.5 443.5,272.5 438.5,272.5C 438.5,267.5 438.5,262.5 438.5,257.5 Z"/></g>
<g><path style="opacity:1" fill="#c7c7e0" d="M 453.5,257.5 C 453.833,257.5 454.167,257.5 454.5,257.5C 459.167,257.5 463.833,257.5 468.5,257.5C 468.833,257.5 469.167,257.5 469.5,257.5C 469.5,262.5 469.5,267.5 469.5,272.5C 479.5,272.5 489.5,272.5 499.5,272.5C 499.5,277.833 499.5,283.167 499.5,288.5C 494.5,288.5 489.5,288.5 484.5,288.5C 484.5,293.833 484.5,299.167 484.5,304.5C 479.5,304.5 474.5,304.5 469.5,304.5C 469.5,309.5 469.5,314.5 469.5,319.5C 459.167,319.5 448.833,319.5 438.5,319.5C 438.5,329.833 438.5,340.167 438.5,350.5C 433.167,350.5 427.833,350.5 422.5,350.5C 422.5,355.5 422.5,360.5 422.5,365.5C 417.5,365.5 412.5,365.5 407.5,365.5C 402.5,365.5 397.5,365.5 392.5,365.5C 392.167,365.5 391.833,365.5 391.5,365.5C 391.5,360.5 391.5,355.5 391.5,350.5C 386.5,350.5 381.5,350.5 376.5,350.5C 376.5,345.5 376.5,340.5 376.5,335.5C 376.5,335.167 376.5,334.833 376.5,334.5C 376.5,329.5 376.5,324.5 376.5,319.5C 376.5,314.167 376.5,308.833 376.5,303.5C 386.833,303.5 397.167,303.5 407.5,303.5C 407.5,298.5 407.5,293.5 407.5,288.5C 417.5,288.5 427.5,288.5 437.5,288.5C 438.487,283.695 438.821,278.695 438.5,273.5C 443.695,273.821 448.695,273.487 453.5,272.5C 453.5,267.5 453.5,262.5 453.5,257.5 Z"/></g>
<g><path style="opacity:1" fill="#a5a5bc" d="M 484.5,241.5 C 489.833,241.5 495.167,241.5 500.5,241.5C 500.833,241.5 501.167,241.5 501.5,241.5C 501.5,257.167 501.5,272.833 501.5,288.5C 501.167,288.5 500.833,288.5 500.5,288.5C 500.167,288.5 499.833,288.5 499.5,288.5C 499.5,283.167 499.5,277.833 499.5,272.5C 499.5,262.5 499.5,252.5 499.5,242.5C 494.305,242.821 489.305,242.487 484.5,241.5 Z"/></g>
<g><path style="opacity:1" fill="#3d5f7a" d="M 83.5,272.5 C 88.5,272.5 93.5,272.5 98.5,272.5C 104.026,272.179 109.36,272.512 114.5,273.5C 114.5,278.5 114.5,283.5 114.5,288.5C 114.167,288.5 113.833,288.5 113.5,288.5C 113.5,283.5 113.5,278.5 113.5,273.5C 103.319,273.827 93.3194,273.494 83.5,272.5 Z"/></g>
<g><path style="opacity:1" fill="#5694b9" d="M 237.5,273.5 C 217.167,273.5 196.833,273.5 176.5,273.5C 176.5,278.5 176.5,283.5 176.5,288.5C 176.167,288.5 175.833,288.5 175.5,288.5C 175.5,283.167 175.5,277.833 175.5,272.5C 196.34,272.169 217.007,272.503 237.5,273.5 Z"/></g>
<g><path style="opacity:1" fill="#47546b" d="M 407.5,273.5 C 407.5,273.167 407.5,272.833 407.5,272.5C 417.833,272.5 428.167,272.5 438.5,272.5C 443.5,272.5 448.5,272.5 453.5,272.5C 448.695,273.487 443.695,273.821 438.5,273.5C 438.821,278.695 438.487,283.695 437.5,288.5C 437.5,283.5 437.5,278.5 437.5,273.5C 427.5,273.5 417.5,273.5 407.5,273.5 Z"/></g>
<g><path style="opacity:1" fill="#5da8e1" d="M 114.5,273.5 C 119.5,273.5 124.5,273.5 129.5,273.5C 129.5,278.5 129.5,283.5 129.5,288.5C 124.5,288.5 119.5,288.5 114.5,288.5C 114.5,283.5 114.5,278.5 114.5,273.5 Z"/></g>
<g><path style="opacity:1" fill="#38647d" d="M 237.5,273.5 C 237.5,278.5 237.5,283.5 237.5,288.5C 217.167,288.5 196.833,288.5 176.5,288.5C 176.5,283.5 176.5,278.5 176.5,273.5C 196.833,273.5 217.167,273.5 237.5,273.5 Z"/></g>
<g><path style="opacity:1" fill="#568ec7" d="M 237.5,273.5 C 242.5,273.5 247.5,273.5 252.5,273.5C 252.5,278.5 252.5,283.5 252.5,288.5C 247.5,288.5 242.5,288.5 237.5,288.5C 237.5,283.5 237.5,278.5 237.5,273.5 Z"/></g>
<g><path style="opacity:1" fill="#5ea8e1" d="M 407.5,257.5 C 407.5,262.5 407.5,267.5 407.5,272.5C 407.5,272.833 407.5,273.167 407.5,273.5C 392.167,273.5 376.833,273.5 361.5,273.5C 361.5,278.5 361.5,283.5 361.5,288.5C 356.167,288.5 350.833,288.5 345.5,288.5C 345.5,283.167 345.5,277.833 345.5,272.5C 361.167,272.5 376.833,272.5 392.5,272.5C 392.5,267.5 392.5,262.5 392.5,257.5C 397.5,257.5 402.5,257.5 407.5,257.5 Z"/></g>
<g><path style="opacity:1" fill="#568ec7" d="M 407.5,273.5 C 407.5,278.5 407.5,283.5 407.5,288.5C 397.167,288.5 386.833,288.5 376.5,288.5C 376.5,293.5 376.5,298.5 376.5,303.5C 361.167,303.5 345.833,303.5 330.5,303.5C 330.5,308.833 330.5,314.167 330.5,319.5C 325.167,319.5 319.833,319.5 314.5,319.5C 273.5,319.5 232.5,319.5 191.5,319.5C 191.5,314.167 191.5,308.833 191.5,303.5C 176.167,303.5 160.833,303.5 145.5,303.5C 145.5,298.5 145.5,293.5 145.5,288.5C 155.5,288.5 165.5,288.5 175.5,288.5C 175.833,288.5 176.167,288.5 176.5,288.5C 196.833,288.5 217.167,288.5 237.5,288.5C 237.5,293.5 237.5,298.5 237.5,303.5C 247.833,303.5 258.167,303.5 268.5,303.5C 268.5,298.5 268.5,293.5 268.5,288.5C 294.167,288.5 319.833,288.5 345.5,288.5C 350.833,288.5 356.167,288.5 361.5,288.5C 361.5,283.5 361.5,278.5 361.5,273.5C 376.833,273.5 392.167,273.5 407.5,273.5 Z"/></g>
<g><path style="opacity:1" fill="#111211" d="M 407.5,273.5 C 417.5,273.5 427.5,273.5 437.5,273.5C 437.5,278.5 437.5,283.5 437.5,288.5C 427.5,288.5 417.5,288.5 407.5,288.5C 407.5,283.5 407.5,278.5 407.5,273.5 Z"/></g>
<g><path style="opacity:1" fill="#111211" d="M 113.5,288.5 C 113.833,288.5 114.167,288.5 114.5,288.5C 119.5,288.5 124.5,288.5 129.5,288.5C 134.5,288.5 139.5,288.5 144.5,288.5C 144.5,293.5 144.5,298.5 144.5,303.5C 134.167,303.5 123.833,303.5 113.5,303.5C 113.5,298.5 113.5,293.5 113.5,288.5 Z"/></g>
<g><path style="opacity:1" fill="#38647d" d="M 237.5,288.5 C 242.5,288.5 247.5,288.5 252.5,288.5C 257.833,288.5 263.167,288.5 268.5,288.5C 268.5,293.5 268.5,298.5 268.5,303.5C 258.167,303.5 247.833,303.5 237.5,303.5C 237.5,298.5 237.5,293.5 237.5,288.5 Z"/></g>
<g><path style="opacity:1" fill="#121213" d="M 407.5,288.5 C 407.5,293.5 407.5,298.5 407.5,303.5C 397.167,303.5 386.833,303.5 376.5,303.5C 376.5,298.5 376.5,293.5 376.5,288.5C 386.833,288.5 397.167,288.5 407.5,288.5 Z"/></g>
<g><path style="opacity:1" fill="#7a7c8e" d="M 144.5,288.5 C 144.833,288.5 145.167,288.5 145.5,288.5C 145.5,293.5 145.5,298.5 145.5,303.5C 145.5,308.833 145.5,314.167 145.5,319.5C 144.513,314.695 144.179,309.695 144.5,304.5C 139.5,304.5 134.5,304.5 129.5,304.5C 129.5,314.5 129.5,324.5 129.5,334.5C 129.5,334.833 129.5,335.167 129.5,335.5C 124.167,335.5 118.833,335.5 113.5,335.5C 113.5,324.833 113.5,314.167 113.5,303.5C 123.833,303.5 134.167,303.5 144.5,303.5C 144.5,298.5 144.5,293.5 144.5,288.5 Z"/></g>
<g><path style="opacity:1" fill="#c6c6df" d="M 145.5,319.5 C 150.5,319.5 155.5,319.5 160.5,319.5C 170.5,319.5 180.5,319.5 190.5,319.5C 190.833,319.5 191.167,319.5 191.5,319.5C 191.5,324.5 191.5,329.5 191.5,334.5C 232.5,334.5 273.5,334.5 314.5,334.5C 319.833,334.5 325.167,334.5 330.5,334.5C 330.5,329.5 330.5,324.5 330.5,319.5C 340.833,319.5 351.167,319.5 361.5,319.5C 361.5,324.5 361.5,329.5 361.5,334.5C 356.167,334.5 350.833,334.5 345.5,334.5C 345.5,339.833 345.5,345.167 345.5,350.5C 340.5,350.5 335.5,350.5 330.5,350.5C 330.5,355.5 330.5,360.5 330.5,365.5C 320.167,365.5 309.833,365.5 299.5,365.5C 299.5,380.833 299.5,396.167 299.5,411.5C 299.5,411.833 299.5,412.167 299.5,412.5C 294.5,412.5 289.5,412.5 284.5,412.5C 284.5,417.5 284.5,422.5 284.5,427.5C 284.167,427.5 283.833,427.5 283.5,427.5C 278.5,427.5 273.5,427.5 268.5,427.5C 268.5,422.5 268.5,417.5 268.5,412.5C 273.5,412.5 278.5,412.5 283.5,412.5C 283.5,402.167 283.5,391.833 283.5,381.5C 278.5,381.5 273.5,381.5 268.5,381.5C 268.5,376.167 268.5,370.833 268.5,365.5C 258.167,365.5 247.833,365.5 237.5,365.5C 237.5,370.833 237.5,376.167 237.5,381.5C 232.5,381.5 227.5,381.5 222.5,381.5C 222.5,391.5 222.5,401.5 222.5,411.5C 222.167,411.5 221.833,411.5 221.5,411.5C 221.5,396.167 221.5,380.833 221.5,365.5C 211.5,365.5 201.5,365.5 191.5,365.5C 191.5,360.5 191.5,355.5 191.5,350.5C 186.167,350.5 180.833,350.5 175.5,350.5C 175.5,345.167 175.5,339.833 175.5,334.5C 170.5,334.5 165.5,334.5 160.5,334.5C 160.5,339.5 160.5,344.5 160.5,349.5C 155.5,349.5 150.5,349.5 145.5,349.5C 145.5,344.5 145.5,339.5 145.5,334.5C 140.167,334.5 134.833,334.5 129.5,334.5C 129.5,324.5 129.5,314.5 129.5,304.5C 134.5,304.5 139.5,304.5 144.5,304.5C 144.179,309.695 144.513,314.695 145.5,319.5 Z"/></g>
<g><path style="opacity:1" fill="#376078" d="M 145.5,303.5 C 160.833,303.5 176.167,303.5 191.5,303.5C 191.5,308.833 191.5,314.167 191.5,319.5C 191.167,319.5 190.833,319.5 190.5,319.5C 190.5,314.5 190.5,309.5 190.5,304.5C 180.5,304.5 170.5,304.5 160.5,304.5C 160.5,309.5 160.5,314.5 160.5,319.5C 155.5,319.5 150.5,319.5 145.5,319.5C 145.5,314.167 145.5,308.833 145.5,303.5 Z"/></g>
<g><path style="opacity:1" fill="#131313" d="M 190.5,319.5 C 180.5,319.5 170.5,319.5 160.5,319.5C 160.5,314.5 160.5,309.5 160.5,304.5C 170.5,304.5 180.5,304.5 190.5,304.5C 190.5,309.5 190.5,314.5 190.5,319.5 Z"/></g>
<g><path style="opacity:1" fill="#151617" d="M 376.5,303.5 C 376.5,308.833 376.5,314.167 376.5,319.5C 371.5,319.5 366.5,319.5 361.5,319.5C 351.167,319.5 340.833,319.5 330.5,319.5C 330.5,314.167 330.5,308.833 330.5,303.5C 345.833,303.5 361.167,303.5 376.5,303.5 Z"/></g>
<g><path style="opacity:1" fill="#7d7d8f" d="M 499.5,288.5 C 499.833,288.5 500.167,288.5 500.5,288.5C 500.5,293.833 500.5,299.167 500.5,304.5C 495.5,304.5 490.5,304.5 485.5,304.5C 485.5,309.5 485.5,314.5 485.5,319.5C 480.167,319.5 474.833,319.5 469.5,319.5C 469.5,314.5 469.5,309.5 469.5,304.5C 474.5,304.5 479.5,304.5 484.5,304.5C 484.5,299.167 484.5,293.833 484.5,288.5C 489.5,288.5 494.5,288.5 499.5,288.5 Z"/></g>
<g><path style="opacity:1" fill="#111211" d="M 191.5,319.5 C 232.5,319.5 273.5,319.5 314.5,319.5C 314.5,324.5 314.5,329.5 314.5,334.5C 273.5,334.5 232.5,334.5 191.5,334.5C 191.5,329.5 191.5,324.5 191.5,319.5 Z"/></g>
<g><path style="opacity:1" fill="#7c7c8e" d="M 314.5,319.5 C 319.833,319.5 325.167,319.5 330.5,319.5C 330.5,324.5 330.5,329.5 330.5,334.5C 325.167,334.5 319.833,334.5 314.5,334.5C 314.5,329.5 314.5,324.5 314.5,319.5 Z"/></g>
<g><path style="opacity:1" fill="#9596c0" d="M 361.5,319.5 C 366.5,319.5 371.5,319.5 376.5,319.5C 376.5,324.5 376.5,329.5 376.5,334.5C 371.5,334.5 366.5,334.5 361.5,334.5C 361.5,329.5 361.5,324.5 361.5,319.5 Z"/></g>
<g><path style="opacity:1" fill="#7d7d8f" d="M 469.5,319.5 C 469.5,324.833 469.5,330.167 469.5,335.5C 464.5,335.5 459.5,335.5 454.5,335.5C 454.5,340.5 454.5,345.5 454.5,350.5C 449.167,350.5 443.833,350.5 438.5,350.5C 438.5,340.167 438.5,329.833 438.5,319.5C 448.833,319.5 459.167,319.5 469.5,319.5 Z"/></g>
<g><path style="opacity:1" fill="#7c7d8e" d="M 129.5,335.5 C 134.5,335.5 139.5,335.5 144.5,335.5C 144.5,340.5 144.5,345.5 144.5,350.5C 144.5,345.5 144.5,340.5 144.5,335.5C 139.5,335.5 134.5,335.5 129.5,335.5 Z"/></g>
<g><path style="opacity:1" fill="#9798c0" d="M 129.5,335.5 C 129.5,335.167 129.5,334.833 129.5,334.5C 134.833,334.5 140.167,334.5 145.5,334.5C 145.5,339.5 145.5,344.5 145.5,349.5C 150.5,349.5 155.5,349.5 160.5,349.5C 160.5,344.5 160.5,339.5 160.5,334.5C 165.5,334.5 170.5,334.5 175.5,334.5C 175.5,339.833 175.5,345.167 175.5,350.5C 170.5,350.5 165.5,350.5 160.5,350.5C 155.167,350.5 149.833,350.5 144.5,350.5C 144.5,345.5 144.5,340.5 144.5,335.5C 139.5,335.5 134.5,335.5 129.5,335.5 Z"/></g>
<g><path style="opacity:1" fill="#7b7e91" d="M 361.5,334.5 C 366.5,334.5 371.5,334.5 376.5,334.5C 376.5,334.833 376.5,335.167 376.5,335.5C 371.5,335.5 366.5,335.5 361.5,335.5C 361.5,340.5 361.5,345.5 361.5,350.5C 356.167,350.5 350.833,350.5 345.5,350.5C 345.5,345.167 345.5,339.833 345.5,334.5C 350.833,334.5 356.167,334.5 361.5,334.5 Z"/></g>
<g><path style="opacity:1" fill="#38647e" d="M 376.5,335.5 C 376.5,340.5 376.5,345.5 376.5,350.5C 371.5,350.5 366.5,350.5 361.5,350.5C 361.5,345.5 361.5,340.5 361.5,335.5C 366.5,335.5 371.5,335.5 376.5,335.5 Z"/></g>
<g><path style="opacity:1" fill="#37647d" d="M 144.5,350.5 C 149.833,350.5 155.167,350.5 160.5,350.5C 160.5,355.5 160.5,360.5 160.5,365.5C 155.167,365.5 149.833,365.5 144.5,365.5C 144.5,360.5 144.5,355.5 144.5,350.5 Z"/></g>
<g><path style="opacity:1" fill="#578fc8" d="M 160.5,350.5 C 165.5,350.5 170.5,350.5 175.5,350.5C 175.5,355.5 175.5,360.5 175.5,365.5C 175.5,370.5 175.5,375.5 175.5,380.5C 170.5,380.5 165.5,380.5 160.5,380.5C 160.5,375.5 160.5,370.5 160.5,365.5C 160.5,360.5 160.5,355.5 160.5,350.5 Z"/></g>
<g><path style="opacity:1" fill="#7d7e91" d="M 175.5,350.5 C 180.833,350.5 186.167,350.5 191.5,350.5C 191.5,355.5 191.5,360.5 191.5,365.5C 186.5,365.5 181.5,365.5 176.5,365.5C 176.167,365.5 175.833,365.5 175.5,365.5C 175.5,360.5 175.5,355.5 175.5,350.5 Z"/></g>
<g><path style="opacity:1" fill="#9596c0" d="M 237.5,365.5 C 232.5,365.5 227.5,365.5 222.5,365.5C 222.5,360.5 222.5,355.5 222.5,350.5C 227.5,350.5 232.5,350.5 237.5,350.5C 237.5,355.5 237.5,360.5 237.5,365.5 Z"/></g>
<g><path style="opacity:1" fill="#7c7d8e" d="M 345.5,350.5 C 345.5,355.5 345.5,360.5 345.5,365.5C 340.5,365.5 335.5,365.5 330.5,365.5C 330.5,360.5 330.5,355.5 330.5,350.5C 335.5,350.5 340.5,350.5 345.5,350.5 Z"/></g>
<g><path style="opacity:1" fill="#578ec7" d="M 345.5,350.5 C 350.833,350.5 356.167,350.5 361.5,350.5C 366.5,350.5 371.5,350.5 376.5,350.5C 376.5,355.5 376.5,360.5 376.5,365.5C 376.5,370.5 376.5,375.5 376.5,380.5C 371.5,380.5 366.5,380.5 361.5,380.5C 361.821,375.305 361.487,370.305 360.5,365.5C 355.5,365.5 350.5,365.5 345.5,365.5C 345.5,360.5 345.5,355.5 345.5,350.5 Z"/></g>
<g><path style="opacity:1" fill="#38647d" d="M 376.5,350.5 C 381.5,350.5 386.5,350.5 391.5,350.5C 391.5,355.5 391.5,360.5 391.5,365.5C 386.5,365.5 381.5,365.5 376.5,365.5C 376.5,360.5 376.5,355.5 376.5,350.5 Z"/></g>
<g><path style="opacity:1" fill="#7e7e90" d="M 438.5,350.5 C 438.5,355.5 438.5,360.5 438.5,365.5C 433.167,365.5 427.833,365.5 422.5,365.5C 422.5,360.5 422.5,355.5 422.5,350.5C 427.833,350.5 433.167,350.5 438.5,350.5 Z"/></g>
<g><path style="opacity:1" fill="#38647d" d="M 144.5,365.5 C 144.5,370.5 144.5,375.5 144.5,380.5C 139.5,380.5 134.5,380.5 129.5,380.5C 129.5,375.5 129.5,370.5 129.5,365.5C 134.5,365.5 139.5,365.5 144.5,365.5 Z"/></g>
<g><path style="opacity:1" fill="#74c5f7" d="M 144.5,365.5 C 149.833,365.5 155.167,365.5 160.5,365.5C 160.5,370.5 160.5,375.5 160.5,380.5C 160.5,380.833 160.5,381.167 160.5,381.5C 160.5,386.5 160.5,391.5 160.5,396.5C 155.5,396.5 150.5,396.5 145.5,396.5C 144.512,401.64 144.179,406.974 144.5,412.5C 139.5,412.5 134.5,412.5 129.5,412.5C 129.5,412.167 129.5,411.833 129.5,411.5C 129.5,401.167 129.5,390.833 129.5,380.5C 134.5,380.5 139.5,380.5 144.5,380.5C 144.5,375.5 144.5,370.5 144.5,365.5 Z"/></g>
<g><path style="opacity:1" fill="#151515" d="M 176.5,365.5 C 181.5,365.5 186.5,365.5 191.5,365.5C 191.5,370.5 191.5,375.5 191.5,380.5C 186.5,380.5 181.5,380.5 176.5,380.5C 176.5,375.5 176.5,370.5 176.5,365.5 Z"/></g>
<g><path style="opacity:1" fill="#7c7d8f" d="M 191.5,365.5 C 201.5,365.5 211.5,365.5 221.5,365.5C 221.5,380.833 221.5,396.167 221.5,411.5C 216.5,411.5 211.5,411.5 206.5,411.5C 206.5,406.5 206.5,401.5 206.5,396.5C 206.5,391.5 206.5,386.5 206.5,381.5C 201.5,381.5 196.5,381.5 191.5,381.5C 191.5,381.167 191.5,380.833 191.5,380.5C 191.5,375.5 191.5,370.5 191.5,365.5 Z"/></g>
<g><path style="opacity:1" fill="#f9f9f9" d="M 237.5,365.5 C 247.833,365.5 258.167,365.5 268.5,365.5C 268.5,370.833 268.5,376.167 268.5,381.5C 273.5,381.5 278.5,381.5 283.5,381.5C 283.5,391.833 283.5,402.167 283.5,412.5C 278.5,412.5 273.5,412.5 268.5,412.5C 268.5,417.5 268.5,422.5 268.5,427.5C 258.167,427.5 247.833,427.5 237.5,427.5C 237.5,422.5 237.5,417.5 237.5,412.5C 232.5,412.5 227.5,412.5 222.5,412.5C 222.5,412.167 222.5,411.833 222.5,411.5C 222.5,401.5 222.5,391.5 222.5,381.5C 227.5,381.5 232.5,381.5 237.5,381.5C 237.5,376.167 237.5,370.833 237.5,365.5 Z"/></g>
<g><path style="opacity:1" fill="#7d7d8f" d="M 330.5,365.5 C 330.5,370.5 330.5,375.5 330.5,380.5C 325.167,380.5 319.833,380.5 314.5,380.5C 314.5,390.833 314.5,401.167 314.5,411.5C 309.5,411.5 304.5,411.5 299.5,411.5C 299.5,396.167 299.5,380.833 299.5,365.5C 309.833,365.5 320.167,365.5 330.5,365.5 Z"/></g>
<g><path style="opacity:1" fill="#578ec7" d="M 330.5,365.5 C 335.5,365.5 340.5,365.5 345.5,365.5C 345.5,370.5 345.5,375.5 345.5,380.5C 350.305,381.487 355.305,381.821 360.5,381.5C 360.5,391.5 360.5,401.5 360.5,411.5C 355.5,411.5 350.5,411.5 345.5,411.5C 345.5,416.833 345.5,422.167 345.5,427.5C 350.833,427.5 356.167,427.5 361.5,427.5C 361.5,422.5 361.5,417.5 361.5,412.5C 366.5,412.5 371.5,412.5 376.5,412.5C 376.5,422.833 376.5,433.167 376.5,443.5C 371.5,443.5 366.5,443.5 361.5,443.5C 361.5,448.5 361.5,453.5 361.5,458.5C 361.167,458.5 360.833,458.5 360.5,458.5C 350.5,458.5 340.5,458.5 330.5,458.5C 330.5,463.5 330.5,468.5 330.5,473.5C 309.833,473.5 289.167,473.5 268.5,473.5C 268.5,468.5 268.5,463.5 268.5,458.5C 258.167,458.5 247.833,458.5 237.5,458.5C 237.5,453.167 237.5,447.833 237.5,442.5C 252.833,442.5 268.167,442.5 283.5,442.5C 283.5,437.5 283.5,432.5 283.5,427.5C 283.833,427.5 284.167,427.5 284.5,427.5C 289.5,427.5 294.5,427.5 299.5,427.5C 299.5,422.5 299.5,417.5 299.5,412.5C 299.5,412.167 299.5,411.833 299.5,411.5C 304.5,411.5 309.5,411.5 314.5,411.5C 314.5,401.167 314.5,390.833 314.5,380.5C 319.833,380.5 325.167,380.5 330.5,380.5C 330.5,375.5 330.5,370.5 330.5,365.5 Z"/></g>
<g><path style="opacity:1" fill="#131415" d="M 345.5,365.5 C 350.5,365.5 355.5,365.5 360.5,365.5C 360.5,370.5 360.5,375.5 360.5,380.5C 355.5,380.5 350.5,380.5 345.5,380.5C 345.5,375.5 345.5,370.5 345.5,365.5 Z"/></g>
<g><path style="opacity:1" fill="#75c7f9" d="M 376.5,365.5 C 381.5,365.5 386.5,365.5 391.5,365.5C 391.5,375.833 391.5,386.167 391.5,396.5C 386.5,396.5 381.5,396.5 376.5,396.5C 376.5,391.5 376.5,386.5 376.5,381.5C 376.5,381.167 376.5,380.833 376.5,380.5C 376.5,375.5 376.5,370.5 376.5,365.5 Z"/></g>
<g><path style="opacity:1" fill="#37637c" d="M 392.5,365.5 C 397.5,365.5 402.5,365.5 407.5,365.5C 407.5,370.5 407.5,375.5 407.5,380.5C 417.833,380.5 428.167,380.5 438.5,380.5C 438.5,375.5 438.5,370.5 438.5,365.5C 443.833,365.5 449.167,365.5 454.5,365.5C 454.5,370.5 454.5,375.5 454.5,380.5C 453.833,380.5 453.5,380.833 453.5,381.5C 438.167,381.5 422.833,381.5 407.5,381.5C 407.5,386.5 407.5,391.5 407.5,396.5C 402.5,396.5 397.5,396.5 392.5,396.5C 392.5,386.167 392.5,375.833 392.5,365.5 Z"/></g>
<g><path style="opacity:1" fill="#131314" d="M 407.5,365.5 C 412.5,365.5 417.5,365.5 422.5,365.5C 427.833,365.5 433.167,365.5 438.5,365.5C 438.5,370.5 438.5,375.5 438.5,380.5C 428.167,380.5 417.833,380.5 407.5,380.5C 407.5,375.5 407.5,370.5 407.5,365.5 Z"/></g>
<g><path style="opacity:1" fill="#365671" d="M 175.5,365.5 C 175.833,365.5 176.167,365.5 176.5,365.5C 176.5,370.5 176.5,375.5 176.5,380.5C 181.5,380.5 186.5,380.5 191.5,380.5C 191.5,380.833 191.5,381.167 191.5,381.5C 186.5,381.5 181.5,381.5 176.5,381.5C 176.821,386.695 176.487,391.695 175.5,396.5C 175.5,391.5 175.5,386.5 175.5,381.5C 170.5,381.5 165.5,381.5 160.5,381.5C 160.5,381.167 160.5,380.833 160.5,380.5C 165.5,380.5 170.5,380.5 175.5,380.5C 175.5,375.5 175.5,370.5 175.5,365.5 Z"/></g>
<g><path style="opacity:1" fill="#111211" d="M 454.5,380.5 C 459.5,380.5 464.5,380.5 469.5,380.5C 469.5,391.167 469.5,401.833 469.5,412.5C 464.5,412.5 459.5,412.5 454.5,412.5C 454.5,401.833 454.5,391.167 454.5,380.5 Z"/></g>
<g><path style="opacity:1" fill="#37647d" d="M 129.5,380.5 C 129.5,390.833 129.5,401.167 129.5,411.5C 124.167,411.5 118.833,411.5 113.5,411.5C 113.5,401.167 113.5,390.833 113.5,380.5C 118.833,380.5 124.167,380.5 129.5,380.5 Z"/></g>
<g><path style="opacity:1" fill="#111211" d="M 160.5,381.5 C 165.5,381.5 170.5,381.5 175.5,381.5C 175.5,386.5 175.5,391.5 175.5,396.5C 170.5,396.5 165.5,396.5 160.5,396.5C 160.5,391.5 160.5,386.5 160.5,381.5 Z"/></g>
<g><path style="opacity:1" fill="#568ec7" d="M 191.5,381.5 C 196.5,381.5 201.5,381.5 206.5,381.5C 206.5,386.5 206.5,391.5 206.5,396.5C 206.5,401.5 206.5,406.5 206.5,411.5C 211.5,411.5 216.5,411.5 221.5,411.5C 221.833,411.5 222.167,411.5 222.5,411.5C 222.5,411.833 222.5,412.167 222.5,412.5C 227.5,412.5 232.5,412.5 237.5,412.5C 237.5,417.5 237.5,422.5 237.5,427.5C 237.5,432.5 237.5,437.5 237.5,442.5C 227.5,442.5 217.5,442.5 207.5,442.5C 207.5,437.5 207.5,432.5 207.5,427.5C 202.167,427.5 196.833,427.5 191.5,427.5C 191.5,432.833 191.5,438.167 191.5,443.5C 196.5,443.5 201.5,443.5 206.5,443.5C 206.5,448.5 206.5,453.5 206.5,458.5C 216.833,458.5 227.167,458.5 237.5,458.5C 237.5,463.5 237.5,468.5 237.5,473.5C 232.5,473.5 227.5,473.5 222.5,473.5C 221.513,478.305 221.179,483.305 221.5,488.5C 201.167,488.5 180.833,488.5 160.5,488.5C 160.5,483.5 160.5,478.5 160.5,473.5C 170.833,473.5 181.167,473.5 191.5,473.5C 191.5,468.5 191.5,463.5 191.5,458.5C 186.5,458.5 181.5,458.5 176.5,458.5C 176.5,453.167 176.5,447.833 176.5,442.5C 171.167,442.5 165.833,442.5 160.5,442.5C 160.5,427.167 160.5,411.833 160.5,396.5C 165.5,396.5 170.5,396.5 175.5,396.5C 176.487,391.695 176.821,386.695 176.5,381.5C 181.5,381.5 186.5,381.5 191.5,381.5 Z"/></g>
<g><path style="opacity:1" fill="#38647d" d="M 191.5,381.5 C 196.5,381.5 201.5,381.5 206.5,381.5C 206.5,386.5 206.5,391.5 206.5,396.5C 201.5,396.5 196.5,396.5 191.5,396.5C 191.5,391.5 191.5,386.5 191.5,381.5 Z"/></g>
<g><path style="opacity:1" fill="#111211" d="M 376.5,381.5 C 376.5,386.5 376.5,391.5 376.5,396.5C 376.5,401.5 376.5,406.5 376.5,411.5C 371.5,411.5 366.5,411.5 361.5,411.5C 361.5,401.5 361.5,391.5 361.5,381.5C 366.5,381.5 371.5,381.5 376.5,381.5 Z"/></g>
<g><path style="opacity:1" fill="#568ec6" d="M 453.5,381.5 C 453.5,391.5 453.5,401.5 453.5,411.5C 448.305,411.179 443.305,411.513 438.5,412.5C 438.5,422.5 438.5,432.5 438.5,442.5C 433.167,442.5 427.833,442.5 422.5,442.5C 422.5,427.167 422.5,411.833 422.5,396.5C 417.5,396.5 412.5,396.5 407.5,396.5C 407.5,391.5 407.5,386.5 407.5,381.5C 422.833,381.5 438.167,381.5 453.5,381.5 Z"/></g>
<g><path style="opacity:1" fill="#29394e" d="M 454.5,380.5 C 454.5,391.167 454.5,401.833 454.5,412.5C 449.167,412.5 443.833,412.5 438.5,412.5C 443.305,411.513 448.305,411.179 453.5,411.5C 453.5,401.5 453.5,391.5 453.5,381.5C 453.5,380.833 453.833,380.5 454.5,380.5 Z"/></g>
<g><path style="opacity:1" fill="#121212" d="M 145.5,396.5 C 150.5,396.5 155.5,396.5 160.5,396.5C 160.5,411.833 160.5,427.167 160.5,442.5C 165.305,443.487 170.305,443.821 175.5,443.5C 175.5,448.5 175.5,453.5 175.5,458.5C 170.073,458.782 164.74,458.449 159.5,457.5C 159.5,452.833 159.5,448.167 159.5,443.5C 154.833,443.5 150.167,443.5 145.5,443.5C 145.5,448.167 145.5,452.833 145.5,457.5C 144.551,462.74 144.218,468.073 144.5,473.5C 139.5,473.5 134.5,473.5 129.5,473.5C 129.5,463.167 129.5,452.833 129.5,442.5C 129.5,437.5 129.5,432.5 129.5,427.5C 134.833,427.5 140.167,427.5 145.5,427.5C 145.5,417.167 145.5,406.833 145.5,396.5 Z M 159.5,457.5 C 154.833,457.5 150.167,457.5 145.5,457.5C 145.5,452.833 145.5,448.167 145.5,443.5C 150.167,443.5 154.833,443.5 159.5,443.5C 159.5,448.167 159.5,452.833 159.5,457.5 Z"/></g>
<g><path style="opacity:1" fill="#5892c9" d="M 391.5,365.5 C 391.833,365.5 392.167,365.5 392.5,365.5C 392.5,375.833 392.5,386.167 392.5,396.5C 392.5,401.833 392.5,407.167 392.5,412.5C 392.167,412.5 391.833,412.5 391.5,412.5C 386.695,411.513 381.695,411.179 376.5,411.5C 376.5,406.5 376.5,401.5 376.5,396.5C 381.5,396.5 386.5,396.5 391.5,396.5C 391.5,386.167 391.5,375.833 391.5,365.5 Z"/></g>
<g><path style="opacity:1" fill="#76c7f9" d="M 392.5,396.5 C 397.5,396.5 402.5,396.5 407.5,396.5C 407.5,417.167 407.5,437.833 407.5,458.5C 402.5,458.5 397.5,458.5 392.5,458.5C 392.5,443.167 392.5,427.833 392.5,412.5C 392.5,407.167 392.5,401.833 392.5,396.5 Z"/></g>
<g><path style="opacity:1" fill="#37637c" d="M 407.5,396.5 C 412.5,396.5 417.5,396.5 422.5,396.5C 422.5,411.833 422.5,427.167 422.5,442.5C 422.5,447.833 422.5,453.167 422.5,458.5C 417.5,458.5 412.5,458.5 407.5,458.5C 407.5,437.833 407.5,417.167 407.5,396.5 Z"/></g>
<g><path style="opacity:1" fill="#37647c" d="M 113.5,411.5 C 113.5,421.833 113.5,432.167 113.5,442.5C 108.5,442.5 103.5,442.5 98.5,442.5C 98.5,432.167 98.5,421.833 98.5,411.5C 103.5,411.5 108.5,411.5 113.5,411.5 Z"/></g>
<g><path style="opacity:1" fill="#528cb1" d="M 113.5,411.5 C 118.833,411.5 124.167,411.5 129.5,411.5C 129.5,411.833 129.5,412.167 129.5,412.5C 124.5,412.5 119.5,412.5 114.5,412.5C 114.5,422.5 114.5,432.5 114.5,442.5C 114.167,442.5 113.833,442.5 113.5,442.5C 113.5,432.167 113.5,421.833 113.5,411.5 Z"/></g>
<g><path style="opacity:1" fill="#76c8fa" d="M 129.5,412.5 C 129.5,417.5 129.5,422.5 129.5,427.5C 129.5,432.5 129.5,437.5 129.5,442.5C 124.5,442.5 119.5,442.5 114.5,442.5C 114.5,432.5 114.5,422.5 114.5,412.5C 119.5,412.5 124.5,412.5 129.5,412.5 Z"/></g>
<g><path style="opacity:1" fill="#5489be" d="M 145.5,396.5 C 145.5,406.833 145.5,417.167 145.5,427.5C 140.167,427.5 134.833,427.5 129.5,427.5C 129.5,422.5 129.5,417.5 129.5,412.5C 134.5,412.5 139.5,412.5 144.5,412.5C 144.179,406.974 144.512,401.64 145.5,396.5 Z"/></g>
<g><path style="opacity:1" fill="#7d7d8f" d="M 222.5,412.5 C 227.5,412.5 232.5,412.5 237.5,412.5C 237.5,417.5 237.5,422.5 237.5,427.5C 232.5,427.5 227.5,427.5 222.5,427.5C 222.5,422.5 222.5,417.5 222.5,412.5 Z"/></g>
<g><path style="opacity:1" fill="#7c7d8f" d="M 299.5,412.5 C 299.5,417.5 299.5,422.5 299.5,427.5C 294.5,427.5 289.5,427.5 284.5,427.5C 284.5,422.5 284.5,417.5 284.5,412.5C 289.5,412.5 294.5,412.5 299.5,412.5 Z"/></g>
<g><path style="opacity:1" fill="#38627d" d="M 360.5,365.5 C 361.487,370.305 361.821,375.305 361.5,380.5C 366.5,380.5 371.5,380.5 376.5,380.5C 376.5,380.833 376.5,381.167 376.5,381.5C 371.5,381.5 366.5,381.5 361.5,381.5C 361.5,391.5 361.5,401.5 361.5,411.5C 366.5,411.5 371.5,411.5 376.5,411.5C 381.695,411.179 386.695,411.513 391.5,412.5C 386.5,412.5 381.5,412.5 376.5,412.5C 371.5,412.5 366.5,412.5 361.5,412.5C 361.5,417.5 361.5,422.5 361.5,427.5C 356.167,427.5 350.833,427.5 345.5,427.5C 345.5,422.167 345.5,416.833 345.5,411.5C 350.5,411.5 355.5,411.5 360.5,411.5C 360.5,401.5 360.5,391.5 360.5,381.5C 355.305,381.821 350.305,381.487 345.5,380.5C 350.5,380.5 355.5,380.5 360.5,380.5C 360.5,375.5 360.5,370.5 360.5,365.5 Z"/></g>
<g><path style="opacity:1" fill="#111211" d="M 376.5,412.5 C 381.5,412.5 386.5,412.5 391.5,412.5C 391.5,427.5 391.5,442.5 391.5,457.5C 386.5,457.5 381.5,457.5 376.5,457.5C 376.5,452.833 376.5,448.167 376.5,443.5C 376.5,433.167 376.5,422.833 376.5,412.5 Z"/></g>
<g><path style="opacity:1" fill="#111211" d="M 438.5,412.5 C 443.833,412.5 449.167,412.5 454.5,412.5C 454.5,422.833 454.5,433.167 454.5,443.5C 449.167,443.5 443.833,443.5 438.5,443.5C 438.5,443.167 438.5,442.833 438.5,442.5C 438.5,432.5 438.5,422.5 438.5,412.5 Z"/></g>
<g><path style="opacity:1" fill="#7d7d8f" d="M 237.5,427.5 C 247.833,427.5 258.167,427.5 268.5,427.5C 273.5,427.5 278.5,427.5 283.5,427.5C 283.5,432.5 283.5,437.5 283.5,442.5C 268.167,442.5 252.833,442.5 237.5,442.5C 237.5,437.5 237.5,432.5 237.5,427.5 Z"/></g>
<g><path style="opacity:1" fill="#c5c6de" d="M 98.5,442.5 C 103.5,442.5 108.5,442.5 113.5,442.5C 113.833,442.5 114.167,442.5 114.5,442.5C 114.666,447.511 114.499,452.511 114,457.5C 108.928,458.471 103.762,458.805 98.5,458.5C 98.5,453.167 98.5,447.833 98.5,442.5 Z"/></g>
<g><path style="opacity:1" fill="#f9f9f9" d="M 114.5,442.5 C 119.5,442.5 124.5,442.5 129.5,442.5C 129.5,452.833 129.5,463.167 129.5,473.5C 129.5,478.5 129.5,483.5 129.5,488.5C 118.986,488.172 108.653,488.506 98.5,489.5C 98.5,494.5 98.5,499.5 98.5,504.5C 93.5,504.5 88.5,504.5 83.5,504.5C 83.5,509.5 83.5,514.5 83.5,519.5C 78.5,519.5 73.5,519.5 68.5,519.5C 68.5,509.5 68.5,499.5 68.5,489.5C 73.5,489.5 78.5,489.5 83.5,489.5C 83.5,484.167 83.5,478.833 83.5,473.5C 88.5,473.5 93.5,473.5 98.5,473.5C 98.5,468.5 98.5,463.5 98.5,458.5C 103.762,458.805 108.928,458.471 114,457.5C 114.499,452.511 114.666,447.511 114.5,442.5 Z"/></g>
<g><path style="opacity:1" fill="#396680" d="M 237.5,442.5 C 237.5,447.833 237.5,453.167 237.5,458.5C 227.167,458.5 216.833,458.5 206.5,458.5C 206.5,453.5 206.5,448.5 206.5,443.5C 201.5,443.5 196.5,443.5 191.5,443.5C 191.5,438.167 191.5,432.833 191.5,427.5C 196.833,427.5 202.167,427.5 207.5,427.5C 207.5,432.5 207.5,437.5 207.5,442.5C 217.5,442.5 227.5,442.5 237.5,442.5 Z"/></g>
<g><path style="opacity:1" fill="#3a637a" d="M 391.5,412.5 C 391.833,412.5 392.167,412.5 392.5,412.5C 392.5,427.833 392.5,443.167 392.5,458.5C 392.167,458.5 391.833,458.5 391.5,458.5C 386.5,458.5 381.5,458.5 376.5,458.5C 371.5,458.5 366.5,458.5 361.5,458.5C 361.5,453.5 361.5,448.5 361.5,443.5C 366.5,443.5 371.5,443.5 376.5,443.5C 376.5,448.167 376.5,452.833 376.5,457.5C 381.5,457.5 386.5,457.5 391.5,457.5C 391.5,442.5 391.5,427.5 391.5,412.5 Z"/></g>
<g><path style="opacity:1" fill="#111211" d="M 438.5,443.5 C 438.5,448.167 438.5,452.833 438.5,457.5C 433.5,457.5 428.5,457.5 423.5,457.5C 423.5,452.833 423.5,448.167 423.5,443.5C 428.5,443.5 433.5,443.5 438.5,443.5 Z"/></g>
<g><path style="opacity:1" fill="#121213" d="M 98.5,442.5 C 98.5,447.833 98.5,453.167 98.5,458.5C 93.5,458.5 88.5,458.5 83.5,458.5C 83.5,463.5 83.5,468.5 83.5,473.5C 67.8333,473.5 52.1667,473.5 36.5,473.5C 36.5,468.167 36.5,462.833 36.5,457.5C 51.8333,457.5 67.1667,457.5 82.5,457.5C 82.5,452.5 82.5,447.5 82.5,442.5C 87.8333,442.5 93.1667,442.5 98.5,442.5 Z"/></g>
<g><path style="opacity:1" fill="#22333e" d="M 422.5,442.5 C 427.833,442.5 433.167,442.5 438.5,442.5C 438.5,442.833 438.5,443.167 438.5,443.5C 433.5,443.5 428.5,443.5 423.5,443.5C 423.5,448.167 423.5,452.833 423.5,457.5C 428.5,457.5 433.5,457.5 438.5,457.5C 433.36,458.488 428.026,458.821 422.5,458.5C 422.5,453.167 422.5,447.833 422.5,442.5 Z"/></g>
<g><path style="opacity:1" fill="#9596c0" d="M 98.5,458.5 C 98.5,463.5 98.5,468.5 98.5,473.5C 93.5,473.5 88.5,473.5 83.5,473.5C 83.5,468.5 83.5,463.5 83.5,458.5C 88.5,458.5 93.5,458.5 98.5,458.5 Z"/></g>
<g><path style="opacity:1" fill="#3a637c" d="M 160.5,442.5 C 165.833,442.5 171.167,442.5 176.5,442.5C 176.5,447.833 176.5,453.167 176.5,458.5C 181.5,458.5 186.5,458.5 191.5,458.5C 191.5,463.5 191.5,468.5 191.5,473.5C 181.167,473.5 170.833,473.5 160.5,473.5C 155.5,473.5 150.5,473.5 145.5,473.5C 145.5,478.5 145.5,483.5 145.5,488.5C 150.5,488.5 155.5,488.5 160.5,488.5C 180.833,488.5 201.167,488.5 221.5,488.5C 221.179,483.305 221.513,478.305 222.5,473.5C 222.5,478.833 222.5,484.167 222.5,489.5C 201.833,489.5 181.167,489.5 160.5,489.5C 155.167,489.5 149.833,489.5 144.5,489.5C 144.5,484.167 144.5,478.833 144.5,473.5C 144.218,468.073 144.551,462.74 145.5,457.5C 150.167,457.5 154.833,457.5 159.5,457.5C 164.74,458.449 170.073,458.782 175.5,458.5C 175.5,453.5 175.5,448.5 175.5,443.5C 170.305,443.821 165.305,443.487 160.5,442.5 Z"/></g>
<g><path style="opacity:1" fill="#37647d" d="M 237.5,458.5 C 247.833,458.5 258.167,458.5 268.5,458.5C 268.5,463.5 268.5,468.5 268.5,473.5C 268.5,473.833 268.5,474.167 268.5,474.5C 263.5,474.5 258.5,474.5 253.5,474.5C 248.36,473.512 243.026,473.179 237.5,473.5C 237.5,468.5 237.5,463.5 237.5,458.5 Z"/></g>
<g><path style="opacity:1" fill="#38647d" d="M 360.5,458.5 C 360.5,463.5 360.5,468.5 360.5,473.5C 350.5,473.5 340.5,473.5 330.5,473.5C 330.5,468.5 330.5,463.5 330.5,458.5C 340.5,458.5 350.5,458.5 360.5,458.5 Z"/></g>
<g><path style="opacity:1" fill="#111211" d="M 361.5,458.5 C 366.5,458.5 371.5,458.5 376.5,458.5C 376.5,463.5 376.5,468.5 376.5,473.5C 371.5,473.5 366.5,473.5 361.5,473.5C 361.5,468.5 361.5,463.5 361.5,458.5 Z"/></g>
<g><path style="opacity:1" fill="#c7c8e0" d="M 376.5,458.5 C 381.5,458.5 386.5,458.5 391.5,458.5C 391.5,463.5 391.5,468.5 391.5,473.5C 386.5,473.5 381.5,473.5 376.5,473.5C 376.5,468.5 376.5,463.5 376.5,458.5 Z"/></g>
<g><path style="opacity:1" fill="#f9f9f9" d="M 391.5,458.5 C 391.833,458.5 392.167,458.5 392.5,458.5C 397.5,458.5 402.5,458.5 407.5,458.5C 407.5,468.5 407.5,478.5 407.5,488.5C 407.5,488.833 407.5,489.167 407.5,489.5C 407.5,494.5 407.5,499.5 407.5,504.5C 402.167,504.5 396.833,504.5 391.5,504.5C 391.5,514.833 391.5,525.167 391.5,535.5C 381.5,535.5 371.5,535.5 361.5,535.5C 361.5,525.167 361.5,514.833 361.5,504.5C 366.5,504.5 371.5,504.5 376.5,504.5C 376.5,499.5 376.5,494.5 376.5,489.5C 376.5,484.167 376.5,478.833 376.5,473.5C 381.5,473.5 386.5,473.5 391.5,473.5C 391.5,468.5 391.5,463.5 391.5,458.5 Z"/></g>
<g><path style="opacity:1" fill="#111211" d="M 407.5,458.5 C 412.5,458.5 417.5,458.5 422.5,458.5C 422.5,468.5 422.5,478.5 422.5,488.5C 417.5,488.5 412.5,488.5 407.5,488.5C 407.5,478.5 407.5,468.5 407.5,458.5 Z"/></g>
<g><path style="opacity:1" fill="#363f4c" d="M 360.5,458.5 C 360.833,458.5 361.167,458.5 361.5,458.5C 361.5,463.5 361.5,468.5 361.5,473.5C 361.5,478.833 361.5,484.167 361.5,489.5C 345.833,489.5 330.167,489.5 314.5,489.5C 329.658,488.504 344.991,488.17 360.5,488.5C 360.5,483.833 360.5,479.167 360.5,474.5C 329.833,474.5 299.167,474.5 268.5,474.5C 268.5,474.167 268.5,473.833 268.5,473.5C 289.167,473.5 309.833,473.5 330.5,473.5C 340.5,473.5 350.5,473.5 360.5,473.5C 360.5,468.5 360.5,463.5 360.5,458.5 Z"/></g>
<g><path style="opacity:1" fill="#131415" d="M 160.5,473.5 C 160.5,478.5 160.5,483.5 160.5,488.5C 155.5,488.5 150.5,488.5 145.5,488.5C 145.5,483.5 145.5,478.5 145.5,473.5C 150.5,473.5 155.5,473.5 160.5,473.5 Z"/></g>
<g><path style="opacity:1" fill="#131314" d="M 222.5,473.5 C 227.5,473.5 232.5,473.5 237.5,473.5C 243.026,473.179 248.36,473.512 253.5,474.5C 253.5,479.5 253.5,484.5 253.5,489.5C 243.167,489.5 232.833,489.5 222.5,489.5C 222.5,484.167 222.5,478.833 222.5,473.5 Z"/></g>
<g><path style="opacity:1" fill="#121212" d="M 268.5,474.5 C 299.167,474.5 329.833,474.5 360.5,474.5C 360.5,479.167 360.5,483.833 360.5,488.5C 344.991,488.17 329.658,488.504 314.5,489.5C 314.5,499.5 314.5,509.5 314.5,519.5C 314.5,519.833 314.5,520.167 314.5,520.5C 309.167,520.5 303.833,520.5 298.5,520.5C 298.5,510.167 298.5,499.833 298.5,489.5C 288.5,489.5 278.5,489.5 268.5,489.5C 268.5,484.5 268.5,479.5 268.5,474.5 Z"/></g>
<g><path style="opacity:1" fill="#9595bf" d="M 361.5,473.5 C 366.5,473.5 371.5,473.5 376.5,473.5C 376.5,478.833 376.5,484.167 376.5,489.5C 371.5,489.5 366.5,489.5 361.5,489.5C 361.5,484.167 361.5,478.833 361.5,473.5 Z"/></g>
<g><path style="opacity:1" fill="#9c9cad" d="M 36.5,473.5 C 52.1667,473.5 67.8333,473.5 83.5,473.5C 83.5,478.833 83.5,484.167 83.5,489.5C 78.5,489.5 73.5,489.5 68.5,489.5C 68.5,499.5 68.5,509.5 68.5,519.5C 73.5,519.5 78.5,519.5 83.5,519.5C 88.5,519.5 93.5,519.5 98.5,519.5C 88.3468,520.494 78.0135,520.828 67.5,520.5C 67.5,510.167 67.5,499.833 67.5,489.5C 62.5,489.5 57.5,489.5 52.5,489.5C 57.3054,488.513 62.3054,488.179 67.5,488.5C 72.5,488.5 77.5,488.5 82.5,488.5C 82.5,483.833 82.5,479.167 82.5,474.5C 77.5,474.5 72.5,474.5 67.5,474.5C 57.5,474.5 47.5,474.5 37.5,474.5C 37.5,484.5 37.5,494.5 37.5,504.5C 36.5058,494.347 36.1724,484.014 36.5,473.5 Z"/></g>
<g><path style="opacity:1" fill="#9696c1" d="M 67.5,474.5 C 72.5,474.5 77.5,474.5 82.5,474.5C 82.5,479.167 82.5,483.833 82.5,488.5C 77.5,488.5 72.5,488.5 67.5,488.5C 67.5,483.833 67.5,479.167 67.5,474.5 Z"/></g>
<g><path style="opacity:1" fill="#c7c7e0" d="M 67.5,474.5 C 67.5,479.167 67.5,483.833 67.5,488.5C 62.3054,488.179 57.3054,488.513 52.5,489.5C 52.5,494.5 52.5,499.5 52.5,504.5C 47.5,504.5 42.5,504.5 37.5,504.5C 37.5,494.5 37.5,484.5 37.5,474.5C 47.5,474.5 57.5,474.5 67.5,474.5 Z"/></g>
<g><path style="opacity:1" fill="#121212" d="M 36.5,473.5 C 36.1724,484.014 36.5058,494.347 37.5,504.5C 42.5,504.5 47.5,504.5 52.5,504.5C 52.5,499.5 52.5,494.5 52.5,489.5C 57.5,489.5 62.5,489.5 67.5,489.5C 67.5,499.833 67.5,510.167 67.5,520.5C 57.1667,520.5 46.8333,520.5 36.5,520.5C 36.5,515.5 36.5,510.5 36.5,505.5C 31.5,505.5 26.5,505.5 21.5,505.5C 21.5,494.833 21.5,484.167 21.5,473.5C 26.5,473.5 31.5,473.5 36.5,473.5 Z"/></g>
<g><path style="opacity:1" fill="#9797c2" d="M 98.5,489.5 C 103.833,489.5 109.167,489.5 114.5,489.5C 114.5,494.5 114.5,499.5 114.5,504.5C 109.167,504.5 103.833,504.5 98.5,504.5C 98.5,499.5 98.5,494.5 98.5,489.5 Z"/></g>
<g><path style="opacity:1" fill="#c9c9e1" d="M 129.5,473.5 C 134.5,473.5 139.5,473.5 144.5,473.5C 144.5,478.833 144.5,484.167 144.5,489.5C 139.5,489.5 134.5,489.5 129.5,489.5C 129.5,494.5 129.5,499.5 129.5,504.5C 124.5,504.5 119.5,504.5 114.5,504.5C 114.5,499.5 114.5,494.5 114.5,489.5C 109.167,489.5 103.833,489.5 98.5,489.5C 108.653,488.506 118.986,488.172 129.5,488.5C 129.5,483.5 129.5,478.5 129.5,473.5 Z"/></g>
<g><path style="opacity:1" fill="#f5f5f5" d="M 144.5,489.5 C 149.833,489.5 155.167,489.5 160.5,489.5C 160.5,499.833 160.5,510.167 160.5,520.5C 150.167,520.5 139.833,520.5 129.5,520.5C 129.5,515.167 129.5,509.833 129.5,504.5C 129.5,499.5 129.5,494.5 129.5,489.5C 134.5,489.5 139.5,489.5 144.5,489.5 Z"/></g>
<g><path style="opacity:1" fill="#111111" d="M 160.5,489.5 C 181.167,489.5 201.833,489.5 222.5,489.5C 222.5,494.833 222.5,500.167 222.5,505.5C 207.167,505.5 191.833,505.5 176.5,505.5C 176.5,510.5 176.5,515.5 176.5,520.5C 171.167,520.5 165.833,520.5 160.5,520.5C 160.5,510.167 160.5,499.833 160.5,489.5 Z"/></g>
<g><path style="opacity:1" fill="#f7f7f7" d="M 314.5,489.5 C 330.167,489.5 345.833,489.5 361.5,489.5C 361.5,494.5 361.5,499.5 361.5,504.5C 356.167,504.5 350.833,504.5 345.5,504.5C 340.5,504.5 335.5,504.5 330.5,504.5C 330.5,509.5 330.5,514.5 330.5,519.5C 325.167,519.5 319.833,519.5 314.5,519.5C 314.5,509.5 314.5,499.5 314.5,489.5 Z"/></g>
<g><path style="opacity:1" fill="#c7c8e0" d="M 361.5,489.5 C 366.5,489.5 371.5,489.5 376.5,489.5C 376.5,494.5 376.5,499.5 376.5,504.5C 371.5,504.5 366.5,504.5 361.5,504.5C 361.5,499.5 361.5,494.5 361.5,489.5 Z"/></g>
<g><path style="opacity:1" fill="#c7c8e0" d="M 407.5,489.5 C 412.5,489.5 417.5,489.5 422.5,489.5C 422.5,494.5 422.5,499.5 422.5,504.5C 417.5,504.5 412.5,504.5 407.5,504.5C 407.5,499.5 407.5,494.5 407.5,489.5 Z"/></g>
<g><path style="opacity:1" fill="#39637c" d="M 438.5,457.5 C 443.833,457.5 449.167,457.5 454.5,457.5C 454.5,462.833 454.5,468.167 454.5,473.5C 459.5,473.5 464.5,473.5 469.5,473.5C 469.5,478.5 469.5,483.5 469.5,488.5C 474.833,488.5 480.167,488.5 485.5,488.5C 485.5,493.833 485.5,499.167 485.5,504.5C 479.833,504.5 474.167,504.5 468.5,504.5C 468.5,499.5 468.5,494.5 468.5,489.5C 463.833,489.5 459.167,489.5 454.5,489.5C 454.5,494.5 454.5,499.5 454.5,504.5C 454.5,514.833 454.5,525.167 454.5,535.5C 454.167,535.5 453.833,535.5 453.5,535.5C 453.5,525.167 453.5,514.833 453.5,504.5C 453.5,499.5 453.5,494.5 453.5,489.5C 443.5,489.5 433.5,489.5 423.5,489.5C 423.5,494.5 423.5,499.5 423.5,504.5C 423.167,504.5 422.833,504.5 422.5,504.5C 422.5,499.5 422.5,494.5 422.5,489.5C 417.5,489.5 412.5,489.5 407.5,489.5C 407.5,489.167 407.5,488.833 407.5,488.5C 412.5,488.5 417.5,488.5 422.5,488.5C 422.5,478.5 422.5,468.5 422.5,458.5C 428.026,458.821 433.36,458.488 438.5,457.5 Z"/></g>
<g><path style="opacity:1" fill="#578fc8" d="M 468.5,504.5 C 463.833,504.5 459.167,504.5 454.5,504.5C 454.5,499.5 454.5,494.5 454.5,489.5C 459.167,489.5 463.833,489.5 468.5,489.5C 468.5,494.5 468.5,499.5 468.5,504.5 Z"/></g>
<g><path style="opacity:1" fill="#111211" d="M 453.5,504.5 C 443.5,504.5 433.5,504.5 423.5,504.5C 423.5,499.5 423.5,494.5 423.5,489.5C 433.5,489.5 443.5,489.5 453.5,489.5C 453.5,494.5 453.5,499.5 453.5,504.5 Z"/></g>
<g><path style="opacity:1" fill="#568ec6" d="M 423.5,473.5 C 433.5,473.5 443.5,473.5 453.5,473.5C 453.5,478.5 453.5,483.5 453.5,488.5C 443.5,488.5 433.5,488.5 423.5,488.5C 423.5,483.5 423.5,478.5 423.5,473.5 Z"/></g>
<g><path style="opacity:1" fill="#121212" d="M 454.5,504.5 C 459.167,504.5 463.833,504.5 468.5,504.5C 474.167,504.5 479.833,504.5 485.5,504.5C 485.5,509.833 485.5,515.167 485.5,520.5C 480.167,520.5 474.833,520.5 469.5,520.5C 469.5,525.5 469.5,530.5 469.5,535.5C 464.5,535.5 459.5,535.5 454.5,535.5C 454.5,525.167 454.5,514.833 454.5,504.5 Z"/></g>
<g><path style="opacity:1" fill="#c8c8e1" d="M 98.5,504.5 C 98.5,509.5 98.5,514.5 98.5,519.5C 93.5,519.5 88.5,519.5 83.5,519.5C 83.5,514.5 83.5,509.5 83.5,504.5C 88.5,504.5 93.5,504.5 98.5,504.5 Z"/></g>
<g><path style="opacity:1" fill="#c8c8e1" d="M 345.5,504.5 C 345.5,509.5 345.5,514.5 345.5,519.5C 340.5,519.5 335.5,519.5 330.5,519.5C 330.5,514.5 330.5,509.5 330.5,504.5C 335.5,504.5 340.5,504.5 345.5,504.5 Z"/></g>
<g><path style="opacity:1" fill="#9191b5" d="M 345.5,504.5 C 350.833,504.5 356.167,504.5 361.5,504.5C 361.5,514.833 361.5,525.167 361.5,535.5C 361.167,535.5 360.833,535.5 360.5,535.5C 360.5,530.5 360.5,525.5 360.5,520.5C 345.167,520.5 329.833,520.5 314.5,520.5C 314.5,520.167 314.5,519.833 314.5,519.5C 319.833,519.5 325.167,519.5 330.5,519.5C 335.5,519.5 340.5,519.5 345.5,519.5C 345.5,514.5 345.5,509.5 345.5,504.5 Z"/></g>
<g><path style="opacity:1" fill="#c1c0d6" d="M 407.5,504.5 C 407.5,509.5 407.5,514.5 407.5,519.5C 412.695,519.179 417.695,519.513 422.5,520.5C 412.5,520.5 402.5,520.5 392.5,520.5C 392.5,525.5 392.5,530.5 392.5,535.5C 392.167,535.5 391.833,535.5 391.5,535.5C 391.5,525.167 391.5,514.833 391.5,504.5C 396.833,504.5 402.167,504.5 407.5,504.5 Z"/></g>
<g><path style="opacity:1" fill="#f8f8f8" d="M 407.5,504.5 C 412.5,504.5 417.5,504.5 422.5,504.5C 422.833,504.5 423.167,504.5 423.5,504.5C 433.5,504.5 443.5,504.5 453.5,504.5C 453.5,514.833 453.5,525.167 453.5,535.5C 443.167,535.5 432.833,535.5 422.5,535.5C 422.5,530.5 422.5,525.5 422.5,520.5C 417.695,519.513 412.695,519.179 407.5,519.5C 407.5,514.5 407.5,509.5 407.5,504.5 Z"/></g>
<g><path style="opacity:1" fill="#131313" d="M 98.5,504.5 C 103.833,504.5 109.167,504.5 114.5,504.5C 119.5,504.5 124.5,504.5 129.5,504.5C 129.5,509.833 129.5,515.167 129.5,520.5C 119.5,520.5 109.5,520.5 99.5,520.5C 99.5,525.5 99.5,530.5 99.5,535.5C 88.8333,535.5 78.1667,535.5 67.5,535.5C 67.5,530.5 67.5,525.5 67.5,520.5C 78.0135,520.828 88.3468,520.494 98.5,519.5C 98.5,514.5 98.5,509.5 98.5,504.5 Z"/></g>
<g><path style="opacity:1" fill="#111211" d="M 129.5,520.5 C 139.833,520.5 150.167,520.5 160.5,520.5C 160.5,525.5 160.5,530.5 160.5,535.5C 150.167,535.5 139.833,535.5 129.5,535.5C 129.5,530.5 129.5,525.5 129.5,520.5 Z"/></g>
<g><path style="opacity:1" fill="#111211" d="M 314.5,520.5 C 329.833,520.5 345.167,520.5 360.5,520.5C 360.5,525.5 360.5,530.5 360.5,535.5C 345.167,535.5 329.833,535.5 314.5,535.5C 314.5,530.5 314.5,525.5 314.5,520.5 Z"/></g>
<g><path style="opacity:1" fill="#111211" d="M 422.5,520.5 C 422.5,525.5 422.5,530.5 422.5,535.5C 412.5,535.5 402.5,535.5 392.5,535.5C 392.5,530.5 392.5,525.5 392.5,520.5C 402.5,520.5 412.5,520.5 422.5,520.5 Z"/></g>
<g><path style="opacity:1" fill="#111211" d="M 360.5,535.5 C 360.833,535.5 361.167,535.5 361.5,535.5C 371.5,535.5 381.5,535.5 391.5,535.5C 391.833,535.5 392.167,535.5 392.5,535.5C 392.5,536.833 392.5,538.167 392.5,539.5C 381.833,539.5 371.167,539.5 360.5,539.5C 360.5,538.167 360.5,536.833 360.5,535.5 Z"/></g>
<g><path style="opacity:1" fill="#111211" d="M 422.5,535.5 C 432.833,535.5 443.167,535.5 453.5,535.5C 453.833,535.5 454.167,535.5 454.5,535.5C 454.5,536.833 454.5,538.167 454.5,539.5C 443.833,539.5 433.167,539.5 422.5,539.5C 422.5,538.167 422.5,536.833 422.5,535.5 Z"/></g>
</svg>
