<?xml version="1.0" encoding="UTF-8"?>
<!DOCTYPE svg PUBLIC "-//W3C//DTD SVG 1.1//EN" "http://www.w3.org/Graphics/SVG/1.1/DTD/svg11.dtd">
<svg xmlns="http://www.w3.org/2000/svg" version="1.1" width="580px" height="676px" style="shape-rendering:geometricPrecision; text-rendering:geometricPrecision; image-rendering:optimizeQuality; fill-rule:evenodd; clip-rule:evenodd" xmlns:xlink="http://www.w3.org/1999/xlink">
<g><path style="opacity:1" fill="#5c5724" d="M 132.5,15.5 C 121.833,15.5 111.167,15.5 100.5,15.5C 100.5,10.5 100.5,5.5 100.5,0.5C 111.167,0.5 121.833,0.5 132.5,0.5C 132.5,5.5 132.5,10.5 132.5,15.5 Z"/></g>
<g><path style="opacity:1" fill="#5d5624" d="M 100.5,15.5 C 100.5,25.5 100.5,35.5 100.5,45.5C 95.5,45.5 90.5,45.5 85.5,45.5C 85.5,35.5 85.5,25.5 85.5,15.5C 90.5,15.5 95.5,15.5 100.5,15.5 Z"/></g>
<g><path style="opacity:1" fill="#93822c" d="M 100.5,15.5 C 111.167,15.5 121.833,15.5 132.5,15.5C 132.5,15.8333 132.5,16.1667 132.5,16.5C 122.167,16.5 111.833,16.5 101.5,16.5C 101.5,26.5 101.5,36.5 101.5,46.5C 96.1667,46.5 90.8333,46.5 85.5,46.5C 85.5,46.1667 85.5,45.8333 85.5,45.5C 90.5,45.5 95.5,45.5 100.5,45.5C 100.5,35.5 100.5,25.5 100.5,15.5 Z"/></g>
<g><path style="opacity:1" fill="#f2d33d" d="M 132.5,16.5 C 132.5,21.5 132.5,26.5 132.5,31.5C 137.5,31.5 142.5,31.5 147.5,31.5C 147.5,41.5 147.5,51.5 147.5,61.5C 152.833,61.5 158.167,61.5 163.5,61.5C 163.5,71.8333 163.5,82.1667 163.5,92.5C 168.5,92.5 173.5,92.5 178.5,92.5C 178.5,102.833 178.5,113.167 178.5,123.5C 183.833,123.5 189.167,123.5 194.5,123.5C 194.5,138.833 194.5,154.167 194.5,169.5C 199.5,169.5 204.5,169.5 209.5,169.5C 209.5,179.5 209.5,189.5 209.5,199.5C 204.5,199.5 199.5,199.5 194.5,199.5C 194.5,204.833 194.5,210.167 194.5,215.5C 209.167,215.5 223.833,215.5 238.5,215.5C 238.173,225.681 238.506,235.681 239.5,245.5C 239.5,250.833 239.5,256.167 239.5,261.5C 244.5,261.5 249.5,261.5 254.5,261.5C 254.5,256.167 254.5,250.833 254.5,245.5C 254.5,235.5 254.5,225.5 254.5,215.5C 259.833,215.5 265.167,215.5 270.5,215.5C 270.5,205.5 270.5,195.5 270.5,185.5C 275.695,185.821 280.695,185.487 285.5,184.5C 285.5,179.5 285.5,174.5 285.5,169.5C 290.5,169.5 295.5,169.5 300.5,169.5C 301.487,164.695 301.821,159.695 301.5,154.5C 306.695,154.821 311.695,154.487 316.5,153.5C 316.5,148.833 316.5,144.167 316.5,139.5C 326.833,139.5 337.167,139.5 347.5,139.5C 347.5,134.167 347.5,128.833 347.5,123.5C 352.5,123.5 357.5,123.5 362.5,123.5C 363.487,118.695 363.821,113.695 363.5,108.5C 368.695,108.821 373.695,108.487 378.5,107.5C 378.5,102.5 378.5,97.5 378.5,92.5C 388.5,92.5 398.5,92.5 408.5,92.5C 408.5,87.5 408.5,82.5 408.5,77.5C 418.833,77.5 429.167,77.5 439.5,77.5C 439.5,72.1667 439.5,66.8333 439.5,61.5C 454.833,61.5 470.167,61.5 485.5,61.5C 485.5,71.8333 485.5,82.1667 485.5,92.5C 480.5,92.5 475.5,92.5 470.5,92.5C 470.167,92.5 469.833,92.5 469.5,92.5C 459.5,92.5 449.5,92.5 439.5,92.5C 439.167,92.5 438.833,92.5 438.5,92.5C 433.5,92.5 428.5,92.5 423.5,92.5C 423.5,97.5 423.5,102.5 423.5,107.5C 418.5,107.5 413.5,107.5 408.5,107.5C 403.167,107.5 397.833,107.5 392.5,107.5C 392.5,112.833 392.5,118.167 392.5,123.5C 387.833,123.5 383.167,123.5 378.5,123.5C 378.5,128.5 378.5,133.5 378.5,138.5C 373.167,138.5 367.833,138.5 362.5,138.5C 362.5,143.833 362.5,149.167 362.5,154.5C 357.5,154.5 352.5,154.5 347.5,154.5C 347.5,159.5 347.5,164.5 347.5,169.5C 342.5,169.5 337.5,169.5 332.5,169.5C 332.5,174.833 332.5,180.167 332.5,185.5C 327.167,185.5 321.833,185.5 316.5,185.5C 316.5,190.167 316.5,194.833 316.5,199.5C 311.5,199.5 306.5,199.5 301.5,199.5C 301.5,209.833 301.5,220.167 301.5,230.5C 296.167,230.5 290.833,230.5 285.5,230.5C 285.5,245.833 285.5,261.167 285.5,276.5C 285.5,281.833 285.5,287.167 285.5,292.5C 290.833,292.5 296.167,292.5 301.5,292.5C 306.5,292.5 311.5,292.5 316.5,292.5C 316.5,297.5 316.5,302.5 316.5,307.5C 321.305,308.487 326.305,308.821 331.5,308.5C 331.179,313.695 331.513,318.695 332.5,323.5C 332.5,328.5 332.5,333.5 332.5,338.5C 337.5,338.5 342.5,338.5 347.5,338.5C 347.5,338.833 347.5,339.167 347.5,339.5C 347.5,344.167 347.5,348.833 347.5,353.5C 342.5,353.5 337.5,353.5 332.5,353.5C 332.5,358.5 332.5,363.5 332.5,368.5C 327.167,368.5 321.833,368.5 316.5,368.5C 316.5,363.5 316.5,358.5 316.5,353.5C 311.36,352.512 306.026,352.179 300.5,352.5C 300.5,357.833 300.5,363.167 300.5,368.5C 290.5,368.5 280.5,368.5 270.5,368.5C 270.5,358.5 270.5,348.5 270.5,338.5C 265.167,338.5 259.833,338.5 254.5,338.5C 254.5,333.5 254.5,328.5 254.5,323.5C 234.674,322.503 214.674,322.17 194.5,322.5C 194.5,317.5 194.5,312.5 194.5,307.5C 189.167,307.5 183.833,307.5 178.5,307.5C 178.5,317.833 178.5,328.167 178.5,338.5C 173.5,338.5 168.5,338.5 163.5,338.5C 163.5,343.167 163.5,347.833 163.5,352.5C 168.5,352.5 173.5,352.5 178.5,352.5C 178.5,352.833 178.5,353.167 178.5,353.5C 178.5,358.5 178.5,363.5 178.5,368.5C 178.5,373.833 178.5,379.167 178.5,384.5C 173.5,384.5 168.5,384.5 163.5,384.5C 163.5,379.167 163.5,373.833 163.5,368.5C 153.167,368.5 142.833,368.5 132.5,368.5C 132.5,363.167 132.5,357.833 132.5,352.5C 137.5,352.5 142.5,352.5 147.5,352.5C 147.5,337.833 147.5,323.167 147.5,308.5C 142.5,308.5 137.5,308.5 132.5,308.5C 132.5,318.5 132.5,328.5 132.5,338.5C 127.167,338.5 121.833,338.5 116.5,338.5C 116.5,333.5 116.5,328.5 116.5,323.5C 116.5,318.167 116.5,312.833 116.5,307.5C 116.5,297.167 116.5,286.833 116.5,276.5C 116.5,271.5 116.5,266.5 116.5,261.5C 121.833,261.5 127.167,261.5 132.5,261.5C 132.5,256.5 132.5,251.5 132.5,246.5C 132.5,246.167 132.5,245.833 132.5,245.5C 137.5,245.5 142.5,245.5 147.5,245.5C 147.5,240.5 147.5,235.5 147.5,230.5C 152.5,230.5 157.5,230.5 162.5,230.5C 162.833,230.5 163.167,230.5 163.5,230.5C 168.5,230.5 173.5,230.5 178.5,230.5C 178.5,225.5 178.5,220.5 178.5,215.5C 173.5,215.5 168.5,215.5 163.5,215.5C 163.5,200.167 163.5,184.833 163.5,169.5C 158.167,169.5 152.833,169.5 147.5,169.5C 147.5,149.167 147.5,128.833 147.5,108.5C 142.695,107.513 137.695,107.179 132.5,107.5C 132.5,97.1667 132.5,86.8333 132.5,76.5C 127.167,76.5 121.833,76.5 116.5,76.5C 116.5,71.5 116.5,66.5 116.5,61.5C 111.5,61.5 106.5,61.5 101.5,61.5C 96.1667,61.5 90.8333,61.5 85.5,61.5C 85.5,56.5 85.5,51.5 85.5,46.5C 90.8333,46.5 96.1667,46.5 101.5,46.5C 101.5,36.5 101.5,26.5 101.5,16.5C 111.833,16.5 122.167,16.5 132.5,16.5 Z"/></g>
<g><path style="opacity:1" fill="#5d5624" d="M 85.5,45.5 C 85.5,45.8333 85.5,46.1667 85.5,46.5C 85.5,51.5 85.5,56.5 85.5,61.5C 85.5,71.8333 85.5,82.1667 85.5,92.5C 79.9738,92.8214 74.6405,92.4881 69.5,91.5C 69.5,76.1667 69.5,60.8333 69.5,45.5C 74.8333,45.5 80.1667,45.5 85.5,45.5 Z"/></g>
<g><path style="opacity:1" fill="#5d5724" d="M 486.5,154.5 C 481.167,154.5 475.833,154.5 470.5,154.5C 470.5,149.167 470.5,143.833 470.5,138.5C 475.5,138.5 480.5,138.5 485.5,138.5C 485.5,123.167 485.5,107.833 485.5,92.5C 485.5,82.1667 485.5,71.8333 485.5,61.5C 470.167,61.5 454.833,61.5 439.5,61.5C 438.513,66.3054 438.179,71.3054 438.5,76.5C 428.319,76.1726 418.319,76.506 408.5,77.5C 408.5,82.5 408.5,87.5 408.5,92.5C 398.5,92.5 388.5,92.5 378.5,92.5C 378.5,97.5 378.5,102.5 378.5,107.5C 373.167,107.5 367.833,107.5 362.5,107.5C 362.5,102.167 362.5,96.8333 362.5,91.5C 367.833,91.5 373.167,91.5 378.5,91.5C 378.5,86.5 378.5,81.5 378.5,76.5C 388.167,76.5 397.833,76.5 407.5,76.5C 407.5,71.1667 407.5,65.8333 407.5,60.5C 417.833,60.5 428.167,60.5 438.5,60.5C 438.5,55.5 438.5,50.5 438.5,45.5C 454.5,45.5 470.5,45.5 486.5,45.5C 486.5,50.5 486.5,55.5 486.5,60.5C 491.5,60.5 496.5,60.5 501.5,60.5C 501.5,86.8333 501.5,113.167 501.5,139.5C 496.5,139.5 491.5,139.5 486.5,139.5C 486.5,144.5 486.5,149.5 486.5,154.5 Z"/></g>
<g><path style="opacity:1" fill="#baa12a" d="M 85.5,61.5 C 90.8333,61.5 96.1667,61.5 101.5,61.5C 101.5,66.5 101.5,71.5 101.5,76.5C 106.305,77.4872 111.305,77.8205 116.5,77.5C 116.5,87.5 116.5,97.5 116.5,107.5C 106.167,107.5 95.8333,107.5 85.5,107.5C 85.5,102.5 85.5,97.5 85.5,92.5C 85.5,82.1667 85.5,71.8333 85.5,61.5 Z"/></g>
<g><path style="opacity:1" fill="#5c5724" d="M 101.5,61.5 C 106.5,61.5 111.5,61.5 116.5,61.5C 116.5,66.5 116.5,71.5 116.5,76.5C 111.5,76.5 106.5,76.5 101.5,76.5C 101.5,71.5 101.5,66.5 101.5,61.5 Z"/></g>
<g><path style="opacity:1" fill="#641f00" d="M 69.5,91.5 C 74.6405,92.4881 79.9738,92.8214 85.5,92.5C 85.5,97.5 85.5,102.5 85.5,107.5C 70.5,107.5 55.5,107.5 40.5,107.5C 40.5,102.5 40.5,97.5 40.5,92.5C 35.1667,92.5 29.8333,92.5 24.5,92.5C 24.1695,113.34 24.5028,134.007 25.5,154.5C 25.5,159.5 25.5,164.5 25.5,169.5C 30.5,169.5 35.5,169.5 40.5,169.5C 40.5,174.833 40.5,180.167 40.5,185.5C 35.1667,185.5 29.8333,185.5 24.5,185.5C 24.5,180.5 24.5,175.5 24.5,170.5C 19.5,170.5 14.5,170.5 9.5,170.5C 9.5,139.167 9.5,107.833 9.5,76.5C 19.8333,76.5 30.1667,76.5 40.5,76.5C 40.5,81.5 40.5,86.5 40.5,91.5C 50.1667,91.5 59.8333,91.5 69.5,91.5 Z"/></g>
<g><path style="opacity:1" fill="#b29a30" d="M 439.5,61.5 C 439.5,66.8333 439.5,72.1667 439.5,77.5C 429.167,77.5 418.833,77.5 408.5,77.5C 418.319,76.506 428.319,76.1726 438.5,76.5C 438.179,71.3054 438.513,66.3054 439.5,61.5 Z"/></g>
<g><path style="opacity:1" fill="#5d5725" d="M 116.5,77.5 C 121.5,77.5 126.5,77.5 131.5,77.5C 131.5,87.5 131.5,97.5 131.5,107.5C 126.5,107.5 121.5,107.5 116.5,107.5C 116.5,97.5 116.5,87.5 116.5,77.5 Z"/></g>
<g><path style="opacity:1" fill="#96852a" d="M 101.5,76.5 C 106.5,76.5 111.5,76.5 116.5,76.5C 121.833,76.5 127.167,76.5 132.5,76.5C 132.5,86.8333 132.5,97.1667 132.5,107.5C 137.695,107.179 142.695,107.513 147.5,108.5C 142.5,108.5 137.5,108.5 132.5,108.5C 132.5,113.5 132.5,118.5 132.5,123.5C 132.167,123.5 131.833,123.5 131.5,123.5C 131.5,118.5 131.5,113.5 131.5,108.5C 126.5,108.5 121.5,108.5 116.5,108.5C 116.5,108.167 116.5,107.833 116.5,107.5C 121.5,107.5 126.5,107.5 131.5,107.5C 131.5,97.5 131.5,87.5 131.5,77.5C 126.5,77.5 121.5,77.5 116.5,77.5C 111.305,77.8205 106.305,77.4872 101.5,76.5 Z"/></g>
<g><path style="opacity:1" fill="#d8430b" d="M 40.5,107.5 C 45.3054,108.487 50.3054,108.821 55.5,108.5C 55.1726,118.681 55.506,128.681 56.5,138.5C 56.5,143.5 56.5,148.5 56.5,153.5C 61.263,153.226 65.9296,153.559 70.5,154.5C 70.5,159.5 70.5,164.5 70.5,169.5C 75.5,169.5 80.5,169.5 85.5,169.5C 85.5,179.5 85.5,189.5 85.5,199.5C 90.8333,199.5 96.1667,199.5 101.5,199.5C 101.5,204.5 101.5,209.5 101.5,214.5C 111.833,214.5 122.167,214.5 132.5,214.5C 137.5,214.5 142.5,214.5 147.5,214.5C 147.5,219.833 147.5,225.167 147.5,230.5C 142.5,230.5 137.5,230.5 132.5,230.5C 131.513,235.305 131.179,240.305 131.5,245.5C 126.5,245.5 121.5,245.5 116.5,245.5C 106.167,245.5 95.8333,245.5 85.5,245.5C 85.5,240.5 85.5,235.5 85.5,230.5C 80.5,230.5 75.5,230.5 70.5,230.5C 70.5,225.5 70.5,220.5 70.5,215.5C 70.8214,209.974 70.4881,204.64 69.5,199.5C 65.1667,199.5 60.8333,199.5 56.5,199.5C 56.8195,194.637 56.4861,189.97 55.5,185.5C 50.5,185.5 45.5,185.5 40.5,185.5C 40.5,180.167 40.5,174.833 40.5,169.5C 35.5,169.5 30.5,169.5 25.5,169.5C 25.5,164.5 25.5,159.5 25.5,154.5C 24.5028,134.007 24.1695,113.34 24.5,92.5C 29.8333,92.5 35.1667,92.5 40.5,92.5C 40.5,97.5 40.5,102.5 40.5,107.5 Z"/></g>
<g><path style="opacity:1" fill="#a8962b" d="M 438.5,92.5 C 438.5,97.5 438.5,102.5 438.5,107.5C 433.5,107.5 428.5,107.5 423.5,107.5C 423.5,102.5 423.5,97.5 423.5,92.5C 428.5,92.5 433.5,92.5 438.5,92.5 Z"/></g>
<g><path style="opacity:1" fill="#b9a02a" d="M 470.5,92.5 C 475.5,92.5 480.5,92.5 485.5,92.5C 485.5,107.833 485.5,123.167 485.5,138.5C 480.5,138.5 475.5,138.5 470.5,138.5C 470.5,143.833 470.5,149.167 470.5,154.5C 444.5,154.5 418.5,154.5 392.5,154.5C 392.5,159.5 392.5,164.5 392.5,169.5C 382.833,169.5 373.167,169.5 363.5,169.5C 363.5,164.5 363.5,159.5 363.5,154.5C 368.5,154.5 373.5,154.5 378.5,154.5C 378.5,149.5 378.5,144.5 378.5,139.5C 388.681,139.827 398.681,139.494 408.5,138.5C 408.5,133.5 408.5,128.5 408.5,123.5C 418.5,123.5 428.5,123.5 438.5,123.5C 439.487,118.695 439.821,113.695 439.5,108.5C 449.833,108.5 460.167,108.5 470.5,108.5C 470.5,103.167 470.5,97.8333 470.5,92.5 Z"/></g>
<g><path style="opacity:1" fill="#bca32b" d="M 347.5,107.5 C 347.5,112.833 347.5,118.167 347.5,123.5C 347.5,128.833 347.5,134.167 347.5,139.5C 337.167,139.5 326.833,139.5 316.5,139.5C 316.5,139.167 316.5,138.833 316.5,138.5C 321.833,138.5 327.167,138.5 332.5,138.5C 332.782,133.073 332.449,127.74 331.5,122.5C 331.5,117.5 331.5,112.5 331.5,107.5C 336.833,107.5 342.167,107.5 347.5,107.5 Z"/></g>
<g><path style="opacity:1" fill="#5e5725" d="M 347.5,107.5 C 352.5,107.5 357.5,107.5 362.5,107.5C 362.5,112.833 362.5,118.167 362.5,123.5C 357.5,123.5 352.5,123.5 347.5,123.5C 347.5,118.167 347.5,112.833 347.5,107.5 Z"/></g>
<g><path style="opacity:1" fill="#ae2d0c" d="M 40.5,107.5 C 55.5,107.5 70.5,107.5 85.5,107.5C 95.8333,107.5 106.167,107.5 116.5,107.5C 116.5,107.833 116.5,108.167 116.5,108.5C 116.5,113.5 116.5,118.5 116.5,123.5C 106.167,123.5 95.8333,123.5 85.5,123.5C 80.5,123.5 75.5,123.5 70.5,123.5C 65.8333,123.5 61.1667,123.5 56.5,123.5C 56.5,128.5 56.5,133.5 56.5,138.5C 55.506,128.681 55.1726,118.681 55.5,108.5C 50.3054,108.821 45.3054,108.487 40.5,107.5 Z"/></g>
<g><path style="opacity:1" fill="#bba02a" d="M 116.5,108.5 C 121.5,108.5 126.5,108.5 131.5,108.5C 131.5,113.5 131.5,118.5 131.5,123.5C 126.5,123.5 121.5,123.5 116.5,123.5C 116.5,118.5 116.5,113.5 116.5,108.5 Z"/></g>
<g><path style="opacity:1" fill="#5c5724" d="M 147.5,108.5 C 147.5,128.833 147.5,149.167 147.5,169.5C 142.5,169.5 137.5,169.5 132.5,169.5C 132.5,154.167 132.5,138.833 132.5,123.5C 132.5,118.5 132.5,113.5 132.5,108.5C 137.5,108.5 142.5,108.5 147.5,108.5 Z"/></g>
<g><path style="opacity:1" fill="#ad9931" d="M 362.5,107.5 C 367.833,107.5 373.167,107.5 378.5,107.5C 373.695,108.487 368.695,108.821 363.5,108.5C 363.821,113.695 363.487,118.695 362.5,123.5C 362.5,118.167 362.5,112.833 362.5,107.5 Z"/></g>
<g><path style="opacity:1" fill="#a9962b" d="M 408.5,107.5 C 408.5,107.833 408.5,108.167 408.5,108.5C 408.5,113.5 408.5,118.5 408.5,123.5C 403.167,123.5 397.833,123.5 392.5,123.5C 392.5,118.167 392.5,112.833 392.5,107.5C 397.833,107.5 403.167,107.5 408.5,107.5 Z"/></g>
<g><path style="opacity:1" fill="#5d5725" d="M 408.5,108.5 C 418.5,108.5 428.5,108.5 438.5,108.5C 438.5,113.5 438.5,118.5 438.5,123.5C 428.5,123.5 418.5,123.5 408.5,123.5C 408.5,118.5 408.5,113.5 408.5,108.5 Z"/></g>
<g><path style="opacity:1" fill="#877727" d="M 438.5,92.5 C 438.833,92.5 439.167,92.5 439.5,92.5C 439.5,97.5 439.5,102.5 439.5,107.5C 449.5,107.5 459.5,107.5 469.5,107.5C 469.5,102.5 469.5,97.5 469.5,92.5C 469.833,92.5 470.167,92.5 470.5,92.5C 470.5,97.8333 470.5,103.167 470.5,108.5C 460.167,108.5 449.833,108.5 439.5,108.5C 439.821,113.695 439.487,118.695 438.5,123.5C 438.5,118.5 438.5,113.5 438.5,108.5C 428.5,108.5 418.5,108.5 408.5,108.5C 408.5,108.167 408.5,107.833 408.5,107.5C 413.5,107.5 418.5,107.5 423.5,107.5C 428.5,107.5 433.5,107.5 438.5,107.5C 438.5,102.5 438.5,97.5 438.5,92.5 Z"/></g>
<g><path style="opacity:1" fill="#5c5724" d="M 439.5,92.5 C 449.5,92.5 459.5,92.5 469.5,92.5C 469.5,97.5 469.5,102.5 469.5,107.5C 459.5,107.5 449.5,107.5 439.5,107.5C 439.5,102.5 439.5,97.5 439.5,92.5 Z"/></g>
<g><path style="opacity:1" fill="#5d5725" d="M 132.5,15.5 C 137.833,15.5 143.167,15.5 148.5,15.5C 148.5,20.8333 148.5,26.1667 148.5,31.5C 153.5,31.5 158.5,31.5 163.5,31.5C 163.5,41.1667 163.5,50.8333 163.5,60.5C 168.5,60.5 173.5,60.5 178.5,60.5C 178.5,70.8333 178.5,81.1667 178.5,91.5C 183.833,91.5 189.167,91.5 194.5,91.5C 194.5,101.833 194.5,112.167 194.5,122.5C 199.5,122.5 204.5,122.5 209.5,122.5C 209.5,138.167 209.5,153.833 209.5,169.5C 204.5,169.5 199.5,169.5 194.5,169.5C 194.5,154.167 194.5,138.833 194.5,123.5C 189.167,123.5 183.833,123.5 178.5,123.5C 178.5,113.167 178.5,102.833 178.5,92.5C 173.5,92.5 168.5,92.5 163.5,92.5C 163.5,82.1667 163.5,71.8333 163.5,61.5C 158.167,61.5 152.833,61.5 147.5,61.5C 147.5,51.5 147.5,41.5 147.5,31.5C 142.5,31.5 137.5,31.5 132.5,31.5C 132.5,26.5 132.5,21.5 132.5,16.5C 132.5,16.1667 132.5,15.8333 132.5,15.5 Z"/></g>
<g><path style="opacity:1" fill="#5f5825" d="M 331.5,122.5 C 332.449,127.74 332.782,133.073 332.5,138.5C 327.167,138.5 321.833,138.5 316.5,138.5C 316.5,133.167 316.5,127.833 316.5,122.5C 321.5,122.5 326.5,122.5 331.5,122.5 Z"/></g>
<g><path style="opacity:1" fill="#651f00" d="M 70.5,123.5 C 70.5,128.5 70.5,133.5 70.5,138.5C 65.8333,138.5 61.1667,138.5 56.5,138.5C 56.5,133.5 56.5,128.5 56.5,123.5C 61.1667,123.5 65.8333,123.5 70.5,123.5 Z"/></g>
<g><path style="opacity:1" fill="#d9430c" d="M 85.5,123.5 C 95.8333,123.5 106.167,123.5 116.5,123.5C 116.5,128.5 116.5,133.5 116.5,138.5C 121.5,138.5 126.5,138.5 131.5,138.5C 131.172,149.014 131.506,159.347 132.5,169.5C 137.5,169.5 142.5,169.5 147.5,169.5C 147.5,169.833 147.5,170.167 147.5,170.5C 147.5,180.167 147.5,189.833 147.5,199.5C 142.5,199.5 137.5,199.5 132.5,199.5C 127.167,199.5 121.833,199.5 116.5,199.5C 116.5,194.833 116.5,190.167 116.5,185.5C 111.5,185.5 106.5,185.5 101.5,185.5C 101.5,180.167 101.5,174.833 101.5,169.5C 106.5,169.5 111.5,169.5 116.5,169.5C 116.5,164.5 116.5,159.5 116.5,154.5C 111.695,153.513 106.695,153.179 101.5,153.5C 101.803,148.57 101.469,143.737 100.5,139C 95.5111,138.501 90.5111,138.334 85.5,138.5C 85.5,133.5 85.5,128.5 85.5,123.5 Z"/></g>
<g><path style="opacity:1" fill="#ae300d" d="M 116.5,123.5 C 121.5,123.5 126.5,123.5 131.5,123.5C 131.833,123.5 132.167,123.5 132.5,123.5C 132.5,138.833 132.5,154.167 132.5,169.5C 131.506,159.347 131.172,149.014 131.5,138.5C 126.5,138.5 121.5,138.5 116.5,138.5C 116.5,133.5 116.5,128.5 116.5,123.5 Z"/></g>
<g><path style="opacity:1" fill="#5d5725" d="M 392.5,123.5 C 397.833,123.5 403.167,123.5 408.5,123.5C 408.5,128.5 408.5,133.5 408.5,138.5C 398.5,138.5 388.5,138.5 378.5,138.5C 378.5,133.5 378.5,128.5 378.5,123.5C 383.167,123.5 387.833,123.5 392.5,123.5 Z"/></g>
<g><path style="opacity:1" fill="#5c5724" d="M 316.5,138.5 C 316.5,138.833 316.5,139.167 316.5,139.5C 316.5,144.167 316.5,148.833 316.5,153.5C 311.167,153.5 305.833,153.5 300.5,153.5C 300.5,148.5 300.5,143.5 300.5,138.5C 305.833,138.5 311.167,138.5 316.5,138.5 Z"/></g>
<g><path style="opacity:1" fill="#98882c" d="M 378.5,138.5 C 388.5,138.5 398.5,138.5 408.5,138.5C 398.681,139.494 388.681,139.827 378.5,139.5C 373.5,139.5 368.5,139.5 363.5,139.5C 363.5,144.5 363.5,149.5 363.5,154.5C 363.5,159.5 363.5,164.5 363.5,169.5C 363.167,169.5 362.833,169.5 362.5,169.5C 362.5,164.5 362.5,159.5 362.5,154.5C 362.5,149.167 362.5,143.833 362.5,138.5C 367.833,138.5 373.167,138.5 378.5,138.5 Z"/></g>
<g><path style="opacity:1" fill="#641f00" d="M 516.5,246.5 C 516.5,246.167 516.5,245.833 516.5,245.5C 516.5,240.5 516.5,235.5 516.5,230.5C 511.5,230.5 506.5,230.5 501.5,230.5C 501.5,225.5 501.5,220.5 501.5,215.5C 506.5,215.5 511.5,215.5 516.5,215.5C 516.5,210.167 516.5,204.833 516.5,199.5C 521.833,199.5 527.167,199.5 532.5,199.5C 532.5,184.167 532.5,168.833 532.5,153.5C 527.167,153.5 521.833,153.5 516.5,153.5C 516.5,148.5 516.5,143.5 516.5,138.5C 526.5,138.5 536.5,138.5 546.5,138.5C 546.5,164.167 546.5,189.833 546.5,215.5C 541.833,215.5 537.167,215.5 532.5,215.5C 532.5,225.833 532.5,236.167 532.5,246.5C 527.167,246.5 521.833,246.5 516.5,246.5 Z"/></g>
<g><path style="opacity:1" fill="#c63c0b" d="M 70.5,123.5 C 75.5,123.5 80.5,123.5 85.5,123.5C 85.5,128.5 85.5,133.5 85.5,138.5C 90.5111,138.334 95.5111,138.501 100.5,139C 101.469,143.737 101.803,148.57 101.5,153.5C 106.695,153.179 111.695,153.513 116.5,154.5C 111.167,154.5 105.833,154.5 100.5,154.5C 95.5,154.5 90.5,154.5 85.5,154.5C 85.5,149.5 85.5,144.5 85.5,139.5C 80.5,139.5 75.5,139.5 70.5,139.5C 70.5,144.5 70.5,149.5 70.5,154.5C 65.9296,153.559 61.263,153.226 56.5,153.5C 56.5,148.5 56.5,143.5 56.5,138.5C 61.1667,138.5 65.8333,138.5 70.5,138.5C 70.5,133.5 70.5,128.5 70.5,123.5 Z"/></g>
<g><path style="opacity:1" fill="#651f00" d="M 85.5,154.5 C 80.5,154.5 75.5,154.5 70.5,154.5C 70.5,149.5 70.5,144.5 70.5,139.5C 75.5,139.5 80.5,139.5 85.5,139.5C 85.5,144.5 85.5,149.5 85.5,154.5 Z"/></g>
<g><path style="opacity:1" fill="#5e5825" d="M 378.5,139.5 C 378.5,144.5 378.5,149.5 378.5,154.5C 373.5,154.5 368.5,154.5 363.5,154.5C 363.5,149.5 363.5,144.5 363.5,139.5C 368.5,139.5 373.5,139.5 378.5,139.5 Z"/></g>
<g><path style="opacity:1" fill="#5d5624" d="M 300.5,153.5 C 300.5,158.833 300.5,164.167 300.5,169.5C 295.5,169.5 290.5,169.5 285.5,169.5C 285.5,164.167 285.5,158.833 285.5,153.5C 290.5,153.5 295.5,153.5 300.5,153.5 Z"/></g>
<g><path style="opacity:1" fill="#ae2b0b" d="M 25.5,154.5 C 30.5,154.5 35.5,154.5 40.5,154.5C 40.5,159.5 40.5,164.5 40.5,169.5C 40.5,164.5 40.5,159.5 40.5,154.5C 35.5,154.5 30.5,154.5 25.5,154.5 Z"/></g>
<g><path style="opacity:1" fill="#c73e0b" d="M 70.5,154.5 C 75.5,154.5 80.5,154.5 85.5,154.5C 85.5,159.5 85.5,164.5 85.5,169.5C 80.5,169.5 75.5,169.5 70.5,169.5C 70.5,164.5 70.5,159.5 70.5,154.5 Z"/></g>
<g><path style="opacity:1" fill="#641f00" d="M 85.5,154.5 C 90.5,154.5 95.5,154.5 100.5,154.5C 100.172,165.014 100.506,175.347 101.5,185.5C 106.5,185.5 111.5,185.5 116.5,185.5C 116.5,190.167 116.5,194.833 116.5,199.5C 121.833,199.5 127.167,199.5 132.5,199.5C 132.5,204.5 132.5,209.5 132.5,214.5C 122.167,214.5 111.833,214.5 101.5,214.5C 101.5,209.5 101.5,204.5 101.5,199.5C 96.1667,199.5 90.8333,199.5 85.5,199.5C 85.5,189.5 85.5,179.5 85.5,169.5C 85.5,164.5 85.5,159.5 85.5,154.5 Z"/></g>
<g><path style="opacity:1" fill="#aa2a0a" d="M 100.5,154.5 C 105.833,154.5 111.167,154.5 116.5,154.5C 116.5,159.5 116.5,164.5 116.5,169.5C 111.5,169.5 106.5,169.5 101.5,169.5C 101.5,174.833 101.5,180.167 101.5,185.5C 100.506,175.347 100.172,165.014 100.5,154.5 Z"/></g>
<g><path style="opacity:1" fill="#8f7e2a" d="M 300.5,153.5 C 305.833,153.5 311.167,153.5 316.5,153.5C 311.695,154.487 306.695,154.821 301.5,154.5C 301.821,159.695 301.487,164.695 300.5,169.5C 300.5,164.167 300.5,158.833 300.5,153.5 Z"/></g>
<g><path style="opacity:1" fill="#5d5725" d="M 362.5,154.5 C 362.5,159.5 362.5,164.5 362.5,169.5C 362.5,174.5 362.5,179.5 362.5,184.5C 357.305,184.179 352.305,184.513 347.5,185.5C 347.5,190.167 347.5,194.833 347.5,199.5C 337.167,199.5 326.833,199.5 316.5,199.5C 316.5,194.833 316.5,190.167 316.5,185.5C 321.833,185.5 327.167,185.5 332.5,185.5C 332.5,180.167 332.5,174.833 332.5,169.5C 337.5,169.5 342.5,169.5 347.5,169.5C 347.5,164.5 347.5,159.5 347.5,154.5C 352.5,154.5 357.5,154.5 362.5,154.5 Z"/></g>
<g><path style="opacity:1" fill="#af2b0c" d="M 470.5,154.5 C 475.833,154.5 481.167,154.5 486.5,154.5C 486.5,159.5 486.5,164.5 486.5,169.5C 486.167,169.5 485.833,169.5 485.5,169.5C 475.167,169.5 464.833,169.5 454.5,169.5C 433.833,169.5 413.167,169.5 392.5,169.5C 392.5,164.5 392.5,159.5 392.5,154.5C 418.5,154.5 444.5,154.5 470.5,154.5 Z"/></g>
<g><path style="opacity:1" fill="#d9430c" d="M 516.5,199.5 C 516.5,204.833 516.5,210.167 516.5,215.5C 511.5,215.5 506.5,215.5 501.5,215.5C 501.167,215.5 500.833,215.5 500.5,215.5C 495.5,215.5 490.5,215.5 485.5,215.5C 485.5,220.5 485.5,225.5 485.5,230.5C 480.5,230.5 475.5,230.5 470.5,230.5C 470.5,235.5 470.5,240.5 470.5,245.5C 480.319,246.494 490.319,246.827 500.5,246.5C 500.5,251.5 500.5,256.5 500.5,261.5C 495.5,261.5 490.5,261.5 485.5,261.5C 485.5,266.5 485.5,271.5 485.5,276.5C 485.5,276.833 485.5,277.167 485.5,277.5C 480.5,277.5 475.5,277.5 470.5,277.5C 470.5,282.5 470.5,287.5 470.5,292.5C 460.167,292.5 449.833,292.5 439.5,292.5C 439.167,292.5 438.833,292.5 438.5,292.5C 428.5,292.5 418.5,292.5 408.5,292.5C 408.5,297.5 408.5,302.5 408.5,307.5C 403.167,307.5 397.833,307.5 392.5,307.5C 377.5,307.5 362.5,307.5 347.5,307.5C 342.5,307.5 337.5,307.5 332.5,307.5C 332.5,302.5 332.5,297.5 332.5,292.5C 327.167,292.5 321.833,292.5 316.5,292.5C 316.5,287.167 316.5,281.833 316.5,276.5C 316.5,271.5 316.5,266.5 316.5,261.5C 311.5,261.5 306.5,261.5 301.5,261.5C 301.5,251.167 301.5,240.833 301.5,230.5C 306.5,230.5 311.5,230.5 316.5,230.5C 316.5,220.167 316.5,209.833 316.5,199.5C 326.833,199.5 337.167,199.5 347.5,199.5C 352.5,199.5 357.5,199.5 362.5,199.5C 362.5,194.833 362.5,190.167 362.5,185.5C 362.833,185.5 363.167,185.5 363.5,185.5C 373.167,185.5 382.833,185.5 392.5,185.5C 393.487,180.695 393.821,175.695 393.5,170.5C 408.833,170.5 424.167,170.5 439.5,170.5C 439.5,175.167 439.5,179.833 439.5,184.5C 428.986,184.172 418.653,184.506 408.5,185.5C 408.5,190.167 408.5,194.833 408.5,199.5C 413.5,199.5 418.5,199.5 423.5,199.5C 423.5,204.5 423.5,209.5 423.5,214.5C 412.986,214.172 402.653,214.506 392.5,215.5C 387.833,215.5 383.167,215.5 378.5,215.5C 378.5,220.5 378.5,225.5 378.5,230.5C 373.5,230.5 368.5,230.5 363.5,230.5C 358.167,230.5 352.833,230.5 347.5,230.5C 347.5,235.5 347.5,240.5 347.5,245.5C 362.664,246.511 377.664,246.511 392.5,245.5C 397.5,245.5 402.5,245.5 407.5,245.5C 407.5,240.5 407.5,235.5 407.5,230.5C 412.833,230.5 418.167,230.5 423.5,230.5C 428.833,230.5 434.167,230.5 439.5,230.5C 439.5,225.167 439.5,219.833 439.5,214.5C 439.5,209.5 439.5,204.5 439.5,199.5C 444.5,199.5 449.5,199.5 454.5,199.5C 459.5,199.5 464.5,199.5 469.5,199.5C 469.5,194.833 469.5,190.167 469.5,185.5C 480.167,185.5 490.833,185.5 501.5,185.5C 501.5,180.167 501.5,174.833 501.5,169.5C 506.5,169.5 511.5,169.5 516.5,169.5C 516.5,164.5 516.5,159.5 516.5,154.5C 521.5,154.5 526.5,154.5 531.5,154.5C 531.5,164.833 531.5,175.167 531.5,185.5C 526.5,185.5 521.5,185.5 516.5,185.5C 516.5,190.167 516.5,194.833 516.5,199.5 Z"/></g>
<g><path style="opacity:1" fill="#5c5724" d="M 285.5,169.5 C 285.5,174.5 285.5,179.5 285.5,184.5C 280.167,184.5 274.833,184.5 269.5,184.5C 269.5,179.5 269.5,174.5 269.5,169.5C 274.833,169.5 280.167,169.5 285.5,169.5 Z"/></g>
<g><path style="opacity:1" fill="#7b2200" d="M 454.5,169.5 C 464.833,169.5 475.167,169.5 485.5,169.5C 475.681,170.494 465.681,170.827 455.5,170.5C 455.5,175.167 455.5,179.833 455.5,184.5C 470.5,184.5 485.5,184.5 500.5,184.5C 500.5,179.5 500.5,174.5 500.5,169.5C 500.833,169.5 501.167,169.5 501.5,169.5C 501.5,174.833 501.5,180.167 501.5,185.5C 490.833,185.5 480.167,185.5 469.5,185.5C 464.5,185.5 459.5,185.5 454.5,185.5C 454.5,180.167 454.5,174.833 454.5,169.5 Z"/></g>
<g><path style="opacity:1" fill="#631f00" d="M 485.5,169.5 C 485.833,169.5 486.167,169.5 486.5,169.5C 491.167,169.5 495.833,169.5 500.5,169.5C 500.5,174.5 500.5,179.5 500.5,184.5C 485.5,184.5 470.5,184.5 455.5,184.5C 455.5,179.833 455.5,175.167 455.5,170.5C 465.681,170.827 475.681,170.494 485.5,169.5 Z"/></g>
<g><path style="opacity:1" fill="#5e5624" d="M 147.5,170.5 C 152.5,170.5 157.5,170.5 162.5,170.5C 162.5,190.5 162.5,210.5 162.5,230.5C 157.5,230.5 152.5,230.5 147.5,230.5C 147.5,225.167 147.5,219.833 147.5,214.5C 147.5,209.5 147.5,204.5 147.5,199.5C 147.5,189.833 147.5,180.167 147.5,170.5 Z"/></g>
<g><path style="opacity:1" fill="#907d2a" d="M 147.5,170.5 C 147.5,170.167 147.5,169.833 147.5,169.5C 152.833,169.5 158.167,169.5 163.5,169.5C 163.5,184.833 163.5,200.167 163.5,215.5C 163.5,220.5 163.5,225.5 163.5,230.5C 163.167,230.5 162.833,230.5 162.5,230.5C 162.5,210.5 162.5,190.5 162.5,170.5C 157.5,170.5 152.5,170.5 147.5,170.5 Z"/></g>
<g><path style="opacity:1" fill="#af2d0c" d="M 363.5,169.5 C 373.167,169.5 382.833,169.5 392.5,169.5C 392.5,174.833 392.5,180.167 392.5,185.5C 382.833,185.5 373.167,185.5 363.5,185.5C 363.5,180.167 363.5,174.833 363.5,169.5 Z"/></g>
<g><path style="opacity:1" fill="#c73d0b" d="M 392.5,169.5 C 413.167,169.5 433.833,169.5 454.5,169.5C 454.5,174.833 454.5,180.167 454.5,185.5C 444.167,185.5 433.833,185.5 423.5,185.5C 418.5,185.5 413.5,185.5 408.5,185.5C 418.653,184.506 428.986,184.172 439.5,184.5C 439.5,179.833 439.5,175.167 439.5,170.5C 424.167,170.5 408.833,170.5 393.5,170.5C 393.821,175.695 393.487,180.695 392.5,185.5C 392.5,180.167 392.5,174.833 392.5,169.5 Z"/></g>
<g><path style="opacity:1" fill="#5d5724" d="M 209.5,169.5 C 214.5,169.5 219.5,169.5 224.5,169.5C 224.5,179.5 224.5,189.5 224.5,199.5C 234.5,199.5 244.5,199.5 254.5,199.5C 254.5,194.5 254.5,189.5 254.5,184.5C 259.5,184.5 264.5,184.5 269.5,184.5C 269.5,194.5 269.5,204.5 269.5,214.5C 264.305,214.179 259.305,214.513 254.5,215.5C 254.5,225.5 254.5,235.5 254.5,245.5C 249.5,245.5 244.5,245.5 239.5,245.5C 239.5,235.167 239.5,224.833 239.5,214.5C 234.167,214.5 228.833,214.5 223.5,214.5C 223.5,209.5 223.5,204.5 223.5,199.5C 218.833,199.5 214.167,199.5 209.5,199.5C 209.5,189.5 209.5,179.5 209.5,169.5 Z"/></g>
<g><path style="opacity:1" fill="#77471d" d="M 362.5,169.5 C 362.833,169.5 363.167,169.5 363.5,169.5C 363.5,174.833 363.5,180.167 363.5,185.5C 363.167,185.5 362.833,185.5 362.5,185.5C 357.5,185.5 352.5,185.5 347.5,185.5C 352.305,184.513 357.305,184.179 362.5,184.5C 362.5,179.5 362.5,174.5 362.5,169.5 Z"/></g>
<g><path style="opacity:1" fill="#ae2b0b" d="M 24.5,185.5 C 29.8333,185.5 35.1667,185.5 40.5,185.5C 40.5,190.167 40.5,194.833 40.5,199.5C 45.5,199.5 50.5,199.5 55.5,199.5C 55.5,204.5 55.5,209.5 55.5,214.5C 50.3054,214.179 45.3054,214.513 40.5,215.5C 35.1667,215.5 29.8333,215.5 24.5,215.5C 24.5,205.5 24.5,195.5 24.5,185.5 Z"/></g>
<g><path style="opacity:1" fill="#631f00" d="M 40.5,185.5 C 45.5,185.5 50.5,185.5 55.5,185.5C 55.5,190.167 55.5,194.833 55.5,199.5C 50.5,199.5 45.5,199.5 40.5,199.5C 40.5,194.833 40.5,190.167 40.5,185.5 Z"/></g>
<g><path style="opacity:1" fill="#95842c" d="M 269.5,184.5 C 274.833,184.5 280.167,184.5 285.5,184.5C 280.695,185.487 275.695,185.821 270.5,185.5C 270.5,195.5 270.5,205.5 270.5,215.5C 265.167,215.5 259.833,215.5 254.5,215.5C 259.305,214.513 264.305,214.179 269.5,214.5C 269.5,204.5 269.5,194.5 269.5,184.5 Z"/></g>
<g><path style="opacity:1" fill="#ae2b0b" d="M 347.5,185.5 C 352.5,185.5 357.5,185.5 362.5,185.5C 362.5,190.167 362.5,194.833 362.5,199.5C 357.5,199.5 352.5,199.5 347.5,199.5C 347.5,194.833 347.5,190.167 347.5,185.5 Z"/></g>
<g><path style="opacity:1" fill="#ae2b0b" d="M 408.5,185.5 C 413.5,185.5 418.5,185.5 423.5,185.5C 423.5,190.167 423.5,194.833 423.5,199.5C 418.5,199.5 413.5,199.5 408.5,199.5C 408.5,194.833 408.5,190.167 408.5,185.5 Z"/></g>
<g><path style="opacity:1" fill="#651f00" d="M 423.5,185.5 C 433.833,185.5 444.167,185.5 454.5,185.5C 454.5,190.167 454.5,194.833 454.5,199.5C 449.5,199.5 444.5,199.5 439.5,199.5C 439.5,204.5 439.5,209.5 439.5,214.5C 434.167,214.5 428.833,214.5 423.5,214.5C 423.5,209.5 423.5,204.5 423.5,199.5C 423.5,194.833 423.5,190.167 423.5,185.5 Z"/></g>
<g><path style="opacity:1" fill="#c03d0b" d="M 454.5,185.5 C 459.5,185.5 464.5,185.5 469.5,185.5C 469.5,190.167 469.5,194.833 469.5,199.5C 464.5,199.5 459.5,199.5 454.5,199.5C 454.5,194.833 454.5,190.167 454.5,185.5 Z"/></g>
<g><path style="opacity:1" fill="#ad2b0b" d="M 516.5,153.5 C 521.833,153.5 527.167,153.5 532.5,153.5C 532.5,168.833 532.5,184.167 532.5,199.5C 527.167,199.5 521.833,199.5 516.5,199.5C 516.5,194.833 516.5,190.167 516.5,185.5C 521.5,185.5 526.5,185.5 531.5,185.5C 531.5,175.167 531.5,164.833 531.5,154.5C 526.5,154.5 521.5,154.5 516.5,154.5C 516.5,159.5 516.5,164.5 516.5,169.5C 511.5,169.5 506.5,169.5 501.5,169.5C 501.167,169.5 500.833,169.5 500.5,169.5C 500.5,164.167 500.5,158.833 500.5,153.5C 505.833,153.5 511.167,153.5 516.5,153.5 Z"/></g>
<g><path style="opacity:1" fill="#872504" d="M 55.5,185.5 C 56.4861,189.97 56.8195,194.637 56.5,199.5C 56.5,204.5 56.5,209.5 56.5,214.5C 60.8333,214.5 65.1667,214.5 69.5,214.5C 69.5,209.5 69.5,204.5 69.5,199.5C 70.4881,204.64 70.8214,209.974 70.5,215.5C 65.8333,215.5 61.1667,215.5 56.5,215.5C 56.5,225.5 56.5,235.5 56.5,245.5C 61.1667,245.5 65.8333,245.5 70.5,245.5C 70.5,250.833 70.5,256.167 70.5,261.5C 70.1667,261.5 69.8333,261.5 69.5,261.5C 69.5,256.5 69.5,251.5 69.5,246.5C 64.8333,246.5 60.1667,246.5 55.5,246.5C 55.5,236.167 55.5,225.833 55.5,215.5C 50.5,215.5 45.5,215.5 40.5,215.5C 45.3054,214.513 50.3054,214.179 55.5,214.5C 55.5,209.5 55.5,204.5 55.5,199.5C 55.5,194.833 55.5,190.167 55.5,185.5 Z"/></g>
<g><path style="opacity:1" fill="#631f00" d="M 56.5,199.5 C 60.8333,199.5 65.1667,199.5 69.5,199.5C 69.5,204.5 69.5,209.5 69.5,214.5C 65.1667,214.5 60.8333,214.5 56.5,214.5C 56.5,209.5 56.5,204.5 56.5,199.5 Z"/></g>
<g><path style="opacity:1" fill="#ae2b0b" d="M 132.5,199.5 C 137.5,199.5 142.5,199.5 147.5,199.5C 147.5,204.5 147.5,209.5 147.5,214.5C 142.5,214.5 137.5,214.5 132.5,214.5C 132.5,209.5 132.5,204.5 132.5,199.5 Z"/></g>
<g><path style="opacity:1" fill="#bca32c" d="M 209.5,199.5 C 214.167,199.5 218.833,199.5 223.5,199.5C 223.5,204.5 223.5,209.5 223.5,214.5C 228.833,214.5 234.167,214.5 239.5,214.5C 239.5,224.833 239.5,235.167 239.5,245.5C 238.506,235.681 238.173,225.681 238.5,215.5C 223.833,215.5 209.167,215.5 194.5,215.5C 194.5,210.167 194.5,204.833 194.5,199.5C 199.5,199.5 204.5,199.5 209.5,199.5 Z"/></g>
<g><path style="opacity:1" fill="#5d5624" d="M 316.5,199.5 C 316.5,209.833 316.5,220.167 316.5,230.5C 311.5,230.5 306.5,230.5 301.5,230.5C 301.5,220.167 301.5,209.833 301.5,199.5C 306.5,199.5 311.5,199.5 316.5,199.5 Z"/></g>
<g><path style="opacity:1" fill="#631f00" d="M 40.5,215.5 C 45.5,215.5 50.5,215.5 55.5,215.5C 55.5,225.833 55.5,236.167 55.5,246.5C 50.5,246.5 45.5,246.5 40.5,246.5C 40.5,236.167 40.5,225.833 40.5,215.5 Z"/></g>
<g><path style="opacity:1" fill="#af2b0c" d="M 70.5,215.5 C 70.5,220.5 70.5,225.5 70.5,230.5C 75.5,230.5 80.5,230.5 85.5,230.5C 85.5,235.5 85.5,240.5 85.5,245.5C 95.8333,245.5 106.167,245.5 116.5,245.5C 116.5,245.833 116.5,246.167 116.5,246.5C 116.5,251.5 116.5,256.5 116.5,261.5C 111.5,261.5 106.5,261.5 101.5,261.5C 100.513,266.305 100.179,271.305 100.5,276.5C 95.5,276.5 90.5,276.5 85.5,276.5C 85.5,271.5 85.5,266.5 85.5,261.5C 80.5,261.5 75.5,261.5 70.5,261.5C 70.5,256.167 70.5,250.833 70.5,245.5C 65.8333,245.5 61.1667,245.5 56.5,245.5C 56.5,235.5 56.5,225.5 56.5,215.5C 61.1667,215.5 65.8333,215.5 70.5,215.5 Z"/></g>
<g><path style="opacity:1" fill="#bba22b" d="M 163.5,215.5 C 168.5,215.5 173.5,215.5 178.5,215.5C 178.5,220.5 178.5,225.5 178.5,230.5C 173.5,230.5 168.5,230.5 163.5,230.5C 163.5,225.5 163.5,220.5 163.5,215.5 Z"/></g>
<g><path style="opacity:1" fill="#c73d0b" d="M 392.5,215.5 C 392.5,220.5 392.5,225.5 392.5,230.5C 387.833,230.5 383.167,230.5 378.5,230.5C 378.5,225.5 378.5,220.5 378.5,215.5C 383.167,215.5 387.833,215.5 392.5,215.5 Z"/></g>
<g><path style="opacity:1" fill="#651f00" d="M 392.5,215.5 C 402.833,215.5 413.167,215.5 423.5,215.5C 423.5,220.5 423.5,225.5 423.5,230.5C 418.167,230.5 412.833,230.5 407.5,230.5C 402.5,230.5 397.5,230.5 392.5,230.5C 392.5,225.5 392.5,220.5 392.5,215.5 Z"/></g>
<g><path style="opacity:1" fill="#bd3706" d="M 392.5,215.5 C 402.653,214.506 412.986,214.172 423.5,214.5C 428.833,214.5 434.167,214.5 439.5,214.5C 439.5,219.833 439.5,225.167 439.5,230.5C 434.167,230.5 428.833,230.5 423.5,230.5C 423.5,225.5 423.5,220.5 423.5,215.5C 413.167,215.5 402.833,215.5 392.5,215.5 Z"/></g>
<g><path style="opacity:1" fill="#c03d0b" d="M 500.5,215.5 C 500.5,220.5 500.5,225.5 500.5,230.5C 495.5,230.5 490.5,230.5 485.5,230.5C 485.5,225.5 485.5,220.5 485.5,215.5C 490.5,215.5 495.5,215.5 500.5,215.5 Z"/></g>
<g><path style="opacity:1" fill="#5c5724" d="M 132.5,230.5 C 137.5,230.5 142.5,230.5 147.5,230.5C 147.5,235.5 147.5,240.5 147.5,245.5C 142.5,245.5 137.5,245.5 132.5,245.5C 132.5,240.5 132.5,235.5 132.5,230.5 Z"/></g>
<g><path style="opacity:1" fill="#615724" d="M 301.5,230.5 C 301.5,240.833 301.5,251.167 301.5,261.5C 301.5,266.5 301.5,271.5 301.5,276.5C 296.167,276.5 290.833,276.5 285.5,276.5C 285.5,261.167 285.5,245.833 285.5,230.5C 290.833,230.5 296.167,230.5 301.5,230.5 Z"/></g>
<g><path style="opacity:1" fill="#ac2c0b" d="M 363.5,230.5 C 363.5,235.5 363.5,240.5 363.5,245.5C 373.167,245.5 382.833,245.5 392.5,245.5C 377.664,246.511 362.664,246.511 347.5,245.5C 347.5,240.5 347.5,235.5 347.5,230.5C 352.833,230.5 358.167,230.5 363.5,230.5 Z"/></g>
<g><path style="opacity:1" fill="#631f00" d="M 363.5,230.5 C 368.5,230.5 373.5,230.5 378.5,230.5C 383.167,230.5 387.833,230.5 392.5,230.5C 392.5,235.5 392.5,240.5 392.5,245.5C 382.833,245.5 373.167,245.5 363.5,245.5C 363.5,240.5 363.5,235.5 363.5,230.5 Z"/></g>
<g><path style="opacity:1" fill="#c63d0b" d="M 392.5,230.5 C 397.5,230.5 402.5,230.5 407.5,230.5C 407.5,235.5 407.5,240.5 407.5,245.5C 402.5,245.5 397.5,245.5 392.5,245.5C 392.5,240.5 392.5,235.5 392.5,230.5 Z"/></g>
<g><path style="opacity:1" fill="#631f00" d="M 485.5,230.5 C 490.5,230.5 495.5,230.5 500.5,230.5C 500.5,235.5 500.5,240.5 500.5,245.5C 490.5,245.5 480.5,245.5 470.5,245.5C 470.5,240.5 470.5,235.5 470.5,230.5C 475.5,230.5 480.5,230.5 485.5,230.5 Z"/></g>
<g><path style="opacity:1" fill="#992f03" d="M 500.5,215.5 C 500.833,215.5 501.167,215.5 501.5,215.5C 501.5,220.5 501.5,225.5 501.5,230.5C 506.5,230.5 511.5,230.5 516.5,230.5C 516.5,235.5 516.5,240.5 516.5,245.5C 516.5,245.833 516.5,246.167 516.5,246.5C 511.5,246.5 506.5,246.5 501.5,246.5C 501.827,256.681 501.494,266.681 500.5,276.5C 500.5,271.5 500.5,266.5 500.5,261.5C 500.5,256.5 500.5,251.5 500.5,246.5C 490.319,246.827 480.319,246.494 470.5,245.5C 480.5,245.5 490.5,245.5 500.5,245.5C 500.5,240.5 500.5,235.5 500.5,230.5C 500.5,225.5 500.5,220.5 500.5,215.5 Z"/></g>
<g><path style="opacity:1" fill="#c73e0b" d="M 501.5,230.5 C 506.5,230.5 511.5,230.5 516.5,230.5C 516.5,235.5 516.5,240.5 516.5,245.5C 511.5,245.5 506.5,245.5 501.5,245.5C 501.5,240.5 501.5,235.5 501.5,230.5 Z"/></g>
<g><path style="opacity:1" fill="#9a5019" d="M 132.5,230.5 C 132.5,235.5 132.5,240.5 132.5,245.5C 132.5,245.833 132.5,246.167 132.5,246.5C 127.167,246.5 121.833,246.5 116.5,246.5C 116.5,246.167 116.5,245.833 116.5,245.5C 121.5,245.5 126.5,245.5 131.5,245.5C 131.179,240.305 131.513,235.305 132.5,230.5 Z"/></g>
<g><path style="opacity:1" fill="#631f00" d="M 55.5,246.5 C 60.1667,246.5 64.8333,246.5 69.5,246.5C 69.5,251.5 69.5,256.5 69.5,261.5C 64.8333,261.5 60.1667,261.5 55.5,261.5C 55.5,256.5 55.5,251.5 55.5,246.5 Z"/></g>
<g><path style="opacity:1" fill="#605924" d="M 116.5,246.5 C 121.833,246.5 127.167,246.5 132.5,246.5C 132.5,251.5 132.5,256.5 132.5,261.5C 127.167,261.5 121.833,261.5 116.5,261.5C 116.5,256.5 116.5,251.5 116.5,246.5 Z"/></g>
<g><path style="opacity:1" fill="#b9a02b" d="M 239.5,245.5 C 244.5,245.5 249.5,245.5 254.5,245.5C 254.5,250.833 254.5,256.167 254.5,261.5C 249.5,261.5 244.5,261.5 239.5,261.5C 239.5,256.167 239.5,250.833 239.5,245.5 Z"/></g>
<g><path style="opacity:1" fill="#662202" d="M 69.5,261.5 C 69.8333,261.5 70.1667,261.5 70.5,261.5C 75.5,261.5 80.5,261.5 85.5,261.5C 85.5,266.5 85.5,271.5 85.5,276.5C 90.5,276.5 95.5,276.5 100.5,276.5C 100.179,271.305 100.513,266.305 101.5,261.5C 101.5,266.5 101.5,271.5 101.5,276.5C 101.5,276.833 101.5,277.167 101.5,277.5C 96.1667,277.5 90.8333,277.5 85.5,277.5C 80.1667,277.5 74.8333,277.5 69.5,277.5C 69.5,272.167 69.5,266.833 69.5,261.5 Z"/></g>
<g><path style="opacity:1" fill="#5c5724" d="M 101.5,261.5 C 106.5,261.5 111.5,261.5 116.5,261.5C 116.5,266.5 116.5,271.5 116.5,276.5C 111.5,276.5 106.5,276.5 101.5,276.5C 101.5,271.5 101.5,266.5 101.5,261.5 Z"/></g>
<g><path style="opacity:1" fill="#ae2b0b" d="M 301.5,261.5 C 306.5,261.5 311.5,261.5 316.5,261.5C 316.5,266.5 316.5,271.5 316.5,276.5C 311.5,276.5 306.5,276.5 301.5,276.5C 301.5,271.5 301.5,266.5 301.5,261.5 Z"/></g>
<g><path style="opacity:1" fill="#af2b0c" d="M 500.5,261.5 C 500.5,266.5 500.5,271.5 500.5,276.5C 495.5,276.5 490.5,276.5 485.5,276.5C 485.5,271.5 485.5,266.5 485.5,261.5C 490.5,261.5 495.5,261.5 500.5,261.5 Z"/></g>
<g><path style="opacity:1" fill="#5f5825" d="M 85.5,277.5 C 90.8333,277.5 96.1667,277.5 101.5,277.5C 101.5,287.5 101.5,297.5 101.5,307.5C 96.1667,307.5 90.8333,307.5 85.5,307.5C 85.5,297.5 85.5,287.5 85.5,277.5 Z"/></g>
<g><path style="opacity:1" fill="#b9a12b" d="M 101.5,276.5 C 106.5,276.5 111.5,276.5 116.5,276.5C 116.5,286.833 116.5,297.167 116.5,307.5C 111.5,307.5 106.5,307.5 101.5,307.5C 101.5,297.5 101.5,287.5 101.5,277.5C 101.5,277.167 101.5,276.833 101.5,276.5 Z"/></g>
<g><path style="opacity:1" fill="#bda32b" d="M 147.5,276.5 C 152.833,276.5 158.167,276.5 163.5,276.5C 163.5,286.833 163.5,297.167 163.5,307.5C 158.167,307.5 152.833,307.5 147.5,307.5C 147.5,297.167 147.5,286.833 147.5,276.5 Z"/></g>
<g><path style="opacity:1" fill="#b79f2b" d="M 285.5,276.5 C 290.833,276.5 296.167,276.5 301.5,276.5C 301.5,281.833 301.5,287.167 301.5,292.5C 296.167,292.5 290.833,292.5 285.5,292.5C 285.5,287.167 285.5,281.833 285.5,276.5 Z"/></g>
<g><path style="opacity:1" fill="#605624" d="M 301.5,276.5 C 306.5,276.5 311.5,276.5 316.5,276.5C 316.5,281.833 316.5,287.167 316.5,292.5C 311.5,292.5 306.5,292.5 301.5,292.5C 301.5,287.167 301.5,281.833 301.5,276.5 Z"/></g>
<g><path style="opacity:1" fill="#ae2b0c" d="M 485.5,277.5 C 485.5,282.5 485.5,287.5 485.5,292.5C 480.5,292.5 475.5,292.5 470.5,292.5C 470.5,287.5 470.5,282.5 470.5,277.5C 475.5,277.5 480.5,277.5 485.5,277.5 Z"/></g>
<g><path style="opacity:1" fill="#615724" d="M 316.5,292.5 C 321.833,292.5 327.167,292.5 332.5,292.5C 332.5,297.5 332.5,302.5 332.5,307.5C 327.167,307.5 321.833,307.5 316.5,307.5C 316.5,302.5 316.5,297.5 316.5,292.5 Z"/></g>
<g><path style="opacity:1" fill="#ae2b0b" d="M 438.5,292.5 C 438.5,297.5 438.5,302.5 438.5,307.5C 428.5,307.5 418.5,307.5 408.5,307.5C 408.5,302.5 408.5,297.5 408.5,292.5C 418.5,292.5 428.5,292.5 438.5,292.5 Z"/></g>
<g><path style="opacity:1" fill="#641f00" d="M 516.5,246.5 C 516.5,256.833 516.5,267.167 516.5,277.5C 511.5,277.5 506.5,277.5 501.5,277.5C 501.5,282.5 501.5,287.5 501.5,292.5C 496.5,292.5 491.5,292.5 486.5,292.5C 486.5,297.833 486.5,303.167 486.5,308.5C 476.167,308.5 465.833,308.5 455.5,308.5C 455.5,313.5 455.5,318.5 455.5,323.5C 439.833,323.5 424.167,323.5 408.5,323.5C 408.5,328.5 408.5,333.5 408.5,338.5C 403.167,338.5 397.833,338.5 392.5,338.5C 392.5,333.5 392.5,328.5 392.5,323.5C 393.487,318.695 393.821,313.695 393.5,308.5C 408.833,308.5 424.167,308.5 439.5,308.5C 439.5,303.167 439.5,297.833 439.5,292.5C 449.833,292.5 460.167,292.5 470.5,292.5C 475.5,292.5 480.5,292.5 485.5,292.5C 485.5,287.5 485.5,282.5 485.5,277.5C 485.5,277.167 485.5,276.833 485.5,276.5C 490.5,276.5 495.5,276.5 500.5,276.5C 501.494,266.681 501.827,256.681 501.5,246.5C 506.5,246.5 511.5,246.5 516.5,246.5 Z"/></g>
<g><path style="opacity:1" fill="#872a05" d="M 438.5,292.5 C 438.833,292.5 439.167,292.5 439.5,292.5C 439.5,297.833 439.5,303.167 439.5,308.5C 424.167,308.5 408.833,308.5 393.5,308.5C 393.821,313.695 393.487,318.695 392.5,323.5C 377.5,323.5 362.5,323.5 347.5,323.5C 347.5,323.167 347.5,322.833 347.5,322.5C 362.5,322.5 377.5,322.5 392.5,322.5C 392.5,317.5 392.5,312.5 392.5,307.5C 397.833,307.5 403.167,307.5 408.5,307.5C 418.5,307.5 428.5,307.5 438.5,307.5C 438.5,302.5 438.5,297.5 438.5,292.5 Z"/></g>
<g><path style="opacity:1" fill="#090401" d="M 85.5,307.5 C 90.8333,307.5 96.1667,307.5 101.5,307.5C 101.782,312.927 101.449,318.26 100.5,323.5C 95.5,323.5 90.5,323.5 85.5,323.5C 85.5,323.167 85.5,322.833 85.5,322.5C 85.5,317.5 85.5,312.5 85.5,307.5 Z"/></g>
<g><path style="opacity:1" fill="#5f5724" d="M 101.5,307.5 C 106.5,307.5 111.5,307.5 116.5,307.5C 116.5,312.833 116.5,318.167 116.5,323.5C 111.5,323.5 106.5,323.5 101.5,323.5C 101.167,323.5 100.833,323.5 100.5,323.5C 101.449,318.26 101.782,312.927 101.5,307.5 Z"/></g>
<g><path style="opacity:1" fill="#baa22a" d="M 132.5,352.5 C 132.5,347.833 132.5,343.167 132.5,338.5C 132.5,328.5 132.5,318.5 132.5,308.5C 137.5,308.5 142.5,308.5 147.5,308.5C 147.5,323.167 147.5,337.833 147.5,352.5C 142.5,352.5 137.5,352.5 132.5,352.5 Z"/></g>
<g><path style="opacity:1" fill="#bca32c" d="M 254.5,323.5 C 249.5,323.5 244.5,323.5 239.5,323.5C 234.167,323.5 228.833,323.5 223.5,323.5C 213.5,323.5 203.5,323.5 193.5,323.5C 193.5,333.167 193.5,342.833 193.5,352.5C 188.5,352.5 183.5,352.5 178.5,352.5C 173.5,352.5 168.5,352.5 163.5,352.5C 163.5,347.833 163.5,343.167 163.5,338.5C 168.5,338.5 173.5,338.5 178.5,338.5C 178.5,328.167 178.5,317.833 178.5,307.5C 183.833,307.5 189.167,307.5 194.5,307.5C 194.5,312.5 194.5,317.5 194.5,322.5C 214.674,322.17 234.674,322.503 254.5,323.5 Z"/></g>
<g><path style="opacity:1" fill="#baa131" d="M 316.5,307.5 C 321.833,307.5 327.167,307.5 332.5,307.5C 332.5,312.833 332.5,318.167 332.5,323.5C 331.513,318.695 331.179,313.695 331.5,308.5C 326.305,308.821 321.305,308.487 316.5,307.5 Z"/></g>
<g><path style="opacity:1" fill="#615724" d="M 332.5,307.5 C 337.5,307.5 342.5,307.5 347.5,307.5C 347.5,312.5 347.5,317.5 347.5,322.5C 347.5,322.833 347.5,323.167 347.5,323.5C 342.5,323.5 337.5,323.5 332.5,323.5C 332.5,318.167 332.5,312.833 332.5,307.5 Z"/></g>
<g><path style="opacity:1" fill="#b02b0c" d="M 347.5,307.5 C 362.5,307.5 377.5,307.5 392.5,307.5C 392.5,312.5 392.5,317.5 392.5,322.5C 377.5,322.5 362.5,322.5 347.5,322.5C 347.5,317.5 347.5,312.5 347.5,307.5 Z"/></g>
<g><path style="opacity:1" fill="#641f00" d="M 85.5,322.5 C 85.5,322.833 85.5,323.167 85.5,323.5C 85.5,328.5 85.5,333.5 85.5,338.5C 85.5,343.5 85.5,348.5 85.5,353.5C 85.5,358.5 85.5,363.5 85.5,368.5C 80.5,368.5 75.5,368.5 70.5,368.5C 70.5,363.5 70.5,358.5 70.5,353.5C 70.8205,348.305 70.4872,343.305 69.5,338.5C 69.5,333.167 69.5,327.833 69.5,322.5C 74.8333,322.5 80.1667,322.5 85.5,322.5 Z"/></g>
<g><path style="opacity:1" fill="#641f00" d="M 546.5,368.5 C 546.5,358.5 546.5,348.5 546.5,338.5C 536.5,338.5 526.5,338.5 516.5,338.5C 516.5,333.167 516.5,327.833 516.5,322.5C 531.833,322.5 547.167,322.5 562.5,322.5C 562.5,337.833 562.5,353.167 562.5,368.5C 557.167,368.5 551.833,368.5 546.5,368.5 Z"/></g>
<g><path style="opacity:1" fill="#ac2a0b" d="M 85.5,323.5 C 90.5,323.5 95.5,323.5 100.5,323.5C 100.833,323.5 101.167,323.5 101.5,323.5C 101.5,328.5 101.5,333.5 101.5,338.5C 96.1667,338.5 90.8333,338.5 85.5,338.5C 85.5,333.5 85.5,328.5 85.5,323.5 Z"/></g>
<g><path style="opacity:1" fill="#631f00" d="M 101.5,323.5 C 106.5,323.5 111.5,323.5 116.5,323.5C 116.5,328.5 116.5,333.5 116.5,338.5C 111.5,338.5 106.5,338.5 101.5,338.5C 101.5,333.5 101.5,328.5 101.5,323.5 Z"/></g>
<g><path style="opacity:1" fill="#5f5928" d="M 223.5,323.5 C 223.5,328.5 223.5,333.5 223.5,338.5C 218.833,338.5 214.167,338.5 209.5,338.5C 204.5,338.5 199.5,338.5 194.5,338.5C 194.5,343.167 194.5,347.833 194.5,352.5C 199.5,352.5 204.5,352.5 209.5,352.5C 209.5,352.833 209.5,353.167 209.5,353.5C 204.5,353.5 199.5,353.5 194.5,353.5C 194.5,358.5 194.5,363.5 194.5,368.5C 194.167,368.5 193.833,368.5 193.5,368.5C 193.5,363.5 193.5,358.5 193.5,353.5C 188.5,353.5 183.5,353.5 178.5,353.5C 178.5,353.167 178.5,352.833 178.5,352.5C 183.5,352.5 188.5,352.5 193.5,352.5C 193.5,342.833 193.5,333.167 193.5,323.5C 203.5,323.5 213.5,323.5 223.5,323.5 Z"/></g>
<g><path style="opacity:1" fill="#030303" d="M 223.5,323.5 C 228.833,323.5 234.167,323.5 239.5,323.5C 239.5,328.5 239.5,333.5 239.5,338.5C 234.167,338.5 228.833,338.5 223.5,338.5C 223.5,333.5 223.5,328.5 223.5,323.5 Z"/></g>
<g><path style="opacity:1" fill="#8e8f95" d="M 239.5,323.5 C 244.5,323.5 249.5,323.5 254.5,323.5C 254.5,328.5 254.5,333.5 254.5,338.5C 249.5,338.5 244.5,338.5 239.5,338.5C 239.5,333.5 239.5,328.5 239.5,323.5 Z"/></g>
<g><path style="opacity:1" fill="#baa22a" d="M 332.5,323.5 C 337.5,323.5 342.5,323.5 347.5,323.5C 347.5,328.5 347.5,333.5 347.5,338.5C 342.5,338.5 337.5,338.5 332.5,338.5C 332.5,333.5 332.5,328.5 332.5,323.5 Z"/></g>
<g><path style="opacity:1" fill="#5c5724" d="M 347.5,323.5 C 362.5,323.5 377.5,323.5 392.5,323.5C 392.5,328.5 392.5,333.5 392.5,338.5C 377.5,338.5 362.5,338.5 347.5,338.5C 347.5,333.5 347.5,328.5 347.5,323.5 Z"/></g>
<g><path style="opacity:1" fill="#8e8e95" d="M 69.5,338.5 C 70.4872,343.305 70.8205,348.305 70.5,353.5C 65.5947,352.555 60.5947,352.221 55.5,352.5C 55.5,357.833 55.5,363.167 55.5,368.5C 50.5,368.5 45.5,368.5 40.5,368.5C 40.5,358.5 40.5,348.5 40.5,338.5C 50.1667,338.5 59.8333,338.5 69.5,338.5 Z"/></g>
<g><path style="opacity:1" fill="#5d5624" d="M 408.5,338.5 C 429.167,338.5 449.833,338.5 470.5,338.5C 470.5,343.167 470.5,347.833 470.5,352.5C 460.167,352.5 449.833,352.5 439.5,352.5C 429.167,352.5 418.833,352.5 408.5,352.5C 408.5,347.833 408.5,343.167 408.5,338.5 Z"/></g>
<g><path style="opacity:1" fill="#6b2201" d="M 470.5,338.5 C 480.833,338.5 491.167,338.5 501.5,338.5C 501.5,343.167 501.5,347.833 501.5,352.5C 481.007,353.497 460.34,353.831 439.5,353.5C 439.5,353.167 439.5,352.833 439.5,352.5C 449.833,352.5 460.167,352.5 470.5,352.5C 470.5,347.833 470.5,343.167 470.5,338.5 Z"/></g>
<g><path style="opacity:1" fill="#b22d0b" d="M 501.5,338.5 C 506.5,338.5 511.5,338.5 516.5,338.5C 526.5,338.5 536.5,338.5 546.5,338.5C 546.5,348.5 546.5,358.5 546.5,368.5C 546.167,368.5 545.833,368.5 545.5,368.5C 545.5,358.833 545.5,349.167 545.5,339.5C 535.833,339.5 526.167,339.5 516.5,339.5C 516.5,343.833 516.5,348.167 516.5,352.5C 511.5,352.5 506.5,352.5 501.5,352.5C 501.5,347.833 501.5,343.167 501.5,338.5 Z"/></g>
<g><path style="opacity:1" fill="#ece4e2" d="M 85.5,338.5 C 90.8333,338.5 96.1667,338.5 101.5,338.5C 101.5,343.5 101.5,348.5 101.5,353.5C 96.1667,353.5 90.8333,353.5 85.5,353.5C 85.5,348.5 85.5,343.5 85.5,338.5 Z"/></g>
<g><path style="opacity:1" fill="#010000" d="M 101.5,338.5 C 106.5,338.5 111.5,338.5 116.5,338.5C 116.5,338.833 116.5,339.167 116.5,339.5C 116.5,349.167 116.5,358.833 116.5,368.5C 111.5,368.5 106.5,368.5 101.5,368.5C 101.5,363.5 101.5,358.5 101.5,353.5C 101.5,348.5 101.5,343.5 101.5,338.5 Z"/></g>
<g><path style="opacity:1" fill="#f2f2f2" d="M 116.5,339.5 C 121.5,339.5 126.5,339.5 131.5,339.5C 131.173,349.348 131.506,359.014 132.5,368.5C 142.833,368.5 153.167,368.5 163.5,368.5C 163.5,373.833 163.5,379.167 163.5,384.5C 168.5,384.5 173.5,384.5 178.5,384.5C 178.5,389.5 178.5,394.5 178.5,399.5C 183.5,399.5 188.5,399.5 193.5,399.5C 193.833,399.5 194.167,399.5 194.5,399.5C 194.5,404.5 194.5,409.5 194.5,414.5C 199.5,414.5 204.5,414.5 209.5,414.5C 209.5,419.833 209.5,425.167 209.5,430.5C 214.167,430.5 218.833,430.5 223.5,430.5C 224.487,425.695 224.821,420.695 224.5,415.5C 229.695,415.821 234.695,415.487 239.5,414.5C 244.5,414.5 249.5,414.5 254.5,414.5C 254.5,409.5 254.5,404.5 254.5,399.5C 259.5,399.5 264.5,399.5 269.5,399.5C 270.494,389.347 270.828,379.014 270.5,368.5C 280.5,368.5 290.5,368.5 300.5,368.5C 300.833,368.5 301.167,368.5 301.5,368.5C 306.5,368.5 311.5,368.5 316.5,368.5C 316.5,373.5 316.5,378.5 316.5,383.5C 326.833,383.5 337.167,383.5 347.5,383.5C 362.5,383.5 377.5,383.5 392.5,383.5C 392.5,388.5 392.5,393.5 392.5,398.5C 392.5,398.833 392.5,399.167 392.5,399.5C 387.833,399.5 383.167,399.5 378.5,399.5C 378.5,404.5 378.5,409.5 378.5,414.5C 368.167,414.5 357.833,414.5 347.5,414.5C 347.5,419.833 347.5,425.167 347.5,430.5C 337.167,430.5 326.833,430.5 316.5,430.5C 316.5,435.5 316.5,440.5 316.5,445.5C 321.833,445.5 327.167,445.5 332.5,445.5C 332.5,450.833 332.5,456.167 332.5,461.5C 332.167,461.5 331.833,461.5 331.5,461.5C 311.167,461.5 290.833,461.5 270.5,461.5C 270.5,456.167 270.5,450.833 270.5,445.5C 265.167,445.5 259.833,445.5 254.5,445.5C 254.5,450.833 254.5,456.167 254.5,461.5C 244.167,461.5 233.833,461.5 223.5,461.5C 218.833,461.5 214.167,461.5 209.5,461.5C 199.167,461.5 188.833,461.5 178.5,461.5C 178.5,456.5 178.5,451.5 178.5,446.5C 183.695,446.821 188.695,446.487 193.5,445.5C 193.5,440.5 193.5,435.5 193.5,430.5C 188.5,430.5 183.5,430.5 178.5,430.5C 173.5,430.5 168.5,430.5 163.5,430.5C 163.5,435.5 163.5,440.5 163.5,445.5C 147.833,445.5 132.167,445.5 116.5,445.5C 116.5,440.5 116.5,435.5 116.5,430.5C 111.5,430.5 106.5,430.5 101.5,430.5C 101.5,425.167 101.5,419.833 101.5,414.5C 106.5,414.5 111.5,414.5 116.5,414.5C 116.5,404.5 116.5,394.5 116.5,384.5C 116.5,379.167 116.5,373.833 116.5,368.5C 116.5,358.833 116.5,349.167 116.5,339.5 Z"/></g>
<g><path style="opacity:1" fill="#e9deb0" d="M 116.5,339.5 C 116.5,339.167 116.5,338.833 116.5,338.5C 121.833,338.5 127.167,338.5 132.5,338.5C 132.5,343.167 132.5,347.833 132.5,352.5C 132.5,357.833 132.5,363.167 132.5,368.5C 131.506,359.014 131.173,349.348 131.5,339.5C 126.5,339.5 121.5,339.5 116.5,339.5 Z"/></g>
<g><path style="opacity:1" fill="#010100" d="M 209.5,338.5 C 209.5,343.167 209.5,347.833 209.5,352.5C 204.5,352.5 199.5,352.5 194.5,352.5C 194.5,347.833 194.5,343.167 194.5,338.5C 199.5,338.5 204.5,338.5 209.5,338.5 Z"/></g>
<g><path style="opacity:1" fill="#641f00" d="M 209.5,338.5 C 214.167,338.5 218.833,338.5 223.5,338.5C 223.5,343.167 223.5,347.833 223.5,352.5C 218.833,352.5 214.167,352.5 209.5,352.5C 209.5,347.833 209.5,343.167 209.5,338.5 Z"/></g>
<g><path style="opacity:1" fill="#d0ccd1" d="M 223.5,338.5 C 228.833,338.5 234.167,338.5 239.5,338.5C 244.5,338.5 249.5,338.5 254.5,338.5C 254.5,338.833 254.5,339.167 254.5,339.5C 254.5,343.833 254.5,348.167 254.5,352.5C 249.5,352.5 244.5,352.5 239.5,352.5C 239.5,352.833 239.5,353.167 239.5,353.5C 239.167,353.5 238.833,353.5 238.5,353.5C 233.5,353.5 228.5,353.5 223.5,353.5C 223.5,353.167 223.5,352.833 223.5,352.5C 223.5,347.833 223.5,343.167 223.5,338.5 Z"/></g>
<g><path style="opacity:1" fill="#f2f2f2" d="M 239.5,352.5 C 234.5,352.5 229.5,352.5 224.5,352.5C 224.5,348.167 224.5,343.833 224.5,339.5C 229.5,339.5 234.5,339.5 239.5,339.5C 239.5,343.833 239.5,348.167 239.5,352.5 Z"/></g>
<g><path style="opacity:1" fill="#8f8f96" d="M 254.5,339.5 C 259.5,339.5 264.5,339.5 269.5,339.5C 269.5,343.833 269.5,348.167 269.5,352.5C 264.5,352.5 259.5,352.5 254.5,352.5C 254.5,348.167 254.5,343.833 254.5,339.5 Z"/></g>
<g><path style="opacity:1" fill="#baa22a" d="M 347.5,339.5 C 357.833,339.5 368.167,339.5 378.5,339.5C 378.5,343.833 378.5,348.167 378.5,352.5C 373.167,352.5 367.833,352.5 362.5,352.5C 362.5,357.833 362.5,363.167 362.5,368.5C 357.5,368.5 352.5,368.5 347.5,368.5C 342.5,368.5 337.5,368.5 332.5,368.5C 332.5,363.5 332.5,358.5 332.5,353.5C 337.5,353.5 342.5,353.5 347.5,353.5C 347.5,348.833 347.5,344.167 347.5,339.5 Z"/></g>
<g><path style="opacity:1" fill="#9d8829" d="M 347.5,339.5 C 347.5,339.167 347.5,338.833 347.5,338.5C 362.5,338.5 377.5,338.5 392.5,338.5C 397.833,338.5 403.167,338.5 408.5,338.5C 408.5,343.167 408.5,347.833 408.5,352.5C 418.833,352.5 429.167,352.5 439.5,352.5C 439.5,352.833 439.5,353.167 439.5,353.5C 429.167,353.5 418.833,353.5 408.5,353.5C 408.5,358.5 408.5,363.5 408.5,368.5C 408.167,368.5 407.833,368.5 407.5,368.5C 402.5,368.5 397.5,368.5 392.5,368.5C 392.5,363.5 392.5,358.5 392.5,353.5C 387.833,353.5 383.167,353.5 378.5,353.5C 373.5,353.5 368.5,353.5 363.5,353.5C 363.5,358.5 363.5,363.5 363.5,368.5C 363.167,368.5 362.833,368.5 362.5,368.5C 362.5,363.167 362.5,357.833 362.5,352.5C 367.833,352.5 373.167,352.5 378.5,352.5C 378.5,348.167 378.5,343.833 378.5,339.5C 368.167,339.5 357.833,339.5 347.5,339.5 Z"/></g>
<g><path style="opacity:1" fill="#baa12b" d="M 392.5,339.5 C 397.5,339.5 402.5,339.5 407.5,339.5C 407.5,343.833 407.5,348.167 407.5,352.5C 402.5,352.5 397.5,352.5 392.5,352.5C 392.5,348.167 392.5,343.833 392.5,339.5 Z"/></g>
<g><path style="opacity:1" fill="#d9440c" d="M 545.5,368.5 C 541.167,368.5 536.833,368.5 532.5,368.5C 531.504,383.658 531.17,398.991 531.5,414.5C 526.305,414.179 521.305,414.513 516.5,415.5C 516.5,420.5 516.5,425.5 516.5,430.5C 511.5,430.5 506.5,430.5 501.5,430.5C 501.5,425.167 501.5,419.833 501.5,414.5C 495.974,414.179 490.64,414.512 485.5,415.5C 485.5,420.5 485.5,425.5 485.5,430.5C 480.5,430.5 475.5,430.5 470.5,430.5C 470.5,414.833 470.5,399.167 470.5,383.5C 460.167,383.5 449.833,383.5 439.5,383.5C 439.5,373.5 439.5,363.5 439.5,353.5C 460.34,353.831 481.007,353.497 501.5,352.5C 506.5,352.5 511.5,352.5 516.5,352.5C 516.5,348.167 516.5,343.833 516.5,339.5C 526.167,339.5 535.833,339.5 545.5,339.5C 545.5,349.167 545.5,358.833 545.5,368.5 Z"/></g>
<g><path style="opacity:1" fill="#ebeaea" d="M 70.5,353.5 C 70.5,358.5 70.5,363.5 70.5,368.5C 65.5,368.5 60.5,368.5 55.5,368.5C 55.5,363.167 55.5,357.833 55.5,352.5C 60.5947,352.221 65.5947,352.555 70.5,353.5 Z"/></g>
<g><path style="opacity:1" fill="#e65a30" d="M 85.5,353.5 C 90.8333,353.5 96.1667,353.5 101.5,353.5C 101.5,358.5 101.5,363.5 101.5,368.5C 101.167,368.5 100.833,368.5 100.5,368.5C 95.5,368.5 90.5,368.5 85.5,368.5C 85.5,363.5 85.5,358.5 85.5,353.5 Z"/></g>
<g><path style="opacity:1" fill="#000000" d="M 178.5,353.5 C 183.5,353.5 188.5,353.5 193.5,353.5C 193.5,358.5 193.5,363.5 193.5,368.5C 188.5,368.5 183.5,368.5 178.5,368.5C 178.5,363.5 178.5,358.5 178.5,353.5 Z"/></g>
<g><path style="opacity:1" fill="#f2f3f2" d="M 209.5,353.5 C 209.5,358.5 209.5,363.5 209.5,368.5C 204.5,368.5 199.5,368.5 194.5,368.5C 194.5,363.5 194.5,358.5 194.5,353.5C 199.5,353.5 204.5,353.5 209.5,353.5 Z"/></g>
<g><path style="opacity:1" fill="#020000" d="M 209.5,352.5 C 214.167,352.5 218.833,352.5 223.5,352.5C 223.5,352.833 223.5,353.167 223.5,353.5C 223.5,368.833 223.5,384.167 223.5,399.5C 218.833,399.5 214.167,399.5 209.5,399.5C 209.5,389.167 209.5,378.833 209.5,368.5C 209.5,363.5 209.5,358.5 209.5,353.5C 209.5,353.167 209.5,352.833 209.5,352.5 Z"/></g>
<g><path style="opacity:1" fill="#ac2a0c" d="M 223.5,353.5 C 228.5,353.5 233.5,353.5 238.5,353.5C 238.5,363.5 238.5,373.5 238.5,383.5C 233.833,383.5 229.167,383.5 224.5,383.5C 224.821,389.026 224.488,394.36 223.5,399.5C 223.5,384.167 223.5,368.833 223.5,353.5 Z"/></g>
<g><path style="opacity:1" fill="#f2f2f2" d="M 239.5,352.5 C 244.5,352.5 249.5,352.5 254.5,352.5C 254.5,368.167 254.5,383.833 254.5,399.5C 249.5,399.5 244.5,399.5 239.5,399.5C 239.5,384.167 239.5,368.833 239.5,353.5C 239.5,353.167 239.5,352.833 239.5,352.5 Z"/></g>
<g><path style="opacity:1" fill="#5e5827" d="M 254.5,352.5 C 259.5,352.5 264.5,352.5 269.5,352.5C 269.5,368.167 269.5,383.833 269.5,399.5C 264.5,399.5 259.5,399.5 254.5,399.5C 254.5,383.833 254.5,368.167 254.5,352.5 Z"/></g>
<g><path style="opacity:1" fill="#e7d37d" d="M 316.5,353.5 C 311.5,353.5 306.5,353.5 301.5,353.5C 301.5,358.5 301.5,363.5 301.5,368.5C 301.167,368.5 300.833,368.5 300.5,368.5C 300.5,363.167 300.5,357.833 300.5,352.5C 306.026,352.179 311.36,352.512 316.5,353.5 Z"/></g>
<g><path style="opacity:1" fill="#d3d4d9" d="M 316.5,353.5 C 316.5,358.5 316.5,363.5 316.5,368.5C 311.5,368.5 306.5,368.5 301.5,368.5C 301.5,363.5 301.5,358.5 301.5,353.5C 306.5,353.5 311.5,353.5 316.5,353.5 Z"/></g>
<g><path style="opacity:1" fill="#5c5724" d="M 378.5,353.5 C 378.5,358.5 378.5,363.5 378.5,368.5C 373.5,368.5 368.5,368.5 363.5,368.5C 363.5,363.5 363.5,358.5 363.5,353.5C 368.5,353.5 373.5,353.5 378.5,353.5 Z"/></g>
<g><path style="opacity:1" fill="#baa22a" d="M 378.5,353.5 C 383.167,353.5 387.833,353.5 392.5,353.5C 392.5,358.5 392.5,363.5 392.5,368.5C 387.833,368.5 383.167,368.5 378.5,368.5C 378.5,363.5 378.5,358.5 378.5,353.5 Z"/></g>
<g><path style="opacity:1" fill="#f2d33d" d="M 439.5,353.5 C 439.5,363.5 439.5,373.5 439.5,383.5C 449.319,384.494 459.319,384.827 469.5,384.5C 469.17,400.009 469.504,415.342 470.5,430.5C 475.5,430.5 480.5,430.5 485.5,430.5C 485.5,425.5 485.5,420.5 485.5,415.5C 490.5,415.5 495.5,415.5 500.5,415.5C 500.179,420.695 500.513,425.695 501.5,430.5C 506.5,430.5 511.5,430.5 516.5,430.5C 516.5,435.833 516.5,441.167 516.5,446.5C 511.5,446.5 506.5,446.5 501.5,446.5C 501.5,451.5 501.5,456.5 501.5,461.5C 490.833,461.5 480.167,461.5 469.5,461.5C 469.5,466.5 469.5,471.5 469.5,476.5C 454.167,476.5 438.833,476.5 423.5,476.5C 423.5,471.5 423.5,466.5 423.5,461.5C 413.167,461.5 402.833,461.5 392.5,461.5C 387.833,461.5 383.167,461.5 378.5,461.5C 373.5,461.5 368.5,461.5 363.5,461.5C 363.5,456.5 363.5,451.5 363.5,446.5C 368.695,446.821 373.695,446.487 378.5,445.5C 378.5,440.5 378.5,435.5 378.5,430.5C 383.167,430.5 387.833,430.5 392.5,430.5C 392.5,420.167 392.5,409.833 392.5,399.5C 397.833,399.5 403.167,399.5 408.5,399.5C 408.5,389.167 408.5,378.833 408.5,368.5C 408.5,363.5 408.5,358.5 408.5,353.5C 418.833,353.5 429.167,353.5 439.5,353.5 Z"/></g>
<g><path style="opacity:1" fill="#292929" d="M 55.5,368.5 C 60.5,368.5 65.5,368.5 70.5,368.5C 70.5,373.5 70.5,378.5 70.5,383.5C 80.5,383.5 90.5,383.5 100.5,383.5C 100.5,378.5 100.5,373.5 100.5,368.5C 100.833,368.5 101.167,368.5 101.5,368.5C 101.5,373.833 101.5,379.167 101.5,384.5C 91.1667,384.5 80.8333,384.5 70.5,384.5C 65.5947,383.555 60.5947,383.221 55.5,383.5C 55.5,378.5 55.5,373.5 55.5,368.5 Z"/></g>
<g><path style="opacity:1" fill="#000000" d="M 70.5,368.5 C 75.5,368.5 80.5,368.5 85.5,368.5C 90.5,368.5 95.5,368.5 100.5,368.5C 100.5,373.5 100.5,378.5 100.5,383.5C 90.5,383.5 80.5,383.5 70.5,383.5C 70.5,378.5 70.5,373.5 70.5,368.5 Z"/></g>
<g><path style="opacity:1" fill="#909098" d="M 101.5,368.5 C 106.5,368.5 111.5,368.5 116.5,368.5C 116.5,373.833 116.5,379.167 116.5,384.5C 111.5,384.5 106.5,384.5 101.5,384.5C 101.5,379.167 101.5,373.833 101.5,368.5 Z"/></g>
<g><path style="opacity:1" fill="#5d5725" d="M 178.5,368.5 C 183.5,368.5 188.5,368.5 193.5,368.5C 193.5,378.833 193.5,389.167 193.5,399.5C 188.5,399.5 183.5,399.5 178.5,399.5C 178.5,394.5 178.5,389.5 178.5,384.5C 178.5,379.167 178.5,373.833 178.5,368.5 Z"/></g>
<g><path style="opacity:1" fill="#ac2d0d" d="M 193.5,368.5 C 193.833,368.5 194.167,368.5 194.5,368.5C 199.5,368.5 204.5,368.5 209.5,368.5C 209.5,378.833 209.5,389.167 209.5,399.5C 204.5,399.5 199.5,399.5 194.5,399.5C 194.167,399.5 193.833,399.5 193.5,399.5C 193.5,389.167 193.5,378.833 193.5,368.5 Z"/></g>
<g><path style="opacity:1" fill="#9d936c" d="M 254.5,339.5 C 254.5,339.167 254.5,338.833 254.5,338.5C 259.833,338.5 265.167,338.5 270.5,338.5C 270.5,348.5 270.5,358.5 270.5,368.5C 270.828,379.014 270.494,389.347 269.5,399.5C 269.5,383.833 269.5,368.167 269.5,352.5C 269.5,348.167 269.5,343.833 269.5,339.5C 264.5,339.5 259.5,339.5 254.5,339.5 Z"/></g>
<g><path style="opacity:1" fill="#d4d4da" d="M 316.5,368.5 C 321.833,368.5 327.167,368.5 332.5,368.5C 337.5,368.5 342.5,368.5 347.5,368.5C 347.5,373.5 347.5,378.5 347.5,383.5C 337.167,383.5 326.833,383.5 316.5,383.5C 316.5,378.5 316.5,373.5 316.5,368.5 Z"/></g>
<g><path style="opacity:1" fill="#8f8f96" d="M 347.5,368.5 C 352.5,368.5 357.5,368.5 362.5,368.5C 362.833,368.5 363.167,368.5 363.5,368.5C 368.5,368.5 373.5,368.5 378.5,368.5C 383.167,368.5 387.833,368.5 392.5,368.5C 397.5,368.5 402.5,368.5 407.5,368.5C 407.5,378.5 407.5,388.5 407.5,398.5C 402.5,398.5 397.5,398.5 392.5,398.5C 392.5,393.5 392.5,388.5 392.5,383.5C 377.5,383.5 362.5,383.5 347.5,383.5C 347.5,378.5 347.5,373.5 347.5,368.5 Z"/></g>
<g><path style="opacity:1" fill="#a59b80" d="M 407.5,368.5 C 407.833,368.5 408.167,368.5 408.5,368.5C 408.5,378.833 408.5,389.167 408.5,399.5C 403.167,399.5 397.833,399.5 392.5,399.5C 392.5,399.167 392.5,398.833 392.5,398.5C 397.5,398.5 402.5,398.5 407.5,398.5C 407.5,388.5 407.5,378.5 407.5,368.5 Z"/></g>
<g><path style="opacity:1" fill="#9d3004" d="M 532.5,368.5 C 532.5,384.167 532.5,399.833 532.5,415.5C 527.167,415.5 521.833,415.5 516.5,415.5C 521.305,414.513 526.305,414.179 531.5,414.5C 531.17,398.991 531.504,383.658 532.5,368.5 Z"/></g>
<g><path style="opacity:1" fill="#631f00" d="M 532.5,368.5 C 536.833,368.5 541.167,368.5 545.5,368.5C 545.833,368.5 546.167,368.5 546.5,368.5C 546.5,384.167 546.5,399.833 546.5,415.5C 541.833,415.5 537.167,415.5 532.5,415.5C 532.5,399.833 532.5,384.167 532.5,368.5 Z"/></g>
<g><path style="opacity:1" fill="#010101" d="M 55.5,383.5 C 60.5947,383.221 65.5947,383.555 70.5,384.5C 70.8276,395.014 70.4942,405.347 69.5,415.5C 64.8333,415.5 60.1667,415.5 55.5,415.5C 55.5,404.833 55.5,394.167 55.5,383.5 Z"/></g>
<g><path style="opacity:1" fill="#403f3f" d="M 70.5,384.5 C 80.8333,384.5 91.1667,384.5 101.5,384.5C 101.5,394.5 101.5,404.5 101.5,414.5C 96.1667,414.5 90.8333,414.5 85.5,414.5C 85.5,419.833 85.5,425.167 85.5,430.5C 80.1667,430.5 74.8333,430.5 69.5,430.5C 69.5,425.5 69.5,420.5 69.5,415.5C 70.4942,405.347 70.8276,395.014 70.5,384.5 Z"/></g>
<g><path style="opacity:1" fill="#d3d4d9" d="M 101.5,384.5 C 106.5,384.5 111.5,384.5 116.5,384.5C 116.5,394.5 116.5,404.5 116.5,414.5C 111.5,414.5 106.5,414.5 101.5,414.5C 101.5,404.5 101.5,394.5 101.5,384.5 Z"/></g>
<g><path style="opacity:1" fill="#eb5e33" d="M 238.5,353.5 C 238.833,353.5 239.167,353.5 239.5,353.5C 239.5,368.833 239.5,384.167 239.5,399.5C 239.5,404.5 239.5,409.5 239.5,414.5C 234.167,414.5 228.833,414.5 223.5,414.5C 223.5,419.833 223.5,425.167 223.5,430.5C 218.833,430.5 214.167,430.5 209.5,430.5C 209.5,425.167 209.5,419.833 209.5,414.5C 204.5,414.5 199.5,414.5 194.5,414.5C 194.5,409.5 194.5,404.5 194.5,399.5C 199.5,399.5 204.5,399.5 209.5,399.5C 214.167,399.5 218.833,399.5 223.5,399.5C 224.488,394.36 224.821,389.026 224.5,383.5C 229.167,383.5 233.833,383.5 238.5,383.5C 238.5,373.5 238.5,363.5 238.5,353.5 Z"/></g>
<g><path style="opacity:1" fill="#eb9829" d="M 439.5,383.5 C 449.833,383.5 460.167,383.5 470.5,383.5C 470.5,399.167 470.5,414.833 470.5,430.5C 469.504,415.342 469.17,400.009 469.5,384.5C 459.319,384.827 449.319,384.494 439.5,383.5 Z"/></g>
<g><path style="opacity:1" fill="#d3d4d9" d="M 239.5,399.5 C 244.5,399.5 249.5,399.5 254.5,399.5C 254.5,404.5 254.5,409.5 254.5,414.5C 249.5,414.5 244.5,414.5 239.5,414.5C 239.5,409.5 239.5,404.5 239.5,399.5 Z"/></g>
<g><path style="opacity:1" fill="#8f8f95" d="M 392.5,399.5 C 392.5,409.833 392.5,420.167 392.5,430.5C 387.833,430.5 383.167,430.5 378.5,430.5C 378.5,435.5 378.5,440.5 378.5,445.5C 373.5,445.5 368.5,445.5 363.5,445.5C 363.5,435.5 363.5,425.5 363.5,415.5C 368.695,415.821 373.695,415.487 378.5,414.5C 378.5,409.5 378.5,404.5 378.5,399.5C 383.167,399.5 387.833,399.5 392.5,399.5 Z"/></g>
<g><path style="opacity:1" fill="#d0d0d6" d="M 101.5,414.5 C 101.5,419.833 101.5,425.167 101.5,430.5C 96.1667,430.5 90.8333,430.5 85.5,430.5C 85.5,425.167 85.5,419.833 85.5,414.5C 90.8333,414.5 96.1667,414.5 101.5,414.5 Z"/></g>
<g><path style="opacity:1" fill="#f3c7bf" d="M 239.5,414.5 C 234.695,415.487 229.695,415.821 224.5,415.5C 224.821,420.695 224.487,425.695 223.5,430.5C 223.5,425.167 223.5,419.833 223.5,414.5C 228.833,414.5 234.167,414.5 239.5,414.5 Z"/></g>
<g><path style="opacity:1" fill="#d0d0d7" d="M 378.5,414.5 C 373.695,415.487 368.695,415.821 363.5,415.5C 363.5,425.5 363.5,435.5 363.5,445.5C 363.167,445.5 362.833,445.5 362.5,445.5C 362.5,440.5 362.5,435.5 362.5,430.5C 357.5,430.5 352.5,430.5 347.5,430.5C 347.5,425.167 347.5,419.833 347.5,414.5C 357.833,414.5 368.167,414.5 378.5,414.5 Z"/></g>
<g><path style="opacity:1" fill="#ec9b2a" d="M 485.5,415.5 C 490.64,414.512 495.974,414.179 501.5,414.5C 501.5,419.833 501.5,425.167 501.5,430.5C 500.513,425.695 500.179,420.695 500.5,415.5C 495.5,415.5 490.5,415.5 485.5,415.5 Z"/></g>
<g><path style="opacity:1" fill="#641f00" d="M 516.5,415.5 C 521.833,415.5 527.167,415.5 532.5,415.5C 532.5,420.5 532.5,425.5 532.5,430.5C 527.167,430.5 521.833,430.5 516.5,430.5C 516.5,425.5 516.5,420.5 516.5,415.5 Z"/></g>
<g><path style="opacity:1" fill="#8e8e96" d="M 85.5,430.5 C 90.8333,430.5 96.1667,430.5 101.5,430.5C 106.5,430.5 111.5,430.5 116.5,430.5C 116.5,435.5 116.5,440.5 116.5,445.5C 116.5,445.833 116.5,446.167 116.5,446.5C 106.167,446.5 95.8333,446.5 85.5,446.5C 85.5,441.167 85.5,435.833 85.5,430.5 Z"/></g>
<g><path style="opacity:1" fill="#d2d2d3" d="M 178.5,430.5 C 183.5,430.5 188.5,430.5 193.5,430.5C 193.5,435.5 193.5,440.5 193.5,445.5C 188.695,446.487 183.695,446.821 178.5,446.5C 157.833,446.5 137.167,446.5 116.5,446.5C 116.5,446.167 116.5,445.833 116.5,445.5C 132.167,445.5 147.833,445.5 163.5,445.5C 163.5,440.5 163.5,435.5 163.5,430.5C 168.5,430.5 173.5,430.5 178.5,430.5 Z"/></g>
<g><path style="opacity:1" fill="#8e8f95" d="M 178.5,430.5 C 183.5,430.5 188.5,430.5 193.5,430.5C 193.5,435.5 193.5,440.5 193.5,445.5C 188.5,445.5 183.5,445.5 178.5,445.5C 178.5,440.5 178.5,435.5 178.5,430.5 Z"/></g>
<g><path style="opacity:1" fill="#908f96" d="M 347.5,430.5 C 352.5,430.5 357.5,430.5 362.5,430.5C 362.5,435.5 362.5,440.5 362.5,445.5C 362.5,450.833 362.5,456.167 362.5,461.5C 352.5,461.5 342.5,461.5 332.5,461.5C 332.5,456.167 332.5,450.833 332.5,445.5C 327.167,445.5 321.833,445.5 316.5,445.5C 316.5,440.5 316.5,435.5 316.5,430.5C 326.833,430.5 337.167,430.5 347.5,430.5 Z"/></g>
<g><path style="opacity:1" fill="#f2f3f2" d="M 347.5,430.5 C 352.5,430.5 357.5,430.5 362.5,430.5C 362.5,435.5 362.5,440.5 362.5,445.5C 357.5,445.5 352.5,445.5 347.5,445.5C 347.5,440.5 347.5,435.5 347.5,430.5 Z"/></g>
<g><path style="opacity:1" fill="#8e8e96" d="M 116.5,446.5 C 137.167,446.5 157.833,446.5 178.5,446.5C 178.5,451.5 178.5,456.5 178.5,461.5C 188.833,461.5 199.167,461.5 209.5,461.5C 209.5,466.5 209.5,471.5 209.5,476.5C 203.974,476.179 198.64,476.512 193.5,477.5C 183.167,477.5 172.833,477.5 162.5,477.5C 162.5,472.167 162.5,466.833 162.5,461.5C 147.167,461.5 131.833,461.5 116.5,461.5C 116.5,456.5 116.5,451.5 116.5,446.5 Z"/></g>
<g><path style="opacity:1" fill="#8f8f96" d="M 331.5,461.5 C 331.5,466.5 331.5,471.5 331.5,476.5C 321.5,476.5 311.5,476.5 301.5,476.5C 295.974,476.179 290.64,476.512 285.5,477.5C 280.5,477.5 275.5,477.5 270.5,477.5C 260.347,476.506 250.014,476.172 239.5,476.5C 234.167,476.5 228.833,476.5 223.5,476.5C 223.5,471.5 223.5,466.5 223.5,461.5C 233.833,461.5 244.167,461.5 254.5,461.5C 254.5,456.167 254.5,450.833 254.5,445.5C 259.833,445.5 265.167,445.5 270.5,445.5C 270.5,450.833 270.5,456.167 270.5,461.5C 290.833,461.5 311.167,461.5 331.5,461.5 Z"/></g>
<g><path style="opacity:1" fill="#c5b366" d="M 362.5,445.5 C 362.833,445.5 363.167,445.5 363.5,445.5C 368.5,445.5 373.5,445.5 378.5,445.5C 373.695,446.487 368.695,446.821 363.5,446.5C 363.5,451.5 363.5,456.5 363.5,461.5C 363.167,461.5 362.833,461.5 362.5,461.5C 362.5,456.167 362.5,450.833 362.5,445.5 Z"/></g>
<g><path style="opacity:1" fill="#baa12b" d="M 516.5,446.5 C 516.5,456.5 516.5,466.5 516.5,476.5C 511.167,476.5 505.833,476.5 500.5,476.5C 500.5,491.5 500.5,506.5 500.5,521.5C 495.305,521.179 490.305,521.513 485.5,522.5C 485.5,527.5 485.5,532.5 485.5,537.5C 480.5,537.5 475.5,537.5 470.5,537.5C 469.513,542.305 469.179,547.305 469.5,552.5C 464.305,552.179 459.305,552.513 454.5,553.5C 454.5,558.5 454.5,563.5 454.5,568.5C 433.833,568.5 413.167,568.5 392.5,568.5C 392.5,563.5 392.5,558.5 392.5,553.5C 387.833,553.5 383.167,553.5 378.5,553.5C 378.5,553.167 378.5,552.833 378.5,552.5C 383.167,552.5 387.833,552.5 392.5,552.5C 392.833,552.5 393.167,552.5 393.5,552.5C 398.167,552.5 402.833,552.5 407.5,552.5C 408.494,542.347 408.828,532.014 408.5,521.5C 408.5,516.5 408.5,511.5 408.5,506.5C 413.5,506.5 418.5,506.5 423.5,506.5C 423.5,496.5 423.5,486.5 423.5,476.5C 438.833,476.5 454.167,476.5 469.5,476.5C 469.5,471.5 469.5,466.5 469.5,461.5C 480.167,461.5 490.833,461.5 501.5,461.5C 501.5,456.5 501.5,451.5 501.5,446.5C 506.5,446.5 511.5,446.5 516.5,446.5 Z"/></g>
<g><path style="opacity:1" fill="#d3d4d9" d="M 209.5,461.5 C 214.167,461.5 218.833,461.5 223.5,461.5C 223.5,466.5 223.5,471.5 223.5,476.5C 218.833,476.5 214.167,476.5 209.5,476.5C 209.5,471.5 209.5,466.5 209.5,461.5 Z"/></g>
<g><path style="opacity:1" fill="#baa22a" d="M 332.5,461.5 C 342.5,461.5 352.5,461.5 362.5,461.5C 362.833,461.5 363.167,461.5 363.5,461.5C 368.5,461.5 373.5,461.5 378.5,461.5C 378.5,466.5 378.5,471.5 378.5,476.5C 373.167,476.5 367.833,476.5 362.5,476.5C 362.5,481.167 362.5,485.833 362.5,490.5C 357.305,490.179 352.305,490.513 347.5,491.5C 347.5,496.5 347.5,501.5 347.5,506.5C 332.167,506.5 316.833,506.5 301.5,506.5C 301.5,496.833 301.5,487.167 301.5,477.5C 311.833,477.5 322.167,477.5 332.5,477.5C 332.5,472.167 332.5,466.833 332.5,461.5 Z"/></g>
<g><path style="opacity:1" fill="#d9bb37" d="M 378.5,461.5 C 383.167,461.5 387.833,461.5 392.5,461.5C 392.5,466.5 392.5,471.5 392.5,476.5C 387.833,476.5 383.167,476.5 378.5,476.5C 378.5,471.5 378.5,466.5 378.5,461.5 Z"/></g>
<g><path style="opacity:1" fill="#5d5725" d="M 392.5,461.5 C 402.833,461.5 413.167,461.5 423.5,461.5C 423.5,466.5 423.5,471.5 423.5,476.5C 423.5,486.5 423.5,496.5 423.5,506.5C 418.5,506.5 413.5,506.5 408.5,506.5C 408.5,496.5 408.5,486.5 408.5,476.5C 403.167,476.5 397.833,476.5 392.5,476.5C 392.5,471.5 392.5,466.5 392.5,461.5 Z"/></g>
<g><path style="opacity:1" fill="#a59a58" d="M 331.5,461.5 C 331.833,461.5 332.167,461.5 332.5,461.5C 332.5,466.833 332.5,472.167 332.5,477.5C 322.167,477.5 311.833,477.5 301.5,477.5C 301.5,477.167 301.5,476.833 301.5,476.5C 311.5,476.5 321.5,476.5 331.5,476.5C 331.5,471.5 331.5,466.5 331.5,461.5 Z"/></g>
<g><path style="opacity:1" fill="#5d5726" d="M 209.5,476.5 C 209.5,486.5 209.5,496.5 209.5,506.5C 204.5,506.5 199.5,506.5 194.5,506.5C 194.167,506.5 193.833,506.5 193.5,506.5C 193.5,496.833 193.5,487.167 193.5,477.5C 198.64,476.512 203.974,476.179 209.5,476.5 Z"/></g>
<g><path style="opacity:1" fill="#baa12c" d="M 209.5,476.5 C 214.167,476.5 218.833,476.5 223.5,476.5C 228.833,476.5 234.167,476.5 239.5,476.5C 239.5,481.167 239.5,485.833 239.5,490.5C 249.833,490.5 260.167,490.5 270.5,490.5C 270.5,495.833 270.5,501.167 270.5,506.5C 269.513,501.695 269.179,496.695 269.5,491.5C 264.5,491.5 259.5,491.5 254.5,491.5C 254.5,496.5 254.5,501.5 254.5,506.5C 249.5,506.5 244.5,506.5 239.5,506.5C 239.5,511.5 239.5,516.5 239.5,521.5C 229.5,521.5 219.5,521.5 209.5,521.5C 209.5,516.5 209.5,511.5 209.5,506.5C 209.5,496.5 209.5,486.5 209.5,476.5 Z"/></g>
<g><path style="opacity:1" fill="#5e5828" d="M 239.5,476.5 C 250.014,476.172 260.347,476.506 270.5,477.5C 270.5,481.833 270.5,486.167 270.5,490.5C 260.167,490.5 249.833,490.5 239.5,490.5C 239.5,485.833 239.5,481.167 239.5,476.5 Z"/></g>
<g><path style="opacity:1" fill="#5e5826" d="M 301.5,476.5 C 301.5,476.833 301.5,477.167 301.5,477.5C 301.5,487.167 301.5,496.833 301.5,506.5C 291.167,506.5 280.833,506.5 270.5,506.5C 270.5,501.167 270.5,495.833 270.5,490.5C 275.5,490.5 280.5,490.5 285.5,490.5C 285.5,486.167 285.5,481.833 285.5,477.5C 290.64,476.512 295.974,476.179 301.5,476.5 Z"/></g>
<g><path style="opacity:1" fill="#8b7a29" d="M 378.5,476.5 C 383.167,476.5 387.833,476.5 392.5,476.5C 392.5,476.833 392.5,477.167 392.5,477.5C 382.833,477.5 373.167,477.5 363.5,477.5C 363.5,482.167 363.5,486.833 363.5,491.5C 358.167,491.5 352.833,491.5 347.5,491.5C 352.305,490.513 357.305,490.179 362.5,490.5C 362.5,485.833 362.5,481.167 362.5,476.5C 367.833,476.5 373.167,476.5 378.5,476.5 Z"/></g>
<g><path style="opacity:1" fill="#5c5724" d="M 392.5,477.5 C 392.5,481.833 392.5,486.167 392.5,490.5C 387.637,490.181 382.97,490.514 378.5,491.5C 378.5,496.5 378.5,501.5 378.5,506.5C 368.167,506.5 357.833,506.5 347.5,506.5C 347.5,501.5 347.5,496.5 347.5,491.5C 352.833,491.5 358.167,491.5 363.5,491.5C 363.5,486.833 363.5,482.167 363.5,477.5C 373.167,477.5 382.833,477.5 392.5,477.5 Z"/></g>
<g><path style="opacity:1" fill="#d5b737" d="M 392.5,476.5 C 397.833,476.5 403.167,476.5 408.5,476.5C 408.5,486.5 408.5,496.5 408.5,506.5C 408.167,506.5 407.833,506.5 407.5,506.5C 407.5,501.5 407.5,496.5 407.5,491.5C 397.833,491.5 388.167,491.5 378.5,491.5C 382.97,490.514 387.637,490.181 392.5,490.5C 392.5,486.167 392.5,481.833 392.5,477.5C 392.5,477.167 392.5,476.833 392.5,476.5 Z"/></g>
<g><path style="opacity:1" fill="#918229" d="M 516.5,476.5 C 511.695,477.487 506.695,477.821 501.5,477.5C 501.5,492.5 501.5,507.5 501.5,522.5C 496.167,522.5 490.833,522.5 485.5,522.5C 490.305,521.513 495.305,521.179 500.5,521.5C 500.5,506.5 500.5,491.5 500.5,476.5C 505.833,476.5 511.167,476.5 516.5,476.5 Z"/></g>
<g><path style="opacity:1" fill="#f2d33d" d="M 270.5,506.5 C 280.833,506.5 291.167,506.5 301.5,506.5C 301.5,511.5 301.5,516.5 301.5,521.5C 306.305,522.487 311.305,522.821 316.5,522.5C 316.5,532.833 316.5,543.167 316.5,553.5C 321.833,553.5 327.167,553.5 332.5,553.5C 332.5,543.167 332.5,532.833 332.5,522.5C 337.695,522.821 342.695,522.487 347.5,521.5C 347.5,516.5 347.5,511.5 347.5,506.5C 357.833,506.5 368.167,506.5 378.5,506.5C 378.5,501.5 378.5,496.5 378.5,491.5C 388.167,491.5 397.833,491.5 407.5,491.5C 407.5,496.5 407.5,501.5 407.5,506.5C 402.5,506.5 397.5,506.5 392.5,506.5C 392.5,511.5 392.5,516.5 392.5,521.5C 392.5,521.833 392.5,522.167 392.5,522.5C 387.833,522.5 383.167,522.5 378.5,522.5C 378.5,527.5 378.5,532.5 378.5,537.5C 373.5,537.5 368.5,537.5 363.5,537.5C 363.5,542.5 363.5,547.5 363.5,552.5C 368.5,552.5 373.5,552.5 378.5,552.5C 378.5,552.833 378.5,553.167 378.5,553.5C 378.5,558.5 378.5,563.5 378.5,568.5C 373.5,568.5 368.5,568.5 363.5,568.5C 362.506,578.653 362.172,588.986 362.5,599.5C 352.5,599.5 342.5,599.5 332.5,599.5C 332.5,589.167 332.5,578.833 332.5,568.5C 327.167,568.5 321.833,568.5 316.5,568.5C 295.833,568.5 275.167,568.5 254.5,568.5C 254.5,573.5 254.5,578.5 254.5,583.5C 254.5,593.833 254.5,604.167 254.5,614.5C 249.305,614.179 244.305,614.513 239.5,615.5C 239.5,625.167 239.5,634.833 239.5,644.5C 234.5,644.5 229.5,644.5 224.5,644.5C 223.513,649.305 223.179,654.305 223.5,659.5C 218.833,659.5 214.167,659.5 209.5,659.5C 209.5,654.5 209.5,649.5 209.5,644.5C 209.5,639.833 209.5,635.167 209.5,630.5C 214.167,630.5 218.833,630.5 223.5,630.5C 223.5,625.167 223.5,619.833 223.5,614.5C 223.5,609.5 223.5,604.5 223.5,599.5C 228.833,599.5 234.167,599.5 239.5,599.5C 239.5,583.833 239.5,568.167 239.5,552.5C 233.974,552.179 228.64,552.512 223.5,553.5C 218.833,553.5 214.167,553.5 209.5,553.5C 209.5,553.167 209.5,552.833 209.5,552.5C 209.5,547.5 209.5,542.5 209.5,537.5C 204.5,537.5 199.5,537.5 194.5,537.5C 194.5,527.167 194.5,516.833 194.5,506.5C 199.5,506.5 204.5,506.5 209.5,506.5C 209.5,511.5 209.5,516.5 209.5,521.5C 219.5,521.5 229.5,521.5 239.5,521.5C 239.5,516.5 239.5,511.5 239.5,506.5C 244.5,506.5 249.5,506.5 254.5,506.5C 254.5,501.5 254.5,496.5 254.5,491.5C 259.5,491.5 264.5,491.5 269.5,491.5C 269.179,496.695 269.513,501.695 270.5,506.5 Z"/></g>
<g><path style="opacity:1" fill="#5d5725" d="M 193.5,506.5 C 193.5,522.167 193.5,537.833 193.5,553.5C 198.833,553.5 204.167,553.5 209.5,553.5C 209.5,558.5 209.5,563.5 209.5,568.5C 204.5,568.5 199.5,568.5 194.5,568.5C 193.512,573.64 193.179,578.974 193.5,584.5C 188.5,584.5 183.5,584.5 178.5,584.5C 178.5,558.5 178.5,532.5 178.5,506.5C 183.5,506.5 188.5,506.5 193.5,506.5 Z"/></g>
<g><path style="opacity:1" fill="#5c5724" d="M 301.5,506.5 C 316.833,506.5 332.167,506.5 347.5,506.5C 347.5,511.5 347.5,516.5 347.5,521.5C 332.167,521.5 316.833,521.5 301.5,521.5C 301.5,516.5 301.5,511.5 301.5,506.5 Z"/></g>
<g><path style="opacity:1" fill="#a99632" d="M 407.5,506.5 C 407.833,506.5 408.167,506.5 408.5,506.5C 408.5,511.5 408.5,516.5 408.5,521.5C 403.167,521.5 397.833,521.5 392.5,521.5C 392.5,516.5 392.5,511.5 392.5,506.5C 397.5,506.5 402.5,506.5 407.5,506.5 Z"/></g>
<g><path style="opacity:1" fill="#baa12c" d="M 301.5,521.5 C 316.833,521.5 332.167,521.5 347.5,521.5C 342.695,522.487 337.695,522.821 332.5,522.5C 332.5,532.833 332.5,543.167 332.5,553.5C 327.167,553.5 321.833,553.5 316.5,553.5C 316.5,543.167 316.5,532.833 316.5,522.5C 311.305,522.821 306.305,522.487 301.5,521.5 Z"/></g>
<g><path style="opacity:1" fill="#baa22a" d="M 392.5,522.5 C 392.5,527.5 392.5,532.5 392.5,537.5C 387.833,537.5 383.167,537.5 378.5,537.5C 378.5,532.5 378.5,527.5 378.5,522.5C 383.167,522.5 387.833,522.5 392.5,522.5 Z"/></g>
<g><path style="opacity:1" fill="#7a6e27" d="M 392.5,521.5 C 397.833,521.5 403.167,521.5 408.5,521.5C 408.828,532.014 408.494,542.347 407.5,552.5C 407.5,542.5 407.5,532.5 407.5,522.5C 402.833,522.5 398.167,522.5 393.5,522.5C 393.5,532.5 393.5,542.5 393.5,552.5C 393.167,552.5 392.833,552.5 392.5,552.5C 392.5,547.5 392.5,542.5 392.5,537.5C 392.5,532.5 392.5,527.5 392.5,522.5C 392.5,522.167 392.5,521.833 392.5,521.5 Z"/></g>
<g><path style="opacity:1" fill="#5c5724" d="M 407.5,552.5 C 402.833,552.5 398.167,552.5 393.5,552.5C 393.5,542.5 393.5,532.5 393.5,522.5C 398.167,522.5 402.833,522.5 407.5,522.5C 407.5,532.5 407.5,542.5 407.5,552.5 Z"/></g>
<g><path style="opacity:1" fill="#baa22a" d="M 194.5,537.5 C 199.5,537.5 204.5,537.5 209.5,537.5C 209.5,542.5 209.5,547.5 209.5,552.5C 204.5,552.5 199.5,552.5 194.5,552.5C 194.5,547.5 194.5,542.5 194.5,537.5 Z"/></g>
<g><path style="opacity:1" fill="#baa22a" d="M 378.5,537.5 C 378.5,542.5 378.5,547.5 378.5,552.5C 373.5,552.5 368.5,552.5 363.5,552.5C 363.5,547.5 363.5,542.5 363.5,537.5C 368.5,537.5 373.5,537.5 378.5,537.5 Z"/></g>
<g><path style="opacity:1" fill="#f2d43d" d="M 378.5,537.5 C 383.167,537.5 387.833,537.5 392.5,537.5C 392.5,542.5 392.5,547.5 392.5,552.5C 387.833,552.5 383.167,552.5 378.5,552.5C 378.5,547.5 378.5,542.5 378.5,537.5 Z"/></g>
<g><path style="opacity:1" fill="#96842d" d="M 193.5,506.5 C 193.833,506.5 194.167,506.5 194.5,506.5C 194.5,516.833 194.5,527.167 194.5,537.5C 194.5,542.5 194.5,547.5 194.5,552.5C 199.5,552.5 204.5,552.5 209.5,552.5C 209.5,552.833 209.5,553.167 209.5,553.5C 204.167,553.5 198.833,553.5 193.5,553.5C 193.5,537.833 193.5,522.167 193.5,506.5 Z"/></g>
<g><path style="opacity:1" fill="#90802a" d="M 470.5,537.5 C 470.5,542.833 470.5,548.167 470.5,553.5C 465.167,553.5 459.833,553.5 454.5,553.5C 459.305,552.513 464.305,552.179 469.5,552.5C 469.179,547.305 469.513,542.305 470.5,537.5 Z"/></g>
<g><path style="opacity:1" fill="#baa12b" d="M 209.5,553.5 C 214.167,553.5 218.833,553.5 223.5,553.5C 223.5,558.5 223.5,563.5 223.5,568.5C 218.833,568.5 214.167,568.5 209.5,568.5C 209.5,563.5 209.5,558.5 209.5,553.5 Z"/></g>
<g><path style="opacity:1" fill="#5d5725" d="M 223.5,584.5 C 219.03,583.514 214.363,583.181 209.5,583.5C 209.5,578.5 209.5,573.5 209.5,568.5C 214.167,568.5 218.833,568.5 223.5,568.5C 224.487,563.695 224.821,558.695 224.5,553.5C 229.167,553.5 233.833,553.5 238.5,553.5C 238.5,568.5 238.5,583.5 238.5,598.5C 233.833,598.5 229.167,598.5 224.5,598.5C 224.819,593.637 224.486,588.97 223.5,584.5 Z"/></g>
<g><path style="opacity:1" fill="#827529" d="M 223.5,599.5 C 223.5,594.5 223.5,589.5 223.5,584.5C 224.486,588.97 224.819,593.637 224.5,598.5C 229.167,598.5 233.833,598.5 238.5,598.5C 238.5,583.5 238.5,568.5 238.5,553.5C 233.833,553.5 229.167,553.5 224.5,553.5C 224.821,558.695 224.487,563.695 223.5,568.5C 223.5,563.5 223.5,558.5 223.5,553.5C 228.64,552.512 233.974,552.179 239.5,552.5C 239.5,568.167 239.5,583.833 239.5,599.5C 234.167,599.5 228.833,599.5 223.5,599.5 Z"/></g>
<g><path style="opacity:1" fill="#baa22a" d="M 194.5,568.5 C 199.5,568.5 204.5,568.5 209.5,568.5C 209.5,573.5 209.5,578.5 209.5,583.5C 204.5,583.5 199.5,583.5 194.5,583.5C 194.5,578.5 194.5,573.5 194.5,568.5 Z"/></g>
<g><path style="opacity:1" fill="#b8a02a" d="M 316.5,568.5 C 316.5,578.833 316.5,589.167 316.5,599.5C 301.167,599.5 285.833,599.5 270.5,599.5C 270.5,594.167 270.5,588.833 270.5,583.5C 265.167,583.5 259.833,583.5 254.5,583.5C 254.5,578.5 254.5,573.5 254.5,568.5C 275.167,568.5 295.833,568.5 316.5,568.5 Z"/></g>
<g><path style="opacity:1" fill="#605925" d="M 316.5,568.5 C 321.833,568.5 327.167,568.5 332.5,568.5C 332.5,578.833 332.5,589.167 332.5,599.5C 332.167,599.5 331.833,599.5 331.5,599.5C 326.5,599.5 321.5,599.5 316.5,599.5C 316.5,589.167 316.5,578.833 316.5,568.5 Z"/></g>
<g><path style="opacity:1" fill="#8a7827" d="M 194.5,568.5 C 194.5,573.5 194.5,578.5 194.5,583.5C 199.5,583.5 204.5,583.5 209.5,583.5C 214.363,583.181 219.03,583.514 223.5,584.5C 218.833,584.5 214.167,584.5 209.5,584.5C 204.167,584.5 198.833,584.5 193.5,584.5C 193.179,578.974 193.512,573.64 194.5,568.5 Z"/></g>
<g><path style="opacity:1" fill="#5e5725" d="M 193.5,584.5 C 198.833,584.5 204.167,584.5 209.5,584.5C 209.5,594.5 209.5,604.5 209.5,614.5C 214.167,614.5 218.833,614.5 223.5,614.5C 223.5,619.833 223.5,625.167 223.5,630.5C 218.833,630.5 214.167,630.5 209.5,630.5C 209.5,625.5 209.5,620.5 209.5,615.5C 204.167,615.5 198.833,615.5 193.5,615.5C 193.5,605.167 193.5,594.833 193.5,584.5 Z"/></g>
<g><path style="opacity:1" fill="#baa22a" d="M 209.5,584.5 C 214.167,584.5 218.833,584.5 223.5,584.5C 223.5,589.5 223.5,594.5 223.5,599.5C 223.5,604.5 223.5,609.5 223.5,614.5C 218.833,614.5 214.167,614.5 209.5,614.5C 209.5,604.5 209.5,594.5 209.5,584.5 Z"/></g>
<g><path style="opacity:1" fill="#7f6e25" d="M 254.5,583.5 C 259.833,583.5 265.167,583.5 270.5,583.5C 270.5,588.833 270.5,594.167 270.5,599.5C 269.513,594.695 269.179,589.695 269.5,584.5C 264.833,584.5 260.167,584.5 255.5,584.5C 255.5,594.833 255.5,605.167 255.5,615.5C 250.167,615.5 244.833,615.5 239.5,615.5C 244.305,614.513 249.305,614.179 254.5,614.5C 254.5,604.167 254.5,593.833 254.5,583.5 Z"/></g>
<g><path style="opacity:1" fill="#5d5725" d="M 516.5,430.5 C 521.833,430.5 527.167,430.5 532.5,430.5C 532.5,450.833 532.5,471.167 532.5,491.5C 527.167,491.5 521.833,491.5 516.5,491.5C 516.5,506.833 516.5,522.167 516.5,537.5C 511.5,537.5 506.5,537.5 501.5,537.5C 501.5,542.833 501.5,548.167 501.5,553.5C 496.5,553.5 491.5,553.5 486.5,553.5C 486.5,558.5 486.5,563.5 486.5,568.5C 476.167,568.5 465.833,568.5 455.5,568.5C 455.5,573.833 455.5,579.167 455.5,584.5C 429.833,584.5 404.167,584.5 378.5,584.5C 378.5,589.167 378.5,593.833 378.5,598.5C 383.43,598.197 388.263,598.531 393,599.5C 393.5,614.496 393.667,629.496 393.5,644.5C 388.5,644.5 383.5,644.5 378.5,644.5C 378.5,649.833 378.5,655.167 378.5,660.5C 362.833,660.5 347.167,660.5 331.5,660.5C 331.5,650.5 331.5,640.5 331.5,630.5C 326.833,630.5 322.167,630.5 317.5,630.5C 317.5,635.167 317.5,639.833 317.5,644.5C 301.5,644.5 285.5,644.5 269.5,644.5C 269.5,634.833 269.5,625.167 269.5,615.5C 264.833,615.5 260.167,615.5 255.5,615.5C 255.5,605.167 255.5,594.833 255.5,584.5C 260.167,584.5 264.833,584.5 269.5,584.5C 269.179,589.695 269.513,594.695 270.5,599.5C 285.833,599.5 301.167,599.5 316.5,599.5C 316.5,604.5 316.5,609.5 316.5,614.5C 305.986,614.172 295.653,614.506 285.5,615.5C 285.5,620.5 285.5,625.5 285.5,630.5C 290.5,630.5 295.5,630.5 300.5,630.5C 305.833,630.5 311.167,630.5 316.5,630.5C 316.5,625.5 316.5,620.5 316.5,615.5C 321.405,614.555 326.405,614.221 331.5,614.5C 331.5,609.5 331.5,604.5 331.5,599.5C 331.833,599.5 332.167,599.5 332.5,599.5C 342.5,599.5 352.5,599.5 362.5,599.5C 362.5,609.833 362.5,620.167 362.5,630.5C 357.5,630.5 352.5,630.5 347.5,630.5C 347.5,635.167 347.5,639.833 347.5,644.5C 352.5,644.5 357.5,644.5 362.5,644.5C 363.486,640.03 363.819,635.363 363.5,630.5C 368.5,630.5 373.5,630.5 378.5,630.5C 378.5,620.167 378.5,609.833 378.5,599.5C 373.5,599.5 368.5,599.5 363.5,599.5C 363.5,589.167 363.5,578.833 363.5,568.5C 368.5,568.5 373.5,568.5 378.5,568.5C 378.5,563.5 378.5,558.5 378.5,553.5C 383.167,553.5 387.833,553.5 392.5,553.5C 392.5,558.5 392.5,563.5 392.5,568.5C 413.167,568.5 433.833,568.5 454.5,568.5C 454.5,563.5 454.5,558.5 454.5,553.5C 459.833,553.5 465.167,553.5 470.5,553.5C 470.5,548.167 470.5,542.833 470.5,537.5C 475.5,537.5 480.5,537.5 485.5,537.5C 485.5,532.5 485.5,527.5 485.5,522.5C 490.833,522.5 496.167,522.5 501.5,522.5C 501.5,507.5 501.5,492.5 501.5,477.5C 506.695,477.821 511.695,477.487 516.5,476.5C 516.5,466.5 516.5,456.5 516.5,446.5C 516.5,441.167 516.5,435.833 516.5,430.5 Z M 332.5,615.5 C 337.5,615.5 342.5,615.5 347.5,615.5C 347.5,620.167 347.5,624.833 347.5,629.5C 342.5,629.5 337.5,629.5 332.5,629.5C 332.5,624.833 332.5,620.167 332.5,615.5 Z"/></g>
<g><path style="opacity:1" fill="#7c6f2a" d="M 316.5,599.5 C 321.5,599.5 326.5,599.5 331.5,599.5C 331.5,604.5 331.5,609.5 331.5,614.5C 326.405,614.221 321.405,614.555 316.5,615.5C 316.5,615.167 316.5,614.833 316.5,614.5C 316.5,609.5 316.5,604.5 316.5,599.5 Z"/></g>
<g><path style="opacity:1" fill="#b69e2b" d="M 363.5,568.5 C 363.5,578.833 363.5,589.167 363.5,599.5C 368.5,599.5 373.5,599.5 378.5,599.5C 378.5,609.833 378.5,620.167 378.5,630.5C 373.5,630.5 368.5,630.5 363.5,630.5C 363.819,635.363 363.486,640.03 362.5,644.5C 362.5,639.833 362.5,635.167 362.5,630.5C 362.5,620.167 362.5,609.833 362.5,599.5C 362.172,588.986 362.506,578.653 363.5,568.5 Z"/></g>
<g><path style="opacity:1" fill="#5c5724" d="M 239.5,615.5 C 244.833,615.5 250.167,615.5 255.5,615.5C 255.5,625.167 255.5,634.833 255.5,644.5C 250.167,644.5 244.833,644.5 239.5,644.5C 239.5,634.833 239.5,625.167 239.5,615.5 Z"/></g>
<g><path style="opacity:1" fill="#b9a12b" d="M 285.5,615.5 C 290.5,615.5 295.5,615.5 300.5,615.5C 300.5,620.5 300.5,625.5 300.5,630.5C 300.5,625.5 300.5,620.5 300.5,615.5C 295.5,615.5 290.5,615.5 285.5,615.5 Z"/></g>
<g><path style="opacity:1" fill="#a59331" d="M 285.5,615.5 C 295.653,614.506 305.986,614.172 316.5,614.5C 316.5,614.833 316.5,615.167 316.5,615.5C 316.5,620.5 316.5,625.5 316.5,630.5C 311.167,630.5 305.833,630.5 300.5,630.5C 300.5,625.5 300.5,620.5 300.5,615.5C 295.5,615.5 290.5,615.5 285.5,615.5 Z"/></g>
<g><path style="opacity:1" fill="#baa22a" d="M 362.5,630.5 C 362.5,635.167 362.5,639.833 362.5,644.5C 357.5,644.5 352.5,644.5 347.5,644.5C 347.5,639.833 347.5,635.167 347.5,630.5C 352.5,630.5 357.5,630.5 362.5,630.5 Z"/></g>
<g><path style="opacity:1" fill="#5c5724" d="M 209.5,644.5 C 209.5,649.5 209.5,654.5 209.5,659.5C 214.305,660.487 219.305,660.821 224.5,660.5C 224.5,665.5 224.5,670.5 224.5,675.5C 214.167,675.5 203.833,675.5 193.5,675.5C 193.5,665.167 193.5,654.833 193.5,644.5C 198.833,644.5 204.167,644.5 209.5,644.5 Z"/></g>
<g><path style="opacity:1" fill="#5c5724" d="M 224.5,644.5 C 229.5,644.5 234.5,644.5 239.5,644.5C 239.5,649.833 239.5,655.167 239.5,660.5C 234.5,660.5 229.5,660.5 224.5,660.5C 224.5,655.167 224.5,649.833 224.5,644.5 Z"/></g>
<g><path style="opacity:1" fill="#9a8a2f" d="M 224.5,644.5 C 224.5,649.833 224.5,655.167 224.5,660.5C 219.305,660.821 214.305,660.487 209.5,659.5C 214.167,659.5 218.833,659.5 223.5,659.5C 223.179,654.305 223.513,649.305 224.5,644.5 Z"/></g>
</svg>
