<?xml version="1.0" encoding="UTF-8"?>
<!DOCTYPE svg PUBLIC "-//W3C//DTD SVG 1.1//EN" "http://www.w3.org/Graphics/SVG/1.1/DTD/svg11.dtd">
<svg xmlns="http://www.w3.org/2000/svg" version="1.1" width="575px" height="591px" style="shape-rendering:geometricPrecision; text-rendering:geometricPrecision; image-rendering:optimizeQuality; fill-rule:evenodd; clip-rule:evenodd" xmlns:xlink="http://www.w3.org/1999/xlink">
<g><path style="opacity:1" fill="#7dafd4" d="M 163.5,-0.5 C 183.833,-0.5 204.167,-0.5 224.5,-0.5C 224.5,4.5 224.5,9.5 224.5,14.5C 204.5,14.5 184.5,14.5 164.5,14.5C 164.5,19.5 164.5,24.5 164.5,29.5C 154.5,29.5 144.5,29.5 134.5,29.5C 134.5,34.5 134.5,39.5 134.5,44.5C 129.5,44.5 124.5,44.5 119.5,44.5C 119.5,49.5 119.5,54.5 119.5,59.5C 119.167,59.5 118.833,59.5 118.5,59.5C 118.5,54.5 118.5,49.5 118.5,44.5C 118.5,39.5 118.5,34.5 118.5,29.5C 123.5,29.5 128.5,29.5 133.5,29.5C 133.5,24.5 133.5,19.5 133.5,14.5C 143.5,14.5 153.5,14.5 163.5,14.5C 163.5,9.5 163.5,4.5 163.5,-0.5 Z"/></g>
<g><path style="opacity:1" fill="#95d9fa" d="M 224.5,14.5 C 224.5,19.5 224.5,24.5 224.5,29.5C 214.5,29.5 204.5,29.5 194.5,29.5C 194.5,34.5 194.5,39.5 194.5,44.5C 189.5,44.5 184.5,44.5 179.5,44.5C 179.5,49.5 179.5,54.5 179.5,59.5C 174.5,59.5 169.5,59.5 164.5,59.5C 164.5,64.5 164.5,69.5 164.5,74.5C 149.5,74.5 134.5,74.5 119.5,74.5C 119.5,69.5 119.5,64.5 119.5,59.5C 119.5,54.5 119.5,49.5 119.5,44.5C 124.5,44.5 129.5,44.5 134.5,44.5C 134.5,39.5 134.5,34.5 134.5,29.5C 144.5,29.5 154.5,29.5 164.5,29.5C 164.5,24.5 164.5,19.5 164.5,14.5C 184.5,14.5 204.5,14.5 224.5,14.5 Z"/></g>
<g><path style="opacity:1" fill="#82c0d9" d="M 224.5,14.5 C 234.5,14.5 244.5,14.5 254.5,14.5C 254.5,19.5 254.5,24.5 254.5,29.5C 264.833,29.5 275.167,29.5 285.5,29.5C 285.5,34.5 285.5,39.5 285.5,44.5C 290.5,44.5 295.5,44.5 300.5,44.5C 300.5,49.5 300.5,54.5 300.5,59.5C 305.5,59.5 310.5,59.5 315.5,59.5C 315.5,69.5 315.5,79.5 315.5,89.5C 320.5,89.5 325.5,89.5 330.5,89.5C 330.5,94.5 330.5,99.5 330.5,104.5C 325.5,104.5 320.5,104.5 315.5,104.5C 315.5,109.833 315.5,115.167 315.5,120.5C 310.5,120.5 305.5,120.5 300.5,120.5C 300.5,125.5 300.5,130.5 300.5,135.5C 295.5,135.5 290.5,135.5 285.5,135.5C 285.5,130.5 285.5,125.5 285.5,120.5C 285.666,115.489 285.499,110.489 285,105.5C 280.263,104.531 275.43,104.197 270.5,104.5C 270.803,99.57 270.469,94.7367 269.5,90C 254.504,89.5001 239.504,89.3334 224.5,89.5C 224.5,84.5 224.5,79.5 224.5,74.5C 219.5,74.5 214.5,74.5 209.5,74.5C 209.5,79.5 209.5,84.5 209.5,89.5C 204.5,89.5 199.5,89.5 194.5,89.5C 194.5,94.8333 194.5,100.167 194.5,105.5C 199.5,105.5 204.5,105.5 209.5,105.5C 209.5,110.5 209.5,115.5 209.5,120.5C 209.5,130.5 209.5,140.5 209.5,150.5C 209.5,155.5 209.5,160.5 209.5,165.5C 209.5,170.5 209.5,175.5 209.5,180.5C 214.5,180.5 219.5,180.5 224.5,180.5C 229.5,180.5 234.5,180.5 239.5,180.5C 239.5,185.5 239.5,190.5 239.5,195.5C 234.5,195.5 229.5,195.5 224.5,195.5C 224.5,200.5 224.5,205.5 224.5,210.5C 204.5,210.5 184.5,210.5 164.5,210.5C 159.5,210.5 154.5,210.5 149.5,210.5C 149.5,215.5 149.5,220.5 149.5,225.5C 139.5,225.5 129.5,225.5 119.5,225.5C 119.821,220.305 119.487,215.305 118.5,210.5C 113.5,210.5 108.5,210.5 103.5,210.5C 103.5,205.5 103.5,200.5 103.5,195.5C 108.5,195.5 113.5,195.5 118.5,195.5C 118.5,190.5 118.5,185.5 118.5,180.5C 113.5,180.5 108.5,180.5 103.5,180.5C 103.5,175.5 103.5,170.5 103.5,165.5C 103.5,160.5 103.5,155.5 103.5,150.5C 103.5,145.5 103.5,140.5 103.5,135.5C 103.5,130.5 103.5,125.5 103.5,120.5C 103.5,120.167 103.5,119.833 103.5,119.5C 103.5,114.833 103.5,110.167 103.5,105.5C 103.5,105.167 103.5,104.833 103.5,104.5C 103.5,99.8333 103.5,95.1667 103.5,90.5C 103.5,80.1667 103.5,69.8333 103.5,59.5C 108.5,59.5 113.5,59.5 118.5,59.5C 118.833,59.5 119.167,59.5 119.5,59.5C 119.5,64.5 119.5,69.5 119.5,74.5C 134.5,74.5 149.5,74.5 164.5,74.5C 164.5,69.5 164.5,64.5 164.5,59.5C 169.5,59.5 174.5,59.5 179.5,59.5C 179.5,54.5 179.5,49.5 179.5,44.5C 184.5,44.5 189.5,44.5 194.5,44.5C 194.5,39.5 194.5,34.5 194.5,29.5C 204.5,29.5 214.5,29.5 224.5,29.5C 224.5,24.5 224.5,19.5 224.5,14.5 Z"/></g>
<g><path style="opacity:1" fill="#5d89a2" d="M 224.5,-0.5 C 234.833,-0.5 245.167,-0.5 255.5,-0.5C 255.5,4.5 255.5,9.5 255.5,14.5C 265.5,14.5 275.5,14.5 285.5,14.5C 285.5,19.5 285.5,24.5 285.5,29.5C 275.167,29.5 264.833,29.5 254.5,29.5C 254.5,24.5 254.5,19.5 254.5,14.5C 244.5,14.5 234.5,14.5 224.5,14.5C 224.5,9.5 224.5,4.5 224.5,-0.5 Z"/></g>
<g><path style="opacity:1" fill="#5d88a2" d="M 285.5,29.5 C 290.5,29.5 295.5,29.5 300.5,29.5C 300.5,34.5 300.5,39.5 300.5,44.5C 300.5,39.5 300.5,34.5 300.5,29.5C 295.5,29.5 290.5,29.5 285.5,29.5 Z"/></g>
<g><path style="opacity:1" fill="#5d88a2" d="M 118.5,44.5 C 118.5,49.5 118.5,54.5 118.5,59.5C 113.5,59.5 108.5,59.5 103.5,59.5C 103.5,54.5 103.5,49.5 103.5,44.5C 108.5,44.5 113.5,44.5 118.5,44.5 Z"/></g>
<g><path style="opacity:1" fill="#5d89a1" d="M 300.5,44.5 C 305.5,44.5 310.5,44.5 315.5,44.5C 315.5,49.5 315.5,54.5 315.5,59.5C 315.5,54.5 315.5,49.5 315.5,44.5C 310.5,44.5 305.5,44.5 300.5,44.5 Z"/></g>
<g><path style="opacity:1" fill="#5d89a1" d="M 315.5,59.5 C 320.5,59.5 325.5,59.5 330.5,59.5C 330.5,69.5 330.5,79.5 330.5,89.5C 325.5,89.5 320.5,89.5 315.5,89.5C 315.5,79.5 315.5,69.5 315.5,59.5 Z"/></g>
<g><path style="opacity:1" fill="#5d88a2" d="M 103.5,59.5 C 103.5,69.8333 103.5,80.1667 103.5,90.5C 98.8333,90.5 94.1667,90.5 89.5,90.5C 89.5,95.1667 89.5,99.8333 89.5,104.5C 88.5119,109.64 88.1786,114.974 88.5,120.5C 88.5,125.5 88.5,130.5 88.5,135.5C 88.5,140.5 88.5,145.5 88.5,150.5C 88.5,155.5 88.5,160.5 88.5,165.5C 83.5,165.5 78.5,165.5 73.5,165.5C 73.5,140.167 73.5,114.833 73.5,89.5C 78.5,89.5 83.5,89.5 88.5,89.5C 88.5,79.5 88.5,69.5 88.5,59.5C 93.5,59.5 98.5,59.5 103.5,59.5 Z"/></g>
<g><path style="opacity:1" fill="#709cc1" d="M 103.5,90.5 C 103.5,95.1667 103.5,99.8333 103.5,104.5C 98.8333,104.5 94.1667,104.5 89.5,104.5C 89.5,99.8333 89.5,95.1667 89.5,90.5C 94.1667,90.5 98.8333,90.5 103.5,90.5 Z"/></g>
<g><path style="opacity:1" fill="#7badd2" d="M 270.5,104.5 C 260.319,104.173 250.319,104.506 240.5,105.5C 240.167,105.5 239.833,105.5 239.5,105.5C 234.5,105.5 229.5,105.5 224.5,105.5C 224.5,110.5 224.5,115.5 224.5,120.5C 219.5,120.5 214.5,120.5 209.5,120.5C 209.5,115.5 209.5,110.5 209.5,105.5C 204.5,105.5 199.5,105.5 194.5,105.5C 194.5,100.167 194.5,94.8333 194.5,89.5C 199.5,89.5 204.5,89.5 209.5,89.5C 209.5,84.5 209.5,79.5 209.5,74.5C 214.5,74.5 219.5,74.5 224.5,74.5C 224.5,79.5 224.5,84.5 224.5,89.5C 239.504,89.3334 254.504,89.5001 269.5,90C 270.469,94.7367 270.803,99.57 270.5,104.5 Z"/></g>
<g><path style="opacity:1" fill="#82c1d9" d="M 209.5,90.5 C 214.5,90.5 219.5,90.5 224.5,90.5C 224.5,95.1667 224.5,99.8333 224.5,104.5C 219.5,104.5 214.5,104.5 209.5,104.5C 209.5,99.8333 209.5,95.1667 209.5,90.5 Z"/></g>
<g><path style="opacity:1" fill="#5a849d" d="M 330.5,89.5 C 335.5,89.5 340.5,89.5 345.5,89.5C 345.5,94.8333 345.5,100.167 345.5,105.5C 340.5,105.5 335.5,105.5 330.5,105.5C 330.5,105.167 330.5,104.833 330.5,104.5C 330.5,99.5 330.5,94.5 330.5,89.5 Z"/></g>
<g><path style="opacity:1" fill="#a5bbd0" d="M 240.5,105.5 C 250.319,104.506 260.319,104.173 270.5,104.5C 270.5,109.833 270.5,115.167 270.5,120.5C 270.5,135.5 270.5,150.5 270.5,165.5C 270.821,170.695 270.487,175.695 269.5,180.5C 269.5,165.5 269.5,150.5 269.5,135.5C 269.5,125.5 269.5,115.5 269.5,105.5C 259.833,105.5 250.167,105.5 240.5,105.5 Z"/></g>
<g><path style="opacity:1" fill="#a87a6c" d="M 89.5,104.5 C 94.1667,104.5 98.8333,104.5 103.5,104.5C 103.5,104.833 103.5,105.167 103.5,105.5C 98.8333,105.5 94.1667,105.5 89.5,105.5C 89.5,110.167 89.5,114.833 89.5,119.5C 94.1667,119.5 98.8333,119.5 103.5,119.5C 103.5,119.833 103.5,120.167 103.5,120.5C 98.5,120.5 93.5,120.5 88.5,120.5C 88.1786,114.974 88.5119,109.64 89.5,104.5 Z"/></g>
<g><path style="opacity:1" fill="#c05731" d="M 103.5,105.5 C 103.5,110.167 103.5,114.833 103.5,119.5C 98.8333,119.5 94.1667,119.5 89.5,119.5C 89.5,114.833 89.5,110.167 89.5,105.5C 94.1667,105.5 98.8333,105.5 103.5,105.5 Z"/></g>
<g><path style="opacity:1" fill="#030808" d="M 239.5,105.5 C 239.5,110.5 239.5,115.5 239.5,120.5C 244.5,120.5 249.5,120.5 254.5,120.5C 254.5,125.5 254.5,130.5 254.5,135.5C 249.5,135.5 244.5,135.5 239.5,135.5C 239.5,150.5 239.5,165.5 239.5,180.5C 234.5,180.5 229.5,180.5 224.5,180.5C 224.5,175.5 224.5,170.5 224.5,165.5C 224.5,160.5 224.5,155.5 224.5,150.5C 219.5,150.5 214.5,150.5 209.5,150.5C 209.5,140.5 209.5,130.5 209.5,120.5C 214.5,120.5 219.5,120.5 224.5,120.5C 224.5,115.5 224.5,110.5 224.5,105.5C 229.5,105.5 234.5,105.5 239.5,105.5 Z"/></g>
<g><path style="opacity:1" fill="#808080" d="M 239.5,105.5 C 239.833,105.5 240.167,105.5 240.5,105.5C 240.5,110.167 240.5,114.833 240.5,119.5C 245.363,119.181 250.03,119.514 254.5,120.5C 249.5,120.5 244.5,120.5 239.5,120.5C 239.5,115.5 239.5,110.5 239.5,105.5 Z"/></g>
<g><path style="opacity:1" fill="#cecbca" d="M 240.5,105.5 C 250.167,105.5 259.833,105.5 269.5,105.5C 269.5,115.5 269.5,125.5 269.5,135.5C 264.833,135.5 260.167,135.5 255.5,135.5C 255.5,150.5 255.5,165.5 255.5,180.5C 255.167,180.5 254.833,180.5 254.5,180.5C 254.5,165.5 254.5,150.5 254.5,135.5C 254.5,130.5 254.5,125.5 254.5,120.5C 250.03,119.514 245.363,119.181 240.5,119.5C 240.5,114.833 240.5,110.167 240.5,105.5 Z"/></g>
<g><path style="opacity:1" fill="#7caed3" d="M 270.5,104.5 C 275.43,104.197 280.263,104.531 285,105.5C 285.499,110.489 285.666,115.489 285.5,120.5C 280.5,120.5 275.5,120.5 270.5,120.5C 270.5,115.167 270.5,109.833 270.5,104.5 Z"/></g>
<g><path style="opacity:1" fill="#7caed3" d="M 330.5,104.5 C 330.5,104.833 330.5,105.167 330.5,105.5C 330.5,135.5 330.5,165.5 330.5,195.5C 325.5,195.5 320.5,195.5 315.5,195.5C 315.5,200.5 315.5,205.5 315.5,210.5C 315.5,215.5 315.5,220.5 315.5,225.5C 310.5,225.5 305.5,225.5 300.5,225.5C 300.5,230.5 300.5,235.5 300.5,240.5C 290.494,240.334 280.494,240.5 270.5,241C 269.531,245.737 269.197,250.57 269.5,255.5C 259.5,255.5 249.5,255.5 239.5,255.5C 239.5,260.5 239.5,265.5 239.5,270.5C 209.5,270.5 179.5,270.5 149.5,270.5C 149.5,265.833 149.5,261.167 149.5,256.5C 174.672,256.831 199.672,256.498 224.5,255.5C 224.5,250.833 224.5,246.167 224.5,241.5C 224.5,241.167 224.5,240.833 224.5,240.5C 234.5,240.5 244.5,240.5 254.5,240.5C 255.486,236.03 255.819,231.363 255.5,226.5C 260.363,226.819 265.03,226.486 269.5,225.5C 270.487,220.695 270.821,215.695 270.5,210.5C 270.5,205.5 270.5,200.5 270.5,195.5C 265.167,195.5 259.833,195.5 254.5,195.5C 254.5,200.5 254.5,205.5 254.5,210.5C 249.5,210.5 244.5,210.5 239.5,210.5C 234.5,210.5 229.5,210.5 224.5,210.5C 224.5,205.5 224.5,200.5 224.5,195.5C 229.5,195.5 234.5,195.5 239.5,195.5C 239.5,190.5 239.5,185.5 239.5,180.5C 244.5,180.5 249.5,180.5 254.5,180.5C 254.833,180.5 255.167,180.5 255.5,180.5C 260.167,180.5 264.833,180.5 269.5,180.5C 270.487,175.695 270.821,170.695 270.5,165.5C 275.5,165.5 280.5,165.5 285.5,165.5C 285.5,155.5 285.5,145.5 285.5,135.5C 290.5,135.5 295.5,135.5 300.5,135.5C 300.5,130.5 300.5,125.5 300.5,120.5C 305.5,120.5 310.5,120.5 315.5,120.5C 315.5,115.167 315.5,109.833 315.5,104.5C 320.5,104.5 325.5,104.5 330.5,104.5 Z"/></g>
<g><path style="opacity:1" fill="#000606" d="M 330.5,105.5 C 335.5,105.5 340.5,105.5 345.5,105.5C 345.5,135.833 345.5,166.167 345.5,196.5C 340.5,196.5 335.5,196.5 330.5,196.5C 330.5,201.167 330.5,205.833 330.5,210.5C 325.5,210.5 320.5,210.5 315.5,210.5C 315.5,205.5 315.5,200.5 315.5,195.5C 320.5,195.5 325.5,195.5 330.5,195.5C 330.5,165.5 330.5,135.5 330.5,105.5 Z"/></g>
<g><path style="opacity:1" fill="#f5f4f4" d="M 88.5,120.5 C 93.5,120.5 98.5,120.5 103.5,120.5C 103.5,125.5 103.5,130.5 103.5,135.5C 98.5,135.5 93.5,135.5 88.5,135.5C 88.5,130.5 88.5,125.5 88.5,120.5 Z"/></g>
<g><path style="opacity:1" fill="#709cc1" d="M 104.5,120.5 C 109.167,120.5 113.833,120.5 118.5,120.5C 118.5,130.5 118.5,140.5 118.5,150.5C 113.833,150.5 109.167,150.5 104.5,150.5C 104.5,140.5 104.5,130.5 104.5,120.5 Z"/></g>
<g><path style="opacity:1" fill="#5d89a3" d="M 270.5,120.5 C 275.5,120.5 280.5,120.5 285.5,120.5C 285.5,125.5 285.5,130.5 285.5,135.5C 285.5,145.5 285.5,155.5 285.5,165.5C 280.5,165.5 275.5,165.5 270.5,165.5C 270.5,150.5 270.5,135.5 270.5,120.5 Z"/></g>
<g><path style="opacity:1" fill="#bd5834" d="M 88.5,135.5 C 93.5,135.5 98.5,135.5 103.5,135.5C 103.5,140.5 103.5,145.5 103.5,150.5C 98.5,150.5 93.5,150.5 88.5,150.5C 88.5,145.5 88.5,140.5 88.5,135.5 Z"/></g>
<g><path style="opacity:1" fill="#bc5531" d="M 254.5,135.5 C 254.5,150.5 254.5,165.5 254.5,180.5C 249.5,180.5 244.5,180.5 239.5,180.5C 239.5,165.5 239.5,150.5 239.5,135.5C 244.5,135.5 249.5,135.5 254.5,135.5 Z"/></g>
<g><path style="opacity:1" fill="#f9faf9" d="M 269.5,135.5 C 269.5,150.5 269.5,165.5 269.5,180.5C 264.833,180.5 260.167,180.5 255.5,180.5C 255.5,165.5 255.5,150.5 255.5,135.5C 260.167,135.5 264.833,135.5 269.5,135.5 Z"/></g>
<g><path style="opacity:1" fill="#030a0c" d="M 88.5,150.5 C 93.5,150.5 98.5,150.5 103.5,150.5C 103.5,155.5 103.5,160.5 103.5,165.5C 98.5,165.5 93.5,165.5 88.5,165.5C 88.5,160.5 88.5,155.5 88.5,150.5 Z"/></g>
<g><path style="opacity:1" fill="#f9f9fa" d="M 209.5,150.5 C 214.5,150.5 219.5,150.5 224.5,150.5C 224.5,155.5 224.5,160.5 224.5,165.5C 219.5,165.5 214.5,165.5 209.5,165.5C 209.5,160.5 209.5,155.5 209.5,150.5 Z"/></g>
<g><path style="opacity:1" fill="#5d89a1" d="M 73.5,165.5 C 73.5,170.5 73.5,175.5 73.5,180.5C 68.5,180.5 63.5,180.5 58.5,180.5C 58.5,175.5 58.5,170.5 58.5,165.5C 63.5,165.5 68.5,165.5 73.5,165.5 Z"/></g>
<g><path style="opacity:1" fill="#94d8f8" d="M 73.5,165.5 C 78.5,165.5 83.5,165.5 88.5,165.5C 93.5,165.5 98.5,165.5 103.5,165.5C 103.5,170.5 103.5,175.5 103.5,180.5C 98.8333,180.5 94.1667,180.5 89.5,180.5C 89.5,185.5 89.5,190.5 89.5,195.5C 89.1667,195.5 88.8333,195.5 88.5,195.5C 83.5,195.5 78.5,195.5 73.5,195.5C 73.5,190.5 73.5,185.5 73.5,180.5C 73.5,175.5 73.5,170.5 73.5,165.5 Z"/></g>
<g><path style="opacity:1" fill="#c05733" d="M 209.5,165.5 C 214.5,165.5 219.5,165.5 224.5,165.5C 224.5,170.5 224.5,175.5 224.5,180.5C 219.5,180.5 214.5,180.5 209.5,180.5C 209.5,175.5 209.5,170.5 209.5,165.5 Z"/></g>
<g><path style="opacity:1" fill="#89c1ed" d="M 103.5,180.5 C 103.5,185.5 103.5,190.5 103.5,195.5C 98.8333,195.5 94.1667,195.5 89.5,195.5C 89.5,190.5 89.5,185.5 89.5,180.5C 94.1667,180.5 98.8333,180.5 103.5,180.5 Z"/></g>
<g><path style="opacity:1" fill="#709cc1" d="M 103.5,180.5 C 108.5,180.5 113.5,180.5 118.5,180.5C 118.5,185.5 118.5,190.5 118.5,195.5C 113.5,195.5 108.5,195.5 103.5,195.5C 103.5,190.5 103.5,185.5 103.5,180.5 Z"/></g>
<g><path style="opacity:1" fill="#709cc1" d="M 134.5,180.5 C 139.5,180.5 144.5,180.5 149.5,180.5C 149.5,185.5 149.5,190.5 149.5,195.5C 144.5,195.5 139.5,195.5 134.5,195.5C 134.5,190.5 134.5,185.5 134.5,180.5 Z"/></g>
<g><path style="opacity:1" fill="#7dafd4" d="M 375.5,195.5 C 375.5,200.5 375.5,205.5 375.5,210.5C 370.5,210.5 365.5,210.5 360.5,210.5C 360.5,205.5 360.5,200.5 360.5,195.5C 365.5,195.5 370.5,195.5 375.5,195.5 Z"/></g>
<g><path style="opacity:1" fill="#5d88a2" d="M 375.5,195.5 C 390.833,195.5 406.167,195.5 421.5,195.5C 421.5,200.5 421.5,205.5 421.5,210.5C 421.167,210.5 420.833,210.5 420.5,210.5C 405.5,210.5 390.5,210.5 375.5,210.5C 375.5,205.5 375.5,200.5 375.5,195.5 Z"/></g>
<g><path style="opacity:1" fill="#030a0c" d="M 58.5,180.5 C 63.5,180.5 68.5,180.5 73.5,180.5C 73.5,185.5 73.5,190.5 73.5,195.5C 78.5,195.5 83.5,195.5 88.5,195.5C 88.5,200.5 88.5,205.5 88.5,210.5C 93.5,210.5 98.5,210.5 103.5,210.5C 108.5,210.5 113.5,210.5 118.5,210.5C 118.5,210.833 118.5,211.167 118.5,211.5C 108.5,211.5 98.5,211.5 88.5,211.5C 83.5,211.5 78.5,211.5 73.5,211.5C 73.5,206.5 73.5,201.5 73.5,196.5C 68.5,196.5 63.5,196.5 58.5,196.5C 58.5,191.167 58.5,185.833 58.5,180.5 Z"/></g>
<g><path style="opacity:1" fill="#5b869f" d="M 88.5,195.5 C 88.8333,195.5 89.1667,195.5 89.5,195.5C 94.1667,195.5 98.8333,195.5 103.5,195.5C 103.5,200.5 103.5,205.5 103.5,210.5C 98.5,210.5 93.5,210.5 88.5,210.5C 88.5,205.5 88.5,200.5 88.5,195.5 Z"/></g>
<g><path style="opacity:1" fill="#5e8aa4" d="M 270.5,210.5 C 265.167,210.5 259.833,210.5 254.5,210.5C 254.5,205.5 254.5,200.5 254.5,195.5C 259.833,195.5 265.167,195.5 270.5,195.5C 270.5,200.5 270.5,205.5 270.5,210.5 Z"/></g>
<g><path style="opacity:1" fill="#7dafd4" d="M 28.5,225.5 C 23.1667,225.5 17.8333,225.5 12.5,225.5C 12.5,220.5 12.5,215.5 12.5,210.5C 17.8333,210.5 23.1667,210.5 28.5,210.5C 28.5,215.5 28.5,220.5 28.5,225.5 Z"/></g>
<g><path style="opacity:1" fill="#7cafd4" d="M 59.5,225.5 C 58.5128,230.305 58.1795,235.305 58.5,240.5C 63.5,240.5 68.5,240.5 73.5,240.5C 73.5,240.833 73.5,241.167 73.5,241.5C 63.5,241.5 53.5,241.5 43.5,241.5C 43.5,236.167 43.5,230.833 43.5,225.5C 43.5,220.5 43.5,215.5 43.5,210.5C 48.8333,210.5 54.1667,210.5 59.5,210.5C 59.5,215.5 59.5,220.5 59.5,225.5 Z"/></g>
<g><path style="opacity:1" fill="#9c6a5f" d="M 239.5,210.5 C 244.5,210.5 249.5,210.5 254.5,210.5C 259.833,210.5 265.167,210.5 270.5,210.5C 270.821,215.695 270.487,220.695 269.5,225.5C 269.5,220.833 269.5,216.167 269.5,211.5C 259.833,211.5 250.167,211.5 240.5,211.5C 240.819,216.363 240.486,221.03 239.5,225.5C 239.5,220.5 239.5,215.5 239.5,210.5 Z"/></g>
<g><path style="opacity:1" fill="#7dafd4" d="M 360.5,210.5 C 360.5,215.5 360.5,220.5 360.5,225.5C 355.5,225.5 350.5,225.5 345.5,225.5C 345.5,220.5 345.5,215.5 345.5,210.5C 350.5,210.5 355.5,210.5 360.5,210.5 Z"/></g>
<g><path style="opacity:1" fill="#000505" d="M 421.5,210.5 C 426.5,210.5 431.5,210.5 436.5,210.5C 436.5,215.833 436.5,221.167 436.5,226.5C 431.5,226.5 426.5,226.5 421.5,226.5C 421.5,221.167 421.5,215.833 421.5,210.5 Z"/></g>
<g><path style="opacity:1" fill="#000607" d="M 88.5,211.5 C 98.5,211.5 108.5,211.5 118.5,211.5C 118.5,216.167 118.5,220.833 118.5,225.5C 113.5,225.5 108.5,225.5 103.5,225.5C 103.5,230.5 103.5,235.5 103.5,240.5C 93.5,240.5 83.5,240.5 73.5,240.5C 73.5,235.5 73.5,230.5 73.5,225.5C 78.5,225.5 83.5,225.5 88.5,225.5C 88.5,220.833 88.5,216.167 88.5,211.5 Z"/></g>
<g><path style="opacity:1" fill="#7caed3" d="M 164.5,210.5 C 164.5,215.5 164.5,220.5 164.5,225.5C 159.5,225.5 154.5,225.5 149.5,225.5C 149.5,220.5 149.5,215.5 149.5,210.5C 154.5,210.5 159.5,210.5 164.5,210.5 Z"/></g>
<g><path style="opacity:1" fill="#5d89a3" d="M 164.5,210.5 C 184.5,210.5 204.5,210.5 224.5,210.5C 229.5,210.5 234.5,210.5 239.5,210.5C 239.5,215.5 239.5,220.5 239.5,225.5C 214.5,225.5 189.5,225.5 164.5,225.5C 164.5,220.5 164.5,215.5 164.5,210.5 Z"/></g>
<g><path style="opacity:1" fill="#ae5536" d="M 269.5,225.5 C 264.5,225.5 259.5,225.5 254.5,225.5C 254.5,230.5 254.5,235.5 254.5,240.5C 244.5,240.5 234.5,240.5 224.5,240.5C 224.5,235.833 224.5,231.167 224.5,226.5C 204.5,226.5 184.5,226.5 164.5,226.5C 159.5,226.5 154.5,226.5 149.5,226.5C 149.5,226.167 149.5,225.833 149.5,225.5C 154.5,225.5 159.5,225.5 164.5,225.5C 189.5,225.5 214.5,225.5 239.5,225.5C 240.486,221.03 240.819,216.363 240.5,211.5C 250.167,211.5 259.833,211.5 269.5,211.5C 269.5,216.167 269.5,220.833 269.5,225.5 Z"/></g>
<g><path style="opacity:1" fill="#5b869f" d="M 315.5,210.5 C 320.5,210.5 325.5,210.5 330.5,210.5C 330.5,215.5 330.5,220.5 330.5,225.5C 325.5,225.5 320.5,225.5 315.5,225.5C 315.5,220.5 315.5,215.5 315.5,210.5 Z"/></g>
<g><path style="opacity:1" fill="#8ecdf9" d="M 360.5,210.5 C 365.5,210.5 370.5,210.5 375.5,210.5C 380.305,211.487 385.305,211.821 390.5,211.5C 390.5,216.167 390.5,220.833 390.5,225.5C 385.5,225.5 380.5,225.5 375.5,225.5C 375.5,230.5 375.5,235.5 375.5,240.5C 370.305,240.179 365.305,240.513 360.5,241.5C 360.5,246.167 360.5,250.833 360.5,255.5C 360.5,260.833 360.5,266.167 360.5,271.5C 355.5,271.5 350.5,271.5 345.5,271.5C 345.5,276.5 345.5,281.5 345.5,286.5C 340.5,286.5 335.5,286.5 330.5,286.5C 330.5,291.5 330.5,296.5 330.5,301.5C 320.5,301.5 310.5,301.5 300.5,301.5C 300.5,296.5 300.5,291.5 300.5,286.5C 300.5,281.5 300.5,276.5 300.5,271.5C 305.5,271.5 310.5,271.5 315.5,271.5C 315.5,266.167 315.5,260.833 315.5,255.5C 315.5,250.833 315.5,246.167 315.5,241.5C 320.5,241.5 325.5,241.5 330.5,241.5C 330.5,236.167 330.5,230.833 330.5,225.5C 335.5,225.5 340.5,225.5 345.5,225.5C 350.5,225.5 355.5,225.5 360.5,225.5C 360.5,220.5 360.5,215.5 360.5,210.5 Z"/></g>
<g><path style="opacity:1" fill="#7cadd2" d="M 375.5,210.5 C 390.5,210.5 405.5,210.5 420.5,210.5C 420.5,215.5 420.5,220.5 420.5,225.5C 415.5,225.5 410.5,225.5 405.5,225.5C 405.5,235.5 405.5,245.5 405.5,255.5C 400.5,255.5 395.5,255.5 390.5,255.5C 390.5,245.833 390.5,236.167 390.5,226.5C 385.833,226.5 381.167,226.5 376.5,226.5C 376.5,231.5 376.5,236.5 376.5,241.5C 371.167,241.5 365.833,241.5 360.5,241.5C 365.305,240.513 370.305,240.179 375.5,240.5C 375.5,235.5 375.5,230.5 375.5,225.5C 380.5,225.5 385.5,225.5 390.5,225.5C 390.5,220.833 390.5,216.167 390.5,211.5C 385.305,211.821 380.305,211.487 375.5,210.5 Z"/></g>
<g><path style="opacity:1" fill="#8ecdf9" d="M 28.5,225.5 C 33.5,225.5 38.5,225.5 43.5,225.5C 43.5,230.833 43.5,236.167 43.5,241.5C 53.5,241.5 63.5,241.5 73.5,241.5C 73.5,246.5 73.5,251.5 73.5,256.5C 83.5,256.5 93.5,256.5 103.5,256.5C 108.5,256.5 113.5,256.5 118.5,256.5C 118.179,261.695 118.513,266.695 119.5,271.5C 119.5,276.5 119.5,281.5 119.5,286.5C 94.1667,286.5 68.8333,286.5 43.5,286.5C 43.5,281.167 43.5,275.833 43.5,270.5C 33.5,270.5 23.5,270.5 13.5,270.5C 13.5,265.5 13.5,260.5 13.5,255.5C 13.5,250.833 13.5,246.167 13.5,241.5C 18.6946,241.821 23.6946,241.487 28.5,240.5C 28.5,235.5 28.5,230.5 28.5,225.5 Z"/></g>
<g><path style="opacity:1" fill="#5d89a2" d="M 59.5,225.5 C 64.1667,225.5 68.8333,225.5 73.5,225.5C 73.5,230.5 73.5,235.5 73.5,240.5C 68.5,240.5 63.5,240.5 58.5,240.5C 58.1795,235.305 58.5128,230.305 59.5,225.5 Z"/></g>
<g><path style="opacity:1" fill="#8f8894" d="M 269.5,225.5 C 265.03,226.486 260.363,226.819 255.5,226.5C 255.819,231.363 255.486,236.03 254.5,240.5C 254.5,235.5 254.5,230.5 254.5,225.5C 259.5,225.5 264.5,225.5 269.5,225.5 Z"/></g>
<g><path style="opacity:1" fill="#5d89a3" d="M 12.5,225.5 C 17.8333,225.5 23.1667,225.5 28.5,225.5C 28.5,230.5 28.5,235.5 28.5,240.5C 23.1667,240.5 17.8333,240.5 12.5,240.5C 12.5,235.5 12.5,230.5 12.5,225.5 Z"/></g>
<g><path style="opacity:1" fill="#3d576d" d="M 118.5,210.5 C 119.487,215.305 119.821,220.305 119.5,225.5C 129.5,225.5 139.5,225.5 149.5,225.5C 149.5,225.833 149.5,226.167 149.5,226.5C 139.5,226.5 129.5,226.5 119.5,226.5C 119.5,231.167 119.5,235.833 119.5,240.5C 129.5,240.5 139.5,240.5 149.5,240.5C 149.5,240.833 149.5,241.167 149.5,241.5C 149.167,241.5 148.833,241.5 148.5,241.5C 138.833,241.5 129.167,241.5 119.5,241.5C 119.5,246.167 119.5,250.833 119.5,255.5C 124.5,255.5 129.5,255.5 134.5,255.5C 134.5,260.833 134.5,266.167 134.5,271.5C 129.5,271.5 124.5,271.5 119.5,271.5C 118.513,266.695 118.179,261.695 118.5,256.5C 113.5,256.5 108.5,256.5 103.5,256.5C 103.5,251.5 103.5,246.5 103.5,241.5C 93.5,241.5 83.5,241.5 73.5,241.5C 73.5,241.167 73.5,240.833 73.5,240.5C 83.5,240.5 93.5,240.5 103.5,240.5C 103.5,235.5 103.5,230.5 103.5,225.5C 108.5,225.5 113.5,225.5 118.5,225.5C 118.5,220.833 118.5,216.167 118.5,211.5C 118.5,211.167 118.5,210.833 118.5,210.5 Z"/></g>
<g><path style="opacity:1" fill="#7dafd4" d="M 104.5,226.5 C 109.167,226.5 113.833,226.5 118.5,226.5C 118.5,231.167 118.5,235.833 118.5,240.5C 113.833,240.5 109.167,240.5 104.5,240.5C 104.5,235.833 104.5,231.167 104.5,226.5 Z"/></g>
<g><path style="opacity:1" fill="#020606" d="M 149.5,226.5 C 149.5,231.167 149.5,235.833 149.5,240.5C 139.5,240.5 129.5,240.5 119.5,240.5C 119.5,235.833 119.5,231.167 119.5,226.5C 129.5,226.5 139.5,226.5 149.5,226.5 Z"/></g>
<g><path style="opacity:1" fill="#af5132" d="M 149.5,226.5 C 154.5,226.5 159.5,226.5 164.5,226.5C 164.5,231.5 164.5,236.5 164.5,241.5C 184.5,241.5 204.5,241.5 224.5,241.5C 224.5,246.167 224.5,250.833 224.5,255.5C 199.5,255.5 174.5,255.5 149.5,255.5C 149.5,250.833 149.5,246.167 149.5,241.5C 149.5,241.167 149.5,240.833 149.5,240.5C 149.5,235.833 149.5,231.167 149.5,226.5 Z"/></g>
<g><path style="opacity:1" fill="#df8143" d="M 164.5,226.5 C 184.5,226.5 204.5,226.5 224.5,226.5C 224.5,231.167 224.5,235.833 224.5,240.5C 224.5,240.833 224.5,241.167 224.5,241.5C 204.5,241.5 184.5,241.5 164.5,241.5C 164.5,236.5 164.5,231.5 164.5,226.5 Z"/></g>
<g><path style="opacity:1" fill="#060d0f" d="M 315.5,225.5 C 315.5,230.5 315.5,235.5 315.5,240.5C 310.5,240.5 305.5,240.5 300.5,240.5C 300.5,235.5 300.5,230.5 300.5,225.5C 305.5,225.5 310.5,225.5 315.5,225.5 Z"/></g>
<g><path style="opacity:1" fill="#7cafd4" d="M 315.5,225.5 C 320.5,225.5 325.5,225.5 330.5,225.5C 330.5,230.833 330.5,236.167 330.5,241.5C 325.5,241.5 320.5,241.5 315.5,241.5C 315.5,241.167 315.5,240.833 315.5,240.5C 315.5,235.5 315.5,230.5 315.5,225.5 Z"/></g>
<g><path style="opacity:1" fill="#5d89a2" d="M 390.5,255.5 C 380.5,255.5 370.5,255.5 360.5,255.5C 360.5,250.833 360.5,246.167 360.5,241.5C 365.833,241.5 371.167,241.5 376.5,241.5C 376.5,236.5 376.5,231.5 376.5,226.5C 381.167,226.5 385.833,226.5 390.5,226.5C 390.5,236.167 390.5,245.833 390.5,255.5 Z"/></g>
<g><path style="opacity:1" fill="#334656" d="M 420.5,210.5 C 420.833,210.5 421.167,210.5 421.5,210.5C 421.5,215.833 421.5,221.167 421.5,226.5C 416.5,226.5 411.5,226.5 406.5,226.5C 406.5,236.5 406.5,246.5 406.5,256.5C 401.5,256.5 396.5,256.5 391.5,256.5C 391.5,266.5 391.5,276.5 391.5,286.5C 391.167,286.5 390.833,286.5 390.5,286.5C 390.5,276.167 390.5,265.833 390.5,255.5C 395.5,255.5 400.5,255.5 405.5,255.5C 405.5,245.5 405.5,235.5 405.5,225.5C 410.5,225.5 415.5,225.5 420.5,225.5C 420.5,220.5 420.5,215.5 420.5,210.5 Z"/></g>
<g><path style="opacity:1" fill="#000505" d="M 421.5,226.5 C 421.5,236.5 421.5,246.5 421.5,256.5C 416.5,256.5 411.5,256.5 406.5,256.5C 406.5,246.5 406.5,236.5 406.5,226.5C 411.5,226.5 416.5,226.5 421.5,226.5 Z"/></g>
<g><path style="opacity:1" fill="#7caed3" d="M -0.5,240.5 C 3.83333,240.5 8.16667,240.5 12.5,240.5C 17.8333,240.5 23.1667,240.5 28.5,240.5C 23.6946,241.487 18.6946,241.821 13.5,241.5C 13.5,246.167 13.5,250.833 13.5,255.5C 8.83333,255.5 4.16667,255.5 -0.5,255.5C -0.5,250.5 -0.5,245.5 -0.5,240.5 Z"/></g>
<g><path style="opacity:1" fill="#7dafd5" d="M 73.5,241.5 C 83.5,241.5 93.5,241.5 103.5,241.5C 103.5,246.5 103.5,251.5 103.5,256.5C 93.5,256.5 83.5,256.5 73.5,256.5C 73.5,251.5 73.5,246.5 73.5,241.5 Z"/></g>
<g><path style="opacity:1" fill="#000605" d="M 104.5,241.5 C 109.167,241.5 113.833,241.5 118.5,241.5C 118.5,246.167 118.5,250.833 118.5,255.5C 113.833,255.5 109.167,255.5 104.5,255.5C 104.5,250.833 104.5,246.167 104.5,241.5 Z"/></g>
<g><path style="opacity:1" fill="#7dafd4" d="M 148.5,241.5 C 148.5,246.167 148.5,250.833 148.5,255.5C 143.833,255.5 139.167,255.5 134.5,255.5C 129.5,255.5 124.5,255.5 119.5,255.5C 119.5,250.833 119.5,246.167 119.5,241.5C 129.167,241.5 138.833,241.5 148.5,241.5 Z"/></g>
<g><path style="opacity:1" fill="#58819a" d="M 300.5,240.5 C 305.5,240.5 310.5,240.5 315.5,240.5C 315.5,240.833 315.5,241.167 315.5,241.5C 310.5,241.5 305.5,241.5 300.5,241.5C 295.5,241.5 290.5,241.5 285.5,241.5C 285.5,246.167 285.5,250.833 285.5,255.5C 280.167,255.5 274.833,255.5 269.5,255.5C 269.197,250.57 269.531,245.737 270.5,241C 280.494,240.5 290.494,240.334 300.5,240.5 Z"/></g>
<g><path style="opacity:1" fill="#020809" d="M 300.5,241.5 C 300.5,246.167 300.5,250.833 300.5,255.5C 295.5,255.5 290.5,255.5 285.5,255.5C 285.5,250.833 285.5,246.167 285.5,241.5C 290.5,241.5 295.5,241.5 300.5,241.5 Z"/></g>
<g><path style="opacity:1" fill="#5d89a2" d="M 300.5,241.5 C 305.5,241.5 310.5,241.5 315.5,241.5C 315.5,246.167 315.5,250.833 315.5,255.5C 310.5,255.5 305.5,255.5 300.5,255.5C 300.5,250.833 300.5,246.167 300.5,241.5 Z"/></g>
<g><path style="opacity:1" fill="#3b5369" d="M 269.5,255.5 C 269.5,255.833 269.5,256.167 269.5,256.5C 259.833,256.5 250.167,256.5 240.5,256.5C 240.5,261.167 240.5,265.833 240.5,270.5C 240.167,270.5 239.833,270.5 239.5,270.5C 239.5,265.5 239.5,260.5 239.5,255.5C 249.5,255.5 259.5,255.5 269.5,255.5 Z"/></g>
<g><path style="opacity:1" fill="#000605" d="M 119.5,256.5 C 124.167,256.5 128.833,256.5 133.5,256.5C 133.5,261.167 133.5,265.833 133.5,270.5C 128.833,270.5 124.167,270.5 119.5,270.5C 119.5,265.833 119.5,261.167 119.5,256.5 Z"/></g>
<g><path style="opacity:1" fill="#66879d" d="M 148.5,241.5 C 148.833,241.5 149.167,241.5 149.5,241.5C 149.5,246.167 149.5,250.833 149.5,255.5C 174.5,255.5 199.5,255.5 224.5,255.5C 199.672,256.498 174.672,256.831 149.5,256.5C 149.5,261.167 149.5,265.833 149.5,270.5C 179.5,270.5 209.5,270.5 239.5,270.5C 239.5,270.833 239.5,271.167 239.5,271.5C 214.5,271.5 189.5,271.5 164.5,271.5C 164.5,276.167 164.5,280.833 164.5,285.5C 164.5,285.833 164.5,286.167 164.5,286.5C 159.5,286.5 154.5,286.5 149.5,286.5C 144.5,286.5 139.5,286.5 134.5,286.5C 139.305,285.513 144.305,285.179 149.5,285.5C 149.5,280.833 149.5,276.167 149.5,271.5C 144.5,271.5 139.5,271.5 134.5,271.5C 134.5,266.167 134.5,260.833 134.5,255.5C 139.167,255.5 143.833,255.5 148.5,255.5C 148.5,250.833 148.5,246.167 148.5,241.5 Z"/></g>
<g><path style="opacity:1" fill="#000605" d="M 269.5,256.5 C 269.5,261.167 269.5,265.833 269.5,270.5C 259.833,270.5 250.167,270.5 240.5,270.5C 240.5,265.833 240.5,261.167 240.5,256.5C 250.167,256.5 259.833,256.5 269.5,256.5 Z"/></g>
<g><path style="opacity:1" fill="#daa845" d="M 270.5,256.5 C 275.167,256.5 279.833,256.5 284.5,256.5C 284.5,261.5 284.5,266.5 284.5,271.5C 279.833,271.5 275.167,271.5 270.5,271.5C 270.5,266.5 270.5,261.5 270.5,256.5 Z"/></g>
<g><path style="opacity:1" fill="#cacccc" d="M 285.5,256.5 C 290.5,256.5 295.5,256.5 300.5,256.5C 300.5,261.5 300.5,266.5 300.5,271.5C 295.5,271.5 290.5,271.5 285.5,271.5C 285.5,266.5 285.5,261.5 285.5,256.5 Z"/></g>
<g><path style="opacity:1" fill="#7babcd" d="M 285.5,256.5 C 285.5,256.167 285.5,255.833 285.5,255.5C 290.5,255.5 295.5,255.5 300.5,255.5C 305.5,255.5 310.5,255.5 315.5,255.5C 315.5,260.833 315.5,266.167 315.5,271.5C 310.5,271.5 305.5,271.5 300.5,271.5C 300.5,266.5 300.5,261.5 300.5,256.5C 295.5,256.5 290.5,256.5 285.5,256.5 Z"/></g>
<g><path style="opacity:1" fill="#7caed3" d="M 360.5,255.5 C 370.5,255.5 380.5,255.5 390.5,255.5C 390.5,265.833 390.5,276.167 390.5,286.5C 385.5,286.5 380.5,286.5 375.5,286.5C 375.5,291.5 375.5,296.5 375.5,301.5C 370.5,301.5 365.5,301.5 360.5,301.5C 360.5,306.5 360.5,311.5 360.5,316.5C 355.5,316.5 350.5,316.5 345.5,316.5C 345.5,321.5 345.5,326.5 345.5,331.5C 330.5,331.5 315.5,331.5 300.5,331.5C 300.5,326.5 300.5,321.5 300.5,316.5C 295.5,316.5 290.5,316.5 285.5,316.5C 285.5,306.5 285.5,296.5 285.5,286.5C 290.5,286.5 295.5,286.5 300.5,286.5C 300.5,291.5 300.5,296.5 300.5,301.5C 310.5,301.5 320.5,301.5 330.5,301.5C 330.5,296.5 330.5,291.5 330.5,286.5C 335.5,286.5 340.5,286.5 345.5,286.5C 345.5,281.5 345.5,276.5 345.5,271.5C 350.5,271.5 355.5,271.5 360.5,271.5C 360.5,266.167 360.5,260.833 360.5,255.5 Z"/></g>
<g><path style="opacity:1" fill="#000505" d="M 406.5,256.5 C 406.5,266.5 406.5,276.5 406.5,286.5C 401.5,286.5 396.5,286.5 391.5,286.5C 391.5,276.5 391.5,266.5 391.5,256.5C 396.5,256.5 401.5,256.5 406.5,256.5 Z"/></g>
<g><path style="opacity:1" fill="#584f2f" d="M 269.5,256.5 C 269.833,256.5 270.167,256.5 270.5,256.5C 270.5,261.5 270.5,266.5 270.5,271.5C 260.5,271.5 250.5,271.5 240.5,271.5C 240.5,276.5 240.5,281.5 240.5,286.5C 235.167,286.5 229.833,286.5 224.5,286.5C 204.5,286.5 184.5,286.5 164.5,286.5C 164.5,286.167 164.5,285.833 164.5,285.5C 189.5,285.5 214.5,285.5 239.5,285.5C 239.5,280.833 239.5,276.167 239.5,271.5C 239.5,271.167 239.5,270.833 239.5,270.5C 239.833,270.5 240.167,270.5 240.5,270.5C 250.167,270.5 259.833,270.5 269.5,270.5C 269.5,265.833 269.5,261.167 269.5,256.5 Z"/></g>
<g><path style="opacity:1" fill="#5d89a2" d="M -0.5,255.5 C 4.16667,255.5 8.83333,255.5 13.5,255.5C 13.5,260.5 13.5,265.5 13.5,270.5C 18.3054,271.487 23.3054,271.821 28.5,271.5C 28.5,276.5 28.5,281.5 28.5,286.5C 23.1667,286.5 17.8333,286.5 12.5,286.5C 12.5,281.5 12.5,276.5 12.5,271.5C 8.16667,271.5 3.83333,271.5 -0.5,271.5C -0.5,266.167 -0.5,260.833 -0.5,255.5 Z"/></g>
<g><path style="opacity:1" fill="#7dafd5" d="M 13.5,270.5 C 23.5,270.5 33.5,270.5 43.5,270.5C 43.5,275.833 43.5,281.167 43.5,286.5C 38.5,286.5 33.5,286.5 28.5,286.5C 28.5,281.5 28.5,276.5 28.5,271.5C 23.3054,271.821 18.3054,271.487 13.5,270.5 Z"/></g>
<g><path style="opacity:1" fill="#7daed3" d="M 119.5,271.5 C 124.5,271.5 129.5,271.5 134.5,271.5C 139.5,271.5 144.5,271.5 149.5,271.5C 149.5,276.167 149.5,280.833 149.5,285.5C 144.305,285.179 139.305,285.513 134.5,286.5C 134.5,291.5 134.5,296.5 134.5,301.5C 129.5,301.5 124.5,301.5 119.5,301.5C 118.506,311.319 118.173,321.319 118.5,331.5C 113.833,331.5 109.167,331.5 104.5,331.5C 104.5,326.167 104.5,320.833 104.5,315.5C 94.5,315.5 84.5,315.5 74.5,315.5C 74.5,310.833 74.5,306.167 74.5,301.5C 64.1667,301.5 53.8333,301.5 43.5,301.5C 43.5,296.5 43.5,291.5 43.5,286.5C 68.8333,286.5 94.1667,286.5 119.5,286.5C 119.5,281.5 119.5,276.5 119.5,271.5 Z"/></g>
<g><path style="opacity:1" fill="#000605" d="M 239.5,271.5 C 239.5,276.167 239.5,280.833 239.5,285.5C 214.5,285.5 189.5,285.5 164.5,285.5C 164.5,280.833 164.5,276.167 164.5,271.5C 189.5,271.5 214.5,271.5 239.5,271.5 Z"/></g>
<g><path style="opacity:1" fill="#e6d36f" d="M 270.5,271.5 C 275.167,271.5 279.833,271.5 284.5,271.5C 284.5,276.167 284.5,280.833 284.5,285.5C 279.5,285.5 274.5,285.5 269.5,285.5C 269.5,290.833 269.5,296.167 269.5,301.5C 254.5,301.5 239.5,301.5 224.5,301.5C 224.5,296.5 224.5,291.5 224.5,286.5C 229.833,286.5 235.167,286.5 240.5,286.5C 240.5,281.5 240.5,276.5 240.5,271.5C 250.5,271.5 260.5,271.5 270.5,271.5 Z"/></g>
<g><path style="opacity:1" fill="#afab7c" d="M 269.5,256.5 C 269.5,256.167 269.5,255.833 269.5,255.5C 274.833,255.5 280.167,255.5 285.5,255.5C 285.5,255.833 285.5,256.167 285.5,256.5C 285.5,261.5 285.5,266.5 285.5,271.5C 285.5,276.5 285.5,281.5 285.5,286.5C 280.5,286.5 275.5,286.5 270.5,286.5C 270.5,296.5 270.5,306.5 270.5,316.5C 270.167,316.5 269.833,316.5 269.5,316.5C 269.5,311.5 269.5,306.5 269.5,301.5C 269.5,296.167 269.5,290.833 269.5,285.5C 274.5,285.5 279.5,285.5 284.5,285.5C 284.5,280.833 284.5,276.167 284.5,271.5C 284.5,266.5 284.5,261.5 284.5,256.5C 279.833,256.5 275.167,256.5 270.5,256.5C 270.167,256.5 269.833,256.5 269.5,256.5 Z"/></g>
<g><path style="opacity:1" fill="#5e8aa4" d="M 285.5,271.5 C 290.5,271.5 295.5,271.5 300.5,271.5C 300.5,276.5 300.5,281.5 300.5,286.5C 295.5,286.5 290.5,286.5 285.5,286.5C 285.5,281.5 285.5,276.5 285.5,271.5 Z"/></g>
<g><path style="opacity:1" fill="#5d89a1" d="M 28.5,286.5 C 33.5,286.5 38.5,286.5 43.5,286.5C 43.5,291.5 43.5,296.5 43.5,301.5C 38.5,301.5 33.5,301.5 28.5,301.5C 28.5,296.5 28.5,291.5 28.5,286.5 Z"/></g>
<g><path style="opacity:1" fill="#daa845" d="M 134.5,286.5 C 139.5,286.5 144.5,286.5 149.5,286.5C 149.5,291.5 149.5,296.5 149.5,301.5C 149.5,306.5 149.5,311.5 149.5,316.5C 144.5,316.5 139.5,316.5 134.5,316.5C 134.5,321.5 134.5,326.5 134.5,331.5C 129.5,331.5 124.5,331.5 119.5,331.5C 119.5,321.5 119.5,311.5 119.5,301.5C 124.5,301.5 129.5,301.5 134.5,301.5C 134.5,296.5 134.5,291.5 134.5,286.5 Z"/></g>
<g><path style="opacity:1" fill="#e6d46f" d="M 149.5,286.5 C 154.5,286.5 159.5,286.5 164.5,286.5C 164.5,291.5 164.5,296.5 164.5,301.5C 159.5,301.5 154.5,301.5 149.5,301.5C 149.5,296.5 149.5,291.5 149.5,286.5 Z"/></g>
<g><path style="opacity:1" fill="#f9e07c" d="M 164.5,286.5 C 184.5,286.5 204.5,286.5 224.5,286.5C 224.5,291.5 224.5,296.5 224.5,301.5C 219.5,301.5 214.5,301.5 209.5,301.5C 209.5,306.5 209.5,311.5 209.5,316.5C 189.5,316.5 169.5,316.5 149.5,316.5C 149.5,311.5 149.5,306.5 149.5,301.5C 154.5,301.5 159.5,301.5 164.5,301.5C 164.5,296.5 164.5,291.5 164.5,286.5 Z"/></g>
<g><path style="opacity:1" fill="#5e89a2" d="M 285.5,286.5 C 285.5,296.5 285.5,306.5 285.5,316.5C 280.5,316.5 275.5,316.5 270.5,316.5C 270.5,306.5 270.5,296.5 270.5,286.5C 275.5,286.5 280.5,286.5 285.5,286.5 Z"/></g>
<g><path style="opacity:1" fill="#020809" d="M 390.5,286.5 C 390.833,286.5 391.167,286.5 391.5,286.5C 391.5,291.5 391.5,296.5 391.5,301.5C 386.167,301.5 380.833,301.5 375.5,301.5C 375.5,296.5 375.5,291.5 375.5,286.5C 380.5,286.5 385.5,286.5 390.5,286.5 Z"/></g>
<g><path style="opacity:1" fill="#5d89a3" d="M 43.5,301.5 C 53.8333,301.5 64.1667,301.5 74.5,301.5C 74.5,306.167 74.5,310.833 74.5,315.5C 84.5,315.5 94.5,315.5 104.5,315.5C 104.5,320.833 104.5,326.167 104.5,331.5C 104.167,331.5 103.833,331.5 103.5,331.5C 103.5,326.5 103.5,321.5 103.5,316.5C 93.5,316.5 83.5,316.5 73.5,316.5C 63.5,316.5 53.5,316.5 43.5,316.5C 43.5,311.5 43.5,306.5 43.5,301.5 Z"/></g>
<g><path style="opacity:1" fill="#daa844" d="M 224.5,301.5 C 239.5,301.5 254.5,301.5 269.5,301.5C 269.5,306.5 269.5,311.5 269.5,316.5C 254.5,316.5 239.5,316.5 224.5,316.5C 219.5,316.5 214.5,316.5 209.5,316.5C 209.5,311.5 209.5,306.5 209.5,301.5C 214.5,301.5 219.5,301.5 224.5,301.5 Z"/></g>
<g><path style="opacity:1" fill="#030808" d="M 375.5,301.5 C 375.5,306.5 375.5,311.5 375.5,316.5C 370.5,316.5 365.5,316.5 360.5,316.5C 360.5,311.5 360.5,306.5 360.5,301.5C 365.5,301.5 370.5,301.5 375.5,301.5 Z"/></g>
<g><path style="opacity:1" fill="#5d88a2" d="M 557.5,361.5 C 557.167,361.5 556.833,361.5 556.5,361.5C 551.5,361.5 546.5,361.5 541.5,361.5C 541.5,356.5 541.5,351.5 541.5,346.5C 541.5,341.5 541.5,336.5 541.5,331.5C 536.5,331.5 531.5,331.5 526.5,331.5C 526.5,326.5 526.5,321.5 526.5,316.5C 521.5,316.5 516.5,316.5 511.5,316.5C 496.5,316.5 481.5,316.5 466.5,316.5C 466.5,321.5 466.5,326.5 466.5,331.5C 461.5,331.5 456.5,331.5 451.5,331.5C 446.5,331.5 441.5,331.5 436.5,331.5C 436.5,336.5 436.5,341.5 436.5,346.5C 431.167,346.5 425.833,346.5 420.5,346.5C 420.5,341.5 420.5,336.5 420.5,331.5C 425.5,331.5 430.5,331.5 435.5,331.5C 435.5,326.167 435.5,320.833 435.5,315.5C 445.5,315.5 455.5,315.5 465.5,315.5C 465.5,310.5 465.5,305.5 465.5,300.5C 485.836,300.333 506.169,300.5 526.5,301C 527.469,305.737 527.803,310.57 527.5,315.5C 532.43,315.197 537.263,315.531 542,316.5C 542.499,321.489 542.666,326.489 542.5,331.5C 547.5,331.5 552.5,331.5 557.5,331.5C 557.5,341.5 557.5,351.5 557.5,361.5 Z"/></g>
<g><path style="opacity:1" fill="#6b4b1f" d="M 375.5,301.5 C 380.833,301.5 386.167,301.5 391.5,301.5C 391.5,306.167 391.5,310.833 391.5,315.5C 396.5,315.5 401.5,315.5 406.5,315.5C 406.5,325.833 406.5,336.167 406.5,346.5C 405.513,351.305 405.179,356.305 405.5,361.5C 400.833,361.5 396.167,361.5 391.5,361.5C 391.167,361.5 390.833,361.5 390.5,361.5C 390.5,346.5 390.5,331.5 390.5,316.5C 385.5,316.5 380.5,316.5 375.5,316.5C 375.5,311.5 375.5,306.5 375.5,301.5 Z"/></g>
<g><path style="opacity:1" fill="#000605" d="M 73.5,316.5 C 83.5,316.5 93.5,316.5 103.5,316.5C 103.5,321.5 103.5,326.5 103.5,331.5C 93.5,331.5 83.5,331.5 73.5,331.5C 73.5,326.5 73.5,321.5 73.5,316.5 Z"/></g>
<g><path style="opacity:1" fill="#f8ebb2" d="M 119.5,301.5 C 119.5,311.5 119.5,321.5 119.5,331.5C 124.5,331.5 129.5,331.5 134.5,331.5C 134.5,326.5 134.5,321.5 134.5,316.5C 139.5,316.5 144.5,316.5 149.5,316.5C 149.5,321.5 149.5,326.5 149.5,331.5C 149.5,336.5 149.5,341.5 149.5,346.5C 154.5,346.5 159.5,346.5 164.5,346.5C 164.5,356.5 164.5,366.5 164.5,376.5C 164.5,381.5 164.5,386.5 164.5,391.5C 159.5,391.5 154.5,391.5 149.5,391.5C 149.5,386.5 149.5,381.5 149.5,376.5C 139.5,376.5 129.5,376.5 119.5,376.5C 118.504,361.676 118.171,346.676 118.5,331.5C 118.173,321.319 118.506,311.319 119.5,301.5 Z"/></g>
<g><path style="opacity:1" fill="#d9a843" d="M 149.5,316.5 C 169.5,316.5 189.5,316.5 209.5,316.5C 209.5,321.5 209.5,326.5 209.5,331.5C 199.5,331.5 189.5,331.5 179.5,331.5C 174.5,331.5 169.5,331.5 164.5,331.5C 159.5,331.5 154.5,331.5 149.5,331.5C 149.5,326.5 149.5,321.5 149.5,316.5 Z"/></g>
<g><path style="opacity:1" fill="#e6d36f" d="M 209.5,316.5 C 214.5,316.5 219.5,316.5 224.5,316.5C 224.5,321.5 224.5,326.5 224.5,331.5C 219.5,331.5 214.5,331.5 209.5,331.5C 209.5,326.5 209.5,321.5 209.5,316.5 Z"/></g>
<g><path style="opacity:1" fill="#f9e17d" d="M 224.5,316.5 C 239.5,316.5 254.5,316.5 269.5,316.5C 269.5,326.5 269.5,336.5 269.5,346.5C 264.5,346.5 259.5,346.5 254.5,346.5C 254.5,351.5 254.5,356.5 254.5,361.5C 254.5,366.5 254.5,371.5 254.5,376.5C 249.5,376.5 244.5,376.5 239.5,376.5C 239.5,361.5 239.5,346.5 239.5,331.5C 234.5,331.5 229.5,331.5 224.5,331.5C 224.5,326.5 224.5,321.5 224.5,316.5 Z"/></g>
<g><path style="opacity:1" fill="#d8a846" d="M 270.5,316.5 C 275.5,316.5 280.5,316.5 285.5,316.5C 285.5,321.5 285.5,326.5 285.5,331.5C 285.5,336.5 285.5,341.5 285.5,346.5C 280.5,346.5 275.5,346.5 270.5,346.5C 270.5,336.5 270.5,326.5 270.5,316.5 Z"/></g>
<g><path style="opacity:1" fill="#5d89a2" d="M 285.5,316.5 C 290.5,316.5 295.5,316.5 300.5,316.5C 300.5,321.5 300.5,326.5 300.5,331.5C 295.5,331.5 290.5,331.5 285.5,331.5C 285.5,326.5 285.5,321.5 285.5,316.5 Z"/></g>
<g><path style="opacity:1" fill="#000605" d="M 360.5,316.5 C 360.5,321.5 360.5,326.5 360.5,331.5C 355.5,331.5 350.5,331.5 345.5,331.5C 345.5,326.5 345.5,321.5 345.5,316.5C 350.5,316.5 355.5,316.5 360.5,316.5 Z"/></g>
<g><path style="opacity:1" fill="#ba8f38" d="M 360.5,316.5 C 365.5,316.5 370.5,316.5 375.5,316.5C 380.5,316.5 385.5,316.5 390.5,316.5C 390.5,331.5 390.5,346.5 390.5,361.5C 390.5,366.5 390.5,371.5 390.5,376.5C 385.5,376.5 380.5,376.5 375.5,376.5C 375.5,381.5 375.5,386.5 375.5,391.5C 370.5,391.5 365.5,391.5 360.5,391.5C 360.5,371.5 360.5,351.5 360.5,331.5C 360.5,326.5 360.5,321.5 360.5,316.5 Z"/></g>
<g><path style="opacity:1" fill="#8ecdf9" d="M 511.5,316.5 C 516.5,316.5 521.5,316.5 526.5,316.5C 526.5,321.5 526.5,326.5 526.5,331.5C 531.5,331.5 536.5,331.5 541.5,331.5C 541.5,336.5 541.5,341.5 541.5,346.5C 541.5,351.5 541.5,356.5 541.5,361.5C 541.5,371.5 541.5,381.5 541.5,391.5C 536.833,391.5 532.167,391.5 527.5,391.5C 527.819,386.637 527.486,381.97 526.5,377.5C 521.695,376.513 516.695,376.179 511.5,376.5C 511.5,371.5 511.5,366.5 511.5,361.5C 501.5,361.5 491.5,361.5 481.5,361.5C 481.5,366.5 481.5,371.5 481.5,376.5C 471.5,376.5 461.5,376.5 451.5,376.5C 451.5,371.5 451.5,366.5 451.5,361.5C 446.5,361.5 441.5,361.5 436.5,361.5C 436.5,356.5 436.5,351.5 436.5,346.5C 441.5,346.5 446.5,346.5 451.5,346.5C 451.5,341.5 451.5,336.5 451.5,331.5C 456.5,331.5 461.5,331.5 466.5,331.5C 466.5,326.5 466.5,321.5 466.5,316.5C 481.5,316.5 496.5,316.5 511.5,316.5 Z"/></g>
<g><path style="opacity:1" fill="#7dafd4" d="M 511.5,316.5 C 516.5,316.5 521.5,316.5 526.5,316.5C 526.5,321.5 526.5,326.5 526.5,331.5C 521.5,331.5 516.5,331.5 511.5,331.5C 511.5,326.5 511.5,321.5 511.5,316.5 Z"/></g>
<g><path style="opacity:1" fill="#daa844" d="M 103.5,331.5 C 103.833,331.5 104.167,331.5 104.5,331.5C 109.167,331.5 113.833,331.5 118.5,331.5C 118.171,346.676 118.504,361.676 119.5,376.5C 124.305,377.487 129.305,377.821 134.5,377.5C 134.5,382.167 134.5,386.833 134.5,391.5C 129.167,391.5 123.833,391.5 118.5,391.5C 118.5,401.833 118.5,412.167 118.5,422.5C 118.5,427.167 118.5,431.833 118.5,436.5C 113.833,436.5 109.167,436.5 104.5,436.5C 104.819,431.637 104.486,426.97 103.5,422.5C 103.5,422.167 103.5,421.833 103.5,421.5C 103.5,391.5 103.5,361.5 103.5,331.5 Z"/></g>
<g><path style="opacity:1" fill="#f9e17c" d="M 149.5,331.5 C 154.5,331.5 159.5,331.5 164.5,331.5C 164.5,336.5 164.5,341.5 164.5,346.5C 159.5,346.5 154.5,346.5 149.5,346.5C 149.5,341.5 149.5,336.5 149.5,331.5 Z"/></g>
<g><path style="opacity:1" fill="#e7d370" d="M 164.5,331.5 C 169.5,331.5 174.5,331.5 179.5,331.5C 179.5,346.5 179.5,361.5 179.5,376.5C 174.5,376.5 169.5,376.5 164.5,376.5C 164.5,366.5 164.5,356.5 164.5,346.5C 164.5,341.5 164.5,336.5 164.5,331.5 Z"/></g>
<g><path style="opacity:1" fill="#f9edb4" d="M 179.5,331.5 C 189.5,331.5 199.5,331.5 209.5,331.5C 214.5,331.5 219.5,331.5 224.5,331.5C 229.5,331.5 234.5,331.5 239.5,331.5C 239.5,346.5 239.5,361.5 239.5,376.5C 234.5,376.5 229.5,376.5 224.5,376.5C 224.5,381.5 224.5,386.5 224.5,391.5C 214.5,391.5 204.5,391.5 194.5,391.5C 189.5,391.5 184.5,391.5 179.5,391.5C 179.5,386.5 179.5,381.5 179.5,376.5C 179.5,361.5 179.5,346.5 179.5,331.5 Z"/></g>
<g><path style="opacity:1" fill="#e6d36f" d="M 269.5,316.5 C 269.833,316.5 270.167,316.5 270.5,316.5C 270.5,326.5 270.5,336.5 270.5,346.5C 275.5,346.5 280.5,346.5 285.5,346.5C 285.5,341.5 285.5,336.5 285.5,331.5C 290.5,331.5 295.5,331.5 300.5,331.5C 300.5,336.5 300.5,341.5 300.5,346.5C 305.5,346.5 310.5,346.5 315.5,346.5C 315.5,356.5 315.5,366.5 315.5,376.5C 315.5,381.5 315.5,386.5 315.5,391.5C 315.5,401.5 315.5,411.5 315.5,421.5C 315.5,421.833 315.5,422.167 315.5,422.5C 310.5,422.5 305.5,422.5 300.5,422.5C 299.514,426.97 299.181,431.637 299.5,436.5C 294.833,436.5 290.167,436.5 285.5,436.5C 285.5,431.5 285.5,426.5 285.5,421.5C 290.167,421.5 294.833,421.5 299.5,421.5C 299.5,411.833 299.5,402.167 299.5,392.5C 294.5,392.5 289.5,392.5 284.5,392.5C 284.5,382.5 284.5,372.5 284.5,362.5C 279.833,362.5 275.167,362.5 270.5,362.5C 265.36,361.512 260.026,361.179 254.5,361.5C 254.5,356.5 254.5,351.5 254.5,346.5C 259.5,346.5 264.5,346.5 269.5,346.5C 269.5,336.5 269.5,326.5 269.5,316.5 Z"/></g>
<g><path style="opacity:1" fill="#000605" d="M 300.5,331.5 C 315.5,331.5 330.5,331.5 345.5,331.5C 345.5,336.5 345.5,341.5 345.5,346.5C 340.5,346.5 335.5,346.5 330.5,346.5C 325.5,346.5 320.5,346.5 315.5,346.5C 310.5,346.5 305.5,346.5 300.5,346.5C 300.5,341.5 300.5,336.5 300.5,331.5 Z"/></g>
<g><path style="opacity:1" fill="#cdcdcd" d="M 345.5,331.5 C 350.5,331.5 355.5,331.5 360.5,331.5C 360.5,351.5 360.5,371.5 360.5,391.5C 360.5,396.833 360.5,402.167 360.5,407.5C 365.5,407.5 370.5,407.5 375.5,407.5C 375.5,417.5 375.5,427.5 375.5,437.5C 370.5,437.5 365.5,437.5 360.5,437.5C 360.5,432.5 360.5,427.5 360.5,422.5C 355.5,422.5 350.5,422.5 345.5,422.5C 345.5,417.5 345.5,412.5 345.5,407.5C 345.5,407.167 345.5,406.833 345.5,406.5C 345.5,401.5 345.5,396.5 345.5,391.5C 340.5,391.5 335.5,391.5 330.5,391.5C 330.5,386.5 330.5,381.5 330.5,376.5C 330.5,366.5 330.5,356.5 330.5,346.5C 335.5,346.5 340.5,346.5 345.5,346.5C 345.5,341.5 345.5,336.5 345.5,331.5 Z"/></g>
<g><path style="opacity:1" fill="#7dafd4" d="M 451.5,331.5 C 451.5,336.5 451.5,341.5 451.5,346.5C 446.5,346.5 441.5,346.5 436.5,346.5C 436.5,341.5 436.5,336.5 436.5,331.5C 441.5,331.5 446.5,331.5 451.5,331.5 Z"/></g>
<g><path style="opacity:1" fill="#7dafd4" d="M 526.5,331.5 C 531.5,331.5 536.5,331.5 541.5,331.5C 541.5,336.5 541.5,341.5 541.5,346.5C 536.5,346.5 531.5,346.5 526.5,346.5C 526.5,341.5 526.5,336.5 526.5,331.5 Z"/></g>
<g><path style="opacity:1" fill="#5c839a" d="M 406.5,346.5 C 411.167,346.5 415.833,346.5 420.5,346.5C 420.5,351.5 420.5,356.5 420.5,361.5C 415.833,361.5 411.167,361.5 406.5,361.5C 406.831,392.005 406.498,422.338 405.5,452.5C 405.5,437.5 405.5,422.5 405.5,407.5C 405.5,397.5 405.5,387.5 405.5,377.5C 405.5,377.167 405.5,376.833 405.5,376.5C 405.5,371.5 405.5,366.5 405.5,361.5C 405.179,356.305 405.513,351.305 406.5,346.5 Z"/></g>
<g><path style="opacity:1" fill="#6a4b20" d="M 315.5,346.5 C 320.5,346.5 325.5,346.5 330.5,346.5C 330.5,356.5 330.5,366.5 330.5,376.5C 325.5,376.5 320.5,376.5 315.5,376.5C 315.5,366.5 315.5,356.5 315.5,346.5 Z"/></g>
<g><path style="opacity:1" fill="#7caed3" d="M 420.5,346.5 C 425.833,346.5 431.167,346.5 436.5,346.5C 436.5,351.5 436.5,356.5 436.5,361.5C 441.5,361.5 446.5,361.5 451.5,361.5C 451.5,366.5 451.5,371.5 451.5,376.5C 461.5,376.5 471.5,376.5 481.5,376.5C 491.5,376.5 501.5,376.5 511.5,376.5C 516.695,376.179 521.695,376.513 526.5,377.5C 521.5,377.5 516.5,377.5 511.5,377.5C 501.5,377.5 491.5,377.5 481.5,377.5C 476.167,377.5 470.833,377.5 465.5,377.5C 465.5,382.167 465.5,386.833 465.5,391.5C 460.5,391.5 455.5,391.5 450.5,391.5C 450.17,407.009 450.504,422.342 451.5,437.5C 456.5,437.5 461.5,437.5 466.5,437.5C 466.5,442.5 466.5,447.5 466.5,452.5C 471.167,452.5 475.833,452.5 480.5,452.5C 480.5,457.167 480.5,461.833 480.5,466.5C 470.5,466.5 460.5,466.5 450.5,466.5C 450.5,471.833 450.5,477.167 450.5,482.5C 430.833,482.5 411.167,482.5 391.5,482.5C 391.821,477.305 391.487,472.305 390.5,467.5C 390.5,462.5 390.5,457.5 390.5,452.5C 395.5,452.5 400.5,452.5 405.5,452.5C 406.498,422.338 406.831,392.005 406.5,361.5C 411.167,361.5 415.833,361.5 420.5,361.5C 420.5,356.5 420.5,351.5 420.5,346.5 Z"/></g>
<g><path style="opacity:1" fill="#000505" d="M 557.5,361.5 C 562.5,361.5 567.5,361.5 572.5,361.5C 572.5,376.833 572.5,392.167 572.5,407.5C 567.5,407.5 562.5,407.5 557.5,407.5C 557.5,392.167 557.5,376.833 557.5,361.5 Z"/></g>
<g><path style="opacity:1" fill="#f9e07c" d="M 270.5,362.5 C 275.167,362.5 279.833,362.5 284.5,362.5C 284.5,372.5 284.5,382.5 284.5,392.5C 289.5,392.5 294.5,392.5 299.5,392.5C 299.5,402.167 299.5,411.833 299.5,421.5C 294.833,421.5 290.167,421.5 285.5,421.5C 280.5,421.5 275.5,421.5 270.5,421.5C 270.5,416.5 270.5,411.5 270.5,406.5C 265.5,406.5 260.5,406.5 255.5,406.5C 255.5,396.833 255.5,387.167 255.5,377.5C 260.363,377.819 265.03,377.486 269.5,376.5C 270.486,372.03 270.819,367.363 270.5,362.5 Z"/></g>
<g><path style="opacity:1" fill="#020706" d="M 391.5,361.5 C 396.167,361.5 400.833,361.5 405.5,361.5C 405.5,366.5 405.5,371.5 405.5,376.5C 400.833,376.5 396.167,376.5 391.5,376.5C 391.5,371.5 391.5,366.5 391.5,361.5 Z"/></g>
<g><path style="opacity:1" fill="#5d89a3" d="M 511.5,376.5 C 501.5,376.5 491.5,376.5 481.5,376.5C 481.5,371.5 481.5,366.5 481.5,361.5C 491.5,361.5 501.5,361.5 511.5,361.5C 511.5,366.5 511.5,371.5 511.5,376.5 Z"/></g>
<g><path style="opacity:1" fill="#7caed3" d="M 541.5,361.5 C 546.5,361.5 551.5,361.5 556.5,361.5C 556.5,376.5 556.5,391.5 556.5,406.5C 551.5,406.5 546.5,406.5 541.5,406.5C 541.5,416.833 541.5,427.167 541.5,437.5C 536.5,437.5 531.5,437.5 526.5,437.5C 526.5,442.5 526.5,447.5 526.5,452.5C 511.5,452.5 496.5,452.5 481.5,452.5C 481.5,447.5 481.5,442.5 481.5,437.5C 476.5,437.5 471.5,437.5 466.5,437.5C 466.5,427.167 466.5,416.833 466.5,406.5C 466.5,401.833 466.5,397.167 466.5,392.5C 471.5,392.5 476.5,392.5 481.5,392.5C 481.5,397.167 481.5,401.833 481.5,406.5C 496.5,406.5 511.5,406.5 526.5,406.5C 526.5,401.833 526.5,397.167 526.5,392.5C 521.305,392.821 516.305,392.487 511.5,391.5C 516.5,391.5 521.5,391.5 526.5,391.5C 526.5,386.833 526.5,382.167 526.5,377.5C 527.486,381.97 527.819,386.637 527.5,391.5C 532.167,391.5 536.833,391.5 541.5,391.5C 541.5,381.5 541.5,371.5 541.5,361.5 Z"/></g>
<g><path style="opacity:1" fill="#2e424f" d="M 556.5,361.5 C 556.833,361.5 557.167,361.5 557.5,361.5C 557.5,376.833 557.5,392.167 557.5,407.5C 552.5,407.5 547.5,407.5 542.5,407.5C 542.5,417.5 542.5,427.5 542.5,437.5C 542.167,437.5 541.833,437.5 541.5,437.5C 541.5,427.167 541.5,416.833 541.5,406.5C 546.5,406.5 551.5,406.5 556.5,406.5C 556.5,391.5 556.5,376.5 556.5,361.5 Z"/></g>
<g><path style="opacity:1" fill="#423318" d="M 390.5,361.5 C 390.833,361.5 391.167,361.5 391.5,361.5C 391.5,366.5 391.5,371.5 391.5,376.5C 396.167,376.5 400.833,376.5 405.5,376.5C 405.5,376.833 405.5,377.167 405.5,377.5C 400.833,377.5 396.167,377.5 391.5,377.5C 391.819,382.363 391.486,387.03 390.5,391.5C 390.5,386.833 390.5,382.167 390.5,377.5C 385.833,377.5 381.167,377.5 376.5,377.5C 376.5,382.167 376.5,386.833 376.5,391.5C 376.167,391.5 375.833,391.5 375.5,391.5C 375.5,386.5 375.5,381.5 375.5,376.5C 380.5,376.5 385.5,376.5 390.5,376.5C 390.5,371.5 390.5,366.5 390.5,361.5 Z"/></g>
<g><path style="opacity:1" fill="#f9e07e" d="M 119.5,376.5 C 129.5,376.5 139.5,376.5 149.5,376.5C 149.5,381.5 149.5,386.5 149.5,391.5C 144.5,391.5 139.5,391.5 134.5,391.5C 134.5,386.833 134.5,382.167 134.5,377.5C 129.305,377.821 124.305,377.487 119.5,376.5 Z"/></g>
<g><path style="opacity:1" fill="#ce9d45" d="M 164.5,376.5 C 169.5,376.5 174.5,376.5 179.5,376.5C 179.5,381.5 179.5,386.5 179.5,391.5C 184.5,391.5 189.5,391.5 194.5,391.5C 194.5,396.5 194.5,401.5 194.5,406.5C 189.305,406.179 184.305,406.513 179.5,407.5C 179.5,412.5 179.5,417.5 179.5,422.5C 174.5,422.5 169.5,422.5 164.5,422.5C 164.5,417.5 164.5,412.5 164.5,407.5C 159.695,406.513 154.695,406.179 149.5,406.5C 149.5,401.833 149.5,397.167 149.5,392.5C 154.695,392.821 159.695,392.487 164.5,391.5C 164.5,386.5 164.5,381.5 164.5,376.5 Z"/></g>
<g><path style="opacity:1" fill="#fae17e" d="M 239.5,376.5 C 239.5,381.5 239.5,386.5 239.5,391.5C 234.5,391.5 229.5,391.5 224.5,391.5C 224.5,386.5 224.5,381.5 224.5,376.5C 229.5,376.5 234.5,376.5 239.5,376.5 Z"/></g>
<g><path style="opacity:1" fill="#b98d38" d="M 315.5,376.5 C 320.5,376.5 325.5,376.5 330.5,376.5C 330.5,381.5 330.5,386.5 330.5,391.5C 325.5,391.5 320.5,391.5 315.5,391.5C 315.5,386.5 315.5,381.5 315.5,376.5 Z"/></g>
<g><path style="opacity:1" fill="#000605" d="M 390.5,391.5 C 385.833,391.5 381.167,391.5 376.5,391.5C 376.5,386.833 376.5,382.167 376.5,377.5C 381.167,377.5 385.833,377.5 390.5,377.5C 390.5,382.167 390.5,386.833 390.5,391.5 Z"/></g>
<g><path style="opacity:1" fill="#67491e" d="M 405.5,377.5 C 405.5,387.5 405.5,397.5 405.5,407.5C 400.833,407.5 396.167,407.5 391.5,407.5C 391.827,417.681 391.494,427.681 390.5,437.5C 390.5,422.5 390.5,407.5 390.5,392.5C 385.5,392.5 380.5,392.5 375.5,392.5C 375.5,392.167 375.5,391.833 375.5,391.5C 375.833,391.5 376.167,391.5 376.5,391.5C 381.167,391.5 385.833,391.5 390.5,391.5C 391.486,387.03 391.819,382.363 391.5,377.5C 396.167,377.5 400.833,377.5 405.5,377.5 Z"/></g>
<g><path style="opacity:1" fill="#5f8ba6" d="M 481.5,377.5 C 481.5,382.5 481.5,387.5 481.5,392.5C 476.5,392.5 471.5,392.5 466.5,392.5C 466.5,397.167 466.5,401.833 466.5,406.5C 461.305,406.179 456.305,406.513 451.5,407.5C 451.5,417.167 451.5,426.833 451.5,436.5C 451.5,436.833 451.5,437.167 451.5,437.5C 450.504,422.342 450.17,407.009 450.5,391.5C 455.5,391.5 460.5,391.5 465.5,391.5C 465.5,386.833 465.5,382.167 465.5,377.5C 470.833,377.5 476.167,377.5 481.5,377.5 Z"/></g>
<g><path style="opacity:1" fill="#8fcefa" d="M 481.5,377.5 C 491.5,377.5 501.5,377.5 511.5,377.5C 511.5,382.167 511.5,386.833 511.5,391.5C 516.305,392.487 521.305,392.821 526.5,392.5C 526.5,397.167 526.5,401.833 526.5,406.5C 511.5,406.5 496.5,406.5 481.5,406.5C 481.5,401.833 481.5,397.167 481.5,392.5C 481.5,387.5 481.5,382.5 481.5,377.5 Z"/></g>
<g><path style="opacity:1" fill="#5d89a2" d="M 511.5,377.5 C 516.5,377.5 521.5,377.5 526.5,377.5C 526.5,382.167 526.5,386.833 526.5,391.5C 521.5,391.5 516.5,391.5 511.5,391.5C 511.5,386.833 511.5,382.167 511.5,377.5 Z"/></g>
<g><path style="opacity:1" fill="#f9ecb3" d="M 164.5,407.5 C 164.5,412.5 164.5,417.5 164.5,422.5C 164.5,427.5 164.5,432.5 164.5,437.5C 154.5,437.5 144.5,437.5 134.5,437.5C 134.167,437.5 133.833,437.5 133.5,437.5C 133.5,432.5 133.5,427.5 133.5,422.5C 128.833,422.5 124.167,422.5 119.5,422.5C 119.5,412.5 119.5,402.5 119.5,392.5C 124.167,392.5 128.833,392.5 133.5,392.5C 133.197,397.43 133.531,402.263 134.5,407C 144.494,407.5 154.494,407.666 164.5,407.5 Z"/></g>
<g><path style="opacity:1" fill="#e8d274" d="M 134.5,391.5 C 139.5,391.5 144.5,391.5 149.5,391.5C 154.5,391.5 159.5,391.5 164.5,391.5C 159.695,392.487 154.695,392.821 149.5,392.5C 149.5,397.167 149.5,401.833 149.5,406.5C 154.695,406.179 159.695,406.513 164.5,407.5C 154.494,407.666 144.494,407.5 134.5,407C 133.531,402.263 133.197,397.43 133.5,392.5C 128.833,392.5 124.167,392.5 119.5,392.5C 119.5,402.5 119.5,412.5 119.5,422.5C 119.167,422.5 118.833,422.5 118.5,422.5C 118.5,412.167 118.5,401.833 118.5,391.5C 123.833,391.5 129.167,391.5 134.5,391.5 Z"/></g>
<g><path style="opacity:1" fill="#e7d473" d="M 194.5,391.5 C 204.5,391.5 214.5,391.5 224.5,391.5C 224.5,396.833 224.5,402.167 224.5,407.5C 209.5,407.5 194.5,407.5 179.5,407.5C 184.305,406.513 189.305,406.179 194.5,406.5C 194.5,401.5 194.5,396.5 194.5,391.5 Z"/></g>
<g><path style="opacity:1" fill="#966a3d" d="M 315.5,391.5 C 320.5,391.5 325.5,391.5 330.5,391.5C 335.5,391.5 340.5,391.5 345.5,391.5C 345.5,396.5 345.5,401.5 345.5,406.5C 345.5,406.833 345.5,407.167 345.5,407.5C 340.5,407.5 335.5,407.5 330.5,407.5C 330.5,412.167 330.5,416.833 330.5,421.5C 325.5,421.5 320.5,421.5 315.5,421.5C 315.5,411.5 315.5,401.5 315.5,391.5 Z"/></g>
<g><path style="opacity:1" fill="#bb903b" d="M 330.5,391.5 C 335.5,391.5 340.5,391.5 345.5,391.5C 345.5,396.5 345.5,401.5 345.5,406.5C 340.5,406.5 335.5,406.5 330.5,406.5C 330.5,401.5 330.5,396.5 330.5,391.5 Z"/></g>
<g><path style="opacity:1" fill="#e4d172" d="M 360.5,391.5 C 365.5,391.5 370.5,391.5 375.5,391.5C 375.5,391.833 375.5,392.167 375.5,392.5C 375.5,397.5 375.5,402.5 375.5,407.5C 370.5,407.5 365.5,407.5 360.5,407.5C 360.5,402.167 360.5,396.833 360.5,391.5 Z"/></g>
<g><path style="opacity:1" fill="#bb903a" d="M 375.5,392.5 C 380.5,392.5 385.5,392.5 390.5,392.5C 390.5,407.5 390.5,422.5 390.5,437.5C 385.5,437.5 380.5,437.5 375.5,437.5C 375.5,427.5 375.5,417.5 375.5,407.5C 375.5,402.5 375.5,397.5 375.5,392.5 Z"/></g>
<g><path style="opacity:1" fill="#faecb4" d="M 179.5,407.5 C 194.5,407.5 209.5,407.5 224.5,407.5C 224.5,412.5 224.5,417.5 224.5,422.5C 229.5,422.5 234.5,422.5 239.5,422.5C 239.5,432.5 239.5,442.5 239.5,452.5C 224.5,452.5 209.5,452.5 194.5,452.5C 194.5,447.5 194.5,442.5 194.5,437.5C 189.5,437.5 184.5,437.5 179.5,437.5C 179.5,432.5 179.5,427.5 179.5,422.5C 179.5,417.5 179.5,412.5 179.5,407.5 Z"/></g>
<g><path style="opacity:1" fill="#fae17e" d="M 224.5,407.5 C 229.5,407.5 234.5,407.5 239.5,407.5C 239.5,412.5 239.5,417.5 239.5,422.5C 234.5,422.5 229.5,422.5 224.5,422.5C 224.5,417.5 224.5,412.5 224.5,407.5 Z"/></g>
<g><path style="opacity:1" fill="#e7d470" d="M 239.5,407.5 C 244.5,407.5 249.5,407.5 254.5,407.5C 254.5,412.5 254.5,417.5 254.5,422.5C 249.5,422.5 244.5,422.5 239.5,422.5C 239.5,417.5 239.5,412.5 239.5,407.5 Z"/></g>
<g><path style="opacity:1" fill="#6b4e26" d="M 345.5,407.5 C 345.5,412.5 345.5,417.5 345.5,422.5C 340.5,422.5 335.5,422.5 330.5,422.5C 325.5,422.5 320.5,422.5 315.5,422.5C 315.5,422.167 315.5,421.833 315.5,421.5C 320.5,421.5 325.5,421.5 330.5,421.5C 330.5,416.833 330.5,412.167 330.5,407.5C 335.5,407.5 340.5,407.5 345.5,407.5 Z"/></g>
<g><path style="opacity:1" fill="#030909" d="M 405.5,407.5 C 405.5,422.5 405.5,437.5 405.5,452.5C 400.5,452.5 395.5,452.5 390.5,452.5C 390.5,447.5 390.5,442.5 390.5,437.5C 391.494,427.681 391.827,417.681 391.5,407.5C 396.167,407.5 400.833,407.5 405.5,407.5 Z"/></g>
<g><path style="opacity:1" fill="#000605" d="M 451.5,407.5 C 456.167,407.5 460.833,407.5 465.5,407.5C 465.5,417.167 465.5,426.833 465.5,436.5C 460.833,436.5 456.167,436.5 451.5,436.5C 451.5,426.833 451.5,417.167 451.5,407.5 Z"/></g>
<g><path style="opacity:1" fill="#23303e" d="M 451.5,407.5 C 456.305,406.513 461.305,406.179 466.5,406.5C 466.5,416.833 466.5,427.167 466.5,437.5C 461.5,437.5 456.5,437.5 451.5,437.5C 451.5,437.167 451.5,436.833 451.5,436.5C 456.167,436.5 460.833,436.5 465.5,436.5C 465.5,426.833 465.5,417.167 465.5,407.5C 460.833,407.5 456.167,407.5 451.5,407.5 Z"/></g>
<g><path style="opacity:1" fill="#000505" d="M 557.5,407.5 C 557.5,417.5 557.5,427.5 557.5,437.5C 552.5,437.5 547.5,437.5 542.5,437.5C 542.5,427.5 542.5,417.5 542.5,407.5C 547.5,407.5 552.5,407.5 557.5,407.5 Z"/></g>
<g><path style="opacity:1" fill="#f8de7a" d="M 118.5,422.5 C 118.833,422.5 119.167,422.5 119.5,422.5C 124.167,422.5 128.833,422.5 133.5,422.5C 133.5,427.5 133.5,432.5 133.5,437.5C 128.833,437.5 124.167,437.5 119.5,437.5C 119.5,436.833 119.167,436.5 118.5,436.5C 118.5,431.833 118.5,427.167 118.5,422.5 Z"/></g>
<g><path style="opacity:1" fill="#e6d370" d="M 164.5,422.5 C 169.5,422.5 174.5,422.5 179.5,422.5C 179.5,427.5 179.5,432.5 179.5,437.5C 179.5,442.5 179.5,447.5 179.5,452.5C 174.5,452.5 169.5,452.5 164.5,452.5C 164.5,447.5 164.5,442.5 164.5,437.5C 164.5,432.5 164.5,427.5 164.5,422.5 Z"/></g>
<g><path style="opacity:1" fill="#f9e17d" d="M 239.5,422.5 C 244.5,422.5 249.5,422.5 254.5,422.5C 254.5,432.5 254.5,442.5 254.5,452.5C 249.5,452.5 244.5,452.5 239.5,452.5C 239.5,442.5 239.5,432.5 239.5,422.5 Z"/></g>
<g><path style="opacity:1" fill="#e6d370" d="M 254.5,422.5 C 259.5,422.5 264.5,422.5 269.5,422.5C 269.5,427.5 269.5,432.5 269.5,437.5C 274.833,437.5 280.167,437.5 285.5,437.5C 285.5,442.5 285.5,447.5 285.5,452.5C 280.5,452.5 275.5,452.5 270.5,452.5C 269.506,462.319 269.173,472.319 269.5,482.5C 254.5,482.5 239.5,482.5 224.5,482.5C 224.5,477.5 224.5,472.5 224.5,467.5C 214.5,467.5 204.5,467.5 194.5,467.5C 194.5,462.5 194.5,457.5 194.5,452.5C 209.5,452.5 224.5,452.5 239.5,452.5C 244.5,452.5 249.5,452.5 254.5,452.5C 254.5,442.5 254.5,432.5 254.5,422.5 Z"/></g>
<g><path style="opacity:1" fill="#ddba59" d="M 254.5,361.5 C 260.026,361.179 265.36,361.512 270.5,362.5C 270.819,367.363 270.486,372.03 269.5,376.5C 265.03,377.486 260.363,377.819 255.5,377.5C 255.5,387.167 255.5,396.833 255.5,406.5C 260.5,406.5 265.5,406.5 270.5,406.5C 270.5,411.5 270.5,416.5 270.5,421.5C 275.5,421.5 280.5,421.5 285.5,421.5C 285.5,426.5 285.5,431.5 285.5,436.5C 285.5,436.833 285.5,437.167 285.5,437.5C 280.167,437.5 274.833,437.5 269.5,437.5C 269.5,432.5 269.5,427.5 269.5,422.5C 264.5,422.5 259.5,422.5 254.5,422.5C 254.5,417.5 254.5,412.5 254.5,407.5C 249.5,407.5 244.5,407.5 239.5,407.5C 234.5,407.5 229.5,407.5 224.5,407.5C 224.5,402.167 224.5,396.833 224.5,391.5C 229.5,391.5 234.5,391.5 239.5,391.5C 239.5,386.5 239.5,381.5 239.5,376.5C 244.5,376.5 249.5,376.5 254.5,376.5C 254.5,371.5 254.5,366.5 254.5,361.5 Z"/></g>
<g><path style="opacity:1" fill="#cd9c43" d="M 255.5,407.5 C 260.167,407.5 264.833,407.5 269.5,407.5C 269.5,412.167 269.5,416.833 269.5,421.5C 264.833,421.5 260.167,421.5 255.5,421.5C 255.5,416.833 255.5,412.167 255.5,407.5 Z"/></g>
<g><path style="opacity:1" fill="#ce9c44" d="M 239.5,391.5 C 240.486,387.03 240.819,382.363 240.5,377.5C 245.167,377.5 249.833,377.5 254.5,377.5C 254.5,387.167 254.5,396.833 254.5,406.5C 244.833,406.5 235.167,406.5 225.5,406.5C 225.5,401.833 225.5,397.167 225.5,392.5C 230.363,392.819 235.03,392.486 239.5,391.5 Z"/></g>
<g><path style="opacity:1" fill="#cd9c43" d="M 269.5,376.5 C 264.833,376.5 260.167,376.5 255.5,376.5C 255.5,371.833 255.5,367.167 255.5,362.5C 260.167,362.5 264.833,362.5 269.5,362.5C 269.5,367.167 269.5,371.833 269.5,376.5 Z"/></g>
<g><path style="opacity:1" fill="#cd9c43" d="M 270.5,422.5 C 275.167,422.5 279.833,422.5 284.5,422.5C 284.5,427.167 284.5,431.833 284.5,436.5C 279.833,436.5 275.167,436.5 270.5,436.5C 270.5,431.833 270.5,427.167 270.5,422.5 Z"/></g>
<g><path style="opacity:1" fill="#c7c789" d="M 300.5,422.5 C 300.5,427.5 300.5,432.5 300.5,437.5C 295.5,437.5 290.5,437.5 285.5,437.5C 285.5,437.167 285.5,436.833 285.5,436.5C 290.167,436.5 294.833,436.5 299.5,436.5C 299.181,431.637 299.514,426.97 300.5,422.5 Z"/></g>
<g><path style="opacity:1" fill="#7cafd4" d="M 300.5,422.5 C 305.5,422.5 310.5,422.5 315.5,422.5C 320.5,422.5 325.5,422.5 330.5,422.5C 330.5,427.5 330.5,432.5 330.5,437.5C 320.5,437.5 310.5,437.5 300.5,437.5C 300.5,432.5 300.5,427.5 300.5,422.5 Z"/></g>
<g><path style="opacity:1" fill="#5d89a3" d="M 330.5,422.5 C 335.5,422.5 340.5,422.5 345.5,422.5C 350.5,422.5 355.5,422.5 360.5,422.5C 360.5,427.5 360.5,432.5 360.5,437.5C 355.5,437.5 350.5,437.5 345.5,437.5C 340.5,437.5 335.5,437.5 330.5,437.5C 330.5,432.5 330.5,427.5 330.5,422.5 Z"/></g>
<g><path style="opacity:1" fill="#beb284" d="M 103.5,422.5 C 104.486,426.97 104.819,431.637 104.5,436.5C 109.167,436.5 113.833,436.5 118.5,436.5C 119.167,436.5 119.5,436.833 119.5,437.5C 119.5,447.5 119.5,457.5 119.5,467.5C 118.506,457.681 118.173,447.681 118.5,437.5C 113.5,437.5 108.5,437.5 103.5,437.5C 103.5,432.5 103.5,427.5 103.5,422.5 Z"/></g>
<g><path style="opacity:1" fill="#8fcdf9" d="M 103.5,437.5 C 108.5,437.5 113.5,437.5 118.5,437.5C 118.173,447.681 118.506,457.681 119.5,467.5C 124.5,467.5 129.5,467.5 134.5,467.5C 134.5,472.5 134.5,477.5 134.5,482.5C 134.5,487.5 134.5,492.5 134.5,497.5C 129.167,497.5 123.833,497.5 118.5,497.5C 118.5,502.5 118.5,507.5 118.5,512.5C 108.833,512.5 99.1667,512.5 89.5,512.5C 89.1667,512.5 88.8333,512.5 88.5,512.5C 88.5,507.5 88.5,502.5 88.5,497.5C 83.5,497.5 78.5,497.5 73.5,497.5C 73.5,492.5 73.5,487.5 73.5,482.5C 73.5,472.5 73.5,462.5 73.5,452.5C 78.5,452.5 83.5,452.5 88.5,452.5C 88.5,447.5 88.5,442.5 88.5,437.5C 93.5,437.5 98.5,437.5 103.5,437.5 Z"/></g>
<g><path style="opacity:1" fill="#daa945" d="M 119.5,437.5 C 124.167,437.5 128.833,437.5 133.5,437.5C 133.833,437.5 134.167,437.5 134.5,437.5C 134.5,442.5 134.5,447.5 134.5,452.5C 134.5,457.5 134.5,462.5 134.5,467.5C 129.5,467.5 124.5,467.5 119.5,467.5C 119.5,457.5 119.5,447.5 119.5,437.5 Z"/></g>
<g><path style="opacity:1" fill="#f9e17c" d="M 134.5,437.5 C 144.5,437.5 154.5,437.5 164.5,437.5C 164.5,442.5 164.5,447.5 164.5,452.5C 154.5,452.5 144.5,452.5 134.5,452.5C 134.5,447.5 134.5,442.5 134.5,437.5 Z"/></g>
<g><path style="opacity:1" fill="#f9e07c" d="M 179.5,437.5 C 184.5,437.5 189.5,437.5 194.5,437.5C 194.5,442.5 194.5,447.5 194.5,452.5C 189.5,452.5 184.5,452.5 179.5,452.5C 179.5,447.5 179.5,442.5 179.5,437.5 Z"/></g>
<g><path style="opacity:1" fill="#7dafd5" d="M 285.5,437.5 C 290.5,437.5 295.5,437.5 300.5,437.5C 300.5,442.5 300.5,447.5 300.5,452.5C 295.5,452.5 290.5,452.5 285.5,452.5C 285.5,447.5 285.5,442.5 285.5,437.5 Z"/></g>
<g><path style="opacity:1" fill="#8fcefa" d="M 300.5,437.5 C 310.5,437.5 320.5,437.5 330.5,437.5C 335.5,437.5 340.5,437.5 345.5,437.5C 345.5,442.5 345.5,447.5 345.5,452.5C 350.5,452.5 355.5,452.5 360.5,452.5C 360.5,467.5 360.5,482.5 360.5,497.5C 355.5,497.5 350.5,497.5 345.5,497.5C 345.5,502.5 345.5,507.5 345.5,512.5C 330.5,512.5 315.5,512.5 300.5,512.5C 300.5,507.5 300.5,502.5 300.5,497.5C 295.5,497.5 290.5,497.5 285.5,497.5C 285.5,482.5 285.5,467.5 285.5,452.5C 290.5,452.5 295.5,452.5 300.5,452.5C 300.5,447.5 300.5,442.5 300.5,437.5 Z"/></g>
<g><path style="opacity:1" fill="#7dafd4" d="M 345.5,437.5 C 350.5,437.5 355.5,437.5 360.5,437.5C 360.5,442.5 360.5,447.5 360.5,452.5C 355.5,452.5 350.5,452.5 345.5,452.5C 345.5,447.5 345.5,442.5 345.5,437.5 Z"/></g>
<g><path style="opacity:1" fill="#5d89a2" d="M 360.5,437.5 C 365.5,437.5 370.5,437.5 375.5,437.5C 375.5,442.5 375.5,447.5 375.5,452.5C 370.5,452.5 365.5,452.5 360.5,452.5C 360.5,447.5 360.5,442.5 360.5,437.5 Z"/></g>
<g><path style="opacity:1" fill="#cbcccc" d="M 375.5,437.5 C 380.5,437.5 385.5,437.5 390.5,437.5C 390.5,442.5 390.5,447.5 390.5,452.5C 385.5,452.5 380.5,452.5 375.5,452.5C 375.5,447.5 375.5,442.5 375.5,437.5 Z"/></g>
<g><path style="opacity:1" fill="#02090a" d="M 466.5,437.5 C 471.5,437.5 476.5,437.5 481.5,437.5C 481.5,442.5 481.5,447.5 481.5,452.5C 481.167,452.5 480.833,452.5 480.5,452.5C 475.833,452.5 471.167,452.5 466.5,452.5C 466.5,447.5 466.5,442.5 466.5,437.5 Z"/></g>
<g><path style="opacity:1" fill="#7cafd4" d="M 103.5,421.5 C 103.5,421.833 103.5,422.167 103.5,422.5C 103.5,427.5 103.5,432.5 103.5,437.5C 98.5,437.5 93.5,437.5 88.5,437.5C 88.5,442.5 88.5,447.5 88.5,452.5C 83.5,452.5 78.5,452.5 73.5,452.5C 73.5,462.5 73.5,472.5 73.5,482.5C 68.5,482.5 63.5,482.5 58.5,482.5C 58.5,472.167 58.5,461.833 58.5,451.5C 63.5,451.5 68.5,451.5 73.5,451.5C 73.5,446.5 73.5,441.5 73.5,436.5C 78.5,436.5 83.5,436.5 88.5,436.5C 88.5,431.5 88.5,426.5 88.5,421.5C 93.5,421.5 98.5,421.5 103.5,421.5 Z"/></g>
<g><path style="opacity:1" fill="#e6d36f" d="M 134.5,452.5 C 144.5,452.5 154.5,452.5 164.5,452.5C 164.5,457.5 164.5,462.5 164.5,467.5C 154.5,467.5 144.5,467.5 134.5,467.5C 134.5,462.5 134.5,457.5 134.5,452.5 Z"/></g>
<g><path style="opacity:1" fill="#daa844" d="M 164.5,452.5 C 169.5,452.5 174.5,452.5 179.5,452.5C 184.5,452.5 189.5,452.5 194.5,452.5C 194.5,457.5 194.5,462.5 194.5,467.5C 184.5,467.5 174.5,467.5 164.5,467.5C 164.5,462.5 164.5,457.5 164.5,452.5 Z"/></g>
<g><path style="opacity:1" fill="#7badd3" d="M 270.5,452.5 C 275.5,452.5 280.5,452.5 285.5,452.5C 285.5,467.5 285.5,482.5 285.5,497.5C 285.167,497.5 284.833,497.5 284.5,497.5C 284.5,487.5 284.5,477.5 284.5,467.5C 279.833,467.5 275.167,467.5 270.5,467.5C 270.5,462.5 270.5,457.5 270.5,452.5 Z"/></g>
<g><path style="opacity:1" fill="#7caed3" d="M 360.5,452.5 C 365.5,452.5 370.5,452.5 375.5,452.5C 375.5,457.5 375.5,462.5 375.5,467.5C 375.5,472.5 375.5,477.5 375.5,482.5C 375.5,487.5 375.5,492.5 375.5,497.5C 380.5,497.5 385.5,497.5 390.5,497.5C 390.5,512.833 390.5,528.167 390.5,543.5C 395.5,543.5 400.5,543.5 405.5,543.5C 405.5,548.167 405.5,552.833 405.5,557.5C 400.305,557.179 395.305,557.513 390.5,558.5C 385.833,558.5 381.167,558.5 376.5,558.5C 376.5,563.167 376.5,567.833 376.5,572.5C 376.167,572.5 375.833,572.5 375.5,572.5C 375.5,572.833 375.5,573.167 375.5,573.5C 370.5,573.5 365.5,573.5 360.5,573.5C 360.5,568.5 360.5,563.5 360.5,558.5C 355.5,558.5 350.5,558.5 345.5,558.5C 345.5,563.5 345.5,568.5 345.5,573.5C 335.319,573.827 325.319,573.494 315.5,572.5C 320.5,572.5 325.5,572.5 330.5,572.5C 330.5,567.833 330.5,563.167 330.5,558.5C 325.5,558.5 320.5,558.5 315.5,558.5C 315.5,553.167 315.5,547.833 315.5,542.5C 310.5,542.5 305.5,542.5 300.5,542.5C 300.5,537.5 300.5,532.5 300.5,527.5C 300.5,522.5 300.5,517.5 300.5,512.5C 315.5,512.5 330.5,512.5 345.5,512.5C 345.5,507.5 345.5,502.5 345.5,497.5C 350.5,497.5 355.5,497.5 360.5,497.5C 360.5,482.5 360.5,467.5 360.5,452.5 Z"/></g>
<g><path style="opacity:1" fill="#5c88a1" d="M 375.5,452.5 C 380.5,452.5 385.5,452.5 390.5,452.5C 390.5,457.5 390.5,462.5 390.5,467.5C 385.5,467.5 380.5,467.5 375.5,467.5C 375.5,462.5 375.5,457.5 375.5,452.5 Z"/></g>
<g><path style="opacity:1" fill="#000606" d="M 541.5,437.5 C 541.833,437.5 542.167,437.5 542.5,437.5C 542.5,442.5 542.5,447.5 542.5,452.5C 537.5,452.5 532.5,452.5 527.5,452.5C 527.5,457.5 527.5,462.5 527.5,467.5C 517.167,467.5 506.833,467.5 496.5,467.5C 496.5,472.5 496.5,477.5 496.5,482.5C 481.5,482.5 466.5,482.5 451.5,482.5C 451.5,477.5 451.5,472.5 451.5,467.5C 461.5,467.5 471.5,467.5 481.5,467.5C 481.5,462.5 481.5,457.5 481.5,452.5C 496.5,452.5 511.5,452.5 526.5,452.5C 526.5,447.5 526.5,442.5 526.5,437.5C 531.5,437.5 536.5,437.5 541.5,437.5 Z"/></g>
<g><path style="opacity:1" fill="#6792b5" d="M 480.5,452.5 C 480.833,452.5 481.167,452.5 481.5,452.5C 481.5,457.5 481.5,462.5 481.5,467.5C 471.5,467.5 461.5,467.5 451.5,467.5C 451.5,472.5 451.5,477.5 451.5,482.5C 451.167,482.5 450.833,482.5 450.5,482.5C 450.5,477.167 450.5,471.833 450.5,466.5C 460.5,466.5 470.5,466.5 480.5,466.5C 480.5,461.833 480.5,457.167 480.5,452.5 Z"/></g>
<g><path style="opacity:1" fill="#daa844" d="M 134.5,467.5 C 144.5,467.5 154.5,467.5 164.5,467.5C 164.5,472.5 164.5,477.5 164.5,482.5C 159.5,482.5 154.5,482.5 149.5,482.5C 144.5,482.5 139.5,482.5 134.5,482.5C 134.5,477.5 134.5,472.5 134.5,467.5 Z"/></g>
<g><path style="opacity:1" fill="#e6d36f" d="M 164.5,467.5 C 174.5,467.5 184.5,467.5 194.5,467.5C 194.5,472.5 194.5,477.5 194.5,482.5C 204.5,482.5 214.5,482.5 224.5,482.5C 224.5,487.5 224.5,492.5 224.5,497.5C 234.5,497.5 244.5,497.5 254.5,497.5C 254.5,502.5 254.5,507.5 254.5,512.5C 244.5,512.5 234.5,512.5 224.5,512.5C 214.5,512.5 204.5,512.5 194.5,512.5C 194.5,507.5 194.5,502.5 194.5,497.5C 184.5,497.5 174.5,497.5 164.5,497.5C 164.5,492.5 164.5,487.5 164.5,482.5C 164.5,477.5 164.5,472.5 164.5,467.5 Z"/></g>
<g><path style="opacity:1" fill="#d9a843" d="M 194.5,467.5 C 204.5,467.5 214.5,467.5 224.5,467.5C 224.5,472.5 224.5,477.5 224.5,482.5C 214.5,482.5 204.5,482.5 194.5,482.5C 194.5,477.5 194.5,472.5 194.5,467.5 Z"/></g>
<g><path style="opacity:1" fill="#5d89a1" d="M 270.5,467.5 C 275.167,467.5 279.833,467.5 284.5,467.5C 284.5,477.5 284.5,487.5 284.5,497.5C 279.833,497.5 275.167,497.5 270.5,497.5C 270.5,487.5 270.5,477.5 270.5,467.5 Z"/></g>
<g><path style="opacity:1" fill="#030a0a" d="M 375.5,467.5 C 380.5,467.5 385.5,467.5 390.5,467.5C 390.5,472.5 390.5,477.5 390.5,482.5C 385.5,482.5 380.5,482.5 375.5,482.5C 375.5,477.5 375.5,472.5 375.5,467.5 Z"/></g>
<g><path style="opacity:1" fill="#5d89a1" d="M 58.5,482.5 C 63.5,482.5 68.5,482.5 73.5,482.5C 73.5,487.5 73.5,492.5 73.5,497.5C 68.5,497.5 63.5,497.5 58.5,497.5C 58.5,492.5 58.5,487.5 58.5,482.5 Z"/></g>
<g><path style="opacity:1" fill="#7caed3" d="M 134.5,482.5 C 139.5,482.5 144.5,482.5 149.5,482.5C 149.5,487.5 149.5,492.5 149.5,497.5C 154.5,497.5 159.5,497.5 164.5,497.5C 164.5,502.5 164.5,507.5 164.5,512.5C 169.5,512.5 174.5,512.5 179.5,512.5C 179.5,517.5 179.5,522.5 179.5,527.5C 174.5,527.5 169.5,527.5 164.5,527.5C 164.5,532.5 164.5,537.5 164.5,542.5C 159.5,542.5 154.5,542.5 149.5,542.5C 149.5,547.5 149.5,552.5 149.5,557.5C 144.5,557.5 139.5,557.5 134.5,557.5C 134.5,552.5 134.5,547.5 134.5,542.5C 129.5,542.5 124.5,542.5 119.5,542.5C 119.5,547.5 119.5,552.5 119.5,557.5C 118.513,552.695 118.179,547.695 118.5,542.5C 113.5,542.5 108.5,542.5 103.5,542.5C 103.5,547.5 103.5,552.5 103.5,557.5C 98.5,557.5 93.5,557.5 88.5,557.5C 88.5,552.833 88.5,548.167 88.5,543.5C 83.8333,543.5 79.1667,543.5 74.5,543.5C 74.5,548.167 74.5,552.833 74.5,557.5C 73.5128,552.695 73.1795,547.695 73.5,542.5C 78.8333,542.5 84.1667,542.5 89.5,542.5C 89.5,532.5 89.5,522.5 89.5,512.5C 99.1667,512.5 108.833,512.5 118.5,512.5C 118.5,507.5 118.5,502.5 118.5,497.5C 123.833,497.5 129.167,497.5 134.5,497.5C 134.5,492.5 134.5,487.5 134.5,482.5 Z"/></g>
<g><path style="opacity:1" fill="#a27032" d="M 149.5,482.5 C 154.5,482.5 159.5,482.5 164.5,482.5C 164.5,487.5 164.5,492.5 164.5,497.5C 159.5,497.5 154.5,497.5 149.5,497.5C 149.5,492.5 149.5,487.5 149.5,482.5 Z"/></g>
<g><path style="opacity:1" fill="#d5a545" d="M 270.5,452.5 C 270.5,457.5 270.5,462.5 270.5,467.5C 270.5,477.5 270.5,487.5 270.5,497.5C 270.821,502.695 270.487,507.695 269.5,512.5C 264.5,512.5 259.5,512.5 254.5,512.5C 254.5,507.5 254.5,502.5 254.5,497.5C 244.5,497.5 234.5,497.5 224.5,497.5C 224.5,492.5 224.5,487.5 224.5,482.5C 239.5,482.5 254.5,482.5 269.5,482.5C 269.173,472.319 269.506,462.319 270.5,452.5 Z"/></g>
<g><path style="opacity:1" fill="#5d89a2" d="M 375.5,482.5 C 380.5,482.5 385.5,482.5 390.5,482.5C 390.5,487.5 390.5,492.5 390.5,497.5C 385.5,497.5 380.5,497.5 375.5,497.5C 375.5,492.5 375.5,487.5 375.5,482.5 Z"/></g>
<g><path style="opacity:1" fill="#000505" d="M 391.5,482.5 C 411.167,482.5 430.833,482.5 450.5,482.5C 450.833,482.5 451.167,482.5 451.5,482.5C 451.5,487.833 451.5,493.167 451.5,498.5C 436.5,498.5 421.5,498.5 406.5,498.5C 406.5,513.167 406.5,527.833 406.5,542.5C 401.5,542.5 396.5,542.5 391.5,542.5C 391.5,522.5 391.5,502.5 391.5,482.5 Z"/></g>
<g><path style="opacity:1" fill="#02090a" d="M 58.5,497.5 C 63.5,497.5 68.5,497.5 73.5,497.5C 78.5,497.5 83.5,497.5 88.5,497.5C 88.5,502.5 88.5,507.5 88.5,512.5C 88.5,517.5 88.5,522.5 88.5,527.5C 83.5,527.5 78.5,527.5 73.5,527.5C 73.5,522.833 73.5,518.167 73.5,513.5C 68.5,513.5 63.5,513.5 58.5,513.5C 58.5,508.167 58.5,502.833 58.5,497.5 Z"/></g>
<g><path style="opacity:1" fill="#7aacd1" d="M 73.5,497.5 C 78.5,497.5 83.5,497.5 88.5,497.5C 88.5,502.5 88.5,507.5 88.5,512.5C 83.5,512.5 78.5,512.5 73.5,512.5C 73.5,507.5 73.5,502.5 73.5,497.5 Z"/></g>
<g><path style="opacity:1" fill="#a27032" d="M 164.5,497.5 C 174.5,497.5 184.5,497.5 194.5,497.5C 194.5,502.5 194.5,507.5 194.5,512.5C 189.5,512.5 184.5,512.5 179.5,512.5C 174.5,512.5 169.5,512.5 164.5,512.5C 164.5,507.5 164.5,502.5 164.5,497.5 Z"/></g>
<g><path style="opacity:1" fill="#010708" d="M 270.5,497.5 C 275.167,497.5 279.833,497.5 284.5,497.5C 284.833,497.5 285.167,497.5 285.5,497.5C 285.5,502.5 285.5,507.5 285.5,512.5C 285.5,517.5 285.5,522.5 285.5,527.5C 289.97,528.486 294.637,528.819 299.5,528.5C 299.181,533.363 299.514,538.03 300.5,542.5C 305.5,542.5 310.5,542.5 315.5,542.5C 315.5,547.833 315.5,553.167 315.5,558.5C 315.5,563.167 315.5,567.833 315.5,572.5C 325.319,573.494 335.319,573.827 345.5,573.5C 345.5,578.5 345.5,583.5 345.5,588.5C 335.167,588.5 324.833,588.5 314.5,588.5C 314.5,583.5 314.5,578.5 314.5,573.5C 309.5,573.5 304.5,573.5 299.5,573.5C 299.5,563.5 299.5,553.5 299.5,543.5C 294.5,543.5 289.5,543.5 284.5,543.5C 284.5,538.5 284.5,533.5 284.5,528.5C 264.833,528.5 245.167,528.5 225.5,528.5C 225.5,523.5 225.5,518.5 225.5,513.5C 240.343,513.829 255.01,513.496 269.5,512.5C 270.487,507.695 270.821,502.695 270.5,497.5 Z"/></g>
<g><path style="opacity:1" fill="#7dafd5" d="M 285.5,497.5 C 290.5,497.5 295.5,497.5 300.5,497.5C 300.5,502.5 300.5,507.5 300.5,512.5C 295.5,512.5 290.5,512.5 285.5,512.5C 285.5,507.5 285.5,502.5 285.5,497.5 Z"/></g>
<g><path style="opacity:1" fill="#354959" d="M 390.5,467.5 C 391.487,472.305 391.821,477.305 391.5,482.5C 391.5,502.5 391.5,522.5 391.5,542.5C 396.5,542.5 401.5,542.5 406.5,542.5C 406.821,547.695 406.487,552.695 405.5,557.5C 405.5,552.833 405.5,548.167 405.5,543.5C 400.5,543.5 395.5,543.5 390.5,543.5C 390.5,528.167 390.5,512.833 390.5,497.5C 390.5,492.5 390.5,487.5 390.5,482.5C 390.5,477.5 390.5,472.5 390.5,467.5 Z"/></g>
<g><path style="opacity:1" fill="#36301b" d="M 224.5,512.5 C 234.5,512.5 244.5,512.5 254.5,512.5C 259.5,512.5 264.5,512.5 269.5,512.5C 255.01,513.496 240.343,513.829 225.5,513.5C 225.5,518.5 225.5,523.5 225.5,528.5C 225.167,528.5 224.833,528.5 224.5,528.5C 224.5,523.167 224.5,517.833 224.5,512.5 Z"/></g>
<g><path style="opacity:1" fill="#020809" d="M 179.5,512.5 C 184.5,512.5 189.5,512.5 194.5,512.5C 194.5,517.833 194.5,523.167 194.5,528.5C 194.5,533.5 194.5,538.5 194.5,543.5C 189.5,543.5 184.5,543.5 179.5,543.5C 179.5,548.5 179.5,553.5 179.5,558.5C 169.5,558.5 159.5,558.5 149.5,558.5C 149.5,558.167 149.5,557.833 149.5,557.5C 149.5,552.5 149.5,547.5 149.5,542.5C 154.5,542.5 159.5,542.5 164.5,542.5C 164.5,537.5 164.5,532.5 164.5,527.5C 169.5,527.5 174.5,527.5 179.5,527.5C 179.5,522.5 179.5,517.5 179.5,512.5 Z"/></g>
<g><path style="opacity:1" fill="#a37133" d="M 194.5,512.5 C 204.5,512.5 214.5,512.5 224.5,512.5C 224.5,517.833 224.5,523.167 224.5,528.5C 214.5,528.5 204.5,528.5 194.5,528.5C 194.5,523.167 194.5,517.833 194.5,512.5 Z"/></g>
<g><path style="opacity:1" fill="#5d89a3" d="M 285.5,512.5 C 290.5,512.5 295.5,512.5 300.5,512.5C 300.5,517.5 300.5,522.5 300.5,527.5C 295.5,527.5 290.5,527.5 285.5,527.5C 285.5,522.5 285.5,517.5 285.5,512.5 Z"/></g>
<g><path style="opacity:1" fill="#243141" d="M 285.5,527.5 C 290.5,527.5 295.5,527.5 300.5,527.5C 300.5,532.5 300.5,537.5 300.5,542.5C 299.514,538.03 299.181,533.363 299.5,528.5C 294.637,528.819 289.97,528.486 285.5,527.5 Z"/></g>
<g><path style="opacity:1" fill="#5b869f" d="M 88.5,512.5 C 88.8333,512.5 89.1667,512.5 89.5,512.5C 89.5,522.5 89.5,532.5 89.5,542.5C 84.1667,542.5 78.8333,542.5 73.5,542.5C 73.5,537.5 73.5,532.5 73.5,527.5C 78.5,527.5 83.5,527.5 88.5,527.5C 88.5,522.5 88.5,517.5 88.5,512.5 Z"/></g>
<g><path style="opacity:1" fill="#5a849d" d="M 73.5,542.5 C 73.1795,547.695 73.5128,552.695 74.5,557.5C 79.1667,557.5 83.8333,557.5 88.5,557.5C 93.5,557.5 98.5,557.5 103.5,557.5C 103.5,557.833 103.5,558.167 103.5,558.5C 93.5,558.5 83.5,558.5 73.5,558.5C 68.5,558.5 63.5,558.5 58.5,558.5C 58.5,553.167 58.5,547.833 58.5,542.5C 63.5,542.5 68.5,542.5 73.5,542.5 Z"/></g>
<g><path style="opacity:1" fill="#8fcefa" d="M 88.5,557.5 C 83.8333,557.5 79.1667,557.5 74.5,557.5C 74.5,552.833 74.5,548.167 74.5,543.5C 79.1667,543.5 83.8333,543.5 88.5,543.5C 88.5,548.167 88.5,552.833 88.5,557.5 Z"/></g>
<g><path style="opacity:1" fill="#5b859f" d="M 119.5,557.5 C 124.5,557.5 129.5,557.5 134.5,557.5C 139.5,557.5 144.5,557.5 149.5,557.5C 149.5,557.833 149.5,558.167 149.5,558.5C 139.167,558.5 128.833,558.5 118.5,558.5C 113.833,558.5 109.167,558.5 104.5,558.5C 104.167,558.5 103.833,558.5 103.5,558.5C 103.5,558.167 103.5,557.833 103.5,557.5C 103.5,552.5 103.5,547.5 103.5,542.5C 108.5,542.5 113.5,542.5 118.5,542.5C 118.179,547.695 118.513,552.695 119.5,557.5 Z"/></g>
<g><path style="opacity:1" fill="#8eccf8" d="M 134.5,557.5 C 129.5,557.5 124.5,557.5 119.5,557.5C 119.5,552.5 119.5,547.5 119.5,542.5C 124.5,542.5 129.5,542.5 134.5,542.5C 134.5,547.5 134.5,552.5 134.5,557.5 Z"/></g>
<g><path style="opacity:1" fill="#000506" d="M 406.5,542.5 C 411.5,542.5 416.5,542.5 421.5,542.5C 421.5,552.833 421.5,563.167 421.5,573.5C 411.5,573.5 401.5,573.5 391.5,573.5C 391.5,568.5 391.5,563.5 391.5,558.5C 396.363,558.819 401.03,558.486 405.5,557.5C 406.487,552.695 406.821,547.695 406.5,542.5 Z"/></g>
<g><path style="opacity:1" fill="#000505" d="M 73.5,558.5 C 83.5,558.5 93.5,558.5 103.5,558.5C 103.833,558.5 104.167,558.5 104.5,558.5C 104.5,563.5 104.5,568.5 104.5,573.5C 94.1667,573.5 83.8333,573.5 73.5,573.5C 73.5,568.5 73.5,563.5 73.5,558.5 Z"/></g>
<g><path style="opacity:1" fill="#000505" d="M 118.5,558.5 C 128.833,558.5 139.167,558.5 149.5,558.5C 149.5,563.5 149.5,568.5 149.5,573.5C 139.167,573.5 128.833,573.5 118.5,573.5C 118.5,568.5 118.5,563.5 118.5,558.5 Z"/></g>
<g><path style="opacity:1" fill="#8fcdfa" d="M 315.5,558.5 C 320.5,558.5 325.5,558.5 330.5,558.5C 330.5,563.167 330.5,567.833 330.5,572.5C 325.5,572.5 320.5,572.5 315.5,572.5C 315.5,567.833 315.5,563.167 315.5,558.5 Z"/></g>
<g><path style="opacity:1" fill="#000505" d="M 360.5,573.5 C 355.5,573.5 350.5,573.5 345.5,573.5C 345.5,568.5 345.5,563.5 345.5,558.5C 350.5,558.5 355.5,558.5 360.5,558.5C 360.5,563.5 360.5,568.5 360.5,573.5 Z"/></g>
<g><path style="opacity:1" fill="#8fcefa" d="M 375.5,572.5 C 370.833,572.5 366.167,572.5 361.5,572.5C 361.5,567.833 361.5,563.167 361.5,558.5C 366.167,558.5 370.833,558.5 375.5,558.5C 375.5,563.167 375.5,567.833 375.5,572.5 Z"/></g>
<g><path style="opacity:1" fill="#517696" d="M 390.5,558.5 C 390.5,563.167 390.5,567.833 390.5,572.5C 385.833,572.5 381.167,572.5 376.5,572.5C 376.5,567.833 376.5,563.167 376.5,558.5C 381.167,558.5 385.833,558.5 390.5,558.5 Z"/></g>
<g><path style="opacity:1" fill="#304858" d="M 405.5,557.5 C 401.03,558.486 396.363,558.819 391.5,558.5C 391.5,563.5 391.5,568.5 391.5,573.5C 386.167,573.5 380.833,573.5 375.5,573.5C 375.5,573.167 375.5,572.833 375.5,572.5C 375.833,572.5 376.167,572.5 376.5,572.5C 381.167,572.5 385.833,572.5 390.5,572.5C 390.5,567.833 390.5,563.167 390.5,558.5C 395.305,557.513 400.305,557.179 405.5,557.5 Z"/></g>
<g><path style="opacity:1" fill="#000505" d="M 360.5,573.5 C 365.5,573.5 370.5,573.5 375.5,573.5C 380.833,573.5 386.167,573.5 391.5,573.5C 391.5,578.5 391.5,583.5 391.5,588.5C 381.167,588.5 370.833,588.5 360.5,588.5C 360.5,583.5 360.5,578.5 360.5,573.5 Z"/></g>
</svg>
