<?xml version="1.0" encoding="UTF-8"?>
<!DOCTYPE svg PUBLIC "-//W3C//DTD SVG 1.1//EN" "http://www.w3.org/Graphics/SVG/1.1/DTD/svg11.dtd">
<svg xmlns="http://www.w3.org/2000/svg" version="1.1" width="539px" height="596px" style="shape-rendering:geometricPrecision; text-rendering:geometricPrecision; image-rendering:optimizeQuality; fill-rule:evenodd; clip-rule:evenodd" xmlns:xlink="http://www.w3.org/1999/xlink">
<g><path style="opacity:1" fill="#d35118" d="M 127.5,-0.5 C 136.833,-0.5 146.167,-0.5 155.5,-0.5C 155.5,4.16667 155.5,8.83333 155.5,13.5C 146.167,13.5 136.833,13.5 127.5,13.5C 127.5,8.83333 127.5,4.16667 127.5,-0.5 Z"/></g>
<g><path style="opacity:1" fill="#894412" d="M 155.5,-0.5 C 169.833,-0.5 184.167,-0.5 198.5,-0.5C 198.5,4.16667 198.5,8.83333 198.5,13.5C 184.167,13.5 169.833,13.5 155.5,13.5C 155.5,8.83333 155.5,4.16667 155.5,-0.5 Z"/></g>
<g><path style="opacity:1" fill="#d45119" d="M 127.5,13.5 C 127.5,18.1667 127.5,22.8333 127.5,27.5C 122.833,27.5 118.167,27.5 113.5,27.5C 108.833,27.5 104.167,27.5 99.5,27.5C 99.5,32.1667 99.5,36.8333 99.5,41.5C 94.5,41.5 89.5,41.5 84.5,41.5C 84.5,36.8333 84.5,32.1667 84.5,27.5C 89.1667,27.5 93.8333,27.5 98.5,27.5C 98.5,22.8333 98.5,18.1667 98.5,13.5C 108.167,13.5 117.833,13.5 127.5,13.5 Z"/></g>
<g><path style="opacity:1" fill="#894311" d="M 198.5,13.5 C 208.167,13.5 217.833,13.5 227.5,13.5C 227.5,18.1667 227.5,22.8333 227.5,27.5C 227.167,27.5 226.833,27.5 226.5,27.5C 217.167,27.5 207.833,27.5 198.5,27.5C 198.5,22.8333 198.5,18.1667 198.5,13.5 Z"/></g>
<g><path style="opacity:1" fill="#f99532" d="M 127.5,13.5 C 136.833,13.5 146.167,13.5 155.5,13.5C 169.833,13.5 184.167,13.5 198.5,13.5C 198.5,18.1667 198.5,22.8333 198.5,27.5C 207.833,27.5 217.167,27.5 226.5,27.5C 226.5,36.8333 226.5,46.1667 226.5,55.5C 230.97,56.4861 235.637,56.8195 240.5,56.5C 240.5,65.8333 240.5,75.1667 240.5,84.5C 240.5,89.1667 240.5,93.8333 240.5,98.5C 235.833,98.5 231.167,98.5 226.5,98.5C 217.167,98.5 207.833,98.5 198.5,98.5C 198.5,103.167 198.5,107.833 198.5,112.5C 193.833,112.5 189.167,112.5 184.5,112.5C 184.5,117.167 184.5,121.833 184.5,126.5C 184.5,126.833 184.5,127.167 184.5,127.5C 184.5,136.5 184.5,145.5 184.5,154.5C 184.5,154.833 184.5,155.167 184.5,155.5C 184.5,160.167 184.5,164.833 184.5,169.5C 189.167,169.5 193.833,169.5 198.5,169.5C 198.5,174.167 198.5,178.833 198.5,183.5C 193.833,183.5 189.167,183.5 184.5,183.5C 184.5,188.167 184.5,192.833 184.5,197.5C 179.833,197.5 175.167,197.5 170.5,197.5C 170.5,202.167 170.5,206.833 170.5,211.5C 160.833,211.5 151.167,211.5 141.5,211.5C 141.5,216.167 141.5,220.833 141.5,225.5C 122.833,225.5 104.167,225.5 85.5,225.5C 85.5,220.833 85.5,216.167 85.5,211.5C 80.5,211.5 75.5,211.5 70.5,211.5C 70.5,206.833 70.5,202.167 70.5,197.5C 75.5,197.5 80.5,197.5 85.5,197.5C 85.5,192.833 85.5,188.167 85.5,183.5C 90.1667,183.5 94.8333,183.5 99.5,183.5C 99.5,178.833 99.5,174.167 99.5,169.5C 90.1667,169.5 80.8333,169.5 71.5,169.5C 71.5,155.5 71.5,141.5 71.5,127.5C 76.1667,127.5 80.8333,127.5 85.5,127.5C 85.5,117.833 85.5,108.167 85.5,98.5C 80.5,98.5 75.5,98.5 70.5,98.5C 70.5,89.1667 70.5,79.8333 70.5,70.5C 75.1667,70.5 79.8333,70.5 84.5,70.5C 84.5,60.8333 84.5,51.1667 84.5,41.5C 89.5,41.5 94.5,41.5 99.5,41.5C 95.03,42.4861 90.3633,42.8195 85.5,42.5C 85.5,51.8333 85.5,61.1667 85.5,70.5C 90.1667,70.5 94.8333,70.5 99.5,70.5C 99.5,75.1667 99.5,79.8333 99.5,84.5C 104.167,84.5 108.833,84.5 113.5,84.5C 113.5,79.8333 113.5,75.1667 113.5,70.5C 118.167,70.5 122.833,70.5 127.5,70.5C 127.5,60.8333 127.5,51.1667 127.5,41.5C 122.833,41.5 118.167,41.5 113.5,41.5C 113.5,36.8333 113.5,32.1667 113.5,27.5C 118.167,27.5 122.833,27.5 127.5,27.5C 127.5,22.8333 127.5,18.1667 127.5,13.5 Z"/></g>
<g><path style="opacity:1" fill="#020706" d="M 226.5,27.5 C 226.833,27.5 227.167,27.5 227.5,27.5C 232.167,27.5 236.833,27.5 241.5,27.5C 241.5,36.8333 241.5,46.1667 241.5,55.5C 236.5,55.5 231.5,55.5 226.5,55.5C 226.5,46.1667 226.5,36.8333 226.5,27.5 Z"/></g>
<g><path style="opacity:1" fill="#f9d36f" d="M 113.5,27.5 C 113.5,32.1667 113.5,36.8333 113.5,41.5C 118.167,41.5 122.833,41.5 127.5,41.5C 127.5,51.1667 127.5,60.8333 127.5,70.5C 122.833,70.5 118.167,70.5 113.5,70.5C 113.5,75.1667 113.5,79.8333 113.5,84.5C 108.833,84.5 104.167,84.5 99.5,84.5C 99.5,79.8333 99.5,75.1667 99.5,70.5C 94.8333,70.5 90.1667,70.5 85.5,70.5C 85.5,61.1667 85.5,51.8333 85.5,42.5C 90.3633,42.8195 95.03,42.4861 99.5,41.5C 99.5,36.8333 99.5,32.1667 99.5,27.5C 104.167,27.5 108.833,27.5 113.5,27.5 Z"/></g>
<g><path style="opacity:1" fill="#5c3718" d="M 226.5,55.5 C 231.5,55.5 236.5,55.5 241.5,55.5C 241.5,65.1667 241.5,74.8333 241.5,84.5C 241.167,84.5 240.833,84.5 240.5,84.5C 240.5,75.1667 240.5,65.8333 240.5,56.5C 235.637,56.8195 230.97,56.4861 226.5,55.5 Z"/></g>
<g><path style="opacity:1" fill="#d45119" d="M 84.5,41.5 C 84.5,51.1667 84.5,60.8333 84.5,70.5C 79.8333,70.5 75.1667,70.5 70.5,70.5C 70.5,79.8333 70.5,89.1667 70.5,98.5C 65.8333,98.5 61.1667,98.5 56.5,98.5C 56.5,88.8333 56.5,79.1667 56.5,69.5C 61.1667,69.5 65.8333,69.5 70.5,69.5C 70.5,60.1667 70.5,50.8333 70.5,41.5C 75.1667,41.5 79.8333,41.5 84.5,41.5 Z"/></g>
<g><path style="opacity:1" fill="#d45219" d="M 184.5,84.5 C 184.5,79.8333 184.5,75.1667 184.5,70.5C 189.167,70.5 193.833,70.5 198.5,70.5C 198.5,75.1667 198.5,79.8333 198.5,84.5C 193.833,84.5 189.167,84.5 184.5,84.5 Z"/></g>
<g><path style="opacity:1" fill="#d45219" d="M 184.5,84.5 C 184.5,93.8333 184.5,103.167 184.5,112.5C 179.833,112.5 175.167,112.5 170.5,112.5C 170.5,103.167 170.5,93.8333 170.5,84.5C 175.167,84.5 179.833,84.5 184.5,84.5 Z"/></g>
<g><path style="opacity:1" fill="#d35119" d="M 240.5,84.5 C 240.833,84.5 241.167,84.5 241.5,84.5C 245.833,84.5 250.167,84.5 254.5,84.5C 254.5,122.167 254.5,159.833 254.5,197.5C 249.833,197.5 245.167,197.5 240.5,197.5C 240.5,207.167 240.5,216.833 240.5,226.5C 240.5,231.167 240.5,235.833 240.5,240.5C 240.5,245.167 240.5,249.833 240.5,254.5C 245.167,254.5 249.833,254.5 254.5,254.5C 254.5,259.167 254.5,263.833 254.5,268.5C 264.167,268.5 273.833,268.5 283.5,268.5C 283.5,263.833 283.5,259.167 283.5,254.5C 297.5,254.5 311.5,254.5 325.5,254.5C 325.5,249.833 325.5,245.167 325.5,240.5C 330.5,240.5 335.5,240.5 340.5,240.5C 340.819,235.637 340.486,230.97 339.5,226.5C 339.5,226.167 339.5,225.833 339.5,225.5C 339.5,220.833 339.5,216.167 339.5,211.5C 344.167,211.5 348.833,211.5 353.5,211.5C 353.173,221.348 353.506,231.014 354.5,240.5C 359.167,240.5 363.833,240.5 368.5,240.5C 368.5,245.167 368.5,249.833 368.5,254.5C 358.833,254.5 349.167,254.5 339.5,254.5C 339.5,259.167 339.5,263.833 339.5,268.5C 334.833,268.5 330.167,268.5 325.5,268.5C 325.5,273.167 325.5,277.833 325.5,282.5C 316.167,282.5 306.833,282.5 297.5,282.5C 297.5,287.167 297.5,291.833 297.5,296.5C 283.5,296.5 269.5,296.5 255.5,296.5C 255.5,301.167 255.5,305.833 255.5,310.5C 250.821,310.334 246.155,310.501 241.5,311C 240.531,315.737 240.197,320.57 240.5,325.5C 235.833,325.5 231.167,325.5 226.5,325.5C 221.833,325.5 217.167,325.5 212.5,325.5C 212.5,320.833 212.5,316.167 212.5,311.5C 207.833,311.5 203.167,311.5 198.5,311.5C 198.5,306.833 198.5,302.167 198.5,297.5C 184.343,296.504 170.01,296.171 155.5,296.5C 155.5,301.167 155.5,305.833 155.5,310.5C 150.833,310.5 146.167,310.5 141.5,310.5C 141.5,305.833 141.5,301.167 141.5,296.5C 136.833,296.5 132.167,296.5 127.5,296.5C 127.5,306.167 127.5,315.833 127.5,325.5C 122.833,325.5 118.167,325.5 113.5,325.5C 108.833,325.5 104.167,325.5 99.5,325.5C 99.5,320.833 99.5,316.167 99.5,311.5C 90.3483,310.506 81.015,310.173 71.5,310.5C 71.5,305.833 71.5,301.167 71.5,296.5C 61.8333,296.5 52.1667,296.5 42.5,296.5C 42.5,291.833 42.5,287.167 42.5,282.5C 33.1667,282.5 23.8333,282.5 14.5,282.5C 14.5,277.833 14.5,273.167 14.5,268.5C 19.1667,268.5 23.8333,268.5 28.5,268.5C 28.5,259.167 28.5,249.833 28.5,240.5C 33.1667,240.5 37.8333,240.5 42.5,240.5C 42.5,245.167 42.5,249.833 42.5,254.5C 42.5,259.167 42.5,263.833 42.5,268.5C 47.1667,268.5 51.8333,268.5 56.5,268.5C 56.5,273.167 56.5,277.833 56.5,282.5C 66.1667,282.5 75.8333,282.5 85.5,282.5C 85.5,273.167 85.5,263.833 85.5,254.5C 90.1667,254.5 94.8333,254.5 99.5,254.5C 99.5,259.167 99.5,263.833 99.5,268.5C 108.833,268.5 118.167,268.5 127.5,268.5C 127.5,273.167 127.5,277.833 127.5,282.5C 141.657,283.496 155.99,283.829 170.5,283.5C 170.5,278.5 170.5,273.5 170.5,268.5C 179.833,268.5 189.167,268.5 198.5,268.5C 198.5,263.833 198.5,259.167 198.5,254.5C 189.167,254.5 179.833,254.5 170.5,254.5C 170.167,254.5 169.833,254.5 169.5,254.5C 169.5,249.833 169.5,245.167 169.5,240.5C 169.5,235.833 169.5,231.167 169.5,226.5C 169.833,226.5 170.167,226.5 170.5,226.5C 170.5,231.167 170.5,235.833 170.5,240.5C 175.167,240.5 179.833,240.5 184.5,240.5C 184.5,235.833 184.5,231.167 184.5,226.5C 189.167,226.5 193.833,226.5 198.5,226.5C 198.5,221.5 198.5,216.5 198.5,211.5C 203.167,211.5 207.833,211.5 212.5,211.5C 212.5,206.833 212.5,202.167 212.5,197.5C 203.167,197.5 193.833,197.5 184.5,197.5C 184.5,192.833 184.5,188.167 184.5,183.5C 189.167,183.5 193.833,183.5 198.5,183.5C 198.5,178.833 198.5,174.167 198.5,169.5C 203.167,169.5 207.833,169.5 212.5,169.5C 217.167,169.5 221.833,169.5 226.5,169.5C 226.5,164.833 226.5,160.167 226.5,155.5C 231.167,155.5 235.833,155.5 240.5,155.5C 240.5,141.167 240.5,126.833 240.5,112.5C 235.833,112.5 231.167,112.5 226.5,112.5C 226.5,107.833 226.5,103.167 226.5,98.5C 231.167,98.5 235.833,98.5 240.5,98.5C 240.5,93.8333 240.5,89.1667 240.5,84.5 Z"/></g>
<g><path style="opacity:1" fill="#612710" d="M 254.5,84.5 C 255.499,122.33 255.832,160.33 255.5,198.5C 250.833,198.5 246.167,198.5 241.5,198.5C 241.5,207.5 241.5,216.5 241.5,225.5C 246.167,225.5 250.833,225.5 255.5,225.5C 251.03,226.486 246.363,226.819 241.5,226.5C 241.167,226.5 240.833,226.5 240.5,226.5C 240.5,216.833 240.5,207.167 240.5,197.5C 245.167,197.5 249.833,197.5 254.5,197.5C 254.5,159.833 254.5,122.167 254.5,84.5 Z"/></g>
<g><path style="opacity:1" fill="#000506" d="M 241.5,55.5 C 246.167,55.5 250.833,55.5 255.5,55.5C 255.5,64.8333 255.5,74.1667 255.5,83.5C 260.167,83.5 264.833,83.5 269.5,83.5C 269.5,121.833 269.5,160.167 269.5,198.5C 264.833,198.5 260.167,198.5 255.5,198.5C 255.832,160.33 255.499,122.33 254.5,84.5C 250.167,84.5 245.833,84.5 241.5,84.5C 241.5,74.8333 241.5,65.1667 241.5,55.5 Z"/></g>
<g><path style="opacity:1" fill="#1419cc" d="M 56.5,98.5 C 61.1667,98.5 65.8333,98.5 70.5,98.5C 70.5,103.167 70.5,107.833 70.5,112.5C 65.8333,112.5 61.1667,112.5 56.5,112.5C 56.5,107.833 56.5,103.167 56.5,98.5 Z"/></g>
<g><path style="opacity:1" fill="#d35a23" d="M 70.5,98.5 C 75.5,98.5 80.5,98.5 85.5,98.5C 85.5,108.167 85.5,117.833 85.5,127.5C 80.8333,127.5 76.1667,127.5 71.5,127.5C 71.5,141.5 71.5,155.5 71.5,169.5C 71.1667,169.5 70.8333,169.5 70.5,169.5C 70.5,164.833 70.5,160.167 70.5,155.5C 70.5,150.833 70.5,146.167 70.5,141.5C 70.5,136.5 70.5,131.5 70.5,126.5C 70.5,121.833 70.5,117.167 70.5,112.5C 70.5,107.833 70.5,103.167 70.5,98.5 Z"/></g>
<g><path style="opacity:1" fill="#1519cc" d="M 226.5,98.5 C 226.5,103.167 226.5,107.833 226.5,112.5C 226.5,117.167 226.5,121.833 226.5,126.5C 217.167,126.5 207.833,126.5 198.5,126.5C 193.833,126.5 189.167,126.5 184.5,126.5C 184.5,121.833 184.5,117.167 184.5,112.5C 189.167,112.5 193.833,112.5 198.5,112.5C 198.5,107.833 198.5,103.167 198.5,98.5C 207.833,98.5 217.167,98.5 226.5,98.5 Z"/></g>
<g><path style="opacity:1" fill="#5c8ca2" d="M 56.5,112.5 C 61.1667,112.5 65.8333,112.5 70.5,112.5C 70.5,117.167 70.5,121.833 70.5,126.5C 65.8333,126.5 61.1667,126.5 56.5,126.5C 56.5,121.833 56.5,117.167 56.5,112.5 Z"/></g>
<g><path style="opacity:1" fill="#894413" d="M 226.5,112.5 C 231.167,112.5 235.833,112.5 240.5,112.5C 240.5,126.833 240.5,141.167 240.5,155.5C 235.833,155.5 231.167,155.5 226.5,155.5C 226.5,150.833 226.5,146.167 226.5,141.5C 226.5,136.5 226.5,131.5 226.5,126.5C 226.5,121.833 226.5,117.167 226.5,112.5 Z"/></g>
<g><path style="opacity:1" fill="#f0f1f1" d="M 56.5,126.5 C 61.1667,126.5 65.8333,126.5 70.5,126.5C 70.5,131.5 70.5,136.5 70.5,141.5C 65.8333,141.5 61.1667,141.5 56.5,141.5C 56.5,136.5 56.5,131.5 56.5,126.5 Z"/></g>
<g><path style="opacity:1" fill="#f9faf9" d="M 184.5,127.5 C 188.833,127.5 193.167,127.5 197.5,127.5C 197.5,136.5 197.5,145.5 197.5,154.5C 193.167,154.5 188.833,154.5 184.5,154.5C 184.5,145.5 184.5,136.5 184.5,127.5 Z"/></g>
<g><path style="opacity:1" fill="#d0cadc" d="M 184.5,127.5 C 184.5,127.167 184.5,126.833 184.5,126.5C 189.167,126.5 193.833,126.5 198.5,126.5C 198.5,126.833 198.5,127.167 198.5,127.5C 198.5,132.167 198.5,136.833 198.5,141.5C 198.5,146.167 198.5,150.833 198.5,155.5C 193.833,155.5 189.167,155.5 184.5,155.5C 184.5,155.167 184.5,154.833 184.5,154.5C 188.833,154.5 193.167,154.5 197.5,154.5C 197.5,145.5 197.5,136.5 197.5,127.5C 193.167,127.5 188.833,127.5 184.5,127.5 Z"/></g>
<g><path style="opacity:1" fill="#03060d" d="M 198.5,127.5 C 203.167,127.5 207.833,127.5 212.5,127.5C 212.5,132.167 212.5,136.833 212.5,141.5C 207.833,141.5 203.167,141.5 198.5,141.5C 198.5,136.833 198.5,132.167 198.5,127.5 Z"/></g>
<g><path style="opacity:1" fill="#5a87a1" d="M 198.5,127.5 C 198.5,127.167 198.5,126.833 198.5,126.5C 207.833,126.5 217.167,126.5 226.5,126.5C 226.5,131.5 226.5,136.5 226.5,141.5C 221.833,141.5 217.167,141.5 212.5,141.5C 212.5,136.833 212.5,132.167 212.5,127.5C 207.833,127.5 203.167,127.5 198.5,127.5 Z"/></g>
<g><path style="opacity:1" fill="#01050b" d="M 56.5,141.5 C 61.1667,141.5 65.8333,141.5 70.5,141.5C 70.5,146.167 70.5,150.833 70.5,155.5C 65.8333,155.5 61.1667,155.5 56.5,155.5C 56.5,155.167 56.5,154.833 56.5,154.5C 56.5,150.167 56.5,145.833 56.5,141.5 Z"/></g>
<g><path style="opacity:1" fill="#141bcd" d="M 198.5,141.5 C 203.167,141.5 207.833,141.5 212.5,141.5C 212.5,146.167 212.5,150.833 212.5,155.5C 207.833,155.5 203.167,155.5 198.5,155.5C 198.5,150.833 198.5,146.167 198.5,141.5 Z"/></g>
<g><path style="opacity:1" fill="#7db4cd" d="M 212.5,141.5 C 217.167,141.5 221.833,141.5 226.5,141.5C 226.5,146.167 226.5,150.833 226.5,155.5C 226.5,160.167 226.5,164.833 226.5,169.5C 221.833,169.5 217.167,169.5 212.5,169.5C 212.5,164.833 212.5,160.167 212.5,155.5C 212.5,150.833 212.5,146.167 212.5,141.5 Z"/></g>
<g><path style="opacity:1" fill="#fad906" d="M 467.5,154.5 C 472.167,154.5 476.833,154.5 481.5,154.5C 481.5,168.833 481.5,183.167 481.5,197.5C 481.5,202.167 481.5,206.833 481.5,211.5C 486.167,211.5 490.833,211.5 495.5,211.5C 495.5,216.5 495.5,221.5 495.5,226.5C 495.5,231.167 495.5,235.833 495.5,240.5C 500.167,240.5 504.833,240.5 509.5,240.5C 509.181,245.363 509.514,250.03 510.5,254.5C 510.5,259.167 510.5,263.833 510.5,268.5C 514.833,268.5 519.167,268.5 523.5,268.5C 523.5,278.167 523.5,287.833 523.5,297.5C 519.167,297.5 514.833,297.5 510.5,297.5C 510.5,301.833 510.5,306.167 510.5,310.5C 509.833,310.5 509.5,310.833 509.5,311.5C 500.167,311.5 490.833,311.5 481.5,311.5C 481.5,311.167 481.5,310.833 481.5,310.5C 481.5,305.833 481.5,301.167 481.5,296.5C 472.167,296.5 462.833,296.5 453.5,296.5C 453.5,291.833 453.5,287.167 453.5,282.5C 448.833,282.5 444.167,282.5 439.5,282.5C 439.5,277.833 439.5,273.167 439.5,268.5C 444.167,268.5 448.833,268.5 453.5,268.5C 457.833,268.5 462.167,268.5 466.5,268.5C 466.5,273.5 466.5,278.5 466.5,283.5C 471.695,283.821 476.695,283.487 481.5,282.5C 481.5,277.833 481.5,273.167 481.5,268.5C 486.167,268.5 490.833,268.5 495.5,268.5C 495.5,263.833 495.5,259.167 495.5,254.5C 490.833,254.5 486.167,254.5 481.5,254.5C 481.5,245.167 481.5,235.833 481.5,226.5C 477.03,225.514 472.363,225.181 467.5,225.5C 467.5,220.833 467.5,216.167 467.5,211.5C 462.833,211.5 458.167,211.5 453.5,211.5C 453.5,206.833 453.5,202.167 453.5,197.5C 458.167,197.5 462.833,197.5 467.5,197.5C 467.5,192.833 467.5,188.167 467.5,183.5C 467.5,173.833 467.5,164.167 467.5,154.5 Z"/></g>
<g><path style="opacity:1" fill="#894312" d="M 56.5,154.5 C 56.5,154.833 56.5,155.167 56.5,155.5C 56.5,160.167 56.5,164.833 56.5,169.5C 56.5,178.833 56.5,188.167 56.5,197.5C 61.1667,197.5 65.8333,197.5 70.5,197.5C 70.5,202.167 70.5,206.833 70.5,211.5C 65.8333,211.5 61.1667,211.5 56.5,211.5C 56.5,207.167 56.5,202.833 56.5,198.5C 51.8333,198.5 47.1667,198.5 42.5,198.5C 42.5,183.833 42.5,169.167 42.5,154.5C 47.1667,154.5 51.8333,154.5 56.5,154.5 Z"/></g>
<g><path style="opacity:1" fill="#191bca" d="M 56.5,155.5 C 61.1667,155.5 65.8333,155.5 70.5,155.5C 70.5,160.167 70.5,164.833 70.5,169.5C 65.8333,169.5 61.1667,169.5 56.5,169.5C 56.5,164.833 56.5,160.167 56.5,155.5 Z"/></g>
<g><path style="opacity:1" fill="#894413" d="M 184.5,155.5 C 189.167,155.5 193.833,155.5 198.5,155.5C 198.5,160.167 198.5,164.833 198.5,169.5C 193.833,169.5 189.167,169.5 184.5,169.5C 184.5,164.833 184.5,160.167 184.5,155.5 Z"/></g>
<g><path style="opacity:1" fill="#5e8ea1" d="M 198.5,155.5 C 203.167,155.5 207.833,155.5 212.5,155.5C 212.5,160.167 212.5,164.833 212.5,169.5C 207.833,169.5 203.167,169.5 198.5,169.5C 198.5,164.833 198.5,160.167 198.5,155.5 Z"/></g>
<g><path style="opacity:1" fill="#f9d26e" d="M 56.5,169.5 C 61.1667,169.5 65.8333,169.5 70.5,169.5C 70.8333,169.5 71.1667,169.5 71.5,169.5C 80.8333,169.5 90.1667,169.5 99.5,169.5C 99.5,174.167 99.5,178.833 99.5,183.5C 94.8333,183.5 90.1667,183.5 85.5,183.5C 85.5,188.167 85.5,192.833 85.5,197.5C 80.5,197.5 75.5,197.5 70.5,197.5C 65.8333,197.5 61.1667,197.5 56.5,197.5C 56.5,188.167 56.5,178.833 56.5,169.5 Z"/></g>
<g><path style="opacity:1" fill="#fa3211" d="M 467.5,154.5 C 467.5,164.167 467.5,173.833 467.5,183.5C 462.833,183.5 458.167,183.5 453.5,183.5C 453.5,188.167 453.5,192.833 453.5,197.5C 453.5,202.167 453.5,206.833 453.5,211.5C 453.5,216.5 453.5,221.5 453.5,226.5C 453.5,230.833 453.5,235.167 453.5,239.5C 457.97,240.486 462.637,240.819 467.5,240.5C 467.5,235.833 467.5,231.167 467.5,226.5C 472.167,226.5 476.833,226.5 481.5,226.5C 481.5,235.833 481.5,245.167 481.5,254.5C 486.167,254.5 490.833,254.5 495.5,254.5C 495.5,259.167 495.5,263.833 495.5,268.5C 490.833,268.5 486.167,268.5 481.5,268.5C 481.5,273.167 481.5,277.833 481.5,282.5C 476.833,282.5 472.167,282.5 467.5,282.5C 467.5,273.167 467.5,263.833 467.5,254.5C 462.833,254.5 458.167,254.5 453.5,254.5C 453.5,259.167 453.5,263.833 453.5,268.5C 448.833,268.5 444.167,268.5 439.5,268.5C 438.504,282.657 438.171,296.99 438.5,311.5C 433.833,311.5 429.167,311.5 424.5,311.5C 424.5,287.5 424.5,263.5 424.5,239.5C 429.167,239.5 433.833,239.5 438.5,239.5C 438.5,220.833 438.5,202.167 438.5,183.5C 443.167,183.5 447.833,183.5 452.5,183.5C 452.5,169.167 452.5,154.833 452.5,140.5C 457.5,140.5 462.5,140.5 467.5,140.5C 467.5,145.167 467.5,149.833 467.5,154.5 Z"/></g>
<g><path style="opacity:1" fill="#d45119" d="M 113.5,183.5 C 118.167,183.5 122.833,183.5 127.5,183.5C 127.5,188.167 127.5,192.833 127.5,197.5C 122.833,197.5 118.167,197.5 113.5,197.5C 113.5,192.833 113.5,188.167 113.5,183.5 Z"/></g>
<g><path style="opacity:1" fill="#894412" d="M 212.5,197.5 C 212.5,192.833 212.5,188.167 212.5,183.5C 217.167,183.5 221.833,183.5 226.5,183.5C 226.5,188.167 226.5,192.833 226.5,197.5C 221.833,197.5 217.167,197.5 212.5,197.5 Z"/></g>
<g><path style="opacity:1" fill="#fac011" d="M 467.5,183.5 C 467.5,188.167 467.5,192.833 467.5,197.5C 462.833,197.5 458.167,197.5 453.5,197.5C 453.5,192.833 453.5,188.167 453.5,183.5C 458.167,183.5 462.833,183.5 467.5,183.5 Z"/></g>
<g><path style="opacity:1" fill="#884212" d="M 368.5,211.5 C 363.833,211.5 359.167,211.5 354.5,211.5C 354.5,221.167 354.5,230.833 354.5,240.5C 353.506,231.014 353.173,221.348 353.5,211.5C 348.833,211.5 344.167,211.5 339.5,211.5C 339.5,206.833 339.5,202.167 339.5,197.5C 349.167,197.5 358.833,197.5 368.5,197.5C 368.5,202.167 368.5,206.833 368.5,211.5 Z"/></g>
<g><path style="opacity:1" fill="#f9c111" d="M 481.5,197.5 C 486.5,197.5 491.5,197.5 496.5,197.5C 496.5,202.167 496.5,206.833 496.5,211.5C 496.167,211.5 495.833,211.5 495.5,211.5C 490.833,211.5 486.167,211.5 481.5,211.5C 481.5,206.833 481.5,202.167 481.5,197.5 Z"/></g>
<g><path style="opacity:1" fill="#d35119" d="M 184.5,197.5 C 184.5,202.167 184.5,206.833 184.5,211.5C 179.833,211.5 175.167,211.5 170.5,211.5C 170.5,206.833 170.5,202.167 170.5,197.5C 175.167,197.5 179.833,197.5 184.5,197.5 Z"/></g>
<g><path style="opacity:1" fill="#8a4412" d="M 184.5,197.5 C 193.833,197.5 203.167,197.5 212.5,197.5C 212.5,202.167 212.5,206.833 212.5,211.5C 207.833,211.5 203.167,211.5 198.5,211.5C 193.833,211.5 189.167,211.5 184.5,211.5C 184.5,206.833 184.5,202.167 184.5,197.5 Z"/></g>
<g><path style="opacity:1" fill="#000505" d="M 255.5,198.5 C 255.5,207.5 255.5,216.5 255.5,225.5C 250.833,225.5 246.167,225.5 241.5,225.5C 241.5,216.5 241.5,207.5 241.5,198.5C 246.167,198.5 250.833,198.5 255.5,198.5 Z"/></g>
<g><path style="opacity:1" fill="#523016" d="M 56.5,212.5 C 56.5,212.167 56.5,211.833 56.5,211.5C 61.1667,211.5 65.8333,211.5 70.5,211.5C 75.5,211.5 80.5,211.5 85.5,211.5C 85.5,216.167 85.5,220.833 85.5,225.5C 85.5,225.833 85.5,226.167 85.5,226.5C 85.1667,226.5 84.8333,226.5 84.5,226.5C 84.5,221.833 84.5,217.167 84.5,212.5C 75.1667,212.5 65.8333,212.5 56.5,212.5 Z"/></g>
<g><path style="opacity:1" fill="#fa3911" d="M 495.5,211.5 C 495.833,211.5 496.167,211.5 496.5,211.5C 501.167,211.5 505.833,211.5 510.5,211.5C 510.5,216.5 510.5,221.5 510.5,226.5C 505.5,226.5 500.5,226.5 495.5,226.5C 495.5,221.5 495.5,216.5 495.5,211.5 Z"/></g>
<g><path style="opacity:1" fill="#000505" d="M 56.5,212.5 C 65.8333,212.5 75.1667,212.5 84.5,212.5C 84.5,217.167 84.5,221.833 84.5,226.5C 75.1667,226.5 65.8333,226.5 56.5,226.5C 56.5,221.833 56.5,217.167 56.5,212.5 Z"/></g>
<g><path style="opacity:1" fill="#8c4612" d="M 170.5,211.5 C 170.5,211.833 170.5,212.167 170.5,212.5C 169.515,216.634 169.182,220.968 169.5,225.5C 160.167,225.5 150.833,225.5 141.5,225.5C 141.5,220.833 141.5,216.167 141.5,211.5C 151.167,211.5 160.833,211.5 170.5,211.5 Z"/></g>
<g><path style="opacity:1" fill="#f7f2ef" d="M 184.5,211.5 C 189.167,211.5 193.833,211.5 198.5,211.5C 198.5,216.5 198.5,221.5 198.5,226.5C 193.833,226.5 189.167,226.5 184.5,226.5C 184.5,221.5 184.5,216.5 184.5,211.5 Z"/></g>
<g><path style="opacity:1" fill="#894311" d="M 339.5,211.5 C 339.5,216.167 339.5,220.833 339.5,225.5C 320.5,225.5 301.5,225.5 282.5,225.5C 282.5,220.833 282.5,216.167 282.5,211.5C 301.5,211.5 320.5,211.5 339.5,211.5 Z"/></g>
<g><path style="opacity:1" fill="#040706" d="M 368.5,211.5 C 368.5,220.833 368.5,230.167 368.5,239.5C 373.167,239.5 377.833,239.5 382.5,239.5C 382.5,244.5 382.5,249.5 382.5,254.5C 377.833,254.5 373.167,254.5 368.5,254.5C 368.5,249.833 368.5,245.167 368.5,240.5C 363.833,240.5 359.167,240.5 354.5,240.5C 354.5,230.833 354.5,221.167 354.5,211.5C 359.167,211.5 363.833,211.5 368.5,211.5 Z"/></g>
<g><path style="opacity:1" fill="#fac010" d="M 453.5,211.5 C 458.167,211.5 462.833,211.5 467.5,211.5C 467.5,216.167 467.5,220.833 467.5,225.5C 472.363,225.181 477.03,225.514 481.5,226.5C 476.833,226.5 472.167,226.5 467.5,226.5C 467.5,231.167 467.5,235.833 467.5,240.5C 462.637,240.819 457.97,240.486 453.5,239.5C 457.833,239.5 462.167,239.5 466.5,239.5C 466.5,235.167 466.5,230.833 466.5,226.5C 462.167,226.5 457.833,226.5 453.5,226.5C 453.5,221.5 453.5,216.5 453.5,211.5 Z"/></g>
<g><path style="opacity:1" fill="#ad4615" d="M 85.5,226.5 C 85.5,226.167 85.5,225.833 85.5,225.5C 104.167,225.5 122.833,225.5 141.5,225.5C 150.833,225.5 160.167,225.5 169.5,225.5C 169.5,225.833 169.5,226.167 169.5,226.5C 160.5,226.5 151.5,226.5 142.5,226.5C 142.5,231.167 142.5,235.833 142.5,240.5C 142.167,240.5 141.833,240.5 141.5,240.5C 141.5,235.833 141.5,231.167 141.5,226.5C 122.833,226.5 104.167,226.5 85.5,226.5 Z"/></g>
<g><path style="opacity:1" fill="#3f251a" d="M 170.5,211.5 C 175.167,211.5 179.833,211.5 184.5,211.5C 184.5,216.5 184.5,221.5 184.5,226.5C 179.833,226.5 175.167,226.5 170.5,226.5C 170.167,226.5 169.833,226.5 169.5,226.5C 169.5,226.167 169.5,225.833 169.5,225.5C 169.182,220.968 169.515,216.634 170.5,212.5C 170.5,212.167 170.5,211.833 170.5,211.5 Z"/></g>
<g><path style="opacity:1" fill="#000605" d="M 170.5,212.5 C 174.833,212.5 179.167,212.5 183.5,212.5C 183.5,216.833 183.5,221.167 183.5,225.5C 179.167,225.5 174.833,225.5 170.5,225.5C 170.5,221.167 170.5,216.833 170.5,212.5 Z"/></g>
<g><path style="opacity:1" fill="#884411" d="M 255.5,225.5 C 264.5,225.5 273.5,225.5 282.5,225.5C 282.5,230.167 282.5,234.833 282.5,239.5C 268.833,239.5 255.167,239.5 241.5,239.5C 241.5,235.167 241.5,230.833 241.5,226.5C 246.363,226.819 251.03,226.486 255.5,225.5 Z"/></g>
<g><path style="opacity:1" fill="#050706" d="M 84.5,226.5 C 84.8333,226.5 85.1667,226.5 85.5,226.5C 104.167,226.5 122.833,226.5 141.5,226.5C 141.5,231.167 141.5,235.833 141.5,240.5C 136.833,240.5 132.167,240.5 127.5,240.5C 118.167,240.5 108.833,240.5 99.5,240.5C 99.5,245.167 99.5,249.833 99.5,254.5C 94.8333,254.5 90.1667,254.5 85.5,254.5C 85.8205,249.305 85.4872,244.305 84.5,239.5C 84.5,235.167 84.5,230.833 84.5,226.5 Z"/></g>
<g><path style="opacity:1" fill="#f83212" d="M 169.5,226.5 C 169.5,231.167 169.5,235.833 169.5,240.5C 160.5,240.5 151.5,240.5 142.5,240.5C 142.5,235.833 142.5,231.167 142.5,226.5C 151.5,226.5 160.5,226.5 169.5,226.5 Z"/></g>
<g><path style="opacity:1" fill="#8b4412" d="M 170.5,226.5 C 175.167,226.5 179.833,226.5 184.5,226.5C 184.5,231.167 184.5,235.833 184.5,240.5C 179.833,240.5 175.167,240.5 170.5,240.5C 170.5,235.833 170.5,231.167 170.5,226.5 Z"/></g>
<g><path style="opacity:1" fill="#f99531" d="M 339.5,226.5 C 340.486,230.97 340.819,235.637 340.5,240.5C 335.5,240.5 330.5,240.5 325.5,240.5C 325.5,245.167 325.5,249.833 325.5,254.5C 311.5,254.5 297.5,254.5 283.5,254.5C 283.5,259.167 283.5,263.833 283.5,268.5C 273.833,268.5 264.167,268.5 254.5,268.5C 254.5,263.833 254.5,259.167 254.5,254.5C 249.833,254.5 245.167,254.5 240.5,254.5C 240.5,249.833 240.5,245.167 240.5,240.5C 254.833,240.5 269.167,240.5 283.5,240.5C 283.5,235.833 283.5,231.167 283.5,226.5C 302.167,226.5 320.833,226.5 339.5,226.5 Z"/></g>
<g><path style="opacity:1" fill="#f9da05" d="M 453.5,226.5 C 457.833,226.5 462.167,226.5 466.5,226.5C 466.5,230.833 466.5,235.167 466.5,239.5C 462.167,239.5 457.833,239.5 453.5,239.5C 453.5,235.167 453.5,230.833 453.5,226.5 Z"/></g>
<g><path style="opacity:1" fill="#fac111" d="M 495.5,226.5 C 500.5,226.5 505.5,226.5 510.5,226.5C 510.5,230.833 510.5,235.167 510.5,239.5C 510.5,240.167 510.167,240.5 509.5,240.5C 504.833,240.5 500.167,240.5 495.5,240.5C 495.5,235.833 495.5,231.167 495.5,226.5 Z"/></g>
<g><path style="opacity:1" fill="#aa5817" d="M 282.5,225.5 C 301.5,225.5 320.5,225.5 339.5,225.5C 339.5,225.833 339.5,226.167 339.5,226.5C 320.833,226.5 302.167,226.5 283.5,226.5C 283.5,231.167 283.5,235.833 283.5,240.5C 269.167,240.5 254.833,240.5 240.5,240.5C 240.5,235.833 240.5,231.167 240.5,226.5C 240.833,226.5 241.167,226.5 241.5,226.5C 241.5,230.833 241.5,235.167 241.5,239.5C 255.167,239.5 268.833,239.5 282.5,239.5C 282.5,234.833 282.5,230.167 282.5,225.5 Z"/></g>
<g><path style="opacity:1" fill="#884311" d="M 84.5,239.5 C 85.4872,244.305 85.8205,249.305 85.5,254.5C 71.1667,254.5 56.8333,254.5 42.5,254.5C 42.5,249.833 42.5,245.167 42.5,240.5C 37.8333,240.5 33.1667,240.5 28.5,240.5C 23.5,240.5 18.5,240.5 13.5,240.5C 13.5,235.5 13.5,230.5 13.5,225.5C 23.5,225.5 33.5,225.5 43.5,225.5C 43.5,230.167 43.5,234.833 43.5,239.5C 57.1667,239.5 70.8333,239.5 84.5,239.5 Z"/></g>
<g><path style="opacity:1" fill="#d25019" d="M 127.5,240.5 C 127.5,245.167 127.5,249.833 127.5,254.5C 118.167,254.5 108.833,254.5 99.5,254.5C 99.5,249.833 99.5,245.167 99.5,240.5C 108.833,240.5 118.167,240.5 127.5,240.5 Z"/></g>
<g><path style="opacity:1" fill="#8a4412" d="M 127.5,240.5 C 132.167,240.5 136.833,240.5 141.5,240.5C 141.833,240.5 142.167,240.5 142.5,240.5C 151.5,240.5 160.5,240.5 169.5,240.5C 169.5,245.167 169.5,249.833 169.5,254.5C 164.833,254.5 160.167,254.5 155.5,254.5C 146.167,254.5 136.833,254.5 127.5,254.5C 127.5,249.833 127.5,245.167 127.5,240.5 Z"/></g>
<g><path style="opacity:1" fill="#020605" d="M 198.5,254.5 C 198.5,249.833 198.5,245.167 198.5,240.5C 203.167,240.5 207.833,240.5 212.5,240.5C 212.5,245.167 212.5,249.833 212.5,254.5C 207.833,254.5 203.167,254.5 198.5,254.5 Z"/></g>
<g><path style="opacity:1" fill="#f99431" d="M 42.5,254.5 C 56.8333,254.5 71.1667,254.5 85.5,254.5C 85.5,263.833 85.5,273.167 85.5,282.5C 75.8333,282.5 66.1667,282.5 56.5,282.5C 56.5,277.833 56.5,273.167 56.5,268.5C 51.8333,268.5 47.1667,268.5 42.5,268.5C 42.5,263.833 42.5,259.167 42.5,254.5 Z"/></g>
<g><path style="opacity:1" fill="#000605" d="M 99.5,254.5 C 108.833,254.5 118.167,254.5 127.5,254.5C 127.5,259.167 127.5,263.833 127.5,268.5C 118.167,268.5 108.833,268.5 99.5,268.5C 99.5,263.833 99.5,259.167 99.5,254.5 Z"/></g>
<g><path style="opacity:1" fill="#f89531" d="M 127.5,254.5 C 136.833,254.5 146.167,254.5 155.5,254.5C 155.5,259.167 155.5,263.833 155.5,268.5C 146.167,268.5 136.833,268.5 127.5,268.5C 127.5,263.833 127.5,259.167 127.5,254.5 Z"/></g>
<g><path style="opacity:1" fill="#d45219" d="M 155.5,254.5 C 160.167,254.5 164.833,254.5 169.5,254.5C 169.5,259.167 169.5,263.833 169.5,268.5C 164.833,268.5 160.167,268.5 155.5,268.5C 155.5,263.833 155.5,259.167 155.5,254.5 Z"/></g>
<g><path style="opacity:1" fill="#010605" d="M 170.5,254.5 C 179.833,254.5 189.167,254.5 198.5,254.5C 198.5,259.167 198.5,263.833 198.5,268.5C 189.167,268.5 179.833,268.5 170.5,268.5C 170.5,263.833 170.5,259.167 170.5,254.5 Z"/></g>
<g><path style="opacity:1" fill="#fabf10" d="M 481.5,282.5 C 476.695,283.487 471.695,283.821 466.5,283.5C 466.5,278.5 466.5,273.5 466.5,268.5C 462.167,268.5 457.833,268.5 453.5,268.5C 453.5,263.833 453.5,259.167 453.5,254.5C 458.167,254.5 462.833,254.5 467.5,254.5C 467.5,263.833 467.5,273.167 467.5,282.5C 472.167,282.5 476.833,282.5 481.5,282.5 Z"/></g>
<g><path style="opacity:1" fill="#f9c111" d="M 510.5,254.5 C 514.833,254.5 519.167,254.5 523.5,254.5C 523.5,259.167 523.5,263.833 523.5,268.5C 519.167,268.5 514.833,268.5 510.5,268.5C 510.5,263.833 510.5,259.167 510.5,254.5 Z"/></g>
<g><path style="opacity:1" fill="#f93611" d="M 510.5,239.5 C 515.167,239.5 519.833,239.5 524.5,239.5C 524.5,244.167 524.5,248.833 524.5,253.5C 529.263,253.226 533.93,253.559 538.5,254.5C 538.5,278.167 538.5,301.833 538.5,325.5C 533.833,325.5 529.167,325.5 524.5,325.5C 524.5,330.167 524.5,334.833 524.5,339.5C 519.833,339.5 515.167,339.5 510.5,339.5C 510.5,344.167 510.5,348.833 510.5,353.5C 505.833,353.5 501.167,353.5 496.5,353.5C 496.167,353.5 495.833,353.5 495.5,353.5C 495.5,344.167 495.5,334.833 495.5,325.5C 500.167,325.5 504.833,325.5 509.5,325.5C 509.5,320.833 509.5,316.167 509.5,311.5C 509.5,310.833 509.833,310.5 510.5,310.5C 514.833,310.5 519.167,310.5 523.5,310.5C 523.5,306.167 523.5,301.833 523.5,297.5C 523.5,287.833 523.5,278.167 523.5,268.5C 523.5,263.833 523.5,259.167 523.5,254.5C 519.167,254.5 514.833,254.5 510.5,254.5C 509.514,250.03 509.181,245.363 509.5,240.5C 510.167,240.5 510.5,240.167 510.5,239.5 Z"/></g>
<g><path style="opacity:1" fill="#030706" d="M 127.5,268.5 C 136.833,268.5 146.167,268.5 155.5,268.5C 160.167,268.5 164.833,268.5 169.5,268.5C 169.5,273.167 169.5,277.833 169.5,282.5C 155.5,282.5 141.5,282.5 127.5,282.5C 127.5,277.833 127.5,273.167 127.5,268.5 Z"/></g>
<g><path style="opacity:1" fill="#050606" d="M 368.5,254.5 C 368.5,259.5 368.5,264.5 368.5,269.5C 359.167,269.5 349.833,269.5 340.5,269.5C 340.5,274.167 340.5,278.833 340.5,283.5C 335.833,283.5 331.167,283.5 326.5,283.5C 326.5,288.167 326.5,292.833 326.5,297.5C 316.833,297.5 307.167,297.5 297.5,297.5C 297.5,297.167 297.5,296.833 297.5,296.5C 297.5,291.833 297.5,287.167 297.5,282.5C 306.833,282.5 316.167,282.5 325.5,282.5C 325.5,277.833 325.5,273.167 325.5,268.5C 330.167,268.5 334.833,268.5 339.5,268.5C 339.5,263.833 339.5,259.167 339.5,254.5C 349.167,254.5 358.833,254.5 368.5,254.5 Z"/></g>
<g><path style="opacity:1" fill="#923812" d="M 169.5,254.5 C 169.833,254.5 170.167,254.5 170.5,254.5C 170.5,259.167 170.5,263.833 170.5,268.5C 170.5,273.5 170.5,278.5 170.5,283.5C 155.99,283.829 141.657,283.496 127.5,282.5C 141.5,282.5 155.5,282.5 169.5,282.5C 169.5,277.833 169.5,273.167 169.5,268.5C 169.5,263.833 169.5,259.167 169.5,254.5 Z"/></g>
<g><path style="opacity:1" fill="#fa7d10" d="M 439.5,268.5 C 439.5,273.167 439.5,277.833 439.5,282.5C 439.5,291.833 439.5,301.167 439.5,310.5C 444.363,310.181 449.03,310.514 453.5,311.5C 448.5,311.5 443.5,311.5 438.5,311.5C 438.171,296.99 438.504,282.657 439.5,268.5 Z"/></g>
<g><path style="opacity:1" fill="#010606" d="M 13.5,240.5 C 18.5,240.5 23.5,240.5 28.5,240.5C 28.5,249.833 28.5,259.167 28.5,268.5C 23.8333,268.5 19.1667,268.5 14.5,268.5C 14.5,273.167 14.5,277.833 14.5,282.5C 23.8333,282.5 33.1667,282.5 42.5,282.5C 42.5,287.167 42.5,291.833 42.5,296.5C 42.5,296.833 42.5,297.167 42.5,297.5C 32.8333,297.5 23.1667,297.5 13.5,297.5C 13.5,292.833 13.5,288.167 13.5,283.5C 8.83333,283.5 4.16667,283.5 -0.5,283.5C -0.5,278.5 -0.5,273.5 -0.5,268.5C 4.16667,268.5 8.83333,268.5 13.5,268.5C 13.5,259.167 13.5,249.833 13.5,240.5 Z"/></g>
<g><path style="opacity:1" fill="#fac011" d="M 439.5,282.5 C 444.167,282.5 448.833,282.5 453.5,282.5C 453.5,287.167 453.5,291.833 453.5,296.5C 462.833,296.5 472.167,296.5 481.5,296.5C 481.5,301.167 481.5,305.833 481.5,310.5C 476.833,310.5 472.167,310.5 467.5,310.5C 467.5,315.5 467.5,320.5 467.5,325.5C 462.833,325.5 458.167,325.5 453.5,325.5C 453.5,320.833 453.5,316.167 453.5,311.5C 449.03,310.514 444.363,310.181 439.5,310.5C 439.5,301.167 439.5,291.833 439.5,282.5 Z"/></g>
<g><path style="opacity:1" fill="#000505" d="M 42.5,297.5 C 51.8333,297.5 61.1667,297.5 70.5,297.5C 70.5,302.167 70.5,306.833 70.5,311.5C 61.1667,311.5 51.8333,311.5 42.5,311.5C 42.5,306.833 42.5,302.167 42.5,297.5 Z"/></g>
<g><path style="opacity:1" fill="#8b4412" d="M 141.5,310.5 C 141.5,310.833 141.5,311.167 141.5,311.5C 141.5,316.167 141.5,320.833 141.5,325.5C 136.833,325.5 132.167,325.5 127.5,325.5C 127.5,315.833 127.5,306.167 127.5,296.5C 132.167,296.5 136.833,296.5 141.5,296.5C 141.5,301.167 141.5,305.833 141.5,310.5 Z"/></g>
<g><path style="opacity:1" fill="#d99d54" d="M 198.5,297.5 C 184.5,297.5 170.5,297.5 156.5,297.5C 156.5,302.167 156.5,306.833 156.5,311.5C 151.5,311.5 146.5,311.5 141.5,311.5C 141.5,311.167 141.5,310.833 141.5,310.5C 146.167,310.5 150.833,310.5 155.5,310.5C 155.5,305.833 155.5,301.167 155.5,296.5C 170.01,296.171 184.343,296.504 198.5,297.5 Z"/></g>
<g><path style="opacity:1" fill="#dacd7c" d="M 198.5,297.5 C 198.5,302.167 198.5,306.833 198.5,311.5C 203.167,311.5 207.833,311.5 212.5,311.5C 212.5,316.167 212.5,320.833 212.5,325.5C 189.167,325.5 165.833,325.5 142.5,325.5C 142.819,330.363 142.486,335.03 141.5,339.5C 141.5,334.833 141.5,330.167 141.5,325.5C 141.5,320.833 141.5,316.167 141.5,311.5C 146.5,311.5 151.5,311.5 156.5,311.5C 156.5,306.833 156.5,302.167 156.5,297.5C 170.5,297.5 184.5,297.5 198.5,297.5 Z"/></g>
<g><path style="opacity:1" fill="#894412" d="M 297.5,296.5 C 297.5,296.833 297.5,297.167 297.5,297.5C 292.833,297.5 288.167,297.5 283.5,297.5C 283.5,302.167 283.5,306.833 283.5,311.5C 278.833,311.5 274.167,311.5 269.5,311.5C 269.5,320.833 269.5,330.167 269.5,339.5C 268.506,330.348 268.173,321.015 268.5,311.5C 263.968,311.818 259.634,311.485 255.5,310.5C 255.5,305.833 255.5,301.167 255.5,296.5C 269.5,296.5 283.5,296.5 297.5,296.5 Z"/></g>
<g><path style="opacity:1" fill="#000505" d="M 297.5,297.5 C 297.5,302.167 297.5,306.833 297.5,311.5C 292.833,311.5 288.167,311.5 283.5,311.5C 283.5,306.833 283.5,302.167 283.5,297.5C 288.167,297.5 292.833,297.5 297.5,297.5 Z"/></g>
<g><path style="opacity:1" fill="#f9c111" d="M 523.5,297.5 C 523.5,301.833 523.5,306.167 523.5,310.5C 519.167,310.5 514.833,310.5 510.5,310.5C 510.5,306.167 510.5,301.833 510.5,297.5C 514.833,297.5 519.167,297.5 523.5,297.5 Z"/></g>
<g><path style="opacity:1" fill="#672810" d="M 42.5,297.5 C 42.5,297.167 42.5,296.833 42.5,296.5C 52.1667,296.5 61.8333,296.5 71.5,296.5C 71.5,301.167 71.5,305.833 71.5,310.5C 81.015,310.173 90.3483,310.506 99.5,311.5C 89.8333,311.5 80.1667,311.5 70.5,311.5C 70.5,306.833 70.5,302.167 70.5,297.5C 61.1667,297.5 51.8333,297.5 42.5,297.5 Z"/></g>
<g><path style="opacity:1" fill="#f99531" d="M 255.5,310.5 C 259.634,311.485 263.968,311.818 268.5,311.5C 268.173,321.015 268.506,330.348 269.5,339.5C 269.5,344.167 269.5,348.833 269.5,353.5C 274.167,353.5 278.833,353.5 283.5,353.5C 283.5,358.167 283.5,362.833 283.5,367.5C 288.167,367.5 292.833,367.5 297.5,367.5C 297.5,381.833 297.5,396.167 297.5,410.5C 302.167,410.5 306.833,410.5 311.5,410.5C 311.5,415.167 311.5,419.833 311.5,424.5C 311.5,429.167 311.5,433.833 311.5,438.5C 316.167,438.5 320.833,438.5 325.5,438.5C 325.5,443.167 325.5,447.833 325.5,452.5C 325.5,457.167 325.5,461.833 325.5,466.5C 320.833,466.5 316.167,466.5 311.5,466.5C 311.5,471.5 311.5,476.5 311.5,481.5C 306.833,481.5 302.167,481.5 297.5,481.5C 297.5,486.167 297.5,490.833 297.5,495.5C 283.167,495.5 268.833,495.5 254.5,495.5C 254.5,490.833 254.5,486.167 254.5,481.5C 249.833,481.5 245.167,481.5 240.5,481.5C 240.5,467.167 240.5,452.833 240.5,438.5C 240.5,419.833 240.5,401.167 240.5,382.5C 235.833,382.5 231.167,382.5 226.5,382.5C 226.5,363.5 226.5,344.5 226.5,325.5C 231.167,325.5 235.833,325.5 240.5,325.5C 240.197,320.57 240.531,315.737 241.5,311C 246.155,310.501 250.821,310.334 255.5,310.5 Z"/></g>
<g><path style="opacity:1" fill="#000606" d="M 283.5,311.5 C 283.5,320.5 283.5,329.5 283.5,338.5C 288.167,338.5 292.833,338.5 297.5,338.5C 297.5,348.167 297.5,357.833 297.5,367.5C 292.833,367.5 288.167,367.5 283.5,367.5C 283.5,362.833 283.5,358.167 283.5,353.5C 278.833,353.5 274.167,353.5 269.5,353.5C 269.5,348.833 269.5,344.167 269.5,339.5C 269.5,330.167 269.5,320.833 269.5,311.5C 274.167,311.5 278.833,311.5 283.5,311.5 Z"/></g>
<g><path style="opacity:1" fill="#f93411" d="M 481.5,310.5 C 481.5,310.833 481.5,311.167 481.5,311.5C 481.5,316.167 481.5,320.833 481.5,325.5C 481.5,330.167 481.5,334.833 481.5,339.5C 476.5,339.5 471.5,339.5 466.5,339.5C 461.833,339.5 457.167,339.5 452.5,339.5C 452.5,334.833 452.5,330.167 452.5,325.5C 447.833,325.5 443.167,325.5 438.5,325.5C 438.5,320.833 438.5,316.167 438.5,311.5C 443.5,311.5 448.5,311.5 453.5,311.5C 453.5,316.167 453.5,320.833 453.5,325.5C 458.167,325.5 462.833,325.5 467.5,325.5C 467.5,320.5 467.5,315.5 467.5,310.5C 472.167,310.5 476.833,310.5 481.5,310.5 Z"/></g>
<g><path style="opacity:1" fill="#f9be11" d="M 481.5,311.5 C 490.833,311.5 500.167,311.5 509.5,311.5C 509.5,316.167 509.5,320.833 509.5,325.5C 504.833,325.5 500.167,325.5 495.5,325.5C 490.833,325.5 486.167,325.5 481.5,325.5C 481.5,320.833 481.5,316.167 481.5,311.5 Z"/></g>
<g><path style="opacity:1" fill="#040706" d="M 70.5,311.5 C 80.1667,311.5 89.8333,311.5 99.5,311.5C 99.5,316.167 99.5,320.833 99.5,325.5C 104.167,325.5 108.833,325.5 113.5,325.5C 113.819,330.363 113.486,335.03 112.5,339.5C 107.833,339.5 103.167,339.5 98.5,339.5C 98.5,334.833 98.5,330.167 98.5,325.5C 89.1667,325.5 79.8333,325.5 70.5,325.5C 70.5,320.833 70.5,316.167 70.5,311.5 Z"/></g>
<g><path style="opacity:1" fill="#d35219" d="M 127.5,325.5 C 132.167,325.5 136.833,325.5 141.5,325.5C 141.5,330.167 141.5,334.833 141.5,339.5C 136.833,339.5 132.167,339.5 127.5,339.5C 127.5,334.833 127.5,330.167 127.5,325.5 Z"/></g>
<g><path style="opacity:1" fill="#f8e588" d="M 212.5,325.5 C 217.167,325.5 221.833,325.5 226.5,325.5C 226.5,344.5 226.5,363.5 226.5,382.5C 231.167,382.5 235.833,382.5 240.5,382.5C 240.5,401.167 240.5,419.833 240.5,438.5C 235.833,438.5 231.167,438.5 226.5,438.5C 217.167,438.5 207.833,438.5 198.5,438.5C 198.5,443.167 198.5,447.833 198.5,452.5C 179.5,452.5 160.5,452.5 141.5,452.5C 141.5,447.833 141.5,443.167 141.5,438.5C 136.833,438.5 132.167,438.5 127.5,438.5C 122.833,438.5 118.167,438.5 113.5,438.5C 113.5,433.833 113.5,429.167 113.5,424.5C 113.5,415.167 113.5,405.833 113.5,396.5C 118.167,396.5 122.833,396.5 127.5,396.5C 128.178,382.177 128.511,367.843 128.5,353.5C 132.833,353.5 137.167,353.5 141.5,353.5C 141.5,348.833 141.5,344.167 141.5,339.5C 142.486,335.03 142.819,330.363 142.5,325.5C 165.833,325.5 189.167,325.5 212.5,325.5 Z"/></g>
<g><path style="opacity:1" fill="#d25019" d="M 269.5,339.5 C 274.167,339.5 278.833,339.5 283.5,339.5C 283.5,344.167 283.5,348.833 283.5,353.5C 283.5,348.833 283.5,344.167 283.5,339.5C 278.833,339.5 274.167,339.5 269.5,339.5 Z"/></g>
<g><path style="opacity:1" fill="#f9d46f" d="M 495.5,353.5 C 495.5,358.167 495.5,362.833 495.5,367.5C 490.833,367.5 486.167,367.5 481.5,367.5C 481.5,362.833 481.5,358.167 481.5,353.5C 486.167,353.5 490.833,353.5 495.5,353.5 Z"/></g>
<g><path style="opacity:1" fill="#000505" d="M 496.5,353.5 C 501.167,353.5 505.833,353.5 510.5,353.5C 510.5,372.5 510.5,391.5 510.5,410.5C 505.833,410.5 501.167,410.5 496.5,410.5C 496.5,391.5 496.5,372.5 496.5,353.5 Z"/></g>
<g><path style="opacity:1" fill="#f99531" d="M 481.5,367.5 C 486.167,367.5 490.833,367.5 495.5,367.5C 495.5,377.167 495.5,386.833 495.5,396.5C 490.833,396.5 486.167,396.5 481.5,396.5C 481.5,401.167 481.5,405.833 481.5,410.5C 476.833,410.5 472.167,410.5 467.5,410.5C 467.5,415.167 467.5,419.833 467.5,424.5C 462.833,424.5 458.167,424.5 453.5,424.5C 453.5,429.167 453.5,433.833 453.5,438.5C 448.833,438.5 444.167,438.5 439.5,438.5C 439.819,443.363 439.486,448.03 438.5,452.5C 438.5,447.833 438.5,443.167 438.5,438.5C 433.833,438.5 429.167,438.5 424.5,438.5C 424.5,443.167 424.5,447.833 424.5,452.5C 415.167,452.5 405.833,452.5 396.5,452.5C 396.5,447.833 396.5,443.167 396.5,438.5C 391.833,438.5 387.167,438.5 382.5,438.5C 382.5,433.833 382.5,429.167 382.5,424.5C 396.5,424.5 410.5,424.5 424.5,424.5C 424.5,419.833 424.5,415.167 424.5,410.5C 434.167,410.5 443.833,410.5 453.5,410.5C 453.5,405.833 453.5,401.167 453.5,396.5C 458.167,396.5 462.833,396.5 467.5,396.5C 467.5,391.5 467.5,386.5 467.5,381.5C 472.167,381.5 476.833,381.5 481.5,381.5C 481.5,376.833 481.5,372.167 481.5,367.5 Z"/></g>
<g><path style="opacity:1" fill="#894412" d="M 113.5,325.5 C 118.167,325.5 122.833,325.5 127.5,325.5C 127.5,330.167 127.5,334.833 127.5,339.5C 127.5,353.5 127.5,367.5 127.5,381.5C 122.833,381.5 118.167,381.5 113.5,381.5C 113.5,386.5 113.5,391.5 113.5,396.5C 113.5,405.833 113.5,415.167 113.5,424.5C 108.833,424.5 104.167,424.5 99.5,424.5C 94.8333,424.5 90.1667,424.5 85.5,424.5C 85.5,433.833 85.5,443.167 85.5,452.5C 80.8333,452.5 76.1667,452.5 71.5,452.5C 71.5,466.5 71.5,480.5 71.5,494.5C 76.1667,494.5 80.8333,494.5 85.5,494.5C 85.5,499.5 85.5,504.5 85.5,509.5C 85.1667,509.5 84.8333,509.5 84.5,509.5C 84.5,504.833 84.5,500.167 84.5,495.5C 79.8333,495.5 75.1667,495.5 70.5,495.5C 70.5,481.167 70.5,466.833 70.5,452.5C 70.5,442.833 70.5,433.167 70.5,423.5C 75.1667,423.5 79.8333,423.5 84.5,423.5C 84.5,418.833 84.5,414.167 84.5,409.5C 89.1667,409.5 93.8333,409.5 98.5,409.5C 98.5,400.167 98.5,390.833 98.5,381.5C 103.167,381.5 107.833,381.5 112.5,381.5C 112.5,367.5 112.5,353.5 112.5,339.5C 113.486,335.03 113.819,330.363 113.5,325.5 Z"/></g>
<g><path style="opacity:1" fill="#d9cc7b" d="M 127.5,339.5 C 132.167,339.5 136.833,339.5 141.5,339.5C 141.5,344.167 141.5,348.833 141.5,353.5C 137.167,353.5 132.833,353.5 128.5,353.5C 128.511,367.843 128.178,382.177 127.5,396.5C 122.833,396.5 118.167,396.5 113.5,396.5C 113.5,391.5 113.5,386.5 113.5,381.5C 118.167,381.5 122.833,381.5 127.5,381.5C 127.5,367.5 127.5,353.5 127.5,339.5 Z"/></g>
<g><path style="opacity:1" fill="#d04f18" d="M 495.5,396.5 C 495.5,401.167 495.5,405.833 495.5,410.5C 490.833,410.5 486.167,410.5 481.5,410.5C 481.5,405.833 481.5,401.167 481.5,396.5C 486.167,396.5 490.833,396.5 495.5,396.5 Z"/></g>
<g><path style="opacity:1" fill="#d35118" d="M 241.5,410.5 C 245.833,410.5 250.167,410.5 254.5,410.5C 254.5,419.833 254.5,429.167 254.5,438.5C 250.167,438.5 245.833,438.5 241.5,438.5C 241.5,429.167 241.5,419.833 241.5,410.5 Z"/></g>
<g><path style="opacity:1" fill="#894412" d="M 481.5,325.5 C 486.167,325.5 490.833,325.5 495.5,325.5C 495.5,334.833 495.5,344.167 495.5,353.5C 490.833,353.5 486.167,353.5 481.5,353.5C 481.5,358.167 481.5,362.833 481.5,367.5C 481.5,372.167 481.5,376.833 481.5,381.5C 476.833,381.5 472.167,381.5 467.5,381.5C 467.5,386.5 467.5,391.5 467.5,396.5C 462.833,396.5 458.167,396.5 453.5,396.5C 453.5,401.167 453.5,405.833 453.5,410.5C 443.833,410.5 434.167,410.5 424.5,410.5C 424.5,415.167 424.5,419.833 424.5,424.5C 410.5,424.5 396.5,424.5 382.5,424.5C 382.5,429.167 382.5,433.833 382.5,438.5C 368.5,438.5 354.5,438.5 340.5,438.5C 340.5,433.5 340.5,428.5 340.5,423.5C 354.167,423.5 367.833,423.5 381.5,423.5C 381.2,418.901 381.533,414.401 382.5,410C 396.496,409.5 410.496,409.333 424.5,409.5C 424.5,404.833 424.5,400.167 424.5,395.5C 433.833,395.5 443.167,395.5 452.5,395.5C 452.5,390.833 452.5,386.167 452.5,381.5C 457.167,381.5 461.833,381.5 466.5,381.5C 466.5,367.5 466.5,353.5 466.5,339.5C 471.5,339.5 476.5,339.5 481.5,339.5C 481.5,334.833 481.5,330.167 481.5,325.5 Z"/></g>
<g><path style="opacity:1" fill="#d45219" d="M 481.5,410.5 C 481.5,415.167 481.5,419.833 481.5,424.5C 476.833,424.5 472.167,424.5 467.5,424.5C 467.5,419.833 467.5,415.167 467.5,410.5C 472.167,410.5 476.833,410.5 481.5,410.5 Z"/></g>
<g><path style="opacity:1" fill="#0b0b08" d="M 495.5,353.5 C 495.833,353.5 496.167,353.5 496.5,353.5C 496.5,372.5 496.5,391.5 496.5,410.5C 496.5,419.833 496.5,429.167 496.5,438.5C 491.5,438.5 486.5,438.5 481.5,438.5C 481.5,433.833 481.5,429.167 481.5,424.5C 481.5,419.833 481.5,415.167 481.5,410.5C 486.167,410.5 490.833,410.5 495.5,410.5C 495.5,405.833 495.5,401.167 495.5,396.5C 495.5,386.833 495.5,377.167 495.5,367.5C 495.5,362.833 495.5,358.167 495.5,353.5 Z"/></g>
<g><path style="opacity:1" fill="#f99531" d="M 99.5,424.5 C 99.5,429.167 99.5,433.833 99.5,438.5C 104.167,438.5 108.833,438.5 113.5,438.5C 113.5,443.167 113.5,447.833 113.5,452.5C 113.5,457.167 113.5,461.833 113.5,466.5C 118.167,466.5 122.833,466.5 127.5,466.5C 127.5,471.5 127.5,476.5 127.5,481.5C 127.5,486.167 127.5,490.833 127.5,495.5C 122.833,495.5 118.167,495.5 113.5,495.5C 113.5,500.167 113.5,504.833 113.5,509.5C 108.833,509.5 104.167,509.5 99.5,509.5C 94.8333,509.5 90.1667,509.5 85.5,509.5C 85.5,504.5 85.5,499.5 85.5,494.5C 80.8333,494.5 76.1667,494.5 71.5,494.5C 71.5,480.5 71.5,466.5 71.5,452.5C 76.1667,452.5 80.8333,452.5 85.5,452.5C 85.5,443.167 85.5,433.833 85.5,424.5C 90.1667,424.5 94.8333,424.5 99.5,424.5 Z"/></g>
<g><path style="opacity:1" fill="#d45219" d="M 99.5,424.5 C 104.167,424.5 108.833,424.5 113.5,424.5C 113.5,429.167 113.5,433.833 113.5,438.5C 108.833,438.5 104.167,438.5 99.5,438.5C 99.5,433.833 99.5,429.167 99.5,424.5 Z"/></g>
<g><path style="opacity:1" fill="#d45119" d="M 311.5,424.5 C 316.167,424.5 320.833,424.5 325.5,424.5C 325.5,429.167 325.5,433.833 325.5,438.5C 325.5,433.833 325.5,429.167 325.5,424.5C 320.833,424.5 316.167,424.5 311.5,424.5 Z"/></g>
<g><path style="opacity:1" fill="#030706" d="M 297.5,367.5 C 302.5,367.5 307.5,367.5 312.5,367.5C 312.5,381.5 312.5,395.5 312.5,409.5C 317.167,409.5 321.833,409.5 326.5,409.5C 326.5,414.167 326.5,418.833 326.5,423.5C 330.833,423.5 335.167,423.5 339.5,423.5C 339.5,433.167 339.5,442.833 339.5,452.5C 334.833,452.5 330.167,452.5 325.5,452.5C 325.5,447.833 325.5,443.167 325.5,438.5C 325.5,433.833 325.5,429.167 325.5,424.5C 320.833,424.5 316.167,424.5 311.5,424.5C 311.5,419.833 311.5,415.167 311.5,410.5C 306.833,410.5 302.167,410.5 297.5,410.5C 297.5,396.167 297.5,381.833 297.5,367.5 Z"/></g>
<g><path style="opacity:1" fill="#d45219" d="M 467.5,424.5 C 467.5,429.167 467.5,433.833 467.5,438.5C 462.833,438.5 458.167,438.5 453.5,438.5C 453.5,433.833 453.5,429.167 453.5,424.5C 458.167,424.5 462.833,424.5 467.5,424.5 Z"/></g>
<g><path style="opacity:1" fill="#d9ce7c" d="M 467.5,424.5 C 472.167,424.5 476.833,424.5 481.5,424.5C 481.5,429.167 481.5,433.833 481.5,438.5C 476.833,438.5 472.167,438.5 467.5,438.5C 467.5,433.833 467.5,429.167 467.5,424.5 Z"/></g>
<g><path style="opacity:1" fill="#d35118" d="M 113.5,438.5 C 118.167,438.5 122.833,438.5 127.5,438.5C 127.5,443.167 127.5,447.833 127.5,452.5C 122.833,452.5 118.167,452.5 113.5,452.5C 113.5,447.833 113.5,443.167 113.5,438.5 Z"/></g>
<g><path style="opacity:1" fill="#d9cd7c" d="M 127.5,438.5 C 132.167,438.5 136.833,438.5 141.5,438.5C 141.5,443.167 141.5,447.833 141.5,452.5C 160.5,452.5 179.5,452.5 198.5,452.5C 198.5,447.833 198.5,443.167 198.5,438.5C 207.833,438.5 217.167,438.5 226.5,438.5C 226.5,452.833 226.5,467.167 226.5,481.5C 226.5,490.833 226.5,500.167 226.5,509.5C 212.5,509.5 198.5,509.5 184.5,509.5C 184.5,504.833 184.5,500.167 184.5,495.5C 174.833,495.5 165.167,495.5 155.5,495.5C 155.5,495.167 155.5,494.833 155.5,494.5C 155.5,490.167 155.5,485.833 155.5,481.5C 151.03,480.514 146.363,480.181 141.5,480.5C 141.5,476.167 141.5,471.833 141.5,467.5C 137.03,466.514 132.363,466.181 127.5,466.5C 127.5,461.833 127.5,457.167 127.5,452.5C 127.5,447.833 127.5,443.167 127.5,438.5 Z"/></g>
<g><path style="opacity:1" fill="#d35219" d="M 226.5,438.5 C 231.167,438.5 235.833,438.5 240.5,438.5C 240.5,452.833 240.5,467.167 240.5,481.5C 235.833,481.5 231.167,481.5 226.5,481.5C 226.5,467.167 226.5,452.833 226.5,438.5 Z"/></g>
<g><path style="opacity:1" fill="#5a2d14" d="M 339.5,423.5 C 339.833,423.5 340.167,423.5 340.5,423.5C 340.5,428.5 340.5,433.5 340.5,438.5C 340.5,443.167 340.5,447.833 340.5,452.5C 345.167,452.5 349.833,452.5 354.5,452.5C 354.5,462.167 354.5,471.833 354.5,481.5C 354.5,490.833 354.5,500.167 354.5,509.5C 354.167,509.5 353.833,509.5 353.5,509.5C 353.5,490.833 353.5,472.167 353.5,453.5C 349.167,453.5 344.833,453.5 340.5,453.5C 340.5,472.167 340.5,490.833 340.5,509.5C 340.5,514.167 340.5,518.833 340.5,523.5C 339.514,519.03 339.181,514.363 339.5,509.5C 339.5,490.5 339.5,471.5 339.5,452.5C 339.5,442.833 339.5,433.167 339.5,423.5 Z"/></g>
<g><path style="opacity:1" fill="#d4521a" d="M 340.5,438.5 C 354.5,438.5 368.5,438.5 382.5,438.5C 387.167,438.5 391.833,438.5 396.5,438.5C 396.5,443.167 396.5,447.833 396.5,452.5C 405.833,452.5 415.167,452.5 424.5,452.5C 424.5,457.167 424.5,461.833 424.5,466.5C 415.167,466.5 405.833,466.5 396.5,466.5C 396.5,471.5 396.5,476.5 396.5,481.5C 382.5,481.5 368.5,481.5 354.5,481.5C 354.5,471.833 354.5,462.167 354.5,452.5C 349.833,452.5 345.167,452.5 340.5,452.5C 340.5,447.833 340.5,443.167 340.5,438.5 Z"/></g>
<g><path style="opacity:1" fill="#d45219" d="M 438.5,452.5 C 433.833,452.5 429.167,452.5 424.5,452.5C 424.5,447.833 424.5,443.167 424.5,438.5C 429.167,438.5 433.833,438.5 438.5,438.5C 438.5,443.167 438.5,447.833 438.5,452.5 Z"/></g>
<g><path style="opacity:1" fill="#d9cc7b" d="M 453.5,438.5 C 458.167,438.5 462.833,438.5 467.5,438.5C 467.5,443.167 467.5,447.833 467.5,452.5C 462.833,452.5 458.167,452.5 453.5,452.5C 453.5,457.167 453.5,461.833 453.5,466.5C 448.5,466.5 443.5,466.5 438.5,466.5C 438.5,471.167 438.5,475.833 438.5,480.5C 429.167,480.5 419.833,480.5 410.5,480.5C 410.5,485.5 410.5,490.5 410.5,495.5C 401.167,495.5 391.833,495.5 382.5,495.5C 382.5,500.167 382.5,504.833 382.5,509.5C 373.167,509.5 363.833,509.5 354.5,509.5C 354.5,500.167 354.5,490.833 354.5,481.5C 368.5,481.5 382.5,481.5 396.5,481.5C 396.5,476.5 396.5,471.5 396.5,466.5C 405.833,466.5 415.167,466.5 424.5,466.5C 424.5,461.833 424.5,457.167 424.5,452.5C 429.167,452.5 433.833,452.5 438.5,452.5C 439.486,448.03 439.819,443.363 439.5,438.5C 444.167,438.5 448.833,438.5 453.5,438.5 Z"/></g>
<g><path style="opacity:1" fill="#030907" d="M 467.5,438.5 C 472.167,438.5 476.833,438.5 481.5,438.5C 481.5,443.5 481.5,448.5 481.5,453.5C 476.833,453.5 472.167,453.5 467.5,453.5C 467.5,458.167 467.5,462.833 467.5,467.5C 462.833,467.5 458.167,467.5 453.5,467.5C 453.5,467.167 453.5,466.833 453.5,466.5C 453.5,461.833 453.5,457.167 453.5,452.5C 458.167,452.5 462.833,452.5 467.5,452.5C 467.5,447.833 467.5,443.167 467.5,438.5 Z"/></g>
<g><path style="opacity:1" fill="#000605" d="M 70.5,452.5 C 70.5,466.833 70.5,481.167 70.5,495.5C 65.8333,495.5 61.1667,495.5 56.5,495.5C 56.5,481.167 56.5,466.833 56.5,452.5C 61.1667,452.5 65.8333,452.5 70.5,452.5 Z"/></g>
<g><path style="opacity:1" fill="#8a4412" d="M 113.5,452.5 C 118.167,452.5 122.833,452.5 127.5,452.5C 127.5,457.167 127.5,461.833 127.5,466.5C 122.833,466.5 118.167,466.5 113.5,466.5C 113.5,461.833 113.5,457.167 113.5,452.5 Z"/></g>
<g><path style="opacity:1" fill="#d35118" d="M 325.5,452.5 C 330.167,452.5 334.833,452.5 339.5,452.5C 339.5,471.5 339.5,490.5 339.5,509.5C 334.833,509.5 330.167,509.5 325.5,509.5C 325.5,523.5 325.5,537.5 325.5,551.5C 320.833,551.5 316.167,551.5 311.5,551.5C 311.5,546.833 311.5,542.167 311.5,537.5C 297.5,537.5 283.5,537.5 269.5,537.5C 269.5,532.833 269.5,528.167 269.5,523.5C 264.5,523.5 259.5,523.5 254.5,523.5C 254.5,518.833 254.5,514.167 254.5,509.5C 249.833,509.5 245.167,509.5 240.5,509.5C 240.5,500.167 240.5,490.833 240.5,481.5C 245.167,481.5 249.833,481.5 254.5,481.5C 254.5,486.167 254.5,490.833 254.5,495.5C 268.833,495.5 283.167,495.5 297.5,495.5C 297.5,490.833 297.5,486.167 297.5,481.5C 302.167,481.5 306.833,481.5 311.5,481.5C 311.5,476.5 311.5,471.5 311.5,466.5C 316.167,466.5 320.833,466.5 325.5,466.5C 325.5,461.833 325.5,457.167 325.5,452.5 Z"/></g>
<g><path style="opacity:1" fill="#000605" d="M 353.5,509.5 C 349.167,509.5 344.833,509.5 340.5,509.5C 340.5,490.833 340.5,472.167 340.5,453.5C 344.833,453.5 349.167,453.5 353.5,453.5C 353.5,472.167 353.5,490.833 353.5,509.5 Z"/></g>
<g><path style="opacity:1" fill="#44301a" d="M 127.5,466.5 C 132.363,466.181 137.03,466.514 141.5,467.5C 137.167,467.5 132.833,467.5 128.5,467.5C 128.5,471.833 128.5,476.167 128.5,480.5C 132.833,480.5 137.167,480.5 141.5,480.5C 146.363,480.181 151.03,480.514 155.5,481.5C 151.167,481.5 146.833,481.5 142.5,481.5C 142.5,485.833 142.5,490.167 142.5,494.5C 146.833,494.5 151.167,494.5 155.5,494.5C 155.5,494.833 155.5,495.167 155.5,495.5C 150.833,495.5 146.167,495.5 141.5,495.5C 141.5,490.833 141.5,486.167 141.5,481.5C 136.833,481.5 132.167,481.5 127.5,481.5C 127.5,476.5 127.5,471.5 127.5,466.5 Z"/></g>
<g><path style="opacity:1" fill="#000605" d="M 141.5,467.5 C 141.5,471.833 141.5,476.167 141.5,480.5C 137.167,480.5 132.833,480.5 128.5,480.5C 128.5,476.167 128.5,471.833 128.5,467.5C 132.833,467.5 137.167,467.5 141.5,467.5 Z"/></g>
<g><path style="opacity:1" fill="#000505" d="M 453.5,467.5 C 453.5,472.167 453.5,476.833 453.5,481.5C 448.833,481.5 444.167,481.5 439.5,481.5C 439.5,476.833 439.5,472.167 439.5,467.5C 444.167,467.5 448.833,467.5 453.5,467.5 Z"/></g>
<g><path style="opacity:1" fill="#635e38" d="M 453.5,466.5 C 453.5,466.833 453.5,467.167 453.5,467.5C 448.833,467.5 444.167,467.5 439.5,467.5C 439.5,472.167 439.5,476.833 439.5,481.5C 430.167,481.5 420.833,481.5 411.5,481.5C 411.5,486.167 411.5,490.833 411.5,495.5C 411.167,495.5 410.833,495.5 410.5,495.5C 410.5,490.5 410.5,485.5 410.5,480.5C 419.833,480.5 429.167,480.5 438.5,480.5C 438.5,475.833 438.5,471.167 438.5,466.5C 443.5,466.5 448.5,466.5 453.5,466.5 Z"/></g>
<g><path style="opacity:1" fill="#d35018" d="M 127.5,481.5 C 132.167,481.5 136.833,481.5 141.5,481.5C 141.5,486.167 141.5,490.833 141.5,495.5C 146.167,495.5 150.833,495.5 155.5,495.5C 155.5,500.167 155.5,504.833 155.5,509.5C 165.167,509.5 174.833,509.5 184.5,509.5C 184.5,514.167 184.5,518.833 184.5,523.5C 174.833,523.5 165.167,523.5 155.5,523.5C 155.5,532.833 155.5,542.167 155.5,551.5C 150.833,551.5 146.167,551.5 141.5,551.5C 141.5,556.167 141.5,560.833 141.5,565.5C 132.167,565.5 122.833,565.5 113.5,565.5C 113.5,560.833 113.5,556.167 113.5,551.5C 108.833,551.5 104.167,551.5 99.5,551.5C 94.8333,551.5 90.1667,551.5 85.5,551.5C 85.5,546.833 85.5,542.167 85.5,537.5C 90.1667,537.5 94.8333,537.5 99.5,537.5C 99.5,528.167 99.5,518.833 99.5,509.5C 104.167,509.5 108.833,509.5 113.5,509.5C 113.5,504.833 113.5,500.167 113.5,495.5C 118.167,495.5 122.833,495.5 127.5,495.5C 127.5,490.833 127.5,486.167 127.5,481.5 Z"/></g>
<g><path style="opacity:1" fill="#000605" d="M 155.5,481.5 C 155.5,485.833 155.5,490.167 155.5,494.5C 151.167,494.5 146.833,494.5 142.5,494.5C 142.5,490.167 142.5,485.833 142.5,481.5C 146.833,481.5 151.167,481.5 155.5,481.5 Z"/></g>
<g><path style="opacity:1" fill="#894412" d="M 226.5,481.5 C 231.167,481.5 235.833,481.5 240.5,481.5C 240.5,490.833 240.5,500.167 240.5,509.5C 235.833,509.5 231.167,509.5 226.5,509.5C 226.5,500.167 226.5,490.833 226.5,481.5 Z"/></g>
<g><path style="opacity:1" fill="#000505" d="M 439.5,481.5 C 439.5,486.167 439.5,490.833 439.5,495.5C 430.167,495.5 420.833,495.5 411.5,495.5C 411.5,490.833 411.5,486.167 411.5,481.5C 420.833,481.5 430.167,481.5 439.5,481.5 Z"/></g>
<g><path style="opacity:1" fill="#000505" d="M 70.5,495.5 C 75.1667,495.5 79.8333,495.5 84.5,495.5C 84.5,500.167 84.5,504.833 84.5,509.5C 79.8333,509.5 75.1667,509.5 70.5,509.5C 70.5,504.833 70.5,500.167 70.5,495.5 Z"/></g>
<g><path style="opacity:1" fill="#080907" d="M 155.5,495.5 C 165.167,495.5 174.833,495.5 184.5,495.5C 184.5,500.167 184.5,504.833 184.5,509.5C 174.833,509.5 165.167,509.5 155.5,509.5C 155.5,504.833 155.5,500.167 155.5,495.5 Z"/></g>
<g><path style="opacity:1" fill="#894312" d="M 410.5,495.5 C 410.833,495.5 411.167,495.5 411.5,495.5C 411.5,500.167 411.5,504.833 411.5,509.5C 401.833,509.5 392.167,509.5 382.5,509.5C 382.5,504.833 382.5,500.167 382.5,495.5C 391.833,495.5 401.167,495.5 410.5,495.5 Z"/></g>
<g><path style="opacity:1" fill="#070706" d="M 84.5,509.5 C 84.8333,509.5 85.1667,509.5 85.5,509.5C 90.1667,509.5 94.8333,509.5 99.5,509.5C 99.5,518.833 99.5,528.167 99.5,537.5C 94.8333,537.5 90.1667,537.5 85.5,537.5C 85.5,542.167 85.5,546.833 85.5,551.5C 80.5,551.5 75.5,551.5 70.5,551.5C 70.5,546.833 70.5,542.167 70.5,537.5C 75.1667,537.5 79.8333,537.5 84.5,537.5C 84.5,528.167 84.5,518.833 84.5,509.5 Z"/></g>
<g><path style="opacity:1" fill="#000605" d="M 184.5,509.5 C 198.5,509.5 212.5,509.5 226.5,509.5C 231.167,509.5 235.833,509.5 240.5,509.5C 240.5,514.167 240.5,518.833 240.5,523.5C 221.833,523.5 203.167,523.5 184.5,523.5C 184.5,518.833 184.5,514.167 184.5,509.5 Z"/></g>
<g><path style="opacity:1" fill="#854211" d="M 240.5,509.5 C 245.167,509.5 249.833,509.5 254.5,509.5C 254.5,514.167 254.5,518.833 254.5,523.5C 249.833,523.5 245.167,523.5 240.5,523.5C 240.5,518.833 240.5,514.167 240.5,509.5 Z"/></g>
<g><path style="opacity:1" fill="#060706" d="M 339.5,509.5 C 339.181,514.363 339.514,519.03 340.5,523.5C 340.5,532.833 340.5,542.167 340.5,551.5C 335.5,551.5 330.5,551.5 325.5,551.5C 325.5,537.5 325.5,523.5 325.5,509.5C 330.167,509.5 334.833,509.5 339.5,509.5 Z"/></g>
<g><path style="opacity:1" fill="#884411" d="M 340.5,509.5 C 344.833,509.5 349.167,509.5 353.5,509.5C 353.833,509.5 354.167,509.5 354.5,509.5C 363.833,509.5 373.167,509.5 382.5,509.5C 382.5,514.167 382.5,518.833 382.5,523.5C 368.5,523.5 354.5,523.5 340.5,523.5C 340.5,518.833 340.5,514.167 340.5,509.5 Z"/></g>
<g><path style="opacity:1" fill="#050706" d="M 184.5,523.5 C 184.5,528.5 184.5,533.5 184.5,538.5C 179.833,538.5 175.167,538.5 170.5,538.5C 170.5,543.167 170.5,547.833 170.5,552.5C 165.833,552.5 161.167,552.5 156.5,552.5C 156.5,557.167 156.5,561.833 156.5,566.5C 151.833,566.5 147.167,566.5 142.5,566.5C 142.5,561.833 142.5,557.167 142.5,552.5C 147.032,552.818 151.366,552.485 155.5,551.5C 155.5,542.167 155.5,532.833 155.5,523.5C 165.167,523.5 174.833,523.5 184.5,523.5 Z"/></g>
<g><path style="opacity:1" fill="#8a4312" d="M 254.5,523.5 C 259.5,523.5 264.5,523.5 269.5,523.5C 269.5,528.167 269.5,532.833 269.5,537.5C 269.5,542.167 269.5,546.833 269.5,551.5C 269.5,556.167 269.5,560.833 269.5,565.5C 274.167,565.5 278.833,565.5 283.5,565.5C 283.5,565.833 283.5,566.167 283.5,566.5C 278.5,566.5 273.5,566.5 268.5,566.5C 263.833,566.5 259.167,566.5 254.5,566.5C 254.5,552.167 254.5,537.833 254.5,523.5 Z"/></g>
<g><path style="opacity:1" fill="#f89431" d="M 269.5,537.5 C 283.5,537.5 297.5,537.5 311.5,537.5C 311.5,542.167 311.5,546.833 311.5,551.5C 316.167,551.5 320.833,551.5 325.5,551.5C 325.5,551.833 325.5,552.167 325.5,552.5C 325.5,556.833 325.5,561.167 325.5,565.5C 320.637,565.181 315.97,565.514 311.5,566.5C 306.833,566.5 302.167,566.5 297.5,566.5C 293.03,565.514 288.363,565.181 283.5,565.5C 278.833,565.5 274.167,565.5 269.5,565.5C 269.5,560.833 269.5,556.167 269.5,551.5C 269.5,546.833 269.5,542.167 269.5,537.5 Z"/></g>
<g><path style="opacity:1" fill="#9d9692" d="M 70.5,551.5 C 75.5,551.5 80.5,551.5 85.5,551.5C 85.5,556.5 85.5,561.5 85.5,566.5C 80.5,566.5 75.5,566.5 70.5,566.5C 70.5,561.5 70.5,556.5 70.5,551.5 Z"/></g>
<g><path style="opacity:1" fill="#000505" d="M 70.5,551.5 C 70.5,556.5 70.5,561.5 70.5,566.5C 65.8333,566.5 61.1667,566.5 56.5,566.5C 56.5,561.5 56.5,556.5 56.5,551.5C 61.1667,551.5 65.8333,551.5 70.5,551.5 Z"/></g>
<g><path style="opacity:1" fill="#f9faf9" d="M 71.5,552.5 C 75.8333,552.5 80.1667,552.5 84.5,552.5C 84.5,556.833 84.5,561.167 84.5,565.5C 80.1667,565.5 75.8333,565.5 71.5,565.5C 71.5,561.167 71.5,556.833 71.5,552.5 Z"/></g>
<g><path style="opacity:1" fill="#884515" d="M 85.5,551.5 C 90.1667,551.5 94.8333,551.5 99.5,551.5C 99.5,556.5 99.5,561.5 99.5,566.5C 94.8333,566.5 90.1667,566.5 85.5,566.5C 85.5,561.5 85.5,556.5 85.5,551.5 Z"/></g>
<g><path style="opacity:1" fill="#f3efee" d="M 99.5,551.5 C 104.167,551.5 108.833,551.5 113.5,551.5C 113.5,556.167 113.5,560.833 113.5,565.5C 113.5,565.833 113.5,566.167 113.5,566.5C 108.833,566.5 104.167,566.5 99.5,566.5C 99.5,561.5 99.5,556.5 99.5,551.5 Z"/></g>
<g><path style="opacity:1" fill="#d55319" d="M 269.5,551.5 C 274.167,551.5 278.833,551.5 283.5,551.5C 283.5,556.167 283.5,560.833 283.5,565.5C 283.5,560.833 283.5,556.167 283.5,551.5C 278.833,551.5 274.167,551.5 269.5,551.5 Z"/></g>
<g><path style="opacity:1" fill="#d25119" d="M 325.5,552.5 C 330.167,552.5 334.833,552.5 339.5,552.5C 339.5,556.833 339.5,561.167 339.5,565.5C 339.5,565.833 339.5,566.167 339.5,566.5C 334.833,566.5 330.167,566.5 325.5,566.5C 325.5,566.167 325.5,565.833 325.5,565.5C 325.5,561.167 325.5,556.833 325.5,552.5 Z"/></g>
<g><path style="opacity:1" fill="#712d11" d="M 325.5,552.5 C 325.5,552.167 325.5,551.833 325.5,551.5C 330.5,551.5 335.5,551.5 340.5,551.5C 340.5,556.167 340.5,560.833 340.5,565.5C 340.167,565.5 339.833,565.5 339.5,565.5C 339.5,561.167 339.5,556.833 339.5,552.5C 334.833,552.5 330.167,552.5 325.5,552.5 Z"/></g>
<g><path style="opacity:1" fill="#000505" d="M 340.5,551.5 C 345.167,551.5 349.833,551.5 354.5,551.5C 354.5,556.167 354.5,560.833 354.5,565.5C 349.833,565.5 345.167,565.5 340.5,565.5C 340.5,560.833 340.5,556.167 340.5,551.5 Z"/></g>
<g><path style="opacity:1" fill="#5b2510" d="M 155.5,551.5 C 151.366,552.485 147.032,552.818 142.5,552.5C 142.5,557.167 142.5,561.833 142.5,566.5C 132.833,566.5 123.167,566.5 113.5,566.5C 113.5,566.167 113.5,565.833 113.5,565.5C 122.833,565.5 132.167,565.5 141.5,565.5C 141.5,560.833 141.5,556.167 141.5,551.5C 146.167,551.5 150.833,551.5 155.5,551.5 Z"/></g>
<g><path style="opacity:1" fill="#000505" d="M 354.5,565.5 C 359.167,565.5 363.833,565.5 368.5,565.5C 368.5,570.5 368.5,575.5 368.5,580.5C 363.833,580.5 359.167,580.5 354.5,580.5C 354.5,575.5 354.5,570.5 354.5,565.5 Z"/></g>
<g><path style="opacity:1" fill="#000505" d="M 70.5,566.5 C 75.5,566.5 80.5,566.5 85.5,566.5C 90.1667,566.5 94.8333,566.5 99.5,566.5C 104.167,566.5 108.833,566.5 113.5,566.5C 123.167,566.5 132.833,566.5 142.5,566.5C 142.5,571.167 142.5,575.833 142.5,580.5C 118.5,580.5 94.5,580.5 70.5,580.5C 70.5,575.833 70.5,571.167 70.5,566.5 Z"/></g>
<g><path style="opacity:1" fill="#f6f2ef" d="M 283.5,565.5 C 288.363,565.181 293.03,565.514 297.5,566.5C 297.5,571.167 297.5,575.833 297.5,580.5C 292.833,580.5 288.167,580.5 283.5,580.5C 283.5,575.833 283.5,571.167 283.5,566.5C 283.5,566.167 283.5,565.833 283.5,565.5 Z"/></g>
<g><path style="opacity:1" fill="#864211" d="M 297.5,566.5 C 302.167,566.5 306.833,566.5 311.5,566.5C 311.5,571.167 311.5,575.833 311.5,580.5C 306.833,580.5 302.167,580.5 297.5,580.5C 297.5,575.833 297.5,571.167 297.5,566.5 Z"/></g>
<g><path style="opacity:1" fill="#f6f3f0" d="M 325.5,565.5 C 325.5,565.833 325.5,566.167 325.5,566.5C 325.5,571.167 325.5,575.833 325.5,580.5C 320.833,580.5 316.167,580.5 311.5,580.5C 311.5,575.833 311.5,571.167 311.5,566.5C 315.97,565.514 320.637,565.181 325.5,565.5 Z"/></g>
<g><path style="opacity:1" fill="#894515" d="M 325.5,566.5 C 330.167,566.5 334.833,566.5 339.5,566.5C 339.5,571.167 339.5,575.833 339.5,580.5C 334.833,580.5 330.167,580.5 325.5,580.5C 325.5,575.833 325.5,571.167 325.5,566.5 Z"/></g>
<g><path style="opacity:1" fill="#a19893" d="M 339.5,565.5 C 339.833,565.5 340.167,565.5 340.5,565.5C 345.167,565.5 349.833,565.5 354.5,565.5C 354.5,570.5 354.5,575.5 354.5,580.5C 349.5,580.5 344.5,580.5 339.5,580.5C 339.5,575.833 339.5,571.167 339.5,566.5C 339.5,566.167 339.5,565.833 339.5,565.5 Z"/></g>
<g><path style="opacity:1" fill="#f9faf9" d="M 340.5,566.5 C 344.833,566.5 349.167,566.5 353.5,566.5C 353.5,570.833 353.5,575.167 353.5,579.5C 349.167,579.5 344.833,579.5 340.5,579.5C 340.5,575.167 340.5,570.833 340.5,566.5 Z"/></g>
<g><path style="opacity:1" fill="#000606" d="M 268.5,566.5 C 273.5,566.5 278.5,566.5 283.5,566.5C 283.5,571.167 283.5,575.833 283.5,580.5C 288.167,580.5 292.833,580.5 297.5,580.5C 302.167,580.5 306.833,580.5 311.5,580.5C 316.167,580.5 320.833,580.5 325.5,580.5C 330.167,580.5 334.833,580.5 339.5,580.5C 344.5,580.5 349.5,580.5 354.5,580.5C 354.5,585.167 354.5,589.833 354.5,594.5C 330.5,594.5 306.5,594.5 282.5,594.5C 282.5,589.833 282.5,585.167 282.5,580.5C 277.833,580.5 273.167,580.5 268.5,580.5C 268.5,575.833 268.5,571.167 268.5,566.5 Z"/></g>
</svg>
