<?xml version="1.0" encoding="UTF-8"?>
<!DOCTYPE svg PUBLIC "-//W3C//DTD SVG 1.1//EN" "http://www.w3.org/Graphics/SVG/1.1/DTD/svg11.dtd">
<svg xmlns="http://www.w3.org/2000/svg" version="1.1" width="533px" height="503px" style="shape-rendering:geometricPrecision; text-rendering:geometricPrecision; image-rendering:optimizeQuality; fill-rule:evenodd; clip-rule:evenodd" xmlns:xlink="http://www.w3.org/1999/xlink">
<g><path style="opacity:1" fill="#88fa31" d="M 424.5,18.5 C 424.5,23.5 424.5,28.5 424.5,33.5C 419.5,33.5 414.5,33.5 409.5,33.5C 409.5,28.5 409.5,23.5 409.5,18.5C 414.5,18.5 419.5,18.5 424.5,18.5 Z"/></g>
<g><path style="opacity:1" fill="#578900" d="M 425.5,17.5 C 424.833,17.5 424.5,17.8333 424.5,18.5C 419.5,18.5 414.5,18.5 409.5,18.5C 409.5,23.5 409.5,28.5 409.5,33.5C 404.5,33.5 399.5,33.5 394.5,33.5C 389.5,33.5 384.5,33.5 379.5,33.5C 379.5,38.5 379.5,43.5 379.5,48.5C 369.5,48.5 359.5,48.5 349.5,48.5C 339.167,48.5 328.833,48.5 318.5,48.5C 318.5,43.1667 318.5,37.8333 318.5,32.5C 338.5,32.5 358.5,32.5 378.5,32.5C 378.197,27.57 378.531,22.7367 379.5,18C 389.494,17.5002 399.494,17.3335 409.5,17.5C 409.5,12.5 409.5,7.5 409.5,2.5C 414.833,2.5 420.167,2.5 425.5,2.5C 425.5,7.5 425.5,12.5 425.5,17.5 Z"/></g>
<g><path style="opacity:1" fill="#88fa31" d="M 394.5,33.5 C 394.5,43.5 394.5,53.5 394.5,63.5C 384.5,63.5 374.5,63.5 364.5,63.5C 359.5,63.5 354.5,63.5 349.5,63.5C 349.5,58.5 349.5,53.5 349.5,48.5C 359.5,48.5 369.5,48.5 379.5,48.5C 379.5,43.5 379.5,38.5 379.5,33.5C 384.5,33.5 389.5,33.5 394.5,33.5 Z"/></g>
<g><path style="opacity:1" fill="#4bda25" d="M 394.5,33.5 C 399.5,33.5 404.5,33.5 409.5,33.5C 414.5,33.5 419.5,33.5 424.5,33.5C 424.5,38.5 424.5,43.5 424.5,48.5C 419.5,48.5 414.5,48.5 409.5,48.5C 409.5,53.5 409.5,58.5 409.5,63.5C 404.5,63.5 399.5,63.5 394.5,63.5C 394.5,53.5 394.5,43.5 394.5,33.5 Z"/></g>
<g><path style="opacity:1" fill="#578900" d="M 424.5,33.5 C 429.5,33.5 434.5,33.5 439.5,33.5C 439.5,43.5 439.5,53.5 439.5,63.5C 434.5,63.5 429.5,63.5 424.5,63.5C 424.5,58.5 424.5,53.5 424.5,48.5C 424.5,43.5 424.5,38.5 424.5,33.5 Z"/></g>
<g><path style="opacity:1" fill="#4bd824" d="M 439.5,33.5 C 444.5,33.5 449.5,33.5 454.5,33.5C 454.5,43.5 454.5,53.5 454.5,63.5C 449.5,63.5 444.5,63.5 439.5,63.5C 439.5,53.5 439.5,43.5 439.5,33.5 Z"/></g>
<g><path style="opacity:1" fill="#020a06" d="M 425.5,17.5 C 435.5,17.5 445.5,17.5 455.5,17.5C 455.5,22.5 455.5,27.5 455.5,32.5C 460.5,32.5 465.5,32.5 470.5,32.5C 470.5,52.8333 470.5,73.1667 470.5,93.5C 470.167,93.5 469.833,93.5 469.5,93.5C 464.5,93.5 459.5,93.5 454.5,93.5C 454.5,83.5 454.5,73.5 454.5,63.5C 454.5,53.5 454.5,43.5 454.5,33.5C 449.5,33.5 444.5,33.5 439.5,33.5C 434.5,33.5 429.5,33.5 424.5,33.5C 424.5,28.5 424.5,23.5 424.5,18.5C 424.5,17.8333 424.833,17.5 425.5,17.5 Z"/></g>
<g><path style="opacity:1" fill="#4bda24" d="M 318.5,32.5 C 318.5,37.8333 318.5,43.1667 318.5,48.5C 298.5,48.5 278.5,48.5 258.5,48.5C 258.5,53.5 258.5,58.5 258.5,63.5C 248.5,63.5 238.5,63.5 228.5,63.5C 228.5,68.5 228.5,73.5 228.5,78.5C 223.5,78.5 218.5,78.5 213.5,78.5C 213.5,83.5 213.5,88.5 213.5,93.5C 208.167,93.5 202.833,93.5 197.5,93.5C 197.5,88.5 197.5,83.5 197.5,78.5C 202.5,78.5 207.5,78.5 212.5,78.5C 212.5,73.5 212.5,68.5 212.5,63.5C 217.5,63.5 222.5,63.5 227.5,63.5C 227.195,58.2384 227.529,53.0717 228.5,48C 238.494,47.5002 248.494,47.3335 258.5,47.5C 258.5,42.5 258.5,37.5 258.5,32.5C 278.5,32.5 298.5,32.5 318.5,32.5 Z"/></g>
<g><path style="opacity:1" fill="#9bf206" d="M 318.5,48.5 C 328.833,48.5 339.167,48.5 349.5,48.5C 349.5,53.5 349.5,58.5 349.5,63.5C 354.5,63.5 359.5,63.5 364.5,63.5C 364.5,68.5 364.5,73.5 364.5,78.5C 349.5,78.5 334.5,78.5 319.5,78.5C 319.167,78.5 318.833,78.5 318.5,78.5C 313.5,78.5 308.5,78.5 303.5,78.5C 298.5,78.5 293.5,78.5 288.5,78.5C 288.5,83.5 288.5,88.5 288.5,93.5C 263.5,93.5 238.5,93.5 213.5,93.5C 213.5,88.5 213.5,83.5 213.5,78.5C 218.5,78.5 223.5,78.5 228.5,78.5C 228.5,73.5 228.5,68.5 228.5,63.5C 238.5,63.5 248.5,63.5 258.5,63.5C 258.5,58.5 258.5,53.5 258.5,48.5C 278.5,48.5 298.5,48.5 318.5,48.5 Z"/></g>
<g><path style="opacity:1" fill="#88f932" d="M 424.5,48.5 C 424.5,53.5 424.5,58.5 424.5,63.5C 424.5,73.5 424.5,83.5 424.5,93.5C 429.5,93.5 434.5,93.5 439.5,93.5C 439.5,103.5 439.5,113.5 439.5,123.5C 439.5,123.833 439.5,124.167 439.5,124.5C 439.5,139.5 439.5,154.5 439.5,169.5C 434.5,169.5 429.5,169.5 424.5,169.5C 424.5,174.5 424.5,179.5 424.5,184.5C 419.5,184.5 414.5,184.5 409.5,184.5C 409.5,189.5 409.5,194.5 409.5,199.5C 399.5,199.5 389.5,199.5 379.5,199.5C 374.5,199.5 369.5,199.5 364.5,199.5C 364.5,194.5 364.5,189.5 364.5,184.5C 364.5,179.5 364.5,174.5 364.5,169.5C 369.5,169.5 374.5,169.5 379.5,169.5C 379.5,164.5 379.5,159.5 379.5,154.5C 384.5,154.5 389.5,154.5 394.5,154.5C 394.5,134.167 394.5,113.833 394.5,93.5C 389.5,93.5 384.5,93.5 379.5,93.5C 379.5,88.5 379.5,83.5 379.5,78.5C 384.5,78.5 389.5,78.5 394.5,78.5C 394.5,73.5 394.5,68.5 394.5,63.5C 399.5,63.5 404.5,63.5 409.5,63.5C 409.5,58.5 409.5,53.5 409.5,48.5C 414.5,48.5 419.5,48.5 424.5,48.5 Z"/></g>
<g><path style="opacity:1" fill="#4bda24" d="M 364.5,63.5 C 374.5,63.5 384.5,63.5 394.5,63.5C 394.5,68.5 394.5,73.5 394.5,78.5C 389.5,78.5 384.5,78.5 379.5,78.5C 374.5,78.5 369.5,78.5 364.5,78.5C 364.5,73.5 364.5,68.5 364.5,63.5 Z"/></g>
<g><path style="opacity:1" fill="#4bda25" d="M 424.5,63.5 C 429.5,63.5 434.5,63.5 439.5,63.5C 439.5,73.5 439.5,83.5 439.5,93.5C 434.5,93.5 429.5,93.5 424.5,93.5C 424.5,83.5 424.5,73.5 424.5,63.5 Z"/></g>
<g><path style="opacity:1" fill="#578a00" d="M 439.5,63.5 C 444.5,63.5 449.5,63.5 454.5,63.5C 454.5,73.5 454.5,83.5 454.5,93.5C 454.5,103.5 454.5,113.5 454.5,123.5C 449.5,123.5 444.5,123.5 439.5,123.5C 439.5,113.5 439.5,103.5 439.5,93.5C 439.5,83.5 439.5,73.5 439.5,63.5 Z"/></g>
<g><path style="opacity:1" fill="#315d56" d="M 77.5,93.5 C 67.5,93.5 57.5,93.5 47.5,93.5C 47.1667,93.5 46.8333,93.5 46.5,93.5C 46.5,88.5 46.5,83.5 46.5,78.5C 56.8333,78.5 67.1667,78.5 77.5,78.5C 77.5,83.5 77.5,88.5 77.5,93.5 Z"/></g>
<g><path style="opacity:1" fill="#477c42" d="M 303.5,78.5 C 303.5,78.8333 303.5,79.1667 303.5,79.5C 298.833,79.5 294.167,79.5 289.5,79.5C 289.5,84.1667 289.5,88.8333 289.5,93.5C 289.167,93.5 288.833,93.5 288.5,93.5C 288.5,88.5 288.5,83.5 288.5,78.5C 293.5,78.5 298.5,78.5 303.5,78.5 Z"/></g>
<g><path style="opacity:1" fill="#325d56" d="M 303.5,79.5 C 303.5,84.1667 303.5,88.8333 303.5,93.5C 298.833,93.5 294.167,93.5 289.5,93.5C 289.5,88.8333 289.5,84.1667 289.5,79.5C 294.167,79.5 298.833,79.5 303.5,79.5 Z"/></g>
<g><path style="opacity:1" fill="#020b09" d="M 303.5,78.5 C 308.5,78.5 313.5,78.5 318.5,78.5C 318.5,83.5 318.5,88.5 318.5,93.5C 313.5,93.5 308.5,93.5 303.5,93.5C 303.5,88.8333 303.5,84.1667 303.5,79.5C 303.5,79.1667 303.5,78.8333 303.5,78.5 Z"/></g>
<g><path style="opacity:1" fill="#4bda24" d="M 319.5,78.5 C 334.5,78.5 349.5,78.5 364.5,78.5C 364.5,83.5 364.5,88.5 364.5,93.5C 354.5,93.5 344.5,93.5 334.5,93.5C 334.167,93.5 333.833,93.5 333.5,93.5C 328.833,93.5 324.167,93.5 319.5,93.5C 319.5,88.5 319.5,83.5 319.5,78.5 Z"/></g>
<g><path style="opacity:1" fill="#9bf206" d="M 364.5,78.5 C 369.5,78.5 374.5,78.5 379.5,78.5C 379.5,83.5 379.5,88.5 379.5,93.5C 384.5,93.5 389.5,93.5 394.5,93.5C 394.5,113.833 394.5,134.167 394.5,154.5C 389.5,154.5 384.5,154.5 379.5,154.5C 379.5,159.5 379.5,164.5 379.5,169.5C 374.5,169.5 369.5,169.5 364.5,169.5C 364.5,174.5 364.5,179.5 364.5,184.5C 359.5,184.5 354.5,184.5 349.5,184.5C 349.5,169.167 349.5,153.833 349.5,138.5C 344.5,138.5 339.5,138.5 334.5,138.5C 334.5,123.5 334.5,108.5 334.5,93.5C 344.5,93.5 354.5,93.5 364.5,93.5C 364.5,88.5 364.5,83.5 364.5,78.5 Z"/></g>
<g><path style="opacity:1" fill="#4a8e95" d="M 46.5,93.5 C 46.5,113.5 46.5,133.5 46.5,153.5C 41.4053,153.221 36.4053,153.555 31.5,154.5C 31.5,134.167 31.5,113.833 31.5,93.5C 36.5,93.5 41.5,93.5 46.5,93.5 Z"/></g>
<g><path style="opacity:1" fill="#519c8e" d="M 197.5,93.5 C 217.66,94.4972 237.993,94.8305 258.5,94.5C 258.5,99.1667 258.5,103.833 258.5,108.5C 253.5,108.5 248.5,108.5 243.5,108.5C 203.167,108.5 162.833,108.5 122.5,108.5C 122.5,103.5 122.5,98.5 122.5,93.5C 147.5,93.5 172.5,93.5 197.5,93.5 Z"/></g>
<g><path style="opacity:1" fill="#000505" d="M 470.5,93.5 C 475.5,93.5 480.5,93.5 485.5,93.5C 485.5,98.5 485.5,103.5 485.5,108.5C 485.5,103.5 485.5,98.5 485.5,93.5C 480.5,93.5 475.5,93.5 470.5,93.5 Z"/></g>
<g><path style="opacity:1" fill="#4aec9b" d="M 47.5,93.5 C 57.5,93.5 67.5,93.5 77.5,93.5C 77.5,98.5 77.5,103.5 77.5,108.5C 82.5,108.5 87.5,108.5 92.5,108.5C 92.5,113.5 92.5,118.5 92.5,123.5C 102.5,123.5 112.5,123.5 122.5,123.5C 122.5,118.833 122.5,114.167 122.5,109.5C 147.833,109.5 173.167,109.5 198.5,109.5C 198.5,114.167 198.5,118.833 198.5,123.5C 203.43,123.197 208.263,123.531 213,124.5C 213.499,129.489 213.666,134.489 213.5,139.5C 218.5,139.5 223.5,139.5 228.5,139.5C 228.5,154.5 228.5,169.5 228.5,184.5C 227.514,188.97 227.181,193.637 227.5,198.5C 222.833,198.5 218.167,198.5 213.5,198.5C 213.5,193.833 213.5,189.167 213.5,184.5C 208.167,184.5 202.833,184.5 197.5,184.5C 197.5,189.5 197.5,194.5 197.5,199.5C 192.833,199.5 188.167,199.5 183.5,199.5C 183.5,209.5 183.5,219.5 183.5,229.5C 188.167,229.5 192.833,229.5 197.5,229.5C 197.5,234.5 197.5,239.5 197.5,244.5C 192.5,244.5 187.5,244.5 182.5,244.5C 182.5,249.5 182.5,254.5 182.5,259.5C 152.5,259.5 122.5,259.5 92.5,259.5C 92.5,254.833 92.5,250.167 92.5,245.5C 87.5,245.5 82.5,245.5 77.5,245.5C 77.5,240.167 77.5,234.833 77.5,229.5C 82.5,229.5 87.5,229.5 92.5,229.5C 92.5,219.5 92.5,209.5 92.5,199.5C 87.5,199.5 82.5,199.5 77.5,199.5C 77.5,194.5 77.5,189.5 77.5,184.5C 72.5,184.5 67.5,184.5 62.5,184.5C 62.5,189.167 62.5,193.833 62.5,198.5C 57.5,198.5 52.5,198.5 47.5,198.5C 47.5,183.833 47.5,169.167 47.5,154.5C 52.5,154.5 57.5,154.5 62.5,154.5C 62.5,149.5 62.5,144.5 62.5,139.5C 67.6946,139.821 72.6946,139.487 77.5,138.5C 77.5,133.5 77.5,128.5 77.5,123.5C 72.5,123.5 67.5,123.5 62.5,123.5C 62.5,128.5 62.5,133.5 62.5,138.5C 57.5,138.5 52.5,138.5 47.5,138.5C 47.5,123.5 47.5,108.5 47.5,93.5 Z"/></g>
<g><path style="opacity:1" fill="#315d56" d="M 77.5,93.5 C 87.5,93.5 97.5,93.5 107.5,93.5C 107.5,98.5 107.5,103.5 107.5,108.5C 102.5,108.5 97.5,108.5 92.5,108.5C 87.5,108.5 82.5,108.5 77.5,108.5C 77.5,103.5 77.5,98.5 77.5,93.5 Z"/></g>
<g><path style="opacity:1" fill="#325d56" d="M 258.5,94.5 C 268.5,94.5 278.5,94.5 288.5,94.5C 288.5,99.1667 288.5,103.833 288.5,108.5C 278.5,108.5 268.5,108.5 258.5,108.5C 258.5,103.833 258.5,99.1667 258.5,94.5 Z"/></g>
<g><path style="opacity:1" fill="#44d88e" d="M 197.5,93.5 C 202.833,93.5 208.167,93.5 213.5,93.5C 238.5,93.5 263.5,93.5 288.5,93.5C 288.833,93.5 289.167,93.5 289.5,93.5C 294.167,93.5 298.833,93.5 303.5,93.5C 308.5,93.5 313.5,93.5 318.5,93.5C 318.17,109.009 318.504,124.342 319.5,139.5C 319.5,154.5 319.5,169.5 319.5,184.5C 314.5,184.5 309.5,184.5 304.5,184.5C 303.513,189.305 303.179,194.305 303.5,199.5C 298.5,199.5 293.5,199.5 288.5,199.5C 288.5,194.5 288.5,189.5 288.5,184.5C 283.5,184.5 278.5,184.5 273.5,184.5C 273.5,179.5 273.5,174.5 273.5,169.5C 263.5,169.5 253.5,169.5 243.5,169.5C 243.5,174.5 243.5,179.5 243.5,184.5C 238.5,184.5 233.5,184.5 228.5,184.5C 228.5,169.5 228.5,154.5 228.5,139.5C 223.5,139.5 218.5,139.5 213.5,139.5C 213.666,134.489 213.499,129.489 213,124.5C 208.263,123.531 203.43,123.197 198.5,123.5C 198.5,118.833 198.5,114.167 198.5,109.5C 173.167,109.5 147.833,109.5 122.5,109.5C 122.5,109.167 122.5,108.833 122.5,108.5C 162.833,108.5 203.167,108.5 243.5,108.5C 243.5,113.5 243.5,118.5 243.5,123.5C 248.5,123.5 253.5,123.5 258.5,123.5C 253.695,124.487 248.695,124.821 243.5,124.5C 243.5,129.167 243.5,133.833 243.5,138.5C 258.833,138.5 274.167,138.5 289.5,138.5C 289.803,133.57 289.469,128.737 288.5,124C 293.489,123.501 298.489,123.334 303.5,123.5C 303.5,113.833 303.5,104.167 303.5,94.5C 298.833,94.5 294.167,94.5 289.5,94.5C 289.819,99.3633 289.486,104.03 288.5,108.5C 288.5,103.833 288.5,99.1667 288.5,94.5C 278.5,94.5 268.5,94.5 258.5,94.5C 237.993,94.8305 217.66,94.4972 197.5,93.5 Z"/></g>
<g><path style="opacity:1" fill="#4aeb9b" d="M 258.5,123.5 C 258.5,118.5 258.5,113.5 258.5,108.5C 268.5,108.5 278.5,108.5 288.5,108.5C 289.486,104.03 289.819,99.3633 289.5,94.5C 294.167,94.5 298.833,94.5 303.5,94.5C 303.5,104.167 303.5,113.833 303.5,123.5C 298.489,123.334 293.489,123.501 288.5,124C 289.469,128.737 289.803,133.57 289.5,138.5C 274.167,138.5 258.833,138.5 243.5,138.5C 243.5,133.833 243.5,129.167 243.5,124.5C 248.695,124.821 253.695,124.487 258.5,123.5 Z"/></g>
<g><path style="opacity:1" fill="#206739" d="M 318.5,78.5 C 318.833,78.5 319.167,78.5 319.5,78.5C 319.5,83.5 319.5,88.5 319.5,93.5C 324.167,93.5 328.833,93.5 333.5,93.5C 333.5,93.8333 333.5,94.1667 333.5,94.5C 328.833,94.5 324.167,94.5 319.5,94.5C 319.5,109.167 319.5,123.833 319.5,138.5C 319.5,138.833 319.5,139.167 319.5,139.5C 318.504,124.342 318.17,109.009 318.5,93.5C 318.5,88.5 318.5,83.5 318.5,78.5 Z"/></g>
<g><path style="opacity:1" fill="#000605" d="M 333.5,94.5 C 333.5,109.167 333.5,123.833 333.5,138.5C 328.833,138.5 324.167,138.5 319.5,138.5C 319.5,123.833 319.5,109.167 319.5,94.5C 324.167,94.5 328.833,94.5 333.5,94.5 Z"/></g>
<g><path style="opacity:1" fill="#457306" d="M 333.5,93.5 C 333.833,93.5 334.167,93.5 334.5,93.5C 334.5,108.5 334.5,123.5 334.5,138.5C 339.5,138.5 344.5,138.5 349.5,138.5C 349.5,153.833 349.5,169.167 349.5,184.5C 349.167,184.5 348.833,184.5 348.5,184.5C 348.5,169.5 348.5,154.5 348.5,139.5C 343.833,139.5 339.167,139.5 334.5,139.5C 333.833,139.5 333.5,139.167 333.5,138.5C 333.5,123.833 333.5,109.167 333.5,94.5C 333.5,94.1667 333.5,93.8333 333.5,93.5 Z"/></g>
<g><path style="opacity:1" fill="#4bd924" d="M 469.5,94.5 C 469.5,99.5 469.5,104.5 469.5,109.5C 474.5,109.5 479.5,109.5 484.5,109.5C 484.5,119.5 484.5,129.5 484.5,139.5C 489.5,139.5 494.5,139.5 499.5,139.5C 499.5,149.5 499.5,159.5 499.5,169.5C 504.5,169.5 509.5,169.5 514.5,169.5C 514.5,194.5 514.5,219.5 514.5,244.5C 509.5,244.5 504.5,244.5 499.5,244.5C 499.5,254.5 499.5,264.5 499.5,274.5C 494.5,274.5 489.5,274.5 484.5,274.5C 484.5,279.5 484.5,284.5 484.5,289.5C 479.5,289.5 474.5,289.5 469.5,289.5C 464.833,289.5 460.167,289.5 455.5,289.5C 455.5,284.5 455.5,279.5 455.5,274.5C 450.5,274.5 445.5,274.5 440.5,274.5C 440.5,269.833 440.5,265.167 440.5,260.5C 445.363,260.819 450.03,260.486 454.5,259.5C 455.487,254.695 455.821,249.695 455.5,244.5C 460.167,244.5 464.833,244.5 469.5,244.5C 470.494,234.681 470.827,224.681 470.5,214.5C 475.167,214.5 479.833,214.5 484.5,214.5C 485.497,194.34 485.83,174.007 485.5,153.5C 480.5,153.5 475.5,153.5 470.5,153.5C 470.5,143.5 470.5,133.5 470.5,123.5C 465.5,123.5 460.5,123.5 455.5,123.5C 455.5,113.833 455.5,104.167 455.5,94.5C 460.167,94.5 464.833,94.5 469.5,94.5 Z"/></g>
<g><path style="opacity:1" fill="#509b8e" d="M 92.5,108.5 C 97.5,108.5 102.5,108.5 107.5,108.5C 112.5,108.5 117.5,108.5 122.5,108.5C 122.5,108.833 122.5,109.167 122.5,109.5C 122.5,114.167 122.5,118.833 122.5,123.5C 112.5,123.5 102.5,123.5 92.5,123.5C 92.5,118.5 92.5,113.5 92.5,108.5 Z"/></g>
<g><path style="opacity:1" fill="#325e58" d="M 243.5,108.5 C 248.5,108.5 253.5,108.5 258.5,108.5C 258.5,113.5 258.5,118.5 258.5,123.5C 253.5,123.5 248.5,123.5 243.5,123.5C 243.5,118.5 243.5,113.5 243.5,108.5 Z"/></g>
<g><path style="opacity:1" fill="#287b19" d="M 469.5,93.5 C 469.833,93.5 470.167,93.5 470.5,93.5C 470.5,98.5 470.5,103.5 470.5,108.5C 475.5,108.5 480.5,108.5 485.5,108.5C 485.5,118.5 485.5,128.5 485.5,138.5C 490.5,138.5 495.5,138.5 500.5,138.5C 500.5,148.5 500.5,158.5 500.5,168.5C 505.5,168.5 510.5,168.5 515.5,168.5C 515.5,193.833 515.5,219.167 515.5,244.5C 515.167,244.5 514.833,244.5 514.5,244.5C 514.5,219.5 514.5,194.5 514.5,169.5C 509.5,169.5 504.5,169.5 499.5,169.5C 499.5,159.5 499.5,149.5 499.5,139.5C 494.5,139.5 489.5,139.5 484.5,139.5C 484.5,129.5 484.5,119.5 484.5,109.5C 479.5,109.5 474.5,109.5 469.5,109.5C 469.5,104.5 469.5,99.5 469.5,94.5C 469.5,94.1667 469.5,93.8333 469.5,93.5 Z"/></g>
<g><path style="opacity:1" fill="#000505" d="M 485.5,108.5 C 490.5,108.5 495.5,108.5 500.5,108.5C 500.5,118.5 500.5,128.5 500.5,138.5C 495.5,138.5 490.5,138.5 485.5,138.5C 485.5,128.5 485.5,118.5 485.5,108.5 Z"/></g>
<g><path style="opacity:1" fill="#4bb296" d="M 198.5,123.5 C 198.5,133.833 198.5,144.167 198.5,154.5C 193.5,154.5 188.5,154.5 183.5,154.5C 183.5,159.5 183.5,164.5 183.5,169.5C 178.5,169.5 173.5,169.5 168.5,169.5C 168.821,174.695 168.487,179.695 167.5,184.5C 167.5,179.167 167.5,173.833 167.5,168.5C 172.5,168.5 177.5,168.5 182.5,168.5C 182.5,163.5 182.5,158.5 182.5,153.5C 187.5,153.5 192.5,153.5 197.5,153.5C 197.5,143.833 197.5,134.167 197.5,124.5C 182.833,124.5 168.167,124.5 153.5,124.5C 153.5,129.5 153.5,134.5 153.5,139.5C 148.5,139.5 143.5,139.5 138.5,139.5C 138.5,144.5 138.5,149.5 138.5,154.5C 133.167,154.5 127.833,154.5 122.5,154.5C 127.305,153.513 132.305,153.179 137.5,153.5C 137.5,148.5 137.5,143.5 137.5,138.5C 142.5,138.5 147.5,138.5 152.5,138.5C 152.5,133.5 152.5,128.5 152.5,123.5C 167.833,123.5 183.167,123.5 198.5,123.5 Z"/></g>
<g><path style="opacity:1" fill="#4b9196" d="M 77.5,138.5 C 72.5,138.5 67.5,138.5 62.5,138.5C 62.5,133.5 62.5,128.5 62.5,123.5C 67.5,123.5 72.5,123.5 77.5,123.5C 77.5,128.5 77.5,133.5 77.5,138.5 Z"/></g>
<g><path style="opacity:1" fill="#4b8f96" d="M 167.5,184.5 C 152.5,184.5 137.5,184.5 122.5,184.5C 122.5,174.5 122.5,164.5 122.5,154.5C 127.833,154.5 133.167,154.5 138.5,154.5C 138.5,149.5 138.5,144.5 138.5,139.5C 143.5,139.5 148.5,139.5 153.5,139.5C 153.5,134.5 153.5,129.5 153.5,124.5C 168.167,124.5 182.833,124.5 197.5,124.5C 197.5,134.167 197.5,143.833 197.5,153.5C 192.5,153.5 187.5,153.5 182.5,153.5C 182.5,158.5 182.5,163.5 182.5,168.5C 177.5,168.5 172.5,168.5 167.5,168.5C 167.5,173.833 167.5,179.167 167.5,184.5 Z"/></g>
<g><path style="opacity:1" fill="#4bda25" d="M 439.5,124.5 C 444.5,124.5 449.5,124.5 454.5,124.5C 454.5,134.5 454.5,144.5 454.5,154.5C 459.5,154.5 464.5,154.5 469.5,154.5C 469.5,174.5 469.5,194.5 469.5,214.5C 464.833,214.5 460.167,214.5 455.5,214.5C 454.506,224.319 454.173,234.319 454.5,244.5C 449.5,244.5 444.5,244.5 439.5,244.5C 439.5,249.5 439.5,254.5 439.5,259.5C 429.5,259.5 419.5,259.5 409.5,259.5C 409.5,254.5 409.5,249.5 409.5,244.5C 404.5,244.5 399.5,244.5 394.5,244.5C 394.5,239.5 394.5,234.5 394.5,229.5C 389.5,229.5 384.5,229.5 379.5,229.5C 379.5,219.5 379.5,209.5 379.5,199.5C 389.5,199.5 399.5,199.5 409.5,199.5C 409.5,194.5 409.5,189.5 409.5,184.5C 414.5,184.5 419.5,184.5 424.5,184.5C 424.5,179.5 424.5,174.5 424.5,169.5C 429.5,169.5 434.5,169.5 439.5,169.5C 439.5,154.5 439.5,139.5 439.5,124.5 Z"/></g>
<g><path style="opacity:1" fill="#000505" d="M 500.5,138.5 C 505.5,138.5 510.5,138.5 515.5,138.5C 515.5,148.5 515.5,158.5 515.5,168.5C 510.5,168.5 505.5,168.5 500.5,168.5C 500.5,158.5 500.5,148.5 500.5,138.5 Z"/></g>
<g><path style="opacity:1" fill="#4a8e95" d="M 319.5,138.5 C 324.167,138.5 328.833,138.5 333.5,138.5C 333.5,139.167 333.833,139.5 334.5,139.5C 334.5,154.5 334.5,169.5 334.5,184.5C 339.167,184.5 343.833,184.5 348.5,184.5C 348.833,184.5 349.167,184.5 349.5,184.5C 349.5,199.5 349.5,214.5 349.5,229.5C 349.5,234.5 349.5,239.5 349.5,244.5C 348.35,249.316 348.184,254.316 349,259.5C 354.072,260.471 359.238,260.805 364.5,260.5C 364.5,255.167 364.5,249.833 364.5,244.5C 364.5,239.5 364.5,234.5 364.5,229.5C 369.5,229.5 374.5,229.5 379.5,229.5C 384.5,229.5 389.5,229.5 394.5,229.5C 394.5,234.5 394.5,239.5 394.5,244.5C 399.5,244.5 404.5,244.5 409.5,244.5C 409.5,249.5 409.5,254.5 409.5,259.5C 409.5,259.833 409.5,260.167 409.5,260.5C 409.5,265.167 409.5,269.833 409.5,274.5C 419.5,274.5 429.5,274.5 439.5,274.5C 439.5,274.833 439.5,275.167 439.5,275.5C 439.5,280.5 439.5,285.5 439.5,290.5C 444.5,290.5 449.5,290.5 454.5,290.5C 454.5,295.5 454.5,300.5 454.5,305.5C 459.5,305.5 464.5,305.5 469.5,305.5C 469.5,310.5 469.5,315.5 469.5,320.5C 474.5,320.5 479.5,320.5 484.5,320.5C 484.5,330.5 484.5,340.5 484.5,350.5C 489.5,350.5 494.5,350.5 499.5,350.5C 499.5,370.5 499.5,390.5 499.5,410.5C 494.5,410.5 489.5,410.5 484.5,410.5C 484.5,420.5 484.5,430.5 484.5,440.5C 479.833,440.5 475.167,440.5 470.5,440.5C 470.167,440.5 469.833,440.5 469.5,440.5C 469.5,435.5 469.5,430.5 469.5,425.5C 464.5,425.5 459.5,425.5 454.5,425.5C 454.334,420.821 454.501,416.155 455,411.5C 459.737,410.531 464.57,410.197 469.5,410.5C 469.5,395.5 469.5,380.5 469.5,365.5C 464.5,365.5 459.5,365.5 454.5,365.5C 454.5,360.5 454.5,355.5 454.5,350.5C 449.5,350.5 444.5,350.5 439.5,350.5C 439.5,355.5 439.5,360.5 439.5,365.5C 434.5,365.5 429.5,365.5 424.5,365.5C 424.5,380.833 424.5,396.167 424.5,411.5C 429.5,411.5 434.5,411.5 439.5,411.5C 439.5,416.167 439.5,420.833 439.5,425.5C 434.5,425.5 429.5,425.5 424.5,425.5C 424.5,430.5 424.5,435.5 424.5,440.5C 419.5,440.5 414.5,440.5 409.5,440.5C 409.5,435.5 409.5,430.5 409.5,425.5C 404.5,425.5 399.5,425.5 394.5,425.5C 389.5,425.5 384.5,425.5 379.5,425.5C 379.5,410.5 379.5,395.5 379.5,380.5C 374.5,380.5 369.5,380.5 364.5,380.5C 359.5,380.5 354.5,380.5 349.5,380.5C 349.5,400.5 349.5,420.5 349.5,440.5C 344.167,440.5 338.833,440.5 333.5,440.5C 333.5,450.5 333.5,460.5 333.5,470.5C 328.637,470.181 323.97,470.514 319.5,471.5C 319.5,476.5 319.5,481.5 319.5,486.5C 319.167,486.5 318.833,486.5 318.5,486.5C 318.5,486.167 318.5,485.833 318.5,485.5C 318.5,480.833 318.5,476.167 318.5,471.5C 313.833,471.5 309.167,471.5 304.5,471.5C 304.5,466.5 304.5,461.5 304.5,456.5C 309.5,456.5 314.5,456.5 319.5,456.5C 319.5,436.167 319.5,415.833 319.5,395.5C 314.5,395.5 309.5,395.5 304.5,395.5C 304.821,390.305 304.487,385.305 303.5,380.5C 293.5,380.5 283.5,380.5 273.5,380.5C 268.5,380.5 263.5,380.5 258.5,380.5C 258.5,385.5 258.5,390.5 258.5,395.5C 253.5,395.5 248.5,395.5 243.5,395.5C 243.5,400.5 243.5,405.5 243.5,410.5C 228.5,410.5 213.5,410.5 198.5,410.5C 198.5,405.5 198.5,400.5 198.5,395.5C 193.167,395.5 187.833,395.5 182.5,395.5C 177.833,395.5 173.167,395.5 168.5,395.5C 168.5,390.5 168.5,385.5 168.5,380.5C 193.5,380.5 218.5,380.5 243.5,380.5C 243.5,375.5 243.5,370.5 243.5,365.5C 198.167,365.5 152.833,365.5 107.5,365.5C 107.5,360.5 107.5,355.5 107.5,350.5C 112.5,350.5 117.5,350.5 122.5,350.5C 127.5,350.5 132.5,350.5 137.5,350.5C 157.833,350.5 178.167,350.5 198.5,350.5C 203.5,350.5 208.5,350.5 213.5,350.5C 213.5,345.5 213.5,340.5 213.5,335.5C 218.5,335.5 223.5,335.5 228.5,335.5C 233.5,335.5 238.5,335.5 243.5,335.5C 243.5,330.5 243.5,325.5 243.5,320.5C 248.5,320.5 253.5,320.5 258.5,320.5C 258.5,315.5 258.5,310.5 258.5,305.5C 268.833,305.5 279.167,305.5 289.5,305.5C 289.5,300.5 289.5,295.5 289.5,290.5C 294.167,290.5 298.833,290.5 303.5,290.5C 303.5,285.167 303.5,279.833 303.5,274.5C 298.5,274.5 293.5,274.5 288.5,274.5C 288.5,269.5 288.5,264.5 288.5,259.5C 293.5,259.5 298.5,259.5 303.5,259.5C 303.5,249.5 303.5,239.5 303.5,229.5C 304.496,214.676 304.829,199.676 304.5,184.5C 309.5,184.5 314.5,184.5 319.5,184.5C 319.5,169.5 319.5,154.5 319.5,139.5C 319.5,139.167 319.5,138.833 319.5,138.5 Z"/></g>
<g><path style="opacity:1" fill="#000606" d="M 334.5,139.5 C 339.167,139.5 343.833,139.5 348.5,139.5C 348.5,154.5 348.5,169.5 348.5,184.5C 343.833,184.5 339.167,184.5 334.5,184.5C 334.5,169.5 334.5,154.5 334.5,139.5 Z"/></g>
<g><path style="opacity:1" fill="#4f9d8f" d="M 46.5,93.5 C 46.8333,93.5 47.1667,93.5 47.5,93.5C 47.5,108.5 47.5,123.5 47.5,138.5C 52.5,138.5 57.5,138.5 62.5,138.5C 67.5,138.5 72.5,138.5 77.5,138.5C 72.6946,139.487 67.6946,139.821 62.5,139.5C 62.5,144.5 62.5,149.5 62.5,154.5C 57.5,154.5 52.5,154.5 47.5,154.5C 47.5,169.167 47.5,183.833 47.5,198.5C 47.5,198.833 47.5,199.167 47.5,199.5C 47.1667,199.5 46.8333,199.5 46.5,199.5C 46.5,194.5 46.5,189.5 46.5,184.5C 41.8333,184.5 37.1667,184.5 32.5,184.5C 32.5,189.5 32.5,194.5 32.5,199.5C 32.1667,199.5 31.8333,199.5 31.5,199.5C 26.5,199.5 21.5,199.5 16.5,199.5C 16.5,194.167 16.5,188.833 16.5,183.5C 21.5,183.5 26.5,183.5 31.5,183.5C 31.5,173.833 31.5,164.167 31.5,154.5C 36.4053,153.555 41.4053,153.221 46.5,153.5C 46.5,133.5 46.5,113.5 46.5,93.5 Z"/></g>
<g><path style="opacity:1" fill="#4fae11" d="M 454.5,93.5 C 459.5,93.5 464.5,93.5 469.5,93.5C 469.5,93.8333 469.5,94.1667 469.5,94.5C 464.833,94.5 460.167,94.5 455.5,94.5C 455.5,104.167 455.5,113.833 455.5,123.5C 460.5,123.5 465.5,123.5 470.5,123.5C 470.5,133.5 470.5,143.5 470.5,153.5C 475.5,153.5 480.5,153.5 485.5,153.5C 485.83,174.007 485.497,194.34 484.5,214.5C 484.5,194.5 484.5,174.5 484.5,154.5C 479.833,154.5 475.167,154.5 470.5,154.5C 470.5,174.5 470.5,194.5 470.5,214.5C 470.827,224.681 470.494,234.681 469.5,244.5C 469.5,234.5 469.5,224.5 469.5,214.5C 469.5,194.5 469.5,174.5 469.5,154.5C 464.5,154.5 459.5,154.5 454.5,154.5C 454.5,144.5 454.5,134.5 454.5,124.5C 449.5,124.5 444.5,124.5 439.5,124.5C 439.5,124.167 439.5,123.833 439.5,123.5C 444.5,123.5 449.5,123.5 454.5,123.5C 454.5,113.5 454.5,103.5 454.5,93.5 Z"/></g>
<g><path style="opacity:1" fill="#568900" d="M 455.5,124.5 C 460.167,124.5 464.833,124.5 469.5,124.5C 469.5,134.167 469.5,143.833 469.5,153.5C 464.833,153.5 460.167,153.5 455.5,153.5C 455.5,143.833 455.5,134.167 455.5,124.5 Z"/></g>
<g><path style="opacity:1" fill="#568900" d="M 484.5,214.5 C 479.833,214.5 475.167,214.5 470.5,214.5C 470.5,194.5 470.5,174.5 470.5,154.5C 475.167,154.5 479.833,154.5 484.5,154.5C 484.5,174.5 484.5,194.5 484.5,214.5 Z"/></g>
<g><path style="opacity:1" fill="#4b8f96" d="M 273.5,184.5 C 263.5,184.5 253.5,184.5 243.5,184.5C 243.5,179.5 243.5,174.5 243.5,169.5C 253.5,169.5 263.5,169.5 273.5,169.5C 273.5,174.5 273.5,179.5 273.5,184.5 Z"/></g>
<g><path style="opacity:1" fill="#000505" d="M 515.5,168.5 C 520.5,168.5 525.5,168.5 530.5,168.5C 530.5,194.167 530.5,219.833 530.5,245.5C 525.5,245.5 520.5,245.5 515.5,245.5C 515.5,245.167 515.5,244.833 515.5,244.5C 515.5,219.167 515.5,193.833 515.5,168.5 Z"/></g>
<g><path style="opacity:1" fill="#3a7569" d="M 46.5,199.5 C 41.8333,199.5 37.1667,199.5 32.5,199.5C 32.5,194.5 32.5,189.5 32.5,184.5C 37.1667,184.5 41.8333,184.5 46.5,184.5C 46.5,189.5 46.5,194.5 46.5,199.5 Z"/></g>
<g><path style="opacity:1" fill="#3fcf89" d="M 77.5,199.5 C 72.5,199.5 67.5,199.5 62.5,199.5C 57.5,199.5 52.5,199.5 47.5,199.5C 47.5,199.167 47.5,198.833 47.5,198.5C 52.5,198.5 57.5,198.5 62.5,198.5C 62.5,193.833 62.5,189.167 62.5,184.5C 67.5,184.5 72.5,184.5 77.5,184.5C 77.5,189.5 77.5,194.5 77.5,199.5 Z"/></g>
<g><path style="opacity:1" fill="#458275" d="M 228.5,184.5 C 233.5,184.5 238.5,184.5 243.5,184.5C 243.5,189.5 243.5,194.5 243.5,199.5C 238.5,199.5 233.5,199.5 228.5,199.5C 228.5,194.5 228.5,189.5 228.5,184.5 Z"/></g>
<g><path style="opacity:1" fill="#cecdcd" d="M 243.5,184.5 C 253.5,184.5 263.5,184.5 273.5,184.5C 273.5,189.5 273.5,194.5 273.5,199.5C 268.5,199.5 263.5,199.5 258.5,199.5C 253.5,199.5 248.5,199.5 243.5,199.5C 243.5,194.5 243.5,189.5 243.5,184.5 Z"/></g>
<g><path style="opacity:1" fill="#458377" d="M 273.5,184.5 C 278.5,184.5 283.5,184.5 288.5,184.5C 288.5,189.5 288.5,194.5 288.5,199.5C 283.5,199.5 278.5,199.5 273.5,199.5C 273.5,194.5 273.5,189.5 273.5,184.5 Z"/></g>
<g><path style="opacity:1" fill="#020908" d="M 349.5,184.5 C 354.5,184.5 359.5,184.5 364.5,184.5C 364.5,189.5 364.5,194.5 364.5,199.5C 364.5,209.5 364.5,219.5 364.5,229.5C 359.5,229.5 354.5,229.5 349.5,229.5C 349.5,214.5 349.5,199.5 349.5,184.5 Z"/></g>
<g><path style="opacity:1" fill="#387669" d="M 16.5,199.5 C 21.5,199.5 26.5,199.5 31.5,199.5C 31.5,209.5 31.5,219.5 31.5,229.5C 26.5,229.5 21.5,229.5 16.5,229.5C 16.5,219.5 16.5,209.5 16.5,199.5 Z"/></g>
<g><path style="opacity:1" fill="#4b9096" d="M 47.5,199.5 C 52.5,199.5 57.5,199.5 62.5,199.5C 62.5,209.5 62.5,219.5 62.5,229.5C 57.5,229.5 52.5,229.5 47.5,229.5C 47.5,219.5 47.5,209.5 47.5,199.5 Z"/></g>
<g><path style="opacity:1" fill="#4bec9b" d="M 62.5,199.5 C 67.5,199.5 72.5,199.5 77.5,199.5C 77.5,209.5 77.5,219.5 77.5,229.5C 72.5,229.5 67.5,229.5 62.5,229.5C 62.5,219.5 62.5,209.5 62.5,199.5 Z"/></g>
<g><path style="opacity:1" fill="#3ece88" d="M 77.5,199.5 C 82.5,199.5 87.5,199.5 92.5,199.5C 92.5,209.5 92.5,219.5 92.5,229.5C 87.5,229.5 82.5,229.5 77.5,229.5C 77.5,219.5 77.5,209.5 77.5,199.5 Z"/></g>
<g><path style="opacity:1" fill="#4b8f96" d="M 137.5,199.5 C 147.5,199.5 157.5,199.5 167.5,199.5C 167.5,209.5 167.5,219.5 167.5,229.5C 162.5,229.5 157.5,229.5 152.5,229.5C 152.5,234.5 152.5,239.5 152.5,244.5C 142.5,244.5 132.5,244.5 122.5,244.5C 122.5,234.5 122.5,224.5 122.5,214.5C 127.5,214.5 132.5,214.5 137.5,214.5C 137.5,209.5 137.5,204.5 137.5,199.5 Z"/></g>
<g><path style="opacity:1" fill="#3ece89" d="M 228.5,184.5 C 228.5,189.5 228.5,194.5 228.5,199.5C 223.5,199.5 218.5,199.5 213.5,199.5C 213.5,209.5 213.5,219.5 213.5,229.5C 213.167,229.5 212.833,229.5 212.5,229.5C 212.5,219.5 212.5,209.5 212.5,199.5C 207.833,199.5 203.167,199.5 198.5,199.5C 198.5,209.5 198.5,219.5 198.5,229.5C 198.5,244.5 198.5,259.5 198.5,274.5C 197.506,264.681 197.173,254.681 197.5,244.5C 197.5,239.5 197.5,234.5 197.5,229.5C 192.833,229.5 188.167,229.5 183.5,229.5C 183.5,219.5 183.5,209.5 183.5,199.5C 188.167,199.5 192.833,199.5 197.5,199.5C 197.5,194.5 197.5,189.5 197.5,184.5C 202.833,184.5 208.167,184.5 213.5,184.5C 213.5,189.167 213.5,193.833 213.5,198.5C 218.167,198.5 222.833,198.5 227.5,198.5C 227.181,193.637 227.514,188.97 228.5,184.5 Z"/></g>
<g><path style="opacity:1" fill="#4bed9b" d="M 212.5,229.5 C 207.833,229.5 203.167,229.5 198.5,229.5C 198.5,219.5 198.5,209.5 198.5,199.5C 203.167,199.5 207.833,199.5 212.5,199.5C 212.5,209.5 212.5,219.5 212.5,229.5 Z"/></g>
<g><path style="opacity:1" fill="#458175" d="M 228.5,199.5 C 228.5,209.5 228.5,219.5 228.5,229.5C 223.5,229.5 218.5,229.5 213.5,229.5C 213.5,219.5 213.5,209.5 213.5,199.5C 218.5,199.5 223.5,199.5 228.5,199.5 Z"/></g>
<g><path style="opacity:1" fill="#f90c31" d="M 228.5,199.5 C 233.5,199.5 238.5,199.5 243.5,199.5C 243.5,209.5 243.5,219.5 243.5,229.5C 238.5,229.5 233.5,229.5 228.5,229.5C 228.5,219.5 228.5,209.5 228.5,199.5 Z"/></g>
<g><path style="opacity:1" fill="#d30b57" d="M 243.5,199.5 C 248.5,199.5 253.5,199.5 258.5,199.5C 258.5,209.5 258.5,219.5 258.5,229.5C 263.833,229.5 269.167,229.5 274.5,229.5C 274.5,234.5 274.5,239.5 274.5,244.5C 264.167,244.5 253.833,244.5 243.5,244.5C 243.5,239.5 243.5,234.5 243.5,229.5C 243.5,219.5 243.5,209.5 243.5,199.5 Z"/></g>
<g><path style="opacity:1" fill="#cdcecd" d="M 273.5,199.5 C 278.5,199.5 283.5,199.5 288.5,199.5C 288.5,204.5 288.5,209.5 288.5,214.5C 283.5,214.5 278.5,214.5 273.5,214.5C 273.5,209.5 273.5,204.5 273.5,199.5 Z"/></g>
<g><path style="opacity:1" fill="#458478" d="M 304.5,184.5 C 304.829,199.676 304.496,214.676 303.5,229.5C 298.5,229.5 293.5,229.5 288.5,229.5C 288.5,224.5 288.5,219.5 288.5,214.5C 288.5,209.5 288.5,204.5 288.5,199.5C 293.5,199.5 298.5,199.5 303.5,199.5C 303.179,194.305 303.513,189.305 304.5,184.5 Z"/></g>
<g><path style="opacity:1" fill="#387669" d="M 364.5,199.5 C 369.5,199.5 374.5,199.5 379.5,199.5C 379.5,209.5 379.5,219.5 379.5,229.5C 374.5,229.5 369.5,229.5 364.5,229.5C 364.5,219.5 364.5,209.5 364.5,199.5 Z"/></g>
<g><path style="opacity:1" fill="#568900" d="M 455.5,214.5 C 460.167,214.5 464.833,214.5 469.5,214.5C 469.5,224.5 469.5,234.5 469.5,244.5C 464.833,244.5 460.167,244.5 455.5,244.5C 455.5,234.5 455.5,224.5 455.5,214.5 Z"/></g>
<g><path style="opacity:1" fill="#509c8e" d="M 16.5,229.5 C 16.5,239.5 16.5,249.5 16.5,259.5C 16.5,264.5 16.5,269.5 16.5,274.5C 11.5,274.5 6.5,274.5 1.5,274.5C 1.5,259.5 1.5,244.5 1.5,229.5C 6.5,229.5 11.5,229.5 16.5,229.5 Z"/></g>
<g><path style="opacity:1" fill="#c7cbcb" d="M 16.5,229.5 C 21.5,229.5 26.5,229.5 31.5,229.5C 31.5,234.5 31.5,239.5 31.5,244.5C 26.8333,244.5 22.1667,244.5 17.5,244.5C 17.5,249.5 17.5,254.5 17.5,259.5C 17.1667,259.5 16.8333,259.5 16.5,259.5C 16.5,249.5 16.5,239.5 16.5,229.5 Z"/></g>
<g><path style="opacity:1" fill="#f6f7f7" d="M 47.5,229.5 C 52.5,229.5 57.5,229.5 62.5,229.5C 62.5,239.5 62.5,249.5 62.5,259.5C 57.5,259.5 52.5,259.5 47.5,259.5C 47.5,249.5 47.5,239.5 47.5,229.5 Z"/></g>
<g><path style="opacity:1" fill="#4b8f95" d="M 62.5,229.5 C 67.5,229.5 72.5,229.5 77.5,229.5C 77.5,234.833 77.5,240.167 77.5,245.5C 77.5,255.167 77.5,264.833 77.5,274.5C 72.5,274.5 67.5,274.5 62.5,274.5C 62.5,269.5 62.5,264.5 62.5,259.5C 62.5,249.5 62.5,239.5 62.5,229.5 Z"/></g>
<g><path style="opacity:1" fill="#478175" d="M 198.5,229.5 C 203.167,229.5 207.833,229.5 212.5,229.5C 212.833,229.5 213.167,229.5 213.5,229.5C 213.5,234.5 213.5,239.5 213.5,244.5C 213.5,254.5 213.5,264.5 213.5,274.5C 208.5,274.5 203.5,274.5 198.5,274.5C 198.5,259.5 198.5,244.5 198.5,229.5 Z"/></g>
<g><path style="opacity:1" fill="#f91034" d="M 213.5,229.5 C 218.5,229.5 223.5,229.5 228.5,229.5C 228.5,234.5 228.5,239.5 228.5,244.5C 223.5,244.5 218.5,244.5 213.5,244.5C 213.5,239.5 213.5,234.5 213.5,229.5 Z"/></g>
<g><path style="opacity:1" fill="#faf8f9" d="M 228.5,229.5 C 233.5,229.5 238.5,229.5 243.5,229.5C 243.5,234.5 243.5,239.5 243.5,244.5C 243.5,249.5 243.5,254.5 243.5,259.5C 238.5,259.5 233.5,259.5 228.5,259.5C 228.5,254.5 228.5,249.5 228.5,244.5C 228.5,239.5 228.5,234.5 228.5,229.5 Z"/></g>
<g><path style="opacity:1" fill="#cdcdcd" d="M 288.5,229.5 C 293.5,229.5 298.5,229.5 303.5,229.5C 303.5,239.5 303.5,249.5 303.5,259.5C 298.5,259.5 293.5,259.5 288.5,259.5C 288.5,249.5 288.5,239.5 288.5,229.5 Z"/></g>
<g><path style="opacity:1" fill="#387569" d="M 349.5,229.5 C 354.5,229.5 359.5,229.5 364.5,229.5C 364.5,234.5 364.5,239.5 364.5,244.5C 359.5,244.5 354.5,244.5 349.5,244.5C 349.5,239.5 349.5,234.5 349.5,229.5 Z"/></g>
<g><path style="opacity:1" fill="#387669" d="M 379.5,229.5 C 384.5,229.5 389.5,229.5 394.5,229.5C 394.5,234.5 394.5,239.5 394.5,244.5C 389.5,244.5 384.5,244.5 379.5,244.5C 379.5,239.5 379.5,234.5 379.5,229.5 Z"/></g>
<g><path style="opacity:1" fill="#f9f9f9" d="M 31.5,244.5 C 31.5,249.5 31.5,254.5 31.5,259.5C 26.8333,259.5 22.1667,259.5 17.5,259.5C 17.5,254.5 17.5,249.5 17.5,244.5C 22.1667,244.5 26.8333,244.5 31.5,244.5 Z"/></g>
<g><path style="opacity:1" fill="#d3225b" d="M 31.5,199.5 C 31.8333,199.5 32.1667,199.5 32.5,199.5C 32.5,214.5 32.5,229.5 32.5,244.5C 37.1667,244.5 41.8333,244.5 46.5,244.5C 46.5,229.5 46.5,214.5 46.5,199.5C 46.8333,199.5 47.1667,199.5 47.5,199.5C 47.5,209.5 47.5,219.5 47.5,229.5C 47.5,239.5 47.5,249.5 47.5,259.5C 51.97,260.486 56.6367,260.819 61.5,260.5C 61.5,265.167 61.5,269.833 61.5,274.5C 51.8333,274.5 42.1667,274.5 32.5,274.5C 32.8205,269.305 32.4872,264.305 31.5,259.5C 31.5,254.5 31.5,249.5 31.5,244.5C 31.5,239.5 31.5,234.5 31.5,229.5C 31.5,219.5 31.5,209.5 31.5,199.5 Z"/></g>
<g><path style="opacity:1" fill="#f90c31" d="M 32.5,199.5 C 37.1667,199.5 41.8333,199.5 46.5,199.5C 46.5,214.5 46.5,229.5 46.5,244.5C 41.8333,244.5 37.1667,244.5 32.5,244.5C 32.5,229.5 32.5,214.5 32.5,199.5 Z"/></g>
<g><path style="opacity:1" fill="#44d98e" d="M 197.5,244.5 C 197.173,254.681 197.506,264.681 198.5,274.5C 203.5,274.5 208.5,274.5 213.5,274.5C 228.324,275.496 243.324,275.829 258.5,275.5C 258.5,280.167 258.5,284.833 258.5,289.5C 248.5,289.5 238.5,289.5 228.5,289.5C 228.5,294.5 228.5,299.5 228.5,304.5C 203.167,304.5 177.833,304.5 152.5,304.5C 152.5,309.5 152.5,314.5 152.5,319.5C 152.5,319.833 152.5,320.167 152.5,320.5C 127.5,320.5 102.5,320.5 77.5,320.5C 77.5,315.5 77.5,310.5 77.5,305.5C 82.5,305.5 87.5,305.5 92.5,305.5C 92.5,300.5 92.5,295.5 92.5,290.5C 87.5,290.5 82.5,290.5 77.5,290.5C 77.5,295.167 77.5,299.833 77.5,304.5C 67.5,304.5 57.5,304.5 47.5,304.5C 47.5,299.5 47.5,294.5 47.5,289.5C 42.5,289.5 37.5,289.5 32.5,289.5C 32.5,284.833 32.5,280.167 32.5,275.5C 42.6806,275.827 52.6806,275.494 62.5,274.5C 67.5,274.5 72.5,274.5 77.5,274.5C 77.5,264.833 77.5,255.167 77.5,245.5C 82.5,245.5 87.5,245.5 92.5,245.5C 92.5,250.167 92.5,254.833 92.5,259.5C 122.5,259.5 152.5,259.5 182.5,259.5C 182.5,254.5 182.5,249.5 182.5,244.5C 187.5,244.5 192.5,244.5 197.5,244.5 Z"/></g>
<g><path style="opacity:1" fill="#d40c57" d="M 213.5,244.5 C 218.5,244.5 223.5,244.5 228.5,244.5C 228.5,249.5 228.5,254.5 228.5,259.5C 233.305,260.487 238.305,260.821 243.5,260.5C 243.5,265.167 243.5,269.833 243.5,274.5C 233.5,274.5 223.5,274.5 213.5,274.5C 213.5,264.5 213.5,254.5 213.5,244.5 Z"/></g>
<g><path style="opacity:1" fill="#f97b88" d="M 243.5,244.5 C 253.833,244.5 264.167,244.5 274.5,244.5C 274.5,249.5 274.5,254.5 274.5,259.5C 273.513,264.305 273.179,269.305 273.5,274.5C 263.5,274.5 253.5,274.5 243.5,274.5C 243.5,269.833 243.5,265.167 243.5,260.5C 238.305,260.821 233.305,260.487 228.5,259.5C 233.5,259.5 238.5,259.5 243.5,259.5C 243.5,254.5 243.5,249.5 243.5,244.5 Z"/></g>
<g><path style="opacity:1" fill="#56ac9b" d="M 349.5,244.5 C 354.5,244.5 359.5,244.5 364.5,244.5C 364.5,249.833 364.5,255.167 364.5,260.5C 359.238,260.805 354.072,260.471 349,259.5C 348.184,254.316 348.35,249.316 349.5,244.5 Z"/></g>
<g><path style="opacity:1" fill="#387768" d="M 394.5,244.5 C 399.5,244.5 404.5,244.5 409.5,244.5C 409.5,249.5 409.5,254.5 409.5,259.5C 404.5,259.5 399.5,259.5 394.5,259.5C 394.5,254.5 394.5,249.5 394.5,244.5 Z"/></g>
<g><path style="opacity:1" fill="#4ba72d" d="M 455.5,214.5 C 455.5,224.5 455.5,234.5 455.5,244.5C 455.821,249.695 455.487,254.695 454.5,259.5C 450.03,260.486 445.363,260.819 440.5,260.5C 440.5,265.167 440.5,269.833 440.5,274.5C 445.5,274.5 450.5,274.5 455.5,274.5C 455.5,279.5 455.5,284.5 455.5,289.5C 460.167,289.5 464.833,289.5 469.5,289.5C 469.5,289.833 469.5,290.167 469.5,290.5C 464.5,290.5 459.5,290.5 454.5,290.5C 449.5,290.5 444.5,290.5 439.5,290.5C 439.5,285.5 439.5,280.5 439.5,275.5C 439.5,275.167 439.5,274.833 439.5,274.5C 439.5,269.833 439.5,265.167 439.5,260.5C 429.5,260.5 419.5,260.5 409.5,260.5C 409.5,260.167 409.5,259.833 409.5,259.5C 419.5,259.5 429.5,259.5 439.5,259.5C 439.5,254.5 439.5,249.5 439.5,244.5C 444.5,244.5 449.5,244.5 454.5,244.5C 454.173,234.319 454.506,224.319 455.5,214.5 Z"/></g>
<g><path style="opacity:1" fill="#568900" d="M 454.5,259.5 C 449.833,259.5 445.167,259.5 440.5,259.5C 440.5,254.833 440.5,250.167 440.5,245.5C 445.167,245.5 449.833,245.5 454.5,245.5C 454.5,250.167 454.5,254.833 454.5,259.5 Z"/></g>
<g><path style="opacity:1" fill="#000505" d="M 515.5,245.5 C 515.5,255.5 515.5,265.5 515.5,275.5C 510.5,275.5 505.5,275.5 500.5,275.5C 500.5,265.5 500.5,255.5 500.5,245.5C 505.5,245.5 510.5,245.5 515.5,245.5 Z"/></g>
<g><path style="opacity:1" fill="#cecdcd" d="M 274.5,259.5 C 279.167,259.5 283.833,259.5 288.5,259.5C 288.5,264.5 288.5,269.5 288.5,274.5C 283.5,274.5 278.5,274.5 273.5,274.5C 273.179,269.305 273.513,264.305 274.5,259.5 Z"/></g>
<g><path style="opacity:1" fill="#48d890" d="M 16.5,259.5 C 16.8333,259.5 17.1667,259.5 17.5,259.5C 22.1667,259.5 26.8333,259.5 31.5,259.5C 31.5,264.5 31.5,269.5 31.5,274.5C 26.5,274.5 21.5,274.5 16.5,274.5C 16.5,269.5 16.5,264.5 16.5,259.5 Z"/></g>
<g><path style="opacity:1" fill="#c34074" d="M 47.5,259.5 C 52.5,259.5 57.5,259.5 62.5,259.5C 62.5,264.5 62.5,269.5 62.5,274.5C 62.1667,274.5 61.8333,274.5 61.5,274.5C 61.5,269.833 61.5,265.167 61.5,260.5C 56.6367,260.819 51.97,260.486 47.5,259.5 Z"/></g>
<g><path style="opacity:1" fill="#387669" d="M 409.5,260.5 C 419.5,260.5 429.5,260.5 439.5,260.5C 439.5,265.167 439.5,269.833 439.5,274.5C 429.5,274.5 419.5,274.5 409.5,274.5C 409.5,269.833 409.5,265.167 409.5,260.5 Z"/></g>
<g><path style="opacity:1" fill="#498173" d="M 31.5,259.5 C 32.4872,264.305 32.8205,269.305 32.5,274.5C 42.1667,274.5 51.8333,274.5 61.5,274.5C 61.8333,274.5 62.1667,274.5 62.5,274.5C 52.6806,275.494 42.6806,275.827 32.5,275.5C 32.5,280.167 32.5,284.833 32.5,289.5C 32.1667,289.5 31.8333,289.5 31.5,289.5C 31.5,284.833 31.5,280.167 31.5,275.5C 26.8333,275.5 22.1667,275.5 17.5,275.5C 16.5128,280.305 16.1795,285.305 16.5,290.5C 16.5,295.5 16.5,300.5 16.5,305.5C 11.5,305.5 6.5,305.5 1.5,305.5C 1.5,295.167 1.5,284.833 1.5,274.5C 6.5,274.5 11.5,274.5 16.5,274.5C 21.5,274.5 26.5,274.5 31.5,274.5C 31.5,269.5 31.5,264.5 31.5,259.5 Z"/></g>
<g><path style="opacity:1" fill="#000605" d="M 17.5,275.5 C 22.1667,275.5 26.8333,275.5 31.5,275.5C 31.5,280.167 31.5,284.833 31.5,289.5C 26.8333,289.5 22.1667,289.5 17.5,289.5C 17.5,284.833 17.5,280.167 17.5,275.5 Z"/></g>
<g><path style="opacity:1" fill="#539095" d="M 213.5,274.5 C 223.5,274.5 233.5,274.5 243.5,274.5C 253.5,274.5 263.5,274.5 273.5,274.5C 278.5,274.5 283.5,274.5 288.5,274.5C 288.5,279.5 288.5,284.5 288.5,289.5C 278.5,289.5 268.5,289.5 258.5,289.5C 258.5,284.833 258.5,280.167 258.5,275.5C 243.324,275.829 228.324,275.496 213.5,274.5 Z"/></g>
<g><path style="opacity:1" fill="#448377" d="M 288.5,274.5 C 293.5,274.5 298.5,274.5 303.5,274.5C 303.5,279.833 303.5,285.167 303.5,290.5C 298.833,290.5 294.167,290.5 289.5,290.5C 289.5,289.833 289.167,289.5 288.5,289.5C 288.5,284.5 288.5,279.5 288.5,274.5 Z"/></g>
<g><path style="opacity:1" fill="#39776b" d="M 439.5,275.5 C 444.5,275.5 449.5,275.5 454.5,275.5C 454.5,280.5 454.5,285.5 454.5,290.5C 454.5,285.5 454.5,280.5 454.5,275.5C 449.5,275.5 444.5,275.5 439.5,275.5 Z"/></g>
<g><path style="opacity:1" fill="#226a16" d="M 514.5,244.5 C 514.833,244.5 515.167,244.5 515.5,244.5C 515.5,244.833 515.5,245.167 515.5,245.5C 510.5,245.5 505.5,245.5 500.5,245.5C 500.5,255.5 500.5,265.5 500.5,275.5C 495.5,275.5 490.5,275.5 485.5,275.5C 485.5,280.5 485.5,285.5 485.5,290.5C 480.167,290.5 474.833,290.5 469.5,290.5C 469.5,290.167 469.5,289.833 469.5,289.5C 474.5,289.5 479.5,289.5 484.5,289.5C 484.5,284.5 484.5,279.5 484.5,274.5C 489.5,274.5 494.5,274.5 499.5,274.5C 499.5,264.5 499.5,254.5 499.5,244.5C 504.5,244.5 509.5,244.5 514.5,244.5 Z"/></g>
<g><path style="opacity:1" fill="#000505" d="M 500.5,275.5 C 500.5,280.5 500.5,285.5 500.5,290.5C 495.5,290.5 490.5,290.5 485.5,290.5C 485.5,285.5 485.5,280.5 485.5,275.5C 490.5,275.5 495.5,275.5 500.5,275.5 Z"/></g>
<g><path style="opacity:1" fill="#224746" d="M 17.5,275.5 C 17.5,280.167 17.5,284.833 17.5,289.5C 22.1667,289.5 26.8333,289.5 31.5,289.5C 31.8333,289.5 32.1667,289.5 32.5,289.5C 32.5,289.833 32.5,290.167 32.5,290.5C 32.5,295.167 32.5,299.833 32.5,304.5C 37.1667,304.5 41.8333,304.5 46.5,304.5C 46.5,304.833 46.5,305.167 46.5,305.5C 41.5,305.5 36.5,305.5 31.5,305.5C 31.5,300.5 31.5,295.5 31.5,290.5C 26.5,290.5 21.5,290.5 16.5,290.5C 16.1795,285.305 16.5128,280.305 17.5,275.5 Z"/></g>
<g><path style="opacity:1" fill="#4a8e94" d="M 16.5,290.5 C 21.5,290.5 26.5,290.5 31.5,290.5C 31.5,295.5 31.5,300.5 31.5,305.5C 26.5,305.5 21.5,305.5 16.5,305.5C 16.5,300.5 16.5,295.5 16.5,290.5 Z"/></g>
<g><path style="opacity:1" fill="#000605" d="M 32.5,290.5 C 37.1667,290.5 41.8333,290.5 46.5,290.5C 46.5,295.167 46.5,299.833 46.5,304.5C 46.5,299.833 46.5,295.167 46.5,290.5C 41.8333,290.5 37.1667,290.5 32.5,290.5 Z"/></g>
<g><path style="opacity:1" fill="#1d5c40" d="M 32.5,290.5 C 32.5,290.167 32.5,289.833 32.5,289.5C 37.5,289.5 42.5,289.5 47.5,289.5C 47.5,294.5 47.5,299.5 47.5,304.5C 47.5,304.833 47.5,305.167 47.5,305.5C 47.1667,305.5 46.8333,305.5 46.5,305.5C 46.5,305.167 46.5,304.833 46.5,304.5C 46.5,299.833 46.5,295.167 46.5,290.5C 41.8333,290.5 37.1667,290.5 32.5,290.5 Z"/></g>
<g><path style="opacity:1" fill="#579b8c" d="M 77.5,305.5 C 67.5,305.5 57.5,305.5 47.5,305.5C 47.5,305.167 47.5,304.833 47.5,304.5C 57.5,304.5 67.5,304.5 77.5,304.5C 77.5,299.833 77.5,295.167 77.5,290.5C 82.5,290.5 87.5,290.5 92.5,290.5C 92.5,295.5 92.5,300.5 92.5,305.5C 87.5,305.5 82.5,305.5 77.5,305.5 Z"/></g>
<g><path style="opacity:1" fill="#448376" d="M 122.5,290.5 C 127.5,290.5 132.5,290.5 137.5,290.5C 137.5,295.167 137.5,299.833 137.5,304.5C 132.5,304.5 127.5,304.5 122.5,304.5C 122.5,299.833 122.5,295.167 122.5,290.5 Z"/></g>
<g><path style="opacity:1" fill="#59b19c" d="M 258.5,289.5 C 258.5,289.833 258.5,290.167 258.5,290.5C 253.5,290.5 248.5,290.5 243.5,290.5C 243.5,295.5 243.5,300.5 243.5,305.5C 238.5,305.5 233.5,305.5 228.5,305.5C 228.5,305.167 228.5,304.833 228.5,304.5C 228.5,299.5 228.5,294.5 228.5,289.5C 238.5,289.5 248.5,289.5 258.5,289.5 Z"/></g>
<g><path style="opacity:1" fill="#448476" d="M 258.5,290.5 C 258.5,295.167 258.5,299.833 258.5,304.5C 258.5,304.833 258.5,305.167 258.5,305.5C 253.5,305.5 248.5,305.5 243.5,305.5C 243.5,300.5 243.5,295.5 243.5,290.5C 248.5,290.5 253.5,290.5 258.5,290.5 Z"/></g>
<g><path style="opacity:1" fill="#000605" d="M 258.5,290.5 C 268.5,290.5 278.5,290.5 288.5,290.5C 288.5,295.167 288.5,299.833 288.5,304.5C 278.5,304.5 268.5,304.5 258.5,304.5C 258.5,299.833 258.5,295.167 258.5,290.5 Z"/></g>
<g><path style="opacity:1" fill="#55ab9a" d="M 349.5,305.5 C 344.167,305.5 338.833,305.5 333.5,305.5C 333.5,300.167 333.5,294.833 333.5,289.5C 338.833,289.5 344.167,289.5 349.5,289.5C 349.5,294.833 349.5,300.167 349.5,305.5 Z"/></g>
<g><path style="opacity:1" fill="#448376" d="M 394.5,290.5 C 404.5,290.5 414.5,290.5 424.5,290.5C 424.5,295.5 424.5,300.5 424.5,305.5C 429.5,305.5 434.5,305.5 439.5,305.5C 439.5,315.167 439.5,324.833 439.5,334.5C 429.5,334.5 419.5,334.5 409.5,334.5C 409.5,329.833 409.5,325.167 409.5,320.5C 404.5,320.5 399.5,320.5 394.5,320.5C 394.5,310.5 394.5,300.5 394.5,290.5 Z"/></g>
<g><path style="opacity:1" fill="#38766b" d="M 454.5,290.5 C 459.5,290.5 464.5,290.5 469.5,290.5C 469.5,295.5 469.5,300.5 469.5,305.5C 464.5,305.5 459.5,305.5 454.5,305.5C 454.5,300.5 454.5,295.5 454.5,290.5 Z"/></g>
<g><path style="opacity:1" fill="#040c0c" d="M 469.5,290.5 C 474.833,290.5 480.167,290.5 485.5,290.5C 485.5,295.5 485.5,300.5 485.5,305.5C 480.167,305.5 474.833,305.5 469.5,305.5C 469.5,300.5 469.5,295.5 469.5,290.5 Z"/></g>
<g><path style="opacity:1" fill="#1f4246" d="M 258.5,290.5 C 258.5,290.167 258.5,289.833 258.5,289.5C 268.5,289.5 278.5,289.5 288.5,289.5C 289.167,289.5 289.5,289.833 289.5,290.5C 289.5,295.5 289.5,300.5 289.5,305.5C 279.167,305.5 268.833,305.5 258.5,305.5C 258.5,305.167 258.5,304.833 258.5,304.5C 268.5,304.5 278.5,304.5 288.5,304.5C 288.5,299.833 288.5,295.167 288.5,290.5C 278.5,290.5 268.5,290.5 258.5,290.5 Z"/></g>
<g><path style="opacity:1" fill="#438276" d="M 16.5,305.5 C 21.5,305.5 26.5,305.5 31.5,305.5C 31.5,310.5 31.5,315.5 31.5,320.5C 26.5,320.5 21.5,320.5 16.5,320.5C 16.5,315.5 16.5,310.5 16.5,305.5 Z"/></g>
<g><path style="opacity:1" fill="#4f8b92" d="M 31.5,305.5 C 36.5,305.5 41.5,305.5 46.5,305.5C 46.8333,305.5 47.1667,305.5 47.5,305.5C 47.5,310.5 47.5,315.5 47.5,320.5C 42.1667,320.5 36.8333,320.5 31.5,320.5C 31.5,315.5 31.5,310.5 31.5,305.5 Z"/></g>
<g><path style="opacity:1" fill="#d31359" d="M 47.5,305.5 C 57.5,305.5 67.5,305.5 77.5,305.5C 77.5,310.5 77.5,315.5 77.5,320.5C 72.5,320.5 67.5,320.5 62.5,320.5C 57.5,320.5 52.5,320.5 47.5,320.5C 47.5,315.5 47.5,310.5 47.5,305.5 Z"/></g>
<g><path style="opacity:1" fill="#41ad7f" d="M 228.5,304.5 C 228.5,304.833 228.5,305.167 228.5,305.5C 213.5,305.5 198.5,305.5 183.5,305.5C 178.167,305.5 172.833,305.5 167.5,305.5C 162.833,305.5 158.167,305.5 153.5,305.5C 153.5,310.167 153.5,314.833 153.5,319.5C 153.167,319.5 152.833,319.5 152.5,319.5C 152.5,314.5 152.5,309.5 152.5,304.5C 177.833,304.5 203.167,304.5 228.5,304.5 Z"/></g>
<g><path style="opacity:1" fill="#57af9b" d="M 167.5,305.5 C 167.5,310.167 167.5,314.833 167.5,319.5C 162.833,319.5 158.167,319.5 153.5,319.5C 153.5,314.833 153.5,310.167 153.5,305.5C 158.167,305.5 162.833,305.5 167.5,305.5 Z"/></g>
<g><path style="opacity:1" fill="#477e74" d="M 167.5,305.5 C 172.833,305.5 178.167,305.5 183.5,305.5C 183.779,310.595 183.445,315.595 182.5,320.5C 172.5,320.5 162.5,320.5 152.5,320.5C 152.5,320.167 152.5,319.833 152.5,319.5C 152.833,319.5 153.167,319.5 153.5,319.5C 158.167,319.5 162.833,319.5 167.5,319.5C 167.5,314.833 167.5,310.167 167.5,305.5 Z"/></g>
<g><path style="opacity:1" fill="#070708" d="M 183.5,305.5 C 198.5,305.5 213.5,305.5 228.5,305.5C 228.5,310.5 228.5,315.5 228.5,320.5C 213.167,320.5 197.833,320.5 182.5,320.5C 183.445,315.595 183.779,310.595 183.5,305.5 Z"/></g>
<g><path style="opacity:1" fill="#f7f8f8" d="M 228.5,305.5 C 233.5,305.5 238.5,305.5 243.5,305.5C 243.5,310.5 243.5,315.5 243.5,320.5C 238.5,320.5 233.5,320.5 228.5,320.5C 228.5,315.5 228.5,310.5 228.5,305.5 Z"/></g>
<g><path style="opacity:1" fill="#57ae9c" d="M 243.5,305.5 C 248.5,305.5 253.5,305.5 258.5,305.5C 258.5,310.5 258.5,315.5 258.5,320.5C 253.5,320.5 248.5,320.5 243.5,320.5C 243.5,315.5 243.5,310.5 243.5,305.5 Z"/></g>
<g><path style="opacity:1" fill="#38766b" d="M 469.5,305.5 C 474.833,305.5 480.167,305.5 485.5,305.5C 485.5,310.167 485.5,314.833 485.5,319.5C 490.5,319.5 495.5,319.5 500.5,319.5C 500.5,329.5 500.5,339.5 500.5,349.5C 500.5,349.833 500.5,350.167 500.5,350.5C 500.167,350.5 499.833,350.5 499.5,350.5C 494.5,350.5 489.5,350.5 484.5,350.5C 484.5,340.5 484.5,330.5 484.5,320.5C 479.5,320.5 474.5,320.5 469.5,320.5C 469.5,315.5 469.5,310.5 469.5,305.5 Z"/></g>
<g><path style="opacity:1" fill="#438276" d="M 31.5,320.5 C 36.8333,320.5 42.1667,320.5 47.5,320.5C 47.5,325.5 47.5,330.5 47.5,335.5C 47.1667,335.5 46.8333,335.5 46.5,335.5C 41.5,335.5 36.5,335.5 31.5,335.5C 31.5,330.5 31.5,325.5 31.5,320.5 Z"/></g>
<g><path style="opacity:1" fill="#4d8f96" d="M 47.5,320.5 C 52.5,320.5 57.5,320.5 62.5,320.5C 62.5,325.5 62.5,330.5 62.5,335.5C 57.5,335.5 52.5,335.5 47.5,335.5C 47.5,330.5 47.5,325.5 47.5,320.5 Z"/></g>
<g><path style="opacity:1" fill="#f7f6f6" d="M 62.5,320.5 C 67.5,320.5 72.5,320.5 77.5,320.5C 77.5,325.5 77.5,330.5 77.5,335.5C 72.5,335.5 67.5,335.5 62.5,335.5C 62.5,330.5 62.5,325.5 62.5,320.5 Z"/></g>
<g><path style="opacity:1" fill="#d30d57" d="M 77.5,320.5 C 102.5,320.5 127.5,320.5 152.5,320.5C 162.5,320.5 172.5,320.5 182.5,320.5C 197.833,320.5 213.167,320.5 228.5,320.5C 228.5,325.5 228.5,330.5 228.5,335.5C 223.5,335.5 218.5,335.5 213.5,335.5C 208.5,335.5 203.5,335.5 198.5,335.5C 178.167,335.5 157.833,335.5 137.5,335.5C 132.5,335.5 127.5,335.5 122.5,335.5C 122.5,340.5 122.5,345.5 122.5,350.5C 117.5,350.5 112.5,350.5 107.5,350.5C 107.5,345.5 107.5,340.5 107.5,335.5C 97.5,335.5 87.5,335.5 77.5,335.5C 77.5,330.5 77.5,325.5 77.5,320.5 Z"/></g>
<g><path style="opacity:1" fill="#57af9b" d="M 228.5,320.5 C 233.5,320.5 238.5,320.5 243.5,320.5C 243.5,325.5 243.5,330.5 243.5,335.5C 238.5,335.5 233.5,335.5 228.5,335.5C 228.5,330.5 228.5,325.5 228.5,320.5 Z"/></g>
<g><path style="opacity:1" fill="#438277" d="M 333.5,305.5 C 338.833,305.5 344.167,305.5 349.5,305.5C 349.5,310.5 349.5,315.5 349.5,320.5C 344.5,320.5 339.5,320.5 334.5,320.5C 334.5,325.5 334.5,330.5 334.5,335.5C 329.5,335.5 324.5,335.5 319.5,335.5C 319.821,340.695 319.487,345.695 318.5,350.5C 318.5,345.5 318.5,340.5 318.5,335.5C 308.5,335.5 298.5,335.5 288.5,335.5C 298.319,334.506 308.319,334.173 318.5,334.5C 318.5,329.5 318.5,324.5 318.5,319.5C 323.5,319.5 328.5,319.5 333.5,319.5C 333.5,314.833 333.5,310.167 333.5,305.5 Z"/></g>
<g><path style="opacity:1" fill="#4a8d94" d="M 77.5,335.5 C 87.5,335.5 97.5,335.5 107.5,335.5C 107.5,340.5 107.5,345.5 107.5,350.5C 97.5,350.5 87.5,350.5 77.5,350.5C 77.5,345.5 77.5,340.5 77.5,335.5 Z"/></g>
<g><path style="opacity:1" fill="#f80d33" d="M 137.5,335.5 C 137.5,340.5 137.5,345.5 137.5,350.5C 132.5,350.5 127.5,350.5 122.5,350.5C 122.5,345.5 122.5,340.5 122.5,335.5C 127.5,335.5 132.5,335.5 137.5,335.5 Z"/></g>
<g><path style="opacity:1" fill="#f77c88" d="M 137.5,335.5 C 157.833,335.5 178.167,335.5 198.5,335.5C 198.5,340.5 198.5,345.5 198.5,350.5C 178.167,350.5 157.833,350.5 137.5,350.5C 137.5,345.5 137.5,340.5 137.5,335.5 Z"/></g>
<g><path style="opacity:1" fill="#57ae9c" d="M 198.5,335.5 C 203.5,335.5 208.5,335.5 213.5,335.5C 213.5,340.5 213.5,345.5 213.5,350.5C 208.5,350.5 203.5,350.5 198.5,350.5C 198.5,345.5 198.5,340.5 198.5,335.5 Z"/></g>
<g><path style="opacity:1" fill="#010809" d="M 288.5,335.5 C 298.5,335.5 308.5,335.5 318.5,335.5C 318.5,340.5 318.5,345.5 318.5,350.5C 308.5,350.5 298.5,350.5 288.5,350.5C 288.5,345.5 288.5,340.5 288.5,335.5 Z"/></g>
<g><path style="opacity:1" fill="#57af9b" d="M 394.5,350.5 C 394.5,345.5 394.5,340.5 394.5,335.5C 399.5,335.5 404.5,335.5 409.5,335.5C 409.5,340.5 409.5,345.5 409.5,350.5C 404.5,350.5 399.5,350.5 394.5,350.5 Z"/></g>
<g><path style="opacity:1" fill="#000606" d="M 46.5,335.5 C 46.8333,335.5 47.1667,335.5 47.5,335.5C 52.5,335.5 57.5,335.5 62.5,335.5C 67.5,335.5 72.5,335.5 77.5,335.5C 77.5,340.5 77.5,345.5 77.5,350.5C 87.5,350.5 97.5,350.5 107.5,350.5C 107.5,355.5 107.5,360.5 107.5,365.5C 102.5,365.5 97.5,365.5 92.5,365.5C 87.1667,365.5 81.8333,365.5 76.5,365.5C 76.5,360.5 76.5,355.5 76.5,350.5C 66.5,350.5 56.5,350.5 46.5,350.5C 46.5,345.5 46.5,340.5 46.5,335.5 Z"/></g>
<g><path style="opacity:1" fill="#000605" d="M 288.5,350.5 C 288.5,355.5 288.5,360.5 288.5,365.5C 273.5,365.5 258.5,365.5 243.5,365.5C 243.5,360.5 243.5,355.5 243.5,350.5C 258.5,350.5 273.5,350.5 288.5,350.5 Z"/></g>
<g><path style="opacity:1" fill="#56ae9c" d="M 349.5,365.5 C 344.5,365.5 339.5,365.5 334.5,365.5C 334.5,360.5 334.5,355.5 334.5,350.5C 339.5,350.5 344.5,350.5 349.5,350.5C 349.5,355.5 349.5,360.5 349.5,365.5 Z"/></g>
<g><path style="opacity:1" fill="#448375" d="M 394.5,350.5 C 394.5,355.5 394.5,360.5 394.5,365.5C 389.5,365.5 384.5,365.5 379.5,365.5C 379.5,360.5 379.5,355.5 379.5,350.5C 384.5,350.5 389.5,350.5 394.5,350.5 Z"/></g>
<g><path style="opacity:1" fill="#448376" d="M 454.5,425.5 C 454.5,425.833 454.5,426.167 454.5,426.5C 449.5,426.5 444.5,426.5 439.5,426.5C 439.5,426.167 439.5,425.833 439.5,425.5C 439.5,420.833 439.5,416.167 439.5,411.5C 434.5,411.5 429.5,411.5 424.5,411.5C 424.5,396.167 424.5,380.833 424.5,365.5C 429.5,365.5 434.5,365.5 439.5,365.5C 439.5,360.5 439.5,355.5 439.5,350.5C 444.5,350.5 449.5,350.5 454.5,350.5C 454.5,355.5 454.5,360.5 454.5,365.5C 459.5,365.5 464.5,365.5 469.5,365.5C 469.5,380.5 469.5,395.5 469.5,410.5C 464.57,410.197 459.737,410.531 455,411.5C 454.501,416.155 454.334,420.821 454.5,425.5 Z"/></g>
<g><path style="opacity:1" fill="#285256" d="M 499.5,350.5 C 499.833,350.5 500.167,350.5 500.5,350.5C 500.5,370.833 500.5,391.167 500.5,411.5C 495.5,411.5 490.5,411.5 485.5,411.5C 485.5,421.5 485.5,431.5 485.5,441.5C 484.833,441.5 484.5,441.167 484.5,440.5C 484.5,430.5 484.5,420.5 484.5,410.5C 489.5,410.5 494.5,410.5 499.5,410.5C 499.5,390.5 499.5,370.5 499.5,350.5 Z"/></g>
<g><path style="opacity:1" fill="#000506" d="M 500.5,349.5 C 505.5,349.5 510.5,349.5 515.5,349.5C 515.5,370.167 515.5,390.833 515.5,411.5C 510.5,411.5 505.5,411.5 500.5,411.5C 500.5,391.167 500.5,370.833 500.5,350.5C 500.5,350.167 500.5,349.833 500.5,349.5 Z"/></g>
<g><path style="opacity:1" fill="#448375" d="M 76.5,365.5 C 81.8333,365.5 87.1667,365.5 92.5,365.5C 92.5,370.5 92.5,375.5 92.5,380.5C 87.1667,380.5 81.8333,380.5 76.5,380.5C 76.5,375.5 76.5,370.5 76.5,365.5 Z"/></g>
<g><path style="opacity:1" fill="#519c8e" d="M 92.5,365.5 C 97.5,365.5 102.5,365.5 107.5,365.5C 107.5,370.5 107.5,375.5 107.5,380.5C 102.5,380.5 97.5,380.5 92.5,380.5C 92.5,375.5 92.5,370.5 92.5,365.5 Z"/></g>
<g><path style="opacity:1" fill="#000605" d="M 107.5,365.5 C 152.833,365.5 198.167,365.5 243.5,365.5C 243.5,370.5 243.5,375.5 243.5,380.5C 218.5,380.5 193.5,380.5 168.5,380.5C 163.167,380.5 157.833,380.5 152.5,380.5C 147.5,380.5 142.5,380.5 137.5,380.5C 127.5,380.5 117.5,380.5 107.5,380.5C 107.5,375.5 107.5,370.5 107.5,365.5 Z"/></g>
<g><path style="opacity:1" fill="#448376" d="M 334.5,365.5 C 339.5,365.5 344.5,365.5 349.5,365.5C 349.5,370.5 349.5,375.5 349.5,380.5C 344.5,380.5 339.5,380.5 334.5,380.5C 334.5,375.5 334.5,370.5 334.5,365.5 Z"/></g>
<g><path style="opacity:1" fill="#000605" d="M 379.5,365.5 C 384.5,365.5 389.5,365.5 394.5,365.5C 394.5,370.5 394.5,375.5 394.5,380.5C 389.5,380.5 384.5,380.5 379.5,380.5C 379.5,375.5 379.5,370.5 379.5,365.5 Z"/></g>
<g><path style="opacity:1" fill="#4ae595" d="M 92.5,380.5 C 97.5,380.5 102.5,380.5 107.5,380.5C 117.5,380.5 127.5,380.5 137.5,380.5C 137.5,385.5 137.5,390.5 137.5,395.5C 142.5,395.5 147.5,395.5 152.5,395.5C 152.5,405.833 152.5,416.167 152.5,426.5C 157.5,426.5 162.5,426.5 167.5,426.5C 167.5,436.167 167.5,445.833 167.5,455.5C 162.833,455.5 158.167,455.5 153.5,455.5C 153.819,450.637 153.486,445.97 152.5,441.5C 147.695,440.513 142.695,440.179 137.5,440.5C 137.5,445.833 137.5,451.167 137.5,456.5C 132.5,456.5 127.5,456.5 122.5,456.5C 122.5,451.5 122.5,446.5 122.5,441.5C 117.5,441.5 112.5,441.5 107.5,441.5C 107.5,436.167 107.5,430.833 107.5,425.5C 112.5,425.5 117.5,425.5 122.5,425.5C 122.5,415.5 122.5,405.5 122.5,395.5C 112.5,395.5 102.5,395.5 92.5,395.5C 92.5,390.5 92.5,385.5 92.5,380.5 Z"/></g>
<g><path style="opacity:1" fill="#4a8f94" d="M 137.5,380.5 C 142.5,380.5 147.5,380.5 152.5,380.5C 152.5,385.5 152.5,390.5 152.5,395.5C 147.5,395.5 142.5,395.5 137.5,395.5C 137.5,390.5 137.5,385.5 137.5,380.5 Z"/></g>
<g><path style="opacity:1" fill="#448276" d="M 273.5,380.5 C 273.5,385.5 273.5,390.5 273.5,395.5C 268.5,395.5 263.5,395.5 258.5,395.5C 258.5,390.5 258.5,385.5 258.5,380.5C 263.5,380.5 268.5,380.5 273.5,380.5 Z"/></g>
<g><path style="opacity:1" fill="#4be595" d="M 273.5,380.5 C 283.5,380.5 293.5,380.5 303.5,380.5C 303.5,385.833 303.5,391.167 303.5,396.5C 308.5,396.5 313.5,396.5 318.5,396.5C 318.5,416.167 318.5,435.833 318.5,455.5C 313.5,455.5 308.5,455.5 303.5,455.5C 303.5,460.5 303.5,465.5 303.5,470.5C 298.833,470.5 294.167,470.5 289.5,470.5C 289.819,465.637 289.486,460.97 288.5,456.5C 283.5,456.5 278.5,456.5 273.5,456.5C 273.5,461.5 273.5,466.5 273.5,471.5C 268.5,471.5 263.5,471.5 258.5,471.5C 258.5,466.5 258.5,461.5 258.5,456.5C 258.5,446.167 258.5,435.833 258.5,425.5C 263.5,425.5 268.5,425.5 273.5,425.5C 273.5,430.5 273.5,435.5 273.5,440.5C 283.5,440.5 293.5,440.5 303.5,440.5C 304.494,430.681 304.827,420.681 304.5,410.5C 299.167,410.5 293.833,410.5 288.5,410.5C 288.5,405.5 288.5,400.5 288.5,395.5C 283.5,395.5 278.5,395.5 273.5,395.5C 273.5,390.5 273.5,385.5 273.5,380.5 Z"/></g>
<g><path style="opacity:1" fill="#438174" d="M 349.5,380.5 C 354.5,380.5 359.5,380.5 364.5,380.5C 364.5,395.833 364.5,411.167 364.5,426.5C 364.5,431.5 364.5,436.5 364.5,441.5C 359.5,441.5 354.5,441.5 349.5,441.5C 349.5,441.167 349.5,440.833 349.5,440.5C 349.5,420.5 349.5,400.5 349.5,380.5 Z"/></g>
<g><path style="opacity:1" fill="#010708" d="M 364.5,380.5 C 369.5,380.5 374.5,380.5 379.5,380.5C 379.5,395.5 379.5,410.5 379.5,425.5C 384.5,425.5 389.5,425.5 394.5,425.5C 394.5,430.5 394.5,435.5 394.5,440.5C 389.167,440.5 383.833,440.5 378.5,440.5C 378.5,435.833 378.5,431.167 378.5,426.5C 373.833,426.5 369.167,426.5 364.5,426.5C 364.5,411.167 364.5,395.833 364.5,380.5 Z"/></g>
<g><path style="opacity:1" fill="#448375" d="M 92.5,396.5 C 97.5,396.5 102.5,396.5 107.5,396.5C 107.5,406.167 107.5,415.833 107.5,425.5C 102.5,425.5 97.5,425.5 92.5,425.5C 92.5,415.833 92.5,406.167 92.5,396.5 Z"/></g>
<g><path style="opacity:1" fill="#509c8e" d="M 76.5,380.5 C 81.8333,380.5 87.1667,380.5 92.5,380.5C 92.5,385.5 92.5,390.5 92.5,395.5C 102.5,395.5 112.5,395.5 122.5,395.5C 122.5,405.5 122.5,415.5 122.5,425.5C 117.5,425.5 112.5,425.5 107.5,425.5C 107.5,415.833 107.5,406.167 107.5,396.5C 102.5,396.5 97.5,396.5 92.5,396.5C 87.1667,396.5 81.8333,396.5 76.5,396.5C 76.5,391.167 76.5,385.833 76.5,380.5 Z"/></g>
<g><path style="opacity:1" fill="#4a8e95" d="M 153.5,396.5 C 158.167,396.5 162.833,396.5 167.5,396.5C 167.5,401.167 167.5,405.833 167.5,410.5C 172.5,410.5 177.5,410.5 182.5,410.5C 182.833,410.5 183.167,410.5 183.5,410.5C 187.97,411.486 192.637,411.819 197.5,411.5C 197.5,426.167 197.5,440.833 197.5,455.5C 192.637,455.181 187.97,455.514 183.5,456.5C 182.514,460.97 182.181,465.637 182.5,470.5C 177.833,470.5 173.167,470.5 168.5,470.5C 168.5,465.833 168.5,461.167 168.5,456.5C 168.5,446.167 168.5,435.833 168.5,425.5C 163.5,425.5 158.5,425.5 153.5,425.5C 153.5,415.833 153.5,406.167 153.5,396.5 Z"/></g>
<g><path style="opacity:1" fill="#448376" d="M 152.5,380.5 C 157.833,380.5 163.167,380.5 168.5,380.5C 168.5,385.5 168.5,390.5 168.5,395.5C 173.167,395.5 177.833,395.5 182.5,395.5C 182.5,400.5 182.5,405.5 182.5,410.5C 177.5,410.5 172.5,410.5 167.5,410.5C 167.5,405.833 167.5,401.167 167.5,396.5C 162.833,396.5 158.167,396.5 153.5,396.5C 153.5,395.833 153.167,395.5 152.5,395.5C 152.5,390.5 152.5,385.5 152.5,380.5 Z"/></g>
<g><path style="opacity:1" fill="#448276" d="M 258.5,395.5 C 258.5,405.5 258.5,415.5 258.5,425.5C 253.5,425.5 248.5,425.5 243.5,425.5C 243.5,420.833 243.5,416.167 243.5,411.5C 243.5,411.167 243.5,410.833 243.5,410.5C 243.5,405.5 243.5,400.5 243.5,395.5C 248.5,395.5 253.5,395.5 258.5,395.5 Z"/></g>
<g><path style="opacity:1" fill="#4b8f95" d="M 258.5,395.5 C 263.5,395.5 268.5,395.5 273.5,395.5C 278.5,395.5 283.5,395.5 288.5,395.5C 288.5,400.5 288.5,405.5 288.5,410.5C 293.305,411.487 298.305,411.821 303.5,411.5C 303.5,421.167 303.5,430.833 303.5,440.5C 293.5,440.5 283.5,440.5 273.5,440.5C 273.5,435.5 273.5,430.5 273.5,425.5C 268.5,425.5 263.5,425.5 258.5,425.5C 258.5,415.5 258.5,405.5 258.5,395.5 Z"/></g>
<g><path style="opacity:1" fill="#4abe94" d="M 303.5,380.5 C 304.487,385.305 304.821,390.305 304.5,395.5C 309.5,395.5 314.5,395.5 319.5,395.5C 319.5,415.833 319.5,436.167 319.5,456.5C 314.5,456.5 309.5,456.5 304.5,456.5C 304.5,461.5 304.5,466.5 304.5,471.5C 304.167,471.5 303.833,471.5 303.5,471.5C 298.5,471.5 293.5,471.5 288.5,471.5C 288.5,466.5 288.5,461.5 288.5,456.5C 289.486,460.97 289.819,465.637 289.5,470.5C 294.167,470.5 298.833,470.5 303.5,470.5C 303.5,465.5 303.5,460.5 303.5,455.5C 308.5,455.5 313.5,455.5 318.5,455.5C 318.5,435.833 318.5,416.167 318.5,396.5C 313.5,396.5 308.5,396.5 303.5,396.5C 303.5,391.167 303.5,385.833 303.5,380.5 Z"/></g>
<g><path style="opacity:1" fill="#23494e" d="M 182.5,395.5 C 187.833,395.5 193.167,395.5 198.5,395.5C 198.5,400.5 198.5,405.5 198.5,410.5C 213.5,410.5 228.5,410.5 243.5,410.5C 243.5,410.833 243.5,411.167 243.5,411.5C 228.5,411.5 213.5,411.5 198.5,411.5C 198.5,426.5 198.5,441.5 198.5,456.5C 193.5,456.5 188.5,456.5 183.5,456.5C 187.97,455.514 192.637,455.181 197.5,455.5C 197.5,440.833 197.5,426.167 197.5,411.5C 192.637,411.819 187.97,411.486 183.5,410.5C 183.167,410.5 182.833,410.5 182.5,410.5C 182.5,405.5 182.5,400.5 182.5,395.5 Z"/></g>
<g><path style="opacity:1" fill="#000605" d="M 183.5,410.5 C 183.5,405.833 183.5,401.167 183.5,396.5C 188.167,396.5 192.833,396.5 197.5,396.5C 197.5,401.167 197.5,405.833 197.5,410.5C 192.833,410.5 188.167,410.5 183.5,410.5 Z"/></g>
<g><path style="opacity:1" fill="#000505" d="M 243.5,411.5 C 243.5,416.167 243.5,420.833 243.5,425.5C 243.5,425.833 243.5,426.167 243.5,426.5C 233.5,426.5 223.5,426.5 213.5,426.5C 213.5,436.5 213.5,446.5 213.5,456.5C 208.5,456.5 203.5,456.5 198.5,456.5C 198.5,441.5 198.5,426.5 198.5,411.5C 213.5,411.5 228.5,411.5 243.5,411.5 Z"/></g>
<g><path style="opacity:1" fill="#4bbc96" d="M 288.5,410.5 C 293.833,410.5 299.167,410.5 304.5,410.5C 304.827,420.681 304.494,430.681 303.5,440.5C 303.5,430.833 303.5,421.167 303.5,411.5C 298.305,411.821 293.305,411.487 288.5,410.5 Z"/></g>
<g><path style="opacity:1" fill="#000505" d="M 500.5,411.5 C 500.5,421.5 500.5,431.5 500.5,441.5C 495.5,441.5 490.5,441.5 485.5,441.5C 485.5,431.5 485.5,421.5 485.5,411.5C 490.5,411.5 495.5,411.5 500.5,411.5 Z"/></g>
<g><path style="opacity:1" fill="#509b8e" d="M 92.5,425.5 C 97.5,425.5 102.5,425.5 107.5,425.5C 107.5,430.833 107.5,436.167 107.5,441.5C 102.5,441.5 97.5,441.5 92.5,441.5C 92.5,436.167 92.5,430.833 92.5,425.5 Z"/></g>
<g><path style="opacity:1" fill="#49b893" d="M 152.5,395.5 C 153.167,395.5 153.5,395.833 153.5,396.5C 153.5,406.167 153.5,415.833 153.5,425.5C 158.5,425.5 163.5,425.5 168.5,425.5C 168.5,435.833 168.5,446.167 168.5,456.5C 163.167,456.5 157.833,456.5 152.5,456.5C 152.5,451.5 152.5,446.5 152.5,441.5C 153.486,445.97 153.819,450.637 153.5,455.5C 158.167,455.5 162.833,455.5 167.5,455.5C 167.5,445.833 167.5,436.167 167.5,426.5C 162.5,426.5 157.5,426.5 152.5,426.5C 152.5,416.167 152.5,405.833 152.5,395.5 Z"/></g>
<g><path style="opacity:1" fill="#4a8e94" d="M 243.5,425.5 C 248.5,425.5 253.5,425.5 258.5,425.5C 258.5,435.833 258.5,446.167 258.5,456.5C 253.5,456.5 248.5,456.5 243.5,456.5C 243.5,446.5 243.5,436.5 243.5,426.5C 243.5,426.167 243.5,425.833 243.5,425.5 Z"/></g>
<g><path style="opacity:1" fill="#5bafb0" d="M 394.5,425.5 C 399.5,425.5 404.5,425.5 409.5,425.5C 409.5,430.5 409.5,435.5 409.5,440.5C 409.5,440.833 409.5,441.167 409.5,441.5C 404.5,441.5 399.5,441.5 394.5,441.5C 394.5,441.167 394.5,440.833 394.5,440.5C 394.5,435.5 394.5,430.5 394.5,425.5 Z"/></g>
<g><path style="opacity:1" fill="#56adae" d="M 439.5,425.5 C 439.5,425.833 439.5,426.167 439.5,426.5C 439.5,431.167 439.5,435.833 439.5,440.5C 434.5,440.5 429.5,440.5 424.5,440.5C 424.5,435.5 424.5,430.5 424.5,425.5C 429.5,425.5 434.5,425.5 439.5,425.5 Z"/></g>
<g><path style="opacity:1" fill="#4b8f96" d="M 439.5,426.5 C 444.5,426.5 449.5,426.5 454.5,426.5C 454.5,431.167 454.5,435.833 454.5,440.5C 449.405,440.221 444.405,440.555 439.5,441.5C 439.5,441.167 439.5,440.833 439.5,440.5C 439.5,435.833 439.5,431.167 439.5,426.5 Z"/></g>
<g><path style="opacity:1" fill="#56adae" d="M 454.5,425.5 C 459.5,425.5 464.5,425.5 469.5,425.5C 469.5,430.5 469.5,435.5 469.5,440.5C 464.5,440.5 459.5,440.5 454.5,440.5C 454.5,435.833 454.5,431.167 454.5,426.5C 454.5,426.167 454.5,425.833 454.5,425.5 Z"/></g>
<g><path style="opacity:1" fill="#488579" d="M 107.5,441.5 C 112.5,441.5 117.5,441.5 122.5,441.5C 122.5,446.5 122.5,451.5 122.5,456.5C 117.5,456.5 112.5,456.5 107.5,456.5C 107.5,456.167 107.5,455.833 107.5,455.5C 107.5,450.833 107.5,446.167 107.5,441.5 Z"/></g>
<g><path style="opacity:1" fill="#54a091" d="M 152.5,441.5 C 152.5,446.5 152.5,451.5 152.5,456.5C 147.5,456.5 142.5,456.5 137.5,456.5C 137.5,451.167 137.5,445.833 137.5,440.5C 142.695,440.179 147.695,440.513 152.5,441.5 Z"/></g>
<g><path style="opacity:1" fill="#285052" d="M 349.5,440.5 C 349.5,440.833 349.5,441.167 349.5,441.5C 344.5,441.5 339.5,441.5 334.5,441.5C 334.5,451.5 334.5,461.5 334.5,471.5C 329.5,471.5 324.5,471.5 319.5,471.5C 323.97,470.514 328.637,470.181 333.5,470.5C 333.5,460.5 333.5,450.5 333.5,440.5C 338.833,440.5 344.167,440.5 349.5,440.5 Z"/></g>
<g><path style="opacity:1" fill="#000505" d="M 349.5,441.5 C 349.5,451.5 349.5,461.5 349.5,471.5C 344.5,471.5 339.5,471.5 334.5,471.5C 334.5,461.5 334.5,451.5 334.5,441.5C 339.5,441.5 344.5,441.5 349.5,441.5 Z"/></g>
<g><path style="opacity:1" fill="#448175" d="M 378.5,440.5 C 383.833,440.5 389.167,440.5 394.5,440.5C 394.5,440.833 394.5,441.167 394.5,441.5C 394.5,446.167 394.5,450.833 394.5,455.5C 399.5,455.5 404.5,455.5 409.5,455.5C 409.5,450.833 409.5,446.167 409.5,441.5C 409.5,441.167 409.5,440.833 409.5,440.5C 414.5,440.5 419.5,440.5 424.5,440.5C 424.5,445.833 424.5,451.167 424.5,456.5C 414.5,456.5 404.5,456.5 394.5,456.5C 389.167,456.5 383.833,456.5 378.5,456.5C 378.5,451.167 378.5,445.833 378.5,440.5 Z"/></g>
<g><path style="opacity:1" fill="#e0e1e0" d="M 394.5,441.5 C 399.5,441.5 404.5,441.5 409.5,441.5C 409.5,446.167 409.5,450.833 409.5,455.5C 404.5,455.5 399.5,455.5 394.5,455.5C 394.5,450.833 394.5,446.167 394.5,441.5 Z"/></g>
<g><path style="opacity:1" fill="#d9dbdb" d="M 424.5,440.5 C 429.5,440.5 434.5,440.5 439.5,440.5C 439.5,440.833 439.5,441.167 439.5,441.5C 439.5,446.5 439.5,451.5 439.5,456.5C 434.5,456.5 429.5,456.5 424.5,456.5C 424.5,451.167 424.5,445.833 424.5,440.5 Z"/></g>
<g><path style="opacity:1" fill="#448175" d="M 454.5,440.5 C 454.5,445.833 454.5,451.167 454.5,456.5C 449.5,456.5 444.5,456.5 439.5,456.5C 439.5,451.5 439.5,446.5 439.5,441.5C 444.405,440.555 449.405,440.221 454.5,440.5 Z"/></g>
<g><path style="opacity:1" fill="#96afad" d="M 454.5,440.5 C 459.5,440.5 464.5,440.5 469.5,440.5C 469.833,440.5 470.167,440.5 470.5,440.5C 470.5,445.833 470.5,451.167 470.5,456.5C 465.167,456.5 459.833,456.5 454.5,456.5C 454.5,451.167 454.5,445.833 454.5,440.5 Z"/></g>
<g><path style="opacity:1" fill="#e0e1e0" d="M 455.5,441.5 C 460.167,441.5 464.833,441.5 469.5,441.5C 469.5,446.167 469.5,450.833 469.5,455.5C 464.833,455.5 460.167,455.5 455.5,455.5C 455.5,450.833 455.5,446.167 455.5,441.5 Z"/></g>
<g><path style="opacity:1" fill="#438276" d="M 470.5,440.5 C 475.167,440.5 479.833,440.5 484.5,440.5C 484.5,441.167 484.833,441.5 485.5,441.5C 485.5,446.5 485.5,451.5 485.5,456.5C 480.5,456.5 475.5,456.5 470.5,456.5C 470.5,451.167 470.5,445.833 470.5,440.5 Z"/></g>
<g><path style="opacity:1" fill="#32695d" d="M 107.5,455.5 C 107.5,455.833 107.5,456.167 107.5,456.5C 107.5,461.5 107.5,466.5 107.5,471.5C 102.5,471.5 97.5,471.5 92.5,471.5C 92.5,466.167 92.5,460.833 92.5,455.5C 97.5,455.5 102.5,455.5 107.5,455.5 Z"/></g>
<g><path style="opacity:1" fill="#f5f5f5" d="M 107.5,456.5 C 112.5,456.5 117.5,456.5 122.5,456.5C 122.5,461.5 122.5,466.5 122.5,471.5C 117.5,471.5 112.5,471.5 107.5,471.5C 107.5,466.5 107.5,461.5 107.5,456.5 Z"/></g>
<g><path style="opacity:1" fill="#32695c" d="M 122.5,456.5 C 127.5,456.5 132.5,456.5 137.5,456.5C 137.5,461.5 137.5,466.5 137.5,471.5C 132.5,471.5 127.5,471.5 122.5,471.5C 122.5,466.5 122.5,461.5 122.5,456.5 Z"/></g>
<g><path style="opacity:1" fill="#f2f3f3" d="M 137.5,456.5 C 142.5,456.5 147.5,456.5 152.5,456.5C 152.5,461.5 152.5,466.5 152.5,471.5C 147.5,471.5 142.5,471.5 137.5,471.5C 137.5,466.5 137.5,461.5 137.5,456.5 Z"/></g>
<g><path style="opacity:1" fill="#366b61" d="M 152.5,456.5 C 157.833,456.5 163.167,456.5 168.5,456.5C 168.5,461.167 168.5,465.833 168.5,470.5C 173.167,470.5 177.833,470.5 182.5,470.5C 182.181,465.637 182.514,460.97 183.5,456.5C 183.5,461.5 183.5,466.5 183.5,471.5C 173.167,471.5 162.833,471.5 152.5,471.5C 152.5,466.5 152.5,461.5 152.5,456.5 Z"/></g>
<g><path style="opacity:1" fill="#000505" d="M 183.5,456.5 C 188.5,456.5 193.5,456.5 198.5,456.5C 198.5,461.5 198.5,466.5 198.5,471.5C 193.5,471.5 188.5,471.5 183.5,471.5C 183.5,466.5 183.5,461.5 183.5,456.5 Z"/></g>
<g><path style="opacity:1" fill="#4d9097" d="M 288.5,456.5 C 288.5,461.5 288.5,466.5 288.5,471.5C 283.5,471.5 278.5,471.5 273.5,471.5C 273.5,466.5 273.5,461.5 273.5,456.5C 278.5,456.5 283.5,456.5 288.5,456.5 Z"/></g>
<g><path style="opacity:1" fill="#000505" d="M 394.5,456.5 C 404.5,456.5 414.5,456.5 424.5,456.5C 429.5,456.5 434.5,456.5 439.5,456.5C 444.5,456.5 449.5,456.5 454.5,456.5C 459.833,456.5 465.167,456.5 470.5,456.5C 470.5,461.5 470.5,466.5 470.5,471.5C 445.167,471.5 419.833,471.5 394.5,471.5C 394.5,466.5 394.5,461.5 394.5,456.5 Z"/></g>
<g><path style="opacity:1" fill="#000505" d="M 107.5,471.5 C 112.5,471.5 117.5,471.5 122.5,471.5C 127.5,471.5 132.5,471.5 137.5,471.5C 142.5,471.5 147.5,471.5 152.5,471.5C 162.833,471.5 173.167,471.5 183.5,471.5C 183.5,476.5 183.5,481.5 183.5,486.5C 158.167,486.5 132.833,486.5 107.5,486.5C 107.5,481.5 107.5,476.5 107.5,471.5 Z"/></g>
<g><path style="opacity:1" fill="#336a5e" d="M 243.5,456.5 C 248.5,456.5 253.5,456.5 258.5,456.5C 258.5,461.5 258.5,466.5 258.5,471.5C 253.5,471.5 248.5,471.5 243.5,471.5C 243.5,476.5 243.5,481.5 243.5,486.5C 238.167,486.5 232.833,486.5 227.5,486.5C 227.334,481.489 227.501,476.489 228,471.5C 233.072,470.529 238.238,470.195 243.5,470.5C 243.5,465.833 243.5,461.167 243.5,456.5 Z"/></g>
<g><path style="opacity:1" fill="#f5f5f5" d="M 258.5,471.5 C 258.5,476.5 258.5,481.5 258.5,486.5C 253.5,486.5 248.5,486.5 243.5,486.5C 243.5,481.5 243.5,476.5 243.5,471.5C 248.5,471.5 253.5,471.5 258.5,471.5 Z"/></g>
<g><path style="opacity:1" fill="#31685b" d="M 258.5,471.5 C 263.5,471.5 268.5,471.5 273.5,471.5C 273.5,476.5 273.5,481.5 273.5,486.5C 268.5,486.5 263.5,486.5 258.5,486.5C 258.5,481.5 258.5,476.5 258.5,471.5 Z"/></g>
<g><path style="opacity:1" fill="#f4f4f4" d="M 273.5,471.5 C 278.5,471.5 283.5,471.5 288.5,471.5C 288.5,476.5 288.5,481.5 288.5,486.5C 283.5,486.5 278.5,486.5 273.5,486.5C 273.5,481.5 273.5,476.5 273.5,471.5 Z"/></g>
<g><path style="opacity:1" fill="#346a5e" d="M 288.5,471.5 C 293.5,471.5 298.5,471.5 303.5,471.5C 303.5,476.5 303.5,481.5 303.5,486.5C 298.5,486.5 293.5,486.5 288.5,486.5C 288.5,481.5 288.5,476.5 288.5,471.5 Z"/></g>
<g><path style="opacity:1" fill="#f9faf9" d="M 304.5,471.5 C 309.167,471.5 313.833,471.5 318.5,471.5C 318.5,476.167 318.5,480.833 318.5,485.5C 313.833,485.5 309.167,485.5 304.5,485.5C 304.5,480.833 304.5,476.167 304.5,471.5 Z"/></g>
<g><path style="opacity:1" fill="#000505" d="M 319.5,471.5 C 324.5,471.5 329.5,471.5 334.5,471.5C 334.5,476.5 334.5,481.5 334.5,486.5C 329.5,486.5 324.5,486.5 319.5,486.5C 319.5,481.5 319.5,476.5 319.5,471.5 Z"/></g>
<g><path style="opacity:1" fill="#b5bbbb" d="M 303.5,471.5 C 303.833,471.5 304.167,471.5 304.5,471.5C 304.5,476.167 304.5,480.833 304.5,485.5C 309.167,485.5 313.833,485.5 318.5,485.5C 318.5,485.833 318.5,486.167 318.5,486.5C 313.5,486.5 308.5,486.5 303.5,486.5C 303.5,481.5 303.5,476.5 303.5,471.5 Z"/></g>
<g><path style="opacity:1" fill="#000505" d="M 243.5,486.5 C 248.5,486.5 253.5,486.5 258.5,486.5C 263.5,486.5 268.5,486.5 273.5,486.5C 278.5,486.5 283.5,486.5 288.5,486.5C 293.5,486.5 298.5,486.5 303.5,486.5C 308.5,486.5 313.5,486.5 318.5,486.5C 318.833,486.5 319.167,486.5 319.5,486.5C 319.5,491.5 319.5,496.5 319.5,501.5C 294.167,501.5 268.833,501.5 243.5,501.5C 243.5,496.5 243.5,491.5 243.5,486.5 Z"/></g>
</svg>
