<?xml version="1.0" encoding="UTF-8"?>
<!DOCTYPE svg PUBLIC "-//W3C//DTD SVG 1.1//EN" "http://www.w3.org/Graphics/SVG/1.1/DTD/svg11.dtd">
<svg xmlns="http://www.w3.org/2000/svg" version="1.1" width="490px" height="650px" style="shape-rendering:geometricPrecision; text-rendering:geometricPrecision; image-rendering:optimizeQuality; fill-rule:evenodd; clip-rule:evenodd" xmlns:xlink="http://www.w3.org/1999/xlink">
<g><path style="opacity:1" fill="#002a51" d="M 180.5,8.5 C 198.5,8.5 216.5,8.5 234.5,8.5C 234.5,14.5 234.5,20.5 234.5,26.5C 222.5,26.5 210.5,26.5 198.5,26.5C 192.5,26.5 186.5,26.5 180.5,26.5C 180.5,20.5 180.5,14.5 180.5,8.5 Z"/></g>
<g><path style="opacity:1" fill="#0c385c" d="M 234.5,8.5 C 246.833,8.5 259.167,8.5 271.5,8.5C 271.5,14.5 271.5,20.5 271.5,26.5C 259.167,26.5 246.833,26.5 234.5,26.5C 234.5,20.5 234.5,14.5 234.5,8.5 Z"/></g>
<g><path style="opacity:1" fill="#0c385d" d="M 180.5,8.5 C 180.5,14.5 180.5,20.5 180.5,26.5C 168.5,26.5 156.5,26.5 144.5,26.5C 144.5,32.5 144.5,38.5 144.5,44.5C 132.167,44.5 119.833,44.5 107.5,44.5C 107.5,38.5 107.5,32.5 107.5,26.5C 119.5,26.5 131.5,26.5 143.5,26.5C 143.5,20.5 143.5,14.5 143.5,8.5C 155.833,8.5 168.167,8.5 180.5,8.5 Z"/></g>
<g><path style="opacity:1" fill="#0b375c" d="M 271.5,26.5 C 277.5,26.5 283.5,26.5 289.5,26.5C 289.5,32.5 289.5,38.5 289.5,44.5C 283.5,44.5 277.5,44.5 271.5,44.5C 271.5,38.5 271.5,32.5 271.5,26.5 Z"/></g>
<g><path style="opacity:1" fill="#002a51" d="M 289.5,26.5 C 295.5,26.5 301.5,26.5 307.5,26.5C 307.5,32.5 307.5,38.5 307.5,44.5C 301.5,44.5 295.5,44.5 289.5,44.5C 289.5,38.5 289.5,32.5 289.5,26.5 Z"/></g>
<g><path style="opacity:1" fill="#3d82c0" d="M 180.5,26.5 C 186.5,26.5 192.5,26.5 198.5,26.5C 198.5,32.5 198.5,38.5 198.5,44.5C 204.5,44.5 210.5,44.5 216.5,44.5C 216.5,56.5 216.5,68.5 216.5,80.5C 210.5,80.5 204.5,80.5 198.5,80.5C 198.5,86.8333 198.5,93.1667 198.5,99.5C 186.5,99.5 174.5,99.5 162.5,99.5C 162.5,105.5 162.5,111.5 162.5,117.5C 144.5,117.5 126.5,117.5 108.5,117.5C 108.5,135.5 108.5,153.5 108.5,171.5C 107.505,159.678 107.172,147.678 107.5,135.5C 101.833,135.5 96.1667,135.5 90.5,135.5C 90.8229,141.69 90.4896,147.69 89.5,153.5C 89.5,141.5 89.5,129.5 89.5,117.5C 83.5,117.5 77.5,117.5 71.5,117.5C 71.5,111.5 71.5,105.5 71.5,99.5C 65.5,99.5 59.5,99.5 53.5,99.5C 53.5,93.1667 53.5,86.8333 53.5,80.5C 59.5,80.5 65.5,80.5 71.5,80.5C 71.5,74.5 71.5,68.5 71.5,62.5C 77.8333,62.5 84.1667,62.5 90.5,62.5C 96.1667,62.5 101.833,62.5 107.5,62.5C 107.5,56.5 107.5,50.5 107.5,44.5C 119.833,44.5 132.167,44.5 144.5,44.5C 144.5,38.5 144.5,32.5 144.5,26.5C 156.5,26.5 168.5,26.5 180.5,26.5 Z"/></g>
<g><path style="opacity:1" fill="#1f568e" d="M 198.5,26.5 C 210.5,26.5 222.5,26.5 234.5,26.5C 246.833,26.5 259.167,26.5 271.5,26.5C 271.5,32.5 271.5,38.5 271.5,44.5C 277.5,44.5 283.5,44.5 289.5,44.5C 295.5,44.5 301.5,44.5 307.5,44.5C 307.5,50.5 307.5,56.5 307.5,62.5C 313.5,62.5 319.5,62.5 325.5,62.5C 331.5,62.5 337.5,62.5 343.5,62.5C 343.5,68.5 343.5,74.5 343.5,80.5C 349.5,80.5 355.5,80.5 361.5,80.5C 361.5,86.5 361.5,92.5 361.5,98.5C 367.5,98.5 373.5,98.5 379.5,98.5C 379.5,110.833 379.5,123.167 379.5,135.5C 385.5,135.5 391.5,135.5 397.5,135.5C 397.5,147.5 397.5,159.5 397.5,171.5C 397.5,189.5 397.5,207.5 397.5,225.5C 391.5,225.5 385.5,225.5 379.5,225.5C 379.5,231.5 379.5,237.5 379.5,243.5C 373.5,243.5 367.5,243.5 361.5,243.5C 361.5,249.5 361.5,255.5 361.5,261.5C 355.5,261.5 349.5,261.5 343.5,261.5C 343.5,237.5 343.5,213.5 343.5,189.5C 337.5,189.5 331.5,189.5 325.5,189.5C 325.5,183.5 325.5,177.5 325.5,171.5C 325.5,165.5 325.5,159.5 325.5,153.5C 319.5,153.5 313.5,153.5 307.5,153.5C 301.167,153.5 294.833,153.5 288.5,153.5C 288.5,147.5 288.5,141.5 288.5,135.5C 282.5,135.5 276.5,135.5 270.5,135.5C 252.5,135.5 234.5,135.5 216.5,135.5C 210.5,135.5 204.5,135.5 198.5,135.5C 192.5,135.5 186.5,135.5 180.5,135.5C 180.5,141.5 180.5,147.5 180.5,153.5C 174.5,153.5 168.5,153.5 162.5,153.5C 156.5,153.5 150.5,153.5 144.5,153.5C 138.5,153.5 132.5,153.5 126.5,153.5C 126.5,159.5 126.5,165.5 126.5,171.5C 120.5,171.5 114.5,171.5 108.5,171.5C 108.5,153.5 108.5,135.5 108.5,117.5C 126.5,117.5 144.5,117.5 162.5,117.5C 162.5,111.5 162.5,105.5 162.5,99.5C 174.5,99.5 186.5,99.5 198.5,99.5C 198.5,93.1667 198.5,86.8333 198.5,80.5C 204.5,80.5 210.5,80.5 216.5,80.5C 216.5,68.5 216.5,56.5 216.5,44.5C 210.5,44.5 204.5,44.5 198.5,44.5C 198.5,38.5 198.5,32.5 198.5,26.5 Z"/></g>
<g><path style="opacity:1" fill="#1f578f" d="M 90.5,44.5 C 96.1667,44.5 101.833,44.5 107.5,44.5C 107.5,50.5 107.5,56.5 107.5,62.5C 101.833,62.5 96.1667,62.5 90.5,62.5C 90.5,56.5 90.5,50.5 90.5,44.5 Z"/></g>
<g><path style="opacity:1" fill="#002a51" d="M 325.5,44.5 C 331.5,44.5 337.5,44.5 343.5,44.5C 343.5,50.5 343.5,56.5 343.5,62.5C 337.5,62.5 331.5,62.5 325.5,62.5C 325.5,56.5 325.5,50.5 325.5,44.5 Z"/></g>
<g><path style="opacity:1" fill="#0c385d" d="M 90.5,44.5 C 90.5,50.5 90.5,56.5 90.5,62.5C 84.1667,62.5 77.8333,62.5 71.5,62.5C 71.5,56.5 71.5,50.5 71.5,44.5C 77.8333,44.5 84.1667,44.5 90.5,44.5 Z"/></g>
<g><path style="opacity:1" fill="#0b375c" d="M 307.5,44.5 C 313.5,44.5 319.5,44.5 325.5,44.5C 325.5,50.5 325.5,56.5 325.5,62.5C 319.5,62.5 313.5,62.5 307.5,62.5C 307.5,56.5 307.5,50.5 307.5,44.5 Z"/></g>
<g><path style="opacity:1" fill="#002a51" d="M 343.5,62.5 C 349.5,62.5 355.5,62.5 361.5,62.5C 361.5,68.5 361.5,74.5 361.5,80.5C 361.5,74.5 361.5,68.5 361.5,62.5C 355.5,62.5 349.5,62.5 343.5,62.5 Z"/></g>
<g><path style="opacity:1" fill="#0c385c" d="M 71.5,62.5 C 71.5,68.5 71.5,74.5 71.5,80.5C 65.5,80.5 59.5,80.5 53.5,80.5C 53.5,74.5 53.5,68.5 53.5,62.5C 59.5,62.5 65.5,62.5 71.5,62.5 Z"/></g>
<g><path style="opacity:1" fill="#002a51" d="M 361.5,80.5 C 367.5,80.5 373.5,80.5 379.5,80.5C 379.5,86.5 379.5,92.5 379.5,98.5C 379.5,92.5 379.5,86.5 379.5,80.5C 373.5,80.5 367.5,80.5 361.5,80.5 Z"/></g>
<g><path style="opacity:1" fill="#0c385d" d="M 53.5,80.5 C 53.5,86.8333 53.5,93.1667 53.5,99.5C 47.5,99.5 41.5,99.5 35.5,99.5C 35.5,93.1667 35.5,86.8333 35.5,80.5C 41.5,80.5 47.5,80.5 53.5,80.5 Z"/></g>
<g><path style="opacity:1" fill="#1f578f" d="M 35.5,99.5 C 41.5,99.5 47.5,99.5 53.5,99.5C 59.5,99.5 65.5,99.5 71.5,99.5C 71.5,105.5 71.5,111.5 71.5,117.5C 77.5,117.5 83.5,117.5 89.5,117.5C 89.5,129.5 89.5,141.5 89.5,153.5C 83.5,153.5 77.5,153.5 71.5,153.5C 71.5,159.5 71.5,165.5 71.5,171.5C 65.5,171.5 59.5,171.5 53.5,171.5C 53.5,165.5 53.5,159.5 53.5,153.5C 47.5,153.5 41.5,153.5 35.5,153.5C 35.5,141.167 35.5,128.833 35.5,116.5C 35.5,110.833 35.5,105.167 35.5,99.5 Z"/></g>
<g><path style="opacity:1" fill="#0c385c" d="M 35.5,116.5 C 35.5,128.833 35.5,141.167 35.5,153.5C 29.5,153.5 23.5,153.5 17.5,153.5C 17.5,141.167 17.5,128.833 17.5,116.5C 23.5,116.5 29.5,116.5 35.5,116.5 Z"/></g>
<g><path style="opacity:1" fill="#0c385d" d="M 216.5,117.5 C 234.5,117.5 252.5,117.5 270.5,117.5C 270.5,123.167 270.5,128.833 270.5,134.5C 252.5,134.5 234.5,134.5 216.5,134.5C 216.5,128.833 216.5,123.167 216.5,117.5 Z"/></g>
<g><path style="opacity:1" fill="#002b50" d="M 379.5,98.5 C 385.5,98.5 391.5,98.5 397.5,98.5C 397.5,110.5 397.5,122.5 397.5,134.5C 403.833,134.5 410.167,134.5 416.5,134.5C 416.5,146.833 416.5,159.167 416.5,171.5C 410.167,171.5 403.833,171.5 397.5,171.5C 397.5,159.5 397.5,147.5 397.5,135.5C 391.5,135.5 385.5,135.5 379.5,135.5C 379.5,123.167 379.5,110.833 379.5,98.5 Z"/></g>
<g><path style="opacity:1" fill="#69a7e0" d="M 108.5,171.5 C 114.5,171.5 120.5,171.5 126.5,171.5C 132.5,171.5 138.5,171.5 144.5,171.5C 144.5,183.5 144.5,195.5 144.5,207.5C 144.5,225.5 144.5,243.5 144.5,261.5C 144.167,261.5 143.833,261.5 143.5,261.5C 143.5,243.5 143.5,225.5 143.5,207.5C 137.833,207.5 132.167,207.5 126.5,207.5C 126.5,219.833 126.5,232.167 126.5,244.5C 120.5,244.5 114.5,244.5 108.5,244.5C 108.5,244.167 108.5,243.833 108.5,243.5C 108.5,237.5 108.5,231.5 108.5,225.5C 96.1667,225.5 83.8333,225.5 71.5,225.5C 71.5,231.5 71.5,237.5 71.5,243.5C 65.5,243.5 59.5,243.5 53.5,243.5C 53.5,225.5 53.5,207.5 53.5,189.5C 47.5,189.5 41.5,189.5 35.5,189.5C 35.5,183.5 35.5,177.5 35.5,171.5C 35.5,165.5 35.5,159.5 35.5,153.5C 41.5,153.5 47.5,153.5 53.5,153.5C 53.5,159.5 53.5,165.5 53.5,171.5C 59.5,171.5 65.5,171.5 71.5,171.5C 71.5,165.5 71.5,159.5 71.5,153.5C 77.5,153.5 83.5,153.5 89.5,153.5C 90.4896,147.69 90.8229,141.69 90.5,135.5C 96.1667,135.5 101.833,135.5 107.5,135.5C 107.172,147.678 107.505,159.678 108.5,171.5 Z"/></g>
<g><path style="opacity:1" fill="#0e395d" d="M 198.5,135.5 C 198.5,141.5 198.5,147.5 198.5,153.5C 192.5,153.5 186.5,153.5 180.5,153.5C 180.5,147.5 180.5,141.5 180.5,135.5C 186.5,135.5 192.5,135.5 198.5,135.5 Z"/></g>
<g><path style="opacity:1" fill="#96cef9" d="M 198.5,135.5 C 204.5,135.5 210.5,135.5 216.5,135.5C 216.5,141.5 216.5,147.5 216.5,153.5C 210.5,153.5 204.5,153.5 198.5,153.5C 198.5,147.5 198.5,141.5 198.5,135.5 Z"/></g>
<g><path style="opacity:1" fill="#e0ecf9" d="M 216.5,135.5 C 234.5,135.5 252.5,135.5 270.5,135.5C 276.5,135.5 282.5,135.5 288.5,135.5C 288.5,141.5 288.5,147.5 288.5,153.5C 294.833,153.5 301.167,153.5 307.5,153.5C 307.5,159.5 307.5,165.5 307.5,171.5C 307.5,177.5 307.5,183.5 307.5,189.5C 313.167,189.5 318.833,189.5 324.5,189.5C 324.5,219.5 324.5,249.5 324.5,279.5C 312.833,279.5 301.167,279.5 289.5,279.5C 289.5,285.833 289.5,292.167 289.5,298.5C 277.167,298.5 264.833,298.5 252.5,298.5C 252.5,304.5 252.5,310.5 252.5,316.5C 222.5,316.5 192.5,316.5 162.5,316.5C 162.5,310.5 162.5,304.5 162.5,298.5C 156.5,298.5 150.5,298.5 144.5,298.5C 144.5,292.5 144.5,286.5 144.5,280.5C 144.5,274.167 144.5,267.833 144.5,261.5C 144.5,243.5 144.5,225.5 144.5,207.5C 150.5,207.5 156.5,207.5 162.5,207.5C 162.5,195.5 162.5,183.5 162.5,171.5C 168.5,171.5 174.5,171.5 180.5,171.5C 180.5,165.5 180.5,159.5 180.5,153.5C 186.5,153.5 192.5,153.5 198.5,153.5C 204.5,153.5 210.5,153.5 216.5,153.5C 216.5,147.5 216.5,141.5 216.5,135.5 Z"/></g>
<g><path style="opacity:1" fill="#97cefa" d="M 270.5,135.5 C 276.5,135.5 282.5,135.5 288.5,135.5C 288.5,141.5 288.5,147.5 288.5,153.5C 282.5,153.5 276.5,153.5 270.5,153.5C 270.5,147.5 270.5,141.5 270.5,135.5 Z"/></g>
<g><path style="opacity:1" fill="#0c385d" d="M 289.5,135.5 C 295.5,135.5 301.5,135.5 307.5,135.5C 307.5,141.167 307.5,146.833 307.5,152.5C 301.5,152.5 295.5,152.5 289.5,152.5C 289.5,146.833 289.5,141.167 289.5,135.5 Z"/></g>
<g><path style="opacity:1" fill="#3e83c1" d="M 144.5,153.5 C 144.5,159.5 144.5,165.5 144.5,171.5C 138.5,171.5 132.5,171.5 126.5,171.5C 126.5,165.5 126.5,159.5 126.5,153.5C 132.5,153.5 138.5,153.5 144.5,153.5 Z"/></g>
<g><path style="opacity:1" fill="#69a7e0" d="M 144.5,153.5 C 150.5,153.5 156.5,153.5 162.5,153.5C 162.5,159.5 162.5,165.5 162.5,171.5C 156.5,171.5 150.5,171.5 144.5,171.5C 144.5,165.5 144.5,159.5 144.5,153.5 Z"/></g>
<g><path style="opacity:1" fill="#103a5e" d="M 162.5,153.5 C 168.5,153.5 174.5,153.5 180.5,153.5C 180.5,159.5 180.5,165.5 180.5,171.5C 174.5,171.5 168.5,171.5 162.5,171.5C 162.5,165.5 162.5,159.5 162.5,153.5 Z"/></g>
<g><path style="opacity:1" fill="#0d395e" d="M 307.5,153.5 C 313.5,153.5 319.5,153.5 325.5,153.5C 325.5,159.5 325.5,165.5 325.5,171.5C 319.5,171.5 313.5,171.5 307.5,171.5C 307.5,165.5 307.5,159.5 307.5,153.5 Z"/></g>
<g><path style="opacity:1" fill="#123270" d="M 17.5,153.5 C 23.5,153.5 29.5,153.5 35.5,153.5C 35.5,159.5 35.5,165.5 35.5,171.5C 29.8333,171.5 24.1667,171.5 18.5,171.5C 18.5,177.5 18.5,183.5 18.5,189.5C 17.5049,201.322 17.1716,213.322 17.5,225.5C 17.5,237.5 17.5,249.5 17.5,261.5C 23.5,261.5 29.5,261.5 35.5,261.5C 35.5,261.833 35.5,262.167 35.5,262.5C 29.5,262.5 23.5,262.5 17.5,262.5C 11.5,262.5 5.5,262.5 -0.5,262.5C -0.5,231.833 -0.5,201.167 -0.5,170.5C 5.5,170.5 11.5,170.5 17.5,170.5C 17.5,164.833 17.5,159.167 17.5,153.5 Z"/></g>
<g><path style="opacity:1" fill="#3f83c1" d="M 144.5,171.5 C 150.5,171.5 156.5,171.5 162.5,171.5C 162.5,183.5 162.5,195.5 162.5,207.5C 156.5,207.5 150.5,207.5 144.5,207.5C 144.5,195.5 144.5,183.5 144.5,171.5 Z"/></g>
<g><path style="opacity:1" fill="#93c4ed" d="M 307.5,171.5 C 313.5,171.5 319.5,171.5 325.5,171.5C 325.5,177.5 325.5,183.5 325.5,189.5C 325.5,195.5 325.5,201.5 325.5,207.5C 325.5,231.5 325.5,255.5 325.5,279.5C 325.167,279.5 324.833,279.5 324.5,279.5C 324.5,249.5 324.5,219.5 324.5,189.5C 318.833,189.5 313.167,189.5 307.5,189.5C 307.5,183.5 307.5,177.5 307.5,171.5 Z"/></g>
<g><path style="opacity:1" fill="#000000" d="M 397.5,171.5 C 403.833,171.5 410.167,171.5 416.5,171.5C 416.5,201.833 416.5,232.167 416.5,262.5C 410.167,262.5 403.833,262.5 397.5,262.5C 397.5,274.5 397.5,286.5 397.5,298.5C 391.5,298.5 385.5,298.5 379.5,298.5C 379.5,286.167 379.5,273.833 379.5,261.5C 385.5,261.5 391.5,261.5 397.5,261.5C 397.5,249.5 397.5,237.5 397.5,225.5C 397.5,207.5 397.5,189.5 397.5,171.5 Z"/></g>
<g><path style="opacity:1" fill="#dfebf8" d="M 18.5,189.5 C 24.1667,189.5 29.8333,189.5 35.5,189.5C 35.5,201.5 35.5,213.5 35.5,225.5C 29.5,225.5 23.5,225.5 17.5,225.5C 17.1716,213.322 17.5049,201.322 18.5,189.5 Z"/></g>
<g><path style="opacity:1" fill="#3e83c1" d="M 35.5,189.5 C 41.5,189.5 47.5,189.5 53.5,189.5C 53.5,207.5 53.5,225.5 53.5,243.5C 47.5,243.5 41.5,243.5 35.5,243.5C 35.5,237.5 35.5,231.5 35.5,225.5C 35.5,213.5 35.5,201.5 35.5,189.5 Z"/></g>
<g><path style="opacity:1" fill="#002a51" d="M 325.5,207.5 C 331.167,207.5 336.833,207.5 342.5,207.5C 342.373,231.509 342.706,255.509 343.5,279.5C 337.5,279.5 331.5,279.5 325.5,279.5C 325.5,255.5 325.5,231.5 325.5,207.5 Z"/></g>
<g><path style="opacity:1" fill="#3e83c1" d="M 143.5,261.5 C 131.833,261.5 120.167,261.5 108.5,261.5C 108.5,255.833 108.5,250.167 108.5,244.5C 114.5,244.5 120.5,244.5 126.5,244.5C 126.5,232.167 126.5,219.833 126.5,207.5C 132.167,207.5 137.833,207.5 143.5,207.5C 143.5,225.5 143.5,243.5 143.5,261.5 Z"/></g>
<g><path style="opacity:1" fill="#96cef9" d="M 216.5,207.5 C 216.5,213.5 216.5,219.5 216.5,225.5C 210.5,225.5 204.5,225.5 198.5,225.5C 198.5,219.5 198.5,213.5 198.5,207.5C 204.5,207.5 210.5,207.5 216.5,207.5 Z"/></g>
<g><path style="opacity:1" fill="#143371" d="M 216.5,207.5 C 222.5,207.5 228.5,207.5 234.5,207.5C 234.5,213.5 234.5,219.5 234.5,225.5C 228.5,225.5 222.5,225.5 216.5,225.5C 216.5,219.5 216.5,213.5 216.5,207.5 Z"/></g>
<g><path style="opacity:1" fill="#94ccf8" d="M 234.5,207.5 C 240.5,207.5 246.5,207.5 252.5,207.5C 252.5,213.5 252.5,219.5 252.5,225.5C 246.5,225.5 240.5,225.5 234.5,225.5C 234.5,219.5 234.5,213.5 234.5,207.5 Z"/></g>
<g><path style="opacity:1" fill="#95ccf8" d="M 17.5,225.5 C 23.5,225.5 29.5,225.5 35.5,225.5C 35.5,231.5 35.5,237.5 35.5,243.5C 41.5,243.5 47.5,243.5 53.5,243.5C 53.5,249.5 53.5,255.5 53.5,261.5C 47.5,261.5 41.5,261.5 35.5,261.5C 29.5,261.5 23.5,261.5 17.5,261.5C 17.5,249.5 17.5,237.5 17.5,225.5 Z"/></g>
<g><path style="opacity:1" fill="#3f84c2" d="M 108.5,243.5 C 96.1667,243.5 83.8333,243.5 71.5,243.5C 71.5,237.5 71.5,231.5 71.5,225.5C 83.8333,225.5 96.1667,225.5 108.5,225.5C 108.5,231.5 108.5,237.5 108.5,243.5 Z"/></g>
<g><path style="opacity:1" fill="#010102" d="M 198.5,225.5 C 204.5,225.5 210.5,225.5 216.5,225.5C 216.5,237.5 216.5,249.5 216.5,261.5C 222.5,261.5 228.5,261.5 234.5,261.5C 235.495,250.012 235.828,238.345 235.5,226.5C 241.167,226.5 246.833,226.5 252.5,226.5C 252.5,244.167 252.5,261.833 252.5,279.5C 246.5,279.5 240.5,279.5 234.5,279.5C 234.5,285.5 234.5,291.5 234.5,297.5C 228.5,297.5 222.5,297.5 216.5,297.5C 216.5,291.833 216.5,286.167 216.5,280.5C 210.5,280.5 204.5,280.5 198.5,280.5C 198.5,262.167 198.5,243.833 198.5,225.5 Z"/></g>
<g><path style="opacity:1" fill="#deeaf7" d="M 216.5,225.5 C 222.5,225.5 228.5,225.5 234.5,225.5C 234.5,237.5 234.5,249.5 234.5,261.5C 228.5,261.5 222.5,261.5 216.5,261.5C 216.5,249.5 216.5,237.5 216.5,225.5 Z"/></g>
<g><path style="opacity:1" fill="#33373e" d="M 234.5,225.5 C 240.5,225.5 246.5,225.5 252.5,225.5C 252.5,225.833 252.5,226.167 252.5,226.5C 246.833,226.5 241.167,226.5 235.5,226.5C 235.828,238.345 235.495,250.012 234.5,261.5C 234.5,249.5 234.5,237.5 234.5,225.5 Z"/></g>
<g><path style="opacity:1" fill="#9db798" d="M 71.5,244.5 C 71.5,244.167 71.5,243.833 71.5,243.5C 83.8333,243.5 96.1667,243.5 108.5,243.5C 108.5,243.833 108.5,244.167 108.5,244.5C 108.5,250.167 108.5,255.833 108.5,261.5C 108.167,261.5 107.833,261.5 107.5,261.5C 107.5,255.833 107.5,250.167 107.5,244.5C 95.5,244.5 83.5,244.5 71.5,244.5 Z"/></g>
<g><path style="opacity:1" fill="#95a051" d="M 53.5,243.5 C 59.5,243.5 65.5,243.5 71.5,243.5C 71.5,243.833 71.5,244.167 71.5,244.5C 65.8333,244.5 60.1667,244.5 54.5,244.5C 54.5,250.167 54.5,255.833 54.5,261.5C 54.1667,261.5 53.8333,261.5 53.5,261.5C 53.5,255.5 53.5,249.5 53.5,243.5 Z"/></g>
<g><path style="opacity:1" fill="#9b9611" d="M 71.5,244.5 C 71.5,250.167 71.5,255.833 71.5,261.5C 65.8333,261.5 60.1667,261.5 54.5,261.5C 54.5,255.833 54.5,250.167 54.5,244.5C 60.1667,244.5 65.8333,244.5 71.5,244.5 Z"/></g>
<g><path style="opacity:1" fill="#dede7b" d="M 71.5,244.5 C 83.5,244.5 95.5,244.5 107.5,244.5C 107.5,250.167 107.5,255.833 107.5,261.5C 101.5,261.5 95.5,261.5 89.5,261.5C 89.5,267.5 89.5,273.5 89.5,279.5C 83.5,279.5 77.5,279.5 71.5,279.5C 71.5,285.833 71.5,292.167 71.5,298.5C 65.5,298.5 59.5,298.5 53.5,298.5C 53.5,286.5 53.5,274.5 53.5,262.5C 47.5,262.5 41.5,262.5 35.5,262.5C 35.5,262.167 35.5,261.833 35.5,261.5C 41.5,261.5 47.5,261.5 53.5,261.5C 53.8333,261.5 54.1667,261.5 54.5,261.5C 60.1667,261.5 65.8333,261.5 71.5,261.5C 71.5,255.833 71.5,250.167 71.5,244.5 Z"/></g>
<g><path style="opacity:1" fill="#123170" d="M 17.5,262.5 C 23.5,262.5 29.5,262.5 35.5,262.5C 35.5,274.5 35.5,286.5 35.5,298.5C 29.5,298.5 23.5,298.5 17.5,298.5C 17.5,286.5 17.5,274.5 17.5,262.5 Z"/></g>
<g><path style="opacity:1" fill="#9a9414" d="M 35.5,262.5 C 41.5,262.5 47.5,262.5 53.5,262.5C 53.5,274.5 53.5,286.5 53.5,298.5C 47.5,298.5 41.5,298.5 35.5,298.5C 35.5,286.5 35.5,274.5 35.5,262.5 Z"/></g>
<g><path style="opacity:1" fill="#d4ce39" d="M 107.5,261.5 C 107.833,261.5 108.167,261.5 108.5,261.5C 114.31,262.49 120.31,262.823 126.5,262.5C 126.13,274.165 125.796,285.832 125.5,297.5C 113.5,297.5 101.5,297.5 89.5,297.5C 89.5,303.5 89.5,309.5 89.5,315.5C 83.8333,315.5 78.1667,315.5 72.5,315.5C 72.8222,309.642 72.4889,303.975 71.5,298.5C 71.5,292.167 71.5,285.833 71.5,279.5C 77.5,279.5 83.5,279.5 89.5,279.5C 89.5,273.5 89.5,267.5 89.5,261.5C 95.5,261.5 101.5,261.5 107.5,261.5 Z"/></g>
<g><path style="opacity:1" fill="#706a06" d="M 143.5,280.5 C 143.5,286.5 143.5,292.5 143.5,298.5C 137.833,298.5 132.167,298.5 126.5,298.5C 126.5,292.5 126.5,286.5 126.5,280.5C 132.167,280.5 137.833,280.5 143.5,280.5 Z"/></g>
<g><path style="opacity:1" fill="#123170" d="M 198.5,280.5 C 204.5,280.5 210.5,280.5 216.5,280.5C 216.5,286.167 216.5,291.833 216.5,297.5C 210.5,297.5 204.5,297.5 198.5,297.5C 198.5,291.833 198.5,286.167 198.5,280.5 Z"/></g>
<g><path style="opacity:1" fill="#1f366e" d="M 252.5,279.5 C 252.5,285.833 252.5,292.167 252.5,298.5C 234.326,298.83 216.326,298.497 198.5,297.5C 204.5,297.5 210.5,297.5 216.5,297.5C 222.5,297.5 228.5,297.5 234.5,297.5C 234.5,291.5 234.5,285.5 234.5,279.5C 240.5,279.5 246.5,279.5 252.5,279.5 Z"/></g>
<g><path style="opacity:1" fill="#95cdf9" d="M 324.5,279.5 C 319.025,280.489 313.358,280.822 307.5,280.5C 307.5,286.5 307.5,292.5 307.5,298.5C 306.511,303.975 306.178,309.642 306.5,315.5C 294.322,315.172 282.322,315.505 270.5,316.5C 270.5,322.5 270.5,328.5 270.5,334.5C 264.833,334.5 259.167,334.5 253.5,334.5C 253.167,334.5 252.833,334.5 252.5,334.5C 246.5,334.5 240.5,334.5 234.5,334.5C 234.5,340.5 234.5,346.5 234.5,352.5C 210.5,352.5 186.5,352.5 162.5,352.5C 156.5,352.5 150.5,352.5 144.5,352.5C 138.5,352.5 132.5,352.5 126.5,352.5C 126.5,346.5 126.5,340.5 126.5,334.5C 132.5,334.5 138.5,334.5 144.5,334.5C 144.5,322.5 144.5,310.5 144.5,298.5C 150.5,298.5 156.5,298.5 162.5,298.5C 162.5,304.5 162.5,310.5 162.5,316.5C 192.5,316.5 222.5,316.5 252.5,316.5C 252.5,310.5 252.5,304.5 252.5,298.5C 264.833,298.5 277.167,298.5 289.5,298.5C 289.5,292.167 289.5,285.833 289.5,279.5C 301.167,279.5 312.833,279.5 324.5,279.5 Z"/></g>
<g><path style="opacity:1" fill="#3b80bc" d="M 324.5,279.5 C 324.833,279.5 325.167,279.5 325.5,279.5C 325.823,286.022 325.49,292.355 324.5,298.5C 318.833,298.5 313.167,298.5 307.5,298.5C 307.5,292.5 307.5,286.5 307.5,280.5C 313.358,280.822 319.025,280.489 324.5,279.5 Z"/></g>
<g><path style="opacity:1" fill="#123170" d="M 35.5,298.5 C 41.5,298.5 47.5,298.5 53.5,298.5C 53.5,304.5 53.5,310.5 53.5,316.5C 47.5,316.5 41.5,316.5 35.5,316.5C 35.5,310.5 35.5,304.5 35.5,298.5 Z"/></g>
<g><path style="opacity:1" fill="#6d6706" d="M 53.5,298.5 C 59.5,298.5 65.5,298.5 71.5,298.5C 71.5,304.5 71.5,310.5 71.5,316.5C 65.5,316.5 59.5,316.5 53.5,316.5C 53.5,310.5 53.5,304.5 53.5,298.5 Z"/></g>
<g><path style="opacity:1" fill="#9f991b" d="M 108.5,261.5 C 120.167,261.5 131.833,261.5 143.5,261.5C 143.833,261.5 144.167,261.5 144.5,261.5C 144.5,267.833 144.5,274.167 144.5,280.5C 144.167,280.5 143.833,280.5 143.5,280.5C 137.833,280.5 132.167,280.5 126.5,280.5C 126.5,286.5 126.5,292.5 126.5,298.5C 126.167,298.5 125.833,298.5 125.5,298.5C 119.833,298.5 114.167,298.5 108.5,298.5C 107.511,303.975 107.178,309.642 107.5,315.5C 101.642,315.178 95.9753,315.511 90.5,316.5C 84.1667,316.5 77.8333,316.5 71.5,316.5C 71.5,310.5 71.5,304.5 71.5,298.5C 72.4889,303.975 72.8222,309.642 72.5,315.5C 78.1667,315.5 83.8333,315.5 89.5,315.5C 89.5,309.5 89.5,303.5 89.5,297.5C 101.5,297.5 113.5,297.5 125.5,297.5C 125.796,285.832 126.13,274.165 126.5,262.5C 120.31,262.823 114.31,262.49 108.5,261.5 Z"/></g>
<g><path style="opacity:1" fill="#9b9611" d="M 126.5,298.5 C 132.167,298.5 137.833,298.5 143.5,298.5C 143.5,304.167 143.5,309.833 143.5,315.5C 137.833,315.5 132.167,315.5 126.5,315.5C 126.5,309.833 126.5,304.167 126.5,298.5 Z"/></g>
<g><path style="opacity:1" fill="#002a51" d="M 307.5,298.5 C 313.167,298.5 318.833,298.5 324.5,298.5C 324.5,304.5 324.5,310.5 324.5,316.5C 318.833,316.5 313.167,316.5 307.5,316.5C 307.5,310.5 307.5,304.5 307.5,298.5 Z"/></g>
<g><path style="opacity:1" fill="#000000" d="M 379.5,298.5 C 379.5,304.5 379.5,310.5 379.5,316.5C 373.5,316.5 367.5,316.5 361.5,316.5C 361.5,310.5 361.5,304.5 361.5,298.5C 367.5,298.5 373.5,298.5 379.5,298.5 Z"/></g>
<g><path style="opacity:1" fill="#6b9dc9" d="M 307.5,298.5 C 307.5,304.5 307.5,310.5 307.5,316.5C 307.167,316.5 306.833,316.5 306.5,316.5C 294.833,316.5 283.167,316.5 271.5,316.5C 271.167,316.5 270.833,316.5 270.5,316.5C 282.322,315.505 294.322,315.172 306.5,315.5C 306.178,309.642 306.511,303.975 307.5,298.5 Z"/></g>
<g><path style="opacity:1" fill="#000000" d="M 53.5,316.5 C 59.5,316.5 65.5,316.5 71.5,316.5C 71.5,322.5 71.5,328.5 71.5,334.5C 65.5,334.5 59.5,334.5 53.5,334.5C 53.5,328.5 53.5,322.5 53.5,316.5 Z"/></g>
<g><path style="opacity:1" fill="#6e6805" d="M 71.5,316.5 C 77.8333,316.5 84.1667,316.5 90.5,316.5C 96.1667,316.5 101.833,316.5 107.5,316.5C 107.178,322.358 107.511,328.025 108.5,333.5C 114.167,333.5 119.833,333.5 125.5,333.5C 125.833,333.5 126.167,333.5 126.5,333.5C 126.5,333.833 126.5,334.167 126.5,334.5C 126.167,334.5 125.833,334.5 125.5,334.5C 113.5,334.5 101.5,334.5 89.5,334.5C 83.5,334.5 77.5,334.5 71.5,334.5C 71.5,328.5 71.5,322.5 71.5,316.5 Z"/></g>
<g><path style="opacity:1" fill="#8a810b" d="M 108.5,298.5 C 108.5,304.167 108.5,309.833 108.5,315.5C 114.167,315.5 119.833,315.5 125.5,315.5C 125.5,309.833 125.5,304.167 125.5,298.5C 125.833,298.5 126.167,298.5 126.5,298.5C 126.5,304.167 126.5,309.833 126.5,315.5C 132.167,315.5 137.833,315.5 143.5,315.5C 143.5,315.833 143.5,316.167 143.5,316.5C 137.833,316.5 132.167,316.5 126.5,316.5C 126.5,322.167 126.5,327.833 126.5,333.5C 126.167,333.5 125.833,333.5 125.5,333.5C 125.5,327.833 125.5,322.167 125.5,316.5C 119.833,316.5 114.167,316.5 108.5,316.5C 108.5,322.167 108.5,327.833 108.5,333.5C 107.511,328.025 107.178,322.358 107.5,316.5C 101.833,316.5 96.1667,316.5 90.5,316.5C 95.9753,315.511 101.642,315.178 107.5,315.5C 107.178,309.642 107.511,303.975 108.5,298.5 Z"/></g>
<g><path style="opacity:1" fill="#9b9611" d="M 125.5,333.5 C 119.833,333.5 114.167,333.5 108.5,333.5C 108.5,327.833 108.5,322.167 108.5,316.5C 114.167,316.5 119.833,316.5 125.5,316.5C 125.5,322.167 125.5,327.833 125.5,333.5 Z"/></g>
<g><path style="opacity:1" fill="#6f6a05" d="M 108.5,298.5 C 114.167,298.5 119.833,298.5 125.5,298.5C 125.5,304.167 125.5,309.833 125.5,315.5C 119.833,315.5 114.167,315.5 108.5,315.5C 108.5,309.833 108.5,304.167 108.5,298.5 Z"/></g>
<g><path style="opacity:1" fill="#6f6a05" d="M 143.5,316.5 C 143.5,322.167 143.5,327.833 143.5,333.5C 137.833,333.5 132.167,333.5 126.5,333.5C 126.5,327.833 126.5,322.167 126.5,316.5C 132.167,316.5 137.833,316.5 143.5,316.5 Z"/></g>
<g><path style="opacity:1" fill="#000000" d="M 361.5,316.5 C 361.5,322.5 361.5,328.5 361.5,334.5C 355.5,334.5 349.5,334.5 343.5,334.5C 343.5,328.5 343.5,322.5 343.5,316.5C 349.5,316.5 355.5,316.5 361.5,316.5 Z"/></g>
<g><path style="opacity:1" fill="#858a41" d="M 143.5,280.5 C 143.833,280.5 144.167,280.5 144.5,280.5C 144.5,286.5 144.5,292.5 144.5,298.5C 144.5,310.5 144.5,322.5 144.5,334.5C 138.5,334.5 132.5,334.5 126.5,334.5C 126.5,334.167 126.5,333.833 126.5,333.5C 132.167,333.5 137.833,333.5 143.5,333.5C 143.5,327.833 143.5,322.167 143.5,316.5C 143.5,316.167 143.5,315.833 143.5,315.5C 143.5,309.833 143.5,304.167 143.5,298.5C 143.5,292.5 143.5,286.5 143.5,280.5 Z"/></g>
<g><path style="opacity:1" fill="#000000" d="M 89.5,334.5 C 101.5,334.5 113.5,334.5 125.5,334.5C 125.5,340.5 125.5,346.5 125.5,352.5C 113.5,352.5 101.5,352.5 89.5,352.5C 89.5,346.5 89.5,340.5 89.5,334.5 Z"/></g>
<g><path style="opacity:1" fill="#3f83c1" d="M 252.5,334.5 C 252.5,340.5 252.5,346.5 252.5,352.5C 246.5,352.5 240.5,352.5 234.5,352.5C 234.5,346.5 234.5,340.5 234.5,334.5C 240.5,334.5 246.5,334.5 252.5,334.5 Z"/></g>
<g><path style="opacity:1" fill="#0c375c" d="M 325.5,189.5 C 331.5,189.5 337.5,189.5 343.5,189.5C 343.5,213.5 343.5,237.5 343.5,261.5C 349.5,261.5 355.5,261.5 361.5,261.5C 361.5,255.5 361.5,249.5 361.5,243.5C 367.5,243.5 373.5,243.5 379.5,243.5C 379.5,237.5 379.5,231.5 379.5,225.5C 385.5,225.5 391.5,225.5 397.5,225.5C 397.5,237.5 397.5,249.5 397.5,261.5C 391.5,261.5 385.5,261.5 379.5,261.5C 379.5,273.833 379.5,286.167 379.5,298.5C 373.5,298.5 367.5,298.5 361.5,298.5C 361.5,304.5 361.5,310.5 361.5,316.5C 355.5,316.5 349.5,316.5 343.5,316.5C 343.5,322.5 343.5,328.5 343.5,334.5C 331.5,334.5 319.5,334.5 307.5,334.5C 307.5,340.5 307.5,346.5 307.5,352.5C 319.167,352.5 330.833,352.5 342.5,352.5C 342.5,358.5 342.5,364.5 342.5,370.5C 336.833,370.5 331.167,370.5 325.5,370.5C 319.5,370.5 313.5,370.5 307.5,370.5C 301.5,370.5 295.5,370.5 289.5,370.5C 289.5,376.5 289.5,382.5 289.5,388.5C 288.51,394.31 288.177,400.31 288.5,406.5C 282.5,406.5 276.5,406.5 270.5,406.5C 270.5,400.5 270.5,394.5 270.5,388.5C 246.5,388.5 222.5,388.5 198.5,388.5C 198.5,382.5 198.5,376.5 198.5,370.5C 210.5,370.5 222.5,370.5 234.5,370.5C 234.5,364.5 234.5,358.5 234.5,352.5C 240.5,352.5 246.5,352.5 252.5,352.5C 252.5,346.5 252.5,340.5 252.5,334.5C 252.833,334.5 253.167,334.5 253.5,334.5C 253.5,340.5 253.5,346.5 253.5,352.5C 259.167,352.5 264.833,352.5 270.5,352.5C 270.5,346.5 270.5,340.5 270.5,334.5C 270.5,328.5 270.5,322.5 270.5,316.5C 270.833,316.5 271.167,316.5 271.5,316.5C 271.5,322.5 271.5,328.5 271.5,334.5C 283.167,334.5 294.833,334.5 306.5,334.5C 306.5,328.5 306.5,322.5 306.5,316.5C 306.833,316.5 307.167,316.5 307.5,316.5C 313.167,316.5 318.833,316.5 324.5,316.5C 324.5,310.5 324.5,304.5 324.5,298.5C 325.49,292.355 325.823,286.022 325.5,279.5C 331.5,279.5 337.5,279.5 343.5,279.5C 342.706,255.509 342.373,231.509 342.5,207.5C 336.833,207.5 331.167,207.5 325.5,207.5C 325.5,201.5 325.5,195.5 325.5,189.5 Z"/></g>
<g><path style="opacity:1" fill="#002a51" d="M 253.5,334.5 C 259.167,334.5 264.833,334.5 270.5,334.5C 270.5,340.5 270.5,346.5 270.5,352.5C 264.833,352.5 259.167,352.5 253.5,352.5C 253.5,346.5 253.5,340.5 253.5,334.5 Z"/></g>
<g><path style="opacity:1" fill="#002a51" d="M 271.5,316.5 C 283.167,316.5 294.833,316.5 306.5,316.5C 306.5,322.5 306.5,328.5 306.5,334.5C 294.833,334.5 283.167,334.5 271.5,334.5C 271.5,328.5 271.5,322.5 271.5,316.5 Z"/></g>
<g><path style="opacity:1" fill="#000000" d="M 343.5,334.5 C 343.5,340.167 343.5,345.833 343.5,351.5C 355.5,351.5 367.5,351.5 379.5,351.5C 379.5,357.833 379.5,364.167 379.5,370.5C 373.5,370.5 367.5,370.5 361.5,370.5C 355.5,370.5 349.5,370.5 343.5,370.5C 343.823,364.31 343.49,358.31 342.5,352.5C 330.833,352.5 319.167,352.5 307.5,352.5C 307.5,346.5 307.5,340.5 307.5,334.5C 319.5,334.5 331.5,334.5 343.5,334.5 Z"/></g>
<g><path style="opacity:1" fill="#1e568e" d="M 144.5,352.5 C 150.5,352.5 156.5,352.5 162.5,352.5C 162.5,358.5 162.5,364.5 162.5,370.5C 174.5,370.5 186.5,370.5 198.5,370.5C 198.5,376.5 198.5,382.5 198.5,388.5C 192.5,388.5 186.5,388.5 180.5,388.5C 180.5,394.5 180.5,400.5 180.5,406.5C 174.5,406.5 168.5,406.5 162.5,406.5C 150.5,406.5 138.5,406.5 126.5,406.5C 126.5,394.5 126.5,382.5 126.5,370.5C 132.5,370.5 138.5,370.5 144.5,370.5C 144.5,364.5 144.5,358.5 144.5,352.5 Z"/></g>
<g><path style="opacity:1" fill="#002a51" d="M 162.5,352.5 C 186.5,352.5 210.5,352.5 234.5,352.5C 234.5,358.5 234.5,364.5 234.5,370.5C 222.5,370.5 210.5,370.5 198.5,370.5C 186.5,370.5 174.5,370.5 162.5,370.5C 162.5,364.5 162.5,358.5 162.5,352.5 Z"/></g>
<g><path style="opacity:1" fill="#073358" d="M 125.5,334.5 C 125.833,334.5 126.167,334.5 126.5,334.5C 126.5,340.5 126.5,346.5 126.5,352.5C 132.5,352.5 138.5,352.5 144.5,352.5C 144.5,358.5 144.5,364.5 144.5,370.5C 138.5,370.5 132.5,370.5 126.5,370.5C 126.5,382.5 126.5,394.5 126.5,406.5C 114.167,406.5 101.833,406.5 89.5,406.5C 89.5,400.5 89.5,394.5 89.5,388.5C 95.5,388.5 101.5,388.5 107.5,388.5C 107.5,382.5 107.5,376.5 107.5,370.5C 113.5,370.5 119.5,370.5 125.5,370.5C 125.5,364.5 125.5,358.5 125.5,352.5C 125.5,346.5 125.5,340.5 125.5,334.5 Z"/></g>
<g><path style="opacity:1" fill="#012a4e" d="M 307.5,370.5 C 307.5,376.5 307.5,382.5 307.5,388.5C 307.5,394.5 307.5,400.5 307.5,406.5C 307.167,406.5 306.833,406.5 306.5,406.5C 306.5,400.5 306.5,394.5 306.5,388.5C 300.833,388.5 295.167,388.5 289.5,388.5C 289.5,382.5 289.5,376.5 289.5,370.5C 295.5,370.5 301.5,370.5 307.5,370.5 Z"/></g>
<g><path style="opacity:1" fill="#000002" d="M 307.5,370.5 C 313.5,370.5 319.5,370.5 325.5,370.5C 325.5,376.5 325.5,382.5 325.5,388.5C 319.5,388.5 313.5,388.5 307.5,388.5C 307.5,382.5 307.5,376.5 307.5,370.5 Z"/></g>
<g><path style="opacity:1" fill="#002a50" d="M 342.5,352.5 C 343.49,358.31 343.823,364.31 343.5,370.5C 343.5,376.5 343.5,382.5 343.5,388.5C 337.5,388.5 331.5,388.5 325.5,388.5C 325.5,382.5 325.5,376.5 325.5,370.5C 331.167,370.5 336.833,370.5 342.5,370.5C 342.5,364.5 342.5,358.5 342.5,352.5 Z"/></g>
<g><path style="opacity:1" fill="#002a50" d="M 361.5,370.5 C 367.5,370.5 373.5,370.5 379.5,370.5C 379.5,376.5 379.5,382.5 379.5,388.5C 373.5,388.5 367.5,388.5 361.5,388.5C 361.5,382.5 361.5,376.5 361.5,370.5 Z"/></g>
<g><path style="opacity:1" fill="#000000" d="M 379.5,370.5 C 385.5,370.5 391.5,370.5 397.5,370.5C 397.5,376.5 397.5,382.5 397.5,388.5C 391.5,388.5 385.5,388.5 379.5,388.5C 379.5,382.5 379.5,376.5 379.5,370.5 Z"/></g>
<g><path style="opacity:1" fill="#002a51" d="M 397.5,370.5 C 403.5,370.5 409.5,370.5 415.5,370.5C 415.5,376.5 415.5,382.5 415.5,388.5C 409.5,388.5 403.5,388.5 397.5,388.5C 397.5,382.5 397.5,376.5 397.5,370.5 Z"/></g>
<g><path style="opacity:1" fill="#1e568e" d="M 415.5,370.5 C 421.5,370.5 427.5,370.5 433.5,370.5C 433.5,382.5 433.5,394.5 433.5,406.5C 427.5,406.5 421.5,406.5 415.5,406.5C 415.5,400.5 415.5,394.5 415.5,388.5C 415.5,382.5 415.5,376.5 415.5,370.5 Z"/></g>
<g><path style="opacity:1" fill="#002a51" d="M 343.5,388.5 C 349.176,388.334 354.843,388.501 360.5,389C 361.475,394.741 361.808,400.575 361.5,406.5C 355.5,406.5 349.5,406.5 343.5,406.5C 343.5,400.5 343.5,394.5 343.5,388.5 Z"/></g>
<g><path style="opacity:1" fill="#002b51" d="M 198.5,388.5 C 198.5,394.5 198.5,400.5 198.5,406.5C 192.5,406.5 186.5,406.5 180.5,406.5C 180.5,400.5 180.5,394.5 180.5,388.5C 186.5,388.5 192.5,388.5 198.5,388.5 Z"/></g>
<g><path style="opacity:1" fill="#1e568e" d="M 198.5,388.5 C 222.5,388.5 246.5,388.5 270.5,388.5C 270.5,394.5 270.5,400.5 270.5,406.5C 264.5,406.5 258.5,406.5 252.5,406.5C 252.5,412.5 252.5,418.5 252.5,424.5C 240.5,424.5 228.5,424.5 216.5,424.5C 216.5,418.5 216.5,412.5 216.5,406.5C 210.5,406.5 204.5,406.5 198.5,406.5C 198.5,400.5 198.5,394.5 198.5,388.5 Z"/></g>
<g><path style="opacity:1" fill="#000103" d="M 289.5,388.5 C 295.167,388.5 300.833,388.5 306.5,388.5C 306.5,394.5 306.5,400.5 306.5,406.5C 300.833,406.5 295.167,406.5 289.5,406.5C 289.167,406.5 288.833,406.5 288.5,406.5C 288.177,400.31 288.51,394.31 289.5,388.5 Z"/></g>
<g><path style="opacity:1" fill="#3d82bf" d="M 307.5,388.5 C 313.5,388.5 319.5,388.5 325.5,388.5C 331.5,388.5 337.5,388.5 343.5,388.5C 343.5,394.5 343.5,400.5 343.5,406.5C 349.5,406.5 355.5,406.5 361.5,406.5C 361.5,412.5 361.5,418.5 361.5,424.5C 361.5,430.5 361.5,436.5 361.5,442.5C 367.5,442.5 373.5,442.5 379.5,442.5C 379.5,442.833 379.5,443.167 379.5,443.5C 379.5,449.167 379.5,454.833 379.5,460.5C 379.5,472.833 379.5,485.167 379.5,497.5C 373.5,497.5 367.5,497.5 361.5,497.5C 361.5,485.167 361.5,472.833 361.5,460.5C 355.5,460.5 349.5,460.5 343.5,460.5C 343.5,448.5 343.5,436.5 343.5,424.5C 337.5,424.5 331.5,424.5 325.5,424.5C 325.5,418.5 325.5,412.5 325.5,406.5C 319.5,406.5 313.5,406.5 307.5,406.5C 307.5,400.5 307.5,394.5 307.5,388.5 Z"/></g>
<g><path style="opacity:1" fill="#0b375c" d="M 343.5,370.5 C 349.5,370.5 355.5,370.5 361.5,370.5C 361.5,376.5 361.5,382.5 361.5,388.5C 367.5,388.5 373.5,388.5 379.5,388.5C 385.5,388.5 391.5,388.5 397.5,388.5C 397.5,394.5 397.5,400.5 397.5,406.5C 403.5,406.5 409.5,406.5 415.5,406.5C 415.5,418.833 415.5,431.167 415.5,443.5C 421.5,443.5 427.5,443.5 433.5,443.5C 433.5,455.167 433.5,466.833 433.5,478.5C 421.5,478.5 409.5,478.5 397.5,478.5C 397.5,472.5 397.5,466.5 397.5,460.5C 397.5,454.833 397.5,449.167 397.5,443.5C 391.5,443.5 385.5,443.5 379.5,443.5C 379.5,443.167 379.5,442.833 379.5,442.5C 379.5,436.5 379.5,430.5 379.5,424.5C 379.5,418.5 379.5,412.5 379.5,406.5C 373.5,406.5 367.5,406.5 361.5,406.5C 361.808,400.575 361.475,394.741 360.5,389C 354.843,388.501 349.176,388.334 343.5,388.5C 343.5,382.5 343.5,376.5 343.5,370.5 Z"/></g>
<g><path style="opacity:1" fill="#000000" d="M 397.5,388.5 C 403.5,388.5 409.5,388.5 415.5,388.5C 415.5,394.5 415.5,400.5 415.5,406.5C 409.5,406.5 403.5,406.5 397.5,406.5C 397.5,400.5 397.5,394.5 397.5,388.5 Z"/></g>
<g><path style="opacity:1" fill="#2e6a9a" d="M 89.5,406.5 C 101.833,406.5 114.167,406.5 126.5,406.5C 126.5,406.833 126.5,407.167 126.5,407.5C 126.5,413.167 126.5,418.833 126.5,424.5C 126.5,430.5 126.5,436.5 126.5,442.5C 126.167,442.5 125.833,442.5 125.5,442.5C 125.5,430.833 125.5,419.167 125.5,407.5C 113.833,407.5 102.167,407.5 90.5,407.5C 90.5,413.167 90.5,418.833 90.5,424.5C 90.8229,430.69 90.4896,436.69 89.5,442.5C 89.5,430.5 89.5,418.5 89.5,406.5 Z"/></g>
<g><path style="opacity:1" fill="#0c385c" d="M 89.5,406.5 C 89.5,418.5 89.5,430.5 89.5,442.5C 83.5,442.5 77.5,442.5 71.5,442.5C 71.5,430.5 71.5,418.5 71.5,406.5C 77.5,406.5 83.5,406.5 89.5,406.5 Z"/></g>
<g><path style="opacity:1" fill="#3e83c1" d="M 125.5,442.5 C 119.5,442.5 113.5,442.5 107.5,442.5C 107.5,436.5 107.5,430.5 107.5,424.5C 101.833,424.5 96.1667,424.5 90.5,424.5C 90.5,418.833 90.5,413.167 90.5,407.5C 102.167,407.5 113.833,407.5 125.5,407.5C 125.5,419.167 125.5,430.833 125.5,442.5 Z"/></g>
<g><path style="opacity:1" fill="#002a51" d="M 126.5,407.5 C 132.5,407.5 138.5,407.5 144.5,407.5C 144.5,413.167 144.5,418.833 144.5,424.5C 138.5,424.5 132.5,424.5 126.5,424.5C 126.5,418.833 126.5,413.167 126.5,407.5 Z"/></g>
<g><path style="opacity:1" fill="#0c395e" d="M 126.5,407.5 C 126.5,407.167 126.5,406.833 126.5,406.5C 138.5,406.5 150.5,406.5 162.5,406.5C 162.5,412.5 162.5,418.5 162.5,424.5C 156.5,424.5 150.5,424.5 144.5,424.5C 144.5,418.833 144.5,413.167 144.5,407.5C 138.5,407.5 132.5,407.5 126.5,407.5 Z"/></g>
<g><path style="opacity:1" fill="#69a7e0" d="M 162.5,406.5 C 168.5,406.5 174.5,406.5 180.5,406.5C 186.5,406.5 192.5,406.5 198.5,406.5C 204.5,406.5 210.5,406.5 216.5,406.5C 216.5,412.5 216.5,418.5 216.5,424.5C 216.5,430.5 216.5,436.5 216.5,442.5C 210.5,442.5 204.5,442.5 198.5,442.5C 198.5,448.833 198.5,455.167 198.5,461.5C 198.5,467.5 198.5,473.5 198.5,479.5C 198.5,485.5 198.5,491.5 198.5,497.5C 210.5,497.5 222.5,497.5 234.5,497.5C 234.5,503.5 234.5,509.5 234.5,515.5C 216.5,515.5 198.5,515.5 180.5,515.5C 180.5,509.5 180.5,503.5 180.5,497.5C 174.5,497.5 168.5,497.5 162.5,497.5C 162.5,485.5 162.5,473.5 162.5,461.5C 162.5,455.167 162.5,448.833 162.5,442.5C 156.5,442.5 150.5,442.5 144.5,442.5C 144.5,436.5 144.5,430.5 144.5,424.5C 150.5,424.5 156.5,424.5 162.5,424.5C 162.5,418.5 162.5,412.5 162.5,406.5 Z"/></g>
<g><path style="opacity:1" fill="#002b51" d="M 198.5,406.5 C 204.5,406.5 210.5,406.5 216.5,406.5C 216.5,412.5 216.5,418.5 216.5,424.5C 210.5,424.5 204.5,424.5 198.5,424.5C 198.5,418.5 198.5,412.5 198.5,406.5 Z"/></g>
<g><path style="opacity:1" fill="#0c385e" d="M 270.5,406.5 C 270.5,412.5 270.5,418.5 270.5,424.5C 264.5,424.5 258.5,424.5 252.5,424.5C 252.5,418.5 252.5,412.5 252.5,406.5C 258.5,406.5 264.5,406.5 270.5,406.5 Z"/></g>
<g><path style="opacity:1" fill="#000103" d="M 270.5,406.5 C 276.5,406.5 282.5,406.5 288.5,406.5C 288.5,412.5 288.5,418.5 288.5,424.5C 282.5,424.5 276.5,424.5 270.5,424.5C 270.5,418.5 270.5,412.5 270.5,406.5 Z"/></g>
<g><path style="opacity:1" fill="#69a7df" d="M 289.5,406.5 C 295.167,406.5 300.833,406.5 306.5,406.5C 306.833,406.5 307.167,406.5 307.5,406.5C 313.5,406.5 319.5,406.5 325.5,406.5C 325.5,412.5 325.5,418.5 325.5,424.5C 331.5,424.5 337.5,424.5 343.5,424.5C 343.5,436.5 343.5,448.5 343.5,460.5C 343.5,472.833 343.5,485.167 343.5,497.5C 337.5,497.5 331.5,497.5 325.5,497.5C 325.5,503.5 325.5,509.5 325.5,515.5C 313.5,515.5 301.5,515.5 289.5,515.5C 289.5,509.5 289.5,503.5 289.5,497.5C 289.5,491.5 289.5,485.5 289.5,479.5C 283.077,479.791 276.744,479.458 270.5,478.5C 270.5,466.833 270.5,455.167 270.5,443.5C 276.69,443.823 282.69,443.49 288.5,442.5C 289.495,430.678 289.828,418.678 289.5,406.5 Z"/></g>
<g><path style="opacity:1" fill="#000001" d="M 361.5,406.5 C 367.5,406.5 373.5,406.5 379.5,406.5C 379.5,412.5 379.5,418.5 379.5,424.5C 373.5,424.5 367.5,424.5 361.5,424.5C 361.5,418.5 361.5,412.5 361.5,406.5 Z"/></g>
<g><path style="opacity:1" fill="#69a7e0" d="M 90.5,424.5 C 96.1667,424.5 101.833,424.5 107.5,424.5C 107.5,430.5 107.5,436.5 107.5,442.5C 107.5,454.5 107.5,466.5 107.5,478.5C 95.8333,478.5 84.1667,478.5 72.5,478.5C 72.8222,472.642 72.4889,466.975 71.5,461.5C 71.5,455.5 71.5,449.5 71.5,443.5C 77.69,443.823 83.69,443.49 89.5,442.5C 90.4896,436.69 90.8229,430.69 90.5,424.5 Z"/></g>
<g><path style="opacity:1" fill="#013845" d="M 126.5,424.5 C 132.5,424.5 138.5,424.5 144.5,424.5C 144.5,430.5 144.5,436.5 144.5,442.5C 138.5,442.5 132.5,442.5 126.5,442.5C 126.5,436.5 126.5,430.5 126.5,424.5 Z"/></g>
<g><path style="opacity:1" fill="#0c395d" d="M 216.5,424.5 C 228.5,424.5 240.5,424.5 252.5,424.5C 252.5,430.5 252.5,436.5 252.5,442.5C 240.5,442.5 228.5,442.5 216.5,442.5C 216.5,436.5 216.5,430.5 216.5,424.5 Z"/></g>
<g><path style="opacity:1" fill="#3d82bf" d="M 252.5,424.5 C 258.5,424.5 264.5,424.5 270.5,424.5C 270.5,430.5 270.5,436.5 270.5,442.5C 276.5,442.5 282.5,442.5 288.5,442.5C 282.69,443.49 276.69,443.823 270.5,443.5C 270.5,455.167 270.5,466.833 270.5,478.5C 264.833,478.5 259.167,478.5 253.5,478.5C 253.828,466.655 253.495,454.988 252.5,443.5C 252.5,443.167 252.5,442.833 252.5,442.5C 252.5,436.5 252.5,430.5 252.5,424.5 Z"/></g>
<g><path style="opacity:1" fill="#053c4b" d="M 288.5,406.5 C 288.833,406.5 289.167,406.5 289.5,406.5C 289.828,418.678 289.495,430.678 288.5,442.5C 282.5,442.5 276.5,442.5 270.5,442.5C 270.5,436.5 270.5,430.5 270.5,424.5C 276.5,424.5 282.5,424.5 288.5,424.5C 288.5,418.5 288.5,412.5 288.5,406.5 Z"/></g>
<g><path style="opacity:1" fill="#002a4f" d="M 361.5,424.5 C 367.5,424.5 373.5,424.5 379.5,424.5C 379.5,430.5 379.5,436.5 379.5,442.5C 373.5,442.5 367.5,442.5 361.5,442.5C 361.5,436.5 361.5,430.5 361.5,424.5 Z"/></g>
<g><path style="opacity:1" fill="#3c80bd" d="M 71.5,442.5 C 77.5,442.5 83.5,442.5 89.5,442.5C 83.69,443.49 77.69,443.823 71.5,443.5C 71.5,449.5 71.5,455.5 71.5,461.5C 65.5,461.5 59.5,461.5 53.5,461.5C 53.5,455.167 53.5,448.833 53.5,442.5C 59.5,442.5 65.5,442.5 71.5,442.5 Z"/></g>
<g><path style="opacity:1" fill="#336d93" d="M 107.5,442.5 C 113.5,442.5 119.5,442.5 125.5,442.5C 125.5,442.833 125.5,443.167 125.5,443.5C 119.833,443.5 114.167,443.5 108.5,443.5C 108.5,455.5 108.5,467.5 108.5,479.5C 102.167,479.5 95.8333,479.5 89.5,479.5C 83.5,479.5 77.5,479.5 71.5,479.5C 71.5,473.5 71.5,467.5 71.5,461.5C 72.4889,466.975 72.8222,472.642 72.5,478.5C 84.1667,478.5 95.8333,478.5 107.5,478.5C 107.5,466.5 107.5,454.5 107.5,442.5 Z"/></g>
<g><path style="opacity:1" fill="#003844" d="M 125.5,443.5 C 125.5,455.5 125.5,467.5 125.5,479.5C 119.833,479.5 114.167,479.5 108.5,479.5C 108.5,467.5 108.5,455.5 108.5,443.5C 114.167,443.5 119.833,443.5 125.5,443.5 Z"/></g>
<g><path style="opacity:1" fill="#5e8794" d="M 125.5,442.5 C 125.833,442.5 126.167,442.5 126.5,442.5C 132.5,442.5 138.5,442.5 144.5,442.5C 144.5,442.833 144.5,443.167 144.5,443.5C 138.5,443.5 132.5,443.5 126.5,443.5C 126.5,455.5 126.5,467.5 126.5,479.5C 126.167,479.5 125.833,479.5 125.5,479.5C 125.5,467.5 125.5,455.5 125.5,443.5C 125.5,443.167 125.5,442.833 125.5,442.5 Z"/></g>
<g><path style="opacity:1" fill="#deebf9" d="M 144.5,443.5 C 144.5,449.5 144.5,455.5 144.5,461.5C 150.5,461.5 156.5,461.5 162.5,461.5C 162.5,473.5 162.5,485.5 162.5,497.5C 156.5,497.5 150.5,497.5 144.5,497.5C 144.5,497.167 144.5,496.833 144.5,496.5C 144.5,490.833 144.5,485.167 144.5,479.5C 138.5,479.5 132.5,479.5 126.5,479.5C 126.5,467.5 126.5,455.5 126.5,443.5C 132.5,443.5 138.5,443.5 144.5,443.5 Z"/></g>
<g><path style="opacity:1" fill="#97cdf9" d="M 144.5,442.5 C 150.5,442.5 156.5,442.5 162.5,442.5C 162.5,448.833 162.5,455.167 162.5,461.5C 156.5,461.5 150.5,461.5 144.5,461.5C 144.5,455.5 144.5,449.5 144.5,443.5C 144.5,443.167 144.5,442.833 144.5,442.5 Z"/></g>
<g><path style="opacity:1" fill="#94c9f3" d="M 216.5,442.5 C 228.5,442.5 240.5,442.5 252.5,442.5C 252.5,442.833 252.5,443.167 252.5,443.5C 246.5,443.5 240.5,443.5 234.5,443.5C 228.5,443.5 222.5,443.5 216.5,443.5C 216.5,449.5 216.5,455.5 216.5,461.5C 210.5,461.5 204.5,461.5 198.5,461.5C 198.5,455.167 198.5,448.833 198.5,442.5C 204.5,442.5 210.5,442.5 216.5,442.5 Z"/></g>
<g><path style="opacity:1" fill="#e0ecfa" d="M 234.5,443.5 C 234.5,449.5 234.5,455.5 234.5,461.5C 240.5,461.5 246.5,461.5 252.5,461.5C 252.5,467.5 252.5,473.5 252.5,479.5C 246.5,479.5 240.5,479.5 234.5,479.5C 234.5,485.167 234.5,490.833 234.5,496.5C 228.5,496.5 222.5,496.5 216.5,496.5C 216.5,490.833 216.5,485.167 216.5,479.5C 210.5,479.5 204.5,479.5 198.5,479.5C 198.5,473.5 198.5,467.5 198.5,461.5C 204.5,461.5 210.5,461.5 216.5,461.5C 216.5,455.5 216.5,449.5 216.5,443.5C 222.5,443.5 228.5,443.5 234.5,443.5 Z"/></g>
<g><path style="opacity:1" fill="#99cefa" d="M 234.5,443.5 C 240.5,443.5 246.5,443.5 252.5,443.5C 252.5,449.5 252.5,455.5 252.5,461.5C 246.5,461.5 240.5,461.5 234.5,461.5C 234.5,455.5 234.5,449.5 234.5,443.5 Z"/></g>
<g><path style="opacity:1" fill="#002a51" d="M 379.5,443.5 C 385.5,443.5 391.5,443.5 397.5,443.5C 397.5,449.167 397.5,454.833 397.5,460.5C 391.5,460.5 385.5,460.5 379.5,460.5C 379.5,454.833 379.5,449.167 379.5,443.5 Z"/></g>
<g><path style="opacity:1" fill="#003844" d="M 53.5,461.5 C 59.5,461.5 65.5,461.5 71.5,461.5C 71.5,467.5 71.5,473.5 71.5,479.5C 65.5,479.5 59.5,479.5 53.5,479.5C 53.5,473.5 53.5,467.5 53.5,461.5 Z"/></g>
<g><path style="opacity:1" fill="#013946" d="M 343.5,460.5 C 349.5,460.5 355.5,460.5 361.5,460.5C 361.5,472.833 361.5,485.167 361.5,497.5C 355.5,497.5 349.5,497.5 343.5,497.5C 343.5,485.167 343.5,472.833 343.5,460.5 Z"/></g>
<g><path style="opacity:1" fill="#000001" d="M 379.5,515.5 C 379.5,509.5 379.5,503.5 379.5,497.5C 379.5,485.167 379.5,472.833 379.5,460.5C 385.5,460.5 391.5,460.5 397.5,460.5C 397.5,466.5 397.5,472.5 397.5,478.5C 409.5,478.5 421.5,478.5 433.5,478.5C 433.5,466.833 433.5,455.167 433.5,443.5C 427.5,443.5 421.5,443.5 415.5,443.5C 415.5,431.167 415.5,418.833 415.5,406.5C 421.5,406.5 427.5,406.5 433.5,406.5C 433.5,394.5 433.5,382.5 433.5,370.5C 427.5,370.5 421.5,370.5 415.5,370.5C 415.5,364.167 415.5,357.833 415.5,351.5C 421.509,351.334 427.509,351.501 433.5,352C 434.476,358.076 434.81,364.242 434.5,370.5C 440.5,370.5 446.5,370.5 452.5,370.5C 452.5,376.5 452.5,382.5 452.5,388.5C 458.5,388.5 464.5,388.5 470.5,388.5C 470.5,394.5 470.5,400.5 470.5,406.5C 476.5,406.5 482.5,406.5 488.5,406.5C 488.5,412.833 488.5,419.167 488.5,425.5C 482.5,425.5 476.5,425.5 470.5,425.5C 470.5,437.5 470.5,449.5 470.5,461.5C 464.5,461.5 458.5,461.5 452.5,461.5C 452.5,467.5 452.5,473.5 452.5,479.5C 446.5,479.5 440.5,479.5 434.5,479.5C 434.5,485.5 434.5,491.5 434.5,497.5C 422.167,497.5 409.833,497.5 397.5,497.5C 397.5,503.5 397.5,509.5 397.5,515.5C 391.5,515.5 385.5,515.5 379.5,515.5 Z"/></g>
<g><path style="opacity:1" fill="#1e558c" d="M 451.5,406.5 C 457.5,406.5 463.5,406.5 469.5,406.5C 469.5,412.5 469.5,418.5 469.5,424.5C 463.5,424.5 457.5,424.5 451.5,424.5C 451.5,418.5 451.5,412.5 451.5,406.5 Z"/></g>
<g><path style="opacity:1" fill="#0c365b" d="M 433.5,406.5 C 439.5,406.5 445.5,406.5 451.5,406.5C 451.5,412.5 451.5,418.5 451.5,424.5C 451.5,430.5 451.5,436.5 451.5,442.5C 445.5,442.5 439.5,442.5 433.5,442.5C 433.5,430.5 433.5,418.5 433.5,406.5 Z"/></g>
<g><path style="opacity:1" fill="#003844" d="M 71.5,479.5 C 77.5,479.5 83.5,479.5 89.5,479.5C 89.5,485.5 89.5,491.5 89.5,497.5C 83.5,497.5 77.5,497.5 71.5,497.5C 71.5,491.5 71.5,485.5 71.5,479.5 Z"/></g>
<g><path style="opacity:1" fill="#000102" d="M 89.5,479.5 C 95.8333,479.5 102.167,479.5 108.5,479.5C 108.5,485.5 108.5,491.5 108.5,497.5C 102.167,497.5 95.8333,497.5 89.5,497.5C 89.5,491.5 89.5,485.5 89.5,479.5 Z"/></g>
<g><path style="opacity:1" fill="#4084c1" d="M 125.5,479.5 C 125.833,479.5 126.167,479.5 126.5,479.5C 132.5,479.5 138.5,479.5 144.5,479.5C 144.5,485.167 144.5,490.833 144.5,496.5C 138.167,496.5 131.833,496.5 125.5,496.5C 125.5,490.833 125.5,485.167 125.5,479.5 Z"/></g>
<g><path style="opacity:1" fill="#97cdf9" d="M 198.5,479.5 C 204.5,479.5 210.5,479.5 216.5,479.5C 216.5,485.167 216.5,490.833 216.5,496.5C 222.5,496.5 228.5,496.5 234.5,496.5C 234.5,496.833 234.5,497.167 234.5,497.5C 222.5,497.5 210.5,497.5 198.5,497.5C 198.5,491.5 198.5,485.5 198.5,479.5 Z"/></g>
<g><path style="opacity:1" fill="#96cefa" d="M 252.5,479.5 C 252.5,485.167 252.5,490.833 252.5,496.5C 246.5,496.5 240.5,496.5 234.5,496.5C 234.5,490.833 234.5,485.167 234.5,479.5C 240.5,479.5 246.5,479.5 252.5,479.5 Z"/></g>
<g><path style="opacity:1" fill="#68a6de" d="M 252.5,443.5 C 253.495,454.988 253.828,466.655 253.5,478.5C 259.167,478.5 264.833,478.5 270.5,478.5C 270.5,484.5 270.5,490.5 270.5,496.5C 270.5,496.833 270.5,497.167 270.5,497.5C 258.5,497.5 246.5,497.5 234.5,497.5C 234.5,497.167 234.5,496.833 234.5,496.5C 240.5,496.5 246.5,496.5 252.5,496.5C 252.5,490.833 252.5,485.167 252.5,479.5C 252.5,473.5 252.5,467.5 252.5,461.5C 252.5,455.5 252.5,449.5 252.5,443.5 Z"/></g>
<g><path style="opacity:1" fill="#4084c2" d="M 270.5,478.5 C 276.744,479.458 283.077,479.791 289.5,479.5C 289.5,485.5 289.5,491.5 289.5,497.5C 289.167,497.5 288.833,497.5 288.5,497.5C 282.69,496.51 276.69,496.177 270.5,496.5C 270.5,490.5 270.5,484.5 270.5,478.5 Z"/></g>
<g><path style="opacity:1" fill="#3d82c0" d="M 144.5,497.5 C 150.5,497.5 156.5,497.5 162.5,497.5C 168.5,497.5 174.5,497.5 180.5,497.5C 180.5,503.5 180.5,509.5 180.5,515.5C 198.5,515.5 216.5,515.5 234.5,515.5C 234.5,509.5 234.5,503.5 234.5,497.5C 246.5,497.5 258.5,497.5 270.5,497.5C 270.5,503.5 270.5,509.5 270.5,515.5C 276.5,515.5 282.5,515.5 288.5,515.5C 288.177,521.69 288.51,527.69 289.5,533.5C 301.5,533.5 313.5,533.5 325.5,533.5C 325.5,527.5 325.5,521.5 325.5,515.5C 331.5,515.5 337.5,515.5 343.5,515.5C 343.5,509.5 343.5,503.5 343.5,497.5C 349.5,497.5 355.5,497.5 361.5,497.5C 361.5,503.5 361.5,509.5 361.5,515.5C 361.5,521.5 361.5,527.5 361.5,533.5C 355.5,533.5 349.5,533.5 343.5,533.5C 343.5,539.5 343.5,545.5 343.5,551.5C 337.5,551.5 331.5,551.5 325.5,551.5C 325.5,557.5 325.5,563.5 325.5,569.5C 319.5,569.5 313.5,569.5 307.5,569.5C 295.167,569.5 282.833,569.5 270.5,569.5C 270.5,563.5 270.5,557.5 270.5,551.5C 264.5,551.5 258.5,551.5 252.5,551.5C 240.5,551.5 228.5,551.5 216.5,551.5C 210.5,551.5 204.5,551.5 198.5,551.5C 198.5,545.5 198.5,539.5 198.5,533.5C 186.5,533.5 174.5,533.5 162.5,533.5C 162.5,527.5 162.5,521.5 162.5,515.5C 156.5,515.5 150.5,515.5 144.5,515.5C 144.5,509.5 144.5,503.5 144.5,497.5 Z"/></g>
<g><path style="opacity:1" fill="#013947" d="M 343.5,497.5 C 343.5,503.5 343.5,509.5 343.5,515.5C 337.5,515.5 331.5,515.5 325.5,515.5C 325.5,509.5 325.5,503.5 325.5,497.5C 331.5,497.5 337.5,497.5 343.5,497.5 Z"/></g>
<g><path style="opacity:1" fill="#003642" d="M 361.5,497.5 C 367.5,497.5 373.5,497.5 379.5,497.5C 379.5,503.5 379.5,509.5 379.5,515.5C 373.5,515.5 367.5,515.5 361.5,515.5C 361.5,509.5 361.5,503.5 361.5,497.5 Z"/></g>
<g><path style="opacity:1" fill="#215e81" d="M 270.5,496.5 C 276.69,496.177 282.69,496.51 288.5,497.5C 288.833,497.5 289.167,497.5 289.5,497.5C 289.5,503.5 289.5,509.5 289.5,515.5C 289.5,521.5 289.5,527.5 289.5,533.5C 288.51,527.69 288.177,521.69 288.5,515.5C 282.5,515.5 276.5,515.5 270.5,515.5C 270.5,509.5 270.5,503.5 270.5,497.5C 270.5,497.167 270.5,496.833 270.5,496.5 Z"/></g>
<g><path style="opacity:1" fill="#003844" d="M 288.5,497.5 C 288.5,503.167 288.5,508.833 288.5,514.5C 282.833,514.5 277.167,514.5 271.5,514.5C 271.5,508.833 271.5,503.167 271.5,497.5C 277.167,497.5 282.833,497.5 288.5,497.5 Z"/></g>
<g><path style="opacity:1" fill="#003845" d="M 289.5,515.5 C 301.5,515.5 313.5,515.5 325.5,515.5C 325.5,521.5 325.5,527.5 325.5,533.5C 313.5,533.5 301.5,533.5 289.5,533.5C 289.5,527.5 289.5,521.5 289.5,515.5 Z"/></g>
<g><path style="opacity:1" fill="#000000" d="M 361.5,515.5 C 367.5,515.5 373.5,515.5 379.5,515.5C 379.5,521.5 379.5,527.5 379.5,533.5C 373.5,533.5 367.5,533.5 361.5,533.5C 361.5,527.5 361.5,521.5 361.5,515.5 Z"/></g>
<g><path style="opacity:1" fill="#003844" d="M 125.5,496.5 C 131.833,496.5 138.167,496.5 144.5,496.5C 144.5,496.833 144.5,497.167 144.5,497.5C 144.5,503.5 144.5,509.5 144.5,515.5C 150.5,515.5 156.5,515.5 162.5,515.5C 162.5,521.5 162.5,527.5 162.5,533.5C 174.5,533.5 186.5,533.5 198.5,533.5C 198.5,539.5 198.5,545.5 198.5,551.5C 186.5,551.5 174.5,551.5 162.5,551.5C 162.167,551.5 161.833,551.5 161.5,551.5C 161.5,545.5 161.5,539.5 161.5,533.5C 155.5,533.5 149.5,533.5 143.5,533.5C 143.5,527.5 143.5,521.5 143.5,515.5C 137.5,515.5 131.5,515.5 125.5,515.5C 125.5,509.167 125.5,502.833 125.5,496.5 Z"/></g>
<g><path style="opacity:1" fill="#000000" d="M 361.5,533.5 C 361.5,539.5 361.5,545.5 361.5,551.5C 355.5,551.5 349.5,551.5 343.5,551.5C 343.5,545.5 343.5,539.5 343.5,533.5C 349.5,533.5 355.5,533.5 361.5,533.5 Z"/></g>
<g><path style="opacity:1" fill="#9b9512" d="M 126.5,551.5 C 126.5,557.5 126.5,563.5 126.5,569.5C 120.5,569.5 114.5,569.5 108.5,569.5C 108.5,575.5 108.5,581.5 108.5,587.5C 107.51,581.69 107.177,575.69 107.5,569.5C 107.5,563.5 107.5,557.5 107.5,551.5C 113.833,551.5 120.167,551.5 126.5,551.5 Z"/></g>
<g><path style="opacity:1" fill="#706a06" d="M 126.5,551.5 C 138.167,551.5 149.833,551.5 161.5,551.5C 161.833,551.5 162.167,551.5 162.5,551.5C 162.5,557.5 162.5,563.5 162.5,569.5C 156.5,569.5 150.5,569.5 144.5,569.5C 138.5,569.5 132.5,569.5 126.5,569.5C 126.5,563.5 126.5,557.5 126.5,551.5 Z"/></g>
<g><path style="opacity:1" fill="#9b9512" d="M 162.5,551.5 C 174.5,551.5 186.5,551.5 198.5,551.5C 204.5,551.5 210.5,551.5 216.5,551.5C 216.5,557.5 216.5,563.5 216.5,569.5C 210.5,569.5 204.5,569.5 198.5,569.5C 192.5,569.5 186.5,569.5 180.5,569.5C 180.5,575.5 180.5,581.5 180.5,587.5C 174.5,587.5 168.5,587.5 162.5,587.5C 162.5,581.5 162.5,575.5 162.5,569.5C 162.5,563.5 162.5,557.5 162.5,551.5 Z"/></g>
<g><path style="opacity:1" fill="#000000" d="M 216.5,551.5 C 228.5,551.5 240.5,551.5 252.5,551.5C 252.5,557.833 252.5,564.167 252.5,570.5C 240.833,570.5 229.167,570.5 217.5,570.5C 217.808,576.425 217.475,582.259 216.5,588C 210.509,588.499 204.509,588.666 198.5,588.5C 198.5,582.167 198.5,575.833 198.5,569.5C 204.5,569.5 210.5,569.5 216.5,569.5C 216.5,563.5 216.5,557.5 216.5,551.5 Z"/></g>
<g><path style="opacity:1" fill="#003844" d="M 343.5,551.5 C 343.5,557.5 343.5,563.5 343.5,569.5C 337.5,569.5 331.5,569.5 325.5,569.5C 325.5,563.5 325.5,557.5 325.5,551.5C 331.5,551.5 337.5,551.5 343.5,551.5 Z"/></g>
<g><path style="opacity:1" fill="#6f6a05" d="M 343.5,569.5 C 349.5,569.5 355.5,569.5 361.5,569.5C 361.5,575.5 361.5,581.5 361.5,587.5C 355.5,587.5 349.5,587.5 343.5,587.5C 343.5,581.5 343.5,575.5 343.5,569.5 Z"/></g>
<g><path style="opacity:1" fill="#d2cc37" d="M 126.5,569.5 C 126.5,575.5 126.5,581.5 126.5,587.5C 120.5,587.5 114.5,587.5 108.5,587.5C 108.5,581.5 108.5,575.5 108.5,569.5C 114.5,569.5 120.5,569.5 126.5,569.5 Z"/></g>
<g><path style="opacity:1" fill="#9c9612" d="M 126.5,569.5 C 132.5,569.5 138.5,569.5 144.5,569.5C 144.5,575.5 144.5,581.5 144.5,587.5C 138.5,587.5 132.5,587.5 126.5,587.5C 126.5,581.5 126.5,575.5 126.5,569.5 Z"/></g>
<g><path style="opacity:1" fill="#d3cd37" d="M 144.5,569.5 C 150.5,569.5 156.5,569.5 162.5,569.5C 162.5,575.5 162.5,581.5 162.5,587.5C 156.5,587.5 150.5,587.5 144.5,587.5C 144.5,581.5 144.5,575.5 144.5,569.5 Z"/></g>
<g><path style="opacity:1" fill="#706a06" d="M 198.5,569.5 C 198.5,575.833 198.5,582.167 198.5,588.5C 192.5,588.5 186.5,588.5 180.5,588.5C 180.5,588.167 180.5,587.833 180.5,587.5C 180.5,581.5 180.5,575.5 180.5,569.5C 186.5,569.5 192.5,569.5 198.5,569.5 Z"/></g>
<g><path style="opacity:1" fill="#023843" d="M 252.5,551.5 C 258.5,551.5 264.5,551.5 270.5,551.5C 270.5,557.5 270.5,563.5 270.5,569.5C 282.833,569.5 295.167,569.5 307.5,569.5C 307.5,575.5 307.5,581.5 307.5,587.5C 301.5,587.5 295.5,587.5 289.5,587.5C 283.167,587.5 276.833,587.5 270.5,587.5C 270.5,581.833 270.5,576.167 270.5,570.5C 264.5,570.5 258.5,570.5 252.5,570.5C 252.5,564.167 252.5,557.833 252.5,551.5 Z"/></g>
<g><path style="opacity:1" fill="#9a9412" d="M 307.5,569.5 C 313.5,569.5 319.5,569.5 325.5,569.5C 331.5,569.5 337.5,569.5 343.5,569.5C 343.5,575.5 343.5,581.5 343.5,587.5C 343.5,593.5 343.5,599.5 343.5,605.5C 337.5,605.5 331.5,605.5 325.5,605.5C 325.5,599.5 325.5,593.5 325.5,587.5C 319.5,587.5 313.5,587.5 307.5,587.5C 307.5,581.5 307.5,575.5 307.5,569.5 Z"/></g>
<g><path style="opacity:1" fill="#6e6805" d="M 107.5,569.5 C 107.177,575.69 107.51,581.69 108.5,587.5C 114.5,587.5 120.5,587.5 126.5,587.5C 126.5,593.833 126.5,600.167 126.5,606.5C 120.167,606.5 113.833,606.5 107.5,606.5C 107.5,600.5 107.5,594.5 107.5,588.5C 101.5,588.5 95.5,588.5 89.5,588.5C 89.5,582.167 89.5,575.833 89.5,569.5C 95.5,569.5 101.5,569.5 107.5,569.5 Z"/></g>
<g><path style="opacity:1" fill="#010100" d="M 126.5,587.5 C 132.5,587.5 138.5,587.5 144.5,587.5C 150.5,587.5 156.5,587.5 162.5,587.5C 168.5,587.5 174.5,587.5 180.5,587.5C 180.5,587.833 180.5,588.167 180.5,588.5C 180.5,594.5 180.5,600.5 180.5,606.5C 162.5,606.5 144.5,606.5 126.5,606.5C 126.5,600.167 126.5,593.833 126.5,587.5 Z"/></g>
<g><path style="opacity:1" fill="#9c9613" d="M 270.5,587.5 C 276.833,587.5 283.167,587.5 289.5,587.5C 289.5,593.5 289.5,599.5 289.5,605.5C 283.167,605.5 276.833,605.5 270.5,605.5C 270.5,599.5 270.5,593.5 270.5,587.5 Z"/></g>
<g><path style="opacity:1" fill="#d2cd37" d="M 289.5,587.5 C 295.5,587.5 301.5,587.5 307.5,587.5C 313.5,587.5 319.5,587.5 325.5,587.5C 325.5,593.5 325.5,599.5 325.5,605.5C 319.5,605.5 313.5,605.5 307.5,605.5C 301.5,605.5 295.5,605.5 289.5,605.5C 289.5,599.5 289.5,593.5 289.5,587.5 Z"/></g>
<g><path style="opacity:1" fill="#030300" d="M 343.5,587.5 C 349.5,587.5 355.5,587.5 361.5,587.5C 361.5,593.833 361.5,600.167 361.5,606.5C 355.5,606.5 349.5,606.5 343.5,606.5C 337.5,606.5 331.5,606.5 325.5,606.5C 325.5,606.167 325.5,605.833 325.5,605.5C 331.5,605.5 337.5,605.5 343.5,605.5C 343.5,599.5 343.5,593.5 343.5,587.5 Z"/></g>
<g><path style="opacity:1" fill="#9b9611" d="M 270.5,605.5 C 270.5,611.5 270.5,617.5 270.5,623.5C 270.5,623.833 270.5,624.167 270.5,624.5C 264.5,624.5 258.5,624.5 252.5,624.5C 252.5,618.167 252.5,611.833 252.5,605.5C 258.5,605.5 264.5,605.5 270.5,605.5 Z"/></g>
<g><path style="opacity:1" fill="#bab986" d="M 270.5,605.5 C 276.833,605.5 283.167,605.5 289.5,605.5C 289.5,611.5 289.5,617.5 289.5,623.5C 289.167,623.5 288.833,623.5 288.5,623.5C 288.5,617.833 288.5,612.167 288.5,606.5C 282.833,606.5 277.167,606.5 271.5,606.5C 271.5,612.167 271.5,617.833 271.5,623.5C 271.167,623.5 270.833,623.5 270.5,623.5C 270.5,617.5 270.5,611.5 270.5,605.5 Z"/></g>
<g><path style="opacity:1" fill="#cdcecd" d="M 288.5,623.5 C 282.833,623.5 277.167,623.5 271.5,623.5C 271.5,617.833 271.5,612.167 271.5,606.5C 277.167,606.5 282.833,606.5 288.5,606.5C 288.5,612.167 288.5,617.833 288.5,623.5 Z"/></g>
<g><path style="opacity:1" fill="#9e9718" d="M 289.5,605.5 C 295.5,605.5 301.5,605.5 307.5,605.5C 307.5,611.5 307.5,617.5 307.5,623.5C 301.5,623.5 295.5,623.5 289.5,623.5C 289.5,617.5 289.5,611.5 289.5,605.5 Z"/></g>
<g><path style="opacity:1" fill="#cdcdcb" d="M 307.5,605.5 C 313.5,605.5 319.5,605.5 325.5,605.5C 325.5,605.833 325.5,606.167 325.5,606.5C 324.511,611.975 324.178,617.642 324.5,623.5C 318.833,623.5 313.167,623.5 307.5,623.5C 307.5,617.5 307.5,611.5 307.5,605.5 Z"/></g>
<g><path style="opacity:1" fill="#000000" d="M 325.5,606.5 C 331.5,606.5 337.5,606.5 343.5,606.5C 343.5,612.5 343.5,618.5 343.5,624.5C 337.5,624.5 331.5,624.5 325.5,624.5C 325.5,618.5 325.5,612.5 325.5,606.5 Z"/></g>
<g><path style="opacity:1" fill="#525046" d="M 325.5,606.5 C 325.5,612.5 325.5,618.5 325.5,624.5C 307.167,624.5 288.833,624.5 270.5,624.5C 270.5,624.167 270.5,623.833 270.5,623.5C 270.833,623.5 271.167,623.5 271.5,623.5C 277.167,623.5 282.833,623.5 288.5,623.5C 288.833,623.5 289.167,623.5 289.5,623.5C 295.5,623.5 301.5,623.5 307.5,623.5C 313.167,623.5 318.833,623.5 324.5,623.5C 324.178,617.642 324.511,611.975 325.5,606.5 Z"/></g>
<g><path style="opacity:1" fill="#000000" d="M 270.5,624.5 C 288.833,624.5 307.167,624.5 325.5,624.5C 325.5,630.5 325.5,636.5 325.5,642.5C 307.167,642.5 288.833,642.5 270.5,642.5C 270.5,636.5 270.5,630.5 270.5,624.5 Z"/></g>
</svg>
