<?xml version="1.0" encoding="UTF-8"?>
<!DOCTYPE svg PUBLIC "-//W3C//DTD SVG 1.1//EN" "http://www.w3.org/Graphics/SVG/1.1/DTD/svg11.dtd">
<svg xmlns="http://www.w3.org/2000/svg" version="1.1" width="436px" height="656px" style="shape-rendering:geometricPrecision; text-rendering:geometricPrecision; image-rendering:optimizeQuality; fill-rule:evenodd; clip-rule:evenodd" xmlns:xlink="http://www.w3.org/1999/xlink">
<g><path style="opacity:1" fill="#9b5d11" d="M 234.5,23.5 C 229.5,23.5 224.5,23.5 219.5,23.5C 219.5,18.5 219.5,13.5 219.5,8.5C 224.5,8.5 229.5,8.5 234.5,8.5C 234.5,13.5 234.5,18.5 234.5,23.5 Z"/></g>
<g><path style="opacity:1" fill="#c67c2a" d="M 219.5,23.5 C 224.5,23.5 229.5,23.5 234.5,23.5C 234.5,28.5 234.5,33.5 234.5,38.5C 229.833,38.5 225.167,38.5 220.5,38.5C 220.5,43.1667 220.5,47.8333 220.5,52.5C 215.5,52.5 210.5,52.5 205.5,52.5C 205.5,47.5 205.5,42.5 205.5,37.5C 210.167,37.5 214.833,37.5 219.5,37.5C 219.5,32.8333 219.5,28.1667 219.5,23.5 Z"/></g>
<g><path style="opacity:1" fill="#9c5d12" d="M 234.5,38.5 C 234.5,43.1667 234.5,47.8333 234.5,52.5C 229.833,52.5 225.167,52.5 220.5,52.5C 220.5,47.8333 220.5,43.1667 220.5,38.5C 225.167,38.5 229.833,38.5 234.5,38.5 Z"/></g>
<g><path style="opacity:1" fill="#c77d2a" d="M 234.5,38.5 C 239.167,38.5 243.833,38.5 248.5,38.5C 248.5,47.8333 248.5,57.1667 248.5,66.5C 243.833,66.5 239.167,66.5 234.5,66.5C 234.5,61.8333 234.5,57.1667 234.5,52.5C 234.5,47.8333 234.5,43.1667 234.5,38.5 Z"/></g>
<g><path style="opacity:1" fill="#c77d2a" d="M 205.5,52.5 C 205.5,57.1667 205.5,61.8333 205.5,66.5C 195.833,66.5 186.167,66.5 176.5,66.5C 176.5,61.8333 176.5,57.1667 176.5,52.5C 186.167,52.5 195.833,52.5 205.5,52.5 Z"/></g>
<g><path style="opacity:1" fill="#e6a14a" d="M 205.5,52.5 C 210.5,52.5 215.5,52.5 220.5,52.5C 225.167,52.5 229.833,52.5 234.5,52.5C 234.5,57.1667 234.5,61.8333 234.5,66.5C 234.5,71.5 234.5,76.5 234.5,81.5C 239.167,81.5 243.833,81.5 248.5,81.5C 248.5,86.5 248.5,91.5 248.5,96.5C 243.833,96.5 239.167,96.5 234.5,96.5C 234.5,101.167 234.5,105.833 234.5,110.5C 220.167,110.5 205.833,110.5 191.5,110.5C 191.5,105.5 191.5,100.5 191.5,95.5C 186.5,95.5 181.5,95.5 176.5,95.5C 176.5,85.8333 176.5,76.1667 176.5,66.5C 186.167,66.5 195.833,66.5 205.5,66.5C 205.5,61.8333 205.5,57.1667 205.5,52.5 Z"/></g>
<g><path style="opacity:1" fill="#764305" d="M 176.5,66.5 C 176.5,76.1667 176.5,85.8333 176.5,95.5C 176.5,95.8333 176.5,96.1667 176.5,96.5C 171.5,96.5 166.5,96.5 161.5,96.5C 161.5,86.5 161.5,76.5 161.5,66.5C 166.5,66.5 171.5,66.5 176.5,66.5 Z"/></g>
<g><path style="opacity:1" fill="#784506" d="M 234.5,23.5 C 239.5,23.5 244.5,23.5 249.5,23.5C 249.5,28.1667 249.5,32.8333 249.5,37.5C 254.167,37.5 258.833,37.5 263.5,37.5C 263.5,47.5 263.5,57.5 263.5,67.5C 258.833,67.5 254.167,67.5 249.5,67.5C 249.5,72.1667 249.5,76.8333 249.5,81.5C 249.167,81.5 248.833,81.5 248.5,81.5C 243.833,81.5 239.167,81.5 234.5,81.5C 234.5,76.5 234.5,71.5 234.5,66.5C 239.167,66.5 243.833,66.5 248.5,66.5C 248.5,57.1667 248.5,47.8333 248.5,38.5C 243.833,38.5 239.167,38.5 234.5,38.5C 234.5,33.5 234.5,28.5 234.5,23.5 Z"/></g>
<g><path style="opacity:1" fill="#754405" d="M 249.5,81.5 C 254.167,81.5 258.833,81.5 263.5,81.5C 263.5,86.1667 263.5,90.8333 263.5,95.5C 263.5,90.8333 263.5,86.1667 263.5,81.5C 258.833,81.5 254.167,81.5 249.5,81.5 Z"/></g>
<g><path style="opacity:1" fill="#9b5d11" d="M 176.5,96.5 C 181.167,96.5 185.833,96.5 190.5,96.5C 190.5,101.167 190.5,105.833 190.5,110.5C 185.833,110.5 181.167,110.5 176.5,110.5C 176.5,105.833 176.5,101.167 176.5,96.5 Z"/></g>
<g><path style="opacity:1" fill="#c47a29" d="M 248.5,81.5 C 248.833,81.5 249.167,81.5 249.5,81.5C 249.5,86.1667 249.5,90.8333 249.5,95.5C 254.167,95.5 258.833,95.5 263.5,95.5C 263.5,100.5 263.5,105.5 263.5,110.5C 258.5,110.5 253.5,110.5 248.5,110.5C 243.833,110.5 239.167,110.5 234.5,110.5C 234.5,105.833 234.5,101.167 234.5,96.5C 239.167,96.5 243.833,96.5 248.5,96.5C 248.5,91.5 248.5,86.5 248.5,81.5 Z"/></g>
<g><path style="opacity:1" fill="#764305" d="M 263.5,95.5 C 268.5,95.5 273.5,95.5 278.5,95.5C 278.5,100.5 278.5,105.5 278.5,110.5C 273.5,110.5 268.5,110.5 263.5,110.5C 263.5,105.5 263.5,100.5 263.5,95.5 Z"/></g>
<g><path style="opacity:1" fill="#c77c2a" d="M 176.5,96.5 C 176.5,96.1667 176.5,95.8333 176.5,95.5C 181.5,95.5 186.5,95.5 191.5,95.5C 191.5,100.5 191.5,105.5 191.5,110.5C 205.833,110.5 220.167,110.5 234.5,110.5C 234.5,115.5 234.5,120.5 234.5,125.5C 248.833,125.5 263.167,125.5 277.5,125.5C 277.5,130.167 277.5,134.833 277.5,139.5C 282.5,139.5 287.5,139.5 292.5,139.5C 292.5,144.167 292.5,148.833 292.5,153.5C 297.167,153.5 301.833,153.5 306.5,153.5C 306.5,163.167 306.5,172.833 306.5,182.5C 310.97,183.486 315.637,183.819 320.5,183.5C 320.5,192.833 320.5,202.167 320.5,211.5C 311.167,211.5 301.833,211.5 292.5,211.5C 292.5,216.5 292.5,221.5 292.5,226.5C 287.5,226.5 282.5,226.5 277.5,226.5C 277.5,231.167 277.5,235.833 277.5,240.5C 272.833,240.5 268.167,240.5 263.5,240.5C 263.5,235.833 263.5,231.167 263.5,226.5C 263.5,221.5 263.5,216.5 263.5,211.5C 258.833,211.5 254.167,211.5 249.5,211.5C 249.5,201.833 249.5,192.167 249.5,182.5C 244.5,182.5 239.5,182.5 234.5,182.5C 234.5,187.5 234.5,192.5 234.5,197.5C 234.5,202.167 234.5,206.833 234.5,211.5C 229.5,211.5 224.5,211.5 219.5,211.5C 214.833,211.5 210.167,211.5 205.5,211.5C 205.5,216.5 205.5,221.5 205.5,226.5C 200.833,226.5 196.167,226.5 191.5,226.5C 191.5,221.5 191.5,216.5 191.5,211.5C 191.5,206.833 191.5,202.167 191.5,197.5C 196.167,197.5 200.833,197.5 205.5,197.5C 205.5,192.5 205.5,187.5 205.5,182.5C 200.5,182.5 195.5,182.5 190.5,182.5C 190.5,187.167 190.5,191.833 190.5,196.5C 185.637,196.181 180.97,196.514 176.5,197.5C 176.5,202.167 176.5,206.833 176.5,211.5C 171.833,211.5 167.167,211.5 162.5,211.5C 162.5,216.5 162.5,221.5 162.5,226.5C 157.5,226.5 152.5,226.5 147.5,226.5C 142.833,226.5 138.167,226.5 133.5,226.5C 133.5,231.167 133.5,235.833 133.5,240.5C 128.5,240.5 123.5,240.5 118.5,240.5C 118.5,235.833 118.5,231.167 118.5,226.5C 113.833,226.5 109.167,226.5 104.5,226.5C 104.5,221.5 104.5,216.5 104.5,211.5C 104.5,206.833 104.5,202.167 104.5,197.5C 104.5,192.5 104.5,187.5 104.5,182.5C 99.5,182.5 94.5,182.5 89.5,182.5C 89.5,187.5 89.5,192.5 89.5,197.5C 84.8333,197.5 80.1667,197.5 75.5,197.5C 75.5,192.5 75.5,187.5 75.5,182.5C 75.5,177.833 75.5,173.167 75.5,168.5C 80.1667,168.5 84.8333,168.5 89.5,168.5C 89.5,163.5 89.5,158.5 89.5,153.5C 94.5,153.5 99.5,153.5 104.5,153.5C 104.5,158.5 104.5,163.5 104.5,168.5C 109.167,168.5 113.833,168.5 118.5,168.5C 118.5,173.167 118.5,177.833 118.5,182.5C 137.833,182.5 157.167,182.5 176.5,182.5C 176.5,177.833 176.5,173.167 176.5,168.5C 186.167,168.5 195.833,168.5 205.5,168.5C 205.5,163.5 205.5,158.5 205.5,153.5C 200.833,153.5 196.167,153.5 191.5,153.5C 191.5,148.833 191.5,144.167 191.5,139.5C 172.167,139.5 152.833,139.5 133.5,139.5C 133.5,134.5 133.5,129.5 133.5,124.5C 147.833,124.5 162.167,124.5 176.5,124.5C 176.5,119.833 176.5,115.167 176.5,110.5C 181.167,110.5 185.833,110.5 190.5,110.5C 190.5,105.833 190.5,101.167 190.5,96.5C 185.833,96.5 181.167,96.5 176.5,96.5 Z"/></g>
<g><path style="opacity:1" fill="#9c5d13" d="M 234.5,110.5 C 239.167,110.5 243.833,110.5 248.5,110.5C 248.5,115.167 248.5,119.833 248.5,124.5C 253.5,124.5 258.5,124.5 263.5,124.5C 268.363,124.181 273.03,124.514 277.5,125.5C 263.167,125.5 248.833,125.5 234.5,125.5C 234.5,120.5 234.5,115.5 234.5,110.5 Z"/></g>
<g><path style="opacity:1" fill="#744305" d="M 248.5,110.5 C 253.5,110.5 258.5,110.5 263.5,110.5C 263.5,115.167 263.5,119.833 263.5,124.5C 258.5,124.5 253.5,124.5 248.5,124.5C 248.5,119.833 248.5,115.167 248.5,110.5 Z"/></g>
<g><path style="opacity:1" fill="#9c5d12" d="M 176.5,110.5 C 176.5,115.167 176.5,119.833 176.5,124.5C 162.167,124.5 147.833,124.5 133.5,124.5C 133.5,129.5 133.5,134.5 133.5,139.5C 128.5,139.5 123.5,139.5 118.5,139.5C 113.833,139.5 109.167,139.5 104.5,139.5C 103.833,139.5 103.5,139.167 103.5,138.5C 103.5,133.833 103.5,129.167 103.5,124.5C 113.167,124.5 122.833,124.5 132.5,124.5C 132.5,119.833 132.5,115.167 132.5,110.5C 147.167,110.5 161.833,110.5 176.5,110.5 Z"/></g>
<g><path style="opacity:1" fill="#774405" d="M 103.5,138.5 C 103.5,139.167 103.833,139.5 104.5,139.5C 104.5,144.167 104.5,148.833 104.5,153.5C 99.5,153.5 94.5,153.5 89.5,153.5C 89.5,148.5 89.5,143.5 89.5,138.5C 94.1667,138.5 98.8333,138.5 103.5,138.5 Z"/></g>
<g><path style="opacity:1" fill="#c77d2a" d="M 104.5,139.5 C 109.167,139.5 113.833,139.5 118.5,139.5C 118.5,144.167 118.5,148.833 118.5,153.5C 113.833,153.5 109.167,153.5 104.5,153.5C 104.5,148.833 104.5,144.167 104.5,139.5 Z"/></g>
<g><path style="opacity:1" fill="#e6a14a" d="M 118.5,139.5 C 123.5,139.5 128.5,139.5 133.5,139.5C 152.833,139.5 172.167,139.5 191.5,139.5C 191.5,144.167 191.5,148.833 191.5,153.5C 196.167,153.5 200.833,153.5 205.5,153.5C 205.5,158.5 205.5,163.5 205.5,168.5C 195.833,168.5 186.167,168.5 176.5,168.5C 176.5,173.167 176.5,177.833 176.5,182.5C 157.167,182.5 137.833,182.5 118.5,182.5C 118.5,177.833 118.5,173.167 118.5,168.5C 113.833,168.5 109.167,168.5 104.5,168.5C 104.5,163.5 104.5,158.5 104.5,153.5C 109.167,153.5 113.833,153.5 118.5,153.5C 118.5,148.833 118.5,144.167 118.5,139.5 Z"/></g>
<g><path style="opacity:1" fill="#010000" d="M 263.5,110.5 C 268.5,110.5 273.5,110.5 278.5,110.5C 278.5,115.167 278.5,119.833 278.5,124.5C 283.167,124.5 287.833,124.5 292.5,124.5C 292.5,129.167 292.5,133.833 292.5,138.5C 297.179,138.334 301.845,138.501 306.5,139C 307.469,143.737 307.803,148.57 307.5,153.5C 312.167,153.5 316.833,153.5 321.5,153.5C 321.5,163.167 321.5,172.833 321.5,182.5C 316.5,182.5 311.5,182.5 306.5,182.5C 306.5,172.833 306.5,163.167 306.5,153.5C 301.833,153.5 297.167,153.5 292.5,153.5C 292.5,148.833 292.5,144.167 292.5,139.5C 287.5,139.5 282.5,139.5 277.5,139.5C 277.5,134.833 277.5,130.167 277.5,125.5C 273.03,124.514 268.363,124.181 263.5,124.5C 263.5,119.833 263.5,115.167 263.5,110.5 Z"/></g>
<g><path style="opacity:1" fill="#764405" d="M 89.5,153.5 C 89.5,158.5 89.5,163.5 89.5,168.5C 84.8333,168.5 80.1667,168.5 75.5,168.5C 75.5,167.833 75.1667,167.5 74.5,167.5C 74.5,162.833 74.5,158.167 74.5,153.5C 79.5,153.5 84.5,153.5 89.5,153.5 Z"/></g>
<g><path style="opacity:1" fill="#020000" d="M 74.5,167.5 C 75.1667,167.5 75.5,167.833 75.5,168.5C 75.5,173.167 75.5,177.833 75.5,182.5C 70.5,182.5 65.5,182.5 60.5,182.5C 60.5,177.5 60.5,172.5 60.5,167.5C 65.1667,167.5 69.8333,167.5 74.5,167.5 Z"/></g>
<g><path style="opacity:1" fill="#000000" d="M 46.5,182.5 C 51.1667,182.5 55.8333,182.5 60.5,182.5C 60.5,192.167 60.5,201.833 60.5,211.5C 55.8333,211.5 51.1667,211.5 46.5,211.5C 46.5,206.833 46.5,202.167 46.5,197.5C 46.5,192.5 46.5,187.5 46.5,182.5 Z"/></g>
<g><path style="opacity:1" fill="#000000" d="M 321.5,182.5 C 326.167,182.5 330.833,182.5 335.5,182.5C 335.5,187.167 335.5,191.833 335.5,196.5C 335.5,201.5 335.5,206.5 335.5,211.5C 330.833,211.5 326.167,211.5 321.5,211.5C 321.5,201.833 321.5,192.167 321.5,182.5 Z"/></g>
<g><path style="opacity:1" fill="#734206" d="M 60.5,182.5 C 65.5,182.5 70.5,182.5 75.5,182.5C 75.5,187.5 75.5,192.5 75.5,197.5C 70.8333,197.5 66.1667,197.5 61.5,197.5C 61.5,202.167 61.5,206.833 61.5,211.5C 61.1667,211.5 60.8333,211.5 60.5,211.5C 60.5,201.833 60.5,192.167 60.5,182.5 Z"/></g>
<g><path style="opacity:1" fill="#9d5e14" d="M 104.5,197.5 C 99.8333,197.5 95.1667,197.5 90.5,197.5C 90.5,202.167 90.5,206.833 90.5,211.5C 90.1667,211.5 89.8333,211.5 89.5,211.5C 89.5,206.833 89.5,202.167 89.5,197.5C 89.5,192.5 89.5,187.5 89.5,182.5C 94.5,182.5 99.5,182.5 104.5,182.5C 104.5,187.5 104.5,192.5 104.5,197.5 Z"/></g>
<g><path style="opacity:1" fill="#9f6014" d="M 191.5,211.5 C 191.167,211.5 190.833,211.5 190.5,211.5C 190.5,206.833 190.5,202.167 190.5,197.5C 185.833,197.5 181.167,197.5 176.5,197.5C 180.97,196.514 185.637,196.181 190.5,196.5C 190.5,191.833 190.5,187.167 190.5,182.5C 195.5,182.5 200.5,182.5 205.5,182.5C 205.5,187.5 205.5,192.5 205.5,197.5C 200.833,197.5 196.167,197.5 191.5,197.5C 191.5,202.167 191.5,206.833 191.5,211.5 Z"/></g>
<g><path style="opacity:1" fill="#9d5e13" d="M 249.5,211.5 C 249.167,211.5 248.833,211.5 248.5,211.5C 248.5,206.833 248.5,202.167 248.5,197.5C 243.833,197.5 239.167,197.5 234.5,197.5C 234.5,192.5 234.5,187.5 234.5,182.5C 239.5,182.5 244.5,182.5 249.5,182.5C 249.5,192.167 249.5,201.833 249.5,211.5 Z"/></g>
<g><path style="opacity:1" fill="#d3a850" d="M 46.5,197.5 C 46.5,202.167 46.5,206.833 46.5,211.5C 41.8333,211.5 37.1667,211.5 32.5,211.5C 32.5,206.833 32.5,202.167 32.5,197.5C 37.1667,197.5 41.8333,197.5 46.5,197.5 Z"/></g>
<g><path style="opacity:1" fill="#c87d2b" d="M 75.5,197.5 C 75.5,202.167 75.5,206.833 75.5,211.5C 75.1667,211.5 74.8333,211.5 74.5,211.5C 70.1667,211.5 65.8333,211.5 61.5,211.5C 61.5,206.833 61.5,202.167 61.5,197.5C 66.1667,197.5 70.8333,197.5 75.5,197.5 Z"/></g>
<g><path style="opacity:1" fill="#ecc782" d="M 75.5,197.5 C 80.1667,197.5 84.8333,197.5 89.5,197.5C 89.5,202.167 89.5,206.833 89.5,211.5C 93.97,212.486 98.6367,212.819 103.5,212.5C 103.5,221.833 103.5,231.167 103.5,240.5C 98.8333,240.5 94.1667,240.5 89.5,240.5C 89.5,245.167 89.5,249.833 89.5,254.5C 84.8333,254.5 80.1667,254.5 75.5,254.5C 75.5,249.833 75.5,245.167 75.5,240.5C 70.5,240.5 65.5,240.5 60.5,240.5C 60.5,245.5 60.5,250.5 60.5,255.5C 55.8333,255.5 51.1667,255.5 46.5,255.5C 46.5,241.167 46.5,226.833 46.5,212.5C 51.1667,212.5 55.8333,212.5 60.5,212.5C 60.5,217.167 60.5,221.833 60.5,226.5C 65.5,226.5 70.5,226.5 75.5,226.5C 75.5,221.5 75.5,216.5 75.5,211.5C 75.5,206.833 75.5,202.167 75.5,197.5 Z"/></g>
<g><path style="opacity:1" fill="#774406" d="M 104.5,197.5 C 104.5,202.167 104.5,206.833 104.5,211.5C 99.8333,211.5 95.1667,211.5 90.5,211.5C 90.5,206.833 90.5,202.167 90.5,197.5C 95.1667,197.5 99.8333,197.5 104.5,197.5 Z"/></g>
<g><path style="opacity:1" fill="#754405" d="M 176.5,197.5 C 181.167,197.5 185.833,197.5 190.5,197.5C 190.5,202.167 190.5,206.833 190.5,211.5C 185.833,211.5 181.167,211.5 176.5,211.5C 176.5,206.833 176.5,202.167 176.5,197.5 Z"/></g>
<g><path style="opacity:1" fill="#754405" d="M 234.5,197.5 C 239.167,197.5 243.833,197.5 248.5,197.5C 248.5,202.167 248.5,206.833 248.5,211.5C 243.833,211.5 239.167,211.5 234.5,211.5C 234.5,206.833 234.5,202.167 234.5,197.5 Z"/></g>
<g><path style="opacity:1" fill="#6f4b0b" d="M 335.5,196.5 C 345.167,196.5 354.833,196.5 364.5,196.5C 364.5,201.5 364.5,206.5 364.5,211.5C 354.833,211.5 345.167,211.5 335.5,211.5C 335.5,206.5 335.5,201.5 335.5,196.5 Z"/></g>
<g><path style="opacity:1" fill="#704a0c" d="M 364.5,211.5 C 369.5,211.5 374.5,211.5 379.5,211.5C 379.5,221.167 379.5,230.833 379.5,240.5C 374.5,240.5 369.5,240.5 364.5,240.5C 364.5,230.833 364.5,221.167 364.5,211.5 Z"/></g>
<g><path style="opacity:1" fill="#37260b" d="M 32.5,211.5 C 37.1667,211.5 41.8333,211.5 46.5,211.5C 46.5,211.833 46.5,212.167 46.5,212.5C 41.8333,212.5 37.1667,212.5 32.5,212.5C 32.5,217.167 32.5,221.833 32.5,226.5C 32.1667,226.5 31.8333,226.5 31.5,226.5C 31.1795,221.305 31.5128,216.305 32.5,211.5 Z"/></g>
<g><path style="opacity:1" fill="#000000" d="M 46.5,212.5 C 46.5,226.833 46.5,241.167 46.5,255.5C 41.8333,255.5 37.1667,255.5 32.5,255.5C 32.5,245.833 32.5,236.167 32.5,226.5C 32.5,221.833 32.5,217.167 32.5,212.5C 37.1667,212.5 41.8333,212.5 46.5,212.5 Z"/></g>
<g><path style="opacity:1" fill="#9d5e14" d="M 176.5,211.5 C 176.5,216.5 176.5,221.5 176.5,226.5C 171.833,226.5 167.167,226.5 162.5,226.5C 162.5,221.5 162.5,216.5 162.5,211.5C 167.167,211.5 171.833,211.5 176.5,211.5 Z"/></g>
<g><path style="opacity:1" fill="#ecc782" d="M 176.5,211.5 C 181.167,211.5 185.833,211.5 190.5,211.5C 190.833,211.5 191.167,211.5 191.5,211.5C 191.5,216.5 191.5,221.5 191.5,226.5C 191.5,231.167 191.5,235.833 191.5,240.5C 196.167,240.5 200.833,240.5 205.5,240.5C 205.5,235.833 205.5,231.167 205.5,226.5C 210.167,226.5 214.833,226.5 219.5,226.5C 219.5,221.5 219.5,216.5 219.5,211.5C 224.5,211.5 229.5,211.5 234.5,211.5C 238.97,212.486 243.637,212.819 248.5,212.5C 248.181,217.363 248.514,222.03 249.5,226.5C 254.167,226.5 258.833,226.5 263.5,226.5C 263.5,231.167 263.5,235.833 263.5,240.5C 263.5,245.5 263.5,250.5 263.5,255.5C 268.167,255.5 272.833,255.5 277.5,255.5C 277.5,260.167 277.5,264.833 277.5,269.5C 277.5,274.5 277.5,279.5 277.5,284.5C 272.833,284.5 268.167,284.5 263.5,284.5C 263.5,289.167 263.5,293.833 263.5,298.5C 263.5,308.167 263.5,317.833 263.5,327.5C 263.5,332.5 263.5,337.5 263.5,342.5C 268.167,342.5 272.833,342.5 277.5,342.5C 277.5,347.167 277.5,351.833 277.5,356.5C 272.833,356.5 268.167,356.5 263.5,356.5C 262.514,360.97 262.181,365.637 262.5,370.5C 257.901,370.2 253.401,370.533 249,371.5C 248.501,376.155 248.334,380.821 248.5,385.5C 238.833,385.5 229.167,385.5 219.5,385.5C 214.833,385.5 210.167,385.5 205.5,385.5C 205.5,390.167 205.5,394.833 205.5,399.5C 195.652,399.173 185.986,399.506 176.5,400.5C 176.5,405.167 176.5,409.833 176.5,414.5C 162.167,414.5 147.833,414.5 133.5,414.5C 128.5,414.5 123.5,414.5 118.5,414.5C 118.5,409.833 118.5,405.167 118.5,400.5C 114.03,399.514 109.363,399.181 104.5,399.5C 104.5,394.833 104.5,390.167 104.5,385.5C 99.8333,385.5 95.1667,385.5 90.5,385.5C 90.1667,385.5 89.8333,385.5 89.5,385.5C 89.5,380.5 89.5,375.5 89.5,370.5C 94.5,370.5 99.5,370.5 104.5,370.5C 104.5,356.167 104.5,341.833 104.5,327.5C 99.8333,327.5 95.1667,327.5 90.5,327.5C 90.8271,317.652 90.4938,307.986 89.5,298.5C 89.5,293.833 89.5,289.167 89.5,284.5C 90.4872,279.695 90.8205,274.695 90.5,269.5C 95.1667,269.5 99.8333,269.5 104.5,269.5C 104.5,259.833 104.5,250.167 104.5,240.5C 109.167,240.5 113.833,240.5 118.5,240.5C 118.5,245.5 118.5,250.5 118.5,255.5C 123.5,255.5 128.5,255.5 133.5,255.5C 133.5,250.5 133.5,245.5 133.5,240.5C 138.167,240.5 142.833,240.5 147.5,240.5C 147.5,235.833 147.5,231.167 147.5,226.5C 152.5,226.5 157.5,226.5 162.5,226.5C 167.167,226.5 171.833,226.5 176.5,226.5C 176.5,221.5 176.5,216.5 176.5,211.5 Z"/></g>
<g><path style="opacity:1" fill="#794608" d="M 219.5,211.5 C 219.5,216.5 219.5,221.5 219.5,226.5C 214.833,226.5 210.167,226.5 205.5,226.5C 205.5,221.5 205.5,216.5 205.5,211.5C 210.167,211.5 214.833,211.5 219.5,211.5 Z"/></g>
<g><path style="opacity:1" fill="#c18d4a" d="M 234.5,211.5 C 239.167,211.5 243.833,211.5 248.5,211.5C 248.833,211.5 249.167,211.5 249.5,211.5C 249.5,216.5 249.5,221.5 249.5,226.5C 248.514,222.03 248.181,217.363 248.5,212.5C 243.637,212.819 238.97,212.486 234.5,211.5 Z"/></g>
<g><path style="opacity:1" fill="#9e5e14" d="M 249.5,211.5 C 254.167,211.5 258.833,211.5 263.5,211.5C 263.5,216.5 263.5,221.5 263.5,226.5C 258.833,226.5 254.167,226.5 249.5,226.5C 249.5,221.5 249.5,216.5 249.5,211.5 Z"/></g>
<g><path style="opacity:1" fill="#9c5f15" d="M 320.5,211.5 C 320.221,216.595 320.555,221.595 321.5,226.5C 316.5,226.5 311.5,226.5 306.5,226.5C 306.5,231.167 306.5,235.833 306.5,240.5C 301.833,240.5 297.167,240.5 292.5,240.5C 292.5,245.167 292.5,249.833 292.5,254.5C 297.167,254.5 301.833,254.5 306.5,254.5C 306.5,254.833 306.5,255.167 306.5,255.5C 301.833,255.5 297.167,255.5 292.5,255.5C 292.5,260.167 292.5,264.833 292.5,269.5C 292.5,274.5 292.5,279.5 292.5,284.5C 292.5,289.167 292.5,293.833 292.5,298.5C 292.5,308.167 292.5,317.833 292.5,327.5C 292.167,327.5 291.833,327.5 291.5,327.5C 291.5,317.833 291.5,308.167 291.5,298.5C 291.5,288.833 291.5,279.167 291.5,269.5C 286.833,269.5 282.167,269.5 277.5,269.5C 277.5,264.833 277.5,260.167 277.5,255.5C 277.5,250.5 277.5,245.5 277.5,240.5C 277.5,235.833 277.5,231.167 277.5,226.5C 282.5,226.5 287.5,226.5 292.5,226.5C 292.5,221.5 292.5,216.5 292.5,211.5C 301.833,211.5 311.167,211.5 320.5,211.5 Z"/></g>
<g><path style="opacity:1" fill="#734c10" d="M 306.5,182.5 C 311.5,182.5 316.5,182.5 321.5,182.5C 321.5,192.167 321.5,201.833 321.5,211.5C 326.167,211.5 330.833,211.5 335.5,211.5C 335.5,216.5 335.5,221.5 335.5,226.5C 330.833,226.5 326.167,226.5 321.5,226.5C 320.555,221.595 320.221,216.595 320.5,211.5C 320.5,202.167 320.5,192.833 320.5,183.5C 315.637,183.819 310.97,183.486 306.5,182.5 Z"/></g>
<g><path style="opacity:1" fill="#ebc681" d="M 335.5,211.5 C 345.167,211.5 354.833,211.5 364.5,211.5C 364.5,221.167 364.5,230.833 364.5,240.5C 364.5,250.167 364.5,259.833 364.5,269.5C 359.833,269.5 355.167,269.5 350.5,269.5C 350.827,259.652 350.494,249.986 349.5,240.5C 344.833,240.5 340.167,240.5 335.5,240.5C 330.833,240.5 326.167,240.5 321.5,240.5C 321.5,235.833 321.5,231.167 321.5,226.5C 326.167,226.5 330.833,226.5 335.5,226.5C 335.5,221.5 335.5,216.5 335.5,211.5 Z"/></g>
<g><path style="opacity:1" fill="#af7a36" d="M 46.5,212.5 C 46.5,212.167 46.5,211.833 46.5,211.5C 51.1667,211.5 55.8333,211.5 60.5,211.5C 60.8333,211.5 61.1667,211.5 61.5,211.5C 61.5,216.167 61.5,220.833 61.5,225.5C 65.8333,225.5 70.1667,225.5 74.5,225.5C 74.5,220.833 74.5,216.167 74.5,211.5C 74.8333,211.5 75.1667,211.5 75.5,211.5C 75.5,216.5 75.5,221.5 75.5,226.5C 70.5,226.5 65.5,226.5 60.5,226.5C 60.5,221.833 60.5,217.167 60.5,212.5C 55.8333,212.5 51.1667,212.5 46.5,212.5 Z"/></g>
<g><path style="opacity:1" fill="#9c5d12" d="M 61.5,211.5 C 65.8333,211.5 70.1667,211.5 74.5,211.5C 74.5,216.167 74.5,220.833 74.5,225.5C 70.1667,225.5 65.8333,225.5 61.5,225.5C 61.5,220.833 61.5,216.167 61.5,211.5 Z"/></g>
<g><path style="opacity:1" fill="#704b0c" d="M 46.5,182.5 C 46.5,187.5 46.5,192.5 46.5,197.5C 41.8333,197.5 37.1667,197.5 32.5,197.5C 32.5,202.167 32.5,206.833 32.5,211.5C 31.5128,216.305 31.1795,221.305 31.5,226.5C 26.8333,226.5 22.1667,226.5 17.5,226.5C 17.5,245.833 17.5,265.167 17.5,284.5C 12.5,284.5 7.5,284.5 2.5,284.5C 2.5,264.833 2.5,245.167 2.5,225.5C 7.5,225.5 12.5,225.5 17.5,225.5C 17.5,215.833 17.5,206.167 17.5,196.5C 22.1667,196.5 26.8333,196.5 31.5,196.5C 31.5,191.833 31.5,187.167 31.5,182.5C 36.5,182.5 41.5,182.5 46.5,182.5 Z"/></g>
<g><path style="opacity:1" fill="#d2a650" d="M 31.5,226.5 C 31.5,245.833 31.5,265.167 31.5,284.5C 26.8333,284.5 22.1667,284.5 17.5,284.5C 17.5,265.167 17.5,245.833 17.5,226.5C 22.1667,226.5 26.8333,226.5 31.5,226.5 Z"/></g>
<g><path style="opacity:1" fill="#9b5d11" d="M 104.5,226.5 C 109.167,226.5 113.833,226.5 118.5,226.5C 118.5,231.167 118.5,235.833 118.5,240.5C 113.833,240.5 109.167,240.5 104.5,240.5C 104.5,235.833 104.5,231.167 104.5,226.5 Z"/></g>
<g><path style="opacity:1" fill="#754405" d="M 147.5,226.5 C 147.5,231.167 147.5,235.833 147.5,240.5C 142.833,240.5 138.167,240.5 133.5,240.5C 133.5,235.833 133.5,231.167 133.5,226.5C 138.167,226.5 142.833,226.5 147.5,226.5 Z"/></g>
<g><path style="opacity:1" fill="#9b5d11" d="M 191.5,226.5 C 196.167,226.5 200.833,226.5 205.5,226.5C 205.5,231.167 205.5,235.833 205.5,240.5C 200.833,240.5 196.167,240.5 191.5,240.5C 191.5,235.833 191.5,231.167 191.5,226.5 Z"/></g>
<g><path style="opacity:1" fill="#c1474b" d="M 75.5,254.5 C 75.5,254.833 75.5,255.167 75.5,255.5C 70.5,255.5 65.5,255.5 60.5,255.5C 60.5,250.5 60.5,245.5 60.5,240.5C 65.5,240.5 70.5,240.5 75.5,240.5C 75.5,245.167 75.5,249.833 75.5,254.5 Z"/></g>
<g><path style="opacity:1" fill="#d5a854" d="M 89.5,211.5 C 89.8333,211.5 90.1667,211.5 90.5,211.5C 95.1667,211.5 99.8333,211.5 104.5,211.5C 104.5,216.5 104.5,221.5 104.5,226.5C 104.5,231.167 104.5,235.833 104.5,240.5C 104.5,250.167 104.5,259.833 104.5,269.5C 99.8333,269.5 95.1667,269.5 90.5,269.5C 90.8195,264.637 90.4861,259.97 89.5,255.5C 84.8333,255.5 80.1667,255.5 75.5,255.5C 75.5,255.167 75.5,254.833 75.5,254.5C 80.1667,254.5 84.8333,254.5 89.5,254.5C 89.5,249.833 89.5,245.167 89.5,240.5C 94.1667,240.5 98.8333,240.5 103.5,240.5C 103.5,231.167 103.5,221.833 103.5,212.5C 98.6367,212.819 93.97,212.486 89.5,211.5 Z"/></g>
<g><path style="opacity:1" fill="#7d4b0c" d="M 118.5,240.5 C 123.5,240.5 128.5,240.5 133.5,240.5C 133.5,245.5 133.5,250.5 133.5,255.5C 128.5,255.5 123.5,255.5 118.5,255.5C 118.5,250.5 118.5,245.5 118.5,240.5 Z"/></g>
<g><path style="opacity:1" fill="#d4a852" d="M 263.5,240.5 C 268.167,240.5 272.833,240.5 277.5,240.5C 277.5,245.5 277.5,250.5 277.5,255.5C 272.833,255.5 268.167,255.5 263.5,255.5C 263.5,250.5 263.5,245.5 263.5,240.5 Z"/></g>
<g><path style="opacity:1" fill="#704b0c" d="M 306.5,240.5 C 306.5,245.167 306.5,249.833 306.5,254.5C 301.833,254.5 297.167,254.5 292.5,254.5C 292.5,249.833 292.5,245.167 292.5,240.5C 297.167,240.5 301.833,240.5 306.5,240.5 Z"/></g>
<g><path style="opacity:1" fill="#ecc782" d="M 306.5,240.5 C 311.167,240.5 315.833,240.5 320.5,240.5C 320.5,250.167 320.5,259.833 320.5,269.5C 315.833,269.5 311.167,269.5 306.5,269.5C 306.5,264.833 306.5,260.167 306.5,255.5C 306.5,255.167 306.5,254.833 306.5,254.5C 306.5,249.833 306.5,245.167 306.5,240.5 Z"/></g>
<g><path style="opacity:1" fill="#d2a551" d="M 321.5,226.5 C 321.5,231.167 321.5,235.833 321.5,240.5C 326.167,240.5 330.833,240.5 335.5,240.5C 335.5,245.5 335.5,250.5 335.5,255.5C 330.833,255.5 326.167,255.5 321.5,255.5C 321.819,260.363 321.486,265.03 320.5,269.5C 320.5,259.833 320.5,250.167 320.5,240.5C 315.833,240.5 311.167,240.5 306.5,240.5C 306.5,235.833 306.5,231.167 306.5,226.5C 311.5,226.5 316.5,226.5 321.5,226.5 Z"/></g>
<g><path style="opacity:1" fill="#4b1200" d="M 335.5,240.5 C 340.167,240.5 344.833,240.5 349.5,240.5C 349.5,254.833 349.5,269.167 349.5,283.5C 344.637,283.181 339.97,283.514 335.5,284.5C 335.5,289.167 335.5,293.833 335.5,298.5C 330.833,298.5 326.167,298.5 321.5,298.5C 320.514,302.97 320.181,307.637 320.5,312.5C 315.637,312.181 310.97,312.514 306.5,313.5C 306.5,318.167 306.5,322.833 306.5,327.5C 301.833,327.5 297.167,327.5 292.5,327.5C 292.5,317.833 292.5,308.167 292.5,298.5C 297.167,298.5 301.833,298.5 306.5,298.5C 306.5,293.833 306.5,289.167 306.5,284.5C 306.5,279.5 306.5,274.5 306.5,269.5C 311.167,269.5 315.833,269.5 320.5,269.5C 321.486,265.03 321.819,260.363 321.5,255.5C 326.167,255.5 330.833,255.5 335.5,255.5C 335.5,250.5 335.5,245.5 335.5,240.5 Z"/></g>
<g><path style="opacity:1" fill="#936133" d="M 349.5,240.5 C 350.494,249.986 350.827,259.652 350.5,269.5C 350.5,274.5 350.5,279.5 350.5,284.5C 345.5,284.5 340.5,284.5 335.5,284.5C 339.97,283.514 344.637,283.181 349.5,283.5C 349.5,269.167 349.5,254.833 349.5,240.5 Z"/></g>
<g><path style="opacity:1" fill="#000000" d="M 364.5,240.5 C 369.5,240.5 374.5,240.5 379.5,240.5C 379.5,259.833 379.5,279.167 379.5,298.5C 374.5,298.5 369.5,298.5 364.5,298.5C 364.5,288.833 364.5,279.167 364.5,269.5C 364.5,259.833 364.5,250.167 364.5,240.5 Z"/></g>
<g><path style="opacity:1" fill="#8a5f27" d="M 31.5,226.5 C 31.8333,226.5 32.1667,226.5 32.5,226.5C 32.5,236.167 32.5,245.833 32.5,255.5C 32.5,264.833 32.5,274.167 32.5,283.5C 37.3633,283.181 42.03,283.514 46.5,284.5C 41.8333,284.5 37.1667,284.5 32.5,284.5C 32.5,298.833 32.5,313.167 32.5,327.5C 32.1667,327.5 31.8333,327.5 31.5,327.5C 31.5,313.167 31.5,298.833 31.5,284.5C 31.5,265.167 31.5,245.833 31.5,226.5 Z"/></g>
<g><path style="opacity:1" fill="#4a1200" d="M 32.5,255.5 C 37.1667,255.5 41.8333,255.5 46.5,255.5C 51.1667,255.5 55.8333,255.5 60.5,255.5C 60.5,260.167 60.5,264.833 60.5,269.5C 60.5,274.5 60.5,279.5 60.5,284.5C 60.5,293.833 60.5,303.167 60.5,312.5C 55.8333,312.5 51.1667,312.5 46.5,312.5C 46.5,303.167 46.5,293.833 46.5,284.5C 42.03,283.514 37.3633,283.181 32.5,283.5C 32.5,274.167 32.5,264.833 32.5,255.5 Z"/></g>
<g><path style="opacity:1" fill="#a11218" d="M 60.5,255.5 C 65.5,255.5 70.5,255.5 75.5,255.5C 80.1667,255.5 84.8333,255.5 89.5,255.5C 89.5,264.833 89.5,274.167 89.5,283.5C 84.8333,283.5 80.1667,283.5 75.5,283.5C 75.5,278.833 75.5,274.167 75.5,269.5C 70.5,269.5 65.5,269.5 60.5,269.5C 60.5,264.833 60.5,260.167 60.5,255.5 Z"/></g>
<g><path style="opacity:1" fill="#d3a850" d="M 162.5,269.5 C 162.5,264.833 162.5,260.167 162.5,255.5C 167.167,255.5 171.833,255.5 176.5,255.5C 176.5,260.167 176.5,264.833 176.5,269.5C 171.833,269.5 167.167,269.5 162.5,269.5 Z"/></g>
<g><path style="opacity:1" fill="#c1444b" d="M 234.5,255.5 C 234.5,260.167 234.5,264.833 234.5,269.5C 224.833,269.5 215.167,269.5 205.5,269.5C 205.5,264.833 205.5,260.167 205.5,255.5C 215.167,255.5 224.833,255.5 234.5,255.5 Z"/></g>
<g><path style="opacity:1" fill="#d3a850" d="M 234.5,255.5 C 239.167,255.5 243.833,255.5 248.5,255.5C 248.5,260.167 248.5,264.833 248.5,269.5C 243.833,269.5 239.167,269.5 234.5,269.5C 234.5,264.833 234.5,260.167 234.5,255.5 Z"/></g>
<g><path style="opacity:1" fill="#d3a850" d="M 306.5,255.5 C 306.5,260.167 306.5,264.833 306.5,269.5C 301.833,269.5 297.167,269.5 292.5,269.5C 292.5,264.833 292.5,260.167 292.5,255.5C 297.167,255.5 301.833,255.5 306.5,255.5 Z"/></g>
<g><path style="opacity:1" fill="#d2a553" d="M 60.5,269.5 C 65.5,269.5 70.5,269.5 75.5,269.5C 75.5,274.167 75.5,278.833 75.5,283.5C 75.5,283.833 75.5,284.167 75.5,284.5C 70.5,284.5 65.5,284.5 60.5,284.5C 60.5,279.5 60.5,274.5 60.5,269.5 Z"/></g>
<g><path style="opacity:1" fill="#c8795b" d="M 89.5,255.5 C 90.4861,259.97 90.8195,264.637 90.5,269.5C 90.8205,274.695 90.4872,279.695 89.5,284.5C 84.8333,284.5 80.1667,284.5 75.5,284.5C 75.5,284.167 75.5,283.833 75.5,283.5C 80.1667,283.5 84.8333,283.5 89.5,283.5C 89.5,274.167 89.5,264.833 89.5,255.5 Z"/></g>
<g><path style="opacity:1" fill="#d5a852" d="M 162.5,269.5 C 162.5,279.167 162.5,288.833 162.5,298.5C 157.5,298.5 152.5,298.5 147.5,298.5C 147.5,288.833 147.5,279.167 147.5,269.5C 152.5,269.5 157.5,269.5 162.5,269.5 Z"/></g>
<g><path style="opacity:1" fill="#c0484e" d="M 191.5,269.5 C 196.167,269.5 200.833,269.5 205.5,269.5C 205.5,274.167 205.5,278.833 205.5,283.5C 215.167,283.5 224.833,283.5 234.5,283.5C 234.5,283.833 234.5,284.167 234.5,284.5C 224.833,284.5 215.167,284.5 205.5,284.5C 200.833,284.5 196.167,284.5 191.5,284.5C 191.5,279.5 191.5,274.5 191.5,269.5 Z"/></g>
<g><path style="opacity:1" fill="#a21219" d="M 205.5,269.5 C 215.167,269.5 224.833,269.5 234.5,269.5C 234.5,274.167 234.5,278.833 234.5,283.5C 224.833,283.5 215.167,283.5 205.5,283.5C 205.5,278.833 205.5,274.167 205.5,269.5 Z"/></g>
<g><path style="opacity:1" fill="#c04349" d="M 234.5,269.5 C 239.167,269.5 243.833,269.5 248.5,269.5C 248.5,274.5 248.5,279.5 248.5,284.5C 243.833,284.5 239.167,284.5 234.5,284.5C 234.5,284.167 234.5,283.833 234.5,283.5C 234.5,278.833 234.5,274.167 234.5,269.5 Z"/></g>
<g><path style="opacity:1" fill="#714c0d" d="M 277.5,269.5 C 282.167,269.5 286.833,269.5 291.5,269.5C 291.5,279.167 291.5,288.833 291.5,298.5C 286.833,298.5 282.167,298.5 277.5,298.5C 277.5,293.833 277.5,289.167 277.5,284.5C 277.5,279.5 277.5,274.5 277.5,269.5 Z"/></g>
<g><path style="opacity:1" fill="#ebc681" d="M 292.5,269.5 C 297.167,269.5 301.833,269.5 306.5,269.5C 306.5,274.5 306.5,279.5 306.5,284.5C 301.833,284.5 297.167,284.5 292.5,284.5C 292.5,279.5 292.5,274.5 292.5,269.5 Z"/></g>
<g><path style="opacity:1" fill="#d2a650" d="M 350.5,269.5 C 355.167,269.5 359.833,269.5 364.5,269.5C 364.5,279.167 364.5,288.833 364.5,298.5C 359.833,298.5 355.167,298.5 350.5,298.5C 350.5,308.167 350.5,317.833 350.5,327.5C 345.5,327.5 340.5,327.5 335.5,327.5C 335.5,332.167 335.5,336.833 335.5,341.5C 330.5,341.5 325.5,341.5 320.5,341.5C 320.5,346.5 320.5,351.5 320.5,356.5C 315.833,356.5 311.167,356.5 306.5,356.5C 306.5,361.167 306.5,365.833 306.5,370.5C 301.833,370.5 297.167,370.5 292.5,370.5C 287.5,370.5 282.5,370.5 277.5,370.5C 277.5,365.833 277.5,361.167 277.5,356.5C 277.5,351.833 277.5,347.167 277.5,342.5C 272.833,342.5 268.167,342.5 263.5,342.5C 263.5,337.5 263.5,332.5 263.5,327.5C 268.167,327.5 272.833,327.5 277.5,327.5C 277.5,317.833 277.5,308.167 277.5,298.5C 282.167,298.5 286.833,298.5 291.5,298.5C 291.5,308.167 291.5,317.833 291.5,327.5C 291.5,332.5 291.5,337.5 291.5,342.5C 296.695,342.821 301.695,342.487 306.5,341.5C 306.5,336.833 306.5,332.167 306.5,327.5C 311.5,327.5 316.5,327.5 321.5,327.5C 321.5,322.833 321.5,318.167 321.5,313.5C 326.167,313.5 330.833,313.5 335.5,313.5C 335.5,308.5 335.5,303.5 335.5,298.5C 335.5,293.833 335.5,289.167 335.5,284.5C 340.5,284.5 345.5,284.5 350.5,284.5C 350.5,279.5 350.5,274.5 350.5,269.5 Z"/></g>
<g><path style="opacity:1" fill="#d78f6d" d="M 191.5,269.5 C 191.5,274.5 191.5,279.5 191.5,284.5C 186.5,284.5 181.5,284.5 176.5,284.5C 180.97,283.514 185.637,283.181 190.5,283.5C 190.181,278.637 190.514,273.97 191.5,269.5 Z"/></g>
<g><path style="opacity:1" fill="#6f4b0b" d="M 17.5,284.5 C 22.1667,284.5 26.8333,284.5 31.5,284.5C 31.5,298.833 31.5,313.167 31.5,327.5C 26.8333,327.5 22.1667,327.5 17.5,327.5C 17.5,313.167 17.5,298.833 17.5,284.5 Z"/></g>
<g><path style="opacity:1" fill="#d2a650" d="M 46.5,284.5 C 46.5,293.833 46.5,303.167 46.5,312.5C 51.1667,312.5 55.8333,312.5 60.5,312.5C 60.5,317.5 60.5,322.5 60.5,327.5C 55.8333,327.5 51.1667,327.5 46.5,327.5C 41.8333,327.5 37.1667,327.5 32.5,327.5C 32.5,313.167 32.5,298.833 32.5,284.5C 37.1667,284.5 41.8333,284.5 46.5,284.5 Z"/></g>
<g><path style="opacity:1" fill="#f5f4f3" d="M 60.5,284.5 C 65.5,284.5 70.5,284.5 75.5,284.5C 80.1667,284.5 84.8333,284.5 89.5,284.5C 89.5,289.167 89.5,293.833 89.5,298.5C 84.8333,298.5 80.1667,298.5 75.5,298.5C 75.5,303.167 75.5,307.833 75.5,312.5C 75.5,322.167 75.5,331.833 75.5,341.5C 75.5,341.833 75.5,342.167 75.5,342.5C 70.8333,342.5 66.1667,342.5 61.5,342.5C 61.1667,342.5 60.8333,342.5 60.5,342.5C 60.5,337.5 60.5,332.5 60.5,327.5C 60.5,322.5 60.5,317.5 60.5,312.5C 60.5,303.167 60.5,293.833 60.5,284.5 Z"/></g>
<g><path style="opacity:1" fill="#ba4047" d="M 176.5,284.5 C 181.5,284.5 186.5,284.5 191.5,284.5C 191.5,289.167 191.5,293.833 191.5,298.5C 191.5,303.167 191.5,307.833 191.5,312.5C 191.167,312.5 190.833,312.5 190.5,312.5C 190.5,307.833 190.5,303.167 190.5,298.5C 185.833,298.5 181.167,298.5 176.5,298.5C 176.5,293.833 176.5,289.167 176.5,284.5 Z"/></g>
<g><path style="opacity:1" fill="#a11218" d="M 191.5,284.5 C 196.167,284.5 200.833,284.5 205.5,284.5C 205.5,289.167 205.5,293.833 205.5,298.5C 200.833,298.5 196.167,298.5 191.5,298.5C 191.5,293.833 191.5,289.167 191.5,284.5 Z"/></g>
<g><path style="opacity:1" fill="#f6f6f6" d="M 205.5,284.5 C 215.167,284.5 224.833,284.5 234.5,284.5C 234.5,298.833 234.5,313.167 234.5,327.5C 234.5,332.167 234.5,336.833 234.5,341.5C 234.5,341.833 234.5,342.167 234.5,342.5C 234.5,347.167 234.5,351.833 234.5,356.5C 229.5,356.5 224.5,356.5 219.5,356.5C 219.5,346.833 219.5,337.167 219.5,327.5C 219.5,322.833 219.5,318.167 219.5,313.5C 215.03,312.514 210.363,312.181 205.5,312.5C 205.5,307.833 205.5,303.167 205.5,298.5C 205.5,293.833 205.5,289.167 205.5,284.5 Z"/></g>
<g><path style="opacity:1" fill="#a11218" d="M 234.5,284.5 C 239.167,284.5 243.833,284.5 248.5,284.5C 248.5,298.833 248.5,313.167 248.5,327.5C 243.833,327.5 239.167,327.5 234.5,327.5C 234.5,313.167 234.5,298.833 234.5,284.5 Z"/></g>
<g><path style="opacity:1" fill="#d08660" d="M 248.5,269.5 C 249.833,293.833 249.833,318.167 248.5,342.5C 243.833,342.5 239.167,342.5 234.5,342.5C 234.5,342.167 234.5,341.833 234.5,341.5C 239.167,341.5 243.833,341.5 248.5,341.5C 248.5,336.833 248.5,332.167 248.5,327.5C 248.5,313.167 248.5,298.833 248.5,284.5C 248.5,279.5 248.5,274.5 248.5,269.5 Z"/></g>
<g><path style="opacity:1" fill="#d3a850" d="M 277.5,284.5 C 277.5,289.167 277.5,293.833 277.5,298.5C 272.833,298.5 268.167,298.5 263.5,298.5C 263.5,293.833 263.5,289.167 263.5,284.5C 268.167,284.5 272.833,284.5 277.5,284.5 Z"/></g>
<g><path style="opacity:1" fill="#d3a850" d="M 292.5,284.5 C 297.167,284.5 301.833,284.5 306.5,284.5C 306.5,289.167 306.5,293.833 306.5,298.5C 301.833,298.5 297.167,298.5 292.5,298.5C 292.5,293.833 292.5,289.167 292.5,284.5 Z"/></g>
<g><path style="opacity:1" fill="#2a2b2a" d="M 89.5,298.5 C 89.5,303.167 89.5,307.833 89.5,312.5C 84.8333,312.5 80.1667,312.5 75.5,312.5C 75.5,307.833 75.5,303.167 75.5,298.5C 80.1667,298.5 84.8333,298.5 89.5,298.5 Z"/></g>
<g><path style="opacity:1" fill="#a01518" d="M 176.5,298.5 C 181.167,298.5 185.833,298.5 190.5,298.5C 190.5,303.167 190.5,307.833 190.5,312.5C 190.5,312.833 190.5,313.167 190.5,313.5C 185.833,313.5 181.167,313.5 176.5,313.5C 176.5,308.5 176.5,303.5 176.5,298.5 Z"/></g>
<g><path style="opacity:1" fill="#2a2b2a" d="M 191.5,298.5 C 196.167,298.5 200.833,298.5 205.5,298.5C 205.5,303.167 205.5,307.833 205.5,312.5C 200.833,312.5 196.167,312.5 191.5,312.5C 191.5,307.833 191.5,303.167 191.5,298.5 Z"/></g>
<g><path style="opacity:1" fill="#6f4b0b" d="M 263.5,298.5 C 268.167,298.5 272.833,298.5 277.5,298.5C 277.5,308.167 277.5,317.833 277.5,327.5C 272.833,327.5 268.167,327.5 263.5,327.5C 263.5,317.833 263.5,308.167 263.5,298.5 Z"/></g>
<g><path style="opacity:1" fill="#a31a1a" d="M 321.5,298.5 C 326.167,298.5 330.833,298.5 335.5,298.5C 335.5,303.5 335.5,308.5 335.5,313.5C 330.833,313.5 326.167,313.5 321.5,313.5C 321.5,308.5 321.5,303.5 321.5,298.5 Z"/></g>
<g><path style="opacity:1" fill="#000000" d="M 364.5,298.5 C 364.5,308.167 364.5,317.833 364.5,327.5C 359.833,327.5 355.167,327.5 350.5,327.5C 350.5,317.833 350.5,308.167 350.5,298.5C 355.167,298.5 359.833,298.5 364.5,298.5 Z"/></g>
<g><path style="opacity:1" fill="#9d9890" d="M 190.5,312.5 C 190.833,312.5 191.167,312.5 191.5,312.5C 196.167,312.5 200.833,312.5 205.5,312.5C 210.363,312.181 215.03,312.514 219.5,313.5C 214.833,313.5 210.167,313.5 205.5,313.5C 200.833,313.5 196.167,313.5 191.5,313.5C 191.5,318.167 191.5,322.833 191.5,327.5C 190.514,323.03 190.181,318.363 190.5,313.5C 190.5,313.167 190.5,312.833 190.5,312.5 Z"/></g>
<g><path style="opacity:1" fill="#72130b" d="M 321.5,298.5 C 321.5,303.5 321.5,308.5 321.5,313.5C 316.5,313.5 311.5,313.5 306.5,313.5C 310.97,312.514 315.637,312.181 320.5,312.5C 320.181,307.637 320.514,302.97 321.5,298.5 Z"/></g>
<g><path style="opacity:1" fill="#000000" d="M 75.5,312.5 C 80.1667,312.5 84.8333,312.5 89.5,312.5C 89.5,322.167 89.5,331.833 89.5,341.5C 84.8333,341.5 80.1667,341.5 75.5,341.5C 75.5,331.833 75.5,322.167 75.5,312.5 Z"/></g>
<g><path style="opacity:1" fill="#6d490b" d="M 176.5,313.5 C 181.167,313.5 185.833,313.5 190.5,313.5C 190.181,318.363 190.514,323.03 191.5,327.5C 191.5,337.167 191.5,346.833 191.5,356.5C 191.167,356.5 190.833,356.5 190.5,356.5C 185.833,356.5 181.167,356.5 176.5,356.5C 176.5,342.167 176.5,327.833 176.5,313.5 Z"/></g>
<g><path style="opacity:1" fill="#f9faf9" d="M 205.5,313.5 C 205.5,318.167 205.5,322.833 205.5,327.5C 200.833,327.5 196.167,327.5 191.5,327.5C 191.5,322.833 191.5,318.167 191.5,313.5C 196.167,313.5 200.833,313.5 205.5,313.5 Z"/></g>
<g><path style="opacity:1" fill="#2a2b2a" d="M 205.5,313.5 C 210.167,313.5 214.833,313.5 219.5,313.5C 219.5,318.167 219.5,322.833 219.5,327.5C 214.833,327.5 210.167,327.5 205.5,327.5C 205.5,322.833 205.5,318.167 205.5,313.5 Z"/></g>
<g><path style="opacity:1" fill="#a2171a" d="M 306.5,313.5 C 311.5,313.5 316.5,313.5 321.5,313.5C 321.5,318.167 321.5,322.833 321.5,327.5C 316.5,327.5 311.5,327.5 306.5,327.5C 306.5,322.833 306.5,318.167 306.5,313.5 Z"/></g>
<g><path style="opacity:1" fill="#6f4b0b" d="M 31.5,327.5 C 31.8333,327.5 32.1667,327.5 32.5,327.5C 37.1667,327.5 41.8333,327.5 46.5,327.5C 46.5,332.5 46.5,337.5 46.5,342.5C 41.5,342.5 36.5,342.5 31.5,342.5C 31.5,337.5 31.5,332.5 31.5,327.5 Z"/></g>
<g><path style="opacity:1" fill="#000000" d="M 46.5,327.5 C 51.1667,327.5 55.8333,327.5 60.5,327.5C 60.5,332.5 60.5,337.5 60.5,342.5C 60.5,352.167 60.5,361.833 60.5,371.5C 55.8333,371.5 51.1667,371.5 46.5,371.5C 46.5,361.833 46.5,352.167 46.5,342.5C 46.5,337.5 46.5,332.5 46.5,327.5 Z"/></g>
<g><path style="opacity:1" fill="#d1a650" d="M 89.5,298.5 C 90.4938,307.986 90.8271,317.652 90.5,327.5C 95.1667,327.5 99.8333,327.5 104.5,327.5C 104.5,341.833 104.5,356.167 104.5,370.5C 99.5,370.5 94.5,370.5 89.5,370.5C 89.5,375.5 89.5,380.5 89.5,385.5C 84.8333,385.5 80.1667,385.5 75.5,385.5C 75.5,380.833 75.5,376.167 75.5,371.5C 71.03,370.514 66.3633,370.181 61.5,370.5C 61.5,361.167 61.5,351.833 61.5,342.5C 66.1667,342.5 70.8333,342.5 75.5,342.5C 75.5,347.167 75.5,351.833 75.5,356.5C 80.1667,356.5 84.8333,356.5 89.5,356.5C 89.5,351.5 89.5,346.5 89.5,341.5C 89.5,331.833 89.5,322.167 89.5,312.5C 89.5,307.833 89.5,303.167 89.5,298.5 Z"/></g>
<g><path style="opacity:1" fill="#000000" d="M 191.5,327.5 C 196.167,327.5 200.833,327.5 205.5,327.5C 210.167,327.5 214.833,327.5 219.5,327.5C 219.5,337.167 219.5,346.833 219.5,356.5C 214.833,356.5 210.167,356.5 205.5,356.5C 205.5,361.167 205.5,365.833 205.5,370.5C 200.833,370.5 196.167,370.5 191.5,370.5C 191.5,365.833 191.5,361.167 191.5,356.5C 191.5,346.833 191.5,337.167 191.5,327.5 Z"/></g>
<g><path style="opacity:1" fill="#c0444a" d="M 234.5,327.5 C 239.167,327.5 243.833,327.5 248.5,327.5C 248.5,332.167 248.5,336.833 248.5,341.5C 243.833,341.5 239.167,341.5 234.5,341.5C 234.5,336.833 234.5,332.167 234.5,327.5 Z"/></g>
<g><path style="opacity:1" fill="#a11218" d="M 292.5,327.5 C 297.167,327.5 301.833,327.5 306.5,327.5C 306.5,332.167 306.5,336.833 306.5,341.5C 301.833,341.5 297.167,341.5 292.5,341.5C 292.5,336.833 292.5,332.167 292.5,327.5 Z"/></g>
<g><path style="opacity:1" fill="#000000" d="M 350.5,327.5 C 350.5,332.5 350.5,337.5 350.5,342.5C 345.5,342.5 340.5,342.5 335.5,342.5C 335.5,342.167 335.5,341.833 335.5,341.5C 335.5,336.833 335.5,332.167 335.5,327.5C 340.5,327.5 345.5,327.5 350.5,327.5 Z"/></g>
<g><path style="opacity:1" fill="#bd643a" d="M 291.5,327.5 C 291.833,327.5 292.167,327.5 292.5,327.5C 292.5,332.167 292.5,336.833 292.5,341.5C 297.167,341.5 301.833,341.5 306.5,341.5C 301.695,342.487 296.695,342.821 291.5,342.5C 291.5,337.5 291.5,332.5 291.5,327.5 Z"/></g>
<g><path style="opacity:1" fill="#74592c" d="M 60.5,342.5 C 60.8333,342.5 61.1667,342.5 61.5,342.5C 61.5,351.833 61.5,361.167 61.5,370.5C 66.3633,370.181 71.03,370.514 75.5,371.5C 70.5,371.5 65.5,371.5 60.5,371.5C 60.5,361.833 60.5,352.167 60.5,342.5 Z"/></g>
<g><path style="opacity:1" fill="#6c480b" d="M 75.5,341.5 C 80.1667,341.5 84.8333,341.5 89.5,341.5C 89.5,346.5 89.5,351.5 89.5,356.5C 84.8333,356.5 80.1667,356.5 75.5,356.5C 75.5,351.833 75.5,347.167 75.5,342.5C 75.5,342.167 75.5,341.833 75.5,341.5 Z"/></g>
<g><path style="opacity:1" fill="#d3a850" d="M 234.5,342.5 C 239.167,342.5 243.833,342.5 248.5,342.5C 248.5,347.167 248.5,351.833 248.5,356.5C 243.833,356.5 239.167,356.5 234.5,356.5C 234.5,351.833 234.5,347.167 234.5,342.5 Z"/></g>
<g><path style="opacity:1" fill="#000000" d="M 335.5,342.5 C 335.5,347.167 335.5,351.833 335.5,356.5C 330.833,356.5 326.167,356.5 321.5,356.5C 321.5,351.833 321.5,347.167 321.5,342.5C 326.167,342.5 330.833,342.5 335.5,342.5 Z"/></g>
<g><path style="opacity:1" fill="#d3a850" d="M 176.5,356.5 C 181.167,356.5 185.833,356.5 190.5,356.5C 190.5,361.167 190.5,365.833 190.5,370.5C 185.833,370.5 181.167,370.5 176.5,370.5C 176.5,365.833 176.5,361.167 176.5,356.5 Z"/></g>
<g><path style="opacity:1" fill="#2a2b2a" d="M 219.5,356.5 C 219.5,361.167 219.5,365.833 219.5,370.5C 214.833,370.5 210.167,370.5 205.5,370.5C 205.5,365.833 205.5,361.167 205.5,356.5C 210.167,356.5 214.833,356.5 219.5,356.5 Z"/></g>
<g><path style="opacity:1" fill="#6f4b0e" d="M 219.5,356.5 C 224.5,356.5 229.5,356.5 234.5,356.5C 234.5,361.167 234.5,365.833 234.5,370.5C 229.5,370.5 224.5,370.5 219.5,370.5C 219.5,365.833 219.5,361.167 219.5,356.5 Z"/></g>
<g><path style="opacity:1" fill="#000000" d="M 263.5,356.5 C 268.167,356.5 272.833,356.5 277.5,356.5C 277.5,361.167 277.5,365.833 277.5,370.5C 281.97,371.486 286.637,371.819 291.5,371.5C 291.5,376.167 291.5,380.833 291.5,385.5C 282.167,385.5 272.833,385.5 263.5,385.5C 263.5,375.833 263.5,366.167 263.5,356.5 Z"/></g>
<g><path style="opacity:1" fill="#774608" d="M 335.5,341.5 C 335.5,341.833 335.5,342.167 335.5,342.5C 330.833,342.5 326.167,342.5 321.5,342.5C 321.5,347.167 321.5,351.833 321.5,356.5C 326.167,356.5 330.833,356.5 335.5,356.5C 335.5,361.5 335.5,366.5 335.5,371.5C 326.167,371.5 316.833,371.5 307.5,371.5C 307.5,376.167 307.5,380.833 307.5,385.5C 302.5,385.5 297.5,385.5 292.5,385.5C 292.5,380.5 292.5,375.5 292.5,370.5C 297.167,370.5 301.833,370.5 306.5,370.5C 306.5,365.833 306.5,361.167 306.5,356.5C 311.167,356.5 315.833,356.5 320.5,356.5C 320.5,351.5 320.5,346.5 320.5,341.5C 325.5,341.5 330.5,341.5 335.5,341.5 Z"/></g>
<g><path style="opacity:1" fill="#987c4d" d="M 190.5,356.5 C 190.833,356.5 191.167,356.5 191.5,356.5C 191.5,361.167 191.5,365.833 191.5,370.5C 196.167,370.5 200.833,370.5 205.5,370.5C 210.167,370.5 214.833,370.5 219.5,370.5C 224.5,370.5 229.5,370.5 234.5,370.5C 219.833,371.833 205.167,371.833 190.5,370.5C 190.5,365.833 190.5,361.167 190.5,356.5 Z"/></g>
<g><path style="opacity:1" fill="#020100" d="M 60.5,371.5 C 65.5,371.5 70.5,371.5 75.5,371.5C 75.5,376.167 75.5,380.833 75.5,385.5C 75.1667,385.5 74.8333,385.5 74.5,385.5C 69.8333,385.5 65.1667,385.5 60.5,385.5C 60.5,380.833 60.5,376.167 60.5,371.5 Z"/></g>
<g><path style="opacity:1" fill="#cfa352" d="M 263.5,356.5 C 263.5,366.167 263.5,375.833 263.5,385.5C 258.833,385.5 254.167,385.5 249.5,385.5C 249.167,385.5 248.833,385.5 248.5,385.5C 248.334,380.821 248.501,376.155 249,371.5C 253.401,370.533 257.901,370.2 262.5,370.5C 262.181,365.637 262.514,360.97 263.5,356.5 Z"/></g>
<g><path style="opacity:1" fill="#35240d" d="M 277.5,370.5 C 282.5,370.5 287.5,370.5 292.5,370.5C 292.5,375.5 292.5,380.5 292.5,385.5C 292.167,385.5 291.833,385.5 291.5,385.5C 291.5,380.833 291.5,376.167 291.5,371.5C 286.637,371.819 281.97,371.486 277.5,370.5 Z"/></g>
<g><path style="opacity:1" fill="#6f4b0c" d="M 74.5,385.5 C 74.8333,385.5 75.1667,385.5 75.5,385.5C 80.1667,385.5 84.8333,385.5 89.5,385.5C 89.5,390.5 89.5,395.5 89.5,400.5C 84.5,400.5 79.5,400.5 74.5,400.5C 74.5,395.5 74.5,390.5 74.5,385.5 Z"/></g>
<g><path style="opacity:1" fill="#d4a851" d="M 90.5,385.5 C 95.1667,385.5 99.8333,385.5 104.5,385.5C 104.5,390.167 104.5,394.833 104.5,399.5C 99.8333,399.5 95.1667,399.5 90.5,399.5C 90.5,394.833 90.5,390.167 90.5,385.5 Z"/></g>
<g><path style="opacity:1" fill="#d3a850" d="M 133.5,385.5 C 138.167,385.5 142.833,385.5 147.5,385.5C 147.5,390.167 147.5,394.833 147.5,399.5C 142.833,399.5 138.167,399.5 133.5,399.5C 133.5,394.833 133.5,390.167 133.5,385.5 Z"/></g>
<g><path style="opacity:1" fill="#6f4b0b" d="M 219.5,385.5 C 219.5,390.167 219.5,394.833 219.5,399.5C 214.833,399.5 210.167,399.5 205.5,399.5C 205.5,394.833 205.5,390.167 205.5,385.5C 210.167,385.5 214.833,385.5 219.5,385.5 Z"/></g>
<g><path style="opacity:1" fill="#d2a650" d="M 219.5,385.5 C 229.167,385.5 238.833,385.5 248.5,385.5C 248.5,390.167 248.5,394.833 248.5,399.5C 238.833,399.5 229.167,399.5 219.5,399.5C 219.5,394.833 219.5,390.167 219.5,385.5 Z"/></g>
<g><path style="opacity:1" fill="#000000" d="M 249.5,385.5 C 254.167,385.5 258.833,385.5 263.5,385.5C 263.5,390.5 263.5,395.5 263.5,400.5C 258.833,400.5 254.167,400.5 249.5,400.5C 249.5,395.5 249.5,390.5 249.5,385.5 Z"/></g>
<g><path style="opacity:1" fill="#c70806" d="M 435.5,471.5 C 435.5,481.5 435.5,491.5 435.5,501.5C 431.167,501.5 426.833,501.5 422.5,501.5C 422.5,511.167 422.5,520.833 422.5,530.5C 417.833,530.5 413.167,530.5 408.5,530.5C 408.5,535.167 408.5,539.833 408.5,544.5C 398.833,544.5 389.167,544.5 379.5,544.5C 378.514,540.03 378.181,535.363 378.5,530.5C 383.5,530.5 388.5,530.5 393.5,530.5C 393.5,525.5 393.5,520.5 393.5,515.5C 398.167,515.5 402.833,515.5 407.5,515.5C 407.5,510.833 407.5,506.167 407.5,501.5C 407.5,496.5 407.5,491.5 407.5,486.5C 407.5,481.833 407.5,477.167 407.5,472.5C 407.5,462.833 407.5,453.167 407.5,443.5C 402.833,443.5 398.167,443.5 393.5,443.5C 393.5,448.167 393.5,452.833 393.5,457.5C 383.833,457.5 374.167,457.5 364.5,457.5C 364.5,462.5 364.5,467.5 364.5,472.5C 359.833,472.5 355.167,472.5 350.5,472.5C 350.5,477.167 350.5,481.833 350.5,486.5C 350.167,486.5 349.833,486.5 349.5,486.5C 344.833,486.5 340.167,486.5 335.5,486.5C 335.5,481.833 335.5,477.167 335.5,472.5C 335.5,467.5 335.5,462.5 335.5,457.5C 330.5,457.5 325.5,457.5 320.5,457.5C 320.5,452.5 320.5,447.5 320.5,442.5C 330.167,442.5 339.833,442.5 349.5,442.5C 349.5,437.833 349.5,433.167 349.5,428.5C 354.167,428.5 358.833,428.5 363.5,428.5C 363.334,423.821 363.501,419.155 364,414.5C 368.737,413.531 373.57,413.197 378.5,413.5C 378.5,403.833 378.5,394.167 378.5,384.5C 383.5,384.5 388.5,384.5 393.5,384.5C 393.5,389.5 393.5,394.5 393.5,399.5C 398.5,399.5 403.5,399.5 408.5,399.5C 408.5,413.833 408.5,428.167 408.5,442.5C 413.167,442.5 417.833,442.5 422.5,442.5C 422.5,452.167 422.5,461.833 422.5,471.5C 426.833,471.5 431.167,471.5 435.5,471.5 Z"/></g>
<g><path style="opacity:1" fill="#9d7731" d="M 89.5,385.5 C 89.8333,385.5 90.1667,385.5 90.5,385.5C 90.5,390.167 90.5,394.833 90.5,399.5C 95.1667,399.5 99.8333,399.5 104.5,399.5C 109.363,399.181 114.03,399.514 118.5,400.5C 108.833,400.5 99.1667,400.5 89.5,400.5C 89.5,395.5 89.5,390.5 89.5,385.5 Z"/></g>
<g><path style="opacity:1" fill="#4d3c1b" d="M 248.5,385.5 C 248.833,385.5 249.167,385.5 249.5,385.5C 249.5,390.5 249.5,395.5 249.5,400.5C 239.833,400.5 230.167,400.5 220.5,400.5C 220.5,405.167 220.5,409.833 220.5,414.5C 220.819,419.363 220.486,424.03 219.5,428.5C 219.5,423.833 219.5,419.167 219.5,414.5C 219.5,409.5 219.5,404.5 219.5,399.5C 229.167,399.5 238.833,399.5 248.5,399.5C 248.5,394.833 248.5,390.167 248.5,385.5 Z"/></g>
<g><path style="opacity:1" fill="#704b0c" d="M 89.5,400.5 C 99.1667,400.5 108.833,400.5 118.5,400.5C 118.5,405.167 118.5,409.833 118.5,414.5C 108.833,414.5 99.1667,414.5 89.5,414.5C 89.5,409.833 89.5,405.167 89.5,400.5 Z"/></g>
<g><path style="opacity:1" fill="#754405" d="M 176.5,400.5 C 181.167,400.5 185.833,400.5 190.5,400.5C 190.5,409.833 190.5,419.167 190.5,428.5C 185.833,428.5 181.167,428.5 176.5,428.5C 176.5,423.833 176.5,419.167 176.5,414.5C 176.5,409.833 176.5,405.167 176.5,400.5 Z"/></g>
<g><path style="opacity:1" fill="#6b470b" d="M 190.5,400.5 C 195.5,400.5 200.5,400.5 205.5,400.5C 205.5,405.167 205.5,409.833 205.5,414.5C 200.833,414.5 196.167,414.5 191.5,414.5C 191.5,419.167 191.5,423.833 191.5,428.5C 191.167,428.5 190.833,428.5 190.5,428.5C 190.5,419.167 190.5,409.833 190.5,400.5 Z"/></g>
<g><path style="opacity:1" fill="#ca9f4c" d="M 176.5,400.5 C 185.986,399.506 195.652,399.173 205.5,399.5C 210.167,399.5 214.833,399.5 219.5,399.5C 219.5,404.5 219.5,409.5 219.5,414.5C 214.833,414.5 210.167,414.5 205.5,414.5C 205.5,409.833 205.5,405.167 205.5,400.5C 200.5,400.5 195.5,400.5 190.5,400.5C 185.833,400.5 181.167,400.5 176.5,400.5 Z"/></g>
<g><path style="opacity:1" fill="#010000" d="M 249.5,400.5 C 249.5,404.833 249.5,409.167 249.5,413.5C 249.5,414.167 249.167,414.5 248.5,414.5C 239.167,414.5 229.833,414.5 220.5,414.5C 220.5,409.833 220.5,405.167 220.5,400.5C 230.167,400.5 239.833,400.5 249.5,400.5 Z"/></g>
<g><path style="opacity:1" fill="#6e4a0c" d="M 118.5,414.5 C 123.5,414.5 128.5,414.5 133.5,414.5C 133.5,419.5 133.5,424.5 133.5,429.5C 128.5,429.5 123.5,429.5 118.5,429.5C 118.5,424.5 118.5,419.5 118.5,414.5 Z"/></g>
<g><path style="opacity:1" fill="#000000" d="M 133.5,414.5 C 147.833,414.5 162.167,414.5 176.5,414.5C 176.5,419.167 176.5,423.833 176.5,428.5C 171.305,428.179 166.305,428.513 161.5,429.5C 152.167,429.5 142.833,429.5 133.5,429.5C 133.5,424.5 133.5,419.5 133.5,414.5 Z"/></g>
<g><path style="opacity:1" fill="#000000" d="M 205.5,414.5 C 210.167,414.5 214.833,414.5 219.5,414.5C 219.5,419.167 219.5,423.833 219.5,428.5C 210.167,428.5 200.833,428.5 191.5,428.5C 191.5,423.833 191.5,419.167 191.5,414.5C 196.167,414.5 200.833,414.5 205.5,414.5 Z"/></g>
<g><path style="opacity:1" fill="#9c5d12" d="M 220.5,414.5 C 229.833,414.5 239.167,414.5 248.5,414.5C 248.5,419.167 248.5,423.833 248.5,428.5C 253.5,428.5 258.5,428.5 263.5,428.5C 263.5,433.5 263.5,438.5 263.5,443.5C 263.5,448.167 263.5,452.833 263.5,457.5C 263.5,462.5 263.5,467.5 263.5,472.5C 263.5,477.167 263.5,481.833 263.5,486.5C 258.5,486.5 253.5,486.5 248.5,486.5C 248.5,481.833 248.5,477.167 248.5,472.5C 243.833,472.5 239.167,472.5 234.5,472.5C 234.5,472.167 234.5,471.833 234.5,471.5C 239.167,471.5 243.833,471.5 248.5,471.5C 248.5,462.167 248.5,452.833 248.5,443.5C 243.833,443.5 239.167,443.5 234.5,443.5C 229.833,443.5 225.167,443.5 220.5,443.5C 220.167,443.5 219.833,443.5 219.5,443.5C 214.833,443.5 210.167,443.5 205.5,443.5C 205.5,438.833 205.5,434.167 205.5,429.5C 210.363,429.819 215.03,429.486 219.5,428.5C 220.486,424.03 220.819,419.363 220.5,414.5 Z"/></g>
<g><path style="opacity:1" fill="#764406" d="M 249.5,413.5 C 254.167,413.5 258.833,413.5 263.5,413.5C 263.5,418.5 263.5,423.5 263.5,428.5C 258.5,428.5 253.5,428.5 248.5,428.5C 248.5,423.833 248.5,419.167 248.5,414.5C 249.167,414.5 249.5,414.167 249.5,413.5 Z"/></g>
<g><path style="opacity:1" fill="#9a5c11" d="M 176.5,428.5 C 181.167,428.5 185.833,428.5 190.5,428.5C 190.833,428.5 191.167,428.5 191.5,428.5C 191.5,438.167 191.5,447.833 191.5,457.5C 186.5,457.5 181.5,457.5 176.5,457.5C 171.833,457.5 167.167,457.5 162.5,457.5C 162.5,452.833 162.5,448.167 162.5,443.5C 167.167,443.5 171.833,443.5 176.5,443.5C 176.5,438.5 176.5,433.5 176.5,428.5 Z"/></g>
<g><path style="opacity:1" fill="#754306" d="M 191.5,428.5 C 200.833,428.5 210.167,428.5 219.5,428.5C 215.03,429.486 210.363,429.819 205.5,429.5C 205.5,434.167 205.5,438.833 205.5,443.5C 205.5,448.167 205.5,452.833 205.5,457.5C 205.5,457.833 205.5,458.167 205.5,458.5C 200.833,458.5 196.167,458.5 191.5,458.5C 191.5,458.167 191.5,457.833 191.5,457.5C 191.5,447.833 191.5,438.167 191.5,428.5 Z"/></g>
<g><path style="opacity:1" fill="#c84f0b" d="M 364.5,429.5 C 369.167,429.5 373.833,429.5 378.5,429.5C 378.5,434.167 378.5,438.833 378.5,443.5C 373.833,443.5 369.167,443.5 364.5,443.5C 364.5,438.833 364.5,434.167 364.5,429.5 Z"/></g>
<g><path style="opacity:1" fill="#764305" d="M 176.5,428.5 C 176.5,433.5 176.5,438.5 176.5,443.5C 171.833,443.5 167.167,443.5 162.5,443.5C 162.5,448.167 162.5,452.833 162.5,457.5C 157.5,457.5 152.5,457.5 147.5,457.5C 147.5,452.5 147.5,447.5 147.5,442.5C 152.167,442.5 156.833,442.5 161.5,442.5C 161.5,438.167 161.5,433.833 161.5,429.5C 166.305,428.513 171.305,428.179 176.5,428.5 Z"/></g>
<g><path style="opacity:1" fill="#6f4b0b" d="M 205.5,443.5 C 210.167,443.5 214.833,443.5 219.5,443.5C 219.5,448.167 219.5,452.833 219.5,457.5C 214.833,457.5 210.167,457.5 205.5,457.5C 205.5,452.833 205.5,448.167 205.5,443.5 Z"/></g>
<g><path style="opacity:1" fill="#ebc581" d="M 220.5,443.5 C 225.167,443.5 229.833,443.5 234.5,443.5C 234.5,452.833 234.5,462.167 234.5,471.5C 234.5,471.833 234.5,472.167 234.5,472.5C 229.833,472.5 225.167,472.5 220.5,472.5C 220.5,462.833 220.5,453.167 220.5,443.5 Z"/></g>
<g><path style="opacity:1" fill="#754405" d="M 234.5,443.5 C 239.167,443.5 243.833,443.5 248.5,443.5C 248.5,452.833 248.5,462.167 248.5,471.5C 243.833,471.5 239.167,471.5 234.5,471.5C 234.5,462.167 234.5,452.833 234.5,443.5 Z"/></g>
<g><path style="opacity:1" fill="#000000" d="M 263.5,443.5 C 268.167,443.5 272.833,443.5 277.5,443.5C 277.5,448.167 277.5,452.833 277.5,457.5C 272.833,457.5 268.167,457.5 263.5,457.5C 263.5,452.833 263.5,448.167 263.5,443.5 Z"/></g>
<g><path style="opacity:1" fill="#744305" d="M 263.5,428.5 C 268.5,428.5 273.5,428.5 278.5,428.5C 278.5,433.167 278.5,437.833 278.5,442.5C 283.167,442.5 287.833,442.5 292.5,442.5C 292.5,447.5 292.5,452.5 292.5,457.5C 287.5,457.5 282.5,457.5 277.5,457.5C 277.5,452.833 277.5,448.167 277.5,443.5C 272.833,443.5 268.167,443.5 263.5,443.5C 263.5,438.5 263.5,433.5 263.5,428.5 Z"/></g>
<g><path style="opacity:1" fill="#ece531" d="M 407.5,472.5 C 402.833,472.5 398.167,472.5 393.5,472.5C 393.5,467.5 393.5,462.5 393.5,457.5C 393.5,452.833 393.5,448.167 393.5,443.5C 398.167,443.5 402.833,443.5 407.5,443.5C 407.5,453.167 407.5,462.833 407.5,472.5 Z"/></g>
<g><path style="opacity:1" fill="#764405" d="M 147.5,457.5 C 147.5,462.5 147.5,467.5 147.5,472.5C 142.5,472.5 137.5,472.5 132.5,472.5C 132.5,467.5 132.5,462.5 132.5,457.5C 137.5,457.5 142.5,457.5 147.5,457.5 Z"/></g>
<g><path style="opacity:1" fill="#c6500b" d="M 306.5,457.5 C 311.167,457.5 315.833,457.5 320.5,457.5C 325.5,457.5 330.5,457.5 335.5,457.5C 335.5,462.5 335.5,467.5 335.5,472.5C 325.833,472.5 316.167,472.5 306.5,472.5C 306.5,467.5 306.5,462.5 306.5,457.5 Z"/></g>
<g><path style="opacity:1" fill="#c57b2a" d="M 147.5,457.5 C 152.5,457.5 157.5,457.5 162.5,457.5C 167.167,457.5 171.833,457.5 176.5,457.5C 176.5,462.5 176.5,467.5 176.5,472.5C 171.833,472.5 167.167,472.5 162.5,472.5C 161.514,476.97 161.181,481.637 161.5,486.5C 156.833,486.5 152.167,486.5 147.5,486.5C 147.5,481.833 147.5,477.167 147.5,472.5C 147.5,467.5 147.5,462.5 147.5,457.5 Z"/></g>
<g><path style="opacity:1" fill="#030100" d="M 176.5,457.5 C 181.5,457.5 186.5,457.5 191.5,457.5C 191.5,457.833 191.5,458.167 191.5,458.5C 191.5,463.167 191.5,467.833 191.5,472.5C 186.5,472.5 181.5,472.5 176.5,472.5C 176.5,467.5 176.5,462.5 176.5,457.5 Z"/></g>
<g><path style="opacity:1" fill="#010000" d="M 205.5,457.5 C 210.167,457.5 214.833,457.5 219.5,457.5C 219.5,467.167 219.5,476.833 219.5,486.5C 214.833,486.5 210.167,486.5 205.5,486.5C 205.5,477.167 205.5,467.833 205.5,458.5C 205.5,458.167 205.5,457.833 205.5,457.5 Z"/></g>
<g><path style="opacity:1" fill="#c77d2a" d="M 249.5,458.5 C 253.833,458.5 258.167,458.5 262.5,458.5C 262.5,462.833 262.5,467.167 262.5,471.5C 258.167,471.5 253.833,471.5 249.5,471.5C 249.5,467.167 249.5,462.833 249.5,458.5 Z"/></g>
<g><path style="opacity:1" fill="#754306" d="M 263.5,457.5 C 268.167,457.5 272.833,457.5 277.5,457.5C 277.5,462.167 277.5,466.833 277.5,471.5C 282.5,471.5 287.5,471.5 292.5,471.5C 292.5,466.833 292.5,462.167 292.5,457.5C 297.167,457.5 301.833,457.5 306.5,457.5C 306.5,462.5 306.5,467.5 306.5,472.5C 301.833,472.5 297.167,472.5 292.5,472.5C 292.167,472.5 291.833,472.5 291.5,472.5C 287.167,472.5 282.833,472.5 278.5,472.5C 278.167,472.5 277.833,472.5 277.5,472.5C 272.833,472.5 268.167,472.5 263.5,472.5C 263.5,467.5 263.5,462.5 263.5,457.5 Z"/></g>
<g><path style="opacity:1" fill="#995b11" d="M 277.5,457.5 C 282.5,457.5 287.5,457.5 292.5,457.5C 292.5,462.167 292.5,466.833 292.5,471.5C 287.5,471.5 282.5,471.5 277.5,471.5C 277.5,466.833 277.5,462.167 277.5,457.5 Z"/></g>
<g><path style="opacity:1" fill="#c8530c" d="M 393.5,457.5 C 393.5,462.5 393.5,467.5 393.5,472.5C 383.833,472.5 374.167,472.5 364.5,472.5C 364.5,467.5 364.5,462.5 364.5,457.5C 374.167,457.5 383.833,457.5 393.5,457.5 Z"/></g>
<g><path style="opacity:1" fill="#9a5c11" d="M 132.5,472.5 C 137.5,472.5 142.5,472.5 147.5,472.5C 147.5,477.167 147.5,481.833 147.5,486.5C 142.833,486.5 138.167,486.5 133.5,486.5C 133.5,491.5 133.5,496.5 133.5,501.5C 128.5,501.5 123.5,501.5 118.5,501.5C 118.5,501.167 118.5,500.833 118.5,500.5C 123.167,500.5 127.833,500.5 132.5,500.5C 132.5,495.833 132.5,491.167 132.5,486.5C 132.5,481.833 132.5,477.167 132.5,472.5 Z"/></g>
<g><path style="opacity:1" fill="#000000" d="M 162.5,472.5 C 167.167,472.5 171.833,472.5 176.5,472.5C 176.5,477.5 176.5,482.5 176.5,487.5C 171.833,487.5 167.167,487.5 162.5,487.5C 162.5,482.5 162.5,477.5 162.5,472.5 Z"/></g>
<g><path style="opacity:1" fill="#735015" d="M 219.5,443.5 C 219.833,443.5 220.167,443.5 220.5,443.5C 220.5,453.167 220.5,462.833 220.5,472.5C 225.167,472.5 229.833,472.5 234.5,472.5C 234.5,477.167 234.5,481.833 234.5,486.5C 229.833,486.5 225.167,486.5 220.5,486.5C 220.167,486.5 219.833,486.5 219.5,486.5C 219.5,476.833 219.5,467.167 219.5,457.5C 219.5,452.833 219.5,448.167 219.5,443.5 Z"/></g>
<g><path style="opacity:1" fill="#ecc882" d="M 234.5,472.5 C 239.167,472.5 243.833,472.5 248.5,472.5C 248.5,477.167 248.5,481.833 248.5,486.5C 243.833,486.5 239.167,486.5 234.5,486.5C 234.5,481.833 234.5,477.167 234.5,472.5 Z"/></g>
<g><path style="opacity:1" fill="#c77d2a" d="M 263.5,472.5 C 268.167,472.5 272.833,472.5 277.5,472.5C 277.5,482.167 277.5,491.833 277.5,501.5C 277.5,506.167 277.5,510.833 277.5,515.5C 272.833,515.5 268.167,515.5 263.5,515.5C 263.5,505.833 263.5,496.167 263.5,486.5C 263.5,481.833 263.5,477.167 263.5,472.5 Z"/></g>
<g><path style="opacity:1" fill="#361f05" d="M 277.5,472.5 C 277.833,472.5 278.167,472.5 278.5,472.5C 278.5,481.833 278.5,491.167 278.5,500.5C 282.833,500.5 287.167,500.5 291.5,500.5C 291.5,491.167 291.5,481.833 291.5,472.5C 291.833,472.5 292.167,472.5 292.5,472.5C 292.5,482.167 292.5,491.833 292.5,501.5C 287.5,501.5 282.5,501.5 277.5,501.5C 277.5,491.833 277.5,482.167 277.5,472.5 Z"/></g>
<g><path style="opacity:1" fill="#000000" d="M 278.5,472.5 C 282.833,472.5 287.167,472.5 291.5,472.5C 291.5,481.833 291.5,491.167 291.5,500.5C 287.167,500.5 282.833,500.5 278.5,500.5C 278.5,491.167 278.5,481.833 278.5,472.5 Z"/></g>
<g><path style="opacity:1" fill="#9b5c12" d="M 292.5,472.5 C 297.167,472.5 301.833,472.5 306.5,472.5C 306.5,477.167 306.5,481.833 306.5,486.5C 316.167,486.5 325.833,486.5 335.5,486.5C 335.5,491.5 335.5,496.5 335.5,501.5C 340.167,501.5 344.833,501.5 349.5,501.5C 349.833,501.5 350.167,501.5 350.5,501.5C 350.5,506.167 350.5,510.833 350.5,515.5C 349.513,520.305 349.179,525.305 349.5,530.5C 344.833,530.5 340.167,530.5 335.5,530.5C 335.5,535.167 335.5,539.833 335.5,544.5C 330.833,544.5 326.167,544.5 321.5,544.5C 316.5,544.5 311.5,544.5 306.5,544.5C 306.5,534.833 306.5,525.167 306.5,515.5C 301.833,515.5 297.167,515.5 292.5,515.5C 292.5,510.833 292.5,506.167 292.5,501.5C 292.5,491.833 292.5,482.167 292.5,472.5 Z"/></g>
<g><path style="opacity:1" fill="#764405" d="M 306.5,472.5 C 316.167,472.5 325.833,472.5 335.5,472.5C 335.5,477.167 335.5,481.833 335.5,486.5C 325.833,486.5 316.167,486.5 306.5,486.5C 306.5,481.833 306.5,477.167 306.5,472.5 Z"/></g>
<g><path style="opacity:1" fill="#c8520c" d="M 364.5,472.5 C 364.5,477.167 364.5,481.833 364.5,486.5C 359.833,486.5 355.167,486.5 350.5,486.5C 350.5,481.833 350.5,477.167 350.5,472.5C 355.167,472.5 359.833,472.5 364.5,472.5 Z"/></g>
<g><path style="opacity:1" fill="#ece431" d="M 364.5,472.5 C 374.167,472.5 383.833,472.5 393.5,472.5C 393.5,477.167 393.5,481.833 393.5,486.5C 398.167,486.5 402.833,486.5 407.5,486.5C 407.5,491.5 407.5,496.5 407.5,501.5C 402.833,501.5 398.167,501.5 393.5,501.5C 393.5,506.167 393.5,510.833 393.5,515.5C 393.5,520.5 393.5,525.5 393.5,530.5C 388.5,530.5 383.5,530.5 378.5,530.5C 373.833,530.5 369.167,530.5 364.5,530.5C 364.5,530.167 364.5,529.833 364.5,529.5C 364.5,524.833 364.5,520.167 364.5,515.5C 364.5,510.833 364.5,506.167 364.5,501.5C 360.03,500.514 355.363,500.181 350.5,500.5C 350.5,495.833 350.5,491.167 350.5,486.5C 355.167,486.5 359.833,486.5 364.5,486.5C 364.5,481.833 364.5,477.167 364.5,472.5 Z"/></g>
<g><path style="opacity:1" fill="#c7510b" d="M 393.5,472.5 C 398.167,472.5 402.833,472.5 407.5,472.5C 407.5,477.167 407.5,481.833 407.5,486.5C 402.833,486.5 398.167,486.5 393.5,486.5C 393.5,481.833 393.5,477.167 393.5,472.5 Z"/></g>
<g><path style="opacity:1" fill="#754405" d="M 132.5,486.5 C 132.5,491.167 132.5,495.833 132.5,500.5C 127.833,500.5 123.167,500.5 118.5,500.5C 118.5,495.833 118.5,491.167 118.5,486.5C 123.167,486.5 127.833,486.5 132.5,486.5 Z"/></g>
<g><path style="opacity:1" fill="#c67c29" d="M 147.5,486.5 C 147.5,491.5 147.5,496.5 147.5,501.5C 142.833,501.5 138.167,501.5 133.5,501.5C 133.5,496.5 133.5,491.5 133.5,486.5C 138.167,486.5 142.833,486.5 147.5,486.5 Z"/></g>
<g><path style="opacity:1" fill="#774406" d="M 162.5,472.5 C 162.5,477.5 162.5,482.5 162.5,487.5C 162.5,492.167 162.5,496.833 162.5,501.5C 157.833,501.5 153.167,501.5 148.5,501.5C 148.167,501.5 147.833,501.5 147.5,501.5C 147.5,496.5 147.5,491.5 147.5,486.5C 152.167,486.5 156.833,486.5 161.5,486.5C 161.181,481.637 161.514,476.97 162.5,472.5 Z"/></g>
<g><path style="opacity:1" fill="#6f4a0c" d="M 205.5,486.5 C 210.167,486.5 214.833,486.5 219.5,486.5C 219.5,491.5 219.5,496.5 219.5,501.5C 214.833,501.5 210.167,501.5 205.5,501.5C 205.5,496.5 205.5,491.5 205.5,486.5 Z"/></g>
<g><path style="opacity:1" fill="#eac581" d="M 220.5,486.5 C 225.167,486.5 229.833,486.5 234.5,486.5C 234.5,491.167 234.5,495.833 234.5,500.5C 229.833,500.5 225.167,500.5 220.5,500.5C 220.5,495.833 220.5,491.167 220.5,486.5 Z"/></g>
<g><path style="opacity:1" fill="#704c0d" d="M 234.5,486.5 C 239.167,486.5 243.833,486.5 248.5,486.5C 248.5,491.167 248.5,495.833 248.5,500.5C 243.833,500.5 239.167,500.5 234.5,500.5C 234.5,495.833 234.5,491.167 234.5,486.5 Z"/></g>
<g><path style="opacity:1" fill="#784607" d="M 248.5,486.5 C 253.5,486.5 258.5,486.5 263.5,486.5C 263.5,496.167 263.5,505.833 263.5,515.5C 258.5,515.5 253.5,515.5 248.5,515.5C 248.5,510.833 248.5,506.167 248.5,501.5C 248.5,501.167 248.5,500.833 248.5,500.5C 248.5,495.833 248.5,491.167 248.5,486.5 Z"/></g>
<g><path style="opacity:1" fill="#774405" d="M 335.5,486.5 C 340.167,486.5 344.833,486.5 349.5,486.5C 349.5,491.5 349.5,496.5 349.5,501.5C 344.833,501.5 340.167,501.5 335.5,501.5C 335.5,496.5 335.5,491.5 335.5,486.5 Z"/></g>
<g><path style="opacity:1" fill="#b28f4e" d="M 219.5,486.5 C 219.833,486.5 220.167,486.5 220.5,486.5C 220.5,491.167 220.5,495.833 220.5,500.5C 225.167,500.5 229.833,500.5 234.5,500.5C 239.167,500.5 243.833,500.5 248.5,500.5C 248.5,500.833 248.5,501.167 248.5,501.5C 243.833,501.5 239.167,501.5 234.5,501.5C 229.5,501.5 224.5,501.5 219.5,501.5C 219.5,496.5 219.5,491.5 219.5,486.5 Z"/></g>
<g><path style="opacity:1" fill="#bca11c" d="M 349.5,486.5 C 349.833,486.5 350.167,486.5 350.5,486.5C 350.5,491.167 350.5,495.833 350.5,500.5C 355.363,500.181 360.03,500.514 364.5,501.5C 359.833,501.5 355.167,501.5 350.5,501.5C 350.167,501.5 349.833,501.5 349.5,501.5C 349.5,496.5 349.5,491.5 349.5,486.5 Z"/></g>
<g><path style="opacity:1" fill="#c77c2a" d="M 118.5,501.5 C 123.5,501.5 128.5,501.5 133.5,501.5C 133.5,506.167 133.5,510.833 133.5,515.5C 132.514,519.97 132.181,524.637 132.5,529.5C 127.637,529.181 122.97,529.514 118.5,530.5C 118.5,535.167 118.5,539.833 118.5,544.5C 113.833,544.5 109.167,544.5 104.5,544.5C 99.8333,544.5 95.1667,544.5 90.5,544.5C 90.5,539.833 90.5,535.167 90.5,530.5C 95.1667,530.5 99.8333,530.5 104.5,530.5C 104.5,525.5 104.5,520.5 104.5,515.5C 109.167,515.5 113.833,515.5 118.5,515.5C 118.5,510.833 118.5,506.167 118.5,501.5 Z"/></g>
<g><path style="opacity:1" fill="#9b5d11" d="M 133.5,501.5 C 138.167,501.5 142.833,501.5 147.5,501.5C 147.833,501.5 148.167,501.5 148.5,501.5C 148.5,506.167 148.5,510.833 148.5,515.5C 143.5,515.5 138.5,515.5 133.5,515.5C 133.5,510.833 133.5,506.167 133.5,501.5 Z"/></g>
<g><path style="opacity:1" fill="#714c0d" d="M 219.5,501.5 C 224.5,501.5 229.5,501.5 234.5,501.5C 234.5,506.167 234.5,510.833 234.5,515.5C 234.5,520.167 234.5,524.833 234.5,529.5C 229.5,529.5 224.5,529.5 219.5,529.5C 219.5,524.833 219.5,520.167 219.5,515.5C 219.5,510.833 219.5,506.167 219.5,501.5 Z"/></g>
<g><path style="opacity:1" fill="#ecc882" d="M 234.5,501.5 C 239.167,501.5 243.833,501.5 248.5,501.5C 248.5,506.167 248.5,510.833 248.5,515.5C 243.833,515.5 239.167,515.5 234.5,515.5C 234.5,510.833 234.5,506.167 234.5,501.5 Z"/></g>
<g><path style="opacity:1" fill="#784508" d="M 277.5,501.5 C 282.5,501.5 287.5,501.5 292.5,501.5C 292.5,506.167 292.5,510.833 292.5,515.5C 292.5,525.167 292.5,534.833 292.5,544.5C 291.506,535.014 291.173,525.348 291.5,515.5C 286.833,515.5 282.167,515.5 277.5,515.5C 277.5,510.833 277.5,506.167 277.5,501.5 Z"/></g>
<g><path style="opacity:1" fill="#764506" d="M 350.5,501.5 C 355.167,501.5 359.833,501.5 364.5,501.5C 364.5,506.167 364.5,510.833 364.5,515.5C 359.833,515.5 355.167,515.5 350.5,515.5C 350.5,510.833 350.5,506.167 350.5,501.5 Z"/></g>
<g><path style="opacity:1" fill="#c7510b" d="M 407.5,501.5 C 407.5,506.167 407.5,510.833 407.5,515.5C 402.833,515.5 398.167,515.5 393.5,515.5C 393.5,510.833 393.5,506.167 393.5,501.5C 398.167,501.5 402.833,501.5 407.5,501.5 Z"/></g>
<g><path style="opacity:1" fill="#784506" d="M 118.5,500.5 C 118.5,500.833 118.5,501.167 118.5,501.5C 118.5,506.167 118.5,510.833 118.5,515.5C 113.833,515.5 109.167,515.5 104.5,515.5C 104.5,520.5 104.5,525.5 104.5,530.5C 99.8333,530.5 95.1667,530.5 90.5,530.5C 90.5,535.167 90.5,539.833 90.5,544.5C 90.1667,544.5 89.8333,544.5 89.5,544.5C 84.8333,544.5 80.1667,544.5 75.5,544.5C 75.1667,544.5 74.8333,544.5 74.5,544.5C 74.5,539.5 74.5,534.5 74.5,529.5C 79.5,529.5 84.5,529.5 89.5,529.5C 89.5,524.833 89.5,520.167 89.5,515.5C 94.1667,515.5 98.8333,515.5 103.5,515.5C 103.5,510.5 103.5,505.5 103.5,500.5C 108.5,500.5 113.5,500.5 118.5,500.5 Z"/></g>
<g><path style="opacity:1" fill="#010000" d="M 133.5,515.5 C 138.5,515.5 143.5,515.5 148.5,515.5C 148.5,520.5 148.5,525.5 148.5,530.5C 143.5,530.5 138.5,530.5 133.5,530.5C 133.5,525.5 133.5,520.5 133.5,515.5 Z"/></g>
<g><path style="opacity:1" fill="#9c5e13" d="M 219.5,515.5 C 219.5,520.167 219.5,524.833 219.5,529.5C 224.5,529.5 229.5,529.5 234.5,529.5C 234.5,529.833 234.5,530.167 234.5,530.5C 229.5,530.5 224.5,530.5 219.5,530.5C 214.637,530.819 209.97,530.486 205.5,529.5C 205.5,524.833 205.5,520.167 205.5,515.5C 210.167,515.5 214.833,515.5 219.5,515.5 Z"/></g>
<g><path style="opacity:1" fill="#d2a54f" d="M 234.5,515.5 C 239.167,515.5 243.833,515.5 248.5,515.5C 248.5,520.5 248.5,525.5 248.5,530.5C 243.833,530.5 239.167,530.5 234.5,530.5C 234.5,530.167 234.5,529.833 234.5,529.5C 234.5,524.833 234.5,520.167 234.5,515.5 Z"/></g>
<g><path style="opacity:1" fill="#eac47e" d="M 248.5,515.5 C 253.5,515.5 258.5,515.5 263.5,515.5C 263.5,520.5 263.5,525.5 263.5,530.5C 258.5,530.5 253.5,530.5 248.5,530.5C 248.5,525.5 248.5,520.5 248.5,515.5 Z"/></g>
<g><path style="opacity:1" fill="#9b5c12" d="M 263.5,515.5 C 268.167,515.5 272.833,515.5 277.5,515.5C 277.5,520.5 277.5,525.5 277.5,530.5C 272.833,530.5 268.167,530.5 263.5,530.5C 263.5,525.5 263.5,520.5 263.5,515.5 Z"/></g>
<g><path style="opacity:1" fill="#c57c2a" d="M 277.5,515.5 C 282.167,515.5 286.833,515.5 291.5,515.5C 291.173,525.348 291.506,535.014 292.5,544.5C 297.167,544.5 301.833,544.5 306.5,544.5C 306.5,549.5 306.5,554.5 306.5,559.5C 301.833,559.5 297.167,559.5 292.5,559.5C 292.5,564.167 292.5,568.833 292.5,573.5C 287.833,573.5 283.167,573.5 278.5,573.5C 278.5,578.5 278.5,583.5 278.5,588.5C 273.5,588.5 268.5,588.5 263.5,588.5C 263.5,588.167 263.5,587.833 263.5,587.5C 268.167,587.5 272.833,587.5 277.5,587.5C 277.5,568.5 277.5,549.5 277.5,530.5C 277.5,525.5 277.5,520.5 277.5,515.5 Z"/></g>
<g><path style="opacity:1" fill="#000000" d="M 292.5,515.5 C 297.167,515.5 301.833,515.5 306.5,515.5C 306.5,525.167 306.5,534.833 306.5,544.5C 301.833,544.5 297.167,544.5 292.5,544.5C 292.5,534.833 292.5,525.167 292.5,515.5 Z"/></g>
<g><path style="opacity:1" fill="#030200" d="M 350.5,515.5 C 355.167,515.5 359.833,515.5 364.5,515.5C 364.5,520.167 364.5,524.833 364.5,529.5C 359.833,529.5 355.167,529.5 350.5,529.5C 350.5,524.833 350.5,520.167 350.5,515.5 Z"/></g>
<g><path style="opacity:1" fill="#84501a" d="M 133.5,515.5 C 133.5,520.5 133.5,525.5 133.5,530.5C 128.5,530.5 123.5,530.5 118.5,530.5C 122.97,529.514 127.637,529.181 132.5,529.5C 132.181,524.637 132.514,519.97 133.5,515.5 Z"/></g>
<g><path style="opacity:1" fill="#9b5d11" d="M 190.5,529.5 C 190.5,534.5 190.5,539.5 190.5,544.5C 185.833,544.5 181.167,544.5 176.5,544.5C 176.5,539.5 176.5,534.5 176.5,529.5C 181.167,529.5 185.833,529.5 190.5,529.5 Z"/></g>
<g><path style="opacity:1" fill="#4c2c0a" d="M 350.5,515.5 C 350.5,520.167 350.5,524.833 350.5,529.5C 355.167,529.5 359.833,529.5 364.5,529.5C 364.5,529.833 364.5,530.167 364.5,530.5C 359.5,530.5 354.5,530.5 349.5,530.5C 349.179,525.305 349.513,520.305 350.5,515.5 Z"/></g>
<g><path style="opacity:1" fill="#050200" d="M 118.5,530.5 C 123.5,530.5 128.5,530.5 133.5,530.5C 133.5,535.167 133.5,539.833 133.5,544.5C 128.5,544.5 123.5,544.5 118.5,544.5C 118.5,539.833 118.5,535.167 118.5,530.5 Z"/></g>
<g><path style="opacity:1" fill="#e6a14b" d="M 191.5,529.5 C 196.167,529.5 200.833,529.5 205.5,529.5C 209.97,530.486 214.637,530.819 219.5,530.5C 219.5,539.833 219.5,549.167 219.5,558.5C 210.167,558.5 200.833,558.5 191.5,558.5C 191.5,548.833 191.5,539.167 191.5,529.5 Z"/></g>
<g><path style="opacity:1" fill="#c77d2b" d="M 219.5,530.5 C 224.5,530.5 229.5,530.5 234.5,530.5C 234.5,535.167 234.5,539.833 234.5,544.5C 239.167,544.5 243.833,544.5 248.5,544.5C 248.5,549.167 248.5,553.833 248.5,558.5C 238.833,558.5 229.167,558.5 219.5,558.5C 219.5,549.167 219.5,539.833 219.5,530.5 Z"/></g>
<g><path style="opacity:1" fill="#6f4b0b" d="M 234.5,530.5 C 239.167,530.5 243.833,530.5 248.5,530.5C 248.5,535.167 248.5,539.833 248.5,544.5C 243.833,544.5 239.167,544.5 234.5,544.5C 234.5,539.833 234.5,535.167 234.5,530.5 Z"/></g>
<g><path style="opacity:1" fill="#d0a44e" d="M 248.5,530.5 C 253.5,530.5 258.5,530.5 263.5,530.5C 263.5,535.167 263.5,539.833 263.5,544.5C 258.5,544.5 253.5,544.5 248.5,544.5C 248.5,539.833 248.5,535.167 248.5,530.5 Z"/></g>
<g><path style="opacity:1" fill="#754405" d="M 263.5,530.5 C 268.167,530.5 272.833,530.5 277.5,530.5C 277.5,549.5 277.5,568.5 277.5,587.5C 272.833,587.5 268.167,587.5 263.5,587.5C 263.5,582.833 263.5,578.167 263.5,573.5C 263.5,568.5 263.5,563.5 263.5,558.5C 263.5,553.833 263.5,549.167 263.5,544.5C 263.5,539.833 263.5,535.167 263.5,530.5 Z"/></g>
<g><path style="opacity:1" fill="#c77c2a" d="M 349.5,530.5 C 354.5,530.5 359.5,530.5 364.5,530.5C 364.5,539.833 364.5,549.167 364.5,558.5C 364.5,558.833 364.5,559.167 364.5,559.5C 364.5,564.167 364.5,568.833 364.5,573.5C 354.833,573.5 345.167,573.5 335.5,573.5C 330.833,573.5 326.167,573.5 321.5,573.5C 321.5,568.833 321.5,564.167 321.5,559.5C 326.167,559.5 330.833,559.5 335.5,559.5C 335.5,554.5 335.5,549.5 335.5,544.5C 335.5,539.833 335.5,535.167 335.5,530.5C 340.167,530.5 344.833,530.5 349.5,530.5 Z"/></g>
<g><path style="opacity:1" fill="#000000" d="M 364.5,530.5 C 369.167,530.5 373.833,530.5 378.5,530.5C 378.181,535.363 378.514,540.03 379.5,544.5C 379.5,549.167 379.5,553.833 379.5,558.5C 374.5,558.5 369.5,558.5 364.5,558.5C 364.5,549.167 364.5,539.833 364.5,530.5 Z"/></g>
<g><path style="opacity:1" fill="#704c0d" d="M 74.5,544.5 C 74.8333,544.5 75.1667,544.5 75.5,544.5C 75.5,549.167 75.5,553.833 75.5,558.5C 70.5,558.5 65.5,558.5 60.5,558.5C 60.5,553.833 60.5,549.167 60.5,544.5C 65.1667,544.5 69.8333,544.5 74.5,544.5 Z"/></g>
<g><path style="opacity:1" fill="#ecc882" d="M 75.5,544.5 C 80.1667,544.5 84.8333,544.5 89.5,544.5C 89.5,549.5 89.5,554.5 89.5,559.5C 99.1667,559.5 108.833,559.5 118.5,559.5C 118.5,564.167 118.5,568.833 118.5,573.5C 113.833,573.5 109.167,573.5 104.5,573.5C 103.514,577.97 103.181,582.637 103.5,587.5C 99.1667,587.5 94.8333,587.5 90.5,587.5C 90.8195,582.637 90.4861,577.97 89.5,573.5C 84.8333,573.5 80.1667,573.5 75.5,573.5C 75.5,568.5 75.5,563.5 75.5,558.5C 75.5,553.833 75.5,549.167 75.5,544.5 Z"/></g>
<g><path style="opacity:1" fill="#d4a752" d="M 89.5,544.5 C 89.8333,544.5 90.1667,544.5 90.5,544.5C 95.1667,544.5 99.8333,544.5 104.5,544.5C 104.5,549.167 104.5,553.833 104.5,558.5C 109.167,558.5 113.833,558.5 118.5,558.5C 118.5,558.833 118.5,559.167 118.5,559.5C 108.833,559.5 99.1667,559.5 89.5,559.5C 89.5,554.5 89.5,549.5 89.5,544.5 Z"/></g>
<g><path style="opacity:1" fill="#9b5d11" d="M 104.5,544.5 C 109.167,544.5 113.833,544.5 118.5,544.5C 118.5,549.167 118.5,553.833 118.5,558.5C 113.833,558.5 109.167,558.5 104.5,558.5C 104.5,553.833 104.5,549.167 104.5,544.5 Z"/></g>
<g><path style="opacity:1" fill="#764406" d="M 118.5,544.5 C 123.5,544.5 128.5,544.5 133.5,544.5C 133.5,549.5 133.5,554.5 133.5,559.5C 128.595,558.555 123.595,558.221 118.5,558.5C 118.5,553.833 118.5,549.167 118.5,544.5 Z"/></g>
<g><path style="opacity:1" fill="#764305" d="M 176.5,544.5 C 176.5,554.167 176.5,563.833 176.5,573.5C 171.5,573.5 166.5,573.5 161.5,573.5C 161.5,563.833 161.5,554.167 161.5,544.5C 166.5,544.5 171.5,544.5 176.5,544.5 Z"/></g>
<g><path style="opacity:1" fill="#c87d2b" d="M 190.5,529.5 C 190.833,529.5 191.167,529.5 191.5,529.5C 191.5,539.167 191.5,548.833 191.5,558.5C 200.833,558.5 210.167,558.5 219.5,558.5C 219.5,563.5 219.5,568.5 219.5,573.5C 209.833,573.5 200.167,573.5 190.5,573.5C 185.833,573.5 181.167,573.5 176.5,573.5C 176.5,563.833 176.5,554.167 176.5,544.5C 181.167,544.5 185.833,544.5 190.5,544.5C 190.5,539.5 190.5,534.5 190.5,529.5 Z"/></g>
<g><path style="opacity:1" fill="#714c0c" d="M 248.5,544.5 C 253.5,544.5 258.5,544.5 263.5,544.5C 263.5,549.167 263.5,553.833 263.5,558.5C 258.405,558.221 253.405,558.555 248.5,559.5C 248.5,559.167 248.5,558.833 248.5,558.5C 248.5,553.833 248.5,549.167 248.5,544.5 Z"/></g>
<g><path style="opacity:1" fill="#0a0501" d="M 306.5,544.5 C 311.5,544.5 316.5,544.5 321.5,544.5C 321.5,549.5 321.5,554.5 321.5,559.5C 321.5,564.167 321.5,568.833 321.5,573.5C 316.5,573.5 311.5,573.5 306.5,573.5C 306.5,568.833 306.5,564.167 306.5,559.5C 306.5,554.5 306.5,549.5 306.5,544.5 Z"/></g>
<g><path style="opacity:1" fill="#e5a049" d="M 321.5,544.5 C 326.167,544.5 330.833,544.5 335.5,544.5C 335.5,549.5 335.5,554.5 335.5,559.5C 330.833,559.5 326.167,559.5 321.5,559.5C 321.5,554.5 321.5,549.5 321.5,544.5 Z"/></g>
<g><path style="opacity:1" fill="#6f4b0b" d="M 60.5,558.5 C 60.5,563.5 60.5,568.5 60.5,573.5C 55.8333,573.5 51.1667,573.5 46.5,573.5C 46.5,568.5 46.5,563.5 46.5,558.5C 51.1667,558.5 55.8333,558.5 60.5,558.5 Z"/></g>
<g><path style="opacity:1" fill="#d0a44f" d="M 60.5,558.5 C 65.5,558.5 70.5,558.5 75.5,558.5C 75.5,563.5 75.5,568.5 75.5,573.5C 75.5,583.167 75.5,592.833 75.5,602.5C 80.1667,602.5 84.8333,602.5 89.5,602.5C 89.5,592.833 89.5,583.167 89.5,573.5C 90.4861,577.97 90.8195,582.637 90.5,587.5C 94.8333,587.5 99.1667,587.5 103.5,587.5C 103.181,582.637 103.514,577.97 104.5,573.5C 104.5,583.167 104.5,592.833 104.5,602.5C 99.8333,602.5 95.1667,602.5 90.5,602.5C 90.5,607.167 90.5,611.833 90.5,616.5C 85.3054,616.179 80.3054,616.513 75.5,617.5C 70.5,617.5 65.5,617.5 60.5,617.5C 60.5,607.5 60.5,597.5 60.5,587.5C 55.8333,587.5 51.1667,587.5 46.5,587.5C 46.5,582.833 46.5,578.167 46.5,573.5C 51.1667,573.5 55.8333,573.5 60.5,573.5C 60.5,568.5 60.5,563.5 60.5,558.5 Z"/></g>
<g><path style="opacity:1" fill="#714c0d" d="M 118.5,558.5 C 123.595,558.221 128.595,558.555 133.5,559.5C 133.5,564.167 133.5,568.833 133.5,573.5C 128.5,573.5 123.5,573.5 118.5,573.5C 118.5,568.833 118.5,564.167 118.5,559.5C 118.5,559.167 118.5,558.833 118.5,558.5 Z"/></g>
<g><path style="opacity:1" fill="#9b5c12" d="M 219.5,558.5 C 229.167,558.5 238.833,558.5 248.5,558.5C 248.5,558.833 248.5,559.167 248.5,559.5C 248.5,564.167 248.5,568.833 248.5,573.5C 243.833,573.5 239.167,573.5 234.5,573.5C 234.5,583.167 234.5,592.833 234.5,602.5C 229.5,602.5 224.5,602.5 219.5,602.5C 219.5,597.833 219.5,593.167 219.5,588.5C 209.833,588.5 200.167,588.5 190.5,588.5C 190.5,583.5 190.5,578.5 190.5,573.5C 200.167,573.5 209.833,573.5 219.5,573.5C 219.5,568.5 219.5,563.5 219.5,558.5 Z"/></g>
<g><path style="opacity:1" fill="#0b0500" d="M 263.5,558.5 C 263.5,563.5 263.5,568.5 263.5,573.5C 263.167,573.5 262.833,573.5 262.5,573.5C 258.167,573.5 253.833,573.5 249.5,573.5C 249.167,573.5 248.833,573.5 248.5,573.5C 248.5,568.833 248.5,564.167 248.5,559.5C 253.405,558.555 258.405,558.221 263.5,558.5 Z"/></g>
<g><path style="opacity:1" fill="#9b5d11" d="M 306.5,559.5 C 306.5,564.167 306.5,568.833 306.5,573.5C 301.833,573.5 297.167,573.5 292.5,573.5C 292.5,568.833 292.5,564.167 292.5,559.5C 297.167,559.5 301.833,559.5 306.5,559.5 Z"/></g>
<g><path style="opacity:1" fill="#9c5d13" d="M 364.5,559.5 C 369.167,559.5 373.833,559.5 378.5,559.5C 378.5,573.833 378.5,588.167 378.5,602.5C 369.167,602.5 359.833,602.5 350.5,602.5C 350.5,612.167 350.5,621.833 350.5,631.5C 350.5,636.167 350.5,640.833 350.5,645.5C 350.167,645.5 349.833,645.5 349.5,645.5C 349.5,640.833 349.5,636.167 349.5,631.5C 349.5,617.167 349.5,602.833 349.5,588.5C 344.833,588.5 340.167,588.5 335.5,588.5C 330.637,588.819 325.97,588.486 321.5,587.5C 326.167,587.5 330.833,587.5 335.5,587.5C 335.5,582.833 335.5,578.167 335.5,573.5C 345.167,573.5 354.833,573.5 364.5,573.5C 364.5,568.833 364.5,564.167 364.5,559.5 Z"/></g>
<g><path style="opacity:1" fill="#754305" d="M 364.5,559.5 C 364.5,559.167 364.5,558.833 364.5,558.5C 369.5,558.5 374.5,558.5 379.5,558.5C 384.167,558.5 388.833,558.5 393.5,558.5C 393.5,573.167 393.5,587.833 393.5,602.5C 393.5,607.167 393.5,611.833 393.5,616.5C 388.833,616.5 384.167,616.5 379.5,616.5C 379.819,611.637 379.486,606.97 378.5,602.5C 378.5,588.167 378.5,573.833 378.5,559.5C 373.833,559.5 369.167,559.5 364.5,559.5 Z"/></g>
<g><path style="opacity:1" fill="#6f4b0b" d="M 75.5,573.5 C 80.1667,573.5 84.8333,573.5 89.5,573.5C 89.5,583.167 89.5,592.833 89.5,602.5C 84.8333,602.5 80.1667,602.5 75.5,602.5C 75.5,592.833 75.5,583.167 75.5,573.5 Z"/></g>
<g><path style="opacity:1" fill="#704b0e" d="M 104.5,573.5 C 109.167,573.5 113.833,573.5 118.5,573.5C 118.5,578.167 118.5,582.833 118.5,587.5C 123.5,587.5 128.5,587.5 133.5,587.5C 128.695,588.487 123.695,588.821 118.5,588.5C 118.5,593.167 118.5,597.833 118.5,602.5C 113.833,602.5 109.167,602.5 104.5,602.5C 104.5,592.833 104.5,583.167 104.5,573.5 Z"/></g>
<g><path style="opacity:1" fill="#e7c27f" d="M 118.5,573.5 C 123.5,573.5 128.5,573.5 133.5,573.5C 133.5,578.167 133.5,582.833 133.5,587.5C 128.5,587.5 123.5,587.5 118.5,587.5C 118.5,582.833 118.5,578.167 118.5,573.5 Z"/></g>
<g><path style="opacity:1" fill="#000000" d="M 133.5,573.5 C 138.5,573.5 143.5,573.5 148.5,573.5C 148.5,583.167 148.5,592.833 148.5,602.5C 143.5,602.5 138.5,602.5 133.5,602.5C 128.5,602.5 123.5,602.5 118.5,602.5C 118.5,597.833 118.5,593.167 118.5,588.5C 123.695,588.821 128.695,588.487 133.5,587.5C 133.5,582.833 133.5,578.167 133.5,573.5 Z"/></g>
<g><path style="opacity:1" fill="#764305" d="M 176.5,573.5 C 181.167,573.5 185.833,573.5 190.5,573.5C 190.5,578.5 190.5,583.5 190.5,588.5C 185.833,588.5 181.167,588.5 176.5,588.5C 176.5,583.5 176.5,578.5 176.5,573.5 Z"/></g>
<g><path style="opacity:1" fill="#000000" d="M 248.5,573.5 C 248.5,578.5 248.5,583.5 248.5,588.5C 248.5,593.167 248.5,597.833 248.5,602.5C 243.833,602.5 239.167,602.5 234.5,602.5C 234.5,592.833 234.5,583.167 234.5,573.5C 239.167,573.5 243.833,573.5 248.5,573.5 Z"/></g>
<g><path style="opacity:1" fill="#ecc782" d="M 292.5,573.5 C 297.167,573.5 301.833,573.5 306.5,573.5C 311.5,573.5 316.5,573.5 321.5,573.5C 321.5,578.167 321.5,582.833 321.5,587.5C 325.97,588.486 330.637,588.819 335.5,588.5C 335.5,597.833 335.5,607.167 335.5,616.5C 330.833,616.5 326.167,616.5 321.5,616.5C 321.5,611.833 321.5,607.167 321.5,602.5C 316.5,602.5 311.5,602.5 306.5,602.5C 306.5,607.167 306.5,611.833 306.5,616.5C 306.5,621.5 306.5,626.5 306.5,631.5C 301.833,631.5 297.167,631.5 292.5,631.5C 292.5,631.167 292.5,630.833 292.5,630.5C 292.5,625.833 292.5,621.167 292.5,616.5C 292.5,611.833 292.5,607.167 292.5,602.5C 287.833,602.5 283.167,602.5 278.5,602.5C 277.514,606.97 277.181,611.637 277.5,616.5C 272.833,616.5 268.167,616.5 263.5,616.5C 263.5,607.167 263.5,597.833 263.5,588.5C 268.5,588.5 273.5,588.5 278.5,588.5C 278.5,583.5 278.5,578.5 278.5,573.5C 283.167,573.5 287.833,573.5 292.5,573.5 Z"/></g>
<g><path style="opacity:1" fill="#754405" d="M 321.5,573.5 C 326.167,573.5 330.833,573.5 335.5,573.5C 335.5,578.167 335.5,582.833 335.5,587.5C 330.833,587.5 326.167,587.5 321.5,587.5C 321.5,582.833 321.5,578.167 321.5,573.5 Z"/></g>
<g><path style="opacity:1" fill="#b7a995" d="M 248.5,573.5 C 248.833,573.5 249.167,573.5 249.5,573.5C 249.5,578.167 249.5,582.833 249.5,587.5C 253.833,587.5 258.167,587.5 262.5,587.5C 262.5,582.833 262.5,578.167 262.5,573.5C 262.833,573.5 263.167,573.5 263.5,573.5C 263.5,578.167 263.5,582.833 263.5,587.5C 263.5,587.833 263.5,588.167 263.5,588.5C 258.5,588.5 253.5,588.5 248.5,588.5C 248.5,583.5 248.5,578.5 248.5,573.5 Z"/></g>
<g><path style="opacity:1" fill="#f9faf9" d="M 249.5,573.5 C 253.833,573.5 258.167,573.5 262.5,573.5C 262.5,578.167 262.5,582.833 262.5,587.5C 258.167,587.5 253.833,587.5 249.5,587.5C 249.5,582.833 249.5,578.167 249.5,573.5 Z"/></g>
<g><path style="opacity:1" fill="#714c0d" d="M 46.5,587.5 C 51.1667,587.5 55.8333,587.5 60.5,587.5C 60.5,597.5 60.5,607.5 60.5,617.5C 55.8333,617.5 51.1667,617.5 46.5,617.5C 46.5,607.5 46.5,597.5 46.5,587.5 Z"/></g>
<g><path style="opacity:1" fill="#764305" d="M 190.5,588.5 C 200.167,588.5 209.833,588.5 219.5,588.5C 219.5,593.167 219.5,597.833 219.5,602.5C 209.833,602.5 200.167,602.5 190.5,602.5C 190.5,597.833 190.5,593.167 190.5,588.5 Z"/></g>
<g><path style="opacity:1" fill="#6e4b0f" d="M 248.5,588.5 C 253.5,588.5 258.5,588.5 263.5,588.5C 263.5,597.833 263.5,607.167 263.5,616.5C 268.167,616.5 272.833,616.5 277.5,616.5C 277.5,616.833 277.5,617.167 277.5,617.5C 272.833,617.5 268.167,617.5 263.5,617.5C 263.5,622.167 263.5,626.833 263.5,631.5C 258.5,631.5 253.5,631.5 248.5,631.5C 248.5,626.833 248.5,622.167 248.5,617.5C 243.833,617.5 239.167,617.5 234.5,617.5C 238.97,616.514 243.637,616.181 248.5,616.5C 248.5,611.833 248.5,607.167 248.5,602.5C 248.5,597.833 248.5,593.167 248.5,588.5 Z"/></g>
<g><path style="opacity:1" fill="#764406" d="M 335.5,588.5 C 340.167,588.5 344.833,588.5 349.5,588.5C 349.5,602.833 349.5,617.167 349.5,631.5C 344.833,631.5 340.167,631.5 335.5,631.5C 335.5,626.833 335.5,622.167 335.5,617.5C 335.5,617.167 335.5,616.833 335.5,616.5C 335.5,607.167 335.5,597.833 335.5,588.5 Z"/></g>
<g><path style="opacity:1" fill="#714c0d" d="M 104.5,602.5 C 104.5,607.167 104.5,611.833 104.5,616.5C 99.8333,616.5 95.1667,616.5 90.5,616.5C 90.5,611.833 90.5,607.167 90.5,602.5C 95.1667,602.5 99.8333,602.5 104.5,602.5 Z"/></g>
<g><path style="opacity:1" fill="#d3a850" d="M 104.5,602.5 C 109.167,602.5 113.833,602.5 118.5,602.5C 118.5,607.167 118.5,611.833 118.5,616.5C 113.833,616.5 109.167,616.5 104.5,616.5C 104.5,611.833 104.5,607.167 104.5,602.5 Z"/></g>
<g><path style="opacity:1" fill="#714c0d" d="M 118.5,602.5 C 123.5,602.5 128.5,602.5 133.5,602.5C 133.5,607.5 133.5,612.5 133.5,617.5C 128.833,617.5 124.167,617.5 119.5,617.5C 118.833,617.5 118.5,617.167 118.5,616.5C 118.5,611.833 118.5,607.167 118.5,602.5 Z"/></g>
<g><path style="opacity:1" fill="#6f4a0d" d="M 190.5,602.5 C 190.5,612.167 190.5,621.833 190.5,631.5C 185.833,631.5 181.167,631.5 176.5,631.5C 176.5,626.5 176.5,621.5 176.5,616.5C 171.833,616.5 167.167,616.5 162.5,616.5C 162.5,621.5 162.5,626.5 162.5,631.5C 162.167,631.5 161.833,631.5 161.5,631.5C 161.5,626.5 161.5,621.5 161.5,616.5C 161.5,611.833 161.5,607.167 161.5,602.5C 171.167,602.5 180.833,602.5 190.5,602.5 Z"/></g>
<g><path style="opacity:1" fill="#d1a651" d="M 190.5,602.5 C 200.167,602.5 209.833,602.5 219.5,602.5C 224.5,602.5 229.5,602.5 234.5,602.5C 239.167,602.5 243.833,602.5 248.5,602.5C 248.5,607.167 248.5,611.833 248.5,616.5C 243.637,616.181 238.97,616.514 234.5,617.5C 234.5,622.167 234.5,626.833 234.5,631.5C 229.5,631.5 224.5,631.5 219.5,631.5C 219.5,626.833 219.5,622.167 219.5,617.5C 214.833,617.5 210.167,617.5 205.5,617.5C 201.03,616.514 196.363,616.181 191.5,616.5C 191.5,621.5 191.5,626.5 191.5,631.5C 191.167,631.5 190.833,631.5 190.5,631.5C 190.5,621.833 190.5,612.167 190.5,602.5 Z"/></g>
<g><path style="opacity:1" fill="#724e0f" d="M 278.5,602.5 C 283.167,602.5 287.833,602.5 292.5,602.5C 292.5,607.167 292.5,611.833 292.5,616.5C 292.167,616.5 291.833,616.5 291.5,616.5C 287.167,616.5 282.833,616.5 278.5,616.5C 278.5,611.833 278.5,607.167 278.5,602.5 Z"/></g>
<g><path style="opacity:1" fill="#d5a852" d="M 321.5,616.5 C 316.5,616.5 311.5,616.5 306.5,616.5C 306.5,611.833 306.5,607.167 306.5,602.5C 311.5,602.5 316.5,602.5 321.5,602.5C 321.5,607.167 321.5,611.833 321.5,616.5 Z"/></g>
<g><path style="opacity:1" fill="#d3a750" d="M 378.5,602.5 C 378.5,607.5 378.5,612.5 378.5,617.5C 388.167,617.5 397.833,617.5 407.5,617.5C 407.5,622.167 407.5,626.833 407.5,631.5C 407.5,636.167 407.5,640.833 407.5,645.5C 402.833,645.5 398.167,645.5 393.5,645.5C 393.5,640.833 393.5,636.167 393.5,631.5C 388.833,631.5 384.167,631.5 379.5,631.5C 379.5,636.167 379.5,640.833 379.5,645.5C 379.167,645.5 378.833,645.5 378.5,645.5C 378.5,640.833 378.5,636.167 378.5,631.5C 373.833,631.5 369.167,631.5 364.5,631.5C 359.833,631.5 355.167,631.5 350.5,631.5C 350.5,621.833 350.5,612.167 350.5,602.5C 359.833,602.5 369.167,602.5 378.5,602.5 Z"/></g>
<g><path style="opacity:1" fill="#000000" d="M 393.5,602.5 C 398.5,602.5 403.5,602.5 408.5,602.5C 408.5,607.167 408.5,611.833 408.5,616.5C 408.167,616.5 407.833,616.5 407.5,616.5C 402.833,616.5 398.167,616.5 393.5,616.5C 393.5,611.833 393.5,607.167 393.5,602.5 Z"/></g>
<g><path style="opacity:1" fill="#000000" d="M 161.5,616.5 C 161.5,621.5 161.5,626.5 161.5,631.5C 156.833,631.5 152.167,631.5 147.5,631.5C 147.5,626.5 147.5,621.5 147.5,616.5C 152.167,616.5 156.833,616.5 161.5,616.5 Z"/></g>
<g><path style="opacity:1" fill="#9f7530" d="M 378.5,602.5 C 379.486,606.97 379.819,611.637 379.5,616.5C 384.167,616.5 388.833,616.5 393.5,616.5C 398.167,616.5 402.833,616.5 407.5,616.5C 407.5,616.833 407.5,617.167 407.5,617.5C 397.833,617.5 388.167,617.5 378.5,617.5C 378.5,612.5 378.5,607.5 378.5,602.5 Z"/></g>
<g><path style="opacity:1" fill="#6f4a0c" d="M 60.5,617.5 C 65.5,617.5 70.5,617.5 75.5,617.5C 75.5,622.167 75.5,626.833 75.5,631.5C 70.5,631.5 65.5,631.5 60.5,631.5C 60.5,626.833 60.5,622.167 60.5,617.5 Z"/></g>
<g><path style="opacity:1" fill="#050301" d="M 90.5,616.5 C 95.1667,616.5 99.8333,616.5 104.5,616.5C 109.167,616.5 113.833,616.5 118.5,616.5C 118.5,617.167 118.833,617.5 119.5,617.5C 119.5,622.167 119.5,626.833 119.5,631.5C 104.833,631.5 90.1667,631.5 75.5,631.5C 75.5,626.833 75.5,622.167 75.5,617.5C 80.3054,616.513 85.3054,616.179 90.5,616.5 Z"/></g>
<g><path style="opacity:1" fill="#e7c37e" d="M 176.5,631.5 C 171.833,631.5 167.167,631.5 162.5,631.5C 162.5,626.5 162.5,621.5 162.5,616.5C 167.167,616.5 171.833,616.5 176.5,616.5C 176.5,621.5 176.5,626.5 176.5,631.5 Z"/></g>
<g><path style="opacity:1" fill="#eac580" d="M 205.5,617.5 C 205.5,622.167 205.5,626.833 205.5,631.5C 200.833,631.5 196.167,631.5 191.5,631.5C 191.5,626.5 191.5,621.5 191.5,616.5C 196.363,616.181 201.03,616.514 205.5,617.5 Z"/></g>
<g><path style="opacity:1" fill="#6f4a0c" d="M 205.5,617.5 C 210.167,617.5 214.833,617.5 219.5,617.5C 219.5,622.167 219.5,626.833 219.5,631.5C 214.833,631.5 210.167,631.5 205.5,631.5C 205.5,626.833 205.5,622.167 205.5,617.5 Z"/></g>
<g><path style="opacity:1" fill="#ecc781" d="M 220.5,616.5 C 224.833,616.5 229.167,616.5 233.5,616.5C 233.5,621.167 233.5,625.833 233.5,630.5C 229.167,630.5 224.833,630.5 220.5,630.5C 220.5,625.833 220.5,621.167 220.5,616.5 Z"/></g>
<g><path style="opacity:1" fill="#000000" d="M 234.5,617.5 C 239.167,617.5 243.833,617.5 248.5,617.5C 248.5,622.167 248.5,626.833 248.5,631.5C 243.833,631.5 239.167,631.5 234.5,631.5C 234.5,626.833 234.5,622.167 234.5,617.5 Z"/></g>
<g><path style="opacity:1" fill="#000000" d="M 277.5,617.5 C 277.5,622.167 277.5,626.833 277.5,631.5C 272.833,631.5 268.167,631.5 263.5,631.5C 263.5,626.833 263.5,622.167 263.5,617.5C 268.167,617.5 272.833,617.5 277.5,617.5 Z"/></g>
<g><path style="opacity:1" fill="#a27d3b" d="M 278.5,602.5 C 278.5,607.167 278.5,611.833 278.5,616.5C 282.833,616.5 287.167,616.5 291.5,616.5C 287.366,617.485 283.032,617.818 278.5,617.5C 278.5,621.833 278.5,626.167 278.5,630.5C 283.167,630.5 287.833,630.5 292.5,630.5C 292.5,630.833 292.5,631.167 292.5,631.5C 287.5,631.5 282.5,631.5 277.5,631.5C 277.5,626.833 277.5,622.167 277.5,617.5C 277.5,617.167 277.5,616.833 277.5,616.5C 277.181,611.637 277.514,606.97 278.5,602.5 Z"/></g>
<g><path style="opacity:1" fill="#d4a852" d="M 291.5,616.5 C 291.833,616.5 292.167,616.5 292.5,616.5C 292.5,621.167 292.5,625.833 292.5,630.5C 287.833,630.5 283.167,630.5 278.5,630.5C 278.5,626.167 278.5,621.833 278.5,617.5C 283.032,617.818 287.366,617.485 291.5,616.5 Z"/></g>
<g><path style="opacity:1" fill="#6f4c11" d="M 306.5,616.5 C 311.5,616.5 316.5,616.5 321.5,616.5C 326.167,616.5 330.833,616.5 335.5,616.5C 335.5,616.833 335.5,617.167 335.5,617.5C 330.833,617.5 326.167,617.5 321.5,617.5C 321.5,622.167 321.5,626.833 321.5,631.5C 316.5,631.5 311.5,631.5 306.5,631.5C 306.5,626.5 306.5,621.5 306.5,616.5 Z"/></g>
<g><path style="opacity:1" fill="#000000" d="M 335.5,617.5 C 335.5,622.167 335.5,626.833 335.5,631.5C 330.833,631.5 326.167,631.5 321.5,631.5C 321.5,626.833 321.5,622.167 321.5,617.5C 326.167,617.5 330.833,617.5 335.5,617.5 Z"/></g>
<g><path style="opacity:1" fill="#764406" d="M 407.5,616.5 C 407.833,616.5 408.167,616.5 408.5,616.5C 413.167,616.5 417.833,616.5 422.5,616.5C 422.5,621.5 422.5,626.5 422.5,631.5C 417.833,631.5 413.167,631.5 408.5,631.5C 408.167,631.5 407.833,631.5 407.5,631.5C 407.5,626.833 407.5,622.167 407.5,617.5C 407.5,617.167 407.5,616.833 407.5,616.5 Z"/></g>
<g><path style="opacity:1" fill="#000000" d="M 161.5,631.5 C 161.833,631.5 162.167,631.5 162.5,631.5C 167.167,631.5 171.833,631.5 176.5,631.5C 181.167,631.5 185.833,631.5 190.5,631.5C 190.833,631.5 191.167,631.5 191.5,631.5C 196.167,631.5 200.833,631.5 205.5,631.5C 210.167,631.5 214.833,631.5 219.5,631.5C 219.5,636.5 219.5,641.5 219.5,646.5C 200.167,646.5 180.833,646.5 161.5,646.5C 161.5,641.5 161.5,636.5 161.5,631.5 Z"/></g>
<g><path style="opacity:1" fill="#6d490c" d="M 219.5,631.5 C 224.5,631.5 229.5,631.5 234.5,631.5C 234.5,636.5 234.5,641.5 234.5,646.5C 229.5,646.5 224.5,646.5 219.5,646.5C 219.5,641.5 219.5,636.5 219.5,631.5 Z"/></g>
<g><path style="opacity:1" fill="#010000" d="M 277.5,631.5 C 282.5,631.5 287.5,631.5 292.5,631.5C 297.167,631.5 301.833,631.5 306.5,631.5C 311.5,631.5 316.5,631.5 321.5,631.5C 321.5,636.5 321.5,641.5 321.5,646.5C 306.833,646.5 292.167,646.5 277.5,646.5C 277.5,641.5 277.5,636.5 277.5,631.5 Z"/></g>
<g><path style="opacity:1" fill="#714c0d" d="M 321.5,631.5 C 326.167,631.5 330.833,631.5 335.5,631.5C 335.5,636.167 335.5,640.833 335.5,645.5C 340.167,645.5 344.833,645.5 349.5,645.5C 349.5,648.833 349.5,652.167 349.5,655.5C 344.833,655.5 340.167,655.5 335.5,655.5C 335.5,652.5 335.5,649.5 335.5,646.5C 330.833,646.5 326.167,646.5 321.5,646.5C 321.5,641.5 321.5,636.5 321.5,631.5 Z"/></g>
<g><path style="opacity:1" fill="#ecc882" d="M 335.5,631.5 C 340.167,631.5 344.833,631.5 349.5,631.5C 349.5,636.167 349.5,640.833 349.5,645.5C 344.833,645.5 340.167,645.5 335.5,645.5C 335.5,640.833 335.5,636.167 335.5,631.5 Z"/></g>
<g><path style="opacity:1" fill="#704c0d" d="M 350.5,631.5 C 355.167,631.5 359.833,631.5 364.5,631.5C 364.5,636.167 364.5,640.833 364.5,645.5C 359.833,645.5 355.167,645.5 350.5,645.5C 350.5,640.833 350.5,636.167 350.5,631.5 Z"/></g>
<g><path style="opacity:1" fill="#ecc882" d="M 364.5,631.5 C 369.167,631.5 373.833,631.5 378.5,631.5C 378.5,636.167 378.5,640.833 378.5,645.5C 373.833,645.5 369.167,645.5 364.5,645.5C 364.5,640.833 364.5,636.167 364.5,631.5 Z"/></g>
<g><path style="opacity:1" fill="#704b0c" d="M 393.5,645.5 C 388.833,645.5 384.167,645.5 379.5,645.5C 379.5,640.833 379.5,636.167 379.5,631.5C 384.167,631.5 388.833,631.5 393.5,631.5C 393.5,636.167 393.5,640.833 393.5,645.5 Z"/></g>
<g><path style="opacity:1" fill="#000000" d="M 408.5,631.5 C 413.167,631.5 417.833,631.5 422.5,631.5C 422.5,636.5 422.5,641.5 422.5,646.5C 417.833,646.5 413.167,646.5 408.5,646.5C 408.5,641.5 408.5,636.5 408.5,631.5 Z"/></g>
<g><path style="opacity:1" fill="#3e311a" d="M 407.5,631.5 C 407.833,631.5 408.167,631.5 408.5,631.5C 408.5,636.5 408.5,641.5 408.5,646.5C 389.167,646.5 369.833,646.5 350.5,646.5C 350.5,649.5 350.5,652.5 350.5,655.5C 350.167,655.5 349.833,655.5 349.5,655.5C 349.5,652.167 349.5,648.833 349.5,645.5C 349.833,645.5 350.167,645.5 350.5,645.5C 355.167,645.5 359.833,645.5 364.5,645.5C 369.167,645.5 373.833,645.5 378.5,645.5C 378.833,645.5 379.167,645.5 379.5,645.5C 384.167,645.5 388.833,645.5 393.5,645.5C 398.167,645.5 402.833,645.5 407.5,645.5C 407.5,640.833 407.5,636.167 407.5,631.5 Z"/></g>
<g><path style="opacity:1" fill="#000000" d="M 408.5,646.5 C 408.5,649.5 408.5,652.5 408.5,655.5C 389.167,655.5 369.833,655.5 350.5,655.5C 350.5,652.5 350.5,649.5 350.5,646.5C 369.833,646.5 389.167,646.5 408.5,646.5 Z"/></g>
</svg>
