<?xml version="1.0" encoding="UTF-8"?>
<!DOCTYPE svg PUBLIC "-//W3C//DTD SVG 1.1//EN" "http://www.w3.org/Graphics/SVG/1.1/DTD/svg11.dtd">
<svg xmlns="http://www.w3.org/2000/svg" version="1.1" width="524px" height="658px" style="shape-rendering:geometricPrecision; text-rendering:geometricPrecision; image-rendering:optimizeQuality; fill-rule:evenodd; clip-rule:evenodd" xmlns:xlink="http://www.w3.org/1999/xlink">
<g><path style="opacity:1" fill="#188205" d="M 167.5,16.5 C 156.5,16.5 145.5,16.5 134.5,16.5C 134.5,21.8333 134.5,27.1667 134.5,32.5C 129.167,32.5 123.833,32.5 118.5,32.5C 118.5,21.8333 118.5,11.1667 118.5,0.5C 134.833,0.5 151.167,0.5 167.5,0.5C 167.5,5.83333 167.5,11.1667 167.5,16.5 Z"/></g>
<g><path style="opacity:1" fill="#194400" d="M 183.5,16.5 C 188.833,16.5 194.167,16.5 199.5,16.5C 199.5,21.8333 199.5,27.1667 199.5,32.5C 199.5,27.1667 199.5,21.8333 199.5,16.5C 194.167,16.5 188.833,16.5 183.5,16.5 Z"/></g>
<g><path style="opacity:1" fill="#194400" d="M 390.5,80.5 C 385.167,80.5 379.833,80.5 374.5,80.5C 374.5,75.1667 374.5,69.8333 374.5,64.5C 379.833,64.5 385.167,64.5 390.5,64.5C 390.5,54.1667 390.5,43.8333 390.5,33.5C 380.013,32.5056 369.346,32.1722 358.5,32.5C 358.5,27.1667 358.5,21.8333 358.5,16.5C 374.5,16.5 390.5,16.5 406.5,16.5C 406.5,32.8333 406.5,49.1667 406.5,65.5C 401.167,65.5 395.833,65.5 390.5,65.5C 390.5,70.5 390.5,75.5 390.5,80.5 Z"/></g>
<g><path style="opacity:1" fill="#4aae37" d="M 167.5,16.5 C 167.5,21.8333 167.5,27.1667 167.5,32.5C 177.832,32.8749 188.165,33.2082 198.5,33.5C 198.179,38.6946 198.513,43.6946 199.5,48.5C 199.5,53.8333 199.5,59.1667 199.5,64.5C 188.833,64.5 178.167,64.5 167.5,64.5C 167.5,69.8333 167.5,75.1667 167.5,80.5C 162.167,80.5 156.833,80.5 151.5,80.5C 151.5,75.1667 151.5,69.8333 151.5,64.5C 146.167,64.5 140.833,64.5 135.5,64.5C 135.828,53.6536 135.494,42.9869 134.5,32.5C 134.5,27.1667 134.5,21.8333 134.5,16.5C 145.5,16.5 156.5,16.5 167.5,16.5 Z"/></g>
<g><path style="opacity:1" fill="#1d8109" d="M 167.5,16.5 C 172.833,16.5 178.167,16.5 183.5,16.5C 183.5,21.8333 183.5,27.1667 183.5,32.5C 188.833,32.5 194.167,32.5 199.5,32.5C 199.5,37.8333 199.5,43.1667 199.5,48.5C 198.513,43.6946 198.179,38.6946 198.5,33.5C 188.165,33.2082 177.832,32.8749 167.5,32.5C 167.5,27.1667 167.5,21.8333 167.5,16.5 Z"/></g>
<g><path style="opacity:1" fill="#194400" d="M 199.5,32.5 C 204.833,32.5 210.167,32.5 215.5,32.5C 215.5,37.8333 215.5,43.1667 215.5,48.5C 210.167,48.5 204.833,48.5 199.5,48.5C 199.5,43.1667 199.5,37.8333 199.5,32.5 Z"/></g>
<g><path style="opacity:1" fill="#194400" d="M 342.5,32.5 C 342.5,37.8333 342.5,43.1667 342.5,48.5C 337.167,48.5 331.833,48.5 326.5,48.5C 326.5,43.1667 326.5,37.8333 326.5,32.5C 331.833,32.5 337.167,32.5 342.5,32.5 Z"/></g>
<g><path style="opacity:1" fill="#194601" d="M 118.5,32.5 C 123.833,32.5 129.167,32.5 134.5,32.5C 135.494,42.9869 135.828,53.6536 135.5,64.5C 140.833,64.5 146.167,64.5 151.5,64.5C 151.5,69.8333 151.5,75.1667 151.5,80.5C 151.5,85.8333 151.5,91.1667 151.5,96.5C 151.167,96.5 150.833,96.5 150.5,96.5C 150.5,91.1667 150.5,85.8333 150.5,80.5C 145.167,80.5 139.833,80.5 134.5,80.5C 134.5,75.5 134.5,70.5 134.5,65.5C 129.238,65.8047 124.072,65.4714 119,64.5C 118.5,53.8385 118.333,43.1719 118.5,32.5 Z"/></g>
<g><path style="opacity:1" fill="#1d840b" d="M 342.5,32.5 C 347.833,32.5 353.167,32.5 358.5,32.5C 369.346,32.1722 380.013,32.5056 390.5,33.5C 379.833,33.5 369.167,33.5 358.5,33.5C 358.5,38.5 358.5,43.5 358.5,48.5C 353.167,48.5 347.833,48.5 342.5,48.5C 342.5,43.1667 342.5,37.8333 342.5,32.5 Z"/></g>
<g><path style="opacity:1" fill="#4aae37" d="M 390.5,33.5 C 390.5,43.8333 390.5,54.1667 390.5,64.5C 385.167,64.5 379.833,64.5 374.5,64.5C 374.5,69.8333 374.5,75.1667 374.5,80.5C 374.5,85.8333 374.5,91.1667 374.5,96.5C 369.167,96.5 363.833,96.5 358.5,96.5C 347.833,96.5 337.167,96.5 326.5,96.5C 326.5,91.1667 326.5,85.8333 326.5,80.5C 321.167,80.5 315.833,80.5 310.5,80.5C 310.5,75.1667 310.5,69.8333 310.5,64.5C 315.833,64.5 321.167,64.5 326.5,64.5C 326.5,59.1667 326.5,53.8333 326.5,48.5C 331.833,48.5 337.167,48.5 342.5,48.5C 347.833,48.5 353.167,48.5 358.5,48.5C 358.5,43.5 358.5,38.5 358.5,33.5C 369.167,33.5 379.833,33.5 390.5,33.5 Z"/></g>
<g><path style="opacity:1" fill="#194400" d="M 326.5,48.5 C 326.5,53.8333 326.5,59.1667 326.5,64.5C 321.167,64.5 315.833,64.5 310.5,64.5C 305.167,64.5 299.833,64.5 294.5,64.5C 294.5,59.1667 294.5,53.8333 294.5,48.5C 305.167,48.5 315.833,48.5 326.5,48.5 Z"/></g>
<g><path style="opacity:1" fill="#198206" d="M 199.5,48.5 C 204.833,48.5 210.167,48.5 215.5,48.5C 215.5,59.1667 215.5,69.8333 215.5,80.5C 220.5,80.5 225.5,80.5 230.5,80.5C 230.5,96.5 230.5,112.5 230.5,128.5C 219.833,128.5 209.167,128.5 198.5,128.5C 198.5,123.167 198.5,117.833 198.5,112.5C 193.167,112.5 187.833,112.5 182.5,112.5C 182.5,107.167 182.5,101.833 182.5,96.5C 177.5,96.5 172.5,96.5 167.5,96.5C 162.167,96.5 156.833,96.5 151.5,96.5C 151.5,91.1667 151.5,85.8333 151.5,80.5C 156.833,80.5 162.167,80.5 167.5,80.5C 167.5,75.1667 167.5,69.8333 167.5,64.5C 178.167,64.5 188.833,64.5 199.5,64.5C 199.5,59.1667 199.5,53.8333 199.5,48.5 Z"/></g>
<g><path style="opacity:1" fill="#50381e" d="M 263.5,80.5 C 263.167,80.5 262.833,80.5 262.5,80.5C 257.167,80.5 251.833,80.5 246.5,80.5C 246.5,75.1667 246.5,69.8333 246.5,64.5C 252.167,64.5 257.833,64.5 263.5,64.5C 263.5,69.8333 263.5,75.1667 263.5,80.5 Z"/></g>
<g><path style="opacity:1" fill="#194400" d="M 294.5,64.5 C 294.5,69.8333 294.5,75.1667 294.5,80.5C 289.167,80.5 283.833,80.5 278.5,80.5C 278.5,75.1667 278.5,69.8333 278.5,64.5C 283.833,64.5 289.167,64.5 294.5,64.5 Z"/></g>
<g><path style="opacity:1" fill="#198206" d="M 294.5,64.5 C 299.833,64.5 305.167,64.5 310.5,64.5C 310.5,69.8333 310.5,75.1667 310.5,80.5C 315.833,80.5 321.167,80.5 326.5,80.5C 326.5,85.8333 326.5,91.1667 326.5,96.5C 337.167,96.5 347.833,96.5 358.5,96.5C 358.5,101.833 358.5,107.167 358.5,112.5C 347.833,112.5 337.167,112.5 326.5,112.5C 326.5,117.833 326.5,123.167 326.5,128.5C 315.833,128.5 305.167,128.5 294.5,128.5C 289.167,128.5 283.833,128.5 278.5,128.5C 273.5,128.5 268.5,128.5 263.5,128.5C 263.5,123.167 263.5,117.833 263.5,112.5C 268.5,112.5 273.5,112.5 278.5,112.5C 278.5,101.833 278.5,91.1667 278.5,80.5C 283.833,80.5 289.167,80.5 294.5,80.5C 294.5,75.1667 294.5,69.8333 294.5,64.5 Z"/></g>
<g><path style="opacity:1" fill="#194400" d="M 215.5,48.5 C 220.833,48.5 226.167,48.5 231.5,48.5C 231.5,59.1667 231.5,69.8333 231.5,80.5C 236.5,80.5 241.5,80.5 246.5,80.5C 246.5,85.8333 246.5,91.1667 246.5,96.5C 251.833,96.5 257.167,96.5 262.5,96.5C 262.5,101.833 262.5,107.167 262.5,112.5C 257.167,112.5 251.833,112.5 246.5,112.5C 246.5,117.833 246.5,123.167 246.5,128.5C 241.5,128.5 236.5,128.5 231.5,128.5C 231.167,128.5 230.833,128.5 230.5,128.5C 230.5,112.5 230.5,96.5 230.5,80.5C 225.5,80.5 220.5,80.5 215.5,80.5C 215.5,69.8333 215.5,59.1667 215.5,48.5 Z"/></g>
<g><path style="opacity:1" fill="#557b18" d="M 262.5,80.5 C 262.833,80.5 263.167,80.5 263.5,80.5C 268.5,80.5 273.5,80.5 278.5,80.5C 278.5,91.1667 278.5,101.833 278.5,112.5C 273.5,112.5 268.5,112.5 263.5,112.5C 263.5,117.833 263.5,123.167 263.5,128.5C 263.167,128.5 262.833,128.5 262.5,128.5C 262.5,123.167 262.5,117.833 262.5,112.5C 262.5,107.167 262.5,101.833 262.5,96.5C 262.5,91.1667 262.5,85.8333 262.5,80.5 Z"/></g>
<g><path style="opacity:1" fill="#000000" d="M 134.5,80.5 C 139.833,80.5 145.167,80.5 150.5,80.5C 150.5,85.8333 150.5,91.1667 150.5,96.5C 145.167,96.5 139.833,96.5 134.5,96.5C 134.5,91.1667 134.5,85.8333 134.5,80.5 Z"/></g>
<g><path style="opacity:1" fill="#815c3c" d="M 246.5,80.5 C 251.833,80.5 257.167,80.5 262.5,80.5C 262.5,85.8333 262.5,91.1667 262.5,96.5C 257.167,96.5 251.833,96.5 246.5,96.5C 246.5,91.1667 246.5,85.8333 246.5,80.5 Z"/></g>
<g><path style="opacity:1" fill="#000000" d="M 374.5,80.5 C 379.833,80.5 385.167,80.5 390.5,80.5C 390.5,85.8333 390.5,91.1667 390.5,96.5C 385.167,96.5 379.833,96.5 374.5,96.5C 374.5,91.1667 374.5,85.8333 374.5,80.5 Z"/></g>
<g><path style="opacity:1" fill="#020300" d="M 150.5,96.5 C 150.833,96.5 151.167,96.5 151.5,96.5C 156.833,96.5 162.167,96.5 167.5,96.5C 167.5,101.833 167.5,107.167 167.5,112.5C 167.167,112.5 166.833,112.5 166.5,112.5C 161.167,112.5 155.833,112.5 150.5,112.5C 150.5,107.167 150.5,101.833 150.5,96.5 Z"/></g>
<g><path style="opacity:1" fill="#567d18" d="M 167.5,96.5 C 172.5,96.5 177.5,96.5 182.5,96.5C 182.5,101.833 182.5,107.167 182.5,112.5C 177.5,112.5 172.5,112.5 167.5,112.5C 167.5,107.167 167.5,101.833 167.5,96.5 Z"/></g>
<g><path style="opacity:1" fill="#000000" d="M 166.5,112.5 C 166.833,112.5 167.167,112.5 167.5,112.5C 172.5,112.5 177.5,112.5 182.5,112.5C 187.833,112.5 193.167,112.5 198.5,112.5C 198.5,117.833 198.5,123.167 198.5,128.5C 187.833,128.5 177.167,128.5 166.5,128.5C 166.5,123.167 166.5,117.833 166.5,112.5 Z"/></g>
<g><path style="opacity:1" fill="#50381e" d="M 262.5,112.5 C 262.5,117.833 262.5,123.167 262.5,128.5C 262.5,133.833 262.5,139.167 262.5,144.5C 257.167,144.5 251.833,144.5 246.5,144.5C 246.5,139.167 246.5,133.833 246.5,128.5C 246.5,123.167 246.5,117.833 246.5,112.5C 251.833,112.5 257.167,112.5 262.5,112.5 Z"/></g>
<g><path style="opacity:1" fill="#000000" d="M 358.5,96.5 C 363.833,96.5 369.167,96.5 374.5,96.5C 374.5,101.833 374.5,107.167 374.5,112.5C 369.5,112.5 364.5,112.5 359.5,112.5C 359.5,117.833 359.5,123.167 359.5,128.5C 348.833,128.5 338.167,128.5 327.5,128.5C 327.5,133.833 327.5,139.167 327.5,144.5C 316.5,144.5 305.5,144.5 294.5,144.5C 294.5,139.167 294.5,133.833 294.5,128.5C 305.167,128.5 315.833,128.5 326.5,128.5C 326.5,123.167 326.5,117.833 326.5,112.5C 337.167,112.5 347.833,112.5 358.5,112.5C 358.5,107.167 358.5,101.833 358.5,96.5 Z"/></g>
<g><path style="opacity:1" fill="#000000" d="M 198.5,128.5 C 209.167,128.5 219.833,128.5 230.5,128.5C 230.5,133.833 230.5,139.167 230.5,144.5C 225.167,144.5 219.833,144.5 214.5,144.5C 209.167,144.5 203.833,144.5 198.5,144.5C 198.5,139.167 198.5,133.833 198.5,128.5 Z"/></g>
<g><path style="opacity:1" fill="#825c3d" d="M 231.5,128.5 C 236.5,128.5 241.5,128.5 246.5,128.5C 246.5,133.833 246.5,139.167 246.5,144.5C 246.5,149.833 246.5,155.167 246.5,160.5C 241.5,160.5 236.5,160.5 231.5,160.5C 231.5,149.833 231.5,139.167 231.5,128.5 Z"/></g>
<g><path style="opacity:1" fill="#567b18" d="M 278.5,128.5 C 283.833,128.5 289.167,128.5 294.5,128.5C 294.5,133.833 294.5,139.167 294.5,144.5C 289.167,144.5 283.833,144.5 278.5,144.5C 278.5,139.167 278.5,133.833 278.5,128.5 Z"/></g>
<g><path style="opacity:1" fill="#523920" d="M 230.5,128.5 C 230.833,128.5 231.167,128.5 231.5,128.5C 231.5,139.167 231.5,149.833 231.5,160.5C 236.5,160.5 241.5,160.5 246.5,160.5C 246.5,165.833 246.5,171.167 246.5,176.5C 241.5,176.5 236.5,176.5 231.5,176.5C 220.321,176.828 209.321,176.495 198.5,175.5C 198.5,170.167 198.5,164.833 198.5,159.5C 203.833,159.5 209.167,159.5 214.5,159.5C 214.5,154.5 214.5,149.5 214.5,144.5C 219.833,144.5 225.167,144.5 230.5,144.5C 230.5,139.167 230.5,133.833 230.5,128.5 Z"/></g>
<g><path style="opacity:1" fill="#825d3d" d="M 198.5,159.5 C 198.5,164.833 198.5,170.167 198.5,175.5C 193.489,175.334 188.489,175.501 183.5,176C 182.529,181.072 182.195,186.238 182.5,191.5C 177.5,191.5 172.5,191.5 167.5,191.5C 167.5,186.167 167.5,180.833 167.5,175.5C 172.5,175.5 177.5,175.5 182.5,175.5C 182.5,170.167 182.5,164.833 182.5,159.5C 187.833,159.5 193.167,159.5 198.5,159.5 Z"/></g>
<g><path style="opacity:1" fill="#956943" d="M 198.5,175.5 C 209.321,176.495 220.321,176.828 231.5,176.5C 231.5,181.5 231.5,186.5 231.5,191.5C 236.5,191.5 241.5,191.5 246.5,191.5C 246.5,192.167 246.833,192.5 247.5,192.5C 247.5,197.5 247.5,202.5 247.5,207.5C 247.5,207.833 247.5,208.167 247.5,208.5C 246.513,213.305 246.179,218.305 246.5,223.5C 241.167,223.5 235.833,223.5 230.5,223.5C 230.5,228.833 230.5,234.167 230.5,239.5C 225.5,239.5 220.5,239.5 215.5,239.5C 215.821,234.305 215.487,229.305 214.5,224.5C 214.5,224.167 214.5,223.833 214.5,223.5C 214.5,218.5 214.5,213.5 214.5,208.5C 209.5,208.5 204.5,208.5 199.5,208.5C 199.167,208.5 198.833,208.5 198.5,208.5C 193.5,208.5 188.5,208.5 183.5,208.5C 183.167,208.5 182.833,208.5 182.5,208.5C 177.5,208.5 172.5,208.5 167.5,208.5C 167.5,213.5 167.5,218.5 167.5,223.5C 161.974,223.179 156.64,223.512 151.5,224.5C 150.513,229.305 150.179,234.305 150.5,239.5C 145.5,239.5 140.5,239.5 135.5,239.5C 135.821,233.974 135.488,228.64 134.5,223.5C 134.5,218.5 134.5,213.5 134.5,208.5C 140.167,208.5 145.833,208.5 151.5,208.5C 151.5,203.167 151.5,197.833 151.5,192.5C 157.026,192.821 162.36,192.488 167.5,191.5C 172.5,191.5 177.5,191.5 182.5,191.5C 182.195,186.238 182.529,181.072 183.5,176C 188.489,175.501 193.489,175.334 198.5,175.5 Z"/></g>
<g><path style="opacity:1" fill="#825d3d" d="M 231.5,176.5 C 236.5,176.5 241.5,176.5 246.5,176.5C 246.5,181.5 246.5,186.5 246.5,191.5C 241.5,191.5 236.5,191.5 231.5,191.5C 231.5,186.5 231.5,181.5 231.5,176.5 Z"/></g>
<g><path style="opacity:1" fill="#52391f" d="M 246.5,176.5 C 251.833,176.5 257.167,176.5 262.5,176.5C 262.5,181.833 262.5,187.167 262.5,192.5C 257.5,192.5 252.5,192.5 247.5,192.5C 246.833,192.5 246.5,192.167 246.5,191.5C 246.5,186.5 246.5,181.5 246.5,176.5 Z"/></g>
<g><path style="opacity:1" fill="#523920" d="M 167.5,175.5 C 167.5,180.833 167.5,186.167 167.5,191.5C 162.36,192.488 157.026,192.821 151.5,192.5C 151.5,197.833 151.5,203.167 151.5,208.5C 145.833,208.5 140.167,208.5 134.5,208.5C 128.974,208.821 123.64,208.488 118.5,207.5C 118.5,202.167 118.5,196.833 118.5,191.5C 129.167,191.5 139.833,191.5 150.5,191.5C 150.5,186.167 150.5,180.833 150.5,175.5C 156.167,175.5 161.833,175.5 167.5,175.5 Z"/></g>
<g><path style="opacity:1" fill="#030200" d="M 262.5,128.5 C 262.833,128.5 263.167,128.5 263.5,128.5C 268.5,128.5 273.5,128.5 278.5,128.5C 278.5,133.833 278.5,139.167 278.5,144.5C 273.5,144.5 268.5,144.5 263.5,144.5C 263.5,154.833 263.5,165.167 263.5,175.5C 268.833,175.5 274.167,175.5 279.5,175.5C 279.5,180.833 279.5,186.167 279.5,191.5C 284.833,191.5 290.167,191.5 295.5,191.5C 295.5,196.833 295.5,202.167 295.5,207.5C 300.833,207.5 306.167,207.5 311.5,207.5C 311.5,213.167 311.5,218.833 311.5,224.5C 305.833,224.5 300.167,224.5 294.5,224.5C 294.5,219.167 294.5,213.833 294.5,208.5C 289.167,208.5 283.833,208.5 278.5,208.5C 278.5,203.167 278.5,197.833 278.5,192.5C 273.167,192.5 267.833,192.5 262.5,192.5C 262.5,187.167 262.5,181.833 262.5,176.5C 257.167,176.5 251.833,176.5 246.5,176.5C 246.5,171.167 246.5,165.833 246.5,160.5C 246.5,155.167 246.5,149.833 246.5,144.5C 251.833,144.5 257.167,144.5 262.5,144.5C 262.5,139.167 262.5,133.833 262.5,128.5 Z"/></g>
<g><path style="opacity:1" fill="#835d3e" d="M 247.5,192.5 C 252.5,192.5 257.5,192.5 262.5,192.5C 267.833,192.5 273.167,192.5 278.5,192.5C 278.5,197.833 278.5,203.167 278.5,208.5C 283.833,208.5 289.167,208.5 294.5,208.5C 294.5,213.833 294.5,219.167 294.5,224.5C 294.5,229.5 294.5,234.5 294.5,239.5C 289.5,239.5 284.5,239.5 279.5,239.5C 279.821,234.305 279.487,229.305 278.5,224.5C 273.695,223.513 268.695,223.179 263.5,223.5C 263.5,218.167 263.5,212.833 263.5,207.5C 258.167,207.5 252.833,207.5 247.5,207.5C 247.5,202.5 247.5,197.5 247.5,192.5 Z"/></g>
<g><path style="opacity:1" fill="#825d3d" d="M 118.5,207.5 C 123.64,208.488 128.974,208.821 134.5,208.5C 134.5,213.5 134.5,218.5 134.5,223.5C 124.167,223.5 113.833,223.5 103.5,223.5C 103.167,223.5 102.833,223.5 102.5,223.5C 102.5,218.167 102.5,212.833 102.5,207.5C 107.833,207.5 113.167,207.5 118.5,207.5 Z"/></g>
<g><path style="opacity:1" fill="#825d3d" d="M 182.5,208.5 C 182.5,213.5 182.5,218.5 182.5,223.5C 177.5,223.5 172.5,223.5 167.5,223.5C 167.5,218.5 167.5,213.5 167.5,208.5C 172.5,208.5 177.5,208.5 182.5,208.5 Z"/></g>
<g><path style="opacity:1" fill="#a1c763" d="M 183.5,208.5 C 188.5,208.5 193.5,208.5 198.5,208.5C 198.5,213.833 198.5,219.167 198.5,224.5C 203.833,224.5 209.167,224.5 214.5,224.5C 214.5,229.833 214.5,235.167 214.5,240.5C 220.167,240.5 225.833,240.5 231.5,240.5C 231.5,235.167 231.5,229.833 231.5,224.5C 236.833,224.5 242.167,224.5 247.5,224.5C 247.5,219.167 247.5,213.833 247.5,208.5C 252.5,208.5 257.5,208.5 262.5,208.5C 262.5,213.833 262.5,219.167 262.5,224.5C 267.833,224.5 273.167,224.5 278.5,224.5C 278.5,229.833 278.5,235.167 278.5,240.5C 283.833,240.5 289.167,240.5 294.5,240.5C 299.833,240.5 305.167,240.5 310.5,240.5C 310.5,251.167 310.5,261.833 310.5,272.5C 310.5,277.5 310.5,282.5 310.5,287.5C 315.833,287.5 321.167,287.5 326.5,287.5C 326.5,303.5 326.5,319.5 326.5,335.5C 326.5,340.833 326.5,346.167 326.5,351.5C 315.833,351.5 305.167,351.5 294.5,351.5C 294.5,356.833 294.5,362.167 294.5,367.5C 289.167,367.5 283.833,367.5 278.5,367.5C 278.5,351.833 278.5,336.167 278.5,320.5C 273.5,320.5 268.5,320.5 263.5,320.5C 263.5,319.833 263.167,319.5 262.5,319.5C 262.5,314.5 262.5,309.5 262.5,304.5C 257.5,304.5 252.5,304.5 247.5,304.5C 247.167,304.5 246.833,304.5 246.5,304.5C 236.013,303.506 225.346,303.172 214.5,303.5C 209.167,303.5 203.833,303.5 198.5,303.5C 198.5,308.833 198.5,314.167 198.5,319.5C 198.169,346.339 198.502,373.005 199.5,399.5C 199.5,404.833 199.5,410.167 199.5,415.5C 204.5,415.5 209.5,415.5 214.5,415.5C 214.833,415.5 215.167,415.5 215.5,415.5C 215.5,420.833 215.5,426.167 215.5,431.5C 209.833,431.5 204.167,431.5 198.5,431.5C 172.167,431.5 145.833,431.5 119.5,431.5C 119.5,436.833 119.5,442.167 119.5,447.5C 103.5,447.5 87.5,447.5 71.5,447.5C 66.1667,447.5 60.8333,447.5 55.5,447.5C 55.5,442.167 55.5,436.833 55.5,431.5C 55.5,426.167 55.5,420.833 55.5,415.5C 50.1667,415.5 44.8333,415.5 39.5,415.5C 39.5,410.167 39.5,404.833 39.5,399.5C 39.5,394.167 39.5,388.833 39.5,383.5C 34.1667,383.5 28.8333,383.5 23.5,383.5C 23.5,356.833 23.5,330.167 23.5,303.5C 28.8333,303.5 34.1667,303.5 39.5,303.5C 44.8333,303.5 50.1667,303.5 55.5,303.5C 55.5,308.833 55.5,314.167 55.5,319.5C 60.8333,319.5 66.1667,319.5 71.5,319.5C 71.5,319.833 71.5,320.167 71.5,320.5C 71.5,325.5 71.5,330.5 71.5,335.5C 71.5,340.833 71.5,346.167 71.5,351.5C 76.8333,351.5 82.1667,351.5 87.5,351.5C 87.5,346.167 87.5,340.833 87.5,335.5C 87.5,330.5 87.5,325.5 87.5,320.5C 92.8333,320.5 98.1667,320.5 103.5,320.5C 103.5,315.167 103.5,309.833 103.5,304.5C 108.833,304.5 114.167,304.5 119.5,304.5C 119.5,299.167 119.5,293.833 119.5,288.5C 124.64,287.512 129.974,287.179 135.5,287.5C 135.5,282.5 135.5,277.5 135.5,272.5C 140.511,272.666 145.511,272.499 150.5,272C 151.833,266.667 151.833,261.333 150.5,256C 145.511,255.501 140.511,255.334 135.5,255.5C 135.5,250.5 135.5,245.5 135.5,240.5C 140.833,240.5 146.167,240.5 151.5,240.5C 151.5,235.167 151.5,229.833 151.5,224.5C 162.167,224.5 172.833,224.5 183.5,224.5C 183.5,219.167 183.5,213.833 183.5,208.5 Z"/></g>
<g><path style="opacity:1" fill="#825d3d" d="M 199.5,208.5 C 204.5,208.5 209.5,208.5 214.5,208.5C 214.5,213.5 214.5,218.5 214.5,223.5C 209.5,223.5 204.5,223.5 199.5,223.5C 199.5,218.5 199.5,213.5 199.5,208.5 Z"/></g>
<g><path style="opacity:1" fill="#8d8049" d="M 247.5,208.5 C 247.5,208.167 247.5,207.833 247.5,207.5C 252.833,207.5 258.167,207.5 263.5,207.5C 263.5,212.833 263.5,218.167 263.5,223.5C 268.695,223.179 273.695,223.513 278.5,224.5C 273.167,224.5 267.833,224.5 262.5,224.5C 262.5,219.167 262.5,213.833 262.5,208.5C 257.5,208.5 252.5,208.5 247.5,208.5 Z"/></g>
<g><path style="opacity:1" fill="#83af38" d="M 102.5,223.5 C 102.833,223.5 103.167,223.5 103.5,223.5C 103.5,223.833 103.5,224.167 103.5,224.5C 103.5,229.5 103.5,234.5 103.5,239.5C 97.8333,239.5 92.1667,239.5 86.5,239.5C 86.5,244.833 86.5,250.167 86.5,255.5C 81.5,255.5 76.5,255.5 71.5,255.5C 71.8214,249.974 71.4881,244.64 70.5,239.5C 70.5,234.167 70.5,228.833 70.5,223.5C 81.1667,223.5 91.8333,223.5 102.5,223.5 Z"/></g>
<g><path style="opacity:1" fill="#928b4e" d="M 182.5,208.5 C 182.833,208.5 183.167,208.5 183.5,208.5C 183.5,213.833 183.5,219.167 183.5,224.5C 172.833,224.5 162.167,224.5 151.5,224.5C 156.64,223.512 161.974,223.179 167.5,223.5C 172.5,223.5 177.5,223.5 182.5,223.5C 182.5,218.5 182.5,213.5 182.5,208.5 Z"/></g>
<g><path style="opacity:1" fill="#8f894d" d="M 198.5,208.5 C 198.833,208.5 199.167,208.5 199.5,208.5C 199.5,213.5 199.5,218.5 199.5,223.5C 204.5,223.5 209.5,223.5 214.5,223.5C 214.5,223.833 214.5,224.167 214.5,224.5C 209.167,224.5 203.833,224.5 198.5,224.5C 198.5,219.167 198.5,213.833 198.5,208.5 Z"/></g>
<g><path style="opacity:1" fill="#a0c664" d="M 103.5,224.5 C 113.833,224.5 124.167,224.5 134.5,224.5C 134.5,229.833 134.5,235.167 134.5,240.5C 118.833,240.5 103.167,240.5 87.5,240.5C 87.5,245.833 87.5,251.167 87.5,256.5C 76.8333,256.5 66.1667,256.5 55.5,256.5C 60.6405,255.512 65.9738,255.179 71.5,255.5C 76.5,255.5 81.5,255.5 86.5,255.5C 86.5,250.167 86.5,244.833 86.5,239.5C 92.1667,239.5 97.8333,239.5 103.5,239.5C 103.5,234.5 103.5,229.5 103.5,224.5 Z"/></g>
<g><path style="opacity:1" fill="#1d4702" d="M 294.5,224.5 C 300.167,224.5 305.833,224.5 311.5,224.5C 311.5,229.5 311.5,234.5 311.5,239.5C 310.833,239.5 310.5,239.833 310.5,240.5C 305.167,240.5 299.833,240.5 294.5,240.5C 294.5,240.167 294.5,239.833 294.5,239.5C 294.5,234.5 294.5,229.5 294.5,224.5 Z"/></g>
<g><path style="opacity:1" fill="#989050" d="M 103.5,224.5 C 103.5,224.167 103.5,223.833 103.5,223.5C 113.833,223.5 124.167,223.5 134.5,223.5C 135.488,228.64 135.821,233.974 135.5,239.5C 140.5,239.5 145.5,239.5 150.5,239.5C 150.179,234.305 150.513,229.305 151.5,224.5C 151.5,229.833 151.5,235.167 151.5,240.5C 146.167,240.5 140.833,240.5 135.5,240.5C 135.167,240.5 134.833,240.5 134.5,240.5C 134.5,235.167 134.5,229.833 134.5,224.5C 124.167,224.5 113.833,224.5 103.5,224.5 Z"/></g>
<g><path style="opacity:1" fill="#9c9652" d="M 247.5,208.5 C 247.5,213.833 247.5,219.167 247.5,224.5C 242.167,224.5 236.833,224.5 231.5,224.5C 231.5,229.833 231.5,235.167 231.5,240.5C 225.833,240.5 220.167,240.5 214.5,240.5C 214.5,235.167 214.5,229.833 214.5,224.5C 215.487,229.305 215.821,234.305 215.5,239.5C 220.5,239.5 225.5,239.5 230.5,239.5C 230.5,234.167 230.5,228.833 230.5,223.5C 235.833,223.5 241.167,223.5 246.5,223.5C 246.179,218.305 246.513,213.305 247.5,208.5 Z"/></g>
<g><path style="opacity:1" fill="#8d7f48" d="M 278.5,224.5 C 279.487,229.305 279.821,234.305 279.5,239.5C 284.5,239.5 289.5,239.5 294.5,239.5C 294.5,239.833 294.5,240.167 294.5,240.5C 289.167,240.5 283.833,240.5 278.5,240.5C 278.5,235.167 278.5,229.833 278.5,224.5 Z"/></g>
<g><path style="opacity:1" fill="#000000" d="M 311.5,239.5 C 316.833,239.5 322.167,239.5 327.5,239.5C 327.5,250.167 327.5,260.833 327.5,271.5C 322.167,271.5 316.833,271.5 311.5,271.5C 311.5,260.833 311.5,250.167 311.5,239.5 Z"/></g>
<g><path style="opacity:1" fill="#b4d3a1" d="M 134.5,240.5 C 134.833,240.5 135.167,240.5 135.5,240.5C 135.5,245.5 135.5,250.5 135.5,255.5C 140.511,255.334 145.511,255.501 150.5,256C 151.833,261.333 151.833,266.667 150.5,272C 145.511,272.499 140.511,272.666 135.5,272.5C 135.5,277.5 135.5,282.5 135.5,287.5C 129.974,287.179 124.64,287.512 119.5,288.5C 118.513,293.305 118.179,298.305 118.5,303.5C 113.167,303.5 107.833,303.5 102.5,303.5C 102.5,308.833 102.5,314.167 102.5,319.5C 97.5,319.5 92.5,319.5 87.5,319.5C 82.1667,319.5 76.8333,319.5 71.5,319.5C 66.1667,319.5 60.8333,319.5 55.5,319.5C 55.5,314.167 55.5,308.833 55.5,303.5C 50.1667,303.5 44.8333,303.5 39.5,303.5C 39.5,298.167 39.5,292.833 39.5,287.5C 39.5,282.5 39.5,277.5 39.5,272.5C 44.8333,272.5 50.1667,272.5 55.5,272.5C 55.5,267.167 55.5,261.833 55.5,256.5C 66.1667,256.5 76.8333,256.5 87.5,256.5C 87.5,251.167 87.5,245.833 87.5,240.5C 103.167,240.5 118.833,240.5 134.5,240.5 Z"/></g>
<g><path style="opacity:1" fill="#263315" d="M 311.5,239.5 C 311.5,250.167 311.5,260.833 311.5,271.5C 316.833,271.5 322.167,271.5 327.5,271.5C 327.5,271.833 327.5,272.167 327.5,272.5C 321.833,272.5 316.167,272.5 310.5,272.5C 310.5,261.833 310.5,251.167 310.5,240.5C 310.5,239.833 310.833,239.5 311.5,239.5 Z"/></g>
<g><path style="opacity:1" fill="#587d1b" d="M 70.5,239.5 C 71.4881,244.64 71.8214,249.974 71.5,255.5C 65.9738,255.179 60.6405,255.512 55.5,256.5C 55.5,261.833 55.5,267.167 55.5,272.5C 50.1667,272.5 44.8333,272.5 39.5,272.5C 39.5,277.5 39.5,282.5 39.5,287.5C 33.8333,287.5 28.1667,287.5 22.5,287.5C 22.5,282.167 22.5,276.833 22.5,271.5C 27.8333,271.5 33.1667,271.5 38.5,271.5C 38.5,266.167 38.5,260.833 38.5,255.5C 43.8333,255.5 49.1667,255.5 54.5,255.5C 54.5,250.167 54.5,244.833 54.5,239.5C 59.8333,239.5 65.1667,239.5 70.5,239.5 Z"/></g>
<g><path style="opacity:1" fill="#587d19" d="M 310.5,272.5 C 316.167,272.5 321.833,272.5 327.5,272.5C 327.5,277.5 327.5,282.5 327.5,287.5C 327.167,287.5 326.833,287.5 326.5,287.5C 321.167,287.5 315.833,287.5 310.5,287.5C 310.5,282.5 310.5,277.5 310.5,272.5 Z"/></g>
<g><path style="opacity:1" fill="#010100" d="M 326.5,287.5 C 326.833,287.5 327.167,287.5 327.5,287.5C 332.833,287.5 338.167,287.5 343.5,287.5C 343.5,303.5 343.5,319.5 343.5,335.5C 337.833,335.5 332.167,335.5 326.5,335.5C 326.5,319.5 326.5,303.5 326.5,287.5 Z"/></g>
<g><path style="opacity:1" fill="#82ae38" d="M 22.5,287.5 C 28.1667,287.5 33.8333,287.5 39.5,287.5C 39.5,292.833 39.5,298.167 39.5,303.5C 34.1667,303.5 28.8333,303.5 23.5,303.5C 23.1667,303.5 22.8333,303.5 22.5,303.5C 22.5,298.167 22.5,292.833 22.5,287.5 Z"/></g>
<g><path style="opacity:1" fill="#577d19" d="M 22.5,303.5 C 22.8333,303.5 23.1667,303.5 23.5,303.5C 23.5,330.167 23.5,356.833 23.5,383.5C 23.5,384.167 23.1667,384.5 22.5,384.5C 17.5,384.5 12.5,384.5 7.5,384.5C 7.5,357.5 7.5,330.5 7.5,303.5C 12.5,303.5 17.5,303.5 22.5,303.5 Z"/></g>
<g><path style="opacity:1" fill="#add083" d="M 119.5,288.5 C 119.5,293.833 119.5,299.167 119.5,304.5C 114.167,304.5 108.833,304.5 103.5,304.5C 103.5,309.833 103.5,315.167 103.5,320.5C 98.1667,320.5 92.8333,320.5 87.5,320.5C 87.5,320.167 87.5,319.833 87.5,319.5C 92.5,319.5 97.5,319.5 102.5,319.5C 102.5,314.167 102.5,308.833 102.5,303.5C 107.833,303.5 113.167,303.5 118.5,303.5C 118.179,298.305 118.513,293.305 119.5,288.5 Z"/></g>
<g><path style="opacity:1" fill="#84b03a" d="M 214.5,303.5 C 214.5,308.833 214.5,314.167 214.5,319.5C 209.167,319.5 203.833,319.5 198.5,319.5C 198.5,314.167 198.5,308.833 198.5,303.5C 203.833,303.5 209.167,303.5 214.5,303.5 Z"/></g>
<g><path style="opacity:1" fill="#d9d93e" d="M 214.5,303.5 C 225.346,303.172 236.013,303.506 246.5,304.5C 246.5,309.833 246.5,315.167 246.5,320.5C 251.833,320.5 257.167,320.5 262.5,320.5C 262.5,346.833 262.5,373.167 262.5,399.5C 257.5,399.5 252.5,399.5 247.5,399.5C 247.831,377.993 247.497,356.66 246.5,335.5C 241.167,335.5 235.833,335.5 230.5,335.5C 225.167,335.5 219.833,335.5 214.5,335.5C 214.172,346.346 214.506,357.013 215.5,367.5C 215.5,372.833 215.5,378.167 215.5,383.5C 214.512,388.64 214.179,393.974 214.5,399.5C 209.5,399.5 204.5,399.5 199.5,399.5C 199.5,373.167 199.5,346.833 199.5,320.5C 204.695,320.821 209.695,320.487 214.5,319.5C 214.5,314.167 214.5,308.833 214.5,303.5 Z"/></g>
<g><path style="opacity:1" fill="#82af37" d="M 247.5,304.5 C 252.5,304.5 257.5,304.5 262.5,304.5C 262.5,309.5 262.5,314.5 262.5,319.5C 257.5,319.5 252.5,319.5 247.5,319.5C 247.5,314.5 247.5,309.5 247.5,304.5 Z"/></g>
<g><path style="opacity:1" fill="#1c4702" d="M 55.5,319.5 C 55.5,324.833 55.5,330.167 55.5,335.5C 50.1667,335.5 44.8333,335.5 39.5,335.5C 39.5,330.167 39.5,324.833 39.5,319.5C 44.8333,319.5 50.1667,319.5 55.5,319.5 Z"/></g>
<g><path style="opacity:1" fill="#194400" d="M 71.5,320.5 C 76.5,320.5 81.5,320.5 86.5,320.5C 86.5,325.5 86.5,330.5 86.5,335.5C 81.5,335.5 76.5,335.5 71.5,335.5C 71.5,330.5 71.5,325.5 71.5,320.5 Z"/></g>
<g><path style="opacity:1" fill="#476c26" d="M 71.5,320.5 C 71.5,320.167 71.5,319.833 71.5,319.5C 76.8333,319.5 82.1667,319.5 87.5,319.5C 87.5,319.833 87.5,320.167 87.5,320.5C 87.5,325.5 87.5,330.5 87.5,335.5C 87.1667,335.5 86.8333,335.5 86.5,335.5C 86.5,330.5 86.5,325.5 86.5,320.5C 81.5,320.5 76.5,320.5 71.5,320.5 Z"/></g>
<g><path style="opacity:1" fill="#bad24e" d="M 198.5,319.5 C 203.833,319.5 209.167,319.5 214.5,319.5C 209.695,320.487 204.695,320.821 199.5,320.5C 199.5,346.833 199.5,373.167 199.5,399.5C 198.502,373.005 198.169,346.339 198.5,319.5 Z"/></g>
<g><path style="opacity:1" fill="#a7c33d" d="M 246.5,304.5 C 246.833,304.5 247.167,304.5 247.5,304.5C 247.5,309.5 247.5,314.5 247.5,319.5C 252.5,319.5 257.5,319.5 262.5,319.5C 263.167,319.5 263.5,319.833 263.5,320.5C 263.5,341.5 263.5,362.5 263.5,383.5C 263.5,388.833 263.5,394.167 263.5,399.5C 263.167,399.5 262.833,399.5 262.5,399.5C 262.5,373.167 262.5,346.833 262.5,320.5C 257.167,320.5 251.833,320.5 246.5,320.5C 246.5,315.167 246.5,309.833 246.5,304.5 Z"/></g>
<g><path style="opacity:1" fill="#82af37" d="M 263.5,320.5 C 268.5,320.5 273.5,320.5 278.5,320.5C 278.5,336.167 278.5,351.833 278.5,367.5C 278.5,372.833 278.5,378.167 278.5,383.5C 273.5,383.5 268.5,383.5 263.5,383.5C 263.5,362.5 263.5,341.5 263.5,320.5 Z"/></g>
<g><path style="opacity:1" fill="#81ad37" d="M 39.5,335.5 C 44.8333,335.5 50.1667,335.5 55.5,335.5C 55.5,340.833 55.5,346.167 55.5,351.5C 50.1667,351.5 44.8333,351.5 39.5,351.5C 39.5,346.167 39.5,340.833 39.5,335.5 Z"/></g>
<g><path style="opacity:1" fill="#81ad37" d="M 71.5,335.5 C 76.5,335.5 81.5,335.5 86.5,335.5C 86.8333,335.5 87.1667,335.5 87.5,335.5C 87.5,340.833 87.5,346.167 87.5,351.5C 82.1667,351.5 76.8333,351.5 71.5,351.5C 71.5,346.167 71.5,340.833 71.5,335.5 Z"/></g>
<g><path style="opacity:1" fill="#5c5c1a" d="M 230.5,335.5 C 230.5,335.833 230.5,336.167 230.5,336.5C 225.5,336.5 220.5,336.5 215.5,336.5C 215.5,346.833 215.5,357.167 215.5,367.5C 214.506,357.013 214.172,346.346 214.5,335.5C 219.833,335.5 225.167,335.5 230.5,335.5 Z"/></g>
<g><path style="opacity:1" fill="#000000" d="M 230.5,336.5 C 230.5,346.833 230.5,357.167 230.5,367.5C 225.5,367.5 220.5,367.5 215.5,367.5C 215.5,357.167 215.5,346.833 215.5,336.5C 220.5,336.5 225.5,336.5 230.5,336.5 Z"/></g>
<g><path style="opacity:1" fill="#90653d" d="M 230.5,336.5 C 230.5,336.167 230.5,335.833 230.5,335.5C 235.833,335.5 241.167,335.5 246.5,335.5C 246.5,340.833 246.5,346.167 246.5,351.5C 241.5,351.5 236.5,351.5 231.5,351.5C 231.821,346.305 231.487,341.305 230.5,336.5 Z"/></g>
<g><path style="opacity:1" fill="#557b18" d="M 326.5,335.5 C 332.167,335.5 337.833,335.5 343.5,335.5C 343.5,340.833 343.5,346.167 343.5,351.5C 343.167,351.5 342.833,351.5 342.5,351.5C 337.167,351.5 331.833,351.5 326.5,351.5C 326.5,346.167 326.5,340.833 326.5,335.5 Z"/></g>
<g><path style="opacity:1" fill="#51381f" d="M 342.5,351.5 C 342.833,351.5 343.167,351.5 343.5,351.5C 353.833,351.5 364.167,351.5 374.5,351.5C 374.5,356.833 374.5,362.167 374.5,367.5C 369.167,367.5 363.833,367.5 358.5,367.5C 353.167,367.5 347.833,367.5 342.5,367.5C 342.5,362.167 342.5,356.833 342.5,351.5 Z"/></g>
<g><path style="opacity:1" fill="#50371e" d="M 230.5,336.5 C 231.487,341.305 231.821,346.305 231.5,351.5C 236.5,351.5 241.5,351.5 246.5,351.5C 246.5,362.167 246.5,372.833 246.5,383.5C 241.5,383.5 236.5,383.5 231.5,383.5C 231.821,377.974 231.488,372.64 230.5,367.5C 230.5,357.167 230.5,346.833 230.5,336.5 Z"/></g>
<g><path style="opacity:1" fill="#83af39" d="M 326.5,351.5 C 326.5,356.833 326.5,362.167 326.5,367.5C 315.833,367.5 305.167,367.5 294.5,367.5C 294.5,362.167 294.5,356.833 294.5,351.5C 305.167,351.5 315.833,351.5 326.5,351.5 Z"/></g>
<g><path style="opacity:1" fill="#aeb406" d="M 326.5,351.5 C 331.833,351.5 337.167,351.5 342.5,351.5C 342.5,356.833 342.5,362.167 342.5,367.5C 342.5,372.833 342.5,378.167 342.5,383.5C 337.167,383.5 331.833,383.5 326.5,383.5C 326.5,378.167 326.5,372.833 326.5,367.5C 326.5,362.167 326.5,356.833 326.5,351.5 Z"/></g>
<g><path style="opacity:1" fill="#50381e" d="M 374.5,367.5 C 385.167,367.5 395.833,367.5 406.5,367.5C 406.5,372.833 406.5,378.167 406.5,383.5C 395.833,383.5 385.167,383.5 374.5,383.5C 374.5,378.5 374.5,373.5 374.5,368.5C 374.5,368.167 374.5,367.833 374.5,367.5 Z"/></g>
<g><path style="opacity:1" fill="#dde9f6" d="M 215.5,367.5 C 220.5,367.5 225.5,367.5 230.5,367.5C 230.5,372.833 230.5,378.167 230.5,383.5C 225.5,383.5 220.5,383.5 215.5,383.5C 215.5,378.167 215.5,372.833 215.5,367.5 Z"/></g>
<g><path style="opacity:1" fill="#aeb508" d="M 278.5,367.5 C 283.833,367.5 289.167,367.5 294.5,367.5C 294.5,372.833 294.5,378.167 294.5,383.5C 289.167,383.5 283.833,383.5 278.5,383.5C 278.5,378.167 278.5,372.833 278.5,367.5 Z"/></g>
<g><path style="opacity:1" fill="#d9d93d" d="M 294.5,367.5 C 305.167,367.5 315.833,367.5 326.5,367.5C 326.5,372.833 326.5,378.167 326.5,383.5C 331.833,383.5 337.167,383.5 342.5,383.5C 342.5,394.167 342.5,404.833 342.5,415.5C 337.167,415.5 331.833,415.5 326.5,415.5C 326.5,420.833 326.5,426.167 326.5,431.5C 321.167,431.5 315.833,431.5 310.5,431.5C 310.5,436.833 310.5,442.167 310.5,447.5C 294.833,447.5 279.167,447.5 263.5,447.5C 263.5,452.833 263.5,458.167 263.5,463.5C 226.167,463.5 188.833,463.5 151.5,463.5C 151.5,458.167 151.5,452.833 151.5,447.5C 167.167,447.5 182.833,447.5 198.5,447.5C 204.167,447.5 209.833,447.5 215.5,447.5C 220.5,447.5 225.5,447.5 230.5,447.5C 230.5,442.167 230.5,436.833 230.5,431.5C 241.167,431.5 251.833,431.5 262.5,431.5C 262.5,426.167 262.5,420.833 262.5,415.5C 267.833,415.5 273.167,415.5 278.5,415.5C 278.5,410.167 278.5,404.833 278.5,399.5C 278.5,394.167 278.5,388.833 278.5,383.5C 283.833,383.5 289.167,383.5 294.5,383.5C 294.5,378.167 294.5,372.833 294.5,367.5 Z"/></g>
<g><path style="opacity:1" fill="#020100" d="M 342.5,367.5 C 347.833,367.5 353.167,367.5 358.5,367.5C 358.5,372.833 358.5,378.167 358.5,383.5C 353.167,383.5 347.833,383.5 342.5,383.5C 342.5,378.167 342.5,372.833 342.5,367.5 Z"/></g>
<g><path style="opacity:1" fill="#956a43" d="M 374.5,368.5 C 374.5,373.5 374.5,378.5 374.5,383.5C 369.5,383.5 364.5,383.5 359.5,383.5C 359.5,378.5 359.5,373.5 359.5,368.5C 364.5,368.5 369.5,368.5 374.5,368.5 Z"/></g>
<g><path style="opacity:1" fill="#835d3d" d="M 358.5,367.5 C 363.833,367.5 369.167,367.5 374.5,367.5C 374.5,367.833 374.5,368.167 374.5,368.5C 369.5,368.5 364.5,368.5 359.5,368.5C 359.5,373.5 359.5,378.5 359.5,383.5C 364.5,383.5 369.5,383.5 374.5,383.5C 374.5,388.833 374.5,394.167 374.5,399.5C 369.167,399.5 363.833,399.5 358.5,399.5C 358.5,394.167 358.5,388.833 358.5,383.5C 358.5,378.167 358.5,372.833 358.5,367.5 Z"/></g>
<g><path style="opacity:1" fill="#50381e" d="M 406.5,383.5 C 417.167,383.5 427.833,383.5 438.5,383.5C 438.5,388.833 438.5,394.167 438.5,399.5C 433.167,399.5 427.833,399.5 422.5,399.5C 417.167,399.5 411.833,399.5 406.5,399.5C 406.5,394.167 406.5,388.833 406.5,383.5 Z"/></g>
<g><path style="opacity:1" fill="#83af38" d="M 23.5,383.5 C 28.8333,383.5 34.1667,383.5 39.5,383.5C 39.5,388.833 39.5,394.167 39.5,399.5C 34.1667,399.5 28.8333,399.5 23.5,399.5C 23.1667,399.5 22.8333,399.5 22.5,399.5C 22.5,394.5 22.5,389.5 22.5,384.5C 23.1667,384.5 23.5,384.167 23.5,383.5 Z"/></g>
<g><path style="opacity:1" fill="#8b623f" d="M 230.5,367.5 C 231.488,372.64 231.821,377.974 231.5,383.5C 236.5,383.5 241.5,383.5 246.5,383.5C 246.5,388.833 246.5,394.167 246.5,399.5C 241.167,399.5 235.833,399.5 230.5,399.5C 230.5,394.167 230.5,388.833 230.5,383.5C 230.5,378.167 230.5,372.833 230.5,367.5 Z"/></g>
<g><path style="opacity:1" fill="#a1c863" d="M 263.5,383.5 C 268.5,383.5 273.5,383.5 278.5,383.5C 278.5,388.833 278.5,394.167 278.5,399.5C 273.5,399.5 268.5,399.5 263.5,399.5C 263.5,394.167 263.5,388.833 263.5,383.5 Z"/></g>
<g><path style="opacity:1" fill="#aeb406" d="M 342.5,383.5 C 347.833,383.5 353.167,383.5 358.5,383.5C 358.5,388.833 358.5,394.167 358.5,399.5C 358.5,410.167 358.5,420.833 358.5,431.5C 353.167,431.5 347.833,431.5 342.5,431.5C 342.5,436.833 342.5,442.167 342.5,447.5C 342.5,452.833 342.5,458.167 342.5,463.5C 337.167,463.5 331.833,463.5 326.5,463.5C 326.5,468.833 326.5,474.167 326.5,479.5C 315.833,479.5 305.167,479.5 294.5,479.5C 294.5,484.833 294.5,490.167 294.5,495.5C 284.167,495.5 273.833,495.5 263.5,495.5C 262.512,500.64 262.179,505.974 262.5,511.5C 246.833,511.5 231.167,511.5 215.5,511.5C 214.512,516.64 214.179,521.974 214.5,527.5C 193.5,527.5 172.5,527.5 151.5,527.5C 151.5,522.167 151.5,516.833 151.5,511.5C 146.167,511.5 140.833,511.5 135.5,511.5C 135.167,511.5 134.833,511.5 134.5,511.5C 118.833,511.5 103.167,511.5 87.5,511.5C 87.5,506.167 87.5,500.833 87.5,495.5C 98.1667,495.5 108.833,495.5 119.5,495.5C 119.5,490.167 119.5,484.833 119.5,479.5C 124.833,479.5 130.167,479.5 135.5,479.5C 135.5,474.167 135.5,468.833 135.5,463.5C 140.5,463.5 145.5,463.5 150.5,463.5C 150.833,463.5 151.167,463.5 151.5,463.5C 188.833,463.5 226.167,463.5 263.5,463.5C 263.5,458.167 263.5,452.833 263.5,447.5C 279.167,447.5 294.833,447.5 310.5,447.5C 310.5,442.167 310.5,436.833 310.5,431.5C 315.833,431.5 321.167,431.5 326.5,431.5C 326.5,426.167 326.5,420.833 326.5,415.5C 331.833,415.5 337.167,415.5 342.5,415.5C 342.5,404.833 342.5,394.167 342.5,383.5 Z"/></g>
<g><path style="opacity:1" fill="#956943" d="M 374.5,383.5 C 385.167,383.5 395.833,383.5 406.5,383.5C 406.5,388.833 406.5,394.167 406.5,399.5C 406.5,404.833 406.5,410.167 406.5,415.5C 411.833,415.5 417.167,415.5 422.5,415.5C 422.5,420.833 422.5,426.167 422.5,431.5C 422.5,436.833 422.5,442.167 422.5,447.5C 411.833,447.5 401.167,447.5 390.5,447.5C 385.167,447.5 379.833,447.5 374.5,447.5C 374.5,442.167 374.5,436.833 374.5,431.5C 374.5,420.833 374.5,410.167 374.5,399.5C 374.5,394.167 374.5,388.833 374.5,383.5 Z"/></g>
<g><path style="opacity:1" fill="#50381e" d="M 438.5,399.5 C 443.833,399.5 449.167,399.5 454.5,399.5C 454.5,404.833 454.5,410.167 454.5,415.5C 449.167,415.5 443.833,415.5 438.5,415.5C 438.5,410.167 438.5,404.833 438.5,399.5 Z"/></g>
<g><path style="opacity:1" fill="#1a4501" d="M 23.5,399.5 C 28.8333,399.5 34.1667,399.5 39.5,399.5C 39.5,404.833 39.5,410.167 39.5,415.5C 34.1667,415.5 28.8333,415.5 23.5,415.5C 23.5,410.167 23.5,404.833 23.5,399.5 Z"/></g>
<g><path style="opacity:1" fill="#83af38" d="M 199.5,399.5 C 204.5,399.5 209.5,399.5 214.5,399.5C 214.5,404.833 214.5,410.167 214.5,415.5C 209.5,415.5 204.5,415.5 199.5,415.5C 199.5,410.167 199.5,404.833 199.5,399.5 Z"/></g>
<g><path style="opacity:1" fill="#cfd03c" d="M 246.5,335.5 C 247.497,356.66 247.831,377.993 247.5,399.5C 247.5,404.833 247.5,410.167 247.5,415.5C 241.833,415.5 236.167,415.5 230.5,415.5C 225.5,415.5 220.5,415.5 215.5,415.5C 215.167,415.5 214.833,415.5 214.5,415.5C 214.5,410.167 214.5,404.833 214.5,399.5C 214.179,393.974 214.512,388.64 215.5,383.5C 215.5,388.833 215.5,394.167 215.5,399.5C 220.5,399.5 225.5,399.5 230.5,399.5C 235.833,399.5 241.167,399.5 246.5,399.5C 246.5,394.167 246.5,388.833 246.5,383.5C 246.5,372.833 246.5,362.167 246.5,351.5C 246.5,346.167 246.5,340.833 246.5,335.5 Z"/></g>
<g><path style="opacity:1" fill="#010101" d="M 215.5,383.5 C 220.5,383.5 225.5,383.5 230.5,383.5C 230.5,388.833 230.5,394.167 230.5,399.5C 225.5,399.5 220.5,399.5 215.5,399.5C 215.5,394.167 215.5,388.833 215.5,383.5 Z"/></g>
<g><path style="opacity:1" fill="#83af38" d="M 247.5,399.5 C 252.5,399.5 257.5,399.5 262.5,399.5C 262.5,404.833 262.5,410.167 262.5,415.5C 257.5,415.5 252.5,415.5 247.5,415.5C 247.5,410.167 247.5,404.833 247.5,399.5 Z"/></g>
<g><path style="opacity:1" fill="#1c4601" d="M 262.5,399.5 C 262.833,399.5 263.167,399.5 263.5,399.5C 268.5,399.5 273.5,399.5 278.5,399.5C 278.5,404.833 278.5,410.167 278.5,415.5C 273.167,415.5 267.833,415.5 262.5,415.5C 262.5,410.167 262.5,404.833 262.5,399.5 Z"/></g>
<g><path style="opacity:1" fill="#51391f" d="M 358.5,399.5 C 363.833,399.5 369.167,399.5 374.5,399.5C 374.5,410.167 374.5,420.833 374.5,431.5C 369.167,431.5 363.833,431.5 358.5,431.5C 358.5,420.833 358.5,410.167 358.5,399.5 Z"/></g>
<g><path style="opacity:1" fill="#010100" d="M 406.5,399.5 C 411.833,399.5 417.167,399.5 422.5,399.5C 422.5,404.833 422.5,410.167 422.5,415.5C 417.167,415.5 411.833,415.5 406.5,415.5C 406.5,410.167 406.5,404.833 406.5,399.5 Z"/></g>
<g><path style="opacity:1" fill="#956943" d="M 422.5,399.5 C 427.833,399.5 433.167,399.5 438.5,399.5C 438.5,404.833 438.5,410.167 438.5,415.5C 433.167,415.5 427.833,415.5 422.5,415.5C 422.5,410.167 422.5,404.833 422.5,399.5 Z"/></g>
<g><path style="opacity:1" fill="#d8d83d" d="M 23.5,415.5 C 28.8333,415.5 34.1667,415.5 39.5,415.5C 39.5,420.833 39.5,426.167 39.5,431.5C 39.5,436.833 39.5,442.167 39.5,447.5C 34.1667,447.5 28.8333,447.5 23.5,447.5C 23.5,436.833 23.5,426.167 23.5,415.5 Z"/></g>
<g><path style="opacity:1" fill="#83af38" d="M 39.5,415.5 C 44.8333,415.5 50.1667,415.5 55.5,415.5C 55.5,420.833 55.5,426.167 55.5,431.5C 50.1667,431.5 44.8333,431.5 39.5,431.5C 39.5,426.167 39.5,420.833 39.5,415.5 Z"/></g>
<g><path style="opacity:1" fill="#83af38" d="M 215.5,415.5 C 220.5,415.5 225.5,415.5 230.5,415.5C 230.5,420.833 230.5,426.167 230.5,431.5C 225.5,431.5 220.5,431.5 215.5,431.5C 215.5,426.167 215.5,420.833 215.5,415.5 Z"/></g>
<g><path style="opacity:1" fill="#1a4500" d="M 230.5,415.5 C 236.167,415.5 241.833,415.5 247.5,415.5C 252.5,415.5 257.5,415.5 262.5,415.5C 262.5,420.833 262.5,426.167 262.5,431.5C 251.833,431.5 241.167,431.5 230.5,431.5C 230.5,426.167 230.5,420.833 230.5,415.5 Z"/></g>
<g><path style="opacity:1" fill="#020100" d="M 422.5,415.5 C 427.833,415.5 433.167,415.5 438.5,415.5C 438.5,420.833 438.5,426.167 438.5,431.5C 433.167,431.5 427.833,431.5 422.5,431.5C 422.5,426.167 422.5,420.833 422.5,415.5 Z"/></g>
<g><path style="opacity:1" fill="#956943" d="M 438.5,415.5 C 443.833,415.5 449.167,415.5 454.5,415.5C 454.5,420.833 454.5,426.167 454.5,431.5C 449.167,431.5 443.833,431.5 438.5,431.5C 438.5,426.167 438.5,420.833 438.5,415.5 Z"/></g>
<g><path style="opacity:1" fill="#1a4500" d="M 39.5,431.5 C 44.8333,431.5 50.1667,431.5 55.5,431.5C 55.5,436.833 55.5,442.167 55.5,447.5C 50.1667,447.5 44.8333,447.5 39.5,447.5C 39.5,442.167 39.5,436.833 39.5,431.5 Z"/></g>
<g><path style="opacity:1" fill="#82ae37" d="M 198.5,431.5 C 198.5,436.833 198.5,442.167 198.5,447.5C 182.833,447.5 167.167,447.5 151.5,447.5C 151.5,452.833 151.5,458.167 151.5,463.5C 151.167,463.5 150.833,463.5 150.5,463.5C 150.5,458.167 150.5,452.833 150.5,447.5C 145.5,447.5 140.5,447.5 135.5,447.5C 135.5,452.833 135.5,458.167 135.5,463.5C 130.167,463.5 124.833,463.5 119.5,463.5C 119.5,468.833 119.5,474.167 119.5,479.5C 108.833,479.5 98.1667,479.5 87.5,479.5C 87.5,474.167 87.5,468.833 87.5,463.5C 82.1667,463.5 76.8333,463.5 71.5,463.5C 71.5,458.167 71.5,452.833 71.5,447.5C 87.5,447.5 103.5,447.5 119.5,447.5C 119.5,442.167 119.5,436.833 119.5,431.5C 145.833,431.5 172.167,431.5 198.5,431.5 Z"/></g>
<g><path style="opacity:1" fill="#1f4703" d="M 198.5,431.5 C 204.167,431.5 209.833,431.5 215.5,431.5C 215.5,436.833 215.5,442.167 215.5,447.5C 209.833,447.5 204.167,447.5 198.5,447.5C 198.5,442.167 198.5,436.833 198.5,431.5 Z"/></g>
<g><path style="opacity:1" fill="#8e643d" d="M 215.5,431.5 C 220.5,431.5 225.5,431.5 230.5,431.5C 230.5,436.833 230.5,442.167 230.5,447.5C 225.5,447.5 220.5,447.5 215.5,447.5C 215.5,442.167 215.5,436.833 215.5,431.5 Z"/></g>
<g><path style="opacity:1" fill="#51391f" d="M 358.5,431.5 C 358.5,436.833 358.5,442.167 358.5,447.5C 353.167,447.5 347.833,447.5 342.5,447.5C 342.5,442.167 342.5,436.833 342.5,431.5C 347.833,431.5 353.167,431.5 358.5,431.5 Z"/></g>
<g><path style="opacity:1" fill="#000000" d="M 358.5,431.5 C 363.833,431.5 369.167,431.5 374.5,431.5C 374.5,436.833 374.5,442.167 374.5,447.5C 374.5,452.833 374.5,458.167 374.5,463.5C 379.833,463.5 385.167,463.5 390.5,463.5C 395.833,463.5 401.167,463.5 406.5,463.5C 406.5,468.833 406.5,474.167 406.5,479.5C 411.833,479.5 417.167,479.5 422.5,479.5C 427.833,479.5 433.167,479.5 438.5,479.5C 438.5,468.833 438.5,458.167 438.5,447.5C 438.5,442.167 438.5,436.833 438.5,431.5C 443.833,431.5 449.167,431.5 454.5,431.5C 454.5,442.167 454.5,452.833 454.5,463.5C 454.5,468.833 454.5,474.167 454.5,479.5C 459.833,479.5 465.167,479.5 470.5,479.5C 470.5,463.5 470.5,447.5 470.5,431.5C 475.833,431.5 481.167,431.5 486.5,431.5C 486.5,441.833 486.5,452.167 486.5,462.5C 491.833,462.5 497.167,462.5 502.5,462.5C 502.5,473.5 502.5,484.5 502.5,495.5C 497.167,495.5 491.833,495.5 486.5,495.5C 481.167,495.5 475.833,495.5 470.5,495.5C 469.513,500.305 469.179,505.305 469.5,510.5C 453.833,510.5 438.167,510.5 422.5,510.5C 422.5,505.5 422.5,500.5 422.5,495.5C 417.167,495.5 411.833,495.5 406.5,495.5C 395.833,495.5 385.167,495.5 374.5,495.5C 374.5,490.167 374.5,484.833 374.5,479.5C 369.167,479.5 363.833,479.5 358.5,479.5C 353.167,479.5 347.833,479.5 342.5,479.5C 342.5,474.167 342.5,468.833 342.5,463.5C 342.5,458.167 342.5,452.833 342.5,447.5C 347.833,447.5 353.167,447.5 358.5,447.5C 358.5,442.167 358.5,436.833 358.5,431.5 Z"/></g>
<g><path style="opacity:1" fill="#50371e" d="M 422.5,431.5 C 427.833,431.5 433.167,431.5 438.5,431.5C 438.5,436.833 438.5,442.167 438.5,447.5C 433.167,447.5 427.833,447.5 422.5,447.5C 422.5,442.167 422.5,436.833 422.5,431.5 Z"/></g>
<g><path style="opacity:1" fill="#825c3d" d="M 454.5,431.5 C 459.5,431.5 464.5,431.5 469.5,431.5C 469.5,442.167 469.5,452.833 469.5,463.5C 464.5,463.5 459.5,463.5 454.5,463.5C 454.5,452.833 454.5,442.167 454.5,431.5 Z"/></g>
<g><path style="opacity:1" fill="#aeb405" d="M 39.5,447.5 C 44.8333,447.5 50.1667,447.5 55.5,447.5C 55.5,452.833 55.5,458.167 55.5,463.5C 60.8333,463.5 66.1667,463.5 71.5,463.5C 76.8333,463.5 82.1667,463.5 87.5,463.5C 87.5,468.833 87.5,474.167 87.5,479.5C 87.5,484.833 87.5,490.167 87.5,495.5C 76.8333,495.5 66.1667,495.5 55.5,495.5C 55.5,490.167 55.5,484.833 55.5,479.5C 50.1667,479.5 44.8333,479.5 39.5,479.5C 39.5,468.833 39.5,458.167 39.5,447.5 Z"/></g>
<g><path style="opacity:1" fill="#1a4500" d="M 55.5,447.5 C 60.8333,447.5 66.1667,447.5 71.5,447.5C 71.5,452.833 71.5,458.167 71.5,463.5C 66.1667,463.5 60.8333,463.5 55.5,463.5C 55.5,458.167 55.5,452.833 55.5,447.5 Z"/></g>
<g><path style="opacity:1" fill="#577d19" d="M 150.5,463.5 C 145.5,463.5 140.5,463.5 135.5,463.5C 135.5,458.167 135.5,452.833 135.5,447.5C 140.5,447.5 145.5,447.5 150.5,447.5C 150.5,452.833 150.5,458.167 150.5,463.5 Z"/></g>
<g><path style="opacity:1" fill="#50371f" d="M 374.5,447.5 C 379.833,447.5 385.167,447.5 390.5,447.5C 390.5,452.833 390.5,458.167 390.5,463.5C 385.167,463.5 379.833,463.5 374.5,463.5C 374.5,458.167 374.5,452.833 374.5,447.5 Z"/></g>
<g><path style="opacity:1" fill="#815c3d" d="M 390.5,447.5 C 401.167,447.5 411.833,447.5 422.5,447.5C 427.833,447.5 433.167,447.5 438.5,447.5C 438.5,458.167 438.5,468.833 438.5,479.5C 433.167,479.5 427.833,479.5 422.5,479.5C 417.167,479.5 411.833,479.5 406.5,479.5C 406.5,474.167 406.5,468.833 406.5,463.5C 401.167,463.5 395.833,463.5 390.5,463.5C 390.5,458.167 390.5,452.833 390.5,447.5 Z"/></g>
<g><path style="opacity:1" fill="#1b4500" d="M 71.5,463.5 C 76.8333,463.5 82.1667,463.5 87.5,463.5C 87.5,468.833 87.5,474.167 87.5,479.5C 82.1667,479.5 76.8333,479.5 71.5,479.5C 71.5,474.167 71.5,468.833 71.5,463.5 Z"/></g>
<g><path style="opacity:1" fill="#587e18" d="M 135.5,463.5 C 135.5,468.833 135.5,474.167 135.5,479.5C 130.167,479.5 124.833,479.5 119.5,479.5C 119.5,474.167 119.5,468.833 119.5,463.5C 124.833,463.5 130.167,463.5 135.5,463.5 Z"/></g>
<g><path style="opacity:1" fill="#51391f" d="M 342.5,463.5 C 342.5,468.833 342.5,474.167 342.5,479.5C 337.167,479.5 331.833,479.5 326.5,479.5C 326.5,474.167 326.5,468.833 326.5,463.5C 331.833,463.5 337.167,463.5 342.5,463.5 Z"/></g>
<g><path style="opacity:1" fill="#50371f" d="M 406.5,463.5 C 411.833,463.5 417.167,463.5 422.5,463.5C 422.5,468.833 422.5,474.167 422.5,479.5C 422.5,474.167 422.5,468.833 422.5,463.5C 417.167,463.5 411.833,463.5 406.5,463.5 Z"/></g>
<g><path style="opacity:1" fill="#50371f" d="M 454.5,415.5 C 459.833,415.5 465.167,415.5 470.5,415.5C 470.5,420.833 470.5,426.167 470.5,431.5C 470.5,447.5 470.5,463.5 470.5,479.5C 465.167,479.5 459.833,479.5 454.5,479.5C 454.5,474.167 454.5,468.833 454.5,463.5C 459.5,463.5 464.5,463.5 469.5,463.5C 469.5,452.833 469.5,442.167 469.5,431.5C 464.5,431.5 459.5,431.5 454.5,431.5C 454.5,426.167 454.5,420.833 454.5,415.5 Z"/></g>
<g><path style="opacity:1" fill="#577d18" d="M 87.5,479.5 C 98.1667,479.5 108.833,479.5 119.5,479.5C 119.5,484.833 119.5,490.167 119.5,495.5C 108.833,495.5 98.1667,495.5 87.5,495.5C 87.5,490.167 87.5,484.833 87.5,479.5 Z"/></g>
<g><path style="opacity:1" fill="#51391f" d="M 326.5,479.5 C 326.5,484.833 326.5,490.167 326.5,495.5C 316.167,495.5 305.833,495.5 295.5,495.5C 295.167,495.5 294.833,495.5 294.5,495.5C 294.5,490.167 294.5,484.833 294.5,479.5C 305.167,479.5 315.833,479.5 326.5,479.5 Z"/></g>
<g><path style="opacity:1" fill="#82ae37" d="M 326.5,479.5 C 331.833,479.5 337.167,479.5 342.5,479.5C 347.833,479.5 353.167,479.5 358.5,479.5C 363.833,479.5 369.167,479.5 374.5,479.5C 374.5,484.833 374.5,490.167 374.5,495.5C 385.167,495.5 395.833,495.5 406.5,495.5C 406.5,500.833 406.5,506.167 406.5,511.5C 411.833,511.5 417.167,511.5 422.5,511.5C 433.167,511.5 443.833,511.5 454.5,511.5C 454.5,516.833 454.5,522.167 454.5,527.5C 459.833,527.5 465.167,527.5 470.5,527.5C 470.5,522.167 470.5,516.833 470.5,511.5C 470.5,506.167 470.5,500.833 470.5,495.5C 475.833,495.5 481.167,495.5 486.5,495.5C 486.5,500.833 486.5,506.167 486.5,511.5C 486.5,516.833 486.5,522.167 486.5,527.5C 491.5,527.5 496.5,527.5 501.5,527.5C 501.5,553.833 501.5,580.167 501.5,606.5C 496.5,606.5 491.5,606.5 486.5,606.5C 486.5,601.167 486.5,595.833 486.5,590.5C 475.833,590.5 465.167,590.5 454.5,590.5C 454.5,595.833 454.5,601.167 454.5,606.5C 449.167,606.5 443.833,606.5 438.5,606.5C 438.5,601.5 438.5,596.5 438.5,591.5C 433.36,590.512 428.026,590.179 422.5,590.5C 422.5,585.5 422.5,580.5 422.5,575.5C 411.833,575.5 401.167,575.5 390.5,575.5C 390.5,570.167 390.5,564.833 390.5,559.5C 390.5,554.167 390.5,548.833 390.5,543.5C 385.167,543.5 379.833,543.5 374.5,543.5C 374.5,538.167 374.5,532.833 374.5,527.5C 369.167,527.5 363.833,527.5 358.5,527.5C 358.5,522.167 358.5,516.833 358.5,511.5C 347.833,511.5 337.167,511.5 326.5,511.5C 326.5,516.833 326.5,522.167 326.5,527.5C 321.167,527.5 315.833,527.5 310.5,527.5C 310.5,522.167 310.5,516.833 310.5,511.5C 305.5,511.5 300.5,511.5 295.5,511.5C 295.5,506.167 295.5,500.833 295.5,495.5C 305.833,495.5 316.167,495.5 326.5,495.5C 326.5,490.167 326.5,484.833 326.5,479.5 Z"/></g>
<g><path style="opacity:1" fill="#577d19" d="M 358.5,479.5 C 363.833,479.5 369.167,479.5 374.5,479.5C 374.5,484.833 374.5,490.167 374.5,495.5C 369.167,495.5 363.833,495.5 358.5,495.5C 358.5,490.167 358.5,484.833 358.5,479.5 Z"/></g>
<g><path style="opacity:1" fill="#51381f" d="M 22.5,399.5 C 22.8333,399.5 23.1667,399.5 23.5,399.5C 23.5,404.833 23.5,410.167 23.5,415.5C 23.5,426.167 23.5,436.833 23.5,447.5C 28.8333,447.5 34.1667,447.5 39.5,447.5C 39.5,458.167 39.5,468.833 39.5,479.5C 44.8333,479.5 50.1667,479.5 55.5,479.5C 55.5,484.833 55.5,490.167 55.5,495.5C 66.1667,495.5 76.8333,495.5 87.5,495.5C 87.5,500.833 87.5,506.167 87.5,511.5C 103.167,511.5 118.833,511.5 134.5,511.5C 134.5,516.833 134.5,522.167 134.5,527.5C 118.5,527.5 102.5,527.5 86.5,527.5C 86.5,522.167 86.5,516.833 86.5,511.5C 75.8333,511.5 65.1667,511.5 54.5,511.5C 54.5,506.167 54.5,500.833 54.5,495.5C 49.1667,495.5 43.8333,495.5 38.5,495.5C 38.5,490.167 38.5,484.833 38.5,479.5C 33.1667,479.5 27.8333,479.5 22.5,479.5C 22.5,468.833 22.5,458.167 22.5,447.5C 17.5,447.5 12.5,447.5 7.5,447.5C 7.5,431.5 7.5,415.5 7.5,399.5C 12.5,399.5 17.5,399.5 22.5,399.5 Z"/></g>
<g><path style="opacity:1" fill="#50381e" d="M 263.5,495.5 C 273.833,495.5 284.167,495.5 294.5,495.5C 294.5,500.5 294.5,505.5 294.5,510.5C 284.167,510.5 273.833,510.5 263.5,510.5C 263.5,505.5 263.5,500.5 263.5,495.5 Z"/></g>
<g><path style="opacity:1" fill="#567c18" d="M 406.5,495.5 C 411.833,495.5 417.167,495.5 422.5,495.5C 422.5,500.5 422.5,505.5 422.5,510.5C 422.5,510.833 422.5,511.167 422.5,511.5C 417.167,511.5 411.833,511.5 406.5,511.5C 406.5,506.167 406.5,500.833 406.5,495.5 Z"/></g>
<g><path style="opacity:1" fill="#194400" d="M 486.5,495.5 C 491.833,495.5 497.167,495.5 502.5,495.5C 502.5,500.833 502.5,506.167 502.5,511.5C 497.167,511.5 491.833,511.5 486.5,511.5C 486.5,506.167 486.5,500.833 486.5,495.5 Z"/></g>
<g><path style="opacity:1" fill="#192307" d="M 470.5,495.5 C 470.5,500.833 470.5,506.167 470.5,511.5C 465.167,511.5 459.833,511.5 454.5,511.5C 443.833,511.5 433.167,511.5 422.5,511.5C 422.5,511.167 422.5,510.833 422.5,510.5C 438.167,510.5 453.833,510.5 469.5,510.5C 469.179,505.305 469.513,500.305 470.5,495.5 Z"/></g>
<g><path style="opacity:1" fill="#587e18" d="M 135.5,511.5 C 140.833,511.5 146.167,511.5 151.5,511.5C 151.5,516.833 151.5,522.167 151.5,527.5C 151.167,527.5 150.833,527.5 150.5,527.5C 145.695,526.513 140.695,526.179 135.5,526.5C 135.5,521.5 135.5,516.5 135.5,511.5 Z"/></g>
<g><path style="opacity:1" fill="#82ae37" d="M 294.5,511.5 C 294.334,521.839 294.5,532.172 295,542.5C 300.072,543.471 305.238,543.805 310.5,543.5C 310.5,548.833 310.5,554.167 310.5,559.5C 305.167,559.5 299.833,559.5 294.5,559.5C 294.5,554.167 294.5,548.833 294.5,543.5C 289.167,543.5 283.833,543.5 278.5,543.5C 278.5,559.167 278.5,574.833 278.5,590.5C 267.833,590.5 257.167,590.5 246.5,590.5C 246.5,585.167 246.5,579.833 246.5,574.5C 235.986,574.172 225.653,574.506 215.5,575.5C 215.167,575.5 214.833,575.5 214.5,575.5C 209.5,575.5 204.5,575.5 199.5,575.5C 199.821,569.974 199.488,564.64 198.5,559.5C 193.695,558.513 188.695,558.179 183.5,558.5C 183.5,553.5 183.5,548.5 183.5,543.5C 194.167,543.5 204.833,543.5 215.5,543.5C 215.5,538.167 215.5,532.833 215.5,527.5C 231.5,527.5 247.5,527.5 263.5,527.5C 263.5,522.167 263.5,516.833 263.5,511.5C 273.833,511.5 284.167,511.5 294.5,511.5 Z"/></g>
<g><path style="opacity:1" fill="#587e1a" d="M 294.5,495.5 C 294.833,495.5 295.167,495.5 295.5,495.5C 295.5,500.833 295.5,506.167 295.5,511.5C 300.5,511.5 305.5,511.5 310.5,511.5C 310.5,516.833 310.5,522.167 310.5,527.5C 310.5,532.833 310.5,538.167 310.5,543.5C 305.238,543.805 300.072,543.471 295,542.5C 294.5,532.172 294.334,521.839 294.5,511.5C 294.5,511.167 294.5,510.833 294.5,510.5C 294.5,505.5 294.5,500.5 294.5,495.5 Z"/></g>
<g><path style="opacity:1" fill="#a1c763" d="M 374.5,543.5 C 374.5,548.833 374.5,554.167 374.5,559.5C 374.5,564.833 374.5,570.167 374.5,575.5C 374.5,580.5 374.5,585.5 374.5,590.5C 369.167,590.5 363.833,590.5 358.5,590.5C 358.5,595.833 358.5,601.167 358.5,606.5C 353.167,606.5 347.833,606.5 342.5,606.5C 337.5,606.5 332.5,606.5 327.5,606.5C 327.821,600.974 327.488,595.64 326.5,590.5C 321.167,590.5 315.833,590.5 310.5,590.5C 310.5,596.167 310.5,601.833 310.5,607.5C 305.167,607.5 299.833,607.5 294.5,607.5C 294.5,602.167 294.5,596.833 294.5,591.5C 294.5,580.833 294.5,570.167 294.5,559.5C 299.833,559.5 305.167,559.5 310.5,559.5C 310.5,554.167 310.5,548.833 310.5,543.5C 310.5,538.167 310.5,532.833 310.5,527.5C 315.833,527.5 321.167,527.5 326.5,527.5C 326.5,522.167 326.5,516.833 326.5,511.5C 337.167,511.5 347.833,511.5 358.5,511.5C 358.5,516.833 358.5,522.167 358.5,527.5C 363.833,527.5 369.167,527.5 374.5,527.5C 374.5,532.833 374.5,538.167 374.5,543.5 Z"/></g>
<g><path style="opacity:1" fill="#577d19" d="M 454.5,511.5 C 459.833,511.5 465.167,511.5 470.5,511.5C 470.5,516.833 470.5,522.167 470.5,527.5C 465.167,527.5 459.833,527.5 454.5,527.5C 454.5,522.167 454.5,516.833 454.5,511.5 Z"/></g>
<g><path style="opacity:1" fill="#5b7a1a" d="M 486.5,511.5 C 491.833,511.5 497.167,511.5 502.5,511.5C 502.5,516.5 502.5,521.5 502.5,526.5C 502.5,537.5 502.5,548.5 502.5,559.5C 502.5,580.833 502.5,602.167 502.5,623.5C 497.167,623.5 491.833,623.5 486.5,623.5C 475.833,623.5 465.167,623.5 454.5,623.5C 448.974,623.821 443.64,623.488 438.5,622.5C 459.5,622.5 480.5,622.5 501.5,622.5C 501.5,617.167 501.5,611.833 501.5,606.5C 501.5,580.167 501.5,553.833 501.5,527.5C 496.5,527.5 491.5,527.5 486.5,527.5C 486.5,522.167 486.5,516.833 486.5,511.5 Z"/></g>
<g><path style="opacity:1" fill="#55611b" d="M 134.5,511.5 C 134.833,511.5 135.167,511.5 135.5,511.5C 135.5,516.5 135.5,521.5 135.5,526.5C 140.695,526.179 145.695,526.513 150.5,527.5C 145.167,527.5 139.833,527.5 134.5,527.5C 134.5,522.167 134.5,516.833 134.5,511.5 Z"/></g>
<g><path style="opacity:1" fill="#184300" d="M 502.5,526.5 C 507.833,526.5 513.167,526.5 518.5,526.5C 518.5,537.5 518.5,548.5 518.5,559.5C 513.167,559.5 507.833,559.5 502.5,559.5C 502.5,548.5 502.5,537.5 502.5,526.5 Z"/></g>
<g><path style="opacity:1" fill="#51381e" d="M 134.5,527.5 C 139.833,527.5 145.167,527.5 150.5,527.5C 150.833,527.5 151.167,527.5 151.5,527.5C 172.5,527.5 193.5,527.5 214.5,527.5C 214.5,532.5 214.5,537.5 214.5,542.5C 187.833,542.5 161.167,542.5 134.5,542.5C 134.5,537.5 134.5,532.5 134.5,527.5 Z"/></g>
<g><path style="opacity:1" fill="#646226" d="M 263.5,495.5 C 263.5,500.5 263.5,505.5 263.5,510.5C 273.833,510.5 284.167,510.5 294.5,510.5C 294.5,510.833 294.5,511.167 294.5,511.5C 284.167,511.5 273.833,511.5 263.5,511.5C 263.5,516.833 263.5,522.167 263.5,527.5C 247.5,527.5 231.5,527.5 215.5,527.5C 215.5,532.833 215.5,538.167 215.5,543.5C 204.833,543.5 194.167,543.5 183.5,543.5C 178.167,543.5 172.833,543.5 167.5,543.5C 162.167,543.5 156.833,543.5 151.5,543.5C 145.833,543.5 140.167,543.5 134.5,543.5C 134.5,543.167 134.5,542.833 134.5,542.5C 161.167,542.5 187.833,542.5 214.5,542.5C 214.5,537.5 214.5,532.5 214.5,527.5C 214.179,521.974 214.512,516.64 215.5,511.5C 215.5,516.5 215.5,521.5 215.5,526.5C 231.167,526.5 246.833,526.5 262.5,526.5C 262.5,521.5 262.5,516.5 262.5,511.5C 262.179,505.974 262.512,500.64 263.5,495.5 Z"/></g>
<g><path style="opacity:1" fill="#50381e" d="M 215.5,511.5 C 231.167,511.5 246.833,511.5 262.5,511.5C 262.5,516.5 262.5,521.5 262.5,526.5C 246.833,526.5 231.167,526.5 215.5,526.5C 215.5,521.5 215.5,516.5 215.5,511.5 Z"/></g>
<g><path style="opacity:1" fill="#577d1c" d="M 134.5,543.5 C 140.167,543.5 145.833,543.5 151.5,543.5C 151.5,548.833 151.5,554.167 151.5,559.5C 146.167,559.5 140.833,559.5 135.5,559.5C 135.5,575.167 135.5,590.833 135.5,606.5C 135.5,606.833 135.5,607.167 135.5,607.5C 135.167,607.5 134.833,607.5 134.5,607.5C 134.5,591.167 134.5,574.833 134.5,558.5C 134.5,553.5 134.5,548.5 134.5,543.5 Z"/></g>
<g><path style="opacity:1" fill="#82ae37" d="M 151.5,543.5 C 156.833,543.5 162.167,543.5 167.5,543.5C 167.5,548.833 167.5,554.167 167.5,559.5C 172.5,559.5 177.5,559.5 182.5,559.5C 182.5,564.833 182.5,570.167 182.5,575.5C 188.167,575.5 193.833,575.5 199.5,575.5C 199.5,580.5 199.5,585.5 199.5,590.5C 204.5,590.5 209.5,590.5 214.5,590.5C 214.5,595.833 214.5,601.167 214.5,606.5C 209.167,606.5 203.833,606.5 198.5,606.5C 198.5,611.833 198.5,617.167 198.5,622.5C 193.5,622.5 188.5,622.5 183.5,622.5C 183.5,617.167 183.5,611.833 183.5,606.5C 177.833,606.5 172.167,606.5 166.5,606.5C 166.5,601.5 166.5,596.5 166.5,591.5C 161.5,591.5 156.5,591.5 151.5,591.5C 151.5,580.833 151.5,570.167 151.5,559.5C 151.5,554.167 151.5,548.833 151.5,543.5 Z"/></g>
<g><path style="opacity:1" fill="#567d1b" d="M 167.5,543.5 C 172.833,543.5 178.167,543.5 183.5,543.5C 183.5,548.5 183.5,553.5 183.5,558.5C 188.695,558.179 193.695,558.513 198.5,559.5C 199.488,564.64 199.821,569.974 199.5,575.5C 193.833,575.5 188.167,575.5 182.5,575.5C 182.5,570.167 182.5,564.833 182.5,559.5C 177.5,559.5 172.5,559.5 167.5,559.5C 167.5,554.167 167.5,548.833 167.5,543.5 Z"/></g>
<g><path style="opacity:1" fill="#577e1a" d="M 294.5,559.5 C 294.5,570.167 294.5,580.833 294.5,591.5C 289.5,591.5 284.5,591.5 279.5,591.5C 279.821,596.695 279.487,601.695 278.5,606.5C 278.5,601.5 278.5,596.5 278.5,591.5C 267.833,591.5 257.167,591.5 246.5,591.5C 246.5,591.167 246.5,590.833 246.5,590.5C 257.167,590.5 267.833,590.5 278.5,590.5C 278.5,574.833 278.5,559.167 278.5,543.5C 283.833,543.5 289.167,543.5 294.5,543.5C 294.5,548.833 294.5,554.167 294.5,559.5 Z"/></g>
<g><path style="opacity:1" fill="#557b18" d="M 374.5,543.5 C 379.833,543.5 385.167,543.5 390.5,543.5C 390.5,548.833 390.5,554.167 390.5,559.5C 385.167,559.5 379.833,559.5 374.5,559.5C 374.5,554.167 374.5,548.833 374.5,543.5 Z"/></g>
<g><path style="opacity:1" fill="#587d19" d="M 438.5,559.5 C 438.5,554.167 438.5,548.833 438.5,543.5C 443.833,543.5 449.167,543.5 454.5,543.5C 454.5,548.833 454.5,554.167 454.5,559.5C 449.167,559.5 443.833,559.5 438.5,559.5 Z"/></g>
<g><path style="opacity:1" fill="#184300" d="M 134.5,558.5 C 134.5,574.833 134.5,591.167 134.5,607.5C 129.167,607.5 123.833,607.5 118.5,607.5C 118.5,591.167 118.5,574.833 118.5,558.5C 123.833,558.5 129.167,558.5 134.5,558.5 Z"/></g>
<g><path style="opacity:1" fill="#a1c763" d="M 151.5,559.5 C 151.5,570.167 151.5,580.833 151.5,591.5C 156.5,591.5 161.5,591.5 166.5,591.5C 166.5,596.5 166.5,601.5 166.5,606.5C 161.5,606.5 156.5,606.5 151.5,606.5C 146.167,606.5 140.833,606.5 135.5,606.5C 135.5,590.833 135.5,575.167 135.5,559.5C 140.833,559.5 146.167,559.5 151.5,559.5 Z"/></g>
<g><path style="opacity:1" fill="#194400" d="M 198.5,559.5 C 198.5,564.5 198.5,569.5 198.5,574.5C 193.5,574.5 188.5,574.5 183.5,574.5C 183.5,569.5 183.5,564.5 183.5,559.5C 188.5,559.5 193.5,559.5 198.5,559.5 Z"/></g>
<g><path style="opacity:1" fill="#184200" d="M 374.5,559.5 C 379.833,559.5 385.167,559.5 390.5,559.5C 390.5,564.833 390.5,570.167 390.5,575.5C 385.167,575.5 379.833,575.5 374.5,575.5C 374.5,570.167 374.5,564.833 374.5,559.5 Z"/></g>
<g><path style="opacity:1" fill="#587d19" d="M 438.5,559.5 C 438.5,564.833 438.5,570.167 438.5,575.5C 433.167,575.5 427.833,575.5 422.5,575.5C 422.5,570.167 422.5,564.833 422.5,559.5C 427.833,559.5 433.167,559.5 438.5,559.5 Z"/></g>
<g><path style="opacity:1" fill="#000000" d="M 502.5,559.5 C 507.833,559.5 513.167,559.5 518.5,559.5C 518.5,580.833 518.5,602.167 518.5,623.5C 513.167,623.5 507.833,623.5 502.5,623.5C 502.5,602.167 502.5,580.833 502.5,559.5 Z"/></g>
<g><path style="opacity:1" fill="#567d18" d="M 199.5,575.5 C 204.5,575.5 209.5,575.5 214.5,575.5C 214.5,580.5 214.5,585.5 214.5,590.5C 209.5,590.5 204.5,590.5 199.5,590.5C 199.5,585.5 199.5,580.5 199.5,575.5 Z"/></g>
<g><path style="opacity:1" fill="#1d4303" d="M 214.5,575.5 C 214.833,575.5 215.167,575.5 215.5,575.5C 220.5,575.5 225.5,575.5 230.5,575.5C 230.5,580.5 230.5,585.5 230.5,590.5C 235.833,590.5 241.167,590.5 246.5,590.5C 246.5,590.833 246.5,591.167 246.5,591.5C 236.167,591.5 225.833,591.5 215.5,591.5C 215.5,596.5 215.5,601.5 215.5,606.5C 215.167,606.5 214.833,606.5 214.5,606.5C 214.5,601.167 214.5,595.833 214.5,590.5C 214.5,585.5 214.5,580.5 214.5,575.5 Z"/></g>
<g><path style="opacity:1" fill="#577d1a" d="M 215.5,575.5 C 225.653,574.506 235.986,574.172 246.5,574.5C 246.5,579.833 246.5,585.167 246.5,590.5C 241.167,590.5 235.833,590.5 230.5,590.5C 230.5,585.5 230.5,580.5 230.5,575.5C 225.5,575.5 220.5,575.5 215.5,575.5 Z"/></g>
<g><path style="opacity:1" fill="#010100" d="M 374.5,575.5 C 379.833,575.5 385.167,575.5 390.5,575.5C 390.5,580.5 390.5,585.5 390.5,590.5C 396.026,590.179 401.36,590.512 406.5,591.5C 406.5,596.833 406.5,602.167 406.5,607.5C 395.833,607.5 385.167,607.5 374.5,607.5C 374.5,601.833 374.5,596.167 374.5,590.5C 374.5,585.5 374.5,580.5 374.5,575.5 Z"/></g>
<g><path style="opacity:1" fill="#567b19" d="M 390.5,575.5 C 401.167,575.5 411.833,575.5 422.5,575.5C 422.5,580.5 422.5,585.5 422.5,590.5C 428.026,590.179 433.36,590.512 438.5,591.5C 432.833,591.5 427.167,591.5 421.5,591.5C 416.5,591.5 411.5,591.5 406.5,591.5C 401.36,590.512 396.026,590.179 390.5,590.5C 390.5,585.5 390.5,580.5 390.5,575.5 Z"/></g>
<g><path style="opacity:1" fill="#000000" d="M 246.5,591.5 C 246.5,596.833 246.5,602.167 246.5,607.5C 241.5,607.5 236.5,607.5 231.5,607.5C 231.5,612.833 231.5,618.167 231.5,623.5C 226.167,623.5 220.833,623.5 215.5,623.5C 215.5,617.833 215.5,612.167 215.5,606.5C 215.5,601.5 215.5,596.5 215.5,591.5C 225.833,591.5 236.167,591.5 246.5,591.5 Z"/></g>
<g><path style="opacity:1" fill="#194300" d="M 246.5,591.5 C 257.167,591.5 267.833,591.5 278.5,591.5C 278.5,596.5 278.5,601.5 278.5,606.5C 278.5,606.833 278.5,607.167 278.5,607.5C 273.167,607.5 267.833,607.5 262.5,607.5C 257.167,607.5 251.833,607.5 246.5,607.5C 246.5,602.167 246.5,596.833 246.5,591.5 Z"/></g>
<g><path style="opacity:1" fill="#84ae36" d="M 294.5,591.5 C 294.5,596.833 294.5,602.167 294.5,607.5C 289.167,607.5 283.833,607.5 278.5,607.5C 278.5,607.167 278.5,606.833 278.5,606.5C 279.487,601.695 279.821,596.695 279.5,591.5C 284.5,591.5 289.5,591.5 294.5,591.5 Z"/></g>
<g><path style="opacity:1" fill="#b0b70f" d="M 326.5,590.5 C 326.5,596.167 326.5,601.833 326.5,607.5C 321.5,607.5 316.5,607.5 311.5,607.5C 311.821,612.695 311.487,617.695 310.5,622.5C 310.5,617.5 310.5,612.5 310.5,607.5C 310.5,601.833 310.5,596.167 310.5,590.5C 315.833,590.5 321.167,590.5 326.5,590.5 Z"/></g>
<g><path style="opacity:1" fill="#7faa37" d="M 374.5,590.5 C 374.5,596.167 374.5,601.833 374.5,607.5C 369.167,607.5 363.833,607.5 358.5,607.5C 358.5,607.167 358.5,606.833 358.5,606.5C 358.5,601.167 358.5,595.833 358.5,590.5C 363.833,590.5 369.167,590.5 374.5,590.5 Z"/></g>
<g><path style="opacity:1" fill="#000000" d="M 421.5,591.5 C 427.167,591.5 432.833,591.5 438.5,591.5C 438.5,596.5 438.5,601.5 438.5,606.5C 438.5,611.833 438.5,617.167 438.5,622.5C 443.64,623.488 448.974,623.821 454.5,623.5C 454.5,628.833 454.5,634.167 454.5,639.5C 448.833,639.5 443.167,639.5 437.5,639.5C 437.5,634.167 437.5,628.833 437.5,623.5C 432.167,623.5 426.833,623.5 421.5,623.5C 421.5,612.833 421.5,602.167 421.5,591.5 Z"/></g>
<g><path style="opacity:1" fill="#adb407" d="M 501.5,606.5 C 501.5,611.833 501.5,617.167 501.5,622.5C 480.5,622.5 459.5,622.5 438.5,622.5C 438.5,617.167 438.5,611.833 438.5,606.5C 443.833,606.5 449.167,606.5 454.5,606.5C 454.5,601.167 454.5,595.833 454.5,590.5C 465.167,590.5 475.833,590.5 486.5,590.5C 486.5,595.833 486.5,601.167 486.5,606.5C 491.5,606.5 496.5,606.5 501.5,606.5 Z"/></g>
<g><path style="opacity:1" fill="#51381f" d="M 134.5,607.5 C 134.833,607.5 135.167,607.5 135.5,607.5C 140.5,607.5 145.5,607.5 150.5,607.5C 150.5,617.833 150.5,628.167 150.5,638.5C 150.5,638.833 150.5,639.167 150.5,639.5C 145.167,639.5 139.833,639.5 134.5,639.5C 134.5,628.833 134.5,618.167 134.5,607.5 Z"/></g>
<g><path style="opacity:1" fill="#827931" d="M 135.5,607.5 C 135.5,607.167 135.5,606.833 135.5,606.5C 140.833,606.5 146.167,606.5 151.5,606.5C 151.5,606.833 151.5,607.167 151.5,607.5C 151.5,617.833 151.5,628.167 151.5,638.5C 151.167,638.5 150.833,638.5 150.5,638.5C 150.5,628.167 150.5,617.833 150.5,607.5C 145.5,607.5 140.5,607.5 135.5,607.5 Z"/></g>
<g><path style="opacity:1" fill="#d8d93c" d="M 151.5,607.5 C 156.833,607.5 162.167,607.5 167.5,607.5C 167.5,612.5 167.5,617.5 167.5,622.5C 172.833,622.5 178.167,622.5 183.5,622.5C 183.5,627.833 183.5,633.167 183.5,638.5C 172.833,638.5 162.167,638.5 151.5,638.5C 151.5,628.167 151.5,617.833 151.5,607.5 Z"/></g>
<g><path style="opacity:1" fill="#acb50f" d="M 151.5,607.5 C 151.5,607.167 151.5,606.833 151.5,606.5C 156.5,606.5 161.5,606.5 166.5,606.5C 172.167,606.5 177.833,606.5 183.5,606.5C 183.5,611.833 183.5,617.167 183.5,622.5C 178.167,622.5 172.833,622.5 167.5,622.5C 167.5,617.5 167.5,612.5 167.5,607.5C 162.167,607.5 156.833,607.5 151.5,607.5 Z"/></g>
<g><path style="opacity:1" fill="#acb40a" d="M 214.5,606.5 C 214.5,611.833 214.5,617.167 214.5,622.5C 209.167,622.5 203.833,622.5 198.5,622.5C 198.5,617.167 198.5,611.833 198.5,606.5C 203.833,606.5 209.167,606.5 214.5,606.5 Z"/></g>
<g><path style="opacity:1" fill="#51381e" d="M 262.5,607.5 C 267.833,607.5 273.167,607.5 278.5,607.5C 278.5,617.833 278.5,628.167 278.5,638.5C 278.5,638.833 278.5,639.167 278.5,639.5C 273.167,639.5 267.833,639.5 262.5,639.5C 262.5,628.833 262.5,618.167 262.5,607.5 Z"/></g>
<g><path style="opacity:1" fill="#adb309" d="M 278.5,607.5 C 283.833,607.5 289.167,607.5 294.5,607.5C 294.5,612.5 294.5,617.5 294.5,622.5C 299.833,622.5 305.167,622.5 310.5,622.5C 305.36,623.488 300.026,623.821 294.5,623.5C 294.5,628.5 294.5,633.5 294.5,638.5C 289.167,638.5 283.833,638.5 278.5,638.5C 278.5,628.167 278.5,617.833 278.5,607.5 Z"/></g>
<g><path style="opacity:1" fill="#83af37" d="M 294.5,607.5 C 299.833,607.5 305.167,607.5 310.5,607.5C 310.5,612.5 310.5,617.5 310.5,622.5C 305.167,622.5 299.833,622.5 294.5,622.5C 294.5,617.5 294.5,612.5 294.5,607.5 Z"/></g>
<g><path style="opacity:1" fill="#d9d93d" d="M 326.5,607.5 C 326.5,612.5 326.5,617.5 326.5,622.5C 331.64,623.488 336.974,623.821 342.5,623.5C 342.5,628.5 342.5,633.5 342.5,638.5C 342.5,643.833 342.5,649.167 342.5,654.5C 326.5,654.5 310.5,654.5 294.5,654.5C 294.5,649.167 294.5,643.833 294.5,638.5C 294.5,633.5 294.5,628.5 294.5,623.5C 300.026,623.821 305.36,623.488 310.5,622.5C 311.487,617.695 311.821,612.695 311.5,607.5C 316.5,607.5 321.5,607.5 326.5,607.5 Z"/></g>
<g><path style="opacity:1" fill="#85b13a" d="M 326.5,590.5 C 327.488,595.64 327.821,600.974 327.5,606.5C 332.5,606.5 337.5,606.5 342.5,606.5C 342.5,611.833 342.5,617.167 342.5,622.5C 337.167,622.5 331.833,622.5 326.5,622.5C 326.5,617.5 326.5,612.5 326.5,607.5C 326.5,601.833 326.5,596.167 326.5,590.5 Z"/></g>
<g><path style="opacity:1" fill="#afb50b" d="M 342.5,606.5 C 347.833,606.5 353.167,606.5 358.5,606.5C 358.5,606.833 358.5,607.167 358.5,607.5C 358.5,617.833 358.5,628.167 358.5,638.5C 353.167,638.5 347.833,638.5 342.5,638.5C 342.5,633.5 342.5,628.5 342.5,623.5C 336.974,623.821 331.64,623.488 326.5,622.5C 331.833,622.5 337.167,622.5 342.5,622.5C 342.5,617.167 342.5,611.833 342.5,606.5 Z"/></g>
<g><path style="opacity:1" fill="#adb507" d="M 183.5,622.5 C 188.5,622.5 193.5,622.5 198.5,622.5C 198.5,627.833 198.5,633.167 198.5,638.5C 193.5,638.5 188.5,638.5 183.5,638.5C 183.5,633.167 183.5,627.833 183.5,622.5 Z"/></g>
<g><path style="opacity:1" fill="#51381e" d="M 215.5,623.5 C 215.5,628.833 215.5,634.167 215.5,639.5C 210.167,639.5 204.833,639.5 199.5,639.5C 199.5,634.167 199.5,628.833 199.5,623.5C 204.833,623.5 210.167,623.5 215.5,623.5 Z"/></g>
<g><path style="opacity:1" fill="#50371e" d="M 454.5,623.5 C 465.167,623.5 475.833,623.5 486.5,623.5C 486.5,628.833 486.5,634.167 486.5,639.5C 475.833,639.5 465.167,639.5 454.5,639.5C 454.5,634.167 454.5,628.833 454.5,623.5 Z"/></g>
<g><path style="opacity:1" fill="#000000" d="M 486.5,623.5 C 491.833,623.5 497.167,623.5 502.5,623.5C 502.5,628.833 502.5,634.167 502.5,639.5C 497.167,639.5 491.833,639.5 486.5,639.5C 486.5,634.167 486.5,628.833 486.5,623.5 Z"/></g>
<g><path style="opacity:1" fill="#58560f" d="M 214.5,606.5 C 214.833,606.5 215.167,606.5 215.5,606.5C 215.5,612.167 215.5,617.833 215.5,623.5C 210.167,623.5 204.833,623.5 199.5,623.5C 199.5,628.833 199.5,634.167 199.5,639.5C 183.167,639.5 166.833,639.5 150.5,639.5C 150.5,639.167 150.5,638.833 150.5,638.5C 150.833,638.5 151.167,638.5 151.5,638.5C 162.167,638.5 172.833,638.5 183.5,638.5C 188.5,638.5 193.5,638.5 198.5,638.5C 198.5,633.167 198.5,627.833 198.5,622.5C 203.833,622.5 209.167,622.5 214.5,622.5C 214.5,617.167 214.5,611.833 214.5,606.5 Z"/></g>
<g><path style="opacity:1" fill="#000000" d="M 150.5,639.5 C 166.833,639.5 183.167,639.5 199.5,639.5C 199.5,644.833 199.5,650.167 199.5,655.5C 183.167,655.5 166.833,655.5 150.5,655.5C 150.5,650.167 150.5,644.833 150.5,639.5 Z"/></g>
<g><path style="opacity:1" fill="#533d1d" d="M 278.5,638.5 C 283.833,638.5 289.167,638.5 294.5,638.5C 294.5,643.833 294.5,649.167 294.5,654.5C 310.5,654.5 326.5,654.5 342.5,654.5C 326.675,655.496 310.675,655.83 294.5,655.5C 289.167,655.5 283.833,655.5 278.5,655.5C 278.5,650.167 278.5,644.833 278.5,639.5C 278.5,639.167 278.5,638.833 278.5,638.5 Z"/></g>
<g><path style="opacity:1" fill="#030300" d="M 358.5,607.5 C 363.833,607.5 369.167,607.5 374.5,607.5C 374.5,618.167 374.5,628.833 374.5,639.5C 369.5,639.5 364.5,639.5 359.5,639.5C 359.5,644.833 359.5,650.167 359.5,655.5C 353.729,654.887 348.396,655.554 343.5,657.5C 327.167,657.5 310.833,657.5 294.5,657.5C 294.5,656.833 294.5,656.167 294.5,655.5C 310.675,655.83 326.675,655.496 342.5,654.5C 342.5,649.167 342.5,643.833 342.5,638.5C 347.833,638.5 353.167,638.5 358.5,638.5C 358.5,628.167 358.5,617.833 358.5,607.5 Z"/></g>
</svg>
