<?xml version="1.0" encoding="UTF-8"?>
<!DOCTYPE svg PUBLIC "-//W3C//DTD SVG 1.1//EN" "http://www.w3.org/Graphics/SVG/1.1/DTD/svg11.dtd">
<svg xmlns="http://www.w3.org/2000/svg" version="1.1" width="510px" height="632px" style="shape-rendering:geometricPrecision; text-rendering:geometricPrecision; image-rendering:optimizeQuality; fill-rule:evenodd; clip-rule:evenodd" xmlns:xlink="http://www.w3.org/1999/xlink">
<g><path style="opacity:1" fill="#1e1f1e" d="M 175.5,-0.5 C 204.833,-0.5 234.167,-0.5 263.5,-0.5C 263.5,5.16667 263.5,10.8333 263.5,16.5C 234.167,16.5 204.833,16.5 175.5,16.5C 175.5,10.8333 175.5,5.16667 175.5,-0.5 Z"/></g>
<g><path style="opacity:1" fill="#202020" d="M 158.5,16.5 C 158.5,22.5 158.5,28.5 158.5,34.5C 146.833,34.5 135.167,34.5 123.5,34.5C 123.167,34.5 122.833,34.5 122.5,34.5C 122.5,28.5 122.5,22.5 122.5,16.5C 134.5,16.5 146.5,16.5 158.5,16.5 Z"/></g>
<g><path style="opacity:1" fill="#9b9c9b" d="M 158.5,16.5 C 164.167,16.5 169.833,16.5 175.5,16.5C 175.5,16.8333 175.5,17.1667 175.5,17.5C 175.5,23.1667 175.5,28.8333 175.5,34.5C 169.833,34.5 164.167,34.5 158.5,34.5C 158.5,28.5 158.5,22.5 158.5,16.5 Z"/></g>
<g><path style="opacity:1" fill="#919191" d="M 175.5,17.5 C 175.5,17.1667 175.5,16.8333 175.5,16.5C 204.833,16.5 234.167,16.5 263.5,16.5C 269.5,16.5 275.5,16.5 281.5,16.5C 281.5,22.5 281.5,28.5 281.5,34.5C 275.5,34.5 269.5,34.5 263.5,34.5C 263.5,28.8333 263.5,23.1667 263.5,17.5C 234.167,17.5 204.833,17.5 175.5,17.5 Z"/></g>
<g><path style="opacity:1" fill="#1e1f1e" d="M 281.5,16.5 C 293.167,16.5 304.833,16.5 316.5,16.5C 316.5,22.5 316.5,28.5 316.5,34.5C 304.833,34.5 293.167,34.5 281.5,34.5C 281.5,28.5 281.5,22.5 281.5,16.5 Z"/></g>
<g><path style="opacity:1" fill="#f9f9f9" d="M 175.5,17.5 C 204.833,17.5 234.167,17.5 263.5,17.5C 263.5,23.1667 263.5,28.8333 263.5,34.5C 269.5,34.5 275.5,34.5 281.5,34.5C 293.167,34.5 304.833,34.5 316.5,34.5C 316.5,40.5 316.5,46.5 316.5,52.5C 322.167,52.5 327.833,52.5 333.5,52.5C 339.5,52.5 345.5,52.5 351.5,52.5C 351.5,58.1667 351.5,63.8333 351.5,69.5C 356.975,70.4889 362.642,70.8222 368.5,70.5C 368.172,82.0123 368.505,93.3456 369.5,104.5C 374.975,105.489 380.642,105.822 386.5,105.5C 386.5,111.167 386.5,116.833 386.5,122.5C 386.5,128.167 386.5,133.833 386.5,139.5C 386.5,139.833 386.5,140.167 386.5,140.5C 386.5,146.167 386.5,151.833 386.5,157.5C 392.167,157.5 397.833,157.5 403.5,157.5C 403.5,180.833 403.5,204.167 403.5,227.5C 397.642,227.178 391.975,227.511 386.5,228.5C 386.5,239.833 386.5,251.167 386.5,262.5C 380.5,262.5 374.5,262.5 368.5,262.5C 368.5,268.5 368.5,274.5 368.5,280.5C 362.833,280.5 357.167,280.5 351.5,280.5C 351.5,286.167 351.5,291.833 351.5,297.5C 339.833,297.5 328.167,297.5 316.5,297.5C 316.822,291.642 316.489,285.975 315.5,280.5C 309.833,280.5 304.167,280.5 298.5,280.5C 298.5,286.167 298.5,291.833 298.5,297.5C 303.975,298.489 309.642,298.822 315.5,298.5C 315.5,304.167 315.5,309.833 315.5,315.5C 309.833,315.5 304.167,315.5 298.5,315.5C 298.5,321.5 298.5,327.5 298.5,333.5C 292.833,333.5 287.167,333.5 281.5,333.5C 281.5,327.5 281.5,321.5 281.5,315.5C 263.659,315.17 245.992,315.503 228.5,316.5C 228.5,322.167 228.5,327.833 228.5,333.5C 222.5,333.5 216.5,333.5 210.5,333.5C 210.5,339.167 210.5,344.833 210.5,350.5C 204.833,350.5 199.167,350.5 193.5,350.5C 193.822,344.642 193.489,338.975 192.5,333.5C 186.833,333.5 181.167,333.5 175.5,333.5C 175.5,327.5 175.5,321.5 175.5,315.5C 163.833,315.5 152.167,315.5 140.5,315.5C 134.833,315.5 129.167,315.5 123.5,315.5C 123.822,309.642 123.489,303.975 122.5,298.5C 111.346,297.505 100.012,297.172 88.5,297.5C 88.5,291.833 88.5,286.167 88.5,280.5C 94.1667,280.5 99.8333,280.5 105.5,280.5C 105.5,274.5 105.5,268.5 105.5,262.5C 99.8236,262.334 94.1569,262.501 88.5,263C 87.5251,268.741 87.1918,274.575 87.5,280.5C 81.8333,280.5 76.1667,280.5 70.5,280.5C 70.5,274.833 70.5,269.167 70.5,263.5C 65.0247,262.511 59.358,262.178 53.5,262.5C 53.8281,250.988 53.4948,239.654 52.5,228.5C 47.0247,227.511 41.358,227.178 35.5,227.5C 35.5,198.5 35.5,169.5 35.5,140.5C 41.1667,140.5 46.8333,140.5 52.5,140.5C 53.4949,129.012 53.8283,117.345 53.5,105.5C 59.1667,105.5 64.8333,105.5 70.5,105.5C 70.5,99.5 70.5,93.5 70.5,87.5C 70.5,81.5 70.5,75.5 70.5,69.5C 76.1667,69.5 81.8333,69.5 87.5,69.5C 87.5,63.8333 87.5,58.1667 87.5,52.5C 87.8333,52.5 88.1667,52.5 88.5,52.5C 100.167,52.5 111.833,52.5 123.5,52.5C 123.5,46.5 123.5,40.5 123.5,34.5C 135.167,34.5 146.833,34.5 158.5,34.5C 164.167,34.5 169.833,34.5 175.5,34.5C 175.5,28.8333 175.5,23.1667 175.5,17.5 Z"/></g>
<g><path style="opacity:1" fill="#9a9b9c" d="M 87.5,34.5 C 99.1667,34.5 110.833,34.5 122.5,34.5C 122.5,40.1667 122.5,45.8333 122.5,51.5C 110.988,51.1719 99.6544,51.5052 88.5,52.5C 88.1667,52.5 87.8333,52.5 87.5,52.5C 87.5,46.5 87.5,40.5 87.5,34.5 Z"/></g>
<g><path style="opacity:1" fill="#9d9d9d" d="M 316.5,34.5 C 322.167,34.5 327.833,34.5 333.5,34.5C 333.5,40.5 333.5,46.5 333.5,52.5C 327.833,52.5 322.167,52.5 316.5,52.5C 316.5,46.5 316.5,40.5 316.5,34.5 Z"/></g>
<g><path style="opacity:1" fill="#1e1f1e" d="M 334.5,34.5 C 340.167,34.5 345.833,34.5 351.5,34.5C 351.5,40.1667 351.5,45.8333 351.5,51.5C 351.5,45.8333 351.5,40.1667 351.5,34.5C 345.833,34.5 340.167,34.5 334.5,34.5 Z"/></g>
<g><path style="opacity:1" fill="#b9b9b9" d="M 122.5,34.5 C 122.833,34.5 123.167,34.5 123.5,34.5C 123.5,40.5 123.5,46.5 123.5,52.5C 111.833,52.5 100.167,52.5 88.5,52.5C 99.6544,51.5052 110.988,51.1719 122.5,51.5C 122.5,45.8333 122.5,40.1667 122.5,34.5 Z"/></g>
<g><path style="opacity:1" fill="#545454" d="M 333.5,34.5 C 333.833,34.5 334.167,34.5 334.5,34.5C 334.5,40.1667 334.5,45.8333 334.5,51.5C 340.167,51.5 345.833,51.5 351.5,51.5C 351.5,51.8333 351.5,52.1667 351.5,52.5C 345.5,52.5 339.5,52.5 333.5,52.5C 333.5,46.5 333.5,40.5 333.5,34.5 Z"/></g>
<g><path style="opacity:1" fill="#1e1f1e" d="M 351.5,51.5 C 357.5,51.5 363.5,51.5 369.5,51.5C 369.5,57.5 369.5,63.5 369.5,69.5C 363.5,69.5 357.5,69.5 351.5,69.5C 351.5,63.8333 351.5,58.1667 351.5,52.5C 351.5,52.1667 351.5,51.8333 351.5,51.5 Z"/></g>
<g><path style="opacity:1" fill="#0c449b" d="M 87.5,34.5 C 87.5,40.5 87.5,46.5 87.5,52.5C 81.8333,52.5 76.1667,52.5 70.5,52.5C 64.5,52.5 58.5,52.5 52.5,52.5C 52.5,64.1667 52.5,75.8333 52.5,87.5C 52.5,93.5 52.5,99.5 52.5,105.5C 46.5,105.5 40.5,105.5 34.5,105.5C 34.5,87.5 34.5,69.5 34.5,51.5C 40.5,51.5 46.5,51.5 52.5,51.5C 52.5,45.8333 52.5,40.1667 52.5,34.5C 64.1667,34.5 75.8333,34.5 87.5,34.5 Z"/></g>
<g><path style="opacity:1" fill="#4088f7" d="M 70.5,52.5 C 70.5,58.1667 70.5,63.8333 70.5,69.5C 70.5,75.5 70.5,81.5 70.5,87.5C 64.5,87.5 58.5,87.5 52.5,87.5C 52.5,75.8333 52.5,64.1667 52.5,52.5C 58.5,52.5 64.5,52.5 70.5,52.5 Z"/></g>
<g><path style="opacity:1" fill="#9b9c9b" d="M 70.5,52.5 C 76.1667,52.5 81.8333,52.5 87.5,52.5C 87.5,58.1667 87.5,63.8333 87.5,69.5C 81.8333,69.5 76.1667,69.5 70.5,69.5C 70.5,63.8333 70.5,58.1667 70.5,52.5 Z"/></g>
<g><path style="opacity:1" fill="#8da2c3" d="M 351.5,69.5 C 357.5,69.5 363.5,69.5 369.5,69.5C 369.5,81.1667 369.5,92.8333 369.5,104.5C 368.505,93.3456 368.172,82.0123 368.5,70.5C 362.642,70.8222 356.975,70.4889 351.5,69.5 Z"/></g>
<g><path style="opacity:1" fill="#0b449c" d="M 369.5,69.5 C 387.167,69.5 404.833,69.5 422.5,69.5C 422.5,75.1667 422.5,80.8333 422.5,86.5C 428.167,86.5 433.833,86.5 439.5,86.5C 439.5,92.5 439.5,98.5 439.5,104.5C 433.5,104.5 427.5,104.5 421.5,104.5C 421.5,98.8333 421.5,93.1667 421.5,87.5C 409.833,87.5 398.167,87.5 386.5,87.5C 386.5,93.1667 386.5,98.8333 386.5,104.5C 380.833,104.5 375.167,104.5 369.5,104.5C 369.5,92.8333 369.5,81.1667 369.5,69.5 Z"/></g>
<g><path style="opacity:1" fill="#a1a1a3" d="M 52.5,87.5 C 58.5,87.5 64.5,87.5 70.5,87.5C 70.5,93.5 70.5,99.5 70.5,105.5C 64.8333,105.5 59.1667,105.5 53.5,105.5C 53.8283,117.345 53.4949,129.012 52.5,140.5C 52.5,140.167 52.5,139.833 52.5,139.5C 52.5,128.167 52.5,116.833 52.5,105.5C 52.5,99.5 52.5,93.5 52.5,87.5 Z"/></g>
<g><path style="opacity:1" fill="#3f88f9" d="M 421.5,104.5 C 421.5,116.5 421.5,128.5 421.5,140.5C 415.833,140.5 410.167,140.5 404.5,140.5C 404.5,140.167 404.5,139.833 404.5,139.5C 404.5,133.833 404.5,128.167 404.5,122.5C 398.5,122.5 392.5,122.5 386.5,122.5C 386.5,116.833 386.5,111.167 386.5,105.5C 380.642,105.822 374.975,105.489 369.5,104.5C 375.167,104.5 380.833,104.5 386.5,104.5C 386.5,98.8333 386.5,93.1667 386.5,87.5C 398.167,87.5 409.833,87.5 421.5,87.5C 421.5,93.1667 421.5,98.8333 421.5,104.5 Z"/></g>
<g><path style="opacity:1" fill="#1e1f1e" d="M 34.5,105.5 C 40.5,105.5 46.5,105.5 52.5,105.5C 52.5,116.833 52.5,128.167 52.5,139.5C 46.5,139.5 40.5,139.5 34.5,139.5C 34.5,128.167 34.5,116.833 34.5,105.5 Z"/></g>
<g><path style="opacity:1" fill="#1d2a3d" d="M 421.5,104.5 C 427.5,104.5 433.5,104.5 439.5,104.5C 439.5,104.833 439.5,105.167 439.5,105.5C 433.833,105.5 428.167,105.5 422.5,105.5C 422.5,123.167 422.5,140.833 422.5,158.5C 421.51,152.69 421.177,146.69 421.5,140.5C 421.5,128.5 421.5,116.5 421.5,104.5 Z"/></g>
<g><path style="opacity:1" fill="#1e1f1e" d="M 439.5,105.5 C 439.5,123.167 439.5,140.833 439.5,158.5C 433.833,158.5 428.167,158.5 422.5,158.5C 422.5,140.833 422.5,123.167 422.5,105.5C 428.167,105.5 433.833,105.5 439.5,105.5 Z"/></g>
<g><path style="opacity:1" fill="#1e1f1e" d="M 88.5,122.5 C 94.1667,122.5 99.8333,122.5 105.5,122.5C 105.5,128.167 105.5,133.833 105.5,139.5C 105.5,133.833 105.5,128.167 105.5,122.5C 99.8333,122.5 94.1667,122.5 88.5,122.5 Z"/></g>
<g><path style="opacity:1" fill="#0d459d" d="M 386.5,122.5 C 392.5,122.5 398.5,122.5 404.5,122.5C 404.5,128.167 404.5,133.833 404.5,139.5C 398.5,139.5 392.5,139.5 386.5,139.5C 386.5,133.833 386.5,128.167 386.5,122.5 Z"/></g>
<g><path style="opacity:1" fill="#1e1f1e" d="M 34.5,139.5 C 34.5,169.167 34.5,198.833 34.5,228.5C 28.8333,228.5 23.1667,228.5 17.5,228.5C 17.5,198.833 17.5,169.167 17.5,139.5C 23.1667,139.5 28.8333,139.5 34.5,139.5 Z"/></g>
<g><path style="opacity:1" fill="#949494" d="M 88.5,122.5 C 88.5,128.167 88.5,133.833 88.5,139.5C 94.1667,139.5 99.8333,139.5 105.5,139.5C 111.358,139.178 117.025,139.511 122.5,140.5C 116.833,140.5 111.167,140.5 105.5,140.5C 99.8333,140.5 94.1667,140.5 88.5,140.5C 88.5,146.167 88.5,151.833 88.5,157.5C 87.5111,152.025 87.1778,146.358 87.5,140.5C 81.8333,140.5 76.1667,140.5 70.5,140.5C 75.9753,139.511 81.642,139.178 87.5,139.5C 87.1778,133.642 87.5111,127.975 88.5,122.5 Z"/></g>
<g><path style="opacity:1" fill="#6f6f6f" d="M 34.5,139.5 C 40.5,139.5 46.5,139.5 52.5,139.5C 52.5,139.833 52.5,140.167 52.5,140.5C 46.8333,140.5 41.1667,140.5 35.5,140.5C 35.5,169.5 35.5,198.5 35.5,227.5C 41.358,227.178 47.0247,227.511 52.5,228.5C 46.5,228.5 40.5,228.5 34.5,228.5C 34.5,198.833 34.5,169.167 34.5,139.5 Z"/></g>
<g><path style="opacity:1" fill="#1f1f1f" d="M 70.5,140.5 C 76.1667,140.5 81.8333,140.5 87.5,140.5C 87.1778,146.358 87.5111,152.025 88.5,157.5C 94.1667,157.5 99.8333,157.5 105.5,157.5C 105.5,151.833 105.5,146.167 105.5,140.5C 111.167,140.5 116.833,140.5 122.5,140.5C 122.5,157.833 122.5,175.167 122.5,192.5C 116.833,192.5 111.167,192.5 105.5,192.5C 105.5,198.5 105.5,204.5 105.5,210.5C 99.5,210.5 93.5,210.5 87.5,210.5C 87.5,204.5 87.5,198.5 87.5,192.5C 81.8333,192.5 76.1667,192.5 70.5,192.5C 70.5,175.167 70.5,157.833 70.5,140.5 Z"/></g>
<g><path style="opacity:1" fill="#f9faf9" d="M 105.5,140.5 C 105.5,146.167 105.5,151.833 105.5,157.5C 99.8333,157.5 94.1667,157.5 88.5,157.5C 88.5,151.833 88.5,146.167 88.5,140.5C 94.1667,140.5 99.8333,140.5 105.5,140.5 Z"/></g>
<g><path style="opacity:1" fill="#222222" d="M 316.5,157.5 C 316.167,157.5 315.833,157.5 315.5,157.5C 309.833,157.5 304.167,157.5 298.5,157.5C 298.5,151.833 298.5,146.167 298.5,140.5C 304.5,140.5 310.5,140.5 316.5,140.5C 316.5,146.167 316.5,151.833 316.5,157.5 Z"/></g>
<g><path style="opacity:1" fill="#9b9c9b" d="M 386.5,140.5 C 392.167,140.5 397.833,140.5 403.5,140.5C 403.5,146.167 403.5,151.833 403.5,157.5C 403.5,151.833 403.5,146.167 403.5,140.5C 397.833,140.5 392.167,140.5 386.5,140.5 Z"/></g>
<g><path style="opacity:1" fill="#58749c" d="M 386.5,140.5 C 386.5,140.167 386.5,139.833 386.5,139.5C 392.5,139.5 398.5,139.5 404.5,139.5C 404.5,139.833 404.5,140.167 404.5,140.5C 404.5,146.167 404.5,151.833 404.5,157.5C 404.167,157.5 403.833,157.5 403.5,157.5C 403.5,151.833 403.5,146.167 403.5,140.5C 397.833,140.5 392.167,140.5 386.5,140.5 Z"/></g>
<g><path style="opacity:1" fill="#0b439b" d="M 404.5,140.5 C 410.167,140.5 415.833,140.5 421.5,140.5C 421.177,146.69 421.51,152.69 422.5,158.5C 422.5,164.167 422.5,169.833 422.5,175.5C 416.5,175.5 410.5,175.5 404.5,175.5C 404.5,169.5 404.5,163.5 404.5,157.5C 404.5,151.833 404.5,146.167 404.5,140.5 Z"/></g>
<g><path style="opacity:1" fill="#383838" d="M 193.5,158.5 C 193.5,158.167 193.5,157.833 193.5,157.5C 205.167,157.5 216.833,157.5 228.5,157.5C 228.5,163.5 228.5,169.5 228.5,175.5C 228.167,175.5 227.833,175.5 227.5,175.5C 227.5,169.833 227.5,164.167 227.5,158.5C 216.167,158.5 204.833,158.5 193.5,158.5 Z"/></g>
<g><path style="opacity:1" fill="#532102" d="M 158.5,157.5 C 170.167,157.5 181.833,157.5 193.5,157.5C 193.5,157.833 193.5,158.167 193.5,158.5C 193.5,164.167 193.5,169.833 193.5,175.5C 181.833,175.5 170.167,175.5 158.5,175.5C 158.5,169.5 158.5,163.5 158.5,157.5 Z"/></g>
<g><path style="opacity:1" fill="#1f1f1e" d="M 193.5,158.5 C 204.833,158.5 216.167,158.5 227.5,158.5C 227.5,164.167 227.5,169.833 227.5,175.5C 216.167,175.5 204.833,175.5 193.5,175.5C 193.5,169.833 193.5,164.167 193.5,158.5 Z"/></g>
<g><path style="opacity:1" fill="#1f1f1f" d="M 298.5,157.5 C 298.5,163.167 298.5,168.833 298.5,174.5C 304.31,175.49 310.31,175.823 316.5,175.5C 316.5,169.5 316.5,163.5 316.5,157.5C 322.167,157.5 327.833,157.5 333.5,157.5C 333.5,175.167 333.5,192.833 333.5,210.5C 327.833,210.5 322.167,210.5 316.5,210.5C 316.5,216.167 316.5,221.833 316.5,227.5C 310.5,227.5 304.5,227.5 298.5,227.5C 298.5,221.833 298.5,216.167 298.5,210.5C 292.833,210.5 287.167,210.5 281.5,210.5C 281.5,192.833 281.5,175.167 281.5,157.5C 287.167,157.5 292.833,157.5 298.5,157.5 Z"/></g>
<g><path style="opacity:1" fill="#f7f7f7" d="M 298.5,157.5 C 304.167,157.5 309.833,157.5 315.5,157.5C 315.5,163.167 315.5,168.833 315.5,174.5C 309.833,174.5 304.167,174.5 298.5,174.5C 298.5,168.833 298.5,163.167 298.5,157.5 Z"/></g>
<g><path style="opacity:1" fill="#c7bdb0" d="M 158.5,157.5 C 158.5,163.5 158.5,169.5 158.5,175.5C 158.167,175.5 157.833,175.5 157.5,175.5C 151.833,175.5 146.167,175.5 140.5,175.5C 145.975,174.511 151.642,174.178 157.5,174.5C 157.178,168.642 157.511,162.975 158.5,157.5 Z"/></g>
<g><path style="opacity:1" fill="#c3c3c3" d="M 315.5,157.5 C 315.833,157.5 316.167,157.5 316.5,157.5C 316.5,163.5 316.5,169.5 316.5,175.5C 310.31,175.823 304.31,175.49 298.5,174.5C 304.167,174.5 309.833,174.5 315.5,174.5C 315.5,168.833 315.5,163.167 315.5,157.5 Z"/></g>
<g><path style="opacity:1" fill="#511f00" d="M 140.5,175.5 C 146.167,175.5 151.833,175.5 157.5,175.5C 157.5,181.5 157.5,187.5 157.5,193.5C 169.678,193.828 181.678,193.495 193.5,192.5C 193.5,186.833 193.5,181.167 193.5,175.5C 204.833,175.5 216.167,175.5 227.5,175.5C 227.833,175.5 228.167,175.5 228.5,175.5C 228.5,187.167 228.5,198.833 228.5,210.5C 205.167,210.5 181.833,210.5 158.5,210.5C 152.5,210.5 146.5,210.5 140.5,210.5C 140.5,198.833 140.5,187.167 140.5,175.5 Z"/></g>
<g><path style="opacity:1" fill="#f8a600" d="M 158.5,175.5 C 170.167,175.5 181.833,175.5 193.5,175.5C 193.5,181.167 193.5,186.833 193.5,192.5C 181.833,192.5 170.167,192.5 158.5,192.5C 158.5,186.833 158.5,181.167 158.5,175.5 Z"/></g>
<g><path style="opacity:1" fill="#1f1f1f" d="M 228.5,175.5 C 234.167,175.5 239.833,175.5 245.5,175.5C 245.5,187.167 245.5,198.833 245.5,210.5C 239.833,210.5 234.167,210.5 228.5,210.5C 228.5,198.833 228.5,187.167 228.5,175.5 Z"/></g>
<g><path style="opacity:1" fill="#1e1f1e" d="M 404.5,175.5 C 410.5,175.5 416.5,175.5 422.5,175.5C 422.5,193.167 422.5,210.833 422.5,228.5C 416.5,228.5 410.5,228.5 404.5,228.5C 404.5,210.833 404.5,193.167 404.5,175.5 Z"/></g>
<g><path style="opacity:1" fill="#804200" d="M 157.5,175.5 C 157.833,175.5 158.167,175.5 158.5,175.5C 158.5,181.167 158.5,186.833 158.5,192.5C 170.167,192.5 181.833,192.5 193.5,192.5C 181.678,193.495 169.678,193.828 157.5,193.5C 157.5,187.5 157.5,181.5 157.5,175.5 Z"/></g>
<g><path style="opacity:1" fill="#9a9a9a" d="M 122.5,140.5 C 123.498,163.661 123.831,186.994 123.5,210.5C 117.5,210.5 111.5,210.5 105.5,210.5C 105.5,204.5 105.5,198.5 105.5,192.5C 111.167,192.5 116.833,192.5 122.5,192.5C 122.5,175.167 122.5,157.833 122.5,140.5 Z"/></g>
<g><path style="opacity:1" fill="#1f1f1f" d="M 158.5,210.5 C 181.833,210.5 205.167,210.5 228.5,210.5C 228.5,216.167 228.5,221.833 228.5,227.5C 205.167,227.5 181.833,227.5 158.5,227.5C 158.5,221.833 158.5,216.167 158.5,210.5 Z"/></g>
<g><path style="opacity:1" fill="#9b9c9b" d="M 281.5,210.5 C 287.167,210.5 292.833,210.5 298.5,210.5C 298.5,216.167 298.5,221.833 298.5,227.5C 292.833,227.5 287.167,227.5 281.5,227.5C 281.5,221.833 281.5,216.167 281.5,210.5 Z"/></g>
<g><path style="opacity:1" fill="#87898c" d="M 403.5,157.5 C 403.833,157.5 404.167,157.5 404.5,157.5C 404.5,163.5 404.5,169.5 404.5,175.5C 404.5,193.167 404.5,210.833 404.5,228.5C 398.5,228.5 392.5,228.5 386.5,228.5C 391.975,227.511 397.642,227.178 403.5,227.5C 403.5,204.167 403.5,180.833 403.5,157.5 Z"/></g>
<g><path style="opacity:1" fill="#1e1f1e" d="M 34.5,228.5 C 40.5,228.5 46.5,228.5 52.5,228.5C 52.5,240.167 52.5,251.833 52.5,263.5C 46.5,263.5 40.5,263.5 34.5,263.5C 34.5,251.833 34.5,240.167 34.5,228.5 Z"/></g>
<g><path style="opacity:1" fill="#b9b9b9" d="M 52.5,228.5 C 53.4948,239.654 53.8281,250.988 53.5,262.5C 59.358,262.178 65.0247,262.511 70.5,263.5C 64.5,263.5 58.5,263.5 52.5,263.5C 52.5,251.833 52.5,240.167 52.5,228.5 Z"/></g>
<g><path style="opacity:1" fill="#d3d3d3" d="M 87.5,245.5 C 87.5,239.833 87.5,234.167 87.5,228.5C 81.8333,228.5 76.1667,228.5 70.5,228.5C 70.5,234.167 70.5,239.833 70.5,245.5C 69.5104,239.69 69.1771,233.69 69.5,227.5C 75.8333,227.5 82.1667,227.5 88.5,227.5C 88.8229,233.69 88.4896,239.69 87.5,245.5 Z"/></g>
<g><path style="opacity:1" fill="#9b9c9b" d="M 87.5,245.5 C 81.8333,245.5 76.1667,245.5 70.5,245.5C 70.5,239.833 70.5,234.167 70.5,228.5C 76.1667,228.5 81.8333,228.5 87.5,228.5C 87.5,234.167 87.5,239.833 87.5,245.5 Z"/></g>
<g><path style="opacity:1" fill="#9f9f9f" d="M 105.5,227.5 C 111.176,227.334 116.843,227.501 122.5,228C 123.475,233.741 123.808,239.575 123.5,245.5C 117.5,245.5 111.5,245.5 105.5,245.5C 105.5,239.5 105.5,233.5 105.5,227.5 Z"/></g>
<g><path style="opacity:1" fill="#1e1f1e" d="M 386.5,228.5 C 392.5,228.5 398.5,228.5 404.5,228.5C 404.5,240.167 404.5,251.833 404.5,263.5C 398.5,263.5 392.5,263.5 386.5,263.5C 386.5,263.167 386.5,262.833 386.5,262.5C 386.5,251.167 386.5,239.833 386.5,228.5 Z"/></g>
<g><path style="opacity:1" fill="#9c9c9c" d="M 193.5,245.5 C 193.5,251.167 193.5,256.833 193.5,262.5C 199.167,262.5 204.833,262.5 210.5,262.5C 210.5,256.833 210.5,251.167 210.5,245.5C 211.489,250.975 211.822,256.642 211.5,262.5C 217.358,262.178 223.025,262.511 228.5,263.5C 222.833,263.5 217.167,263.5 211.5,263.5C 211.5,269.167 211.5,274.833 211.5,280.5C 210.511,275.025 210.178,269.358 210.5,263.5C 204.833,263.5 199.167,263.5 193.5,263.5C 193.5,269.167 193.5,274.833 193.5,280.5C 187.5,280.5 181.5,280.5 175.5,280.5C 169.833,280.5 164.167,280.5 158.5,280.5C 158.5,274.5 158.5,268.5 158.5,262.5C 164.167,262.5 169.833,262.5 175.5,262.5C 175.5,256.833 175.5,251.167 175.5,245.5C 181.5,245.5 187.5,245.5 193.5,245.5 Z"/></g>
<g><path style="opacity:1" fill="#1e1f1e" d="M 193.5,245.5 C 199.167,245.5 204.833,245.5 210.5,245.5C 210.5,251.167 210.5,256.833 210.5,262.5C 204.833,262.5 199.167,262.5 193.5,262.5C 193.5,256.833 193.5,251.167 193.5,245.5 Z"/></g>
<g><path style="opacity:1" fill="#9e9e9e" d="M 281.5,245.5 C 287.167,245.5 292.833,245.5 298.5,245.5C 298.5,251.5 298.5,257.5 298.5,263.5C 292.833,263.5 287.167,263.5 281.5,263.5C 281.5,257.5 281.5,251.5 281.5,245.5 Z"/></g>
<g><path style="opacity:1" fill="#9e9e9e" d="M 316.5,245.5 C 322.167,245.5 327.833,245.5 333.5,245.5C 333.5,251.5 333.5,257.5 333.5,263.5C 327.833,263.5 322.167,263.5 316.5,263.5C 316.5,257.5 316.5,251.5 316.5,245.5 Z"/></g>
<g><path style="opacity:1" fill="#202020" d="M 52.5,263.5 C 58.5,263.5 64.5,263.5 70.5,263.5C 70.5,269.167 70.5,274.833 70.5,280.5C 76.1667,280.5 81.8333,280.5 87.5,280.5C 87.5,286.5 87.5,292.5 87.5,298.5C 81.5,298.5 75.5,298.5 69.5,298.5C 69.5,292.833 69.5,287.167 69.5,281.5C 63.8333,281.5 58.1667,281.5 52.5,281.5C 52.5,275.5 52.5,269.5 52.5,263.5 Z"/></g>
<g><path style="opacity:1" fill="#a3a3a3" d="M 122.5,298.5 C 110.833,298.5 99.1667,298.5 87.5,298.5C 87.5,292.5 87.5,286.5 87.5,280.5C 87.1918,274.575 87.5251,268.741 88.5,263C 94.1569,262.501 99.8236,262.334 105.5,262.5C 105.5,268.5 105.5,274.5 105.5,280.5C 99.8333,280.5 94.1667,280.5 88.5,280.5C 88.5,286.167 88.5,291.833 88.5,297.5C 100.012,297.172 111.346,297.505 122.5,298.5 Z"/></g>
<g><path style="opacity:1" fill="#202020" d="M 228.5,263.5 C 228.5,269.167 228.5,274.833 228.5,280.5C 222.833,280.5 217.167,280.5 211.5,280.5C 211.5,274.833 211.5,269.167 211.5,263.5C 217.167,263.5 222.833,263.5 228.5,263.5 Z"/></g>
<g><path style="opacity:1" fill="#1e1f1e" d="M 386.5,263.5 C 386.5,275.167 386.5,286.833 386.5,298.5C 380.833,298.5 375.167,298.5 369.5,298.5C 369.5,286.833 369.5,275.167 369.5,263.5C 375.167,263.5 380.833,263.5 386.5,263.5 Z"/></g>
<g><path style="opacity:1" fill="#222222" d="M 158.5,280.5 C 164.167,280.5 169.833,280.5 175.5,280.5C 175.5,286.5 175.5,292.5 175.5,298.5C 169.833,298.5 164.167,298.5 158.5,298.5C 158.5,292.5 158.5,286.5 158.5,280.5 Z"/></g>
<g><path style="opacity:1" fill="#202020" d="M 228.5,280.5 C 234.167,280.5 239.833,280.5 245.5,280.5C 245.5,286.167 245.5,291.833 245.5,297.5C 239.833,297.5 234.167,297.5 228.5,297.5C 228.5,291.833 228.5,286.167 228.5,280.5 Z"/></g>
<g><path style="opacity:1" fill="#9d9d9d" d="M 315.5,280.5 C 315.5,286.167 315.5,291.833 315.5,297.5C 309.833,297.5 304.167,297.5 298.5,297.5C 298.5,291.833 298.5,286.167 298.5,280.5C 304.167,280.5 309.833,280.5 315.5,280.5 Z"/></g>
<g><path style="opacity:1" fill="#9c9c9c" d="M 368.5,280.5 C 368.5,286.167 368.5,291.833 368.5,297.5C 362.833,297.5 357.167,297.5 351.5,297.5C 351.5,291.833 351.5,286.167 351.5,280.5C 357.167,280.5 362.833,280.5 368.5,280.5 Z"/></g>
<g><path style="opacity:1" fill="#6a6a6a" d="M 245.5,280.5 C 246.49,286.31 246.823,292.31 246.5,298.5C 240.31,298.823 234.31,298.49 228.5,297.5C 234.167,297.5 239.833,297.5 245.5,297.5C 245.5,291.833 245.5,286.167 245.5,280.5 Z"/></g>
<g><path style="opacity:1" fill="#b8c3c3" d="M 315.5,280.5 C 316.489,285.975 316.822,291.642 316.5,297.5C 328.167,297.5 339.833,297.5 351.5,297.5C 351.5,297.833 351.5,298.167 351.5,298.5C 339.833,298.5 328.167,298.5 316.5,298.5C 316.5,304.167 316.5,309.833 316.5,315.5C 316.167,315.5 315.833,315.5 315.5,315.5C 315.5,309.833 315.5,304.167 315.5,298.5C 309.642,298.822 303.975,298.489 298.5,297.5C 304.167,297.5 309.833,297.5 315.5,297.5C 315.5,291.833 315.5,286.167 315.5,280.5 Z"/></g>
<g><path style="opacity:1" fill="#788183" d="M 386.5,262.5 C 386.5,262.833 386.5,263.167 386.5,263.5C 380.833,263.5 375.167,263.5 369.5,263.5C 369.5,275.167 369.5,286.833 369.5,298.5C 363.5,298.5 357.5,298.5 351.5,298.5C 351.5,298.167 351.5,297.833 351.5,297.5C 357.167,297.5 362.833,297.5 368.5,297.5C 368.5,291.833 368.5,286.167 368.5,280.5C 368.5,274.5 368.5,268.5 368.5,262.5C 374.5,262.5 380.5,262.5 386.5,262.5 Z"/></g>
<g><path style="opacity:1" fill="#1e1f1e" d="M 87.5,298.5 C 99.1667,298.5 110.833,298.5 122.5,298.5C 122.5,304.167 122.5,309.833 122.5,315.5C 116.833,315.5 111.167,315.5 105.5,315.5C 99.8333,315.5 94.1667,315.5 88.5,315.5C 88.1667,315.5 87.8333,315.5 87.5,315.5C 87.5,309.833 87.5,304.167 87.5,298.5 Z"/></g>
<g><path style="opacity:1" fill="#005d63" d="M 351.5,298.5 C 357.5,298.5 363.5,298.5 369.5,298.5C 369.5,304.167 369.5,309.833 369.5,315.5C 351.833,315.5 334.167,315.5 316.5,315.5C 316.5,309.833 316.5,304.167 316.5,298.5C 328.167,298.5 339.833,298.5 351.5,298.5 Z"/></g>
<g><path style="opacity:1" fill="#9b9b9c" d="M 70.5,315.5 C 70.5,321.5 70.5,327.5 70.5,333.5C 52.8333,333.5 35.1667,333.5 17.5,333.5C 17.5,345.167 17.5,356.833 17.5,368.5C 11.5,368.5 5.5,368.5 -0.5,368.5C -0.5,356.5 -0.5,344.5 -0.5,332.5C 5.5,332.5 11.5,332.5 17.5,332.5C 17.5,326.833 17.5,321.167 17.5,315.5C 35.1667,315.5 52.8333,315.5 70.5,315.5 Z"/></g>
<g><path style="opacity:1" fill="#005d64" d="M 70.5,315.5 C 76.1667,315.5 81.8333,315.5 87.5,315.5C 87.8333,315.5 88.1667,315.5 88.5,315.5C 87.522,327.086 87.1887,338.753 87.5,350.5C 81.8333,350.5 76.1667,350.5 70.5,350.5C 70.5,344.833 70.5,339.167 70.5,333.5C 70.5,327.5 70.5,321.5 70.5,315.5 Z"/></g>
<g><path style="opacity:1" fill="#005c63" d="M 369.5,315.5 C 375.167,315.5 380.833,315.5 386.5,315.5C 386.5,321.167 386.5,326.833 386.5,332.5C 381.025,333.489 375.358,333.822 369.5,333.5C 369.5,327.5 369.5,321.5 369.5,315.5 Z"/></g>
<g><path style="opacity:1" fill="#4ab4a7" d="M 88.5,315.5 C 94.1667,315.5 99.8333,315.5 105.5,315.5C 105.5,321.5 105.5,327.5 105.5,333.5C 111.167,333.5 116.833,333.5 122.5,333.5C 122.178,339.358 122.511,345.025 123.5,350.5C 129.167,350.5 134.833,350.5 140.5,350.5C 140.5,344.833 140.5,339.167 140.5,333.5C 152.167,333.5 163.833,333.5 175.5,333.5C 175.5,339.167 175.5,344.833 175.5,350.5C 180.975,351.489 186.642,351.822 192.5,351.5C 192.178,357.358 192.511,363.025 193.5,368.5C 205.167,368.5 216.833,368.5 228.5,368.5C 246.167,368.5 263.833,368.5 281.5,368.5C 281.5,380.167 281.5,391.833 281.5,403.5C 298.833,403.5 316.167,403.5 333.5,403.5C 333.5,409.5 333.5,415.5 333.5,421.5C 339.5,421.5 345.5,421.5 351.5,421.5C 351.5,433.167 351.5,444.833 351.5,456.5C 345.833,456.5 340.167,456.5 334.5,456.5C 333.511,461.975 333.178,467.642 333.5,473.5C 321.655,473.172 309.988,473.505 298.5,474.5C 298.5,480.167 298.5,485.833 298.5,491.5C 286.833,491.5 275.167,491.5 263.5,491.5C 263.5,497.167 263.5,502.833 263.5,508.5C 251.833,508.5 240.167,508.5 228.5,508.5C 228.5,502.833 228.5,497.167 228.5,491.5C 234.167,491.5 239.833,491.5 245.5,491.5C 246.489,486.025 246.822,480.358 246.5,474.5C 258.345,474.828 270.012,474.495 281.5,473.5C 281.5,455.833 281.5,438.167 281.5,420.5C 275.5,420.5 269.5,420.5 263.5,420.5C 263.5,414.833 263.5,409.167 263.5,403.5C 257.833,403.5 252.167,403.5 246.5,403.5C 246.167,403.5 245.833,403.5 245.5,403.5C 239.833,403.5 234.167,403.5 228.5,403.5C 228.5,397.833 228.5,392.167 228.5,386.5C 211.008,385.503 193.341,385.17 175.5,385.5C 175.5,391.5 175.5,397.5 175.5,403.5C 169.833,403.5 164.167,403.5 158.5,403.5C 158.167,403.5 157.833,403.5 157.5,403.5C 151.833,403.5 146.167,403.5 140.5,403.5C 140.5,409.167 140.5,414.833 140.5,420.5C 134.833,420.5 129.167,420.5 123.5,420.5C 123.5,408.833 123.5,397.167 123.5,385.5C 117.5,385.5 111.5,385.5 105.5,385.5C 105.5,379.833 105.5,374.167 105.5,368.5C 105.5,362.5 105.5,356.5 105.5,350.5C 99.8333,350.5 94.1667,350.5 88.5,350.5C 88.1667,350.5 87.8333,350.5 87.5,350.5C 87.1887,338.753 87.522,327.086 88.5,315.5 Z"/></g>
<g><path style="opacity:1" fill="#1f939e" d="M 122.5,298.5 C 123.489,303.975 123.822,309.642 123.5,315.5C 123.5,321.5 123.5,327.5 123.5,333.5C 123.5,339.167 123.5,344.833 123.5,350.5C 122.511,345.025 122.178,339.358 122.5,333.5C 116.833,333.5 111.167,333.5 105.5,333.5C 105.5,327.5 105.5,321.5 105.5,315.5C 111.167,315.5 116.833,315.5 122.5,315.5C 122.5,309.833 122.5,304.167 122.5,298.5 Z"/></g>
<g><path style="opacity:1" fill="#9c9c9c" d="M 123.5,315.5 C 129.167,315.5 134.833,315.5 140.5,315.5C 140.5,321.5 140.5,327.5 140.5,333.5C 134.833,333.5 129.167,333.5 123.5,333.5C 123.5,327.5 123.5,321.5 123.5,315.5 Z"/></g>
<g><path style="opacity:1" fill="#045e65" d="M 140.5,315.5 C 152.167,315.5 163.833,315.5 175.5,315.5C 175.5,321.5 175.5,327.5 175.5,333.5C 163.833,333.5 152.167,333.5 140.5,333.5C 140.5,327.5 140.5,321.5 140.5,315.5 Z"/></g>
<g><path style="opacity:1" fill="#005d64" d="M 228.5,316.5 C 245.833,316.5 263.167,316.5 280.5,316.5C 280.5,322.167 280.5,327.833 280.5,333.5C 263.167,333.5 245.833,333.5 228.5,333.5C 228.5,327.833 228.5,322.167 228.5,316.5 Z"/></g>
<g><path style="opacity:1" fill="#047d88" d="M 228.5,316.5 C 245.992,315.503 263.659,315.17 281.5,315.5C 281.5,321.5 281.5,327.5 281.5,333.5C 281.5,339.167 281.5,344.833 281.5,350.5C 287.167,350.5 292.833,350.5 298.5,350.5C 298.5,344.833 298.5,339.167 298.5,333.5C 298.5,327.5 298.5,321.5 298.5,315.5C 304.167,315.5 309.833,315.5 315.5,315.5C 315.833,315.5 316.167,315.5 316.5,315.5C 334.167,315.5 351.833,315.5 369.5,315.5C 369.5,321.5 369.5,327.5 369.5,333.5C 363.5,333.5 357.5,333.5 351.5,333.5C 351.5,339.167 351.5,344.833 351.5,350.5C 351.5,350.833 351.5,351.167 351.5,351.5C 345.833,351.5 340.167,351.5 334.5,351.5C 334.5,357.167 334.5,362.833 334.5,368.5C 333.167,374.5 333.167,380.5 334.5,386.5C 334.5,392.167 334.5,397.833 334.5,403.5C 334.5,409.167 334.5,414.833 334.5,420.5C 340.167,420.5 345.833,420.5 351.5,420.5C 351.5,420.833 351.5,421.167 351.5,421.5C 345.5,421.5 339.5,421.5 333.5,421.5C 333.5,415.5 333.5,409.5 333.5,403.5C 316.167,403.5 298.833,403.5 281.5,403.5C 281.5,391.833 281.5,380.167 281.5,368.5C 263.833,368.5 246.167,368.5 228.5,368.5C 228.5,356.833 228.5,345.167 228.5,333.5C 245.833,333.5 263.167,333.5 280.5,333.5C 280.5,327.833 280.5,322.167 280.5,316.5C 263.167,316.5 245.833,316.5 228.5,316.5 Z"/></g>
<g><path style="opacity:1" fill="#005d64" d="M 299.5,316.5 C 305.167,316.5 310.833,316.5 316.5,316.5C 316.5,322.167 316.5,327.833 316.5,333.5C 310.833,333.5 305.167,333.5 299.5,333.5C 299.5,327.833 299.5,322.167 299.5,316.5 Z"/></g>
<g><path style="opacity:1" fill="#1e1f1e" d="M 386.5,332.5 C 392.5,332.5 398.5,332.5 404.5,332.5C 404.5,338.5 404.5,344.5 404.5,350.5C 392.833,350.5 381.167,350.5 369.5,350.5C 369.5,344.833 369.5,339.167 369.5,333.5C 375.358,333.822 381.025,333.489 386.5,332.5 Z"/></g>
<g><path style="opacity:1" fill="#f9f9f9" d="M 70.5,333.5 C 70.5,339.167 70.5,344.833 70.5,350.5C 75.9753,351.489 81.642,351.822 87.5,351.5C 87.1778,357.358 87.5111,363.025 88.5,368.5C 94.1667,368.5 99.8333,368.5 105.5,368.5C 105.5,374.167 105.5,379.833 105.5,385.5C 87.8333,385.5 70.1667,385.5 52.5,385.5C 52.5,379.833 52.5,374.167 52.5,368.5C 40.8333,368.5 29.1667,368.5 17.5,368.5C 17.5,356.833 17.5,345.167 17.5,333.5C 35.1667,333.5 52.8333,333.5 70.5,333.5 Z"/></g>
<g><path style="opacity:1" fill="#005d63" d="M 123.5,333.5 C 129.167,333.5 134.833,333.5 140.5,333.5C 140.5,339.167 140.5,344.833 140.5,350.5C 134.833,350.5 129.167,350.5 123.5,350.5C 123.5,344.833 123.5,339.167 123.5,333.5 Z"/></g>
<g><path style="opacity:1" fill="#005e64" d="M 175.5,333.5 C 181.167,333.5 186.833,333.5 192.5,333.5C 192.5,339.167 192.5,344.833 192.5,350.5C 186.833,350.5 181.167,350.5 175.5,350.5C 175.5,344.833 175.5,339.167 175.5,333.5 Z"/></g>
<g><path style="opacity:1" fill="#035e64" d="M 228.5,333.5 C 228.5,345.167 228.5,356.833 228.5,368.5C 216.833,368.5 205.167,368.5 193.5,368.5C 193.5,362.833 193.5,357.167 193.5,351.5C 199.358,351.822 205.025,351.489 210.5,350.5C 210.5,344.833 210.5,339.167 210.5,333.5C 216.5,333.5 222.5,333.5 228.5,333.5 Z"/></g>
<g><path style="opacity:1" fill="#005d63" d="M 281.5,333.5 C 287.167,333.5 292.833,333.5 298.5,333.5C 298.5,339.167 298.5,344.833 298.5,350.5C 292.833,350.5 287.167,350.5 281.5,350.5C 281.5,344.833 281.5,339.167 281.5,333.5 Z"/></g>
<g><path style="opacity:1" fill="#015b61" d="M 369.5,333.5 C 369.5,339.167 369.5,344.833 369.5,350.5C 363.5,350.5 357.5,350.5 351.5,350.5C 351.5,344.833 351.5,339.167 351.5,333.5C 357.5,333.5 363.5,333.5 369.5,333.5 Z"/></g>
<g><path style="opacity:1" fill="#3d9091" d="M 192.5,333.5 C 193.489,338.975 193.822,344.642 193.5,350.5C 199.167,350.5 204.833,350.5 210.5,350.5C 205.025,351.489 199.358,351.822 193.5,351.5C 193.5,357.167 193.5,362.833 193.5,368.5C 192.511,363.025 192.178,357.358 192.5,351.5C 186.642,351.822 180.975,351.489 175.5,350.5C 181.167,350.5 186.833,350.5 192.5,350.5C 192.5,344.833 192.5,339.167 192.5,333.5 Z"/></g>
<g><path style="opacity:1" fill="#9d9e9e" d="M 351.5,351.5 C 351.5,351.167 351.5,350.833 351.5,350.5C 357.5,350.5 363.5,350.5 369.5,350.5C 381.167,350.5 392.833,350.5 404.5,350.5C 410.167,350.5 415.833,350.5 421.5,350.5C 421.5,356.5 421.5,362.5 421.5,368.5C 415.833,368.5 410.167,368.5 404.5,368.5C 404.5,362.833 404.5,357.167 404.5,351.5C 386.833,351.5 369.167,351.5 351.5,351.5 Z"/></g>
<g><path style="opacity:1" fill="#1f1f1f" d="M 421.5,350.5 C 427.5,350.5 433.5,350.5 439.5,350.5C 439.5,356.5 439.5,362.5 439.5,368.5C 439.167,368.5 438.833,368.5 438.5,368.5C 432.833,368.5 427.167,368.5 421.5,368.5C 421.5,362.5 421.5,356.5 421.5,350.5 Z"/></g>
<g><path style="opacity:1" fill="#71a4a7" d="M 70.5,350.5 C 76.1667,350.5 81.8333,350.5 87.5,350.5C 87.8333,350.5 88.1667,350.5 88.5,350.5C 88.5,356.5 88.5,362.5 88.5,368.5C 87.5111,363.025 87.1778,357.358 87.5,351.5C 81.642,351.822 75.9753,351.489 70.5,350.5 Z"/></g>
<g><path style="opacity:1" fill="#015e65" d="M 88.5,350.5 C 94.1667,350.5 99.8333,350.5 105.5,350.5C 105.5,356.5 105.5,362.5 105.5,368.5C 99.8333,368.5 94.1667,368.5 88.5,368.5C 88.5,362.5 88.5,356.5 88.5,350.5 Z"/></g>
<g><path style="opacity:1" fill="#9c9c9c" d="M 351.5,351.5 C 351.5,357.167 351.5,362.833 351.5,368.5C 345.833,368.5 340.167,368.5 334.5,368.5C 334.5,362.833 334.5,357.167 334.5,351.5C 340.167,351.5 345.833,351.5 351.5,351.5 Z"/></g>
<g><path style="opacity:1" fill="#f9f9f9" d="M 351.5,351.5 C 369.167,351.5 386.833,351.5 404.5,351.5C 404.5,357.167 404.5,362.833 404.5,368.5C 410.167,368.5 415.833,368.5 421.5,368.5C 427.167,368.5 432.833,368.5 438.5,368.5C 438.5,374.167 438.5,379.833 438.5,385.5C 432.642,385.178 426.975,385.511 421.5,386.5C 421.5,392.167 421.5,397.833 421.5,403.5C 398.167,403.5 374.833,403.5 351.5,403.5C 351.5,397.833 351.5,392.167 351.5,386.5C 346.025,385.511 340.358,385.178 334.5,385.5C 334.5,379.833 334.5,374.167 334.5,368.5C 340.167,368.5 345.833,368.5 351.5,368.5C 351.5,362.833 351.5,357.167 351.5,351.5 Z"/></g>
<g><path style="opacity:1" fill="#1e1f1e" d="M 17.5,368.5 C 29.1667,368.5 40.8333,368.5 52.5,368.5C 52.5,374.167 52.5,379.833 52.5,385.5C 52.5,385.833 52.5,386.167 52.5,386.5C 40.8333,386.5 29.1667,386.5 17.5,386.5C 17.5,380.5 17.5,374.5 17.5,368.5 Z"/></g>
<g><path style="opacity:1" fill="#1e1f1e" d="M 439.5,368.5 C 445.5,368.5 451.5,368.5 457.5,368.5C 457.5,380.5 457.5,392.5 457.5,404.5C 451.5,404.5 445.5,404.5 439.5,404.5C 439.5,404.167 439.5,403.833 439.5,403.5C 439.5,397.833 439.5,392.167 439.5,386.5C 439.5,380.5 439.5,374.5 439.5,368.5 Z"/></g>
<g><path style="opacity:1" fill="#b9c9cb" d="M 334.5,368.5 C 334.5,374.167 334.5,379.833 334.5,385.5C 340.358,385.178 346.025,385.511 351.5,386.5C 345.833,386.5 340.167,386.5 334.5,386.5C 333.167,380.5 333.167,374.5 334.5,368.5 Z"/></g>
<g><path style="opacity:1" fill="#c5c5c5" d="M 438.5,368.5 C 438.833,368.5 439.167,368.5 439.5,368.5C 439.5,374.5 439.5,380.5 439.5,386.5C 433.5,386.5 427.5,386.5 421.5,386.5C 426.975,385.511 432.642,385.178 438.5,385.5C 438.5,379.833 438.5,374.167 438.5,368.5 Z"/></g>
<g><path style="opacity:1" fill="#1e1f1e" d="M 52.5,386.5 C 70.1667,386.5 87.8333,386.5 105.5,386.5C 105.5,392.5 105.5,398.5 105.5,404.5C 87.8333,404.5 70.1667,404.5 52.5,404.5C 52.5,398.5 52.5,392.5 52.5,386.5 Z"/></g>
<g><path style="opacity:1" fill="#005d63" d="M 105.5,386.5 C 111.167,386.5 116.833,386.5 122.5,386.5C 122.5,397.833 122.5,409.167 122.5,420.5C 116.833,420.5 111.167,420.5 105.5,420.5C 105.5,415.167 105.5,409.833 105.5,404.5C 105.5,398.5 105.5,392.5 105.5,386.5 Z"/></g>
<g><path style="opacity:1" fill="#508882" d="M 52.5,386.5 C 52.5,386.167 52.5,385.833 52.5,385.5C 70.1667,385.5 87.8333,385.5 105.5,385.5C 111.5,385.5 117.5,385.5 123.5,385.5C 123.5,397.167 123.5,408.833 123.5,420.5C 129.167,420.5 134.833,420.5 140.5,420.5C 140.5,420.833 140.5,421.167 140.5,421.5C 134.833,421.5 129.167,421.5 123.5,421.5C 123.167,421.5 122.833,421.5 122.5,421.5C 116.833,421.5 111.167,421.5 105.5,421.5C 105.5,421.167 105.5,420.833 105.5,420.5C 111.167,420.5 116.833,420.5 122.5,420.5C 122.5,409.167 122.5,397.833 122.5,386.5C 116.833,386.5 111.167,386.5 105.5,386.5C 87.8333,386.5 70.1667,386.5 52.5,386.5 Z"/></g>
<g><path style="opacity:1" fill="#50543d" d="M 228.5,386.5 C 211.167,386.5 193.833,386.5 176.5,386.5C 176.5,392.167 176.5,397.833 176.5,403.5C 176.167,403.5 175.833,403.5 175.5,403.5C 175.5,397.5 175.5,391.5 175.5,385.5C 193.341,385.17 211.008,385.503 228.5,386.5 Z"/></g>
<g><path style="opacity:1" fill="#511f00" d="M 228.5,386.5 C 228.5,392.167 228.5,397.833 228.5,403.5C 216.833,403.5 205.167,403.5 193.5,403.5C 187.833,403.5 182.167,403.5 176.5,403.5C 176.5,397.833 176.5,392.167 176.5,386.5C 193.833,386.5 211.167,386.5 228.5,386.5 Z"/></g>
<g><path style="opacity:1" fill="#9c9c9c" d="M 334.5,386.5 C 340.167,386.5 345.833,386.5 351.5,386.5C 351.5,392.167 351.5,397.833 351.5,403.5C 345.833,403.5 340.167,403.5 334.5,403.5C 334.5,397.833 334.5,392.167 334.5,386.5 Z"/></g>
<g><path style="opacity:1" fill="#9a9a9a" d="M 421.5,386.5 C 427.5,386.5 433.5,386.5 439.5,386.5C 439.5,392.167 439.5,397.833 439.5,403.5C 433.5,403.5 427.5,403.5 421.5,403.5C 421.5,397.833 421.5,392.167 421.5,386.5 Z"/></g>
<g><path style="opacity:1" fill="#512103" d="M 157.5,403.5 C 157.5,409.167 157.5,414.833 157.5,420.5C 151.833,420.5 146.167,420.5 140.5,420.5C 140.5,414.833 140.5,409.167 140.5,403.5C 146.167,403.5 151.833,403.5 157.5,403.5 Z"/></g>
<g><path style="opacity:1" fill="#f8da7d" d="M 158.5,403.5 C 164.167,403.5 169.833,403.5 175.5,403.5C 175.5,409.167 175.5,414.833 175.5,420.5C 169.833,420.5 164.167,420.5 158.5,420.5C 158.5,414.833 158.5,409.167 158.5,403.5 Z"/></g>
<g><path style="opacity:1" fill="#f9b007" d="M 175.5,403.5 C 175.833,403.5 176.167,403.5 176.5,403.5C 182.167,403.5 187.833,403.5 193.5,403.5C 193.5,409.5 193.5,415.5 193.5,421.5C 187.833,421.5 182.167,421.5 176.5,421.5C 176.5,420.833 176.167,420.5 175.5,420.5C 175.5,414.833 175.5,409.167 175.5,403.5 Z"/></g>
<g><path style="opacity:1" fill="#f8d97c" d="M 193.5,403.5 C 205.167,403.5 216.833,403.5 228.5,403.5C 228.5,409.167 228.5,414.833 228.5,420.5C 222.5,420.5 216.5,420.5 210.5,420.5C 210.5,438.167 210.5,455.833 210.5,473.5C 210.5,479.5 210.5,485.5 210.5,491.5C 198.833,491.5 187.167,491.5 175.5,491.5C 175.5,485.833 175.5,480.167 175.5,474.5C 169.833,474.5 164.167,474.5 158.5,474.5C 152.5,474.5 146.5,474.5 140.5,474.5C 140.5,474.167 140.5,473.833 140.5,473.5C 152.167,473.5 163.833,473.5 175.5,473.5C 176.497,456.341 176.83,439.008 176.5,421.5C 182.167,421.5 187.833,421.5 193.5,421.5C 193.5,415.5 193.5,409.5 193.5,403.5 Z"/></g>
<g><path style="opacity:1" fill="#f8af01" d="M 228.5,403.5 C 234.167,403.5 239.833,403.5 245.5,403.5C 245.5,409.167 245.5,414.833 245.5,420.5C 239.833,420.5 234.167,420.5 228.5,420.5C 228.5,414.833 228.5,409.167 228.5,403.5 Z"/></g>
<g><path style="opacity:1" fill="#512001" d="M 246.5,403.5 C 252.167,403.5 257.833,403.5 263.5,403.5C 263.5,409.167 263.5,414.833 263.5,420.5C 257.833,420.5 252.167,420.5 246.5,420.5C 246.5,414.833 246.5,409.167 246.5,403.5 Z"/></g>
<g><path style="opacity:1" fill="#015d63" d="M 334.5,403.5 C 340.167,403.5 345.833,403.5 351.5,403.5C 351.5,409.167 351.5,414.833 351.5,420.5C 345.833,420.5 340.167,420.5 334.5,420.5C 334.5,414.833 334.5,409.167 334.5,403.5 Z"/></g>
<g><path style="opacity:1" fill="#202020" d="M 351.5,403.5 C 374.833,403.5 398.167,403.5 421.5,403.5C 427.5,403.5 433.5,403.5 439.5,403.5C 439.5,403.833 439.5,404.167 439.5,404.5C 439.5,410.167 439.5,415.833 439.5,421.5C 416.167,421.5 392.833,421.5 369.5,421.5C 363.5,421.5 357.5,421.5 351.5,421.5C 351.5,421.167 351.5,420.833 351.5,420.5C 351.5,414.833 351.5,409.167 351.5,403.5 Z"/></g>
<g><path style="opacity:1" fill="#1e1f1e" d="M 105.5,420.5 C 105.5,420.833 105.5,421.167 105.5,421.5C 105.5,444.833 105.5,468.167 105.5,491.5C 99.5,491.5 93.5,491.5 87.5,491.5C 87.5,467.833 87.5,444.167 87.5,420.5C 93.5,420.5 99.5,420.5 105.5,420.5 Z"/></g>
<g><path style="opacity:1" fill="#8f6532" d="M 157.5,403.5 C 157.833,403.5 158.167,403.5 158.5,403.5C 158.5,409.167 158.5,414.833 158.5,420.5C 158.5,420.833 158.5,421.167 158.5,421.5C 158.167,421.5 157.833,421.5 157.5,421.5C 151.833,421.5 146.167,421.5 140.5,421.5C 140.5,421.167 140.5,420.833 140.5,420.5C 146.167,420.5 151.833,420.5 157.5,420.5C 157.5,414.833 157.5,409.167 157.5,403.5 Z"/></g>
<g><path style="opacity:1" fill="#fac231" d="M 228.5,420.5 C 234.167,420.5 239.833,420.5 245.5,420.5C 245.5,420.833 245.5,421.167 245.5,421.5C 239.833,421.5 234.167,421.5 228.5,421.5C 222.833,421.5 217.167,421.5 211.5,421.5C 211.5,438.833 211.5,456.167 211.5,473.5C 211.167,473.5 210.833,473.5 210.5,473.5C 210.5,455.833 210.5,438.167 210.5,420.5C 216.5,420.5 222.5,420.5 228.5,420.5 Z"/></g>
<g><path style="opacity:1" fill="#986526" d="M 245.5,403.5 C 245.833,403.5 246.167,403.5 246.5,403.5C 246.5,409.167 246.5,414.833 246.5,420.5C 252.167,420.5 257.833,420.5 263.5,420.5C 263.5,420.833 263.5,421.167 263.5,421.5C 257.5,421.5 251.5,421.5 245.5,421.5C 245.5,421.167 245.5,420.833 245.5,420.5C 245.5,414.833 245.5,409.167 245.5,403.5 Z"/></g>
<g><path style="opacity:1" fill="#4bb4a7" d="M 105.5,421.5 C 111.167,421.5 116.833,421.5 122.5,421.5C 122.5,439.167 122.5,456.833 122.5,474.5C 128.5,474.5 134.5,474.5 140.5,474.5C 146.5,474.5 152.5,474.5 158.5,474.5C 158.5,480.167 158.5,485.833 158.5,491.5C 157.511,496.975 157.178,502.642 157.5,508.5C 151.833,508.5 146.167,508.5 140.5,508.5C 140.5,502.833 140.5,497.167 140.5,491.5C 134.5,491.5 128.5,491.5 122.5,491.5C 116.833,491.5 111.167,491.5 105.5,491.5C 105.5,468.167 105.5,444.833 105.5,421.5 Z"/></g>
<g><path style="opacity:1" fill="#4b6e5b" d="M 122.5,421.5 C 122.833,421.5 123.167,421.5 123.5,421.5C 123.5,438.833 123.5,456.167 123.5,473.5C 129.167,473.5 134.833,473.5 140.5,473.5C 140.5,473.833 140.5,474.167 140.5,474.5C 134.5,474.5 128.5,474.5 122.5,474.5C 122.5,456.833 122.5,439.167 122.5,421.5 Z"/></g>
<g><path style="opacity:1" fill="#501f00" d="M 123.5,421.5 C 129.167,421.5 134.833,421.5 140.5,421.5C 140.5,433.167 140.5,444.833 140.5,456.5C 140.5,462.167 140.5,467.833 140.5,473.5C 134.833,473.5 129.167,473.5 123.5,473.5C 123.5,456.167 123.5,438.833 123.5,421.5 Z"/></g>
<g><path style="opacity:1" fill="#f8d87c" d="M 140.5,421.5 C 146.167,421.5 151.833,421.5 157.5,421.5C 157.5,432.833 157.5,444.167 157.5,455.5C 151.974,455.179 146.64,455.512 141.5,456.5C 141.167,456.5 140.833,456.5 140.5,456.5C 140.5,444.833 140.5,433.167 140.5,421.5 Z"/></g>
<g><path style="opacity:1" fill="#facf4f" d="M 157.5,421.5 C 157.833,421.5 158.167,421.5 158.5,421.5C 158.5,433.167 158.5,444.833 158.5,456.5C 152.833,456.5 147.167,456.5 141.5,456.5C 146.64,455.512 151.974,455.179 157.5,455.5C 157.5,444.167 157.5,432.833 157.5,421.5 Z"/></g>
<g><path style="opacity:1" fill="#f9ae00" d="M 158.5,421.5 C 164.167,421.5 169.833,421.5 175.5,421.5C 175.5,438.833 175.5,456.167 175.5,473.5C 163.833,473.5 152.167,473.5 140.5,473.5C 140.5,467.833 140.5,462.167 140.5,456.5C 140.833,456.5 141.167,456.5 141.5,456.5C 147.167,456.5 152.833,456.5 158.5,456.5C 158.5,444.833 158.5,433.167 158.5,421.5 Z"/></g>
<g><path style="opacity:1" fill="#facd59" d="M 158.5,421.5 C 158.5,421.167 158.5,420.833 158.5,420.5C 164.167,420.5 169.833,420.5 175.5,420.5C 176.167,420.5 176.5,420.833 176.5,421.5C 176.83,439.008 176.497,456.341 175.5,473.5C 175.5,456.167 175.5,438.833 175.5,421.5C 169.833,421.5 164.167,421.5 158.5,421.5 Z"/></g>
<g><path style="opacity:1" fill="#f8d87b" d="M 228.5,421.5 C 234.167,421.5 239.833,421.5 245.5,421.5C 251.5,421.5 257.5,421.5 263.5,421.5C 263.5,433.167 263.5,444.833 263.5,456.5C 257.833,456.5 252.167,456.5 246.5,456.5C 246.5,462.167 246.5,467.833 246.5,473.5C 246.167,473.5 245.833,473.5 245.5,473.5C 239.833,473.5 234.167,473.5 228.5,473.5C 228.5,456.167 228.5,438.833 228.5,421.5 Z"/></g>
<g><path style="opacity:1" fill="#501f00" d="M 263.5,421.5 C 269.167,421.5 274.833,421.5 280.5,421.5C 280.5,438.833 280.5,456.167 280.5,473.5C 269.167,473.5 257.833,473.5 246.5,473.5C 246.5,467.833 246.5,462.167 246.5,456.5C 252.167,456.5 257.833,456.5 263.5,456.5C 263.5,444.833 263.5,433.167 263.5,421.5 Z"/></g>
<g><path style="opacity:1" fill="#4c5e46" d="M 263.5,421.5 C 263.5,421.167 263.5,420.833 263.5,420.5C 269.5,420.5 275.5,420.5 281.5,420.5C 281.5,438.167 281.5,455.833 281.5,473.5C 281.167,473.5 280.833,473.5 280.5,473.5C 280.5,456.167 280.5,438.833 280.5,421.5C 274.833,421.5 269.167,421.5 263.5,421.5 Z"/></g>
<g><path style="opacity:1" fill="#005c63" d="M 351.5,421.5 C 357.5,421.5 363.5,421.5 369.5,421.5C 369.5,433.167 369.5,444.833 369.5,456.5C 363.5,456.5 357.5,456.5 351.5,456.5C 351.5,444.833 351.5,433.167 351.5,421.5 Z"/></g>
<g><path style="opacity:1" fill="#0c449c" d="M 492.5,473.5 C 492.167,473.5 491.833,473.5 491.5,473.5C 479.833,473.5 468.167,473.5 456.5,473.5C 456.5,467.833 456.5,462.167 456.5,456.5C 444.833,456.5 433.167,456.5 421.5,456.5C 421.5,456.167 421.5,455.833 421.5,455.5C 421.5,449.833 421.5,444.167 421.5,438.5C 439.167,438.5 456.833,438.5 474.5,438.5C 474.5,444.167 474.5,449.833 474.5,455.5C 480.5,455.5 486.5,455.5 492.5,455.5C 492.5,461.5 492.5,467.5 492.5,473.5 Z"/></g>
<g><path style="opacity:1" fill="#1e1f1e" d="M 421.5,455.5 C 421.5,455.833 421.5,456.167 421.5,456.5C 421.5,462.167 421.5,467.833 421.5,473.5C 409.833,473.5 398.167,473.5 386.5,473.5C 386.5,467.5 386.5,461.5 386.5,455.5C 398.167,455.5 409.833,455.5 421.5,455.5 Z"/></g>
<g><path style="opacity:1" fill="#faad00" d="M 228.5,421.5 C 228.5,438.833 228.5,456.167 228.5,473.5C 222.833,473.5 217.167,473.5 211.5,473.5C 211.5,456.167 211.5,438.833 211.5,421.5C 217.167,421.5 222.833,421.5 228.5,421.5 Z"/></g>
<g><path style="opacity:1" fill="#017c88" d="M 334.5,456.5 C 340.167,456.5 345.833,456.5 351.5,456.5C 351.5,468.167 351.5,479.833 351.5,491.5C 345.5,491.5 339.5,491.5 333.5,491.5C 333.5,503.167 333.5,514.833 333.5,526.5C 327.833,526.5 322.167,526.5 316.5,526.5C 315.511,531.975 315.178,537.642 315.5,543.5C 303.988,543.172 292.654,543.505 281.5,544.5C 281.5,550.167 281.5,555.833 281.5,561.5C 275.5,561.5 269.5,561.5 263.5,561.5C 240.167,561.5 216.833,561.5 193.5,561.5C 187.5,561.5 181.5,561.5 175.5,561.5C 175.5,555.833 175.5,550.167 175.5,544.5C 163.833,544.5 152.167,544.5 140.5,544.5C 134.5,544.5 128.5,544.5 122.5,544.5C 122.5,544.167 122.5,543.833 122.5,543.5C 128.5,543.5 134.5,543.5 140.5,543.5C 140.5,537.833 140.5,532.167 140.5,526.5C 134.5,526.5 128.5,526.5 122.5,526.5C 122.5,514.833 122.5,503.167 122.5,491.5C 128.5,491.5 134.5,491.5 140.5,491.5C 140.5,497.167 140.5,502.833 140.5,508.5C 146.167,508.5 151.833,508.5 157.5,508.5C 157.178,502.642 157.511,496.975 158.5,491.5C 158.5,497.167 158.5,502.833 158.5,508.5C 181.833,508.5 205.167,508.5 228.5,508.5C 240.167,508.5 251.833,508.5 263.5,508.5C 263.5,502.833 263.5,497.167 263.5,491.5C 275.167,491.5 286.833,491.5 298.5,491.5C 298.5,485.833 298.5,480.167 298.5,474.5C 310.5,474.5 322.5,474.5 334.5,474.5C 334.5,468.5 334.5,462.5 334.5,456.5 Z"/></g>
<g><path style="opacity:1" fill="#1e1f1e" d="M 351.5,456.5 C 357.5,456.5 363.5,456.5 369.5,456.5C 369.5,462.167 369.5,467.833 369.5,473.5C 375.167,473.5 380.833,473.5 386.5,473.5C 386.5,479.5 386.5,485.5 386.5,491.5C 374.833,491.5 363.167,491.5 351.5,491.5C 351.5,479.833 351.5,468.167 351.5,456.5 Z"/></g>
<g><path style="opacity:1" fill="#3d88f9" d="M 421.5,456.5 C 433.167,456.5 444.833,456.5 456.5,456.5C 456.5,462.167 456.5,467.833 456.5,473.5C 468.167,473.5 479.833,473.5 491.5,473.5C 491.5,485.167 491.5,496.833 491.5,508.5C 485.833,508.5 480.167,508.5 474.5,508.5C 474.5,502.833 474.5,497.167 474.5,491.5C 462.833,491.5 451.167,491.5 439.5,491.5C 439.5,485.5 439.5,479.5 439.5,473.5C 433.5,473.5 427.5,473.5 421.5,473.5C 421.5,467.833 421.5,462.167 421.5,456.5 Z"/></g>
<g><path style="opacity:1" fill="#4b7865" d="M 245.5,473.5 C 245.833,473.5 246.167,473.5 246.5,473.5C 257.833,473.5 269.167,473.5 280.5,473.5C 280.833,473.5 281.167,473.5 281.5,473.5C 270.012,474.495 258.345,474.828 246.5,474.5C 246.822,480.358 246.489,486.025 245.5,491.5C 245.5,485.5 245.5,479.5 245.5,473.5 Z"/></g>
<g><path style="opacity:1" fill="#189595" d="M 334.5,456.5 C 334.5,462.5 334.5,468.5 334.5,474.5C 322.5,474.5 310.5,474.5 298.5,474.5C 309.988,473.505 321.655,473.172 333.5,473.5C 333.178,467.642 333.511,461.975 334.5,456.5 Z"/></g>
<g><path style="opacity:1" fill="#1e1f1e" d="M 492.5,473.5 C 498.167,473.5 503.833,473.5 509.5,473.5C 509.5,485.5 509.5,497.5 509.5,509.5C 503.833,509.5 498.167,509.5 492.5,509.5C 492.5,497.5 492.5,485.5 492.5,473.5 Z"/></g>
<g><path style="opacity:1" fill="#9b9c9b" d="M 158.5,474.5 C 164.167,474.5 169.833,474.5 175.5,474.5C 175.5,480.167 175.5,485.833 175.5,491.5C 169.833,491.5 164.167,491.5 158.5,491.5C 158.5,485.833 158.5,480.167 158.5,474.5 Z"/></g>
<g><path style="opacity:1" fill="#c1ae7e" d="M 210.5,473.5 C 210.833,473.5 211.167,473.5 211.5,473.5C 217.167,473.5 222.833,473.5 228.5,473.5C 228.5,473.833 228.5,474.167 228.5,474.5C 222.833,474.5 217.167,474.5 211.5,474.5C 211.5,480.167 211.5,485.833 211.5,491.5C 211.167,491.5 210.833,491.5 210.5,491.5C 210.5,485.5 210.5,479.5 210.5,473.5 Z"/></g>
<g><path style="opacity:1" fill="#9b9a9a" d="M 228.5,474.5 C 228.5,480.167 228.5,485.833 228.5,491.5C 222.833,491.5 217.167,491.5 211.5,491.5C 211.5,485.833 211.5,480.167 211.5,474.5C 217.167,474.5 222.833,474.5 228.5,474.5 Z"/></g>
<g><path style="opacity:1" fill="#542203" d="M 228.5,473.5 C 234.167,473.5 239.833,473.5 245.5,473.5C 245.5,479.5 245.5,485.5 245.5,491.5C 239.833,491.5 234.167,491.5 228.5,491.5C 228.5,485.833 228.5,480.167 228.5,474.5C 228.5,474.167 228.5,473.833 228.5,473.5 Z"/></g>
<g><path style="opacity:1" fill="#0c449b" d="M 386.5,473.5 C 398.167,473.5 409.833,473.5 421.5,473.5C 427.5,473.5 433.5,473.5 439.5,473.5C 439.5,479.5 439.5,485.5 439.5,491.5C 451.167,491.5 462.833,491.5 474.5,491.5C 474.5,497.167 474.5,502.833 474.5,508.5C 462.655,508.172 450.988,508.505 439.5,509.5C 439.5,515.5 439.5,521.5 439.5,527.5C 427.833,527.5 416.167,527.5 404.5,527.5C 387.008,526.503 369.341,526.17 351.5,526.5C 351.5,514.833 351.5,503.167 351.5,491.5C 363.167,491.5 374.833,491.5 386.5,491.5C 386.5,485.5 386.5,479.5 386.5,473.5 Z"/></g>
<g><path style="opacity:1" fill="#25406f" d="M 491.5,473.5 C 491.833,473.5 492.167,473.5 492.5,473.5C 492.5,485.5 492.5,497.5 492.5,509.5C 474.833,509.5 457.167,509.5 439.5,509.5C 450.988,508.505 462.655,508.172 474.5,508.5C 480.167,508.5 485.833,508.5 491.5,508.5C 491.5,496.833 491.5,485.167 491.5,473.5 Z"/></g>
<g><path style="opacity:1" fill="#1e1f1f" d="M 105.5,491.5 C 111.167,491.5 116.833,491.5 122.5,491.5C 122.5,503.167 122.5,514.833 122.5,526.5C 128.5,526.5 134.5,526.5 140.5,526.5C 140.5,532.167 140.5,537.833 140.5,543.5C 134.5,543.5 128.5,543.5 122.5,543.5C 122.5,538.167 122.5,532.833 122.5,527.5C 116.833,527.5 111.167,527.5 105.5,527.5C 105.5,515.5 105.5,503.5 105.5,491.5 Z"/></g>
<g><path style="opacity:1" fill="#511f00" d="M 158.5,491.5 C 164.167,491.5 169.833,491.5 175.5,491.5C 187.167,491.5 198.833,491.5 210.5,491.5C 210.833,491.5 211.167,491.5 211.5,491.5C 217.167,491.5 222.833,491.5 228.5,491.5C 228.5,497.167 228.5,502.833 228.5,508.5C 205.167,508.5 181.833,508.5 158.5,508.5C 158.5,502.833 158.5,497.167 158.5,491.5 Z"/></g>
<g><path style="opacity:1" fill="#1e2121" d="M 351.5,491.5 C 351.5,503.167 351.5,514.833 351.5,526.5C 345.5,526.5 339.5,526.5 333.5,526.5C 333.5,514.833 333.5,503.167 333.5,491.5C 339.5,491.5 345.5,491.5 351.5,491.5 Z"/></g>
<g><path style="opacity:1" fill="#1e1f1e" d="M 439.5,509.5 C 457.167,509.5 474.833,509.5 492.5,509.5C 492.5,515.5 492.5,521.5 492.5,527.5C 474.833,527.5 457.167,527.5 439.5,527.5C 439.5,521.5 439.5,515.5 439.5,509.5 Z"/></g>
<g><path style="opacity:1" fill="#1e2021" d="M 316.5,526.5 C 322.167,526.5 327.833,526.5 333.5,526.5C 333.5,532.5 333.5,538.5 333.5,544.5C 327.833,544.5 322.167,544.5 316.5,544.5C 316.5,538.5 316.5,532.5 316.5,526.5 Z"/></g>
<g><path style="opacity:1" fill="#1e1f1f" d="M 351.5,526.5 C 369.341,526.17 387.008,526.503 404.5,527.5C 404.5,533.167 404.5,538.833 404.5,544.5C 386.833,544.5 369.167,544.5 351.5,544.5C 351.5,538.5 351.5,532.5 351.5,526.5 Z"/></g>
<g><path style="opacity:1" fill="#0b439c" d="M 122.5,543.5 C 122.5,543.833 122.5,544.167 122.5,544.5C 122.5,550.167 122.5,555.833 122.5,561.5C 110.833,561.5 99.1667,561.5 87.5,561.5C 87.5,555.5 87.5,549.5 87.5,543.5C 99.1667,543.5 110.833,543.5 122.5,543.5 Z"/></g>
<g><path style="opacity:1" fill="#065f66" d="M 316.5,526.5 C 316.5,532.5 316.5,538.5 316.5,544.5C 304.833,544.5 293.167,544.5 281.5,544.5C 292.654,543.505 303.988,543.172 315.5,543.5C 315.178,537.642 315.511,531.975 316.5,526.5 Z"/></g>
<g><path style="opacity:1" fill="#3c87f7" d="M 122.5,544.5 C 128.5,544.5 134.5,544.5 140.5,544.5C 140.5,550.167 140.5,555.833 140.5,561.5C 152.167,561.5 163.833,561.5 175.5,561.5C 175.5,567.5 175.5,573.5 175.5,579.5C 169.833,579.5 164.167,579.5 158.5,579.5C 158.5,585.167 158.5,590.833 158.5,596.5C 152.5,596.5 146.5,596.5 140.5,596.5C 140.5,590.833 140.5,585.167 140.5,579.5C 134.833,579.5 129.167,579.5 123.5,579.5C 123.5,585.167 123.5,590.833 123.5,596.5C 117.5,596.5 111.5,596.5 105.5,596.5C 105.5,590.833 105.5,585.167 105.5,579.5C 99.8333,579.5 94.1667,579.5 88.5,579.5C 88.1667,579.5 87.8333,579.5 87.5,579.5C 87.5,573.5 87.5,567.5 87.5,561.5C 99.1667,561.5 110.833,561.5 122.5,561.5C 122.5,555.833 122.5,550.167 122.5,544.5 Z"/></g>
<g><path style="opacity:1" fill="#0c449c" d="M 140.5,544.5 C 152.167,544.5 163.833,544.5 175.5,544.5C 175.5,550.167 175.5,555.833 175.5,561.5C 163.833,561.5 152.167,561.5 140.5,561.5C 140.5,555.833 140.5,550.167 140.5,544.5 Z"/></g>
<g><path style="opacity:1" fill="#1f1f1f" d="M 281.5,544.5 C 293.167,544.5 304.833,544.5 316.5,544.5C 316.5,550.167 316.5,555.833 316.5,561.5C 304.833,561.5 293.167,561.5 281.5,561.5C 281.5,555.833 281.5,550.167 281.5,544.5 Z"/></g>
<g><path style="opacity:1" fill="#0c449c" d="M 333.5,526.5 C 339.5,526.5 345.5,526.5 351.5,526.5C 351.5,532.5 351.5,538.5 351.5,544.5C 345.833,544.5 340.167,544.5 334.5,544.5C 334.5,550.167 334.5,555.833 334.5,561.5C 333.51,567.31 333.177,573.31 333.5,579.5C 321.833,579.5 310.167,579.5 298.5,579.5C 298.5,585.167 298.5,590.833 298.5,596.5C 304.5,596.5 310.5,596.5 316.5,596.5C 316.5,602.5 316.5,608.5 316.5,614.5C 310.5,614.5 304.5,614.5 298.5,614.5C 298.5,608.833 298.5,603.167 298.5,597.5C 292.833,597.5 287.167,597.5 281.5,597.5C 281.5,591.5 281.5,585.5 281.5,579.5C 275.5,579.5 269.5,579.5 263.5,579.5C 263.5,573.5 263.5,567.5 263.5,561.5C 269.5,561.5 275.5,561.5 281.5,561.5C 293.167,561.5 304.833,561.5 316.5,561.5C 316.5,555.833 316.5,550.167 316.5,544.5C 322.167,544.5 327.833,544.5 333.5,544.5C 333.5,538.5 333.5,532.5 333.5,526.5 Z"/></g>
<g><path style="opacity:1" fill="#1e1f1e" d="M 334.5,561.5 C 340.167,561.5 345.833,561.5 351.5,561.5C 351.5,567.167 351.5,572.833 351.5,578.5C 351.5,572.833 351.5,567.167 351.5,561.5C 345.833,561.5 340.167,561.5 334.5,561.5 Z"/></g>
<g><path style="opacity:1" fill="#0b439a" d="M 87.5,561.5 C 87.5,567.5 87.5,573.5 87.5,579.5C 81.5,579.5 75.5,579.5 69.5,579.5C 69.5,573.5 69.5,567.5 69.5,561.5C 75.5,561.5 81.5,561.5 87.5,561.5 Z"/></g>
<g><path style="opacity:1" fill="#1e2020" d="M 193.5,561.5 C 216.833,561.5 240.167,561.5 263.5,561.5C 263.5,567.5 263.5,573.5 263.5,579.5C 240.167,579.5 216.833,579.5 193.5,579.5C 193.5,573.5 193.5,567.5 193.5,561.5 Z"/></g>
<g><path style="opacity:1" fill="#203454" d="M 334.5,561.5 C 334.5,567.167 334.5,572.833 334.5,578.5C 340.167,578.5 345.833,578.5 351.5,578.5C 351.5,578.833 351.5,579.167 351.5,579.5C 345.5,579.5 339.5,579.5 333.5,579.5C 333.177,573.31 333.51,567.31 334.5,561.5 Z"/></g>
<g><path style="opacity:1" fill="#1e1f1e" d="M 351.5,578.5 C 357.5,578.5 363.5,578.5 369.5,578.5C 369.5,590.5 369.5,602.5 369.5,614.5C 363.5,614.5 357.5,614.5 351.5,614.5C 351.5,608.5 351.5,602.5 351.5,596.5C 351.5,590.833 351.5,585.167 351.5,579.5C 351.5,579.167 351.5,578.833 351.5,578.5 Z"/></g>
<g><path style="opacity:1" fill="#1e1f1e" d="M 69.5,579.5 C 75.5,579.5 81.5,579.5 87.5,579.5C 87.5,585.5 87.5,591.5 87.5,597.5C 81.5,597.5 75.5,597.5 69.5,597.5C 69.5,591.5 69.5,585.5 69.5,579.5 Z"/></g>
<g><path style="opacity:1" fill="#0c439c" d="M 88.5,579.5 C 94.1667,579.5 99.8333,579.5 105.5,579.5C 105.5,585.167 105.5,590.833 105.5,596.5C 99.8333,596.5 94.1667,596.5 88.5,596.5C 88.5,590.833 88.5,585.167 88.5,579.5 Z"/></g>
<g><path style="opacity:1" fill="#0c439c" d="M 140.5,596.5 C 134.833,596.5 129.167,596.5 123.5,596.5C 123.5,590.833 123.5,585.167 123.5,579.5C 129.167,579.5 134.833,579.5 140.5,579.5C 140.5,585.167 140.5,590.833 140.5,596.5 Z"/></g>
<g><path style="opacity:1" fill="#0c449b" d="M 175.5,561.5 C 181.5,561.5 187.5,561.5 193.5,561.5C 193.5,567.5 193.5,573.5 193.5,579.5C 187.833,579.5 182.167,579.5 176.5,579.5C 176.5,585.5 176.5,591.5 176.5,597.5C 170.5,597.5 164.5,597.5 158.5,597.5C 158.5,597.167 158.5,596.833 158.5,596.5C 158.5,590.833 158.5,585.167 158.5,579.5C 164.167,579.5 169.833,579.5 175.5,579.5C 175.5,573.5 175.5,567.5 175.5,561.5 Z"/></g>
<g><path style="opacity:1" fill="#1f2022" d="M 263.5,579.5 C 269.5,579.5 275.5,579.5 281.5,579.5C 281.5,585.5 281.5,591.5 281.5,597.5C 281.5,603.167 281.5,608.833 281.5,614.5C 281.167,614.5 280.833,614.5 280.5,614.5C 274.833,614.5 269.167,614.5 263.5,614.5C 263.5,602.833 263.5,591.167 263.5,579.5 Z"/></g>
<g><path style="opacity:1" fill="#3d88f9" d="M 333.5,579.5 C 339.5,579.5 345.5,579.5 351.5,579.5C 351.5,585.167 351.5,590.833 351.5,596.5C 345.5,596.5 339.5,596.5 333.5,596.5C 333.5,602.5 333.5,608.5 333.5,614.5C 327.833,614.5 322.167,614.5 316.5,614.5C 316.5,608.5 316.5,602.5 316.5,596.5C 310.5,596.5 304.5,596.5 298.5,596.5C 298.5,590.833 298.5,585.167 298.5,579.5C 310.167,579.5 321.833,579.5 333.5,579.5 Z"/></g>
<g><path style="opacity:1" fill="#1e355d" d="M 87.5,579.5 C 87.8333,579.5 88.1667,579.5 88.5,579.5C 88.5,585.167 88.5,590.833 88.5,596.5C 94.1667,596.5 99.8333,596.5 105.5,596.5C 111.5,596.5 117.5,596.5 123.5,596.5C 129.167,596.5 134.833,596.5 140.5,596.5C 146.5,596.5 152.5,596.5 158.5,596.5C 158.5,596.833 158.5,597.167 158.5,597.5C 134.833,597.5 111.167,597.5 87.5,597.5C 87.5,591.5 87.5,585.5 87.5,579.5 Z"/></g>
<g><path style="opacity:1" fill="#1e1f1e" d="M 87.5,597.5 C 111.167,597.5 134.833,597.5 158.5,597.5C 158.5,603.167 158.5,608.833 158.5,614.5C 134.833,614.5 111.167,614.5 87.5,614.5C 87.5,608.833 87.5,603.167 87.5,597.5 Z"/></g>
<g><path style="opacity:1" fill="#3e88f8" d="M 281.5,597.5 C 287.167,597.5 292.833,597.5 298.5,597.5C 298.5,603.167 298.5,608.833 298.5,614.5C 292.833,614.5 287.167,614.5 281.5,614.5C 281.5,608.833 281.5,603.167 281.5,597.5 Z"/></g>
<g><path style="opacity:1" fill="#0e459e" d="M 351.5,596.5 C 351.5,602.5 351.5,608.5 351.5,614.5C 345.5,614.5 339.5,614.5 333.5,614.5C 333.5,608.5 333.5,602.5 333.5,596.5C 339.5,596.5 345.5,596.5 351.5,596.5 Z"/></g>
<g><path style="opacity:1" fill="#1e1f1e" d="M 280.5,614.5 C 280.833,614.5 281.167,614.5 281.5,614.5C 287.167,614.5 292.833,614.5 298.5,614.5C 304.5,614.5 310.5,614.5 316.5,614.5C 322.167,614.5 327.833,614.5 333.5,614.5C 339.5,614.5 345.5,614.5 351.5,614.5C 351.5,620.167 351.5,625.833 351.5,631.5C 327.833,631.5 304.167,631.5 280.5,631.5C 280.5,625.833 280.5,620.167 280.5,614.5 Z"/></g>
</svg>
