<?xml version="1.0" encoding="UTF-8"?>
<!DOCTYPE svg PUBLIC "-//W3C//DTD SVG 1.1//EN" "http://www.w3.org/Graphics/SVG/1.1/DTD/svg11.dtd">
<svg xmlns="http://www.w3.org/2000/svg" version="1.1" width="680px" height="666px" style="shape-rendering:geometricPrecision; text-rendering:geometricPrecision; image-rendering:optimizeQuality; fill-rule:evenodd; clip-rule:evenodd" xmlns:xlink="http://www.w3.org/1999/xlink">
<g><path style="opacity:1" fill="#005000" d="M 460.5,100.5 C 460.167,100.5 459.833,100.5 459.5,100.5C 433.833,100.5 408.167,100.5 382.5,100.5C 382.5,95.1667 382.5,89.8333 382.5,84.5C 408.5,84.5 434.5,84.5 460.5,84.5C 460.5,89.8333 460.5,95.1667 460.5,100.5 Z"/></g>
<g><path style="opacity:1" fill="#005100" d="M 382.5,100.5 C 382.5,105.5 382.5,110.5 382.5,115.5C 372.167,115.5 361.833,115.5 351.5,115.5C 351.5,110.5 351.5,105.5 351.5,100.5C 361.833,100.5 372.167,100.5 382.5,100.5 Z"/></g>
<g><path style="opacity:1" fill="#08af01" d="M 382.5,100.5 C 408.167,100.5 433.833,100.5 459.5,100.5C 459.5,105.833 459.5,111.167 459.5,116.5C 469.833,116.5 480.167,116.5 490.5,116.5C 490.179,121.695 490.513,126.695 491.5,131.5C 501.833,131.5 512.167,131.5 522.5,131.5C 522.5,136.833 522.5,142.167 522.5,147.5C 542.836,147.667 563.169,147.5 583.5,147C 584.471,141.928 584.805,136.762 584.5,131.5C 599.833,131.5 615.167,131.5 630.5,131.5C 630.5,136.833 630.5,142.167 630.5,147.5C 620.167,147.5 609.833,147.5 599.5,147.5C 599.5,152.5 599.5,157.5 599.5,162.5C 578.833,162.5 558.167,162.5 537.5,162.5C 537.5,167.833 537.5,173.167 537.5,178.5C 516.833,178.5 496.167,178.5 475.5,178.5C 475.5,178.167 475.5,177.833 475.5,177.5C 475.5,172.5 475.5,167.5 475.5,162.5C 470.5,162.5 465.5,162.5 460.5,162.5C 460.5,157.5 460.5,152.5 460.5,147.5C 450.167,147.5 439.833,147.5 429.5,147.5C 429.5,142.167 429.5,136.833 429.5,131.5C 414.167,131.5 398.833,131.5 383.5,131.5C 383.805,136.762 383.471,141.928 382.5,147C 372.506,147.5 362.506,147.666 352.5,147.5C 352.5,152.5 352.5,157.5 352.5,162.5C 347.167,162.5 341.833,162.5 336.5,162.5C 336.5,188.167 336.5,213.833 336.5,239.5C 341.5,239.5 346.5,239.5 351.5,239.5C 351.833,239.5 352.167,239.5 352.5,239.5C 352.5,244.833 352.5,250.167 352.5,255.5C 352.5,260.5 352.5,265.5 352.5,270.5C 357.5,270.5 362.5,270.5 367.5,270.5C 367.5,275.833 367.5,281.167 367.5,286.5C 367.5,291.5 367.5,296.5 367.5,301.5C 362.167,301.5 356.833,301.5 351.5,301.5C 351.5,296.5 351.5,291.5 351.5,286.5C 346.5,286.5 341.5,286.5 336.5,286.5C 336.5,281.167 336.5,275.833 336.5,270.5C 331.5,270.5 326.5,270.5 321.5,270.5C 321.5,260.167 321.5,249.833 321.5,239.5C 316.167,239.5 310.833,239.5 305.5,239.5C 305.5,229.167 305.5,218.833 305.5,208.5C 305.5,198.167 305.5,187.833 305.5,177.5C 310.5,177.5 315.5,177.5 320.5,177.5C 321.494,167.681 321.827,157.681 321.5,147.5C 326.695,147.821 331.695,147.487 336.5,146.5C 336.5,141.5 336.5,136.5 336.5,131.5C 341.5,131.5 346.5,131.5 351.5,131.5C 352.487,126.695 352.821,121.695 352.5,116.5C 362.681,116.827 372.681,116.494 382.5,115.5C 382.5,110.5 382.5,105.5 382.5,100.5 Z"/></g>
<g><path style="opacity:1" fill="#005100" d="M 460.5,100.5 C 470.833,100.5 481.167,100.5 491.5,100.5C 491.5,105.5 491.5,110.5 491.5,115.5C 481.167,115.5 470.833,115.5 460.5,115.5C 460.5,110.5 460.5,105.5 460.5,100.5 Z"/></g>
<g><path style="opacity:1" fill="#005100" d="M 351.5,115.5 C 351.5,120.833 351.5,126.167 351.5,131.5C 346.5,131.5 341.5,131.5 336.5,131.5C 336.5,126.167 336.5,120.833 336.5,115.5C 341.5,115.5 346.5,115.5 351.5,115.5 Z"/></g>
<g><path style="opacity:1" fill="#008400" d="M 459.5,100.5 C 459.833,100.5 460.167,100.5 460.5,100.5C 460.5,105.5 460.5,110.5 460.5,115.5C 470.833,115.5 481.167,115.5 491.5,115.5C 491.5,120.833 491.5,126.167 491.5,131.5C 490.513,126.695 490.179,121.695 490.5,116.5C 480.167,116.5 469.833,116.5 459.5,116.5C 459.5,111.167 459.5,105.833 459.5,100.5 Z"/></g>
<g><path style="opacity:1" fill="#005000" d="M 491.5,115.5 C 501.833,115.5 512.167,115.5 522.5,115.5C 522.5,120.833 522.5,126.167 522.5,131.5C 512.167,131.5 501.833,131.5 491.5,131.5C 491.5,126.167 491.5,120.833 491.5,115.5 Z"/></g>
<g><path style="opacity:1" fill="#005200" d="M 646.5,131.5 C 641.167,131.5 635.833,131.5 630.5,131.5C 615.167,131.5 599.833,131.5 584.5,131.5C 584.805,136.762 584.471,141.928 583.5,147C 563.169,147.5 542.836,147.667 522.5,147.5C 522.5,142.167 522.5,136.833 522.5,131.5C 542.833,131.5 563.167,131.5 583.5,131.5C 583.5,126.167 583.5,120.833 583.5,115.5C 604.5,115.5 625.5,115.5 646.5,115.5C 646.5,120.833 646.5,126.167 646.5,131.5 Z"/></g>
<g><path style="opacity:1" fill="#007c00" d="M 351.5,115.5 C 361.833,115.5 372.167,115.5 382.5,115.5C 372.681,116.494 362.681,116.827 352.5,116.5C 352.821,121.695 352.487,126.695 351.5,131.5C 351.5,126.167 351.5,120.833 351.5,115.5 Z"/></g>
<g><path style="opacity:1" fill="#005100" d="M 336.5,131.5 C 336.5,136.5 336.5,141.5 336.5,146.5C 331.167,146.5 325.833,146.5 320.5,146.5C 320.5,141.5 320.5,136.5 320.5,131.5C 325.833,131.5 331.167,131.5 336.5,131.5 Z"/></g>
<g><path style="opacity:1" fill="#f9d924" d="M 475.5,177.5 C 460.167,177.5 444.833,177.5 429.5,177.5C 413.833,177.5 398.167,177.5 382.5,177.5C 372.167,177.5 361.833,177.5 351.5,177.5C 351.5,198.167 351.5,218.833 351.5,239.5C 346.5,239.5 341.5,239.5 336.5,239.5C 336.5,213.833 336.5,188.167 336.5,162.5C 341.833,162.5 347.167,162.5 352.5,162.5C 352.5,157.5 352.5,152.5 352.5,147.5C 362.506,147.666 372.506,147.5 382.5,147C 383.471,141.928 383.805,136.762 383.5,131.5C 398.833,131.5 414.167,131.5 429.5,131.5C 429.5,136.833 429.5,142.167 429.5,147.5C 439.833,147.5 450.167,147.5 460.5,147.5C 460.5,152.5 460.5,157.5 460.5,162.5C 465.5,162.5 470.5,162.5 475.5,162.5C 475.5,167.5 475.5,172.5 475.5,177.5 Z"/></g>
<g><path style="opacity:1" fill="#050505" d="M 630.5,131.5 C 635.833,131.5 641.167,131.5 646.5,131.5C 646.5,141.833 646.5,152.167 646.5,162.5C 641.167,162.5 635.833,162.5 630.5,162.5C 630.5,157.5 630.5,152.5 630.5,147.5C 630.5,142.167 630.5,136.833 630.5,131.5 Z"/></g>
<g><path style="opacity:1" fill="#005100" d="M 320.5,146.5 C 320.5,156.833 320.5,167.167 320.5,177.5C 315.5,177.5 310.5,177.5 305.5,177.5C 305.5,167.167 305.5,156.833 305.5,146.5C 310.5,146.5 315.5,146.5 320.5,146.5 Z"/></g>
<g><path style="opacity:1" fill="#007c00" d="M 320.5,146.5 C 325.833,146.5 331.167,146.5 336.5,146.5C 331.695,147.487 326.695,147.821 321.5,147.5C 321.827,157.681 321.494,167.681 320.5,177.5C 320.5,167.167 320.5,156.833 320.5,146.5 Z"/></g>
<g><path style="opacity:1" fill="#f9f2ba" d="M 630.5,147.5 C 630.5,152.5 630.5,157.5 630.5,162.5C 625.167,162.5 619.833,162.5 614.5,162.5C 614.5,172.833 614.5,183.167 614.5,193.5C 609.5,193.5 604.5,193.5 599.5,193.5C 599.5,198.5 599.5,203.5 599.5,208.5C 594.167,208.5 588.833,208.5 583.5,208.5C 583.5,213.833 583.5,219.167 583.5,224.5C 583.5,229.5 583.5,234.5 583.5,239.5C 578.305,239.179 573.305,239.513 568.5,240.5C 568.5,245.5 568.5,250.5 568.5,255.5C 563.5,255.5 558.5,255.5 553.5,255.5C 553.167,255.5 552.833,255.5 552.5,255.5C 547.5,255.5 542.5,255.5 537.5,255.5C 537.5,260.5 537.5,265.5 537.5,270.5C 532.5,270.5 527.5,270.5 522.5,270.5C 522.5,265.167 522.5,259.833 522.5,254.5C 516.974,254.179 511.64,254.512 506.5,255.5C 501.5,255.5 496.5,255.5 491.5,255.5C 491.5,260.5 491.5,265.5 491.5,270.5C 496.5,270.5 501.5,270.5 506.5,270.5C 511.5,270.5 516.5,270.5 521.5,270.5C 521.5,275.5 521.5,280.5 521.5,285.5C 511.319,285.173 501.319,285.506 491.5,286.5C 491.5,291.5 491.5,296.5 491.5,301.5C 475.833,301.5 460.167,301.5 444.5,301.5C 444.5,306.833 444.5,312.167 444.5,317.5C 439.5,317.5 434.5,317.5 429.5,317.5C 419.167,317.5 408.833,317.5 398.5,317.5C 398.5,312.167 398.5,306.833 398.5,301.5C 393.5,301.5 388.5,301.5 383.5,301.5C 383.167,301.5 382.833,301.5 382.5,301.5C 382.5,296.5 382.5,291.5 382.5,286.5C 382.5,276.167 382.5,265.833 382.5,255.5C 387.833,255.5 393.167,255.5 398.5,255.5C 408.833,255.5 419.167,255.5 429.5,255.5C 434.5,255.5 439.5,255.5 444.5,255.5C 449.833,255.5 455.167,255.5 460.5,255.5C 460.5,250.167 460.5,244.833 460.5,239.5C 465.5,239.5 470.5,239.5 475.5,239.5C 475.5,224.167 475.5,208.833 475.5,193.5C 475.5,188.5 475.5,183.5 475.5,178.5C 496.167,178.5 516.833,178.5 537.5,178.5C 537.5,173.167 537.5,167.833 537.5,162.5C 558.167,162.5 578.833,162.5 599.5,162.5C 599.5,157.5 599.5,152.5 599.5,147.5C 609.833,147.5 620.167,147.5 630.5,147.5 Z"/></g>
<g><path style="opacity:1" fill="#0e0d0c" d="M 630.5,162.5 C 630.5,172.833 630.5,183.167 630.5,193.5C 625.5,193.5 620.5,193.5 615.5,193.5C 615.167,193.5 614.833,193.5 614.5,193.5C 614.5,183.167 614.5,172.833 614.5,162.5C 619.833,162.5 625.167,162.5 630.5,162.5 Z"/></g>
<g><path style="opacity:1" fill="#005000" d="M 305.5,177.5 C 305.5,187.833 305.5,198.167 305.5,208.5C 300.167,208.5 294.833,208.5 289.5,208.5C 289.5,198.167 289.5,187.833 289.5,177.5C 294.833,177.5 300.167,177.5 305.5,177.5 Z"/></g>
<g><path style="opacity:1" fill="#9c6928" d="M 382.5,177.5 C 398.167,177.5 413.833,177.5 429.5,177.5C 429.5,177.833 429.5,178.167 429.5,178.5C 424.167,178.5 418.833,178.5 413.5,178.5C 408.5,178.5 403.5,178.5 398.5,178.5C 393.5,178.5 388.5,178.5 383.5,178.5C 383.5,183.5 383.5,188.5 383.5,193.5C 383.5,208.833 383.5,224.167 383.5,239.5C 383.167,239.5 382.833,239.5 382.5,239.5C 382.5,224.167 382.5,208.833 382.5,193.5C 382.5,188.5 382.5,183.5 382.5,178.5C 382.5,178.167 382.5,177.833 382.5,177.5 Z"/></g>
<g><path style="opacity:1" fill="#dfb810" d="M 382.5,177.5 C 382.5,177.833 382.5,178.167 382.5,178.5C 372.5,178.5 362.5,178.5 352.5,178.5C 352.5,198.833 352.5,219.167 352.5,239.5C 352.167,239.5 351.833,239.5 351.5,239.5C 351.5,218.833 351.5,198.167 351.5,177.5C 361.833,177.5 372.167,177.5 382.5,177.5 Z"/></g>
<g><path style="opacity:1" fill="#c19600" d="M 382.5,178.5 C 382.5,183.5 382.5,188.5 382.5,193.5C 377.5,193.5 372.5,193.5 367.5,193.5C 367.5,208.833 367.5,224.167 367.5,239.5C 362.5,239.5 357.5,239.5 352.5,239.5C 352.5,219.167 352.5,198.833 352.5,178.5C 362.5,178.5 372.5,178.5 382.5,178.5 Z"/></g>
<g><path style="opacity:1" fill="#561e00" d="M 398.5,178.5 C 398.5,183.5 398.5,188.5 398.5,193.5C 393.5,193.5 388.5,193.5 383.5,193.5C 383.5,188.5 383.5,183.5 383.5,178.5C 388.5,178.5 393.5,178.5 398.5,178.5 Z"/></g>
<g><path style="opacity:1" fill="#070605" d="M 398.5,178.5 C 403.5,178.5 408.5,178.5 413.5,178.5C 413.5,183.5 413.5,188.5 413.5,193.5C 413.5,198.5 413.5,203.5 413.5,208.5C 413.5,213.833 413.5,219.167 413.5,224.5C 408.5,224.5 403.5,224.5 398.5,224.5C 398.5,214.167 398.5,203.833 398.5,193.5C 398.5,188.5 398.5,183.5 398.5,178.5 Z"/></g>
<g><path style="opacity:1" fill="#8d3901" d="M 413.5,178.5 C 418.833,178.5 424.167,178.5 429.5,178.5C 429.5,183.5 429.5,188.5 429.5,193.5C 424.167,193.5 418.833,193.5 413.5,193.5C 413.5,188.5 413.5,183.5 413.5,178.5 Z"/></g>
<g><path style="opacity:1" fill="#c29701" d="M 429.5,177.5 C 444.833,177.5 460.167,177.5 475.5,177.5C 475.5,177.833 475.5,178.167 475.5,178.5C 475.5,183.5 475.5,188.5 475.5,193.5C 470.5,193.5 465.5,193.5 460.5,193.5C 455.167,193.5 449.833,193.5 444.5,193.5C 439.5,193.5 434.5,193.5 429.5,193.5C 429.5,188.5 429.5,183.5 429.5,178.5C 429.5,178.167 429.5,177.833 429.5,177.5 Z"/></g>
<g><path style="opacity:1" fill="#c2bb62" d="M 583.5,193.5 C 583.5,188.5 583.5,183.5 583.5,178.5C 578.5,178.5 573.5,178.5 568.5,178.5C 568.5,183.5 568.5,188.5 568.5,193.5C 563.167,193.5 557.833,193.5 552.5,193.5C 552.5,188.167 552.5,182.833 552.5,177.5C 563.167,177.5 573.833,177.5 584.5,177.5C 584.821,183.026 584.488,188.36 583.5,193.5 Z"/></g>
<g><path style="opacity:1" fill="#89772c" d="M 583.5,193.5 C 578.5,193.5 573.5,193.5 568.5,193.5C 568.5,188.5 568.5,183.5 568.5,178.5C 573.5,178.5 578.5,178.5 583.5,178.5C 583.5,183.5 583.5,188.5 583.5,193.5 Z"/></g>
<g><path style="opacity:1" fill="#f9faf9" d="M 382.5,193.5 C 382.5,208.833 382.5,224.167 382.5,239.5C 377.5,239.5 372.5,239.5 367.5,239.5C 367.5,224.167 367.5,208.833 367.5,193.5C 372.5,193.5 377.5,193.5 382.5,193.5 Z"/></g>
<g><path style="opacity:1" fill="#8e3700" d="M 383.5,193.5 C 388.5,193.5 393.5,193.5 398.5,193.5C 398.5,203.833 398.5,214.167 398.5,224.5C 403.5,224.5 408.5,224.5 413.5,224.5C 413.5,219.167 413.5,213.833 413.5,208.5C 413.833,208.5 414.167,208.5 414.5,208.5C 414.5,213.833 414.5,219.167 414.5,224.5C 419.5,224.5 424.5,224.5 429.5,224.5C 429.5,219.167 429.5,213.833 429.5,208.5C 434.5,208.5 439.5,208.5 444.5,208.5C 444.5,218.833 444.5,229.167 444.5,239.5C 439.5,239.5 434.5,239.5 429.5,239.5C 419.167,239.5 408.833,239.5 398.5,239.5C 393.5,239.5 388.5,239.5 383.5,239.5C 383.5,224.167 383.5,208.833 383.5,193.5 Z"/></g>
<g><path style="opacity:1" fill="#f3f2f2" d="M 413.5,193.5 C 418.833,193.5 424.167,193.5 429.5,193.5C 429.5,198.5 429.5,203.5 429.5,208.5C 424.5,208.5 419.5,208.5 414.5,208.5C 414.167,208.5 413.833,208.5 413.5,208.5C 413.5,203.5 413.5,198.5 413.5,193.5 Z"/></g>
<g><path style="opacity:1" fill="#561f00" d="M 429.5,193.5 C 434.5,193.5 439.5,193.5 444.5,193.5C 444.5,198.5 444.5,203.5 444.5,208.5C 439.5,208.5 434.5,208.5 429.5,208.5C 429.5,203.5 429.5,198.5 429.5,193.5 Z"/></g>
<g><path style="opacity:1" fill="#f7f6f3" d="M 444.5,193.5 C 449.833,193.5 455.167,193.5 460.5,193.5C 460.5,208.833 460.5,224.167 460.5,239.5C 455.167,239.5 449.833,239.5 444.5,239.5C 444.5,229.167 444.5,218.833 444.5,208.5C 444.5,203.5 444.5,198.5 444.5,193.5 Z"/></g>
<g><path style="opacity:1" fill="#c0bb5c" d="M 460.5,193.5 C 465.5,193.5 470.5,193.5 475.5,193.5C 475.5,208.833 475.5,224.167 475.5,239.5C 470.5,239.5 465.5,239.5 460.5,239.5C 460.5,224.167 460.5,208.833 460.5,193.5 Z"/></g>
<g><path style="opacity:1" fill="#050605" d="M 614.5,193.5 C 614.833,193.5 615.167,193.5 615.5,193.5C 615.5,198.5 615.5,203.5 615.5,208.5C 610.167,208.5 604.833,208.5 599.5,208.5C 599.5,203.5 599.5,198.5 599.5,193.5C 604.5,193.5 609.5,193.5 614.5,193.5 Z"/></g>
<g><path style="opacity:1" fill="#060a05" d="M 166.5,223.5 C 166.5,223.833 166.5,224.167 166.5,224.5C 161.5,224.5 156.5,224.5 151.5,224.5C 151.167,224.5 150.833,224.5 150.5,224.5C 150.5,224.167 150.5,223.833 150.5,223.5C 150.5,218.5 150.5,213.5 150.5,208.5C 155.833,208.5 161.167,208.5 166.5,208.5C 166.5,213.5 166.5,218.5 166.5,223.5 Z"/></g>
<g><path style="opacity:1" fill="#050705" d="M 289.5,208.5 C 294.833,208.5 300.167,208.5 305.5,208.5C 305.5,218.833 305.5,229.167 305.5,239.5C 305.5,239.833 305.5,240.167 305.5,240.5C 300.167,240.5 294.833,240.5 289.5,240.5C 289.5,229.833 289.5,219.167 289.5,208.5 Z"/></g>
<g><path style="opacity:1" fill="#d97740" d="M 414.5,208.5 C 419.5,208.5 424.5,208.5 429.5,208.5C 429.5,213.833 429.5,219.167 429.5,224.5C 424.5,224.5 419.5,224.5 414.5,224.5C 414.5,219.167 414.5,213.833 414.5,208.5 Z"/></g>
<g><path style="opacity:1" fill="#c4bd61" d="M 599.5,208.5 C 599.5,213.5 599.5,218.5 599.5,223.5C 594.305,223.179 589.305,223.513 584.5,224.5C 584.167,224.5 583.833,224.5 583.5,224.5C 583.5,219.167 583.5,213.833 583.5,208.5C 588.833,208.5 594.167,208.5 599.5,208.5 Z"/></g>
<g><path style="opacity:1" fill="#86742c" d="M 599.5,208.5 C 604.833,208.5 610.167,208.5 615.5,208.5C 615.5,213.833 615.5,219.167 615.5,224.5C 610.167,224.5 604.833,224.5 599.5,224.5C 594.5,224.5 589.5,224.5 584.5,224.5C 589.305,223.513 594.305,223.179 599.5,223.5C 599.5,218.5 599.5,213.5 599.5,208.5 Z"/></g>
<g><path style="opacity:1" fill="#050605" d="M 150.5,223.5 C 150.5,223.833 150.5,224.167 150.5,224.5C 150.5,239.833 150.5,255.167 150.5,270.5C 145.5,270.5 140.5,270.5 135.5,270.5C 135.5,254.833 135.5,239.167 135.5,223.5C 140.5,223.5 145.5,223.5 150.5,223.5 Z"/></g>
<g><path style="opacity:1" fill="#050605" d="M 166.5,223.5 C 171.833,223.5 177.167,223.5 182.5,223.5C 182.5,228.833 182.5,234.167 182.5,239.5C 177.167,239.5 171.833,239.5 166.5,239.5C 166.5,234.5 166.5,229.5 166.5,224.5C 166.5,224.167 166.5,223.833 166.5,223.5 Z"/></g>
<g><path style="opacity:1" fill="#007400" d="M 150.5,224.5 C 150.833,224.5 151.167,224.5 151.5,224.5C 151.5,245.167 151.5,265.833 151.5,286.5C 146.167,286.5 140.833,286.5 135.5,286.5C 135.5,286.167 135.5,285.833 135.5,285.5C 140.5,285.5 145.5,285.5 150.5,285.5C 150.5,280.5 150.5,275.5 150.5,270.5C 150.5,255.167 150.5,239.833 150.5,224.5 Z"/></g>
<g><path style="opacity:1" fill="#00ae00" d="M 151.5,224.5 C 156.5,224.5 161.5,224.5 166.5,224.5C 166.5,229.5 166.5,234.5 166.5,239.5C 171.305,240.487 176.305,240.821 181.5,240.5C 181.173,250.681 181.506,260.681 182.5,270.5C 187.5,270.5 192.5,270.5 197.5,270.5C 197.5,280.833 197.5,291.167 197.5,301.5C 202.5,301.5 207.5,301.5 212.5,301.5C 212.5,311.833 212.5,322.167 212.5,332.5C 217.5,332.5 222.5,332.5 227.5,332.5C 227.5,337.833 227.5,343.167 227.5,348.5C 233.167,348.5 238.833,348.5 244.5,348.5C 244.5,338.167 244.5,327.833 244.5,317.5C 249.5,317.5 254.5,317.5 259.5,317.5C 259.5,307.167 259.5,296.833 259.5,286.5C 264.5,286.5 269.5,286.5 274.5,286.5C 274.5,301.833 274.5,317.167 274.5,332.5C 279.5,332.5 284.5,332.5 289.5,332.5C 289.5,358.167 289.5,383.833 289.5,409.5C 284.305,409.179 279.305,409.513 274.5,410.5C 274.5,420.5 274.5,430.5 274.5,440.5C 264.167,440.5 253.833,440.5 243.5,440.5C 243.5,435.5 243.5,430.5 243.5,425.5C 238.5,425.5 233.5,425.5 228.5,425.5C 228.5,420.167 228.5,414.833 228.5,409.5C 228.5,404.5 228.5,399.5 228.5,394.5C 223.167,394.5 217.833,394.5 212.5,394.5C 212.5,389.5 212.5,384.5 212.5,379.5C 207.5,379.5 202.5,379.5 197.5,379.5C 197.5,384.5 197.5,389.5 197.5,394.5C 192.167,394.5 186.833,394.5 181.5,394.5C 181.5,404.833 181.5,415.167 181.5,425.5C 186.833,425.5 192.167,425.5 197.5,425.5C 197.5,435.5 197.5,445.5 197.5,455.5C 192.305,455.179 187.305,455.513 182.5,456.5C 181.513,461.305 181.179,466.305 181.5,471.5C 176.5,471.5 171.5,471.5 166.5,471.5C 166.5,476.5 166.5,481.5 166.5,486.5C 151.167,486.5 135.833,486.5 120.5,486.5C 120.821,481.305 120.487,476.305 119.5,471.5C 109.5,471.5 99.5,471.5 89.5,471.5C 89.8205,466.305 89.4872,461.305 88.5,456.5C 83.5,456.5 78.5,456.5 73.5,456.5C 73.5,446.167 73.5,435.833 73.5,425.5C 68.5,425.5 63.5,425.5 58.5,425.5C 58.5,409.833 58.5,394.167 58.5,378.5C 53.5,378.5 48.5,378.5 43.5,378.5C 43.5,358.167 43.5,337.833 43.5,317.5C 48.1667,317.5 52.8333,317.5 57.5,317.5C 57.1795,322.695 57.5128,327.695 58.5,332.5C 68.5,332.5 78.5,332.5 88.5,332.5C 88.3341,337.511 88.5007,342.511 89,347.5C 94.0717,348.471 99.2384,348.805 104.5,348.5C 104.5,353.5 104.5,358.5 104.5,363.5C 114.833,363.5 125.167,363.5 135.5,363.5C 135.5,353.167 135.5,342.833 135.5,332.5C 135.5,317.167 135.5,301.833 135.5,286.5C 140.833,286.5 146.167,286.5 151.5,286.5C 151.5,265.833 151.5,245.167 151.5,224.5 Z"/></g>
<g><path style="opacity:1" fill="#050605" d="M 584.5,224.5 C 589.5,224.5 594.5,224.5 599.5,224.5C 599.5,229.833 599.5,235.167 599.5,240.5C 594.5,240.5 589.5,240.5 584.5,240.5C 584.5,235.167 584.5,229.833 584.5,224.5 Z"/></g>
<g><path style="opacity:1" fill="#005000" d="M 182.5,239.5 C 187.5,239.5 192.5,239.5 197.5,239.5C 197.5,249.833 197.5,260.167 197.5,270.5C 192.5,270.5 187.5,270.5 182.5,270.5C 182.5,260.167 182.5,249.833 182.5,239.5 Z"/></g>
<g><path style="opacity:1" fill="#55513f" d="M 583.5,224.5 C 583.833,224.5 584.167,224.5 584.5,224.5C 584.5,229.833 584.5,235.167 584.5,240.5C 579.167,240.5 573.833,240.5 568.5,240.5C 573.305,239.513 578.305,239.179 583.5,239.5C 583.5,234.5 583.5,229.5 583.5,224.5 Z"/></g>
<g><path style="opacity:1" fill="#007900" d="M 166.5,239.5 C 171.833,239.5 177.167,239.5 182.5,239.5C 182.5,249.833 182.5,260.167 182.5,270.5C 181.506,260.681 181.173,250.681 181.5,240.5C 176.305,240.821 171.305,240.487 166.5,239.5 Z"/></g>
<g><path style="opacity:1" fill="#050605" d="M 305.5,240.5 C 310.5,240.5 315.5,240.5 320.5,240.5C 320.173,250.681 320.506,260.681 321.5,270.5C 326.5,270.5 331.5,270.5 336.5,270.5C 336.5,275.833 336.5,281.167 336.5,286.5C 331.167,286.5 325.833,286.5 320.5,286.5C 320.5,281.5 320.5,276.5 320.5,271.5C 315.5,271.5 310.5,271.5 305.5,271.5C 305.5,261.167 305.5,250.833 305.5,240.5 Z"/></g>
<g><path style="opacity:1" fill="#005201" d="M 305.5,240.5 C 305.5,240.167 305.5,239.833 305.5,239.5C 310.833,239.5 316.167,239.5 321.5,239.5C 321.5,249.833 321.5,260.167 321.5,270.5C 320.506,260.681 320.173,250.681 320.5,240.5C 315.5,240.5 310.5,240.5 305.5,240.5 Z"/></g>
<g><path style="opacity:1" fill="#f8d723" d="M 352.5,239.5 C 357.5,239.5 362.5,239.5 367.5,239.5C 367.5,244.833 367.5,250.167 367.5,255.5C 362.5,255.5 357.5,255.5 352.5,255.5C 352.5,250.167 352.5,244.833 352.5,239.5 Z"/></g>
<g><path style="opacity:1" fill="#c2bc5e" d="M 367.5,239.5 C 372.5,239.5 377.5,239.5 382.5,239.5C 382.5,244.833 382.5,250.167 382.5,255.5C 377.5,255.5 372.5,255.5 367.5,255.5C 367.5,250.167 367.5,244.833 367.5,239.5 Z"/></g>
<g><path style="opacity:1" fill="#f6f5f1" d="M 382.5,239.5 C 382.833,239.5 383.167,239.5 383.5,239.5C 388.5,239.5 393.5,239.5 398.5,239.5C 398.5,244.833 398.5,250.167 398.5,255.5C 393.167,255.5 387.833,255.5 382.5,255.5C 382.5,250.167 382.5,244.833 382.5,239.5 Z"/></g>
<g><path style="opacity:1" fill="#5a2304" d="M 398.5,239.5 C 408.833,239.5 419.167,239.5 429.5,239.5C 429.5,244.833 429.5,250.167 429.5,255.5C 419.167,255.5 408.833,255.5 398.5,255.5C 398.5,250.167 398.5,244.833 398.5,239.5 Z"/></g>
<g><path style="opacity:1" fill="#f8f7f5" d="M 429.5,239.5 C 434.5,239.5 439.5,239.5 444.5,239.5C 444.5,244.833 444.5,250.167 444.5,255.5C 439.5,255.5 434.5,255.5 429.5,255.5C 429.5,250.167 429.5,244.833 429.5,239.5 Z"/></g>
<g><path style="opacity:1" fill="#c3bd62" d="M 444.5,239.5 C 449.833,239.5 455.167,239.5 460.5,239.5C 460.5,244.833 460.5,250.167 460.5,255.5C 455.167,255.5 449.833,255.5 444.5,255.5C 444.5,250.167 444.5,244.833 444.5,239.5 Z"/></g>
<g><path style="opacity:1" fill="#050605" d="M 568.5,240.5 C 573.833,240.5 579.167,240.5 584.5,240.5C 584.5,245.5 584.5,250.5 584.5,255.5C 579.167,255.5 573.833,255.5 568.5,255.5C 568.5,250.5 568.5,245.5 568.5,240.5 Z"/></g>
<g><path style="opacity:1" fill="#c09600" d="M 352.5,255.5 C 357.5,255.5 362.5,255.5 367.5,255.5C 367.5,260.5 367.5,265.5 367.5,270.5C 362.5,270.5 357.5,270.5 352.5,270.5C 352.5,265.5 352.5,260.5 352.5,255.5 Z"/></g>
<g><path style="opacity:1" fill="#f9d924" d="M 367.5,255.5 C 372.5,255.5 377.5,255.5 382.5,255.5C 382.5,265.833 382.5,276.167 382.5,286.5C 377.5,286.5 372.5,286.5 367.5,286.5C 367.5,281.167 367.5,275.833 367.5,270.5C 367.5,265.5 367.5,260.5 367.5,255.5 Z"/></g>
<g><path style="opacity:1" fill="#88762a" d="M 506.5,255.5 C 506.5,260.5 506.5,265.5 506.5,270.5C 501.5,270.5 496.5,270.5 491.5,270.5C 491.5,265.5 491.5,260.5 491.5,255.5C 496.5,255.5 501.5,255.5 506.5,255.5 Z"/></g>
<g><path style="opacity:1" fill="#060606" d="M 506.5,255.5 C 511.5,255.5 516.5,255.5 521.5,255.5C 521.5,260.5 521.5,265.5 521.5,270.5C 516.5,270.5 511.5,270.5 506.5,270.5C 506.5,265.5 506.5,260.5 506.5,255.5 Z"/></g>
<g><path style="opacity:1" fill="#c1bb5d" d="M 552.5,255.5 C 552.5,260.5 552.5,265.5 552.5,270.5C 547.5,270.5 542.5,270.5 537.5,270.5C 537.5,265.5 537.5,260.5 537.5,255.5C 542.5,255.5 547.5,255.5 552.5,255.5 Z"/></g>
<g><path style="opacity:1" fill="#050605" d="M 553.5,255.5 C 558.5,255.5 563.5,255.5 568.5,255.5C 568.5,260.833 568.5,266.167 568.5,271.5C 563.5,271.5 558.5,271.5 553.5,271.5C 553.5,266.167 553.5,260.833 553.5,255.5 Z"/></g>
<g><path style="opacity:1" fill="#969471" d="M 506.5,255.5 C 511.64,254.512 516.974,254.179 522.5,254.5C 522.5,259.833 522.5,265.167 522.5,270.5C 522.5,275.833 522.5,281.167 522.5,286.5C 512.167,286.5 501.833,286.5 491.5,286.5C 501.319,285.506 511.319,285.173 521.5,285.5C 521.5,280.5 521.5,275.5 521.5,270.5C 521.5,265.5 521.5,260.5 521.5,255.5C 516.5,255.5 511.5,255.5 506.5,255.5 Z"/></g>
<g><path style="opacity:1" fill="#005000" d="M 135.5,270.5 C 140.5,270.5 145.5,270.5 150.5,270.5C 150.5,275.5 150.5,280.5 150.5,285.5C 145.5,285.5 140.5,285.5 135.5,285.5C 135.5,280.5 135.5,275.5 135.5,270.5 Z"/></g>
<g><path style="opacity:1" fill="#080807" d="M 522.5,270.5 C 527.5,270.5 532.5,270.5 537.5,270.5C 537.5,275.833 537.5,281.167 537.5,286.5C 532.5,286.5 527.5,286.5 522.5,286.5C 522.5,281.167 522.5,275.833 522.5,270.5 Z"/></g>
<g><path style="opacity:1" fill="#86742b" d="M 552.5,255.5 C 552.833,255.5 553.167,255.5 553.5,255.5C 553.5,260.833 553.5,266.167 553.5,271.5C 553.5,276.5 553.5,281.5 553.5,286.5C 548.167,286.5 542.833,286.5 537.5,286.5C 537.5,281.167 537.5,275.833 537.5,270.5C 542.5,270.5 547.5,270.5 552.5,270.5C 552.5,265.5 552.5,260.5 552.5,255.5 Z"/></g>
<g><path style="opacity:1" fill="#050505" d="M 135.5,285.5 C 135.5,285.833 135.5,286.167 135.5,286.5C 135.5,301.833 135.5,317.167 135.5,332.5C 130.167,332.5 124.833,332.5 119.5,332.5C 119.5,316.833 119.5,301.167 119.5,285.5C 124.833,285.5 130.167,285.5 135.5,285.5 Z"/></g>
<g><path style="opacity:1" fill="#005000" d="M 258.5,285.5 C 258.5,295.833 258.5,306.167 258.5,316.5C 253.5,316.5 248.5,316.5 243.5,316.5C 243.5,306.167 243.5,295.833 243.5,285.5C 248.5,285.5 253.5,285.5 258.5,285.5 Z"/></g>
<g><path style="opacity:1" fill="#005100" d="M 290.5,332.5 C 290.167,332.5 289.833,332.5 289.5,332.5C 284.5,332.5 279.5,332.5 274.5,332.5C 274.5,317.167 274.5,301.833 274.5,286.5C 269.36,285.512 264.026,285.179 258.5,285.5C 258.5,280.5 258.5,275.5 258.5,270.5C 264.167,270.5 269.833,270.5 275.5,270.5C 275.5,275.5 275.5,280.5 275.5,285.5C 280.5,285.5 285.5,285.5 290.5,285.5C 290.5,301.167 290.5,316.833 290.5,332.5 Z"/></g>
<g><path style="opacity:1" fill="#080906" d="M 336.5,286.5 C 341.5,286.5 346.5,286.5 351.5,286.5C 351.5,291.5 351.5,296.5 351.5,301.5C 356.833,301.5 362.167,301.5 367.5,301.5C 367.5,306.833 367.5,312.167 367.5,317.5C 361.974,317.821 356.64,317.488 351.5,316.5C 351.5,311.833 351.5,307.167 351.5,302.5C 346.5,302.5 341.5,302.5 336.5,302.5C 336.5,297.167 336.5,291.833 336.5,286.5 Z"/></g>
<g><path style="opacity:1" fill="#c09600" d="M 367.5,286.5 C 372.5,286.5 377.5,286.5 382.5,286.5C 382.5,291.5 382.5,296.5 382.5,301.5C 377.5,301.5 372.5,301.5 367.5,301.5C 367.5,296.5 367.5,291.5 367.5,286.5 Z"/></g>
<g><path style="opacity:1" fill="#004f00" d="M 58.5,316.5 C 52.9738,316.179 47.6405,316.512 42.5,317.5C 37.1667,317.5 31.8333,317.5 26.5,317.5C 26.5,312.167 26.5,306.833 26.5,301.5C 37.1667,301.5 47.8333,301.5 58.5,301.5C 58.5,306.5 58.5,311.5 58.5,316.5 Z"/></g>
<g><path style="opacity:1" fill="#005100" d="M 197.5,270.5 C 202.833,270.5 208.167,270.5 213.5,270.5C 213.5,280.833 213.5,291.167 213.5,301.5C 218.5,301.5 223.5,301.5 228.5,301.5C 228.5,306.5 228.5,311.5 228.5,316.5C 233.5,316.5 238.5,316.5 243.5,316.5C 243.5,326.833 243.5,337.167 243.5,347.5C 238.5,347.5 233.5,347.5 228.5,347.5C 228.821,342.305 228.487,337.305 227.5,332.5C 222.5,332.5 217.5,332.5 212.5,332.5C 212.5,322.167 212.5,311.833 212.5,301.5C 207.5,301.5 202.5,301.5 197.5,301.5C 197.5,291.167 197.5,280.833 197.5,270.5 Z"/></g>
<g><path style="opacity:1" fill="#c0ba5d" d="M 383.5,301.5 C 388.5,301.5 393.5,301.5 398.5,301.5C 398.5,306.833 398.5,312.167 398.5,317.5C 408.833,317.5 419.167,317.5 429.5,317.5C 429.5,327.5 429.5,337.5 429.5,347.5C 434.305,348.487 439.305,348.821 444.5,348.5C 444.5,353.5 444.5,358.5 444.5,363.5C 429.167,363.5 413.833,363.5 398.5,363.5C 398.5,358.5 398.5,353.5 398.5,348.5C 398.5,343.167 398.5,337.833 398.5,332.5C 393.5,332.5 388.5,332.5 383.5,332.5C 383.5,322.167 383.5,311.833 383.5,301.5 Z"/></g>
<g><path style="opacity:1" fill="#080807" d="M 491.5,286.5 C 501.833,286.5 512.167,286.5 522.5,286.5C 522.5,291.833 522.5,297.167 522.5,302.5C 512.167,302.5 501.833,302.5 491.5,302.5C 491.5,307.5 491.5,312.5 491.5,317.5C 476.167,317.5 460.833,317.5 445.5,317.5C 445.5,322.5 445.5,327.5 445.5,332.5C 444.513,337.305 444.179,342.305 444.5,347.5C 439.5,347.5 434.5,347.5 429.5,347.5C 429.5,337.5 429.5,327.5 429.5,317.5C 434.5,317.5 439.5,317.5 444.5,317.5C 444.5,312.167 444.5,306.833 444.5,301.5C 460.167,301.5 475.833,301.5 491.5,301.5C 491.5,296.5 491.5,291.5 491.5,286.5 Z"/></g>
<g><path style="opacity:1" fill="#88762a" d="M 351.5,316.5 C 356.64,317.488 361.974,317.821 367.5,317.5C 367.5,322.5 367.5,327.5 367.5,332.5C 351.833,332.5 336.167,332.5 320.5,332.5C 320.5,327.167 320.5,321.833 320.5,316.5C 330.833,316.5 341.167,316.5 351.5,316.5 Z"/></g>
<g><path style="opacity:1" fill="#050505" d="M 26.5,317.5 C 31.8333,317.5 37.1667,317.5 42.5,317.5C 42.5,337.833 42.5,358.167 42.5,378.5C 42.5,378.833 42.5,379.167 42.5,379.5C 37.1667,379.5 31.8333,379.5 26.5,379.5C 26.5,358.833 26.5,338.167 26.5,317.5 Z"/></g>
<g><path style="opacity:1" fill="#009200" d="M 58.5,316.5 C 58.5,321.833 58.5,327.167 58.5,332.5C 57.5128,327.695 57.1795,322.695 57.5,317.5C 52.8333,317.5 48.1667,317.5 43.5,317.5C 43.5,337.833 43.5,358.167 43.5,378.5C 43.1667,378.5 42.8333,378.5 42.5,378.5C 42.5,358.167 42.5,337.833 42.5,317.5C 47.6405,316.512 52.9738,316.179 58.5,316.5 Z"/></g>
<g><path style="opacity:1" fill="#008700" d="M 258.5,285.5 C 264.026,285.179 269.36,285.512 274.5,286.5C 269.5,286.5 264.5,286.5 259.5,286.5C 259.5,296.833 259.5,307.167 259.5,317.5C 254.5,317.5 249.5,317.5 244.5,317.5C 244.5,327.833 244.5,338.167 244.5,348.5C 238.833,348.5 233.167,348.5 227.5,348.5C 227.5,343.167 227.5,337.833 227.5,332.5C 228.487,337.305 228.821,342.305 228.5,347.5C 233.5,347.5 238.5,347.5 243.5,347.5C 243.5,337.167 243.5,326.833 243.5,316.5C 248.5,316.5 253.5,316.5 258.5,316.5C 258.5,306.167 258.5,295.833 258.5,285.5 Z"/></g>
<g><path style="opacity:1" fill="#005100" d="M 58.5,316.5 C 68.8333,316.5 79.1667,316.5 89.5,316.5C 89.5,321.833 89.5,327.167 89.5,332.5C 94.5,332.5 99.5,332.5 104.5,332.5C 104.5,337.5 104.5,342.5 104.5,347.5C 109.5,347.5 114.5,347.5 119.5,347.5C 119.5,342.5 119.5,337.5 119.5,332.5C 124.833,332.5 130.167,332.5 135.5,332.5C 135.5,342.833 135.5,353.167 135.5,363.5C 125.167,363.5 114.833,363.5 104.5,363.5C 104.5,358.5 104.5,353.5 104.5,348.5C 99.2384,348.805 94.0717,348.471 89,347.5C 88.5007,342.511 88.3341,337.511 88.5,332.5C 78.5,332.5 68.5,332.5 58.5,332.5C 58.5,327.167 58.5,321.833 58.5,316.5 Z"/></g>
<g><path style="opacity:1" fill="#004e00" d="M 290.5,332.5 C 295.5,332.5 300.5,332.5 305.5,332.5C 305.5,337.5 305.5,342.5 305.5,347.5C 305.5,347.833 305.5,348.167 305.5,348.5C 300.5,348.5 295.5,348.5 290.5,348.5C 290.5,343.167 290.5,337.833 290.5,332.5 Z"/></g>
<g><path style="opacity:1" fill="#87752a" d="M 305.5,332.5 C 310.5,332.5 315.5,332.5 320.5,332.5C 320.5,337.5 320.5,342.5 320.5,347.5C 315.5,347.5 310.5,347.5 305.5,347.5C 305.5,342.5 305.5,337.5 305.5,332.5 Z"/></g>
<g><path style="opacity:1" fill="#f7d825" d="M 320.5,332.5 C 336.167,332.5 351.833,332.5 367.5,332.5C 367.5,337.5 367.5,342.5 367.5,347.5C 372.5,347.5 377.5,347.5 382.5,347.5C 382.5,348.167 382.833,348.5 383.5,348.5C 383.5,353.5 383.5,358.5 383.5,363.5C 383.5,378.833 383.5,394.167 383.5,409.5C 383.167,409.5 382.833,409.5 382.5,409.5C 382.5,404.5 382.5,399.5 382.5,394.5C 382.5,384.167 382.5,373.833 382.5,363.5C 367.167,363.5 351.833,363.5 336.5,363.5C 336.5,368.833 336.5,374.167 336.5,379.5C 331.5,379.5 326.5,379.5 321.5,379.5C 320.514,383.97 320.181,388.637 320.5,393.5C 315.833,393.5 311.167,393.5 306.5,393.5C 306.5,378.5 306.5,363.5 306.5,348.5C 311.363,348.819 316.03,348.486 320.5,347.5C 320.5,342.5 320.5,337.5 320.5,332.5 Z"/></g>
<g><path style="opacity:1" fill="#88762a" d="M 367.5,332.5 C 372.5,332.5 377.5,332.5 382.5,332.5C 382.5,337.5 382.5,342.5 382.5,347.5C 382.5,342.5 382.5,337.5 382.5,332.5C 377.5,332.5 372.5,332.5 367.5,332.5 Z"/></g>
<g><path style="opacity:1" fill="#197e04" d="M 367.5,301.5 C 372.5,301.5 377.5,301.5 382.5,301.5C 382.833,301.5 383.167,301.5 383.5,301.5C 383.5,311.833 383.5,322.167 383.5,332.5C 388.5,332.5 393.5,332.5 398.5,332.5C 398.5,337.833 398.5,343.167 398.5,348.5C 393.5,348.5 388.5,348.5 383.5,348.5C 382.833,348.5 382.5,348.167 382.5,347.5C 382.5,342.5 382.5,337.5 382.5,332.5C 377.5,332.5 372.5,332.5 367.5,332.5C 367.5,327.5 367.5,322.5 367.5,317.5C 367.5,312.167 367.5,306.833 367.5,301.5 Z"/></g>
<g><path style="opacity:1" fill="#4c461c" d="M 445.5,332.5 C 445.5,337.5 445.5,342.5 445.5,347.5C 450.695,347.179 455.695,347.513 460.5,348.5C 460.5,353.5 460.5,358.5 460.5,363.5C 460.5,368.5 460.5,373.5 460.5,378.5C 460.167,378.5 459.833,378.5 459.5,378.5C 459.5,373.5 459.5,368.5 459.5,363.5C 459.5,358.5 459.5,353.5 459.5,348.5C 454.833,348.5 450.167,348.5 445.5,348.5C 445.5,353.5 445.5,358.5 445.5,363.5C 445.167,363.5 444.833,363.5 444.5,363.5C 444.5,358.5 444.5,353.5 444.5,348.5C 439.305,348.821 434.305,348.487 429.5,347.5C 434.5,347.5 439.5,347.5 444.5,347.5C 444.179,342.305 444.513,337.305 445.5,332.5 Z"/></g>
<g><path style="opacity:1" fill="#007600" d="M 289.5,332.5 C 289.833,332.5 290.167,332.5 290.5,332.5C 290.5,337.833 290.5,343.167 290.5,348.5C 290.5,363.833 290.5,379.167 290.5,394.5C 290.5,399.833 290.5,405.167 290.5,410.5C 285.167,410.5 279.833,410.5 274.5,410.5C 279.305,409.513 284.305,409.179 289.5,409.5C 289.5,383.833 289.5,358.167 289.5,332.5 Z"/></g>
<g><path style="opacity:1" fill="#050605" d="M 290.5,348.5 C 295.5,348.5 300.5,348.5 305.5,348.5C 305.5,363.833 305.5,379.167 305.5,394.5C 300.5,394.5 295.5,394.5 290.5,394.5C 290.5,379.167 290.5,363.833 290.5,348.5 Z"/></g>
<g><path style="opacity:1" fill="#d3ba22" d="M 305.5,347.5 C 310.5,347.5 315.5,347.5 320.5,347.5C 316.03,348.486 311.363,348.819 306.5,348.5C 306.5,363.5 306.5,378.5 306.5,393.5C 311.167,393.5 315.833,393.5 320.5,393.5C 320.181,388.637 320.514,383.97 321.5,379.5C 321.821,384.695 321.487,389.695 320.5,394.5C 315.5,394.5 310.5,394.5 305.5,394.5C 305.5,379.167 305.5,363.833 305.5,348.5C 305.5,348.167 305.5,347.833 305.5,347.5 Z"/></g>
<g><path style="opacity:1" fill="#89762b" d="M 383.5,348.5 C 388.5,348.5 393.5,348.5 398.5,348.5C 398.5,353.5 398.5,358.5 398.5,363.5C 393.5,363.5 388.5,363.5 383.5,363.5C 383.5,358.5 383.5,353.5 383.5,348.5 Z"/></g>
<g><path style="opacity:1" fill="#050605" d="M 459.5,363.5 C 454.833,363.5 450.167,363.5 445.5,363.5C 445.5,358.5 445.5,353.5 445.5,348.5C 450.167,348.5 454.833,348.5 459.5,348.5C 459.5,353.5 459.5,358.5 459.5,363.5 Z"/></g>
<g><path style="opacity:1" fill="#c09600" d="M 460.5,348.5 C 465.5,348.5 470.5,348.5 475.5,348.5C 475.5,353.5 475.5,358.5 475.5,363.5C 470.5,363.5 465.5,363.5 460.5,363.5C 460.5,358.5 460.5,353.5 460.5,348.5 Z"/></g>
<g><path style="opacity:1" fill="#88752a" d="M 445.5,332.5 C 455.833,332.5 466.167,332.5 476.5,332.5C 476.5,337.5 476.5,342.5 476.5,347.5C 481.5,347.5 486.5,347.5 491.5,347.5C 491.5,358.167 491.5,368.833 491.5,379.5C 486.5,379.5 481.5,379.5 476.5,379.5C 475.512,374.36 475.179,369.026 475.5,363.5C 475.5,358.5 475.5,353.5 475.5,348.5C 470.5,348.5 465.5,348.5 460.5,348.5C 455.695,347.513 450.695,347.179 445.5,347.5C 445.5,342.5 445.5,337.5 445.5,332.5 Z"/></g>
<g><path style="opacity:1" fill="#88752a" d="M 382.5,394.5 C 377.5,394.5 372.5,394.5 367.5,394.5C 367.5,389.5 367.5,384.5 367.5,379.5C 357.167,379.5 346.833,379.5 336.5,379.5C 336.5,374.167 336.5,368.833 336.5,363.5C 351.833,363.5 367.167,363.5 382.5,363.5C 382.5,373.833 382.5,384.167 382.5,394.5 Z"/></g>
<g><path style="opacity:1" fill="#f9d924" d="M 383.5,363.5 C 388.5,363.5 393.5,363.5 398.5,363.5C 398.5,373.833 398.5,384.167 398.5,394.5C 403.5,394.5 408.5,394.5 413.5,394.5C 413.5,404.833 413.5,415.167 413.5,425.5C 408.5,425.5 403.5,425.5 398.5,425.5C 398.5,420.167 398.5,414.833 398.5,409.5C 393.5,409.5 388.5,409.5 383.5,409.5C 383.5,394.167 383.5,378.833 383.5,363.5 Z"/></g>
<g><path style="opacity:1" fill="#89762b" d="M 398.5,363.5 C 413.833,363.5 429.167,363.5 444.5,363.5C 444.833,363.5 445.167,363.5 445.5,363.5C 450.167,363.5 454.833,363.5 459.5,363.5C 459.5,368.5 459.5,373.5 459.5,378.5C 444.167,378.5 428.833,378.5 413.5,378.5C 413.5,383.833 413.5,389.167 413.5,394.5C 408.5,394.5 403.5,394.5 398.5,394.5C 398.5,384.167 398.5,373.833 398.5,363.5 Z"/></g>
<g><path style="opacity:1" fill="#090a08" d="M 460.5,363.5 C 465.5,363.5 470.5,363.5 475.5,363.5C 475.179,369.026 475.512,374.36 476.5,379.5C 476.5,384.167 476.5,388.833 476.5,393.5C 481.5,393.5 486.5,393.5 491.5,393.5C 491.5,398.833 491.5,404.167 491.5,409.5C 491.5,414.833 491.5,420.167 491.5,425.5C 491.5,430.5 491.5,435.5 491.5,440.5C 486.167,440.5 480.833,440.5 475.5,440.5C 475.5,435.5 475.5,430.5 475.5,425.5C 475.5,420.167 475.5,414.833 475.5,409.5C 475.5,404.5 475.5,399.5 475.5,394.5C 470.5,394.5 465.5,394.5 460.5,394.5C 460.5,389.167 460.5,383.833 460.5,378.5C 460.5,373.5 460.5,368.5 460.5,363.5 Z"/></g>
<g><path style="opacity:1" fill="#c1b77b" d="M 459.5,378.5 C 459.833,378.5 460.167,378.5 460.5,378.5C 460.5,383.833 460.5,389.167 460.5,394.5C 459.513,389.695 459.179,384.695 459.5,379.5C 444.5,379.5 429.5,379.5 414.5,379.5C 414.5,384.5 414.5,389.5 414.5,394.5C 414.167,394.5 413.833,394.5 413.5,394.5C 413.5,389.167 413.5,383.833 413.5,378.5C 428.833,378.5 444.167,378.5 459.5,378.5 Z"/></g>
<g><path style="opacity:1" fill="#050605" d="M 42.5,379.5 C 47.5,379.5 52.5,379.5 57.5,379.5C 57.5,394.833 57.5,410.167 57.5,425.5C 52.5,425.5 47.5,425.5 42.5,425.5C 42.5,410.167 42.5,394.833 42.5,379.5 Z"/></g>
<g><path style="opacity:1" fill="#004900" d="M 42.5,379.5 C 42.5,379.167 42.5,378.833 42.5,378.5C 42.8333,378.5 43.1667,378.5 43.5,378.5C 48.5,378.5 53.5,378.5 58.5,378.5C 58.5,394.167 58.5,409.833 58.5,425.5C 58.1667,425.5 57.8333,425.5 57.5,425.5C 57.5,410.167 57.5,394.833 57.5,379.5C 52.5,379.5 47.5,379.5 42.5,379.5 Z"/></g>
<g><path style="opacity:1" fill="#087d00" d="M 212.5,394.5 C 207.5,394.5 202.5,394.5 197.5,394.5C 197.5,389.5 197.5,384.5 197.5,379.5C 202.5,379.5 207.5,379.5 212.5,379.5C 212.5,384.5 212.5,389.5 212.5,394.5 Z"/></g>
<g><path style="opacity:1" fill="#86742a" d="M 321.5,379.5 C 326.5,379.5 331.5,379.5 336.5,379.5C 336.5,389.833 336.5,400.167 336.5,410.5C 331.167,410.5 325.833,410.5 320.5,410.5C 320.5,405.167 320.5,399.833 320.5,394.5C 321.487,389.695 321.821,384.695 321.5,379.5 Z"/></g>
<g><path style="opacity:1" fill="#f9f2ba" d="M 460.5,394.5 C 465.5,394.5 470.5,394.5 475.5,394.5C 475.5,399.5 475.5,404.5 475.5,409.5C 460.167,409.5 444.833,409.5 429.5,409.5C 429.5,404.5 429.5,399.5 429.5,394.5C 424.5,394.5 419.5,394.5 414.5,394.5C 414.5,389.5 414.5,384.5 414.5,379.5C 429.5,379.5 444.5,379.5 459.5,379.5C 459.179,384.695 459.513,389.695 460.5,394.5 Z"/></g>
<g><path style="opacity:1" fill="#087e00" d="M 197.5,394.5 C 197.5,404.833 197.5,415.167 197.5,425.5C 192.167,425.5 186.833,425.5 181.5,425.5C 181.5,415.167 181.5,404.833 181.5,394.5C 186.833,394.5 192.167,394.5 197.5,394.5 Z"/></g>
<g><path style="opacity:1" fill="#f8d924" d="M 197.5,394.5 C 202.5,394.5 207.5,394.5 212.5,394.5C 212.5,399.5 212.5,404.5 212.5,409.5C 212.5,414.833 212.5,420.167 212.5,425.5C 207.5,425.5 202.5,425.5 197.5,425.5C 197.5,415.167 197.5,404.833 197.5,394.5 Z"/></g>
<g><path style="opacity:1" fill="#0d7f00" d="M 212.5,394.5 C 217.833,394.5 223.167,394.5 228.5,394.5C 228.5,399.5 228.5,404.5 228.5,409.5C 223.167,409.5 217.833,409.5 212.5,409.5C 212.5,404.5 212.5,399.5 212.5,394.5 Z"/></g>
<g><path style="opacity:1" fill="#005100" d="M 290.5,394.5 C 295.5,394.5 300.5,394.5 305.5,394.5C 305.5,399.833 305.5,405.167 305.5,410.5C 300.5,410.5 295.5,410.5 290.5,410.5C 290.5,405.167 290.5,399.833 290.5,394.5 Z"/></g>
<g><path style="opacity:1" fill="#050605" d="M 305.5,394.5 C 310.5,394.5 315.5,394.5 320.5,394.5C 320.5,399.833 320.5,405.167 320.5,410.5C 315.5,410.5 310.5,410.5 305.5,410.5C 305.5,405.167 305.5,399.833 305.5,394.5 Z"/></g>
<g><path style="opacity:1" fill="#005100" d="M 367.5,394.5 C 372.5,394.5 377.5,394.5 382.5,394.5C 382.5,399.5 382.5,404.5 382.5,409.5C 382.5,430.167 382.5,450.833 382.5,471.5C 377.5,471.5 372.5,471.5 367.5,471.5C 367.5,471.833 367.5,472.167 367.5,472.5C 362.5,472.5 357.5,472.5 352.5,472.5C 352.5,482.5 352.5,492.5 352.5,502.5C 351.506,492.347 351.172,482.014 351.5,471.5C 346.5,471.5 341.5,471.5 336.5,471.5C 336.5,466.167 336.5,460.833 336.5,455.5C 341.5,455.5 346.5,455.5 351.5,455.5C 351.5,445.167 351.5,434.833 351.5,424.5C 356.833,424.5 362.167,424.5 367.5,424.5C 367.5,414.5 367.5,404.5 367.5,394.5 Z"/></g>
<g><path style="opacity:1" fill="#8b792d" d="M 413.5,394.5 C 413.833,394.5 414.167,394.5 414.5,394.5C 419.5,394.5 424.5,394.5 429.5,394.5C 429.5,399.5 429.5,404.5 429.5,409.5C 444.833,409.5 460.167,409.5 475.5,409.5C 475.5,414.833 475.5,420.167 475.5,425.5C 460.167,425.5 444.833,425.5 429.5,425.5C 429.5,430.5 429.5,435.5 429.5,440.5C 424.5,440.5 419.5,440.5 414.5,440.5C 414.821,435.305 414.487,430.305 413.5,425.5C 413.5,415.167 413.5,404.833 413.5,394.5 Z"/></g>
<g><path style="opacity:1" fill="#055500" d="M 212.5,409.5 C 217.833,409.5 223.167,409.5 228.5,409.5C 228.5,414.833 228.5,420.167 228.5,425.5C 223.5,425.5 218.5,425.5 213.5,425.5C 213.167,425.5 212.833,425.5 212.5,425.5C 212.5,420.167 212.5,414.833 212.5,409.5 Z"/></g>
<g><path style="opacity:1" fill="#01ad00" d="M 382.5,409.5 C 382.833,409.5 383.167,409.5 383.5,409.5C 388.5,409.5 393.5,409.5 398.5,409.5C 398.5,414.833 398.5,420.167 398.5,425.5C 398.5,430.5 398.5,435.5 398.5,440.5C 403.5,440.5 408.5,440.5 413.5,440.5C 413.5,456.167 413.5,471.833 413.5,487.5C 408.5,487.5 403.5,487.5 398.5,487.5C 398.5,492.5 398.5,497.5 398.5,502.5C 393.5,502.5 388.5,502.5 383.5,502.5C 383.821,497.305 383.487,492.305 382.5,487.5C 377.5,487.5 372.5,487.5 367.5,487.5C 367.5,482.5 367.5,477.5 367.5,472.5C 367.5,472.167 367.5,471.833 367.5,471.5C 372.5,471.5 377.5,471.5 382.5,471.5C 382.5,450.833 382.5,430.167 382.5,409.5 Z"/></g>
<g><path style="opacity:1" fill="#050605" d="M 57.5,425.5 C 57.8333,425.5 58.1667,425.5 58.5,425.5C 63.5,425.5 68.5,425.5 73.5,425.5C 73.5,435.833 73.5,446.167 73.5,456.5C 68.1667,456.5 62.8333,456.5 57.5,456.5C 57.5,446.167 57.5,435.833 57.5,425.5 Z"/></g>
<g><path style="opacity:1" fill="#057d00" d="M 197.5,425.5 C 202.5,425.5 207.5,425.5 212.5,425.5C 212.5,435.833 212.5,446.167 212.5,456.5C 207.5,456.5 202.5,456.5 197.5,456.5C 192.5,456.5 187.5,456.5 182.5,456.5C 187.305,455.513 192.305,455.179 197.5,455.5C 197.5,445.5 197.5,435.5 197.5,425.5 Z"/></g>
<g><path style="opacity:1" fill="#f7d824" d="M 213.5,425.5 C 218.5,425.5 223.5,425.5 228.5,425.5C 233.5,425.5 238.5,425.5 243.5,425.5C 243.5,430.5 243.5,435.5 243.5,440.5C 243.5,445.833 243.5,451.167 243.5,456.5C 248.5,456.5 253.5,456.5 258.5,456.5C 258.5,461.5 258.5,466.5 258.5,471.5C 248.5,471.5 238.5,471.5 228.5,471.5C 228.5,466.5 228.5,461.5 228.5,456.5C 223.695,455.513 218.695,455.179 213.5,455.5C 213.5,445.5 213.5,435.5 213.5,425.5 Z"/></g>
<g><path style="opacity:1" fill="#005100" d="M 228.5,425.5 C 233.5,425.5 238.5,425.5 243.5,425.5C 243.5,430.5 243.5,435.5 243.5,440.5C 238.5,440.5 233.5,440.5 228.5,440.5C 228.5,435.5 228.5,430.5 228.5,425.5 Z"/></g>
<g><path style="opacity:1" fill="#0c7901" d="M 398.5,425.5 C 403.5,425.5 408.5,425.5 413.5,425.5C 414.487,430.305 414.821,435.305 414.5,440.5C 414.5,450.833 414.5,461.167 414.5,471.5C 414.821,477.026 414.488,482.36 413.5,487.5C 413.5,471.833 413.5,456.167 413.5,440.5C 408.5,440.5 403.5,440.5 398.5,440.5C 398.5,435.5 398.5,430.5 398.5,425.5 Z"/></g>
<g><path style="opacity:1" fill="#f9f2ba" d="M 475.5,425.5 C 475.5,430.5 475.5,435.5 475.5,440.5C 480.305,441.487 485.305,441.821 490.5,441.5C 490.5,461.833 490.5,482.167 490.5,502.5C 485.5,502.5 480.5,502.5 475.5,502.5C 475.5,507.833 475.5,513.167 475.5,518.5C 470.5,518.5 465.5,518.5 460.5,518.5C 460.5,523.5 460.5,528.5 460.5,533.5C 460.167,533.5 459.833,533.5 459.5,533.5C 449.5,533.5 439.5,533.5 429.5,533.5C 429.5,538.833 429.5,544.167 429.5,549.5C 408.833,549.5 388.167,549.5 367.5,549.5C 367.5,544.167 367.5,538.833 367.5,533.5C 377.833,533.5 388.167,533.5 398.5,533.5C 398.5,528.5 398.5,523.5 398.5,518.5C 403.833,518.5 409.167,518.5 414.5,518.5C 414.5,513.167 414.5,507.833 414.5,502.5C 419.5,502.5 424.5,502.5 429.5,502.5C 429.5,492.167 429.5,481.833 429.5,471.5C 429.5,461.167 429.5,450.833 429.5,440.5C 429.5,435.5 429.5,430.5 429.5,425.5C 444.833,425.5 460.167,425.5 475.5,425.5 Z"/></g>
<g><path style="opacity:1" fill="#067d00" d="M 491.5,425.5 C 496.5,425.5 501.5,425.5 506.5,425.5C 506.5,430.5 506.5,435.5 506.5,440.5C 501.5,440.5 496.5,440.5 491.5,440.5C 491.5,435.5 491.5,430.5 491.5,425.5 Z"/></g>
<g><path style="opacity:1" fill="#005100" d="M 491.5,409.5 C 496.833,409.5 502.167,409.5 507.5,409.5C 507.5,414.5 507.5,419.5 507.5,424.5C 512.5,424.5 517.5,424.5 522.5,424.5C 522.5,434.833 522.5,445.167 522.5,455.5C 522.5,466.167 522.5,476.833 522.5,487.5C 517.167,487.5 511.833,487.5 506.5,487.5C 506.5,482.5 506.5,477.5 506.5,472.5C 507.486,476.97 507.819,481.637 507.5,486.5C 512.167,486.5 516.833,486.5 521.5,486.5C 521.5,481.5 521.5,476.5 521.5,471.5C 521.5,466.5 521.5,461.5 521.5,456.5C 516.5,456.5 511.5,456.5 506.5,456.5C 506.5,451.5 506.5,446.5 506.5,441.5C 501.5,441.5 496.5,441.5 491.5,441.5C 491.5,441.167 491.5,440.833 491.5,440.5C 496.5,440.5 501.5,440.5 506.5,440.5C 506.5,435.5 506.5,430.5 506.5,425.5C 501.5,425.5 496.5,425.5 491.5,425.5C 491.5,420.167 491.5,414.833 491.5,409.5 Z"/></g>
<g><path style="opacity:1" fill="#015100" d="M 274.5,410.5 C 279.833,410.5 285.167,410.5 290.5,410.5C 290.5,420.833 290.5,431.167 290.5,441.5C 285.5,441.5 280.5,441.5 275.5,441.5C 275.5,446.167 275.5,450.833 275.5,455.5C 280.5,455.5 285.5,455.5 290.5,455.5C 290.5,460.833 290.5,466.167 290.5,471.5C 280.167,471.5 269.833,471.5 259.5,471.5C 259.821,466.305 259.487,461.305 258.5,456.5C 253.5,456.5 248.5,456.5 243.5,456.5C 243.5,451.167 243.5,445.833 243.5,440.5C 253.833,440.5 264.167,440.5 274.5,440.5C 274.5,430.5 274.5,420.5 274.5,410.5 Z"/></g>
<g><path style="opacity:1" fill="#045201" d="M 414.5,440.5 C 419.5,440.5 424.5,440.5 429.5,440.5C 429.5,450.833 429.5,461.167 429.5,471.5C 424.5,471.5 419.5,471.5 414.5,471.5C 414.5,461.167 414.5,450.833 414.5,440.5 Z"/></g>
<g><path style="opacity:1" fill="#9b9a75" d="M 475.5,440.5 C 480.833,440.5 486.167,440.5 491.5,440.5C 491.5,440.833 491.5,441.167 491.5,441.5C 491.83,462.007 491.497,482.34 490.5,502.5C 490.5,482.167 490.5,461.833 490.5,441.5C 485.305,441.821 480.305,441.487 475.5,440.5 Z"/></g>
<g><path style="opacity:1" fill="#060606" d="M 491.5,441.5 C 496.5,441.5 501.5,441.5 506.5,441.5C 506.5,446.5 506.5,451.5 506.5,456.5C 506.5,461.5 506.5,466.5 506.5,471.5C 506.5,471.833 506.5,472.167 506.5,472.5C 506.5,477.5 506.5,482.5 506.5,487.5C 511.833,487.5 517.167,487.5 522.5,487.5C 522.5,492.833 522.5,498.167 522.5,503.5C 512.167,503.5 501.833,503.5 491.5,503.5C 491.5,513.833 491.5,524.167 491.5,534.5C 486.5,534.5 481.5,534.5 476.5,534.5C 476.5,524.167 476.5,513.833 476.5,503.5C 481.363,503.819 486.03,503.486 490.5,502.5C 491.497,482.34 491.83,462.007 491.5,441.5 Z"/></g>
<g><path style="opacity:1" fill="#bac018" d="M 212.5,425.5 C 212.833,425.5 213.167,425.5 213.5,425.5C 213.5,435.5 213.5,445.5 213.5,455.5C 218.695,455.179 223.695,455.513 228.5,456.5C 223.167,456.5 217.833,456.5 212.5,456.5C 212.5,446.167 212.5,435.833 212.5,425.5 Z"/></g>
<g><path style="opacity:1" fill="#060606" d="M 522.5,455.5 C 527.833,455.5 533.167,455.5 538.5,455.5C 538.5,466.167 538.5,476.833 538.5,487.5C 533.167,487.5 527.833,487.5 522.5,487.5C 522.5,476.833 522.5,466.167 522.5,455.5 Z"/></g>
<g><path style="opacity:1" fill="#050605" d="M 73.5,456.5 C 78.5,456.5 83.5,456.5 88.5,456.5C 88.5,461.833 88.5,467.167 88.5,472.5C 83.5,472.5 78.5,472.5 73.5,472.5C 73.5,467.167 73.5,461.833 73.5,456.5 Z"/></g>
<g><path style="opacity:1" fill="#00af00" d="M 197.5,456.5 C 202.5,456.5 207.5,456.5 212.5,456.5C 212.5,461.5 212.5,466.5 212.5,471.5C 207.5,471.5 202.5,471.5 197.5,471.5C 197.5,466.5 197.5,461.5 197.5,456.5 Z"/></g>
<g><path style="opacity:1" fill="#0c7f00" d="M 212.5,456.5 C 217.833,456.5 223.167,456.5 228.5,456.5C 228.5,461.5 228.5,466.5 228.5,471.5C 223.5,471.5 218.5,471.5 213.5,471.5C 213.5,481.833 213.5,492.167 213.5,502.5C 212.506,492.681 212.173,482.681 212.5,472.5C 212.5,472.167 212.5,471.833 212.5,471.5C 212.5,466.5 212.5,461.5 212.5,456.5 Z"/></g>
<g><path style="opacity:1" fill="#00af00" d="M 367.5,471.5 C 362.5,471.5 357.5,471.5 352.5,471.5C 352.5,466.5 352.5,461.5 352.5,456.5C 357.5,456.5 362.5,456.5 367.5,456.5C 367.5,461.5 367.5,466.5 367.5,471.5 Z"/></g>
<g><path style="opacity:1" fill="#00ad00" d="M 506.5,456.5 C 511.5,456.5 516.5,456.5 521.5,456.5C 521.5,461.5 521.5,466.5 521.5,471.5C 516.5,471.5 511.5,471.5 506.5,471.5C 506.5,466.5 506.5,461.5 506.5,456.5 Z"/></g>
<g><path style="opacity:1" fill="#003b02" d="M 88.5,456.5 C 89.4872,461.305 89.8205,466.305 89.5,471.5C 99.5,471.5 109.5,471.5 119.5,471.5C 119.5,471.833 119.5,472.167 119.5,472.5C 109.167,472.5 98.8333,472.5 88.5,472.5C 88.5,467.167 88.5,461.833 88.5,456.5 Z"/></g>
<g><path style="opacity:1" fill="#050605" d="M 88.5,472.5 C 98.8333,472.5 109.167,472.5 119.5,472.5C 119.5,477.5 119.5,482.5 119.5,487.5C 109.167,487.5 98.8333,487.5 88.5,487.5C 88.5,482.5 88.5,477.5 88.5,472.5 Z"/></g>
<g><path style="opacity:1" fill="#070d05" d="M 182.5,456.5 C 187.5,456.5 192.5,456.5 197.5,456.5C 197.5,461.5 197.5,466.5 197.5,471.5C 202.5,471.5 207.5,471.5 212.5,471.5C 212.5,471.833 212.5,472.167 212.5,472.5C 207.167,472.5 201.833,472.5 196.5,472.5C 191.833,472.5 187.167,472.5 182.5,472.5C 182.5,477.5 182.5,482.5 182.5,487.5C 177.167,487.5 171.833,487.5 166.5,487.5C 166.5,487.167 166.5,486.833 166.5,486.5C 166.5,481.5 166.5,476.5 166.5,471.5C 171.5,471.5 176.5,471.5 181.5,471.5C 181.179,466.305 181.513,461.305 182.5,456.5 Z"/></g>
<g><path style="opacity:1" fill="#060805" d="M 196.5,472.5 C 201.833,472.5 207.167,472.5 212.5,472.5C 212.173,482.681 212.506,492.681 213.5,502.5C 218.5,502.5 223.5,502.5 228.5,502.5C 228.5,507.5 228.5,512.5 228.5,517.5C 228.5,517.833 228.5,518.167 228.5,518.5C 228.167,518.5 227.833,518.5 227.5,518.5C 222.5,518.5 217.5,518.5 212.5,518.5C 212.5,513.5 212.5,508.5 212.5,503.5C 207.238,503.805 202.072,503.471 197,502.5C 196.5,492.506 196.334,482.506 196.5,472.5 Z"/></g>
<g><path style="opacity:1" fill="#01ae00" d="M 228.5,471.5 C 228.5,476.833 228.5,482.167 228.5,487.5C 238.5,487.5 248.5,487.5 258.5,487.5C 258.833,487.5 259.167,487.5 259.5,487.5C 259.5,492.5 259.5,497.5 259.5,502.5C 269.833,502.5 280.167,502.5 290.5,502.5C 290.5,497.5 290.5,492.5 290.5,487.5C 305.833,487.5 321.167,487.5 336.5,487.5C 336.5,482.167 336.5,476.833 336.5,471.5C 341.5,471.5 346.5,471.5 351.5,471.5C 351.172,482.014 351.506,492.347 352.5,502.5C 362.5,502.5 372.5,502.5 382.5,502.5C 382.5,507.833 382.5,513.167 382.5,518.5C 387.833,518.5 393.167,518.5 398.5,518.5C 398.5,523.5 398.5,528.5 398.5,533.5C 388.167,533.5 377.833,533.5 367.5,533.5C 367.5,538.833 367.5,544.167 367.5,549.5C 352.167,549.5 336.833,549.5 321.5,549.5C 321.5,544.167 321.5,538.833 321.5,533.5C 300.833,533.5 280.167,533.5 259.5,533.5C 259.5,528.167 259.5,522.833 259.5,517.5C 249.167,517.5 238.833,517.5 228.5,517.5C 228.5,512.5 228.5,507.5 228.5,502.5C 223.5,502.5 218.5,502.5 213.5,502.5C 213.5,492.167 213.5,481.833 213.5,471.5C 218.5,471.5 223.5,471.5 228.5,471.5 Z"/></g>
<g><path style="opacity:1" fill="#0d7f00" d="M 228.5,471.5 C 238.5,471.5 248.5,471.5 258.5,471.5C 258.5,476.833 258.5,482.167 258.5,487.5C 248.5,487.5 238.5,487.5 228.5,487.5C 228.5,482.167 228.5,476.833 228.5,471.5 Z"/></g>
<g><path style="opacity:1" fill="#a0af16" d="M 258.5,456.5 C 259.487,461.305 259.821,466.305 259.5,471.5C 269.833,471.5 280.167,471.5 290.5,471.5C 290.5,476.833 290.5,482.167 290.5,487.5C 280.167,487.5 269.833,487.5 259.5,487.5C 259.167,487.5 258.833,487.5 258.5,487.5C 258.5,482.167 258.5,476.833 258.5,471.5C 258.5,466.5 258.5,461.5 258.5,456.5 Z"/></g>
<g><path style="opacity:1" fill="#f9da24" d="M 259.5,472.5 C 269.5,472.5 279.5,472.5 289.5,472.5C 289.5,477.167 289.5,481.833 289.5,486.5C 279.5,486.5 269.5,486.5 259.5,486.5C 259.5,481.833 259.5,477.167 259.5,472.5 Z"/></g>
<g><path style="opacity:1" fill="#005100" d="M 290.5,471.5 C 305.833,471.5 321.167,471.5 336.5,471.5C 336.5,476.833 336.5,482.167 336.5,487.5C 321.167,487.5 305.833,487.5 290.5,487.5C 290.5,482.167 290.5,476.833 290.5,471.5 Z"/></g>
<g><path style="opacity:1" fill="#050605" d="M 367.5,472.5 C 367.5,477.5 367.5,482.5 367.5,487.5C 372.5,487.5 377.5,487.5 382.5,487.5C 382.5,492.5 382.5,497.5 382.5,502.5C 372.5,502.5 362.5,502.5 352.5,502.5C 352.5,492.5 352.5,482.5 352.5,472.5C 357.5,472.5 362.5,472.5 367.5,472.5 Z"/></g>
<g><path style="opacity:1" fill="#070706" d="M 414.5,471.5 C 419.5,471.5 424.5,471.5 429.5,471.5C 429.5,481.833 429.5,492.167 429.5,502.5C 424.5,502.5 419.5,502.5 414.5,502.5C 413.513,507.305 413.179,512.305 413.5,517.5C 408.5,517.5 403.5,517.5 398.5,517.5C 393.5,517.5 388.5,517.5 383.5,517.5C 383.5,512.5 383.5,507.5 383.5,502.5C 388.5,502.5 393.5,502.5 398.5,502.5C 398.5,497.5 398.5,492.5 398.5,487.5C 403.5,487.5 408.5,487.5 413.5,487.5C 414.488,482.36 414.821,477.026 414.5,471.5 Z"/></g>
<g><path style="opacity:1" fill="#057d00" d="M 506.5,472.5 C 506.5,472.167 506.5,471.833 506.5,471.5C 511.5,471.5 516.5,471.5 521.5,471.5C 521.5,476.5 521.5,481.5 521.5,486.5C 516.833,486.5 512.167,486.5 507.5,486.5C 507.819,481.637 507.486,476.97 506.5,472.5 Z"/></g>
<g><path style="opacity:1" fill="#007a00" d="M 119.5,471.5 C 120.487,476.305 120.821,481.305 120.5,486.5C 135.833,486.5 151.167,486.5 166.5,486.5C 166.5,486.833 166.5,487.167 166.5,487.5C 150.833,487.5 135.167,487.5 119.5,487.5C 119.5,482.5 119.5,477.5 119.5,472.5C 119.5,472.167 119.5,471.833 119.5,471.5 Z"/></g>
<g><path style="opacity:1" fill="#060606" d="M 119.5,487.5 C 135.167,487.5 150.833,487.5 166.5,487.5C 166.5,492.833 166.5,498.167 166.5,503.5C 150.833,503.5 135.167,503.5 119.5,503.5C 119.5,498.167 119.5,492.833 119.5,487.5 Z"/></g>
<g><path style="opacity:1" fill="#057d00" d="M 259.5,487.5 C 269.833,487.5 280.167,487.5 290.5,487.5C 290.5,492.5 290.5,497.5 290.5,502.5C 280.167,502.5 269.833,502.5 259.5,502.5C 259.5,497.5 259.5,492.5 259.5,487.5 Z"/></g>
<g><path style="opacity:1" fill="#898768" d="M 414.5,502.5 C 414.5,507.833 414.5,513.167 414.5,518.5C 409.167,518.5 403.833,518.5 398.5,518.5C 398.5,518.167 398.5,517.833 398.5,517.5C 403.5,517.5 408.5,517.5 413.5,517.5C 413.179,512.305 413.513,507.305 414.5,502.5 Z"/></g>
<g><path style="opacity:1" fill="#004b01" d="M 382.5,487.5 C 383.487,492.305 383.821,497.305 383.5,502.5C 383.5,507.5 383.5,512.5 383.5,517.5C 388.5,517.5 393.5,517.5 398.5,517.5C 398.5,517.833 398.5,518.167 398.5,518.5C 393.167,518.5 387.833,518.5 382.5,518.5C 382.5,513.167 382.5,507.833 382.5,502.5C 382.5,497.5 382.5,492.5 382.5,487.5 Z"/></g>
<g><path style="opacity:1" fill="#050605" d="M 227.5,518.5 C 227.833,518.5 228.167,518.5 228.5,518.5C 233.5,518.5 238.5,518.5 243.5,518.5C 243.5,523.5 243.5,528.5 243.5,533.5C 248.5,533.5 253.5,533.5 258.5,533.5C 258.5,538.833 258.5,544.167 258.5,549.5C 253.5,549.5 248.5,549.5 243.5,549.5C 243.5,544.5 243.5,539.5 243.5,534.5C 238.489,534.666 233.489,534.499 228.5,534C 227.529,528.928 227.195,523.762 227.5,518.5 Z"/></g>
<g><path style="opacity:1" fill="#057e00" d="M 228.5,518.5 C 228.5,518.167 228.5,517.833 228.5,517.5C 238.833,517.5 249.167,517.5 259.5,517.5C 259.5,522.833 259.5,528.167 259.5,533.5C 259.167,533.5 258.833,533.5 258.5,533.5C 253.5,533.5 248.5,533.5 243.5,533.5C 243.5,528.5 243.5,523.5 243.5,518.5C 238.5,518.5 233.5,518.5 228.5,518.5 Z"/></g>
<g><path style="opacity:1" fill="#c0bb5c" d="M 475.5,518.5 C 475.5,523.5 475.5,528.5 475.5,533.5C 470.5,533.5 465.5,533.5 460.5,533.5C 460.5,528.5 460.5,523.5 460.5,518.5C 465.5,518.5 470.5,518.5 475.5,518.5 Z"/></g>
<g><path style="opacity:1" fill="#35331f" d="M 490.5,502.5 C 486.03,503.486 481.363,503.819 476.5,503.5C 476.5,513.833 476.5,524.167 476.5,534.5C 475.833,534.5 475.5,534.167 475.5,533.5C 475.5,528.5 475.5,523.5 475.5,518.5C 475.5,513.167 475.5,507.833 475.5,502.5C 480.5,502.5 485.5,502.5 490.5,502.5 Z"/></g>
<g><path style="opacity:1" fill="#097e00" d="M 259.5,533.5 C 280.167,533.5 300.833,533.5 321.5,533.5C 321.5,538.833 321.5,544.167 321.5,549.5C 311.167,549.5 300.833,549.5 290.5,549.5C 280.347,548.506 270.014,548.172 259.5,548.5C 259.5,543.5 259.5,538.5 259.5,533.5 Z"/></g>
<g><path style="opacity:1" fill="#c1bb5d" d="M 459.5,533.5 C 459.5,538.5 459.5,543.5 459.5,548.5C 454.305,548.179 449.305,548.513 444.5,549.5C 444.5,554.5 444.5,559.5 444.5,564.5C 434.5,564.5 424.5,564.5 414.5,564.5C 413.513,569.305 413.179,574.305 413.5,579.5C 392.833,579.5 372.167,579.5 351.5,579.5C 341.5,579.5 331.5,579.5 321.5,579.5C 321.821,574.305 321.487,569.305 320.5,564.5C 310.5,564.5 300.5,564.5 290.5,564.5C 290.5,559.5 290.5,554.5 290.5,549.5C 300.833,549.5 311.167,549.5 321.5,549.5C 336.833,549.5 352.167,549.5 367.5,549.5C 388.167,549.5 408.833,549.5 429.5,549.5C 429.5,544.167 429.5,538.833 429.5,533.5C 439.5,533.5 449.5,533.5 459.5,533.5 Z"/></g>
<g><path style="opacity:1" fill="#070706" d="M 460.5,533.5 C 465.5,533.5 470.5,533.5 475.5,533.5C 475.5,534.167 475.833,534.5 476.5,534.5C 476.5,539.5 476.5,544.5 476.5,549.5C 471.167,549.5 465.833,549.5 460.5,549.5C 460.5,544.167 460.5,538.833 460.5,533.5 Z"/></g>
<g><path style="opacity:1" fill="#1c4a09" d="M 258.5,533.5 C 258.833,533.5 259.167,533.5 259.5,533.5C 259.5,538.5 259.5,543.5 259.5,548.5C 270.014,548.172 280.347,548.506 290.5,549.5C 290.5,554.5 290.5,559.5 290.5,564.5C 290.167,564.5 289.833,564.5 289.5,564.5C 289.5,559.5 289.5,554.5 289.5,549.5C 279.167,549.5 268.833,549.5 258.5,549.5C 258.5,544.167 258.5,538.833 258.5,533.5 Z"/></g>
<g><path style="opacity:1" fill="#857e42" d="M 459.5,533.5 C 459.833,533.5 460.167,533.5 460.5,533.5C 460.5,538.833 460.5,544.167 460.5,549.5C 455.167,549.5 449.833,549.5 444.5,549.5C 449.305,548.513 454.305,548.179 459.5,548.5C 459.5,543.5 459.5,538.5 459.5,533.5 Z"/></g>
<g><path style="opacity:1" fill="#050605" d="M 258.5,549.5 C 268.833,549.5 279.167,549.5 289.5,549.5C 289.5,554.5 289.5,559.5 289.5,564.5C 279.167,564.5 268.833,564.5 258.5,564.5C 258.5,559.5 258.5,554.5 258.5,549.5 Z"/></g>
<g><path style="opacity:1" fill="#050505" d="M 289.5,564.5 C 289.833,564.5 290.167,564.5 290.5,564.5C 300.5,564.5 310.5,564.5 320.5,564.5C 320.5,569.833 320.5,575.167 320.5,580.5C 310.167,580.5 299.833,580.5 289.5,580.5C 289.5,575.167 289.5,569.833 289.5,564.5 Z"/></g>
<g><path style="opacity:1" fill="#070706" d="M 444.5,549.5 C 449.833,549.5 455.167,549.5 460.5,549.5C 460.5,554.5 460.5,559.5 460.5,564.5C 455.5,564.5 450.5,564.5 445.5,564.5C 445.5,569.5 445.5,574.5 445.5,579.5C 445.167,579.5 444.833,579.5 444.5,579.5C 434.5,579.5 424.5,579.5 414.5,579.5C 414.5,574.5 414.5,569.5 414.5,564.5C 424.5,564.5 434.5,564.5 444.5,564.5C 444.5,559.5 444.5,554.5 444.5,549.5 Z"/></g>
<g><path style="opacity:1" fill="#635c31" d="M 320.5,564.5 C 321.487,569.305 321.821,574.305 321.5,579.5C 331.5,579.5 341.5,579.5 351.5,579.5C 351.5,579.833 351.5,580.167 351.5,580.5C 341.167,580.5 330.833,580.5 320.5,580.5C 320.5,575.167 320.5,569.833 320.5,564.5 Z"/></g>
<g><path style="opacity:1" fill="#565128" d="M 414.5,564.5 C 414.5,569.5 414.5,574.5 414.5,579.5C 424.5,579.5 434.5,579.5 444.5,579.5C 439.695,580.487 434.695,580.821 429.5,580.5C 424.167,580.5 418.833,580.5 413.5,580.5C 413.5,580.167 413.5,579.833 413.5,579.5C 413.179,574.305 413.513,569.305 414.5,564.5 Z"/></g>
<g><path style="opacity:1" fill="#88752a" d="M 444.5,579.5 C 444.833,579.5 445.167,579.5 445.5,579.5C 450.5,579.5 455.5,579.5 460.5,579.5C 460.5,584.833 460.5,590.167 460.5,595.5C 450.167,595.5 439.833,595.5 429.5,595.5C 429.5,590.5 429.5,585.5 429.5,580.5C 434.695,580.821 439.695,580.487 444.5,579.5 Z"/></g>
<g><path style="opacity:1" fill="#050605" d="M 320.5,580.5 C 330.833,580.5 341.167,580.5 351.5,580.5C 351.5,585.5 351.5,590.5 351.5,595.5C 346.5,595.5 341.5,595.5 336.5,595.5C 336.5,600.833 336.5,606.167 336.5,611.5C 336.5,616.5 336.5,621.5 336.5,626.5C 331.167,626.5 325.833,626.5 320.5,626.5C 320.5,611.167 320.5,595.833 320.5,580.5 Z"/></g>
<g><path style="opacity:1" fill="#87752c" d="M 351.5,579.5 C 372.167,579.5 392.833,579.5 413.5,579.5C 413.5,579.833 413.5,580.167 413.5,580.5C 413.5,585.5 413.5,590.5 413.5,595.5C 408.5,595.5 403.5,595.5 398.5,595.5C 398.5,590.5 398.5,585.5 398.5,580.5C 388.167,580.5 377.833,580.5 367.5,580.5C 367.5,585.5 367.5,590.5 367.5,595.5C 367.5,600.5 367.5,605.5 367.5,610.5C 362.167,610.5 356.833,610.5 351.5,610.5C 351.5,605.5 351.5,600.5 351.5,595.5C 351.5,590.5 351.5,585.5 351.5,580.5C 351.5,580.167 351.5,579.833 351.5,579.5 Z"/></g>
<g><path style="opacity:1" fill="#060606" d="M 413.5,595.5 C 413.5,600.833 413.5,606.167 413.5,611.5C 403.5,611.5 393.5,611.5 383.5,611.5C 382.833,611.5 382.5,611.167 382.5,610.5C 382.5,605.5 382.5,600.5 382.5,595.5C 377.5,595.5 372.5,595.5 367.5,595.5C 367.5,590.5 367.5,585.5 367.5,580.5C 377.833,580.5 388.167,580.5 398.5,580.5C 398.5,585.5 398.5,590.5 398.5,595.5C 403.5,595.5 408.5,595.5 413.5,595.5 Z"/></g>
<g><path style="opacity:1" fill="#c0ba5c" d="M 413.5,580.5 C 418.833,580.5 424.167,580.5 429.5,580.5C 429.5,585.5 429.5,590.5 429.5,595.5C 429.5,600.5 429.5,605.5 429.5,610.5C 424.5,610.5 419.5,610.5 414.5,610.5C 414.821,605.305 414.487,600.305 413.5,595.5C 413.5,590.5 413.5,585.5 413.5,580.5 Z"/></g>
<g><path style="opacity:1" fill="#c3bc61" d="M 351.5,595.5 C 351.5,600.5 351.5,605.5 351.5,610.5C 356.833,610.5 362.167,610.5 367.5,610.5C 367.5,610.833 367.5,611.167 367.5,611.5C 357.167,611.5 346.833,611.5 336.5,611.5C 336.5,606.167 336.5,600.833 336.5,595.5C 341.5,595.5 346.5,595.5 351.5,595.5 Z"/></g>
<g><path style="opacity:1" fill="#f9f2b9" d="M 429.5,595.5 C 439.833,595.5 450.167,595.5 460.5,595.5C 460.5,600.5 460.5,605.5 460.5,610.5C 450.167,610.5 439.833,610.5 429.5,610.5C 429.5,605.5 429.5,600.5 429.5,595.5 Z"/></g>
<g><path style="opacity:1" fill="#88762a" d="M 460.5,595.5 C 465.833,595.5 471.167,595.5 476.5,595.5C 476.5,600.5 476.5,605.5 476.5,610.5C 471.167,610.5 465.833,610.5 460.5,610.5C 460.5,605.5 460.5,600.5 460.5,595.5 Z"/></g>
<g><path style="opacity:1" fill="#6e6a45" d="M 413.5,595.5 C 414.487,600.305 414.821,605.305 414.5,610.5C 419.5,610.5 424.5,610.5 429.5,610.5C 439.833,610.5 450.167,610.5 460.5,610.5C 465.833,610.5 471.167,610.5 476.5,610.5C 476.5,610.833 476.5,611.167 476.5,611.5C 455.5,611.5 434.5,611.5 413.5,611.5C 413.5,606.167 413.5,600.833 413.5,595.5 Z"/></g>
<g><path style="opacity:1" fill="#f9f2ba" d="M 336.5,611.5 C 346.833,611.5 357.167,611.5 367.5,611.5C 367.5,616.5 367.5,621.5 367.5,626.5C 372.5,626.5 377.5,626.5 382.5,626.5C 382.5,631.5 382.5,636.5 382.5,641.5C 372.5,641.5 362.5,641.5 352.5,641.5C 352.821,636.305 352.487,631.305 351.5,626.5C 346.5,626.5 341.5,626.5 336.5,626.5C 336.5,621.5 336.5,616.5 336.5,611.5 Z"/></g>
<g><path style="opacity:1" fill="#89772c" d="M 367.5,610.5 C 372.5,610.5 377.5,610.5 382.5,610.5C 382.5,611.167 382.833,611.5 383.5,611.5C 383.5,616.167 383.5,620.833 383.5,625.5C 383.5,625.833 383.5,626.167 383.5,626.5C 383.167,626.5 382.833,626.5 382.5,626.5C 377.5,626.5 372.5,626.5 367.5,626.5C 367.5,621.5 367.5,616.5 367.5,611.5C 367.5,611.167 367.5,610.833 367.5,610.5 Z"/></g>
<g><path style="opacity:1" fill="#050605" d="M 413.5,611.5 C 434.5,611.5 455.5,611.5 476.5,611.5C 476.5,616.5 476.5,621.5 476.5,626.5C 455.5,626.5 434.5,626.5 413.5,626.5C 413.5,621.5 413.5,616.5 413.5,611.5 Z"/></g>
<g><path style="opacity:1" fill="#050605" d="M 383.5,625.5 C 388.5,625.5 393.5,625.5 398.5,625.5C 398.5,631.167 398.5,636.833 398.5,642.5C 393.5,642.5 388.5,642.5 383.5,642.5C 383.5,637.167 383.5,631.833 383.5,626.5C 383.5,626.167 383.5,625.833 383.5,625.5 Z"/></g>
<g><path style="opacity:1" fill="#050605" d="M 336.5,626.5 C 341.5,626.5 346.5,626.5 351.5,626.5C 351.5,631.833 351.5,637.167 351.5,642.5C 346.5,642.5 341.5,642.5 336.5,642.5C 336.5,637.167 336.5,631.833 336.5,626.5 Z"/></g>
<g><path style="opacity:1" fill="#67614d" d="M 351.5,626.5 C 352.487,631.305 352.821,636.305 352.5,641.5C 362.5,641.5 372.5,641.5 382.5,641.5C 382.5,636.5 382.5,631.5 382.5,626.5C 382.833,626.5 383.167,626.5 383.5,626.5C 383.5,631.833 383.5,637.167 383.5,642.5C 372.833,642.5 362.167,642.5 351.5,642.5C 351.5,637.167 351.5,631.833 351.5,626.5 Z"/></g>
<g><path style="opacity:1" fill="#050505" d="M 351.5,642.5 C 362.167,642.5 372.833,642.5 383.5,642.5C 383.5,647.5 383.5,652.5 383.5,657.5C 372.833,657.5 362.167,657.5 351.5,657.5C 351.5,652.5 351.5,647.5 351.5,642.5 Z"/></g>
</svg>
